<svg xmlns="http://www.w3.org/2000/svg" width="1250" height="833.333"><path d="M0 0h1250v833.333H0Z"/><path d="m442.361 234.028 43.49 83.246 15.538-15.538 108.724 108.767h-71.224v-21.961l-89.583 28.125 89.583 28.125V422.83h71.224L501.389 531.597 485.85 516.06l-43.49 83.247 83.247-43.49-15.539-15.538 108.768-108.724v71.224h-21.962L625 592.36l28.125-89.583h-21.962v-71.224l108.768 108.724-15.539 15.538 83.247 43.49-43.49-83.247-15.538 15.538L639.887 422.83h71.224v21.962l89.583-28.125-89.583-28.125v21.961h-71.224l108.724-108.767 15.538 15.538 43.49-83.246-83.247 43.49 15.539 15.538L631.163 401.78v-71.224h21.962L625 240.972l-28.125 89.584h21.962v71.224L510.069 293.056l15.539-15.539Z" fill="#ffcd01"/></svg>