<svg xmlns="http://www.w3.org/2000/svg" width="1280" height="800" viewBox="0 0 16 10"><path fill="#fff" style="fill:#090;fill-opacity:1" d="M0 0h16v10H0z"/><path fill="#dc143c" style="fill:#ff0100;fill-opacity:1;stroke:none" d="M0 5h16v5H0z"/><path style="fill:#ece710;fill-opacity:1;fill-rule:evenodd;stroke:#000;stroke-width:.0109407;stroke-miterlimit:4;stroke-dasharray:none" d="M9.319 8.553c-.46.173-.923.272-1.383.27-.46 0-.921-.116-1.381-.255.188-.51.383-1.032.462-1.454a9.326 9.326 0 0 0-1.02-2.2l.204-.274.306.062.186-.31.365.128.287-.241.325.2.29-.258.283.26.34-.202.284.246.359-.12.191.3.32-.042.156.27c-.408.648-.884 1.3-.992 2.11.087.417.244.99.418 1.51Z"/><path style="fill:none;fill-rule:evenodd;stroke:#000;stroke-width:.0109407;stroke-miterlimit:4;stroke-dasharray:none" d="m7.93 6.302-.15.004-.09-1.782.247-.189-.007 1.967zm-.21.012-.132.007A25.65 25.65 0 0 0 7.39 4.38l.26.155.07 1.78Zm-.184.01-.127.013a10.997 10.997 0 0 0-.313-1.772l.233-.18c.095.643.172 1.288.207 1.94zm-.17.004-.074.007a42.37 42.37 0 0 0-.53-1.834l.27.084c.121.586.233 1.167.334 1.743Zm-.109.013-.107.014a18.26 18.26 0 0 0-.608-1.601l.149-.22c.203.598.393 1.2.566 1.807zm-.165.008-.126.01c-.2-.546-.428-1.086-.677-1.622l.203.037c.209.525.411 1.05.6 1.575zm-.178.013-.089.005a8.183 8.183 0 0 0-.715-1.45l.115-.16c.247.526.481 1.059.689 1.605zm.163.834-.425 1.336.113.037c.136-.46.28-.921.41-1.382m.034 0c-.127.461-.271.93-.4 1.398l.115.036.36-1.437m.032 0a12.1 12.1 0 0 1-.345 1.449l.154.04c.094-.502.19-1.003.262-1.5m.053-.002-.28 1.511.15.028c.071-.515.145-1.03.201-1.546m.293-.025-.03 1.64h.149l.004-1.677m-.173.043-.02 1.63-.166-.015c.044-.536.086-1.072.115-1.608m-.054.004a40.25 40.25 0 0 1-.106 1.592l-.165-.027c.083-.52.136-1.04.183-1.56m-.523-.606.068.409m.074-.393.087.347m-.016-.366.103.418M7.3 6.56l.041.362m.002-.34.064.32m.002-.32.067.32m.45-.436v.425m-.112-.417.015.533m-.089-.554v.502m-.12-.446.027.395m-.09-.366.03.37m-.128-.353.057.33m-.45-.308.108.389m.81-.664.165.004.078-1.774-.243-.197v1.967zm.222.012.1.003c.045-.66.152-1.305.235-1.925l-.266.137Zm.166.009.129.014c.055-.59.19-1.162.334-1.753l-.23-.192c-.097.642-.205 1.279-.233 1.93Zm.178.005.091.007a25.33 25.33 0 0 1 .524-1.838l-.28.088a21.917 21.917 0 0 0-.335 1.743Zm.137.013.127.01c.086-.38.274-.971.563-1.599l-.154-.24c-.193.597-.357 1.221-.536 1.829Zm.161.003.077.004c.182-.555.465-1.081.727-1.61l-.224.038c-.231.52-.42 1.037-.58 1.568Zm.11.003h.087c.185-.504.49-.941.774-1.406l-.105-.184c-.264.522-.56 1.038-.756 1.59Zm-.06.906c.073.423.199.845.347 1.268l-.124.044a10.04 10.04 0 0 1-.295-1.499m-.037.01a6.48 6.48 0 0 0 .295 1.5l-.106.035a8.681 8.681 0 0 1-.253-1.531m-.053-.007c.074.653.162 1.136.27 1.546l-.15.044c-.102-.5-.16-1.078-.225-1.577m-.049.008c.062.608.128 1.143.226 1.581l-.15.035c-.1-.483-.14-1.078-.164-1.62m-.256.003a57.97 57.97 0 0 0-.006 1.678l.165-.019c-.054-.562-.058-1.168-.075-1.67m.065.004c.017.53.012 1.131.06 1.662l.17-.03c-.097-.524-.124-1.11-.152-1.624m.34-.535-.058.36m-.017-.367-.04.414m-.018-.405-.038.361m-.047-.34L8.5 6.87m-.51-.405v.425m.112-.417-.014.533m.089-.554v.502m.11-.444-.017.393m.104-.364-.024.369m.1-.354-.019.33m.387-.334-.075.415m-.646.119.032 1.688-.152.007.01-1.675"/><g style="fill:#ece710;fill-opacity:1;fill-rule:evenodd"><path style="fill:#ece710;fill-opacity:1;stroke:#000;stroke-width:.141111;stroke-miterlimit:4;stroke-dasharray:none" d="m82.582 140.142-.07 6.404 1.21 1.279v-5.79h.935v8.263l1.14-.415v-6.569h.87v29.108c-.647 1.658-1.647 2.68-3 3.064h-3.239c-1.353-.385-2.353-1.406-3-3.064v-29.108h.87v6.569l1.14.415v-8.263h.935v5.79l1.21-1.28-.07-6.403z" transform="translate(1.639 -9.69) scale(.07753)"/><path style="fill:#ece710;fill-opacity:1;stroke:#000;stroke-width:.141111;stroke-miterlimit:4;stroke-dasharray:none" d="M83.395 150.018c0-1.05-.471-2-1.23-2.662-.076-.067-.158-.067-.235 0a3.528 3.528 0 0 0-1.23 2.662c0 1.05.472 2 1.23 2.662.077.067.159.067.235 0a3.528 3.528 0 0 0 1.23-2.662zm-2.439 2.308a3.615 3.615 0 0 0-2.524-1.427c-.098-.01-.16.037-.177.133a3.616 3.616 0 0 0 .675 2.82 3.615 3.615 0 0 0 2.525 1.427c.098.01.16-.036.177-.133a3.616 3.616 0 0 0-.676-2.82zm0 3.85a3.615 3.615 0 0 0-2.524-1.427c-.098-.01-.16.036-.177.133a3.616 3.616 0 0 0 .675 2.82 3.616 3.616 0 0 0 2.525 1.427c.098.01.16-.036.177-.133a3.615 3.615 0 0 0-.676-2.82zm0 3.85a3.615 3.615 0 0 0-2.524-1.427c-.098-.01-.16.036-.177.133a3.616 3.616 0 0 0 .675 2.82 3.616 3.616 0 0 0 2.525 1.427c.098.01.16-.036.177-.133a3.615 3.615 0 0 0-.676-2.82zm0 3.85a3.615 3.615 0 0 0-2.524-1.427c-.098-.01-.16.036-.177.133a3.616 3.616 0 0 0 .675 2.82 3.616 3.616 0 0 0 2.525 1.427c.098.01.16-.036.177-.133a3.615 3.615 0 0 0-.676-2.82zm0 3.85a3.615 3.615 0 0 0-2.524-1.427c-.098-.01-.16.036-.177.133a3.616 3.616 0 0 0 .675 2.82 3.616 3.616 0 0 0 2.525 1.427c.098.01.16-.036.177-.133a3.615 3.615 0 0 0-.676-2.82zm0 3.85a3.615 3.615 0 0 0-2.524-1.427c-.098-.01-.16.037-.177.133a3.616 3.616 0 0 0 .675 2.82 3.615 3.615 0 0 0 2.525 1.427c.098.01.16-.036.177-.133a3.616 3.616 0 0 0-.676-2.82zm2.184-19.25a3.615 3.615 0 0 1 2.524-1.427c.098-.01.16.037.176.133a3.616 3.616 0 0 1-.675 2.82 3.615 3.615 0 0 1-2.525 1.427c-.098.01-.16-.036-.177-.133a3.616 3.616 0 0 1 .676-2.82zm-.001 3.85a3.615 3.615 0 0 1 2.524-1.427c.098-.01.16.036.177.133a3.616 3.616 0 0 1-.675 2.82 3.616 3.616 0 0 1-2.525 1.427c-.098.01-.16-.036-.177-.133a3.615 3.615 0 0 1 .676-2.82zm0 3.85a3.615 3.615 0 0 1 2.524-1.427c.098-.01.16.036.177.133a3.616 3.616 0 0 1-.675 2.82 3.616 3.616 0 0 1-2.525 1.427c-.098.01-.16-.036-.177-.133a3.615 3.615 0 0 1 .676-2.82zm0 3.85a3.615 3.615 0 0 1 2.524-1.427c.098-.01.16.036.177.133a3.616 3.616 0 0 1-.675 2.82 3.616 3.616 0 0 1-2.525 1.427c-.098.01-.16-.036-.177-.133a3.615 3.615 0 0 1 .676-2.82zm0 3.85a3.615 3.615 0 0 1 2.524-1.427c.098-.01.16.036.177.133a3.616 3.616 0 0 1-.675 2.82 3.616 3.616 0 0 1-2.525 1.427c-.098.01-.16-.036-.177-.133a3.615 3.615 0 0 1 .676-2.82zm.001 3.85a3.615 3.615 0 0 1 2.524-1.427c.098-.01.16.037.176.133a3.616 3.616 0 0 1-.675 2.82 3.615 3.615 0 0 1-2.525 1.427c-.098.01-.16-.036-.177-.133a3.616 3.616 0 0 1 .676-2.82zm-16.368-30.002 1.154 6.3 1.431 1.024-1.104-5.683.917-.178 1.576 8.11 1.04-.625-1.253-6.447.853-.166 5.554 28.573c-.318 1.75-1.104 2.944-2.36 3.58l-3.179.617c-1.402-.119-2.578-.93-3.528-2.435l-5.554-28.573.853-.165 1.253 6.447 1.199.19-1.577-8.11.917-.179 1.105 5.683.943-1.486-1.29-6.273z" transform="translate(1.639 -9.69) scale(.07753)"/><path style="fill:#ece710;fill-opacity:1;stroke:#000;stroke-width:.141111;stroke-miterlimit:4;stroke-dasharray:none" d="M69.455 151.113a3.528 3.528 0 0 0-1.716-2.378c-.088-.052-.168-.036-.23.044a3.528 3.528 0 0 0-.7 2.849 3.528 3.528 0 0 0 1.715 2.378c.088.051.169.036.231-.045.618-.795.9-1.816.7-2.848zm-1.955 2.731a3.615 3.615 0 0 0-2.75-.919c-.098.01-.15.066-.148.165a3.616 3.616 0 0 0 1.201 2.64 3.616 3.616 0 0 0 2.75.918c.099-.009.15-.066.15-.164a3.616 3.616 0 0 0-1.202-2.64zm.735 3.779a3.615 3.615 0 0 0-2.75-.918c-.098.009-.15.066-.148.164a3.616 3.616 0 0 0 1.2 2.64 3.616 3.616 0 0 0 2.752.918c.097-.009.149-.066.148-.164a3.615 3.615 0 0 0-1.202-2.64zm.735 3.78a3.614 3.614 0 0 0-2.75-.92c-.098.01-.15.067-.149.165a3.616 3.616 0 0 0 1.201 2.64 3.616 3.616 0 0 0 2.751.919c.098-.01.15-.067.148-.165a3.615 3.615 0 0 0-1.201-2.64zm.735 3.779a3.615 3.615 0 0 0-2.75-.919c-.099.01-.15.066-.149.164a3.616 3.616 0 0 0 1.2 2.64 3.616 3.616 0 0 0 2.752.919c.098-.01.15-.066.148-.165a3.615 3.615 0 0 0-1.201-2.64zm.735 3.779a3.615 3.615 0 0 0-2.751-.919c-.098.01-.15.066-.148.165a3.616 3.616 0 0 0 1.2 2.64 3.616 3.616 0 0 0 2.751.918c.098-.009.15-.066.149-.165a3.615 3.615 0 0 0-1.202-2.639zm.734 3.779a3.616 3.616 0 0 0-2.75-.919c-.099.01-.15.067-.149.165a3.616 3.616 0 0 0 1.201 2.64 3.616 3.616 0 0 0 2.75.918c.099-.009.15-.066.15-.164a3.616 3.616 0 0 0-1.202-2.64zm-1.531-19.312a3.616 3.616 0 0 1 2.206-1.883c.094-.028.164.006.2.098a3.616 3.616 0 0 1-.126 2.897 3.616 3.616 0 0 1-2.206 1.882c-.094.029-.163-.005-.199-.097a3.616 3.616 0 0 1 .125-2.897zm.735 3.779a3.614 3.614 0 0 1 2.206-1.882c.094-.029.163.005.199.097a3.616 3.616 0 0 1-.125 2.897 3.616 3.616 0 0 1-2.206 1.882c-.094.029-.164-.005-.2-.097a3.615 3.615 0 0 1 .126-2.897zm.734 3.779a3.615 3.615 0 0 1 2.206-1.882c.094-.029.164.005.2.097a3.616 3.616 0 0 1-.125 2.897 3.616 3.616 0 0 1-2.207 1.882c-.094.029-.163-.005-.199-.097a3.615 3.615 0 0 1 .125-2.897zm.735 3.78a3.614 3.614 0 0 1 2.206-1.883c.094-.028.163.005.199.097a3.616 3.616 0 0 1-.125 2.898 3.616 3.616 0 0 1-2.206 1.882c-.094.028-.164-.005-.2-.097a3.615 3.615 0 0 1 .126-2.897zm.735 3.779a3.614 3.614 0 0 1 2.206-1.882c.094-.03.163.005.198.096a3.615 3.615 0 0 1-.124 2.898 3.616 3.616 0 0 1-2.207 1.882c-.094.028-.163-.005-.199-.097a3.615 3.615 0 0 1 .126-2.897zm.734 3.779a3.616 3.616 0 0 1 2.206-1.882c.094-.029.164.005.2.097a3.616 3.616 0 0 1-.126 2.897 3.616 3.616 0 0 1-2.206 1.882c-.094.029-.163-.005-.199-.097a3.616 3.616 0 0 1 .125-2.897zm-20.159-23.85 2.136 5.457 1.466.67-1.985-4.912.792-.32 2.833 7.01.825-.743-2.252-5.573.738-.298 9.978 24.698c.02 1.628-.478 2.837-1.494 3.627l-2.748 1.11c-1.28.138-2.479-.386-3.595-1.57l-9.979-24.698.738-.298 2.252 5.573 1.11-.039-2.833-7.01.792-.32 1.985 4.912.588-1.5-2.254-5.41z" transform="translate(1.639 -9.69) scale(.07753)"/><path style="fill:#ece710;fill-opacity:1;stroke:#000;stroke-width:.141111;stroke-miterlimit:4;stroke-dasharray:none" d="M57.233 156.574a3.229 3.229 0 0 0-1.957-1.837c-.088-.03-.157-.002-.2.08a3.229 3.229 0 0 0-.13 2.681 3.229 3.229 0 0 0 1.956 1.838c.088.03.158.002.2-.081.416-.822.49-1.79.13-2.68zm-1.279 2.795a3.309 3.309 0 0 0-2.63-.345c-.087.025-.124.085-.105.173a3.309 3.309 0 0 0 1.54 2.162 3.309 3.309 0 0 0 2.631.345c.086-.026.123-.086.104-.174a3.309 3.309 0 0 0-1.54-2.161zm1.32 3.266a3.308 3.308 0 0 0-2.631-.345c-.087.025-.123.086-.104.174a3.309 3.309 0 0 0 1.54 2.161 3.31 3.31 0 0 0 2.63.345c.087-.025.124-.085.105-.174a3.308 3.308 0 0 0-1.54-2.16zm1.32 3.267a3.308 3.308 0 0 0-2.631-.345c-.087.025-.123.085-.105.173a3.309 3.309 0 0 0 1.54 2.162 3.31 3.31 0 0 0 2.632.345c.086-.025.122-.086.104-.174a3.308 3.308 0 0 0-1.54-2.161zm1.32 3.267a3.308 3.308 0 0 0-2.631-.346c-.087.025-.123.086-.105.174a3.309 3.309 0 0 0 1.54 2.161 3.31 3.31 0 0 0 2.631.345c.087-.025.123-.085.105-.173a3.308 3.308 0 0 0-1.54-2.161zm1.32 3.266a3.308 3.308 0 0 0-2.632-.345c-.086.025-.123.086-.104.174a3.309 3.309 0 0 0 1.54 2.161 3.31 3.31 0 0 0 2.631.345c.087-.025.123-.085.105-.174a3.308 3.308 0 0 0-1.54-2.16zm1.319 3.267a3.309 3.309 0 0 0-2.63-.345c-.087.025-.124.085-.105.174a3.309 3.309 0 0 0 1.54 2.161 3.309 3.309 0 0 0 2.631.345c.087-.025.123-.086.104-.174a3.309 3.309 0 0 0-1.54-2.161zm-4.747-17.082a3.309 3.309 0 0 1 1.653-2.076c.08-.042.148-.023.196.053a3.31 3.31 0 0 1 .394 2.624 3.309 3.309 0 0 1-1.654 2.076c-.08.042-.147.024-.195-.052a3.309 3.309 0 0 1-.394-2.625zm1.32 3.267a3.308 3.308 0 0 1 1.653-2.076c.08-.042.148-.024.195.052.475.755.643 1.698.394 2.625a3.31 3.31 0 0 1-1.653 2.076c-.08.042-.148.024-.196-.052a3.308 3.308 0 0 1-.393-2.625zm1.32 3.267a3.308 3.308 0 0 1 1.653-2.076c.08-.042.147-.024.195.052.475.754.643 1.697.394 2.625a3.31 3.31 0 0 1-1.653 2.076c-.08.042-.148.023-.196-.053a3.308 3.308 0 0 1-.393-2.624zm1.32 3.266a3.308 3.308 0 0 1 1.652-2.076c.08-.042.148-.024.196.053a3.31 3.31 0 0 1 .394 2.624 3.31 3.31 0 0 1-1.653 2.076c-.08.042-.148.024-.196-.052a3.308 3.308 0 0 1-.393-2.625zm1.319 3.267a3.308 3.308 0 0 1 1.653-2.076c.08-.042.148-.024.196.052.474.755.642 1.698.394 2.625a3.31 3.31 0 0 1-1.653 2.076c-.08.042-.148.024-.196-.053a3.308 3.308 0 0 1-.394-2.624zm1.32 3.267a3.309 3.309 0 0 1 1.653-2.076c.08-.042.148-.024.196.052.474.754.642 1.697.394 2.625a3.309 3.309 0 0 1-1.654 2.076c-.08.042-.147.023-.195-.053a3.309 3.309 0 0 1-.394-2.624zm-22.536-17.577 2.829 4.46 1.411.342-2.6-4.005.646-.42 3.712 5.716.602-.799-2.95-4.544.6-.39 13.077 20.136c.298 1.437.065 2.593-.699 3.467l-2.24 1.455c-1.109.342-2.26.084-3.451-.772l-13.077-20.136.602-.391 2.95 4.544.976-.225-3.712-5.716.646-.42 2.6 4.005.263-1.428-2.924-4.399z" transform="translate(1.639 -9.69) scale(.07753)"/><path style="fill:#ece710;fill-opacity:1;stroke:#000;stroke-width:.141111;stroke-miterlimit:4;stroke-dasharray:none" d="M46.868 163.844a2.91 2.91 0 0 0-2.047-1.29c-.083-.012-.14.025-.162.106a2.91 2.91 0 0 0 .345 2.395 2.91 2.91 0 0 0 2.047 1.289c.083.012.14-.025.163-.106a2.91 2.91 0 0 0-.346-2.394zm-.65 2.692a2.982 2.982 0 0 0-2.388.147c-.072.037-.094.097-.062.172a2.98 2.98 0 0 0 1.734 1.647c.813.296 1.673.22 2.388-.147.072-.037.094-.097.062-.172a2.982 2.982 0 0 0-1.734-1.647zm1.729 2.664a2.981 2.981 0 0 0-2.387.146c-.072.037-.094.097-.062.172.311.74.92 1.352 1.734 1.648a2.983 2.983 0 0 0 2.387-.148c.072-.037.094-.097.063-.172a2.982 2.982 0 0 0-1.735-1.647zm1.73 2.662a2.982 2.982 0 0 0-2.387.148c-.073.037-.094.096-.063.171.312.74.921 1.352 1.734 1.648a2.981 2.981 0 0 0 2.388-.148c.072-.037.094-.096.062-.171a2.982 2.982 0 0 0-1.734-1.648zm1.73 2.664a2.982 2.982 0 0 0-2.388.147c-.072.037-.094.097-.062.172.311.74.92 1.351 1.734 1.647a2.98 2.98 0 0 0 2.387-.147c.073-.037.094-.097.063-.172a2.982 2.982 0 0 0-1.734-1.647zm1.729 2.664a2.981 2.981 0 0 0-2.387.146c-.072.037-.094.097-.063.172.312.74.921 1.352 1.734 1.648a2.981 2.981 0 0 0 2.388-.148c.072-.037.094-.097.063-.171a2.982 2.982 0 0 0-1.735-1.648zm1.73 2.662a2.982 2.982 0 0 0-2.388.148c-.072.037-.094.096-.062.171.312.74.92 1.352 1.734 1.648a2.982 2.982 0 0 0 2.388-.148c.072-.037.094-.096.062-.171a2.983 2.983 0 0 0-1.734-1.648zm-7.138-14.297c.06-.863.48-1.617 1.105-2.12.063-.052.127-.047.182.012.55.586.86 1.391.8 2.254a2.983 2.983 0 0 1-1.106 2.122c-.063.05-.126.046-.182-.013a2.982 2.982 0 0 1-.8-2.255zm1.729 2.664c.06-.864.48-1.618 1.106-2.121.063-.051.126-.047.182.012.55.586.86 1.391.8 2.255a2.983 2.983 0 0 1-1.106 2.12c-.063.052-.127.047-.182-.012a2.982 2.982 0 0 1-.8-2.254zm1.73 2.663a2.98 2.98 0 0 1 1.105-2.121c.064-.051.127-.047.182.013.55.585.86 1.39.8 2.254a2.983 2.983 0 0 1-1.105 2.121c-.064.051-.127.047-.183-.013a2.982 2.982 0 0 1-.8-2.254zm1.729 2.663c.06-.863.48-1.617 1.106-2.12.063-.052.127-.047.182.012.55.585.86 1.391.8 2.254a2.983 2.983 0 0 1-1.106 2.121c-.063.051-.127.047-.182-.012a2.982 2.982 0 0 1-.8-2.255zm1.73 2.664c.06-.863.48-1.618 1.106-2.121.063-.051.126-.047.182.012.549.586.86 1.392.8 2.255a2.983 2.983 0 0 1-1.106 2.121c-.063.05-.127.046-.182-.013a2.982 2.982 0 0 1-.8-2.254zm1.73 2.663c.06-.863.48-1.617 1.105-2.121.063-.05.127-.047.182.013.55.585.86 1.39.8 2.254a2.982 2.982 0 0 1-1.106 2.121c-.063.051-.126.047-.182-.012a2.982 2.982 0 0 1-.8-2.255zm65.85-21.495-2.829 4.46-1.411.342 2.6-4.005-.646-.42-3.712 5.716-.602-.799 2.951-4.544-.602-.39-13.076 20.136c-.298 1.437-.065 2.593.699 3.467l2.24 1.455c1.109.342 2.26.084 3.451-.772l13.077-20.136-.602-.391-2.95 4.544-.976-.225 3.712-5.716-.646-.42-2.6 4.005-.263-1.428 2.924-4.399z" transform="translate(1.639 -9.69) scale(.07753)"/><path style="fill:#ece710;fill-opacity:1;stroke:#000;stroke-width:.141111;stroke-miterlimit:4;stroke-dasharray:none" d="M117.227 163.844a2.91 2.91 0 0 1 2.047-1.29c.083-.012.14.025.162.106a2.91 2.91 0 0 1-.345 2.395 2.91 2.91 0 0 1-2.047 1.289c-.083.012-.14-.025-.162-.106a2.91 2.91 0 0 1 .345-2.394zm.65 2.692a2.982 2.982 0 0 1 2.388.147c.072.037.094.097.062.172a2.983 2.983 0 0 1-1.734 1.647 2.983 2.983 0 0 1-2.388-.147c-.072-.037-.094-.097-.062-.172a2.982 2.982 0 0 1 1.734-1.647zm-1.729 2.664a2.981 2.981 0 0 1 2.387.146c.073.037.094.097.063.172a2.982 2.982 0 0 1-1.734 1.648 2.983 2.983 0 0 1-2.388-.148c-.072-.037-.094-.097-.062-.172a2.982 2.982 0 0 1 1.734-1.647zm-1.73 2.662a2.982 2.982 0 0 1 2.387.148c.073.037.095.096.063.171a2.982 2.982 0 0 1-1.734 1.648 2.983 2.983 0 0 1-2.388-.148c-.072-.037-.094-.096-.062-.171a2.982 2.982 0 0 1 1.734-1.648zm-1.73 2.664a2.982 2.982 0 0 1 2.388.147c.072.037.094.097.062.172a2.982 2.982 0 0 1-1.734 1.647 2.983 2.983 0 0 1-2.387-.147c-.073-.037-.094-.097-.063-.172a2.982 2.982 0 0 1 1.734-1.647zm-1.728 2.664a2.981 2.981 0 0 1 2.386.146c.073.037.095.097.063.172a2.982 2.982 0 0 1-1.734 1.648 2.983 2.983 0 0 1-2.388-.148c-.072-.037-.094-.097-.062-.171a2.982 2.982 0 0 1 1.734-1.648zm-1.73 2.662a2.982 2.982 0 0 1 2.387.148c.072.037.094.096.062.171a2.983 2.983 0 0 1-1.734 1.648 2.982 2.982 0 0 1-2.387-.148c-.073-.037-.094-.096-.063-.171a2.983 2.983 0 0 1 1.734-1.648zm7.138-14.297a2.982 2.982 0 0 0-1.106-2.12c-.063-.052-.127-.047-.182.012a2.983 2.983 0 0 0-.8 2.254 2.98 2.98 0 0 0 1.106 2.122c.063.05.126.046.182-.013.55-.586.86-1.391.8-2.255zm-1.73 2.664a2.981 2.981 0 0 0-1.106-2.121c-.063-.051-.126-.047-.182.012a2.982 2.982 0 0 0-.8 2.255c.06.863.48 1.617 1.106 2.12.063.052.127.047.182-.012a2.98 2.98 0 0 0 .8-2.254zm-1.73 2.663a2.982 2.982 0 0 0-1.105-2.121c-.063-.051-.127-.047-.182.013a2.982 2.982 0 0 0-.8 2.254c.06.863.48 1.618 1.106 2.121.063.051.126.047.182-.013.55-.585.86-1.39.8-2.254zm-1.729 2.663a2.982 2.982 0 0 0-1.106-2.12c-.063-.052-.126-.047-.182.012a2.982 2.982 0 0 0-.8 2.254c.06.863.48 1.618 1.106 2.121.063.051.127.047.182-.012.55-.586.86-1.391.8-2.255zm-1.73 2.664a2.982 2.982 0 0 0-1.105-2.121c-.064-.051-.127-.047-.183.012a2.982 2.982 0 0 0-.8 2.255c.061.863.48 1.617 1.106 2.121.064.05.127.046.183-.013.549-.585.86-1.39.799-2.254zm-1.729 2.663a2.982 2.982 0 0 0-1.106-2.121c-.063-.05-.127-.047-.182.013a2.983 2.983 0 0 0-.8 2.254c.06.863.48 1.618 1.106 2.121.063.051.126.047.182-.012.549-.586.86-1.392.8-2.255zm-10.397-37.298-1.154 6.3-1.431 1.024 1.104-5.683-.917-.178-1.576 8.11-1.04-.625 1.253-6.447-.853-.166-5.554 28.573c.318 1.75 1.104 2.944 2.36 3.58l3.179.617c1.402-.119 2.578-.93 3.529-2.435l5.554-28.573-.854-.165-1.253 6.447-1.199.19 1.577-8.11-.917-.179-1.105 5.683-.943-1.486 1.29-6.273z" transform="translate(1.639 -9.69) scale(.07753)"/><path style="fill:#ece710;fill-opacity:1;stroke:#000;stroke-width:.141111;stroke-miterlimit:4;stroke-dasharray:none" d="M94.64 151.113a3.528 3.528 0 0 1 1.716-2.378c.088-.052.169-.036.231.044.618.796.9 1.817.7 2.849a3.528 3.528 0 0 1-1.716 2.378c-.088.051-.168.036-.231-.045a3.528 3.528 0 0 1-.7-2.848zm1.954 2.731a3.615 3.615 0 0 1 2.75-.919c.099.01.15.066.149.165a3.616 3.616 0 0 1-1.201 2.64 3.616 3.616 0 0 1-2.75.918c-.099-.009-.15-.066-.149-.164a3.616 3.616 0 0 1 1.201-2.64zm-.734 3.779a3.615 3.615 0 0 1 2.75-.918c.098.009.15.066.148.164a3.616 3.616 0 0 1-1.2 2.64 3.616 3.616 0 0 1-2.751.918c-.098-.009-.15-.066-.148-.164a3.615 3.615 0 0 1 1.2-2.64zm-.735 3.78a3.614 3.614 0 0 1 2.75-.92c.099.01.15.067.149.165a3.616 3.616 0 0 1-1.201 2.64 3.616 3.616 0 0 1-2.75.919c-.099-.01-.15-.067-.149-.165a3.615 3.615 0 0 1 1.201-2.64zm-.735 3.779a3.615 3.615 0 0 1 2.75-.919c.099.01.15.066.149.164a3.616 3.616 0 0 1-1.2 2.64 3.616 3.616 0 0 1-2.752.919c-.098-.01-.15-.066-.148-.165a3.615 3.615 0 0 1 1.201-2.64zm-.734 3.779a3.615 3.615 0 0 1 2.75-.919c.098.01.15.066.148.165a3.616 3.616 0 0 1-1.2 2.64 3.616 3.616 0 0 1-2.751.918c-.098-.009-.15-.066-.148-.165a3.615 3.615 0 0 1 1.2-2.639zm-.735 3.779a3.616 3.616 0 0 1 2.75-.919c.099.01.15.067.149.165a3.616 3.616 0 0 1-1.201 2.64 3.616 3.616 0 0 1-2.75.918c-.099-.009-.15-.066-.149-.164a3.616 3.616 0 0 1 1.201-2.64zm1.531-19.312a3.616 3.616 0 0 0-2.206-1.883c-.094-.028-.163.006-.199.098a3.616 3.616 0 0 0 .125 2.897c.46.943 1.275 1.6 2.206 1.882.094.029.164-.005.2-.097a3.616 3.616 0 0 0-.126-2.897zm-.735 3.779a3.614 3.614 0 0 0-2.206-1.882c-.094-.029-.163.005-.199.097a3.616 3.616 0 0 0 .125 2.897c.46.943 1.275 1.6 2.206 1.882.094.029.164-.005.2-.097a3.615 3.615 0 0 0-.126-2.897zm-.734 3.779a3.615 3.615 0 0 0-2.206-1.882c-.094-.029-.164.005-.2.097a3.616 3.616 0 0 0 .126 2.897c.46.943 1.274 1.6 2.206 1.882.094.029.163-.005.199-.097a3.615 3.615 0 0 0-.125-2.897zm-.735 3.78a3.614 3.614 0 0 0-2.206-1.883c-.094-.028-.163.005-.199.097a3.616 3.616 0 0 0 .125 2.898 3.62 3.62 0 0 0 2.206 1.882c.094.028.164-.005.2-.097a3.615 3.615 0 0 0-.126-2.897zm-.734 3.779a3.614 3.614 0 0 0-2.206-1.882c-.094-.03-.164.005-.2.096a3.615 3.615 0 0 0 .125 2.898c.46.943 1.275 1.6 2.207 1.882.094.028.163-.005.199-.097a3.615 3.615 0 0 0-.125-2.897zm-.735 3.779a3.615 3.615 0 0 0-2.206-1.882c-.094-.029-.164.005-.2.097a3.616 3.616 0 0 0 .126 2.897c.46.943 1.274 1.6 2.206 1.882.094.029.163-.005.199-.097a3.616 3.616 0 0 0-.125-2.897zm20.159-23.85-2.136 5.457-1.465.67 1.984-4.912-.792-.32-2.833 7.01-.825-.743 2.252-5.573-.738-.298-9.978 24.698c-.02 1.628.478 2.837 1.495 3.627l2.748 1.11c1.28.138 2.478-.386 3.595-1.57l9.978-24.698-.738-.298-2.251 5.573-1.11-.039 2.833-7.01-.793-.32-1.985 4.912-.588-1.5 2.254-5.41z" transform="translate(1.639 -9.69) scale(.07753)"/><path style="fill:#ece710;fill-opacity:1;stroke:#000;stroke-width:.141111;stroke-miterlimit:4;stroke-dasharray:none" d="M106.862 156.574a3.229 3.229 0 0 1 1.957-1.837c.088-.03.157-.002.2.08.416.823.49 1.79.13 2.681a3.229 3.229 0 0 1-1.956 1.838c-.088.03-.158.002-.2-.081a3.229 3.229 0 0 1-.13-2.68zm1.278 2.795a3.309 3.309 0 0 1 2.632-.345c.087.025.123.085.104.173a3.309 3.309 0 0 1-1.54 2.162 3.309 3.309 0 0 1-2.63.345c-.087-.026-.124-.086-.105-.174a3.309 3.309 0 0 1 1.54-2.161zm-1.319 3.266a3.308 3.308 0 0 1 2.631-.345c.087.025.123.086.104.174a3.309 3.309 0 0 1-1.54 2.161 3.31 3.31 0 0 1-2.63.345c-.087-.025-.123-.085-.105-.174a3.308 3.308 0 0 1 1.54-2.16zm-1.32 3.267a3.308 3.308 0 0 1 2.631-.345c.087.025.123.085.105.173a3.309 3.309 0 0 1-1.54 2.162 3.31 3.31 0 0 1-2.631.345c-.087-.025-.123-.086-.105-.174a3.308 3.308 0 0 1 1.54-2.161zm-1.32 3.267a3.308 3.308 0 0 1 2.632-.346c.086.025.123.086.104.174a3.309 3.309 0 0 1-1.54 2.161 3.31 3.31 0 0 1-2.631.345c-.087-.025-.123-.085-.105-.173a3.308 3.308 0 0 1 1.54-2.161zm-1.319 3.266a3.308 3.308 0 0 1 2.63-.345c.087.025.124.086.105.174a3.309 3.309 0 0 1-1.54 2.161 3.31 3.31 0 0 1-2.631.345c-.086-.025-.123-.085-.104-.174a3.308 3.308 0 0 1 1.54-2.16zm-1.32 3.267a3.309 3.309 0 0 1 2.631-.345c.087.025.123.085.104.174a3.309 3.309 0 0 1-1.54 2.161 3.309 3.309 0 0 1-2.63.345c-.087-.025-.124-.086-.105-.174a3.309 3.309 0 0 1 1.54-2.161zm4.747-17.082a3.309 3.309 0 0 0-1.653-2.076c-.08-.042-.148-.023-.196.053a3.309 3.309 0 0 0-.394 2.624c.249.928.866 1.66 1.654 2.076.08.042.147.024.195-.052a3.309 3.309 0 0 0 .394-2.625zm-1.32 3.267a3.308 3.308 0 0 0-1.653-2.076c-.08-.042-.148-.024-.195.052a3.309 3.309 0 0 0-.394 2.625 3.31 3.31 0 0 0 1.653 2.076c.08.042.148.024.196-.052a3.308 3.308 0 0 0 .393-2.625zm-1.319 3.267a3.308 3.308 0 0 0-1.654-2.076c-.08-.042-.147-.024-.195.052a3.309 3.309 0 0 0-.394 2.625 3.31 3.31 0 0 0 1.653 2.076c.08.042.148.023.196-.053a3.308 3.308 0 0 0 .393-2.624zm-1.32 3.266a3.308 3.308 0 0 0-1.653-2.076c-.08-.042-.148-.024-.196.053a3.309 3.309 0 0 0-.394 2.624 3.31 3.31 0 0 0 1.653 2.076c.08.042.148.024.196-.052a3.308 3.308 0 0 0 .393-2.625zm-1.32 3.267a3.308 3.308 0 0 0-1.653-2.076c-.08-.042-.148-.024-.196.052a3.309 3.309 0 0 0-.394 2.625 3.31 3.31 0 0 0 1.653 2.076c.08.042.148.024.196-.053a3.308 3.308 0 0 0 .394-2.624zm-1.32 3.267a3.309 3.309 0 0 0-1.653-2.076c-.08-.042-.148-.024-.196.052a3.309 3.309 0 0 0-.394 2.625c.249.927.866 1.66 1.654 2.076.08.042.147.023.195-.053a3.309 3.309 0 0 0 .394-2.624z" transform="translate(1.639 -9.69) scale(.07753)"/></g><path d="M6.663 6.376s.86-.084 1.293-.088a17.54 17.54 0 0 1 1.217.063l-.125.335s-.66-.067-1.092-.063c-.432.005-1.168.088-1.168.088zm.235.527h2.099l-.025.29H6.948Z" style="fill:#c0ad0f;fill-opacity:1;stroke:#3a3405;stroke-width:.0375;stroke-linecap:square;stroke-miterlimit:4;stroke-dasharray:none;stroke-opacity:1;paint-order:stroke markers fill"/></svg>