<svg xmlns="http://www.w3.org/2000/svg" height="909.867" width="1365.333"><g style="display:inline"><path style="fill:#890014;fill-opacity:1;stroke-width:10;stroke-linecap:round;stroke-linejoin:round;paint-order:fill markers stroke" d="M0 0h1365.333v909.867H0z"/></g><path d="M.265 455.2.533.533l548.8-.25c301.84-.139 608.32.116 681.067.565 78.41.484 132.81.424 133.6-.146 1.066-.77 1.333 90.247 1.333 454.1v455.065H-.002Zm231.931 297.811c126.026-83.924 229.279-152.987 229.451-153.475.173-.487-1.65-6.582-4.051-13.544-12.523-36.316-17.548-69.087-17.559-114.525-.01-37.91 2.509-59.59 10.579-91.076 21.107-82.355 79.541-156.564 150.393-190.992 24.892-12.096 46.392-18.779 76.007-23.625 13.995-2.29 60.645-3.232 79.128-1.598 58.815 5.2 105.596 22.34 148.39 54.366 10.974 8.214 32.346 29.543 35.085 35.016 3.357 6.707 2.88 10.994-2.485 22.319-2.602 5.494-4.522 9.99-4.265 9.99.257 0 95.747-63.521 212.201-141.158L1356.804 3.552l-107.378-.71c-59.059-.39-363.86-.709-677.336-.709H2.133v451.734c0 248.453.209 451.733.463 451.733.255 0 103.575-68.665 229.6-152.589zm535.383 20.815c60.103-7.188 108.898-30.748 150.463-72.65 18.4-18.548 25.279-29.48 22.745-36.143-2.085-5.484-15.087-26.23-37.415-59.7-22.724-34.062-29.272-42.657-33.81-44.382-3.043-1.157-3.737-.698-22.095 14.611-22.513 18.775-42.004 30.334-62.78 37.232-17.112 5.682-25.199 7.063-44.954 7.675-21.086.653-32.171-.818-48.702-6.464-40.96-13.99-72.324-52.342-84.073-102.805-.717-3.08-1.499-5.6-1.737-5.6s-32.137 21.14-70.885 46.976c-63.76 42.514-70.388 47.2-69.778 49.334 1.787 6.242 17.298 35.768 24.773 47.157 16.131 24.574 39.76 50.978 60.536 67.645 51.27 41.132 115.092 61.24 187.733 59.15 9.387-.27 22.877-1.186 29.979-2.036zm-47.714-345.56c61.641-41.066 112.088-74.936 112.105-75.265.016-.33-5.177-4.049-11.542-8.265-20.076-13.299-40.234-21.58-61.495-25.262-12.29-2.13-36.591-2.166-48.543-.074-53.242 9.317-92.708 52.43-104.085 113.698-2.381 12.826-3.182 43.468-1.524 58.345.743 6.662 1.724 11.973 2.18 11.802.456-.171 51.263-33.912 112.904-74.978zm153.04-49.11c4.16-2.032 8.657-7.707 18.357-23.161 12.592-20.062 38.556-65.862 37.337-65.862-.506 0-92.874 61.221-94.401 62.569-.258.228.702 1.233 2.133 2.234 1.431 1 6.202 4.978 10.602 8.838 11.907 10.446 20.208 17.026 21.48 17.026.622 0 2.644-.74 4.492-1.643z" style="fill:#000;stroke-width:1.06667"/></svg>