<svg xmlns="http://www.w3.org/2000/svg" viewBox="0 0 1280 1280" height="4837.795" width="4837.795"><path style="fill:#000;fill-opacity:1;stroke:none;stroke-width:13.5863;stroke-linecap:round;stroke-linejoin:round;paint-order:markers stroke fill" d="M-3.468-2.933h1280v1280h-1280z" transform="translate(3.468 2.933)"/><path style="fill:#416a01;fill-opacity:1;stroke:none;stroke-width:13.5863;stroke-linecap:round;stroke-linejoin:round;paint-order:markers stroke fill" d="M-3.468-2.933h1280l-1280 1280Z" transform="translate(3.468 2.933)"/><path style="fill:#416a01;fill-opacity:1;stroke-width:.950083" d="M636.532 161.786 161.015 637.303l237.52 237.523 237.997 237.521 475.517-475.044Zm0 142.517 130.163 130.956-129.812 129.838L505.9 434.934Zm-202.036 202.84 131.01 130.161-131.009 130.162-130.964-130.162Zm404.086 0 130.952 130.161-130.632 130.162L708.74 636.947ZM636.533 708.326l130.162 131.026-130.167 130.483-130.156-130.489Z" transform="translate(3.468 2.933)"/><path style="fill:#000;stroke-width:.950083" d="M636.532 161.786 161.015 637.303l237.52 237.522.12.12L874.17 399.427zm0 142.517 130.164 130.955-129.814 129.84-130.98-130.165ZM434.496 507.142l131.008 130.164L434.5 767.466l-130.967-130.16Z" transform="translate(3.468 2.933)"/></svg>