<svg xmlns="http://www.w3.org/2000/svg" width="1250" height="833.333"><path style="stroke-width:2.77778" d="M0 0h1250v833.333H0z"/><path fill="red" d="M0 833.333 1250 0H0z"/><path d="M212.29 388.454c-.316-1.098-3.253-10.193-3.751-20.514l-3.177-18.518-6.17-1.28c-3.392-.705-8.945-2.236-12.338-3.404-3.394-1.167-6.796-1.866-7.562-1.553-.765.313-3.05 2.73-5.08 5.371-2.028 2.642-5.109 6.42-6.847 8.395-1.738 1.975-5.47 6.444-8.296 9.93-2.824 3.487-5.514 6.365-5.978 6.395-.67.045-13.45-6.923-22.464-12.246-1.334-.788-.646-3.575 3.88-15.727 3.026-8.124 6.22-16.776 7.098-19.227l1.597-4.458-9.606-9.499-9.606-9.499-14.131 5.208c-22.84 8.416-23.967 8.766-24.91 7.72-.492-.546-2.707-4.331-4.92-8.412-2.215-4.08-4.971-9.054-6.126-11.054-1.155-2-1.853-3.825-1.55-4.057 1.496-1.15 14.32-11.785 14.815-12.287.721-.73 15.302-12.964 15.709-13.18.166-.089-.712-3.449-1.951-7.468-1.24-4.018-2.811-9.914-3.493-13.1l-1.24-5.795L77.7 237.06c-10.172-1.724-19.393-3.389-20.491-3.698-1.759-.496-1.998-2.184-1.998-14.106 0-11.913.24-13.611 1.998-14.125 1.098-.32 10.27-1.975 20.38-3.676l18.383-3.093 2.907-10.952c1.6-6.024 3.21-11.98 3.58-13.235.518-1.757-.574-3.262-4.741-6.534-2.978-2.34-6.706-5.42-8.284-6.848-2.402-2.173-15.474-13.11-17.003-14.226-.566-.413.549-2.67 7.205-14.592 2.795-5.006 5.548-9.258 6.119-9.448.57-.19 9.374 2.762 19.563 6.56l18.525 6.907 9.55-9.659 9.551-9.658-6.876-18.988c-3.783-10.443-6.703-19.15-6.49-19.348 1.211-1.124 22.769-13.15 23.49-13.104.476.03 3.177 2.917 6.001 6.416 2.825 3.498 5.656 6.94 6.29 7.648.943 1.052 4.86 5.775 13.243 15.966.444.54 4.064-.09 8.043-1.4 3.979-1.311 9.93-2.951 13.226-3.646 3.295-.694 5.992-1.81 5.992-2.478 0-1.373 5.398-33.152 6.304-37.113.568-2.487 1.018-2.568 14.184-2.568 11.978 0 13.663.238 14.15 1.997.305 1.098 1.96 10.31 3.68 20.472l3.125 18.475 5.813 1.326c3.198.73 9.102 2.31 13.12 3.512 4.02 1.202 7.38 2.05 7.468 1.883.089-.166 2.964-3.63 6.39-7.7l9.08-10.79c1.57-1.864 4.675-5.396 6.902-7.848l4.048-4.458 10.218 5.797c5.62 3.189 10.951 6.23 11.847 6.76 1.338.79.38 4.37-5.376 20.1l-7.005 19.14 9.742 9.741 9.741 9.742 4.195-1.803c8.108-3.487 29.331-10.998 31.908-11.293 2.177-.25 3.449 1.203 7.733 8.832 6.652 11.843 7.822 14.203 7.251 14.62-1.117.816-14.22 11.686-14.736 12.226-.314.328-3.653 3.128-7.419 6.223l-7.828 6.434c-.54.443.048 3.806 1.305 7.472 1.258 3.666 1.835 9.917 3.588 13.029l1.302 6.363 18.507 3.137c10.178 1.725 19.405 3.39 20.504 3.7 1.758.496 1.997 2.184 1.997 14.105 0 11.932-.238 13.606-1.997 14.078-1.812.487-6.788 1.38-31.671 5.684-4.394.76-8.013 1.889-8.041 2.508-.14 3.052-2.012 10.998-4.116 17.464-1.29 3.963-2.163 7.323-1.942 7.467.66.428 15.053 12.56 17.34 14.615 1.16 1.043 4.609 3.868 7.663 6.277 3.054 2.409 5.573 4.759 5.599 5.222.036.671-6.981 13.533-12.257 22.465-.786 1.33-4.42.347-20.153-5.455l-19.194-7.077-9.555 9.62c-5.256 5.291-9.556 9.957-9.556 10.368 0 .411.952 2.902 2.115 5.536 3.289 7.443 11.915 31.657 11.437 32.104-1.206 1.128-22.787 13.193-23.529 13.154-.476-.025-2.78-2.465-5.118-5.421-2.339-2.957-6.06-7.43-8.267-9.94-2.208-2.512-5.944-7.002-8.302-9.98-3.279-4.141-4.824-5.26-6.57-4.76-4.35 1.246-18.274 4.849-21.19 5.482-2.833.615-3.034 1.255-6.056 19.213-1.72 10.217-3.389 19.476-3.71 20.574-.513 1.757-2.211 1.997-14.125 1.997-11.917 0-13.61-.24-14.116-1.997zm33.327-69.366c30.131-5.715 57.824-26.377 71.018-52.985 14.478-29.2 15.18-59.243 2.089-89.305-12.828-29.457-41.864-51.87-74.588-57.576-37.09-6.468-74.311 7.732-97.687 37.268-31.733 40.094-27.995 99.363 8.512 134.979 14.279 13.93 32.86 23.9 51.33 27.542 10.977 2.164 28.146 2.198 39.326.077zm21.305-29.838a1150.337 1150.337 0 0 0-9.651-8.239 4901.05 4901.05 0 0 1-14.266-12.116 1451.066 1451.066 0 0 0-14.122-11.88l-6.082-5.025-19.048 19.023-19.047 19.022-7.728-7.787-7.727-7.787 17.726-17.616c9.75-9.689 17.73-18.175 17.735-18.86.01-1.323-5.198-6.314-13.888-13.307-5.606-4.512-9.521-5.3-15.34-3.088-2.704 1.028-3.53.798-6-1.673l-2.865-2.864 2.787-2.41c1.534-1.327 11.406-10.846 21.94-21.154 10.532-10.309 19.818-18.743 20.635-18.743 2.81 0 4.573 5.143 3.156 9.209-.707 2.027-1.285 4.61-1.285 5.74 0 2.714 14.797 22.389 17.566 23.357 1.671.584 4.452-1.53 12.317-9.36 5.587-5.563 11.164-12.02 12.393-14.35 2.424-4.593 2.938-12.29 1.055-15.809-2.189-4.09-9.44-6.772-18.462-6.83l-8.32-.053 5.677-2.952c14.819-7.705 33.38-2.898 48.356 12.524 3.063 3.155 4.48 5.4 3.709 5.876-3.47 2.145-.298 11.777 5.233 15.893 2.342 1.743 3.374 1.9 5.664.856 1.54-.701 3.525-1.275 4.413-1.275 2.031 0 6.268 4.463 6.268 6.603 0 2.257-14.819 17.364-17.033 17.364-2.012 0-8.423-5.468-7.815-6.665 3.938-7.75 4.017-6.93-1.118-11.72-8.099-7.555-9.82-6.928-26.266 9.557-7.68 7.698-13.963 14.79-13.963 15.758s1.234 3.272 2.743 5.12c1.508 1.846 7.972 10.034 14.363 18.195 6.391 8.16 12.476 15.865 13.52 17.123 1.046 1.257 3.552 4.39 5.57 6.962l3.67 4.676-3.33 4.528c-2.608 3.546-7.768 7.458-9.484 7.19-.127-.019-1.773-1.375-3.656-3.013zm-110.667-85.93c-1.761-1.945-1.92-3.527-1.212-12.034.693-8.314 1.063-9.59 2.449-8.44 1.982 1.645 1.873 1.794 3.835-5.247 1.848-6.63 2.075-11.44.724-15.293l-.961-2.739 12.97.785c20.009 1.21 27.238 4.478 27.238 12.311 0 3.234-2.146 8.97-3.322 8.879-.37-.029-1.957-2.725-3.526-5.992-3.345-6.963-6.848-8.614-6.848-3.227 0 1.899-.556 6.045-1.236 9.214-1.086 5.066-1.583 5.763-4.104 5.763-1.577 0-4.389-1.083-6.248-2.407-1.86-1.324-3.61-2.177-3.89-1.897-.282.281-.637 3.504-.791 7.162-.19 4.516.178 6.804 1.147 7.127 2.497.835 1.534 2.57-1.427 2.57-3.342 0-3.547.765-.964 3.619 1.81 2 1.603 2.087-4.96 2.087-5.354 0-7.289-.488-8.874-2.24z" style="fill:#000;fill-opacity:1;stroke-width:1.1413"/></svg>