<svg xmlns="http://www.w3.org/2000/svg" viewBox="0 0 338.667 225.69" height="853" width="1280"><defs><path id="a" d="M37.042 173.869h303.893v32.506H37.042z"/></defs><g style="opacity:.999"><path style="fill:#fff700;fill-opacity:1;stroke:none;stroke-width:2.265" d="M-2.646-1.134h343.958v232.077H-2.646z"/><g style="font-size:25.4px;line-height:1.25;font-family:sans-serif;letter-spacing:0;word-spacing:0;white-space:pre;shape-inside:url(#a)" transform="translate(-6.798 3.896)" aria-label="DONT TREAD ON ME"><path style="font-style:normal;font-variant:normal;font-weight:800;font-stretch:normal;font-size:25.4px;font-family:Montserrat;-inkscape-font-specification:'Montserrat Ultra-Bold'" d="M38.819 179.434h8.407q2.921 0 5.182 1.092 2.26 1.093 3.505 3.1 1.245 2.006 1.245 4.698 0 2.693-1.245 4.7-1.244 2.006-3.505 3.098-2.26 1.092-5.182 1.092H38.82zm8.204 13.767q2.286 0 3.658-1.295 1.397-1.296 1.397-3.582 0-2.286-1.397-3.581-1.372-1.296-3.658-1.296h-3.175v9.754zm21.747 4.369q-2.82 0-5.08-1.194-2.235-1.194-3.53-3.302-1.27-2.108-1.27-4.75 0-2.641 1.27-4.75 1.295-2.108 3.53-3.302 2.26-1.193 5.08-1.193 2.82 0 5.055 1.193 2.26 1.194 3.53 3.302 1.296 2.109 1.296 4.75 0 2.642-1.296 4.75-1.27 2.108-3.53 3.302-2.236 1.194-5.055 1.194zm0-4.166q1.346 0 2.438-.635 1.093-.635 1.728-1.778.635-1.168.635-2.667 0-1.498-.635-2.641-.635-1.169-1.728-1.804-1.092-.635-2.438-.635t-2.438.635q-1.093.635-1.728 1.804-.635 1.143-.635 2.641 0 1.499.635 2.667.635 1.143 1.728 1.778 1.092.635 2.438.635zm29.431-13.97v17.78h-4.14l-7.849-9.474v9.474h-4.927v-17.78h4.14l7.848 9.474v-9.474zm7.357 3.988h-5.461v-3.988h15.926v3.988h-5.436v13.792h-5.03zm23.515 0h-5.461v-3.988h15.926v3.988h-5.436v13.792h-5.03zm20.111 9.068h-2.744v4.724h-5.029v-17.78h8.128q2.413 0 4.191.813 1.778.787 2.743 2.286.966 1.473.966 3.48 0 1.93-.915 3.378-.889 1.422-2.565 2.235l3.835 5.588h-5.385zm3.175-6.477q0-1.245-.788-1.93-.787-.686-2.337-.686h-2.794v5.207h2.794q1.55 0 2.337-.66.788-.687.788-1.931zm22.129 7.315v3.886h-14.275v-17.78h13.945v3.886h-8.966v2.998h7.899v3.759h-7.9v3.25zm14.703.432h-7.518l-1.397 3.454h-5.13l7.848-17.78h4.953l7.874 17.78h-5.233zm-1.473-3.709-2.286-5.69-2.286 5.69zm9.504-10.617h8.407q2.921 0 5.182 1.092 2.26 1.093 3.505 3.1 1.245 2.006 1.245 4.698 0 2.693-1.245 4.7-1.245 2.006-3.505 3.098t-5.182 1.092h-8.407zm8.204 13.767q2.286 0 3.658-1.295 1.397-1.296 1.397-3.582 0-2.286-1.397-3.581-1.372-1.296-3.658-1.296h-3.175v9.754zm29.139 4.369q-2.82 0-5.08-1.194-2.236-1.194-3.531-3.302-1.27-2.108-1.27-4.75 0-2.641 1.27-4.75 1.295-2.108 3.53-3.302 2.261-1.193 5.08-1.193 2.82 0 5.055 1.193 2.26 1.194 3.53 3.302 1.296 2.109 1.296 4.75 0 2.642-1.295 4.75-1.27 2.108-3.53 3.302-2.236 1.194-5.055 1.194zm0-4.166q1.346 0 2.438-.635t1.727-1.778q.635-1.168.635-2.667 0-1.498-.635-2.641-.635-1.169-1.727-1.804t-2.438-.635q-1.347 0-2.439.635t-1.727 1.804q-.635 1.143-.635 2.641 0 1.499.635 2.667.635 1.143 1.727 1.778t2.439.635zm29.431-13.97v17.78h-4.14l-7.85-9.474v9.474h-4.927v-17.78h4.14l7.849 9.474v-9.474zm27.016 17.78-.05-9.423-4.572 7.67h-2.236l-4.546-7.416v9.17h-4.648v-17.78h4.14l6.248 10.26 6.096-10.26h4.14l.051 17.78zm22.432-3.886v3.886h-14.275v-17.78h13.945v3.886h-8.967v2.998h7.9v3.759h-7.9v3.25z"/></g><path d="M184.115 165.406c-2.999-3.758-3.134-3.805-4.662-1.625-1.594 2.277-5.952 2.56-6.575.428-.181-.62 5.353-8.018 12.3-16.441 25.839-25.721 29.776-27.115 55.388-59.293 1.63 8.328 2.151 16.627 2.651 25.057l-.365 9.01-4.038.338c-2.662.223-4.549-.277-5.538-1.469-1.335-1.609-1.665-1.415-3 1.762-1.635 4.341-2.18 8.73-3.234 13.24l-1.733 5.836c-3.42-.117-7.394-.818-10.315-2.408-2.28-1.684-4.49.456-6.595 5.505-9.618 23.063-17.013 29.173-24.284 20.06zM95.454 67.923c-.232-11.166 8.76-24.472 19.818-29.33 7.928-3.484 19.46-3.566 27.071-.194 6.424 2.846 16.88 12.458 20.767 19.09 1.548 2.642 2.971 4.803 3.163 4.803.192 0 1.616-2.161 3.164-4.802 3.887-6.633 14.342-16.245 20.766-19.091 11.782-4.192 24.01-5.25 33.682 1.73 6.376 4.816 15.318 13.89 15.42 23.425 4.095 27.626-59.553 71.57-72.326 96.705-18.391-27.222-70.841-61.592-71.525-92.336Z" style="fill:#000;stroke-width:1.12616"/></g></svg>