<svg xmlns="http://www.w3.org/2000/svg" width="1280" height="853" viewBox="0 0 338.667 225.69"><path style="fill:#fc0808;stroke-width:.264583;fill-opacity:.96862745" d="M-10.583-12.095h355.298v246.44H-10.583z"/><path style="fill:#edf734;fill-opacity:1;stroke-width:.654067" d="M159.314 36.796c-1.897.025-5.5 1.945-9.3 5.02-2.176 1.76-4.1 3.055-4.276 2.879-.176-.177.974-1.639 2.555-3.25 1.65-1.68 2.469-2.928 1.921-2.926-1.365.005-4.306 2.07-6.625 4.647-1.097 1.22-1.64 1.712-1.207 1.094.92-1.309.664-2.647-.375-1.963-.392.258-1.643 1.765-2.78 3.348-1.137 1.583-2.067 2.557-2.067 2.164 0-.392.294-.895.654-1.118.853-.527.848-2.289-.007-2.289-.363 0-1.467 1.167-2.453 2.592-.986 1.425-2.072 2.603-2.414 2.616-.342.015-.268-.328.163-.76.949-.948 1.02-1.832.149-1.832-.351 0-1.734 1.905-3.073 4.233-1.339 2.327-2.56 4.106-2.713 3.952-.154-.154.345-1.339 1.109-2.634 1.582-2.68 1.644-2.934.725-2.934-.365 0-1.247.956-1.96 2.125-.904 1.485-1.296 1.77-1.297.943-.005-2.222-1.452-.318-4.322 5.686-2.724 5.7-3.964 7.093-1.886 2.118.608-1.453.725-2.37.306-2.37-.376 0-.95.663-1.275 1.472-.326.81-.611 1.104-.634.654-.095-1.875-1.158-.58-2.312 2.815-.679 1.997-1.465 3.772-1.745 3.946-.28.173-.193-.593.194-1.703s.541-2.179.344-2.376c-.79-.79-1.663.591-2.435 3.856-.447 1.89-1.19 3.66-1.65 3.931-.461.272-1.03 1.368-1.264 2.436-.235 1.069-.731 1.876-1.104 1.795-.373-.08-1.126 1.62-1.672 3.778s-1.25 4.023-1.563 4.143c-.313.12-.57.635-.57 1.144 0 .51-.44.926-.98.926-.555 0-.981.586-.981 1.347 0 .74-.273 1.178-.606.972-1.038-.642-1.608 6.9-.81 10.718.409 1.954.613 3.68.456 3.837-.157.157-.468-.558-.691-1.59-.902-4.174-1.634-4.502-1.267-.567.201 2.158.341 5.145.311 6.639-.03 1.493.545 4.29 1.277 6.213 1.678 4.417 1.665 4.708-.082 1.864-.773-1.259-1.525-1.943-1.671-1.52-.289.838 1.386 4.586 3.78 8.46.833 1.347 1.162 2.23.73 1.964-.43-.266-1.23-1.347-1.776-2.404-.547-1.056-1.28-1.921-1.63-1.921-1.016 0-.756.945 1.013 3.67l1.652 2.543-1.965-2.248c-3.252-3.722-2.872-1.882.68 3.287 2.592 3.774 2.817 4.268 1.009 2.232-1.278-1.44-2.335-2.317-2.348-1.95-.033.887 2.932 5.32 5.46 8.163l2.037 2.29-2.32-2.126c-1.276-1.17-2.537-2.126-2.803-2.126-.982 0 .93 2.541 4.931 6.551 3.49 3.496 3.66 3.761 1.113 1.736-4.903-3.9-4.328-1.806.837 3.046 4.361 4.096 4.505 4.307 1.63 2.403-3.71-2.458-4.502-2.307-1.746.333 1.075 1.03 1.958 2.187 1.962 2.569.005.382 1.77 1.979 3.924 3.549 3.85 2.805 5.466 4.524 2.306 2.454-.886-.581-1.953-1.057-2.37-1.057-1.452 0 .59 1.683 3.96 3.26 1.808.848 3.17 1.66 3.024 1.806-.145.145-1.16-.2-2.254-.766-2.16-1.116-3.374-1.312-3.346-.539.017.458 3.32 2.01 11.612 5.45 1.9.788 3.342 1.543 3.207 1.679-.136.135-1.351-.214-2.7-.778-3.981-1.664-5.035-.787-1.237 1.028 1.857.888 3.517 2.11 3.688 2.716.186.663 1.311 1.29 2.825 1.574 2.046.384 2.272.56 1.217.952-1.188.44-1.142.542.544 1.207 1.012.4 2.125.725 2.473.725.348 0 .8.435 1.004.967.221.576 1.658 1.138 3.55 1.389 1.748.232 3.117.72 3.042 1.085-.197.956 2.47 1.554 7.712 1.73 4.499.15 7.808 1.34 3.891 1.4-10.1.153-17.82 3.193-15.43 6.074.642.772 1.259.841 2.907.326 4.929-1.543 13.206-3.708 13.407-3.507.12.12-1.272 1.03-3.095 2.022-5.554 3.023-3.272 5.406 2.414 2.52 1.705-.865 3.487-1.574 3.958-1.576.471 0 2.205-1.033 3.854-2.292 2.367-1.807 3.6-2.289 5.848-2.289 2.516 0 2.85.172 2.86 1.472.004.81.225 1.799.49 2.198 1.12 1.693 8.835 4.637 12.509 4.774.86.032 1.953-.456 2.43-1.086 1.13-1.487 1.116-1.826-.117-3.06-.577-.576-2.226-1.056-3.76-1.093-4.02-.096-5.797-.762-6.403-2.4-.724-1.957-.172-1.908 8.358.74 9.223 2.864 12.55 3.388 13.061 2.055.482-1.255-.838-2.888-3.006-3.72-.914-.35-4.31-.91-7.548-1.245-9.97-1.032-12.543-1.84-7.361-2.311 10.257-.935 11.612-1.221 11.612-2.454 0-.417 2.375-1.324 5.276-2.015 5.454-1.3 8.8-2.905 6.17-2.96-.76-.015.149-.705 2.17-1.647 1.914-.89 3.307-1.897 3.097-2.236-.21-.34.653-.992 1.918-1.45 2.424-.876 3.06-1.876 1.192-1.876-.61 0 .789-.956 3.107-2.125 2.317-1.17 4.43-2.42 4.694-2.78.912-1.241.496-1.601-1.134-.981-2.322.882-2.026.236.487-1.063 4.205-2.175 8.87-6.74 4.909-4.805-1.07.523-.884.168.68-1.299 1.183-1.11 2.068-2.38 1.967-2.822-.101-.442.628-1.869 1.621-3.17.993-1.303 1.647-2.785 1.451-3.294-.195-.51.167-1.52.805-2.244 2.288-2.6 3.759-6.176 2.123-5.165-.37.229.219-1.232 1.308-3.246 2.061-3.81 2.484-5.33 1.274-4.581-.39.24-.224-.497.367-1.64.59-1.144.956-2.428.81-2.853-.144-.426-.894.457-1.665 1.962-.771 1.504-1.718 2.931-2.105 3.17-.387.24.302-1.58 1.531-4.043 1.23-2.463 2.425-5.361 2.658-6.44.422-1.961.42-1.96-.86.326-1.51 2.696-1.703 2.366-.433-.737 1.75-4.276 1.895-5.177.762-4.743-.855.328-.933.125-.445-1.157.687-1.81.802-8.406.145-8.406-.245 0-.325-1.913-.176-4.252.182-2.855.032-4.251-.459-4.251-.406 0-.73-1.074-.73-2.42 0-2.802-1.056-2.246-1.487.785-.154 1.079-.328-.245-.387-2.943-.145-6.584-1.356-8.52-1.433-2.29-.077 6.311-1.165 3.588-1.226-3.068-.025-2.767-.34-5.212-.7-5.435-.36-.222-.687.276-.727 1.107-.04.838-.442.054-.903-1.76-.457-1.8-1.133-4.007-1.501-4.906a260.2 260.2 0 0 1-1.423-3.576c-.53-1.362-.908-1.69-1.273-1.1-.364.59-.763.251-1.34-1.144-.868-2.093-3.233-4.603-2.529-2.683.889 2.424 1.256 3.924.96 3.924-.176 0-.672-1.103-1.102-2.452-1.26-3.952-2.682-6.702-3.48-6.729-.41-.015-1.573-1.221-2.585-2.684-2.753-3.977-2.842-2.589-.184 2.863 1.294 2.654 2.345 5.103 2.338 5.442-.007.34-.911-1.149-2.009-3.307-2.835-5.58-6.003-10.136-7.046-10.137-.699-.001-.652.366.216 1.69 2.024 3.09.663 2.233-2.249-1.415-1.578-1.978-3.22-3.462-3.648-3.298-.429.165-2.056-1-3.617-2.59-3.022-3.08-6.036-4.256-3.218-1.256 1.816 1.932 1.234 2.131-1.207.413-2.915-2.053-7.305-4.082-7.959-3.678-.34.21-1.228.056-1.973-.343-.746-.399-2.002-.624-2.793-.5-1.17.185-.806.558 1.95 1.992 3.346 1.743 5.712 3.883 3.096 2.802-8.207-3.393-9.03-3.48-15.943-1.685-2.684.697-4.993 1.154-5.13 1.017-.28-.28 2.924-1.217 8.16-2.39 1.917-.428 3.485-1.067 3.485-1.418 0-.924-5.259-.078-11.674 1.879-6.444 1.965-7.72 1.738-2.083-.37 4.197-1.57 5.406-3.05 1.854-2.27-1.151.253-4.43 1.461-7.288 2.685-2.858 1.223-5.33 2.09-5.492 1.928-.268-.268 2.758-2.35 6.043-4.159 1.1-.606 1.146-.783.292-1.113a1.895 1.895 0 0 0-.704-.107zm18.313 4.414c.474.002.925.044 1.237.126.626.164-.04.292-1.479.285-1.439-.007-1.95-.141-1.137-.297a7.435 7.435 0 0 1 1.379-.114zm-6.606 1.897c.6-.022.96.041.75.227-.15.132-1.45.42-2.889.639-1.823.278-2.22.219-1.308-.194.785-.356 2.447-.635 3.447-.672zm-15.144 1.295c.924 0 1.46.285 1.232.654-.222.36-1.14.654-2.039.654-.923 0-1.46-.284-1.231-.654.222-.36 1.14-.654 2.038-.654zm-5.103.463c.2-.01.359.047.448.192.252.408-.086 1.153-.752 1.657-1.39 1.053-2.19 1.201-2.19.405 0-.901 1.627-2.21 2.494-2.254zm33.1.268c1.405.052 3.015.67 2.657 1.25-.527.852-4.895.817-4.895-.039 0-.371.442-.844.983-1.051.342-.132.788-.177 1.256-.16zm-10.172.001c.474.003.925.045 1.238.127.625.163-.04.292-1.48.285-1.438-.008-1.95-.142-1.136-.298a7.414 7.414 0 0 1 1.378-.114zm16.425.044c1.074.07 2.16.762 2.48 1.724.342 1.025-1.101.939-3.122-.186-1.51-.841-1.54-.947-.4-1.389a2.441 2.441 0 0 1 1.042-.15zm-26.058.895c2.634-.02 7.178.284 11.934.859 6.512.787 8.035 1.395 3.492 1.395-1.657 0-3.196.294-3.418.654-.251.406 1 .654 3.311.654 3.182 0 3.604.137 2.926.954-.903 1.088-.415 1.252 6.19 2.091l3.925.5-3.27.384c-3.049.36-3.138.42-1.309.882 1.08.273 3.434.911 5.233 1.419l3.27.924-3.107-.381c-3.87-.475-4.32.867-.495 1.478 1.436.23 3.227.95 3.979 1.602.751.652 2.263 1.383 3.36 1.624 1.434.314 1.747.593 1.108.987-.62.383.733 1.3 4.478 3.035 2.951 1.368 5.372 2.714 5.38 2.99.006.278-1.153-.09-2.577-.817-2.85-1.453-3.296-1.563-3.296-.817 0 .276 1.692 1.45 3.76 2.608 2.07 1.158 4.498 2.726 5.397 3.485 1.596 1.348 1.576 1.347-.819-.046-3.876-2.253-4.473-1.107-.653 1.252 3.36 2.076 4.772 3.425 2.07 1.98-2.142-1.147-2.245-.209-.183 1.67 1.616 1.473 1.663 1.604.346.96-2.614-1.277-2.27-.252 1 2.98 1.73 1.71 2.676 2.775 2.103 2.367-.572-.408-1.243-.54-1.49-.294-.246.247 1.253 2.214 3.331 4.373 2.078 2.158 3.19 3.498 2.47 2.979-.719-.52-1.512-1.23-1.762-1.579-.25-.35-.67-.422-.93-.16-.261.26.12 1.134.848 1.942.727.808 1.57 1.91 1.873 2.45.474.846.397.857-.557.083-1.629-1.32-1.391-.686 1.556 4.165 1.464 2.41 2.53 4.514 2.368 4.676-.161.16-1.047-.996-1.97-2.57-1.694-2.891-3.715-5.047-3.715-3.964 0 .324.473 1.264 1.05 2.09.578.824 1.135 2.435 1.238 3.579.104 1.143.766 4.655 1.473 7.802.707 3.148 1.057 5.724.776 5.724-.281 0-.422 2.133-.313 4.742.108 2.608.066 3.711-.095 2.452-.589-4.623-1.365-3.233-1.092 1.955.19 3.591.06 5.21-.396 4.928-.373-.23-.678-.99-.678-1.689 0-.698-.295-1.27-.654-1.27-.36 0-.654 1.014-.654 2.252 0 1.237-.295 2.432-.654 2.654-.36.222-.655.955-.655 1.628 0 .672-.406 1.627-.901 2.123-.496.496-1.12 1.915-1.385 3.154-.658 3.062-1.128 3.706-1.64 2.244-.331-.942-.64-.523-1.327 1.8-.492 1.667-1.126 2.887-1.41 2.711-.284-.175-1.167 1.021-1.962 2.659-.796 1.637-1.826 2.976-2.29 2.976-.463 0-1.63 1.25-2.595 2.777-.964 1.528-1.87 2.428-2.012 2-.153-.46-1.07.078-2.236 1.31-1.086 1.15-1.787 1.725-1.558 1.28.775-1.509-1.497-.12-2.627 1.605-.757 1.155-1.242 1.424-1.58.877-.364-.588-.757-.519-1.552.276-.586.586-1.719 1.19-2.518 1.344-.8.154-3.233 1.996-5.408 4.092-2.174 2.096-4.542 4.204-5.262 4.682-.719.478-.057-.36 1.472-1.861 1.529-1.502 2.78-2.867 2.78-3.034 0-.612-1.238-.28-2.079.557-2.398 2.389-4.792 3.331-8.797 3.462-2.291.074-4.33-.132-4.532-.459-.202-.327-1.335-.594-2.518-.594-1.556 0-2.32.38-2.765 1.378-.57 1.277-.683 1.299-1.528.28-.502-.605-2.11-1.706-3.573-2.449-1.463-.742-3.514-2.064-4.558-2.937-1.346-1.125-2.037-1.362-2.376-.813-.337.544-.681.413-1.16-.444-.375-.67-.893-1.006-1.151-.748s-.068.992.422 1.63c.49.638.09.447-.887-.426-.979-.872-1.78-1.33-1.78-1.016 0 .313-1.03-.43-2.29-1.65-1.898-1.84-2.288-2.008-2.288-.982 0 .973-.328.792-1.536-.844-.844-1.145-1.685-1.93-1.869-1.747-.184.184-.706-.114-1.161-.663-.455-.548-1.14-.996-1.523-.996-.382 0-1.423-.662-2.313-1.472-1.34-1.218-1.546-1.268-1.195-.292.72 2-.76.554-1.907-1.862-1.09-2.298-2.703-3.21-1.974-1.116.333.954.236.933-.584-.125-.54-.699-.982-1.638-.982-2.088 0-.45-.341-1.027-.757-1.285-.526-.325-.636-.007-.363 1.037.662 2.535-.558.515-1.497-2.478-.926-2.946-2.475-4.78-1.774-2.1.727 2.78-.59.376-2.325-4.244-.945-2.518-2.101-6.491-2.57-8.83-.824-4.113-.867-4.177-1.31-1.962-.278 1.382-.358.41-.203-2.453.264-4.868-.671-6.685-1.179-2.289-.162 1.408-.27.714-.253-1.63.03-4.027-.789-6.76-.916-3.057-.035 1.05-.324 2.643-.64 3.543-.576 1.632-.3-4.096.439-9.157l.334-2.29-.991 1.635c-1.25 2.062-1.257 1.752-.05-2.229 1.149-3.786 1.324-6.52.32-4.965-1.033 1.598-.746.323.67-2.982.729-1.7 1.185-3.228 1.016-3.398-.353-.352-2.988 3.78-2.992 4.69-.001.33-.169.432-.373.228-.403-.403 2.11-5.526 4.258-8.676 2.796-4.103 1.042-3.666-1.969.49-1.055 1.457-1.919 2.411-1.919 2.12 0-.292 1.766-2.962 3.925-5.933 4.804-6.612 5.685-8.603 2.58-5.834l-2.2 1.962 2.5-3.143c2.898-3.644 2.649-4.829-.431-2.042l-2.117 1.915 1.62-1.963c.89-1.079 2.492-2.918 3.559-4.087 2.196-2.407 1.492-2.807-1.335-.76-1.038.752-.121-.271 2.037-2.273 2.159-2.002 3.574-3.648 3.145-3.656-.428-.01-.96.279-1.182.638-.223.36-.718.654-1.1.654-1.38 0 .924-1.934 5.057-4.246 4.676-2.615 6.216-4.18 2.642-2.688-4.537 1.896-2.288.378 3.306-2.23 5.782-2.696 6.885-3.897 2.457-2.674-1.363.376-2.573.589-2.69.473-.116-.116 2.46-1.434 5.724-2.93 3.263-1.495 5.762-2.994 5.553-3.332-.377-.61 3.535-1.984 5.665-1.99.609-.003 1.317-.346 1.574-.762.343-.555-.435-.65-2.905-.358-1.855.22-3.372.287-3.372.149 0-.223 5.486-1.477 11.615-2.655 3.399-.653 1.752-1.772-1.874-1.274-1.76.242-3.2.29-3.2.109 0-.182 2.64-.692 5.868-1.133 3.228-.441 5.713-1.056 5.521-1.366-.191-.31-1.049-.563-1.906-.563-.856 0-1.71-.247-1.895-.547-.16-.258.734-.386 2.315-.399zm-8.715.403c.355.007.644.15.926.433.582.582.227.753-1.493.719-2.12-.042-2.165-.087-.763-.763.552-.266.974-.396 1.33-.39zm-11.365.005a.174.174 0 0 1 .091.047c.677.677-.422 3.108-1.405 3.108-.515 0-.928-.22-.916-.49.036-.84 1.693-2.759 2.23-2.665zm52.644.539c.786 0 2.663 1.876 2.663 2.663 0 .93-1.097.723-2.242-.421-1.144-1.145-1.35-2.242-.421-2.242zm-7.6 1.392c.327.002.782.03 1.382.07 1.411.095 2.687.54 2.835.99.382 1.163-2.577 1.039-4.13-.172-.892-.695-1.068-.898-.087-.888zm-40.83.176c.363-.01.693.044.914.18.674.417-.714 1.496-1.944 1.512-.429.005-.94-.251-1.137-.57-.318-.515 1.076-1.094 2.166-1.122zm-8.847.082c.554.04.35 1.188-.882 2.92-1.486 2.086-2.622 2.557-2.622 1.085 0-.487.786-1.734 1.747-2.77.82-.885 1.424-1.26 1.757-1.235zm62.368 1.078c.682-.04 2.118 1.22 2.864 2.614 1.026 1.917-1.134 1.51-2.422-.457-.597-.91-.905-1.836-.685-2.056a.363.363 0 0 1 .243-.1zm-5.739 1.196c1.854 0 3.67 1.384 2.87 2.186-.558.558-1.434.478-3.65-.331-2.191-.8-1.747-1.855.78-1.855zm-50.937.086c1.865.045.983.92-1.89 1.457-1.58.296-2.106.184-1.913-.405.147-.446 1.423-.904 2.834-1.018.38-.03.703-.041.97-.034zm-10.784.568c.737 0 .143 1.98-1.007 3.361-1.286 1.544-1.286 1.545-1.308.12-.02-1.23 1.478-3.48 2.315-3.48zm5.223 2.013c.248.015.493.048.729.1.887.198.54.55-1.338 1.366-3.072 1.333-3.026 1.332-3.026.131 0-.932 1.9-1.7 3.635-1.597zm67.235.221c.734-.07 3.693 2.305 3.693 3.046 0 1.062-1.032.657-2.613-1.026-.844-.898-1.382-1.785-1.196-1.971a.183.183 0 0 1 .116-.049zm-5.86.596c1.58-.099 3.013.482 3.013 1.434 0 .951-.331 1.082-1.635.647-.36-.12-1.537-.422-2.617-.672l-1.962-.455 1.62-.618a5.418 5.418 0 0 1 1.582-.336zm-71.06 2.475c.214-.044.133.329-.143 1.24-.698 2.297-1.656 3.174-1.656 1.515 0-.748.484-1.76 1.076-2.251.36-.3.594-.477.723-.504zm5.106.214c.171.017.318.058.428.126.375.232-.273.822-1.439 1.312-2.54 1.068-2.624 1.075-2.624.221 0-.767 2.436-1.782 3.635-1.66zm71.482.365c.997-.022 2.115.21 2.426.714.671 1.086-.504 1.754-2.276 1.297-.873-.225-1.707-.769-1.854-1.209-.17-.507.707-.78 1.704-.802zm5.054.657c.587 0 1.96 1.523 2.815 3.12 1.084 2.025-.176 1.843-1.834-.265-1.326-1.686-1.728-2.855-.981-2.855zM126.146 60.1c.302 0 .54.515.528 1.144-.034 1.872-2.595 4.646-2.595 2.811 0-1.091 1.496-3.955 2.067-3.955zm5.421.68 1.996.029-2.29 1.253c-2.536 1.389-3.27 1.564-3.27.785 0-1.128 1.664-2.092 3.564-2.066zm77.807.606c.922.053 2.356.668 3.457 1.637 2.134 1.877 1.004 2.134-2.252.513-1.17-.582-2.126-1.298-2.126-1.593 0-.418.368-.588.921-.557zm-6.48.697c.36 0 1.095.284 1.635.633.54.349.687.634.327.634-.36 0-1.096-.285-1.635-.634-.54-.349-.687-.633-.327-.633zm-24.955 2.152c-.396-.057-.832.72-.99 2.375-.195 2.047-.027 2.647.745 2.647.714 0 1-.685 1-2.398 0-1.678-.358-2.567-.755-2.624zm39.558.072c.086.009.19.038.309.084 1.015.39 2.42 3.042 2.42 4.57 0 1.472-1.276 1.12-1.89-.522-1.222-3.265-1.444-4.196-.84-4.132zm-48.288.044c-.54 0-.952.368-.916.818.036.45.11 1.406.164 2.126.169 2.249 1.78 1.498 1.755-.818-.015-1.444-.336-2.126-1.003-2.126zm-40.277.07c.236.002.38.076.38.238 0 .588-3.32 2.635-4.274 2.635-.228 0-.296-.354-.152-.788.273-.818 3.024-2.098 4.046-2.085zm32.87.257c-.563 0-.85.8-.817 2.287.066 3.076 1.684 3.078 1.684.002 0-1.465-.312-2.29-.867-2.29zm-39.122.162c.336.013.43.533.254 1.457-.446 2.33-1.622 2.874-1.358.627.117-1 .543-1.926.945-2.058a.433.433 0 0 1 .159-.026zm31.544.459c-.141-.015-.285.04-.424.18-.213.213-.182 1.751.068 3.419.557 3.71 2.028 3.679 1.726-.037-.167-2.055-.756-3.493-1.37-3.562zm31.733.687c-.86 0-1.842 4.878-1.126 5.594.579.579 1.25.274 1.64-.742.745-1.94.436-4.852-.514-4.852zm27.044 0c1.363 0 3.955 1.569 3.955 2.394 0 1.142-.59 1.085-2.78-.273-1.795-1.114-2.354-2.12-1.175-2.12zm-93.584 1.635-.526 2.376c-.29 1.307-.73 2.705-.979 3.107-.717 1.16-1.682.85-1.682-.54 0-.7.717-2.098 1.594-3.107zm4.84 1.002c.308-.007.476.175.476.558 0 .747-2.97 2.698-4.065 2.671-.463-.012-.015-.747.995-1.635 1.177-1.036 2.081-1.58 2.594-1.594zm22.892 1.942c-.713 0-.865.407-.555 1.471.236.81 1.062 4.606 1.835 8.435 1.026 5.088 1.635 6.875 2.262 6.634.472-.18.858-.605.858-.942 0-1.803-2.215-9.058-2.765-9.058-.355 0-.46-.481-.234-1.069.662-1.725-.298-5.471-1.402-5.471zm46.015 0c-.934 0-1.983 3.617-1.347 4.646.631 1.021 1.426.637 1.834-.885.645-2.407.47-3.761-.487-3.761zm22.452.04c1.059-.047 3.746 1.434 4.471 2.595 1.213 1.942-.587 1.694-3.108-.428-1.122-.944-1.89-1.867-1.707-2.05.075-.074.193-.111.344-.118zm7.8 2.576c1.559 0 3.347 4.753 2.083 5.535-.429.265-1.114-.494-1.69-1.87-1.105-2.646-1.214-3.665-.393-3.665zm-103.028.102a.18.18 0 0 1 .134.047c.625.625-2.418 5.072-3.475 5.078-.45.002-.817-.285-.817-.639 0-.985 3.318-4.479 4.158-4.486zm-5.157 1.02a.529.529 0 0 1 .179.072c.638.403.58 1.11-.263 3.258-1.175 2.991-2.205 3.597-2.158 1.27.045-2.252 1.321-4.775 2.242-4.6zm47.407.972c-.878.04-.78 3.1.359 14.911.538 5.576 1.111 11.757 1.275 13.736 1.152 13.943 1.226 14.39 2.375 14.39.39 0 .463-2.065.192-5.397-2.297-28.255-3.268-37.362-4.012-37.61a.527.527 0 0 0-.19-.03zm-6.782.063a.544.544 0 0 0-.325.096c-.681.422 1.087 12.132 1.998 13.23 1.51 1.82 1.633.668.585-5.532-.964-5.71-1.529-7.746-2.258-7.794zM140.6 76.452c-1.145 0-1.083.392 1.151 7.3 2.784 8.605 2.535 8.073 3.38 7.227.545-.544.16-2.526-1.484-7.631-1.27-3.945-2.574-6.896-3.047-6.896zm28.235.1c-.555-.029-.738.29-.595 1.006.39 1.946.96 21.353.964 32.797.002 8.254.19 10.621.822 10.411.597-.198.861-2.989.98-10.356.089-5.547-.058-15.38-.327-21.85-.426-10.237-.632-11.793-1.583-11.975a2.032 2.032 0 0 0-.26-.033zm31.583 1.208c-1.066 0-2.078 2.908-1.396 4.011.568.919 1.393-.025 1.933-2.212.336-1.36.205-1.799-.537-1.799zm20.772.098c1.145.042 2.928 1.238 3.622 2.534 1.057 1.976-.875 1.674-3.022-.473-.97-.97-1.442-1.873-1.047-2.004.132-.045.283-.063.447-.056zm-44.215 1.206c-.082-.007-.173.04-.273.14-.36.361-.59 2.655-1.559 15.562-1.46 19.47-1.542 24.2-.422 24.2.792 0 1.025-.713 1.018-3.107-.005-1.708.485-10.197 1.09-18.863.885-12.649.939-17.86.146-17.932zm51.06.13c.333.067.586.781.504 2.227-.076 1.345-.525 2.574-.999 2.732-.633.21-.806-.369-.654-2.185.157-1.876.72-2.86 1.149-2.775zm-111.162.67c1.038-.03-.259 2.907-2.021 4.323-1.042.837-1.894 1.249-1.894.915 0-.91 2.836-4.917 3.676-5.192a.85.85 0 0 1 .239-.046zm-5.784.194c.755.18 1.463 4.91.75 5.625-.332.331-.804.4-1.05.155-.663-.663-.541-5.326.15-5.753a.19.19 0 0 1 .15-.027zm24.026 2.28c-1.186 0-1.154 1.454.107 4.824.966 2.582 1.622 3.509 2.298 3.25.521-.2.947-.548.947-.773 0-.975-2.904-7.3-3.352-7.3zm87.526 1.057c.287.017.735.151 1.345.422 1.778.786 3.373 2.311 3.414 3.264.037.879-.922.506-3.087-1.2-1.947-1.534-2.532-2.537-1.672-2.486zm-39.338.4c-.508.15-.959 1.963-1.259 5.227-.24 2.62-.999 8.736-1.685 13.593-2.071 14.666-2.166 15.697-1.447 15.697.368 0 .961-1.545 1.318-3.433 1.5-7.936 4.172-29.245 3.79-30.238-.244-.639-.487-.914-.717-.846zm23.646.506c-1.142 0-2.617 4.24-2.072 5.955.519 1.637 1.17 1.05 2.178-1.964.968-2.896.94-3.991-.106-3.991zm23.087.654c.36 0 .655 1.177.655 2.616 0 2.674-.11 2.945-.873 2.18-.692-.691-.505-4.796.219-4.796zm-114.275.005c.732-.005-.485 2.088-2.023 3.48-.983.89-1.427.982-1.802.376-.468-.759 2.597-3.848 3.825-3.856zm-7.026 2.27c.099-.032.205 0 .314.114.296.305.734 1.625.974 2.933.505 2.748-.545 3.925-1.653 1.854-.697-1.302-.327-4.685.365-4.902zm116.517 1.793c.279-.032.762.11 1.443.474 1.389.743 3.135 3.327 2.22 3.285-.283-.012-1.385-.736-2.45-1.607-1.447-1.182-1.825-2.083-1.213-2.152zm-123.174.084c.06.01.13.11.208.305.19.472.165 1.036-.052 1.253-.217.218-.372-.169-.344-.858.02-.476.09-.715.188-.7zm86.163 1.082c-.434 0-2.38 8.527-5.567 24.398-.795 3.962-.782 4.428.113 4.252.735-.145 1.5-2.658 2.848-9.355 1.014-5.037 2.312-10.857 2.885-12.935.978-3.548.855-6.36-.279-6.36zm-75.817.654c1.197 0 .412 2.578-1.418 4.654-1.073 1.218-1.956 1.812-1.962 1.322-.015-1.18 2.699-5.976 3.38-5.976zm18.483.863a.162.162 0 0 0-.113.05c-.165.166-.102 1.205.14 2.31.443 2.014 1.227 2.562 1.962 1.373.39-.633-1.35-3.764-1.99-3.733zm80.174.445c-.851 0-3.283 4.825-3.283 6.515 0 2.256.912 1.471 2.457-2.112 1.645-3.815 1.755-4.403.826-4.403zm20.405.287c.315.03.513.888.513 2.29 0 2.712-.108 2.985-.873 2.22-.676-.677-.513-4.018.219-4.47a.228.228 0 0 1 .142-.04zm-125.29.671c.213-.012.535.45 1.073 1.463 1.207 2.272 1.473 4.774.508 4.774-.332 0-.943-1.028-1.358-2.284-.415-1.257-.643-2.802-.508-3.434.07-.334.159-.512.286-.519zm120.234.673c.214-.014.538.09.975.323 1.735.93 2.939 3.232 2.118 4.053-.41.41-1.126-.057-2.022-1.316-1.352-1.898-1.712-3.014-1.07-3.06zm10.452 1.287c.04.015.083.076.128.189.182.45.182 1.185 0 1.635-.181.45-.33.082-.33-.818 0-.674.084-1.05.203-1.006zm-76.95.886c-.14.02-.297.16-.488.39-1.605 1.935 1.12 18.044 3.054 18.044.178 0 .12-2.167-.128-4.817-.248-2.65-.81-6.948-1.25-9.552-.518-3.078-.772-4.122-1.189-4.065zm-48.025.875c.05.008.092.03.128.066.362.362-1.6 4.278-2.388 4.765-.337.208-.613-.228-.613-.969 0-1.21 2.136-3.989 2.873-3.861zm121.315.795c.454-.057.786 1.325.408 3.044-.458 2.084-1.675 2.707-1.566.802.036-.63.27-1.877.518-2.773.202-.725.434-1.047.64-1.073zm-17.97 1.72c-.572.014-1.78 1.369-3.508 3.971-1.45 2.184-2.637 4.76-2.636 5.723 0 1.479.51.986 3.25-3.153 1.788-2.698 3.26-5.273 3.27-5.723.012-.555-.116-.825-.376-.819zm-87.304 0c-.877 0-.74.97.502 3.576 1.134 2.378 1.786 2.806 2.503 1.645.47-.761-2.095-5.22-3.005-5.22zm99.798.19c.776-.005 3.599 3.37 3.599 4.416 0 2.119-1.196 1.452-2.597-1.449-.726-1.501-1.233-2.815-1.129-2.92a.172.172 0 0 1 .127-.047zm-35.232.688c-.048-.017-.088.013-.114.104-.108.36-1.396 4.408-2.863 8.996-2.957 9.244-3.033 9.645-1.82 9.645.504 0 1.867-3.132 3.368-7.742 1.89-5.806 2.394-8.217 2.015-9.647-.21-.787-.439-1.3-.586-1.356zm-86.948.025c.186.012.482.492 1.034 1.519.62 1.151 1.126 2.55 1.126 3.107 0 1.637-1.284 1.162-2.008-.743-.367-.965-.573-2.363-.456-3.106.08-.516.159-.787.304-.777zm49.732 1.26a.206.206 0 0 0-.083.01c-.938.332-.743 4.134.313 6.106 1.366 2.552 1.717 1.743 1.047-2.415-.36-2.235-.857-3.66-1.277-3.702zm-44.852 2.184c.334.05.541.516.502 1.415-.078 1.772-2.212 6.151-2.74 5.623-.782-.782-.556-2.855.57-5.23.596-1.255 1.237-1.874 1.668-1.808zm123.263.802c.475-.084.744.924.303 2.572-.43 1.608-2.013 2.857-2.013 1.589 0-.336.332-1.566.74-2.734.325-.934.685-1.377.97-1.427zm-6.116.36c.637-.03 3.09 3.313 3.094 4.466.005 1.92-1.315 1.279-2.319-1.124-.521-1.247-.938-2.645-.925-3.107.005-.158.059-.23.15-.235zm-122.872.791.916 2.242c1.256 3.079 1.754 6.502.946 6.502-.364 0-.979-.809-1.367-1.798-.389-.99-.659-2.958-.6-4.373zm113.974.561c-.664-.056-1.99 1.682-8.606 10.436-3.52 4.656-6.966 9.07-7.657 9.81-.692.74-2.251 2.84-3.465 4.666-4.302 6.472-6.113 6.113-2.007-.399 1.234-1.957 2.16-3.642 2.057-3.745-.639-.639-2.266.956-3.85 3.775-1.009 1.794-2.259 3.263-2.778 3.263-1.188 0-1.179-.262.087-2.71.566-1.095.867-2.153.67-2.35-.526-.527-2.354 1.149-2.354 2.157 0 1.173-.863 1.619-1.897.98-.66-.408-.686-.842-.11-1.919.598-1.117.562-1.391-.189-1.391-.513 0-1.112.466-1.33 1.036-.521 1.356-2.032.828-2.036-.712 0-.659-.37-1.32-.817-1.47-.448-.15-.815.194-.815.764 0 .603-.553 1.036-1.321 1.036-1.082 0-1.246-.295-.91-1.635.267-1.065.137-1.635-.375-1.635-.433 0-.941.588-1.13 1.308-.491 1.879-1.375 1.61-1.617-.49-.262-2.28-1.452-2.348-1.713-.098-.224 1.926 1.225 3.139 5.372 4.498 8.746 2.868 17.932 10.286 21.02 16.973 1.189 2.576 2.08 3.747 2.674 3.52.49-.189.892-.433.892-.545 0-.112-.596-1.594-1.325-3.293-.728-1.7-1.212-3.203-1.075-3.34s1.873-1.494 3.858-3.015c8.18-6.269 10.898-8.711 10.932-9.825.027-.874-1.321-.124-5.291 2.944-9.333 7.212-11.801 8.747-11.619 7.224.033-.27 3.98-4.023 8.771-8.34 4.792-4.316 9.083-8.51 9.536-9.319 1.718-3.07-.225-2.182-4.795 2.192-8.023 7.68-14.805 13.475-15.492 13.239-.36-.124 1.711-2.727 4.602-5.784 2.89-3.058 7.249-7.915 9.687-10.793 2.438-2.877 4.921-5.636 5.517-6.13 1.138-.942 1.48-2.7.527-2.7-.633 0-7.085 6.756-10.642 11.143-5.154 6.356-11.61 12.729-12.235 12.077-.63-.656 5.31-8.876 19.537-27.038 1.699-2.168 2.504-3.723 2.123-4.103-.14-.14-.258-.249-.41-.262zm-104.584 2.439c.199.037.033.91-.498 2.147-.371.863-.575.974-.598.327-.02-.54.249-1.422.598-1.962.241-.374.407-.53.498-.512zm12.237.517c-.2.02-.308.227-.308.629 0 .888 4.188 6.891 12.425 17.809 4.885 6.475 6.866 9.592 6.434 10.124-.67.826-5.392-3.962-15.109-15.322-4.916-5.748-6.366-6.962-6.366-5.327 0 .98 2.416 3.958 11.358 13.993 6.907 7.753 8.572 10.138 7.073 10.138-.484 0-7.172-5.961-16.25-14.486-1.86-1.745-3.699-3.174-4.089-3.174-1.45 0-.62 1.445 2.398 4.173 1.709 1.544 6.124 5.525 9.811 8.846 3.687 3.321 6.704 6.294 6.704 6.609 0 1.434-1.35 1.047-4.63-1.324-3.827-2.768-4.54-3.05-4.502-1.788.012.45 1.634 1.934 3.6 3.3l3.576 2.483-1.874 3.403c-1.03 1.872-1.743 3.772-1.584 4.222.495 1.394 1.82.903 2.645-.981 1.331-3.042 4.598-7.924 7.137-10.668 2.604-2.815 9.126-7.192 13.53-9.08 3.75-1.607 4.737-2.898 3.796-4.962-.977-2.146-2.021-2.058-1.867.157.08 1.156-.236 1.847-.907 1.988-.766.16-1.323-.841-2.168-3.9-1.183-4.28-2.617-7.056-3.646-7.056-.33 0-.179.81.337 1.799.516.989.94 2.156.943 2.593.002.437.469 2.164 1.037 3.839.63 1.856.798 3.28.43 3.647-.367.368-1.954-2.789-4.068-8.09-2.99-7.498-4.898-10.893-5.682-10.109-.114.114 1.533 4.523 3.66 9.798 3.694 9.167 4.327 12.776 1.413 8.06-.75-1.214-1.365-2.392-1.365-2.619 0-.4-6.428-12.23-6.954-12.799-.144-.156-.526-.007-.849.327-.61.637.862 3.94 5.716 12.823 2.918 5.34 3.079 5.775 2.143 5.775-.328 0-2.756-3.533-5.396-7.85-3.11-5.088-5.19-7.848-5.914-7.848-.916 0-.684.737 1.287 4.088 1.323 2.248 2.57 4.235 2.773 4.415.202.18 1.445 2.16 2.763 4.4 2.402 4.083 2.459 5.979.098 3.263-1.185-1.363-13.23-17.512-17.058-22.87-1.173-1.642-2.06-2.494-2.501-2.448zM234 110.465c.891 0 .758 3.522-.168 4.448-1.374 1.373-1.95.85-1.48-1.341.549-2.557.84-3.107 1.648-3.107zm-123.123.304a.241.241 0 0 1 .142.037c.371.23.228 1.322-.355 2.717-.536 1.284-.975 2.446-.975 2.582 0 .136-.294.247-.654.247-.36 0-.654-.456-.654-1.013 0-1.501 1.717-4.544 2.496-4.57zm116.747.532c.216-.045.692.513 1.76 1.78 1.06 1.26 1.934 2.658 1.944 3.107.028 1.333-1.79.932-2.889-.636-.56-.8-1.01-2.198-1-3.107.007-.712.017-1.11.185-1.144zm-121.876 3.743c.568 0 2.633 3.309 2.633 4.22 0 .916-1.99.22-2.593-.907-.854-1.595-.874-3.313-.04-3.313zm5.024.935a.444.444 0 0 1 .273.075c.647.4.061 4.24-.789 5.17-.332.364-.567-.224-.567-1.418 0-2.212.467-3.78 1.083-3.827zm123.625.622c.381-.06.084.759-.903 2.43-1.188 2.012-2.148 2.473-2.148 1.032 0-.477.735-1.558 1.635-2.403.715-.672 1.188-1.024 1.416-1.06zm-6.438.646c.736.112 2.148 3.143 1.94 4.786-.23 1.825-.242 1.82-1.378-.745-.63-1.422-1.05-3.041-.936-3.597.07-.339.204-.47.374-.444zm-122.574 2.613c.862-.12 3.65 3.073 3.65 4.31 0 1.907-.406 1.687-2.376-1.29-.957-1.447-1.595-2.774-1.42-2.95a.248.248 0 0 1 .146-.07zm6.445 2.007c.298-.028.475 1.01.475 2.857 0 1.87-.294 3.4-.654 3.4-.36 0-.7-.514-.756-1.144-.186-2.09.183-4.406.801-5.035.047-.049.092-.074.134-.078zm120.941.766c.667-.103.65.968-.398 2.57-1.145 1.747-2.336 2.133-2.336.757 0-.472.647-1.552 1.436-2.4.552-.591.995-.88 1.298-.927zm-6.059.245c.211-.063.575.255 1.09.958 1.026 1.404 1.193 3.513.378 4.797-.344.542-.782-.261-1.246-2.289-.503-2.198-.574-3.36-.222-3.466zm-119.915 3.182c1.008.037 4.2 2.719 4.2 3.745 0 1.387-.766 1.117-2.847-1.005-1.027-1.047-1.763-2.209-1.635-2.582.039-.115.138-.164.282-.158zm6.89 2.063c.319 0 .58 1.471.58 3.27 0 3.218-.774 4.297-1.578 2.201-.522-1.36.228-5.471.997-5.471zm111.772 0c.36 0 .654 1.177.654 2.616s-.294 2.616-.654 2.616c-.36 0-.654-1.177-.654-2.616s.294-2.616.654-2.616zm5.6.895c.471.015.204.678-.824 2.417-.985 1.668-2.814 3.095-2.814 2.195 0-.984 2.05-4.093 2.92-4.427.32-.123.56-.19.717-.185zm-122.452 1.721c1.447 0 3.24 2.45 2.86 3.908a1.974 1.974 0 0 0 .774 2.147c1.512 1.092 2.277 2.448 1.381 2.448-.397 0-1.487-.766-2.423-1.702-1.16-1.159-1.46-1.849-.944-2.168.515-.318.231-.96-.887-2.01-1.825-1.716-2.088-2.623-.76-2.623zm114.43 2.259c.603.036 1.114 1.472 1.114 3.316 0 1.866-1.017 2.667-1.566 1.235-.587-1.529-.48-4.065.189-4.479a.444.444 0 0 1 .263-.073zm11.128.428c.042-.007.073-.002.093.017.127.131-.624 1.258-1.668 2.504-1.044 1.245-1.89 1.981-1.878 1.635.022-.707 2.831-4.027 3.453-4.157zm-118.262 1.162c1.015-.036 1.97 3.927 1.144 4.752-.492.492-.918.283-1.452-.715-.858-1.603-.675-4.002.308-4.037zm112.858.142c.146-.017.262.01.338.084.635.636-1.567 3.514-3.29 4.299-1.476.672-1.555.62-1.068-.696.515-1.393 3.001-3.57 4.02-3.687zm1.153 3.858c.18 0-.207.589-.858 1.308-.65.72-1.331 1.308-1.51 1.308-.18 0 .205-.588.856-1.308.651-.72 1.332-1.308 1.512-1.308zm-9.843.08c.137-.033.263.198.458.675.663 1.618.141 5.32-.793 5.626-.55.18-.803-.445-.772-1.911.026-1.2.288-2.77.584-3.489.237-.576.385-.87.523-.902zm-107.393 1.812c.416-.03 1.145.24 2.079.93 1.16.856 1.917 1.749 1.682 1.984-.634.634-1.034.517-2.749-.801-1.53-1.177-1.705-2.063-1.012-2.113zm6.553.354c.516-.026.978 1.274.807 3.067-.207 2.167-.226 2.181-1.064.713-.47-.823-.662-2.104-.427-2.847.202-.637.449-.922.684-.933zm106.334.119c.232-.028.38.072.454.293.155.465-.513 1.529-1.484 2.364-1.84 1.583-3 1.94-3 .923 0-.328.946-1.392 2.101-2.364.919-.773 1.542-1.171 1.929-1.216zm4.411.905c.18 0-.823 1.178-2.228 2.617-1.405 1.438-2.702 2.616-2.882 2.616-.18 0 .823-1.178 2.228-2.616 1.405-1.44 2.702-2.617 2.882-2.617zm-12.362 2.665c.279.015.341.71-.05 2.073-.335 1.167-.608 2.197-.608 2.29 0 .092-.294.167-.654.167-.36 0-.654-.104-.654-.23s.323-1.156.718-2.29c.474-1.358.969-2.024 1.248-2.01zm-101.158.606c.928 0 3.445 2.435 2.985 2.89-.147.145-1.077-.16-2.067-.68-1.897-.995-2.402-2.21-.918-2.21zm106.157.654c1.017 0 1.044.114.207.91-1.289 1.226-3.902 1.975-3.902 1.12 0-.848 2.153-2.03 3.695-2.03zm-99.947.654c.898 0 1.987 2.994 1.422 3.909-.394.637-.701.513-1.247-.507-.857-1.602-.95-3.402-.175-3.402zm91.567.98.053 2.415c.053 2.38-.795 3.764-1.553 2.537-.214-.346.036-1.6.556-2.79zm-96.234 1.867c1.117.033 4.117 1.675 4.117 2.402 0 1.01-1.492.718-3.26-.64-.894-.687-1.437-1.439-1.206-1.67.069-.068.19-.097.35-.092zm101.868.423c1.069 0 .08 1.374-1.843 2.563-2.63 1.625-3.116 1.691-2.603.356.337-.878 3.446-2.919 4.446-2.919zm-94.55.327 1.343 1.545c.739.849 1.343 1.953 1.343 2.452 0 1.124-.303 1.148-1.148.091-.36-.45-.852-1.553-1.095-2.453zm82.946 2.388c.031.048-.149.439-.516 1.21-.954 2.002-1.256 2.372-1.256 1.541 0-.35.457-1.209 1.017-1.907.48-.599.723-.893.755-.844zm2.632.652c.12.06.139.45.144 1.211.01 1.387-1.14 4.239-1.317 3.27-.033-.18-.156-.824-.274-1.433-.117-.608.19-1.638.683-2.289.418-.551.642-.819.764-.759zm-87.978.557c1.066 0 3.6 1.729 3.123 2.13-.18.15-1.04.092-1.913-.13-1.733-.438-2.677-2-1.21-2zm6.697.233c.138.012.334.136.605.361 1.24 1.03 1.764 3.985.707 3.985-.451 0-1-.466-1.218-1.035-.218-.569-.397-1.636-.397-2.37 0-.665.072-.96.303-.941zm86.205 1.075c1.142 0-.873 1.74-2.624 2.264-.81.243-1.471.174-1.471-.152 0-.641 2.85-2.112 4.095-2.112zm-82.852 1.666c.218-.07.598.564 1.403 2.095 1.533 2.917 1.167 3.653-.759 1.526-.624-.69-1.037-1.941-.918-2.78.071-.505.143-.8.274-.84zm85.853.487c.048.031-.246.275-.844.755-1.042.835-3.17 1.563-2.273.778.15-.131 1.008-.589 1.907-1.017.771-.367 1.162-.548 1.21-.516zm-92.985.464c1.104 0 2.374.441 2.822.98.685.826.569.979-.737.961-.854-.012-2.124-.452-2.822-.98-1.205-.912-1.168-.961.737-.961zm81.415 0c.697 0 .69.201-.088 2.247-.53 1.392-1.98 2.403-1.98 1.38 0-.834 1.592-3.627 2.068-3.627zm-70.275 1.962c.653 0 3.058 3.886 2.654 4.29-.151.151-.74-.09-1.307-.536-1.174-.923-2.19-3.754-1.347-3.754zm65.32 0c1.06 0 .805.782-.91 2.78-1.56 1.816-2.218 1.33-1.108-.818.559-1.08 1.466-1.962 2.018-1.962zm9.126.66c.392-.003.24.25-.268.866-.494.6-1.656 1.09-2.583 1.09-1.049 0-1.45-.23-1.065-.608.342-.334 1.504-.825 2.583-1.09.667-.163 1.098-.257 1.333-.259zm-81.17.648c1.57 0 4.293 1.234 4.293 1.946 0 .853-1.858.79-3.761-.128-1.657-.8-1.955-1.818-.533-1.818zm10.396.957c.265-.03.809.42 1.825 1.436 1.122 1.122 1.91 2.433 1.75 2.912-.206.617-.804.36-2.042-.878-.962-.963-1.75-2.274-1.75-2.913 0-.347.059-.539.218-.557zm56.91.418a.207.207 0 0 1 .12.057c.714.714-.345 3.102-1.696 3.825-.945.506-1.26.464-1.249-.165.02-1.116 2.134-3.812 2.826-3.717zm-5.665.005c.086.044.025.303-.15.761-.176.457-.977 1.232-1.779 1.72-1.391.849-1.386.81.127-.83 1.106-1.202 1.658-1.725 1.802-1.651zm13.127 1.248c2.548-.013 2.75.803.46 1.847-2.094.954-3.362.964-3.938.032-.626-1.013.955-1.867 3.478-1.88zm-67.57 1.297c1.237 0 2.432.295 2.654.655.244.395-.647.654-2.25.654-1.46 0-2.655-.295-2.655-.654 0-.36 1.013-.655 2.25-.655zm8.969.732c.135-.073.521.176 1.282.68.858.569 1.656 1.514 1.772 2.1.225 1.134-.398 1.355-1.595.566-.402-.264-.956-1.204-1.233-2.09-.246-.785-.361-1.182-.226-1.256zm45.859.095a.47.47 0 0 1 .336.12c.258.258-.492 1.328-1.666 2.377-2.52 2.252-3.802 2.53-2.77.6.767-1.432 3.106-3.119 4.1-3.097zm7.751.517c.453.023.583.27.424.746-.335 1.007-3.65 1.906-4.135 1.122-.203-.329.404-.892 1.348-1.25 1.135-.432 1.91-.639 2.363-.618zm-11.95.619c.18 0-.364.735-1.209 1.635-.845.9-1.683 1.635-1.863 1.635-.18 0 .364-.736 1.209-1.635.845-.9 1.683-1.635 1.863-1.635zm-47.032.654c1.46 0 2.655.294 2.655.654 0 .36-1.013.654-2.251.654s-2.433-.294-2.655-.654c-.244-.395.648-.654 2.251-.654zm12.688.654c.72 0 2.394 2.535 2.394 3.628 0 .82-1.355.124-2.252-1.158-1.249-1.782-1.288-2.47-.142-2.47zm3.408 1.33c.334-.016.892.227 1.658.816.571.438 1.39 1.46 1.822 2.269 1.07 2.008-.166 1.934-2.234-.135-1.623-1.622-1.98-2.913-1.246-2.95zm36.753.2c.554.017.823.269.823.763 0 .704-.732.977-2.616.977-1.44 0-2.617-.294-2.617-.654 0-.36.515-.676 1.145-.703.63-.026 1.807-.172 2.616-.323.248-.046.465-.065.65-.06zm-26.247.312c.751-.026 2.394.874 3.523 2.082 2.057 2.202 2.948 2.44 3.524.94.216-.562.693-.836 1.061-.609.427.264.259 1.108-.463 2.33-1.208 2.044-1.248 2.063-2.923 1.381-.94-.382-5.123-5.092-5.123-5.766 0-.238.15-.35.401-.358zm-20.137.206c2.054-.064 2.687.435 1.403 1.248-1.165.736-1.203.733-3.251-.204-1.594-.729-1.572-.753.883-.982.35-.033.672-.054.965-.063zm3.658 1.876c2.002 0 3.65.623 3.65 1.379 0 .598-2.05.665-4.087.132-1.696-.443-1.388-1.51.437-1.51zm34.497.055c1.348-.073 2.77.372 3.006 1.09.32.973-2.94 1.113-4.401.189-.831-.526-.815-.666.116-1.023.387-.15.829-.232 1.279-.256zm5.781 1.992c.297 0 .593.046.818.136.45.182.082.33-.818.33-.899 0-1.267-.148-.817-.33a2.29 2.29 0 0 1 .817-.136zm-33.777.053c.177.015.374.048.584.104.809.217 1.71.399 2 .403.291.005.348.304.125.663-.421.682-.573.695-2.453.204-.63-.165-1.144-.606-1.144-.981 0-.292.356-.434.888-.393zm28.462.59c.593.001 1.161.043 1.564.12.804.156-.01.279-1.808.274-1.799-.005-2.457-.132-1.463-.282a11.796 11.796 0 0 1 1.707-.112zm-19.057 4.561c.128.029.172.226.172.575 0 .347-.662.978-1.472 1.403-1.463.768-1.465.764-.226-.632.865-.974 1.312-1.394 1.526-1.346zm21.758.867c.401-.012.995.03 1.797.135 5.516.722 6.53.958 7.671 1.793 2.038 1.49.225 1.578-5.055.244-4.277-1.08-6.154-2.12-4.413-2.171zm-11.913.01c.044.002.09.018.138.048.36.222.654 1.122.654 2 0 .878-.294 1.597-.654 1.597-.36 0-.654-.9-.654-2 0-1.022.208-1.66.516-1.645zm-19.854.538c.802-.002.167.155-1.592.559a319.39 319.39 0 0 0-6.584 1.612c-4.827 1.24-5.464 1.103-2.083-.451 1.53-.703 4.767-1.404 7.195-1.558 1.584-.1 2.582-.16 3.064-.162zm3.93 1.968c.055-.01.092-.005.109.012.153.153-.846 1.058-2.22 2.01-2.316 1.605-3.411 2.084-3.411 1.493 0-.425 4.704-3.378 5.522-3.516zm21.22 2.468c2.115-.027 6.615 1.364 6.615 2.045 0 .629-.804.616-3.62-.059-1.092-.262-2.563-.811-3.27-1.221-1.225-.71-1.21-.747.274-.765z"/><path style="fill:#000" d="M289.263 289.818c-3.667-.984-4.864-3.803-3.867-9.113.462-2.467 3.46-6.1 12.079-14.637 8.32-8.241 11.242-11.751 10.655-12.8-1.144-2.044-24.387-25.268-25.29-25.268-.41 0-2.995 2.25-5.745 5s-5.487 5-6.082 5C269.558 238 256 224.643 256 223.21c0-.623 2.072-3.676 4.604-6.785l4.604-5.652-2.092-2.83-2.092-2.83 4.9-5.306 4.9-5.307 2.892 2.75c2.793 2.655 5.284 3.583 5.284 1.97 0-.43 2.519-2.567 5.597-4.75 3.079-2.184 6.197-4.533 6.929-5.22.732-.688 1.936-1.25 2.676-1.25 1.526 0 12.298 10.356 12.298 11.822 0 .527-2.475 3.593-5.5 6.814-10.462 11.142-10.324 9.28-1.334 17.947 13.888 13.39 18.374 17.417 19.4 17.417.552 0 2.193-.779 3.645-1.73 1.975-1.294 4.17-1.638 8.715-1.363 12.765.771 15.634.613 16.6-.916.519-.82.95-1.066.959-.546.008.52 1.531-.71 3.385-2.733 5.43-5.928 5.752-14.232 1.035-26.712-8.235-21.788-18.335-30.52-40.414-34.939-6.106-1.222-21.876-.576-23.41.959-1.376 1.375-2.581 1.22-2.581-.334 0-1.918 12.13-8.347 19.132-10.141 8.337-2.136 18.942-1.951 27.727.483 7.545 2.091 16.444 6.132 18.891 8.58.766.765 1.81 1.392 2.318 1.392 3.23 0 17.267 18.786 19.428 26 .412 1.375 1.094 2.95 1.515 3.5 1.112 1.45 2.4 15.008 2.089 22-.698 15.69-11.965 27.297-27.1 27.917-3.025.124-6.625-.2-8-.72s-3.4-1.303-4.5-1.74c-4.79-1.898-8.795-2.893-9.615-2.386-2.264 1.4-.04 4.445 10.878 14.906 6.47 6.199 12.394 12.448 13.165 13.888 1.718 3.21.435 6.696-3.388 9.201-3.873 2.537-6.687.825-19.082-11.608-6.008-6.027-11.382-10.936-11.941-10.91-.56.027-5.742 5.722-11.517 12.655-5.775 6.933-11.4 12.915-12.5 13.295-1.1.379-3.457.298-5.237-.18zm61.946-47.86c5.049-1.401 9.475-6.078 10.63-11.23.538-2.404.993-3.243 1.054-1.946.059 1.255-.568 3.898-1.393 5.872-1.779 4.257-1.828 4.667-.463 3.823 1.306-.807 5.936-10.32 6.042-12.414.06-1.188.209-1.236.621-.2.458 1.151.677 1.151 1.406 0 .625-.986.893-.672.969 1.137.094 2.226.208 2.144 1.042-.741.514-1.783 1.486-3.133 2.16-3 2.038.402 1.219-12.273-1.257-19.446-4.54-13.154-9.577-18.955-20.52-23.635-.55-.236-.438.168.25.897 2.419 2.564 1.217 3.245-1.5.85l-2.75-2.425 2.356 2.678c1.297 1.473 2.95 2.45 3.674 2.172.724-.278 1.801.4 2.393 1.507 1.679 3.136 1.27 3.597-.89 1.004-2.392-2.872-2.656-1.742-.398 1.705 2.969 4.53.796 3.5-2.51-1.191-1.781-2.527-3.538-4.296-3.903-3.93-.365.365-.217.977.33 1.36 1.459 1.02 4.682 6.295 4.163 6.813-.244.244-1.212-.727-2.15-2.16-3.14-4.79-8.015-9.29-13.902-12.826-9.293-5.583-28.106-9.235-34.163-6.632-1.423.611-.251.88 4.06.93 8.95.104 22.018 3.71 28.16 7.773 15.982 10.57 28.149 35.076 24.403 49.15-2.247 8.44-9.097 13.127-19.239 13.162-3.199.012-3.979.278-2.884.985 1.973 1.275 9.547 1.253 14.209-.041zm14.1-20.458c.007-3.3.193-4.53.416-2.732.222 1.797.218 4.497-.01 6-.229 1.503-.41.032-.405-3.268zm3.307-5.5c-1-10.228-1.5-19-1.082-19 .168 0 1 2.138 1.85 4.75 1.2 3.688 1.38 6.762.804 13.75l-.74 9zm-1.813.92c-.383-3.62-1.378-8.56-2.211-10.979-.834-2.419-1.255-5.434-.937-6.701.543-2.163.66-2.195 1.93-.522 1.998 2.634 1.842 5.188-.167 2.723-1.56-1.914-1.572-1.913-.925.059 2.213 6.74 3.581 14.065 3.315 17.749-.273 3.773-.386 3.51-1.005-2.33zm4.497.08c0-3.025.187-4.263.416-2.75.23 1.512.23 3.987 0 5.5-.229 1.512-.416.275-.416-2.75zm-9.028 0c0-2.475.195-3.487.434-2.25.238 1.238.238 3.263 0 4.5-.239 1.238-.434.225-.434-2.25zm.895-7.667c-.677-2.531-1.054-4.78-.837-4.996.217-.217.968 1.656 1.67 4.163.702 2.507 1.078 4.755.837 4.997-.242.241-.993-1.632-1.67-4.164zm-2.596.096c-.367-1.466-.475-2.858-.24-3.094.236-.235.73.77 1.098 2.236.367 1.466.475 2.858.24 3.094-.236.235-.73-.771-1.098-2.236zm6.429 29.13c0-.243-.45-.72-1-1.059-.55-.34-1-.141-1 .441s.45 1.059 1 1.059 1-.198 1-.441zm-96.033-4.309c-.073-1.63-8.734-10.25-10.3-10.25-2.618 0-2.016 1.153 3.267 6.25 4.544 4.385 7.115 5.847 7.033 4zm98.963-2.559c-.068-2.112-.101-2.12-.93-.191-1.183 2.752-1.183 3.731 0 3 .55-.34.968-1.604.93-2.809zm-107.98-10.369c2.59-1.813 7.973-7.455 8.02-8.405.017-.32-.953-.51-2.154-.422-1.975.146-9.807 7.93-9.813 9.755-.004 1.2 1.372.876 3.948-.928z" transform="translate(-43.953 -40.73) scale(.67065)"/><path style="fill:#666" d="m-279.49 319.49 638.284 3.15-4.001-227.11-4.001-227.11-631.805-1.821m631.805 1.82 4.001 227.11 4.001 227.111-638.283-3.15-1.524-452.891c638.272 1.82 0 0 631.805 1.82M84.358 31.19c-2.76-.064-5.071.197-6.586.848-1.422.611-.25.88 4.061.93 8.95.103 22.018 3.71 28.16 7.773 15.981 10.569 28.149 35.076 24.402 49.15-2.246 8.44-9.096 13.127-19.238 13.162-3.199.012-3.98.277-2.885.985 1.974 1.275 9.548 1.253 14.21-.041 5.048-1.403 9.474-6.08 10.628-11.233.539-2.403.994-3.242 1.055-1.945.059 1.255-.568 3.899-1.393 5.873-1.778 4.257-1.828 4.666-.462 3.822 1.306-.807 5.935-10.32 6.04-12.414.06-1.188.21-1.235.622-.199.457 1.15.677 1.15 1.406 0 .625-.986.892-.672.969 1.137.094 2.225.21 2.143 1.043-.742.514-1.783 1.485-3.133 2.158-3 2.038.401 1.22-12.274-1.256-19.446-4.541-13.154-9.576-18.954-20.52-23.635-.55-.235-.437.168.25.897 2.42 2.564 1.218 3.245-1.5.85l-2.75-2.424 2.358 2.677c1.296 1.473 2.947 2.45 3.672 2.172.724-.278 1.802.402 2.394 1.508 1.679 3.137 1.27 3.597-.89 1.004-2.393-2.872-2.657-1.742-.399 1.705 2.968 4.53.796 3.499-2.51-1.191-1.78-2.527-3.537-4.295-3.902-3.93-.365.365-.217.977.33 1.36 1.46 1.02 4.68 6.294 4.162 6.812-.244.244-1.212-.726-2.15-2.158-3.14-4.792-8.014-9.29-13.9-12.826-6.97-4.188-19.296-7.29-27.579-7.48zm58.45 27.848c.167 0 1 2.137 1.85 4.75 1.199 3.688 1.377 6.761.802 13.75l-.74 9-.832-8.5c-1-10.229-1.499-19-1.08-19zm-3.188.54c.256-.068.602.342 1.236 1.178 1.999 2.635 1.843 5.188-.166 2.723-1.56-1.914-1.57-1.913-.923.059 2.212 6.74 3.579 14.064 3.312 17.748-.273 3.773-.386 3.512-1.004-2.328-.383-3.62-1.377-8.56-2.21-10.979-.834-2.419-1.256-5.434-.938-6.701.271-1.081.437-1.63.693-1.7zm-2.017 6.796c.216-.217.968 1.657 1.67 4.164.701 2.506 1.077 4.754.835 4.996-.241.241-.993-1.631-1.67-4.162-.677-2.532-1.052-4.782-.835-4.998zm-1.899 1.966c.258.055.674.988.996 2.27.368 1.466.476 2.856.24 3.092-.235.236-.727-.771-1.095-2.237-.368-1.465-.476-2.856-.24-3.091a.105.105 0 0 1 .1-.034zm-91.77 6.176a7.416 7.416 0 0 0-.845.018c-1.975.145-9.808 7.93-9.815 9.754-.004 1.2 1.374.876 3.95-.928 2.588-1.813 7.971-7.455 8.02-8.404.011-.24-.53-.409-1.31-.44zm102.856 1.13c.059-.036.128.17.2.642.228 1.512.228 3.987 0 5.5-.23 1.512-.419.275-.419-2.75 0-2.08.09-3.316.219-3.393zm-8.98.622c.051.04.108.21.167.52.239 1.237.239 3.262 0 4.5-.238 1.237-.433.225-.433-2.25 0-1.857.11-2.891.266-2.77zm2.994 3.711c.058 0 .123.265.193.826.223 1.798.218 4.498-.01 6-.228 1.503-.41.033-.404-3.267.004-2.269.093-3.558.22-3.559zM35.94 86.038c-2.618 0-2.016 1.153 3.266 6.25 4.545 4.385 7.116 5.847 7.033 4-.072-1.63-8.733-10.25-10.299-10.25zm109.082 6.08c-.12-.025-.335.456-.75 1.42-1.182 2.752-1.182 3.73 0 3 .55-.34.969-1.604.93-2.809-.034-1.056-.06-1.586-.18-1.611zm-4.138 7.263c-.359-.06-.612.161-.612.598 0 .583.45 1.059 1 1.059s1-.2 1-.442-.45-.718-1-1.058a1.097 1.097 0 0 0-.388-.157z" transform="translate(106.761 51.794) scale(.67065)"/><path style="fill:none" d="M0 0h191.854v181.075H0z" transform="translate(106.761 51.794) scale(.67065)"/></svg>