<svg xmlns="http://www.w3.org/2000/svg" width="3000" height="2000"><path style="fill:#000;fill-opacity:1;stroke:none" d="M0 0h3000v2000H0z"/><path style="fill:#cb1515;fill-opacity:1;stroke:none" d="M0 0h3000v1000H0z"/><path d="M386.256 772.312h185.132l71.444 277.077 71.133-277.077h184.51v455.376h-114.93V880.41l-89.15 347.278H590.336L501.498 880.41v347.278H386.256V772.312m569.064 240.424h183.89v97.846H955.32v-97.846m594.846 214.952h-379.583c4.348-37.482 17.498-72.686 39.45-105.612 22.157-33.134 63.573-72.169 124.249-117.106 37.068-27.542 60.779-48.457 71.133-62.746 10.354-14.288 15.53-27.852 15.531-40.692 0-13.874-5.177-25.678-15.531-35.411-10.147-9.94-22.986-14.91-38.517-14.91-16.153 0-29.406 5.074-39.76 15.22-10.148 10.148-16.981 28.06-20.502 53.739l-126.734-10.251c4.97-35.618 14.081-63.367 27.335-83.247 13.253-20.087 31.89-35.411 55.912-45.973 24.229-10.768 57.672-16.152 100.332-16.152 44.522 0 79.105 5.074 103.748 15.22 24.85 10.148 44.316 25.783 58.397 46.905 14.289 20.915 21.433 44.42 21.434 70.511 0 27.75-8.18 54.256-24.54 79.52-16.152 25.265-45.662 53.014-88.528 83.248-25.471 17.602-42.556 29.923-51.253 36.964-8.49 7.04-18.534 16.256-30.13 27.646h197.557v103.127m420.896-352.87-125.803 15.532c-3.313-17.602-8.905-30.027-16.774-37.275-7.662-7.248-17.188-10.872-28.577-10.872-20.502 0-36.447 10.354-47.836 31.062-8.284 14.91-14.393 46.801-18.327 95.673 15.117-15.324 30.648-26.61 46.594-33.858 15.945-7.455 34.375-11.183 55.29-11.183 40.589 0 74.861 14.496 102.818 43.488 28.162 28.991 42.244 65.749 42.244 110.271 0 30.028-7.144 57.466-21.433 82.316-14.082 24.85-33.755 43.694-59.018 56.533-25.058 12.632-56.534 18.948-94.43 18.948-45.559 0-82.109-7.765-109.65-23.296-27.543-15.532-49.597-40.278-66.164-74.24-16.36-34.168-24.539-79.312-24.539-135.432 0-82.212 17.291-142.37 51.874-180.473 34.583-38.31 82.523-57.465 143.82-57.465 36.239 0 64.816 4.245 85.732 12.735 21.122 8.284 38.62 20.502 52.495 36.654 13.875 16.153 24.436 36.447 31.684 60.882m-232.968 202.838c0 24.643 6.212 44.005 18.637 58.087 12.425 13.875 27.645 20.812 45.662 20.812 16.566 0 30.441-6.316 41.624-18.948 11.182-12.632 16.773-31.477 16.773-56.534 0-25.678-5.798-45.247-17.395-58.708-11.597-13.46-25.989-20.19-43.176-20.19-17.603 0-32.409 6.523-44.42 19.569-11.804 13.046-17.705 31.684-17.705 55.912m279.562-64.92h183.89v97.846h-183.89v-97.846m226.756-240.424h369.332v85.422c-32.098 28.992-58.915 60.365-80.452 94.12-26.092 41.002-46.697 86.664-61.814 136.985-12.011 39.138-20.087 85.422-24.229 138.849h-126.113c9.94-74.343 25.575-136.675 46.904-186.996 21.33-50.321 55.084-104.163 101.264-161.525h-224.892V772.312" style="font-size:64px;font-style:normal;font-variant:normal;font-weight:400;font-stretch:normal;text-align:start;line-height:125%;writing-mode:lr-tb;text-anchor:start;fill:#fff;fill-opacity:1;stroke:none;font-family:Arial Black"/></svg>