<svg xmlns="http://www.w3.org/2000/svg" width="2250" height="1500"><path style="fill:#000" d="M0 0h2250v1500H0z"/><path style="fill:#fee302;fill-opacity:1;stroke:#000;stroke-width:1.575;stroke-miterlimit:4;stroke-dasharray:none" d="M1211.809 719.426v106.502l150.554-.249c16.38-99.636-2.859-181.168-60.486-237.136l-41.729 25.731c36.068 94.032-8.54 105.702-48.339 105.152z"/><path d="M1212.938 1296.612h-35.175v-876.27h35.175zm-35.175 0h-35.175v-876.27h35.175zm-105.525 0h-35.176v-876.27h35.176z" style="fill:#ff0100;fill-opacity:1;stroke:#000;stroke-width:1.575;stroke-miterlimit:4;stroke-dasharray:none;stroke-opacity:1"/><path d="M1142.478 1317.745h-34.956V182.255h34.956z" style="fill:#ff0100;fill-opacity:1;stroke:#000;stroke-width:1.7467;stroke-miterlimit:4;stroke-dasharray:none;stroke-opacity:1"/><path d="M1107.413 1296.612h-35.175v-876.27h35.175zm35.175 0h-35.175v-876.27h35.175z" style="fill:#ff0100;fill-opacity:1;stroke:#000;stroke-width:1.575;stroke-miterlimit:4;stroke-dasharray:none;stroke-opacity:1"/><path d="M1037.062 594.79v-30.62h175.873v30.62zm0 30.62v-30.62h175.873v30.62z" style="fill:#fee302;fill-opacity:1;stroke:#000;stroke-width:1.575;stroke-miterlimit:4;stroke-dasharray:none;stroke-opacity:1"/><path d="M1037.023 1115.242v29.927h176.02v-29.927zm0-29.927v29.927h176.02v-29.927z" style="fill:#fee302;fill-opacity:1;stroke:#000;stroke-width:1.49689;stroke-miterlimit:4;stroke-dasharray:none;stroke-opacity:1"/><path d="M1037.062 1010.57v69.126l175.873-373.313v-69.125z" style="fill:#fee302;fill-opacity:1;stroke:#000;stroke-width:1.575;stroke-miterlimit:4;stroke-dasharray:none;stroke-opacity:1"/><path style="fill:none;stroke:#000;stroke-width:1.575;stroke-linecap:butt;stroke-linejoin:miter;stroke-miterlimit:4;stroke-dasharray:none;stroke-opacity:1" d="M1294.031 593.185c42.93 40.963 78.804 120.481 58.241 231.988"/><path style="fill:#ff0100;fill-opacity:1;stroke:#000;stroke-width:.745617;stroke-miterlimit:4;stroke-dasharray:none;stroke-opacity:1" d="M1024.427 293.84v-35.956h201.146v35.956z"/></svg>