<svg xmlns="http://www.w3.org/2000/svg" width="1280" height="853" viewBox="0 0 338.667 225.69"><path style="fill:#d40000;stroke:#fff;stroke-width:1;stroke-linecap:square;paint-order:stroke markers fill;fill-opacity:1" d="M-4.914-3.95H343.58v233.589H-4.914z"/><path style="fill:#000;stroke-width:.267369" d="M160.636 204.976c-17.941-1.795-35.079-8.752-49.062-19.917-3.793-3.028-11.41-10.65-14.41-14.416-10.689-13.426-17.22-28.829-19.555-46.12-.656-4.865-.803-14.797-.296-20.068 1.417-14.727 5.899-28.033 13.677-40.607 5.559-8.987 14.03-18.235 22.723-24.804 13.62-10.294 30.58-16.797 47.591-18.249 4.134-.352 12.245-.354 16.176-.002 7.104.635 15.128 2.34 21.79 4.63 10.042 3.452 18.311 7.953 27.139 14.773 3.82 2.952 11.967 11.024 15.082 14.944 11.539 14.521 18.419 31.787 19.962 50.096.398 4.721.19 14.341-.41 18.996-2.239 17.343-8.815 32.867-19.774 46.679-2.518 3.174-8.415 9.253-11.786 12.15-13.659 11.742-29.801 18.931-48.393 21.554-3.555.501-16.727.734-20.454.36zm20.053-17.852c11.32-1.845 20.805-5.522 30.079-11.663 16.052-10.628 27.629-27.433 31.776-46.126 1.399-6.305 1.64-8.715 1.64-16.443 0-5.612-.107-7.904-.48-10.294-1.388-8.928-3.498-15.645-7.304-23.26-11.607-23.222-33.84-38.53-59.818-41.186-4.127-.422-14.278-.196-18.085.403-13.931 2.192-26.026 7.548-36.672 16.243-13.342 10.896-22.651 26.32-26.024 43.121-1.171 5.834-1.339 7.729-1.334 15.107.004 7.58.254 10.063 1.64 16.309 2.49 11.227 7.866 22.235 15.236 31.203 12.541 15.26 30.265 24.804 50.277 27.075 3.735.424 15.284.128 19.069-.489zm-11.497-13.482v-8.633l3.944-.323c6.961-.571 12.788-2.145 18.969-5.126l3.26-1.573 4.163 7.208c2.289 3.964 4.19 7.343 4.225 7.509.082.39-5.518 3.234-9.295 4.72-6.033 2.374-13.075 4.002-19.733 4.562-1.883.158-3.898.288-4.478.288h-1.055zm-37.968-2.99c-1.838-1.231-4.363-3.06-5.613-4.064-2.913-2.339-7.643-7.069-9.981-9.981-2.377-2.96-6.36-8.904-6.117-9.129.366-.34 14.79-8.577 14.85-8.481 2.88 4.549 4.495 6.669 7.392 9.696 2.89 3.02 6.18 5.77 9.15 7.646 1.279.81 2.332 1.533 2.339 1.61.015.165-8.226 14.48-8.495 14.755-.102.104-1.688-.819-3.525-2.051zm34.832-11.658c-3.565-.274-7.633-1.095-11.224-2.264-2.965-.966-8.533-3.565-8.458-3.948.023-.118 1.94-3.508 4.26-7.533l4.217-7.318 1.283.65c3.32 1.682 7.177 2.763 10.763 3.016l2.429.17.07 8.757c.056 6.93 0 8.748-.267 8.718-.186-.02-1.569-.132-3.073-.248zm22.119-13.37c-2.28-3.972-4.17-7.366-4.203-7.544-.032-.178.63-.744 1.47-1.259 1.966-1.203 6.603-5.837 7.813-7.808.515-.838 1.03-1.53 1.147-1.537.255-.015 14.091 7.95 14.55 8.376.74.69-4.99 8.051-9.013 11.577-1.905 1.67-7.15 5.457-7.512 5.425-.06-.005-1.973-3.26-4.252-7.23zm33.688-2.38c-4.044-2.34-7.345-4.352-7.337-4.47.008-.118.695-1.598 1.526-3.29 2.842-5.785 4.474-11.854 5.053-18.782l.33-3.944h17.331l-.177 3.008c-.504 8.562-2.249 16.402-5.26 23.638-1.156 2.778-3.18 6.892-3.757 7.636-.326.421-.983.097-7.709-3.796zm-93.188-8.513c-2.826-5.022-4.982-12.357-5.35-18.199-.08-1.267-.198-2.636-.261-3.042l-.115-.74 8.75.071 8.75.07.172 2.43c.252 3.587 1.333 7.443 3.016 10.765l.652 1.285-1.652.954c-.91.524-4.264 2.462-7.455 4.306l-5.802 3.352zm35.972.768c-4.48-.952-8.404-3.08-11.627-6.302-9.078-9.078-9.024-23.721.121-32.74 9.088-8.962 23.644-8.85 32.62.25 7.532 7.639 8.797 19.329 3.083 28.497-5.027 8.065-14.908 12.269-24.197 10.295zm-.505-10.274c2.736-1.563 5.083-2.84 5.213-2.84.131.002 2.524 1.32 5.318 2.93 2.794 1.61 5.115 2.829 5.157 2.708.043-.122-.469-2.784-1.136-5.917a825.089 825.089 0 0 1-1.214-5.747c0-.029 2.046-1.893 4.546-4.143 2.5-2.25 4.515-4.12 4.478-4.156-.037-.035-2.654-.321-5.815-.637-3.162-.315-5.906-.658-6.1-.76-.192-.104-1.408-2.572-2.703-5.485-1.294-2.913-2.446-5.297-2.56-5.297-.115 0-1.258 2.36-2.54 5.246-1.283 2.886-2.44 5.342-2.57 5.46-.13.116-2.915.487-6.187.824-3.272.336-5.949.633-5.949.66 0 .027 2.046 1.885 4.546 4.129 2.5 2.244 4.545 4.109 4.545 4.145 0 .036-.542 2.606-1.203 5.712-1.264 5.931-1.326 6.31-1.003 6.124l5.177-2.956zm-64.072-15.207c.677-10.997 3.366-20.84 8.075-29.558l1.199-2.218 1.115.644c.613.355 3.882 2.239 7.264 4.187 3.383 1.947 6.23 3.618 6.328 3.712.099.095-.513 1.57-1.36 3.28-2.87 5.799-4.564 12.057-5.145 19.017l-.33 3.944H99.885zm98.176 2.83c-.098-.099-.178-.87-.178-1.715 0-3.022-1.282-7.92-2.923-11.171l-.779-1.544 7.265-4.194c3.996-2.306 7.372-4.223 7.502-4.26.304-.084 2.027 3.263 3.241 6.296 1.674 4.18 2.885 9.953 3.14 14.96l.092 1.806h-8.591c-4.725 0-8.671-.08-8.77-.179zM136.88 94.181c-3.875-2.253-7.148-4.199-7.273-4.324-.126-.126.515-1.331 1.43-2.688 3.432-5.092 7.52-9.18 12.563-12.563 1.44-.965 2.652-1.71 2.694-1.654.394.519 8.456 14.708 8.446 14.865-.007.115-.699.63-1.537 1.144-1.965 1.207-6.602 5.843-7.808 7.808-.515.839-1.056 1.52-1.203 1.516-.147-.004-3.438-1.851-7.312-4.104zm45.941-6.843c-3.149-1.685-7.35-2.878-11.09-3.149l-2.406-.174-.071-8.731-.07-8.732 1.674.119c6.127.432 10.785 1.423 15.485 3.295 2.98 1.187 5.912 2.699 5.9 3.043-.007.185-7.481 13.298-8.2 14.387-.269.405-.364.4-1.222-.058zm30.54-1.986c-3.546-5.866-9.799-12.228-15.659-15.934-1.589-1.005-2.242-1.567-2.146-1.846.379-1.102 8.285-14.438 8.559-14.438.504 0 5.874 3.615 8.657 5.828 3.084 2.453 8.046 7.395 10.522 10.481 2.431 3.032 6.12 8.6 5.86 8.848-.254.244-14.157 8.251-14.596 8.407-.174.062-.712-.544-1.197-1.346zm-74.23-24.751c-2.294-3.972-4.199-7.351-4.234-7.51-.09-.411 5.46-3.197 9.562-4.8a69.695 69.695 0 0 1 13.101-3.672c3.192-.556 8.533-1.102 10.829-1.108l1.203-.003-.074 8.69-.074 8.69h-1.263c-2.425 0-8.434.838-11.387 1.587a55.37 55.37 0 0 0-10.91 4.053l-2.584 1.294-4.17-7.221z"/></svg>