<svg xmlns="http://www.w3.org/2000/svg" width="1280" height="853" viewBox="0 0 338.667 225.69"><path style="fill:#c9261d;stroke-width:1;stroke-linecap:round;paint-order:stroke markers fill;fill-opacity:1" d="M-2.646-3.194h343.958v232.077H-2.646z"/><path style="opacity:1;fill:#dac608;fill-opacity:1;stroke:#000;stroke-width:3.3437;stroke-linecap:butt;stroke-miterlimit:4;stroke-dasharray:none;stroke-dashoffset:0;stroke-opacity:1" d="M83.724 141.063a90.124 90.289 0 0 1 57.43-113.98 90.124 90.289 0 0 1 113.781 57.52 90.124 90.289 0 0 1-57.4 113.996 90.124 90.289 0 0 1-113.796-57.49"/><path d="M91.628 138.458a81.803 81.952 0 0 1 52.129-103.456A81.803 81.952 0 0 1 247.03 87.21a81.803 81.952 0 0 1-52.1 103.47A81.803 81.952 0 0 1 91.642 138.5" style="opacity:1;fill:#c9261d;fill-opacity:1;stroke:#000;stroke-width:3.3437;stroke-linecap:butt;stroke-miterlimit:4;stroke-dasharray:none;stroke-dashoffset:0;stroke-opacity:1"/><path d="M116.26 182.249c-.386-.005-.51.385-.62.855-.06.251-.13.5.046.701-.187.163-.215.132-.606.144-1.02.051-1.678.04-2.527.04-.164-.063-.12.287-.249.222-.177-.306-.091-.721-.35-.991-.216-.189-.372-.542-.736-.464-.515-.206-.814.299-1.24.436-.113.047-.169.003-.168-.133a.578.578 0 0 0-.355.299c-.32.151-.844.076-1.01.442-.291-.295-.705-.047-1.02.071-.172.043-.261.205-.353.341-.347.064-.7.067-1.051.067-.352.19-.1.712-.365.952-.552-.05-1.118.03-1.671-.038-.426.313-.436 1.66-.114 2.029 0 0 .835-.057 1.28-.013.14-.083.341-.276.428-.022-.225.009-.134.26-.224.395-.544.735.348 1.562.255 2.124-.522 1.134-.82 2.343-1.34 3.478-.208.511-.622 2.065-.35 3.519.097.133.163.289.198.453-.326 1.155-.179 2.319.142 3.371.392.77.676 2.025 1.427 2.64.309.086.672.047.93.263.241.238.59.293.864.489.552.153 1.15.09 1.676.365.479-.04.959-.042 1.439.008.242-.012.408.202.652.209.595.57 1.518.167 2.215.493.456.04.897.235 1.364.08.316.212.366.6.536.916.18.52.67.824 1.125 1.082.271.22.56-.294.767-.003.24-.03.48-.003.706-.042.302-.098.628-.23.99-.416a.31.31 0 0 0 .09-.082.332.332 0 0 1 .088-.105.264.264 0 0 1 .132-.095c.261-.066.485-.18.706-.322-.006-.082-.012-.164-.009-.245.502-.302.698-.879.922-1.38.44-.527.536-1.225.99-1.725.153-.263-.073-.798.349-.76.035-.132-.015-.328.169-.346-.053-.173-.126-.336-.188-.503.082-.445-.22-.835-.31-1.253-.18-.607-.516-1.149-.604-1.777-.356-.609-.536-1.4-1.262-1.698-.371.006-.734-.056-1.1-.089-.696.18-1.498-.353-2.119.172-.366.317-.914.433-1.13.903-.067.25-.125.51-.075.77a7.874 7.874 0 0 1-.096.083 6.804 6.804 0 0 0-.783-.024c-1.21.042-2.126.355-3.081 1.008a.46.46 0 0 1-.451.051c-.243-.062-.388.293-.622.127-.223-.016-.113-.256-.106-.398-.245-.96-.27-3.124-1.393-4.077.476-1.743.124-4.16.656-5.188.202-.215.342-.534.644-.621.643-.042 1.342-.335 1.624-.94.492-.212.761-.774.713-1.3-.038-.25-.233-.516-.048-.747.104-.036.21-.07.317-.097.134.03.247.243.394.124.12-.11.276-.148.433-.17.57-.055 1.135-.165 1.708-.215.196.85.33 1.657 1.415 2.867.319.356.6.673 1.146.522.721-.976.875-2.78.9-3.707-.05-.763-.157-1.519-.189-2.301-.017-.554-.203-.867-1.09-.82-.26.019-.951.008-1.431-.003zm1.289.624c.232.014.389.05.51.199.128 1.175.21 2.288.115 2.978-.196.99-.125 1.426-.676 2.255-.482-.53-.842-1.188-1.156-1.797-.341-1.466-.133-2.705-.038-3.356.061-.134.187-.209.35-.243.301.044.62.012.894-.036zm-6.2.433a.233.233 0 0 1 .083.004c.086.187.204.368.265.566-.16.024-.293.107-.427.191-.202-.076-.616-.018-.591-.323.007-.174.016-.404.19-.43.163.235.296.015.48-.008zm-2.31.758c-.03.343.601-.087.533.337-.145.125-.147.316-.185.499-.233.17-.537.113-.735-.08-.034-.296.179-.504.347-.717zm-1.232.273c.166.025.327.066.494.09-.154.345.06.647.255.921a16.23 16.23 0 0 1-.265-.075c.045.2.15.42-.158.323.21-.387-.38-.34-.603-.417-.433-.285.133-.568.277-.842zm7.526.078c-.023.264.042.433.077.782-.279.032-2.108.219-2.388.15-.227-.037-.146-.85-.146-.85zm-8.63.418c.362-.03.596.63.173.712-.008.094.096.228-.039.273-.176-.02-.396.068-.513-.107-.142-.244.081-.528.05-.788.115.031.25.107.254-.075a.336.336 0 0 1 .074-.015zm3.205.002c-.294.688.177.393.298.202.21-.028.447.093.63-.044.31-.164.608.157.926.123.276.248.183.716.271 1.066l-.253.027c.135.137.328.234.389.43-.01.279.108.606-.148.812-.542.299-.956.817-1.567.993-.144.064-.336.085-.41-.086-.244-.179-.731-.277-.89.048-.079.143-.338.11-.418-.018.006-.141.164-.365-.09-.335-.22-.003-.223-.282-.024-.33-.016.283.151.095.251-.018a.943.943 0 0 1 .223-.798c.284-.2.366-.113.979-.173.2.235-.144.652.265.727.363-.166.803-.225 1.086-.52.012-.333.067-.654.084-.98-.14-.171-.32-.327-.554-.32a.794.794 0 0 1-.512.094c-.152-.27-.484-.306-.75-.412.01-.161.003-.325.06-.478zm2.493.782c.158.049.026.359-.086.382-.062-.124-.05-.313.086-.382zm-7.907.328c.336.02.67.071 1.01.02 0 0 .031.424-.101.471-.286.13-.615.03-.912.09-.123-.186-.06-.388.003-.58zm2.511.068c.113.007.107.142.133.247.085.106.207.174.316.256-.139.03-.273.072-.41.107.107-.206-.04-.407-.094-.604a.193.193 0 0 1 .055-.006zm-.05 1.241c.208.12.299.47.549.596a5.327 5.327 0 0 0-.01.616c-.224.104-.415.268-.643.363-.42-.21-1.015-.692-.699-1.19-.023-.114-.056-.227-.065-.34.134-.009.286-.014.285.163.197-.048.362-.207.583-.208zm1.868 1.766c.283-.032-.62.622-.583.34l.583-.34zm-1.188.15c.176.01.27.239.457.283.142.303-.34.285-.293.549l.166.042c-.216.173-.448.327-.665.5-.023.12.174.14.243.22-.24-.065-.467.282-.245.435.115.025.224-.034.334-.059-.105.328-.558.331-.858.294-.06-.181.143-.129.254-.155-.045-.206-.112-.417.08-.569-.385-.22-.593.248-.918.34-.004-.427.191-.887.672-.882-.39-.141-.015-.545.242-.587.225-.036.311-.25.45-.401a.227.227 0 0 1 .08-.01zm1.213 1.109c.145.017-.29.382-.387.419.003-.185.171-.286.287-.403a.282.282 0 0 1 .1-.016zm-.463.068c.057.248-.09.452-.254.62-.022-.216.1-.398.197-.577zm-.15.77c.227.051-.027.325.24.268.235.03-.14.255-.064.399-.033.201.189.252.3.377-.042.412-.105.825-.193 1.232-.104.22-.15.475-.07.712-.012.307-.169.599-.188.91.038.82-.443 1.504-.604 2.29-.214.887.04 1.426.154 1.941.042.645-.178.986-.178.986s.107.559.347.738c.192.202.28-.457.334-.73.133.04.27.07.413.066.12-.312-.062-.4-.172-.6.113-.267.336-.464.468-.719.372-.283-.197-.669-.06-.998.092-.13.302-.378.014-.405-.14-.038-.493.365-.394.032.568-.55.18-1.101.38-1.555-.02-.138-.179-.442.088-.336.224.575.539 1.145.587 1.769.013.536.274.961.129 1.796-.087.342-.172.7-.391.985-.654-.168-.402.19-.143.124-.103.408-.509.685-.918.505.26.277-.409.54-.062.72.136.23.593-.016.638.287a1.056 1.056 0 0 1-.643.388c-.185.199-.43-.002-.655.073-.366.193-.61-.244-.976-.106-.12.077-.033.204-.027.315-.075.03-.15.058-.225.083-.978-1.183-1.563-3.533-.62-5.107-.052-.162-.23-.23-.259-.395.162.044.37.271.504.064.254-.148.161-.475.375-.643.198-.202-.222-.692.178-.765.16-.053-.143-.161-.066-.252.224-.307.218-.724.521-.981.164-.314.198-.696.354-1.014.18-.172.32-.4.192-.644.309.046.3-.287.375-.497.09-.169.289-.417.072-.565.036-.27.269-.463.245-.748zm-2.022.17c.101-.001.183.024.13.17.001.152-.243.1-.346.165-.01-.169.233-.154.112-.33.034-.001.07-.005.104-.005zm.397.26c-.194.21-.331.495-.612.6.073-.237.295-.396.454-.578a8.32 8.32 0 0 1 .158-.022zm.44.604c.132-.016-.123.237-.168.334.04-.166-.283-.269-.144-.058.093.178-.374-.058-.164-.138.114-.076.264-.07.394-.113a.358.358 0 0 1 .082-.025zm-1.725.08a3.61 3.61 0 0 1 .429.003c.027.14-.034.399-.229.314-.065-.108-.136-.21-.2-.317zm1.449.416c-.115.202-.253.438-.518.437.012-.202.22-.305.368-.406l.15-.031zm-1.106.683c-.079.144-.127.394-.343.346.001-.121-.022-.263.104-.328l.24-.018zm.597.598c-.017.21-.224.424-.438.427.115-.177.26-.32.438-.427zm-.815.251c.105-.008.187.017.11.168-.172.318.241.68-.063.946.04.221.124.433.16.656-.185.08-.531.287-.276-.314.03-.358-.052-.752-.403-.932.11-.006.22-.01.331-.014a.493.493 0 0 1 .033-.494c.036-.006.073-.013.108-.016zm.811.253c-.165.171-.127.557-.439.364.022.154.306.332.04.396-.118-.167-.21-.347-.16-.555.116-.043.23-.095.335-.161zm-.494 1.715c.119.068.23.151.338.238-.178.01-.356.01-.534.003.058-.088.126-.166.196-.242zm11.668.58c.25-.009.461.188.623.367.081.15-.155.325-.259.17a.903.903 0 0 0-.57-.298.213.213 0 0 1 .096-.222.477.477 0 0 1 .11-.017zm2.003.109c.148.004.27.161.4.228-.035-.198.296-.233.175-.01-.166.268-.426-.07-.631-.045-.055.15-.395.325-.44.094.124-.117.264-.213.431-.26a.211.211 0 0 1 .065-.007zm-3.07.489c.149-.018.31.105.325.242-.097.097-.188.205-.309.273-.06-.147-.253-.381-.077-.5a.244.244 0 0 1 .062-.015zm2.038.083c.185.074.54.094.52.352a.875.875 0 0 1-.52-.352zm1.718.009c.242.056.536.466.161.527.109.097.22.192.33.292-.185.024-.178.23-.24.367.114 0 .23 0 .345-.003-.09-.067-.202-.122-.186-.254.364-.002.392.512.252.766-.09-.02-.175-.1-.113-.189.088-.27-.46.06-.55-.161.07-.173.174-.33.242-.502.062-.202-.242-.175-.252-.34-.073-.166-.026-.338.01-.503zm-3.395.286c.083.109.256.175.426.258 1.214.737 1.675 1.433 1.747 2.383.047 1.137.118 1.688-.076 2.781a5.924 5.924 0 0 1-.4 1.52c-.06.186-.227.523.029.616-.017.161.06.336-.033.484-.046.221-.468.152-.384.405-.423.201-.872.328-1.324.44-.373-.058-.8-.337-.77-.765.2.123.429.369.655.148-.013-.365.492-.369.479-.72.348.043.117-.256.212-.453.079-.153-.21-.519.09-.349-.018-.187.074-.268.257-.26.183-.43.076-.952.347-1.34-.045-.11-.104-.21-.15-.317.255-.021-.022-.32.119-.473.017-.646-.015-1.3-.103-1.94-.223-.444-.118-1.086-.582-1.389-.062-.229-.239-.393-.44-.501.039-.22-.167-.475-.223-.14-.281-.089.004-.285.124-.388zm2.279.043c.178.014.306.154.437.262-.167-.01-.492-.018-.437-.262zm-2.567 1.04c.193.2.399.396.587.605-.115.276.302.377.262.627a1.39 1.39 0 0 0-.412.279c-.175.177-.457.067-.675.03-.165.091-.373.089-.5.246.009.101.051.196.074.297-.353.002-.704.039-1.04-.091-.222.049-.583-.205-.704.049.061.159-.156.16-.127.321.108-.002.248-.116.323.014-.054.13-.017.37-.22.336l.049-.158c-.37-.131-.751-.235-1.144-.241-.299-.234-.661-.259-1.018-.308l-.049-.137c-.205.155-.464.274-.726.21-.123.005-.23-.08-.18-.21.118-.094.307-.088.368-.246.125.008.245.06.373.058.122-.508.462-.624.533-1.07.469-.233 1.356-.605 1.79-.603 1.246-.236 1.728.119 2.436-.008zm2.83-.019c.182.028.15.252.085.41.272.004.463.238.561.471.3.56-.04.344-.238.316.04.234.458.081.278.344.084-.026.167-.052.25-.08.002.116-.057.177-.178.183.129.113.413.196.275.408-.005.22-.277.188-.432.244-.08-.283-.111-.592-.17-.864-.094-.096-.19-.19-.118-.327-.03-.39-.485-.68-.406-1.104a.312.312 0 0 1 .093-.001zm1.686.68c.258.05.458.347.436.61-.062-.026-.182-.301-.178-.094.045.183-.177 0-.128-.062.089-.183-.134-.281-.13-.454zm.239.757c.122.01.093.239.254.147.181-.08.216.154.195.285-.164-.073-.363.021-.503-.091a1.922 1.922 0 0 1-.009-.33.147.147 0 0 1 .063-.011zm.3.776c.376.174.174.667-.122.835l.28.032c-.09.102-.17.249-.324.247.078-.15-.101-.533-.134-.184-.276.038-.248-.244-.007-.278-.056-.319.307-.363.307-.652zm-1.207.096c.057-.012.102.02.136.094.135.152-.31-.036-.218.142.474-.058.088.582.132.88.075.348-.17.635-.29.941-.006.135-.21-.022-.152-.086.142-.313-.117-.582-.214-.857.437.07.414-.625.094-.763.128 0 .156-.062.111-.17a.992.992 0 0 0 .341-.155.18.18 0 0 1 .06-.026zm-4.724.243c.1.014.181.11.277.148.082-.156.282-.128.368.007-.215.048-.459.18-.628-.03-.123-.119-.098.28-.214.185-.202-.064.018-.214.09-.292a.18.18 0 0 1 .107-.018zm-4.2.225c.356-.04.641.265 1.01.223.831.035 1.613.338 2.434.435.151.233.492.221.614.498.195.12-.114.23-.031.383.068.152-.17.273-.145.04-.306.057-.793-.047-.897.31.212.31.637.022.925.105-.055.075-.117.148-.17.227.128.002.183.066.167.192-.637-.098-.456.218-1.026.07-2.524-.27-3.372-.987-4.756-1.015-.504-.198-.943-.035-1.017-.25-.137-.437.425-.138.624-.378.652-.153 1.317-.515 1.99-.409a3.05 3.05 0 0 1 .12-.391.602.602 0 0 1 .157-.04zm9.615.444c.158.075.39.142.42.339a3.128 3.128 0 0 0-.27-.072c-.014.12.041.186.166.2.022.242-.302.525-.497.303.173-.223.34-.49.181-.77zm-3.902.716c.344.053-.189.38-.253.177.091-.05.169-.117.253-.177zm-1.136.069c.165.047.444-.014.525.163-.19-.008-.451.07-.525-.163zm-.257.079c.124.009.193.146.267.239-.136.05-.27.103-.415.11.03-.116.06-.232.092-.345a.183.183 0 0 1 .056-.004zm.116.427c.127.042.14.137.081.248.254-.083.506-.016.75.067.229.062.473-.317.598.007l-.24.03c-.02.265.15.467.32.65-.265.223-.47-.075-.74-.004-.032-.269-.337-.039-.501-.034-.02.14-.228.2-.292.058-.061-.154-.389-.112-.317-.314.062-.069.254-.076.212-.198-.062-.184.072-.344.129-.51zm4.843.196c.1-.046.047.305-.043.372a2.19 2.19 0 0 0-.55.292c.212-.28-.696-.34.291-.28a.39.39 0 0 1 .301-.384zm-1.723.221c.162.04.474.101.417.328-.074-.004-.247.178-.242.02.021-.175-.213-.17-.175-.348zm1.126.552c.104.035.298-.01.325.123-.128.015-.327-.029-.256.169l.264.024c-.179.177-.572.136-.686.337-.09.218.34-.117.238.069-.07.109-.275.399-.263.096-.365-.028-.116.306-.055.485-.299-.183-.315.266-.604.268-.077-.023-.377-.106-.178-.173.758-.09.475-1.275 1.215-1.398zm-1.037.216c.06.226-.214.18-.35.245a.297.297 0 0 1 .109-.231l.24-.014zm-2.524.778c.316-.038-.004.335-.17.227-.025-.103.102-.173.17-.227z" style="opacity:1;fill:#000;stroke-width:.0849834" transform="translate(-500.165 -1040.465) scale(5.92388)"/><path d="M117.549 182.873a2.89 2.89 0 0 1-.894.036c-.164.034-.29.109-.35.244-.096.65-.304 1.888.037 3.355.314.608.674 1.267 1.156 1.797.551-.829.48-1.266.676-2.255.095-.69.012-1.803-.116-2.978-.12-.15-.277-.185-.51-.2zm-6.2.432c-.184.024-.317.244-.48.008-.174.026-.184.256-.19.43-.025.305.389.247.59.323.134-.084.268-.167.428-.19-.06-.199-.179-.379-.265-.567a.233.233 0 0 0-.083-.004zm-2.309.759-.04.04c-.169.212-.382.42-.347.716.198.193.501.25.734.08.038-.183.04-.374.185-.498.068-.425-.563.005-.532-.338zm-1.233.273c-.144.274-.71.557-.277.842.223.077.813.03.603.417.309.097.202-.123.158-.323.087.026.176.05.265.075-.196-.274-.41-.577-.255-.92-.167-.025-.328-.066-.494-.091zm7.526.077-2.456.084s-.082.812.145.85c.28.067 2.11-.12 2.388-.15-.035-.35-.1-.52-.077-.784zm-8.63.418a.31.31 0 0 0-.075.016c-.005.182-.14.106-.253.075.03.26-.193.544-.051.787.116.175.337.089.513.107.135-.044.031-.178.039-.272.423-.083.19-.742-.174-.713zm3.205.002-.153.01c-.059.154-.05.318-.06.48.265.105.597.142.749.411a.797.797 0 0 0 .512-.095c.233-.007.413.15.554.32-.018.327-.072.648-.084.98-.283.296-.723.355-1.086.52-.409-.074-.066-.49-.265-.726-.613.06-.695-.028-.98.173a.943.943 0 0 0-.221.798c-.1.113-.268.3-.252.017-.199.049-.196.327.025.33.253-.03.095.195.089.336.08.129.339.161.418.018.159-.325.646-.227.89-.048.074.17.266.15.41.086.612-.176 1.025-.695 1.567-.994.256-.205.138-.533.148-.81-.06-.198-.254-.294-.389-.432l.253-.026c-.088-.35.005-.818-.27-1.067-.32.035-.617-.287-.927-.122-.183.136-.42.016-.63.044-.121.191-.591.486-.298-.203zm2.493.783c-.136.069-.148.258-.086.382.112-.023.244-.333.086-.382zm-7.907.328c-.063.193-.126.395-.003.58.297-.059.627.04.912-.089.133-.047.1-.47.1-.47-.339.05-.673-.002-1.01-.021zm2.512.068a.223.223 0 0 0-.056.005c.053.197.2.399.094.604.137-.035.271-.077.41-.107-.11-.081-.23-.15-.316-.255-.026-.105-.02-.24-.132-.247zm-.05 1.241c-.221.001-.387.16-.583.208 0-.177-.151-.172-.286-.163.01.113.042.226.066.34-.316.498.278.98.699 1.19.227-.095.419-.26.643-.363a5.234 5.234 0 0 1 .009-.616c-.25-.126-.341-.476-.548-.596zm1.867 1.766-.583.34c-.036.282.866-.373.583-.34zm-1.188.15a.256.256 0 0 0-.081.01c-.139.152-.224.364-.45.4-.256.042-.633.447-.242.588-.481-.005-.677.455-.672.882.325-.092.533-.56.918-.34-.192.152-.125.363-.08.568-.11.027-.314-.026-.253.155.299.038.752.035.857-.293-.11.025-.22.084-.334.059-.222-.153.005-.5.245-.435-.069-.08-.266-.1-.243-.22.217-.172.45-.327.665-.5a12.52 12.52 0 0 0-.166-.042c-.047-.264.435-.246.293-.55-.186-.043-.28-.272-.457-.282zm1.213 1.11a.293.293 0 0 0-.1.015c-.116.117-.284.218-.287.403.097-.038.532-.401.387-.419zm-.463.067-.057.043c-.096.179-.219.361-.197.576.164-.167.31-.371.254-.62zm-.15.77c.024.285-.209.478-.244.748.216.148.018.396-.073.565-.074.21-.066.543-.375.497.13.244-.011.472-.191.644-.157.318-.19.7-.355 1.014-.303.256-.297.674-.52.98-.078.091.225.2.065.253-.4.073.02.563-.178.765-.214.168-.12.495-.374.643-.135.207-.343-.02-.505-.064.03.165.207.233.26.395-.944 1.574-.36 3.924.619 5.107a4.45 4.45 0 0 0 .225-.083c-.006-.111-.092-.238.027-.315.367-.139.61.299.976.106.224-.075.47.125.655-.074.251-.043.496-.19.644-.387-.046-.304-.503-.057-.639-.286-.347-.181.323-.444.062-.72.41.18.815-.099.918-.507-.259.066-.51-.291.143-.124.22-.285.304-.643.391-.984.145-.835-.116-1.26-.129-1.796-.048-.624-.363-1.194-.587-1.769-.267-.106-.109.198-.087.336-.2.453.187 1.005-.381 1.555-.099.333.253-.07.394-.033.288.028.078.275-.015.406-.136.329.433.715.061.998-.132.255-.355.452-.468.719.11.2.292.288.172.6a1.309 1.309 0 0 1-.413-.067c-.053.273-.142.933-.334.731-.24-.179-.347-.739-.347-.739s.22-.34.178-.985c-.114-.516-.368-1.055-.154-1.94.161-.788.642-1.471.604-2.291.02-.311.176-.603.188-.91-.08-.237-.034-.492.07-.713.088-.406.151-.819.194-1.231-.112-.126-.334-.176-.3-.377-.076-.144.298-.37.062-.4-.267.058-.012-.216-.24-.267zm-2.022.17c-.034 0-.07.003-.104.005.12.175-.122.161-.112.33.104-.066.347-.014.347-.165.053-.147-.03-.172-.131-.171zm.397.26-.157.022c-.16.183-.381.34-.455.579.28-.106.418-.391.612-.601zm.44.604a.338.338 0 0 0-.082.025c-.13.044-.28.037-.394.113-.21.08.257.315.164.138-.14-.211.184-.108.145.058.044-.097.299-.35.167-.334zm-1.511.075c-.071 0-.143.002-.214.005.064.106.135.209.2.316.195.085.256-.173.228-.314a3.856 3.856 0 0 0-.214-.008zm1.235.42a4.01 4.01 0 0 1-.15.032c-.149.102-.356.204-.368.406.265 0 .403-.235.518-.437zm-1.106.685-.239.017c-.126.065-.103.206-.104.328.216.047.264-.202.343-.346zm.597.597c-.178.108-.323.25-.438.427.214-.003.421-.217.438-.427zm-.815.251a1.144 1.144 0 0 0-.108.016.494.494 0 0 0-.033.494c-.111.003-.222.008-.331.014.35.18.433.573.403.931-.255.602.092.394.277.314-.037-.222-.12-.434-.16-.655.303-.267-.11-.628.062-.946.077-.151-.006-.176-.11-.168zm.811.253-.224.044a1.76 1.76 0 0 1-.335.16c-.05.21.042.389.16.556.266-.064-.018-.242-.04-.396.313.193.274-.193.44-.364zm-.494 1.714c-.07.076-.138.154-.196.242.178.008.356.007.534-.003a2.635 2.635 0 0 0-.338-.239zm11.668.58a.47.47 0 0 0-.11.018.213.213 0 0 0-.097.222c.22.03.424.127.571.297.104.156.34-.018.259-.17-.162-.178-.372-.375-.623-.366zm2.003.11a.216.216 0 0 0-.065.008 1.032 1.032 0 0 0-.432.259c.046.23.386.055.44-.095.206-.025.466.314.632.046.122-.223-.21-.188-.175.01-.13-.067-.253-.224-.4-.228zm-3.07.489a.193.193 0 0 0-.06.016c-.177.118.016.351.076.5.121-.07.212-.177.309-.274-.015-.137-.176-.26-.324-.242zm2.038.083a.875.875 0 0 0 .52.352c.02-.259-.336-.278-.52-.352zm1.718.009c-.037.165-.084.337-.01.502.008.165.313.14.251.34-.068.173-.172.33-.242.502.09.222.638-.108.55.162-.062.089.023.17.113.189.14-.254.113-.77-.252-.767-.016.132.095.188.186.255-.116.003-.23.004-.345.003.062-.137.055-.343.24-.367-.11-.1-.22-.195-.33-.292.375-.06.08-.471-.161-.527zm-3.394.286c-.12.102-.406.299-.124.388.056-.335.261-.08.222.14.202.108.379.272.44.501.465.303.359.945.582 1.39.088.639.12 1.293.103 1.938-.14.154.136.453-.12.474.047.107.106.207.15.317-.27.388-.163.91-.346 1.34-.184-.008-.276.073-.257.26-.3-.17-.011.196-.09.349-.094.197.136.497-.212.454.013.35-.492.354-.48.719-.225.22-.453-.025-.654-.148-.03.428.397.707.77.765.452-.112.9-.239 1.324-.44-.084-.253.338-.184.383-.405.095-.148.017-.323.034-.485-.256-.092-.088-.429-.03-.616.207-.486.33-.999.4-1.519.195-1.094.124-1.644.077-2.781-.072-.95-.533-1.646-1.747-2.383-.17-.083-.342-.15-.425-.258zm2.277.043c-.054.244.27.25.438.262-.13-.108-.26-.248-.438-.262zm-4.196.965a4.49 4.49 0 0 0-.807.083c-.433-.002-1.32.37-1.789.603-.07.445-.41.562-.533 1.07-.128.002-.248-.05-.373-.058-.061.158-.25.151-.368.246-.05.129.057.215.18.21.261.064.52-.055.726-.21l.049.137c.357.05.72.074 1.018.308.393.006.775.11 1.144.24a8.36 8.36 0 0 1-.049.16c.203.033.166-.208.22-.337-.075-.13-.215-.016-.324-.014-.028-.162.19-.163.128-.322.122-.253.482 0 .704-.049.336.13.687.093 1.04.092-.022-.101-.065-.196-.073-.297.126-.157.334-.155.5-.246.217.037.5.147.674-.03.118-.121.261-.208.413-.28.04-.25-.378-.35-.263-.627-.188-.209-.394-.404-.587-.604-.53.095-.935-.081-1.63-.075zm4.46.056a.322.322 0 0 0-.093 0c-.079.426.376.715.406 1.105-.071.138.024.232.117.327.06.272.092.581.171.864.155-.056.427-.023.432-.244.138-.212-.146-.294-.274-.407.12-.006.18-.068.177-.183l-.25.079c.18-.263-.238-.11-.278-.343.198.027.538.243.238-.316-.098-.233-.29-.467-.56-.471.064-.159.096-.382-.087-.41zm1.686.68c-.004.173.219.27.13.453-.049.063.173.246.128.063-.003-.207.117.068.178.094.022-.264-.178-.56-.436-.61zm.239.757a.136.136 0 0 0-.063.01c-.006.109-.004.22.009.33.14.113.339.02.503.092.021-.13-.014-.366-.195-.285-.16.092-.132-.137-.254-.147zm.3.776c0 .289-.363.333-.307.652-.241.034-.27.316.007.278.033-.35.212.034.134.183.154.002.233-.144.324-.245l-.28-.032c.296-.169.499-.662.123-.836zm-1.167.095a.094.094 0 0 0-.04 0 .183.183 0 0 0-.06.028.991.991 0 0 1-.34.155c.044.108.016.17-.112.17.32.138.343.833-.094.762.097.275.356.545.214.857-.057.065.146.22.151.087.12-.306.365-.594.29-.941-.044-.299.343-.938-.131-.88-.092-.179.354.01.218-.142-.025-.056-.058-.088-.096-.096zm-4.764.244a.18.18 0 0 0-.106.018c-.073.077-.293.227-.091.292.116.095.091-.304.214-.186.17.21.414.078.628.03-.086-.134-.286-.162-.368-.006-.096-.038-.177-.134-.277-.148zm-4.2.225a.614.614 0 0 0-.159.04 3.373 3.373 0 0 0-.119.391c-.673-.106-1.338.256-1.99.409-.2.24-.761-.059-.624.379.074.214.513.051 1.017.25 1.384.028 2.231.744 4.756 1.014.57.148.389-.168 1.026-.07.016-.126-.04-.19-.167-.192.053-.079.115-.152.17-.227-.287-.083-.713.204-.925-.105.104-.357.59-.253.896-.31-.024.233.214.112.146-.04-.083-.153.226-.264.031-.383-.121-.277-.463-.265-.614-.498-.821-.097-1.603-.4-2.435-.435-.368.042-.653-.263-1.01-.223zm9.615.445c.16.28-.008.546-.18.77.195.22.518-.062.496-.305-.125-.013-.18-.08-.165-.2.09.02.18.045.27.073-.03-.197-.263-.264-.42-.338zm-3.902.715c-.084.06-.162.127-.253.177.064.204.597-.125.253-.177zm-1.137.069c.074.234.337.154.526.163-.08-.177-.36-.115-.526-.163zm-.256.079a.182.182 0 0 0-.056.005l-.092.344c.144-.007.28-.06.415-.11-.074-.093-.143-.23-.267-.24zm.115.427c-.056.165-.19.326-.128.51.042.122-.15.129-.212.197-.072.203.255.16.317.314.063.143.272.083.292-.058.164-.004.468-.234.501.035.27-.07.475.227.74.004-.17-.183-.34-.385-.32-.65l.24-.03c-.125-.324-.369.056-.598-.007-.244-.083-.496-.15-.75-.067.06-.111.046-.206-.082-.248zm4.844.196a.39.39 0 0 0-.302.383c-.986-.06-.08.002-.292.281.174-.115.345-.226.551-.292.09-.067.143-.418.043-.372zm-1.723.221c-.038.178.197.172.175.348-.005.158.168-.024.242-.02.057-.227-.255-.288-.417-.328zm1.126.552c-.74.123-.457 1.308-1.215 1.398-.2.067.101.15.178.173.288-.003.305-.45.605-.268-.062-.18-.31-.513.054-.485-.012.303.192.013.263-.096.102-.186-.328.15-.238-.069.114-.2.507-.16.685-.337l-.263-.024c-.07-.198.128-.154.256-.169-.027-.132-.221-.088-.325-.123zm-1.037.216-.241.014a.298.298 0 0 0-.11.23c.137-.064.41-.018.35-.244zm-2.524.778c-.068.054-.195.124-.17.228.166.107.486-.266.17-.228z" style="fill:#dac608;fill-opacity:1;stroke-width:1.40633;stroke-linecap:round;paint-order:stroke markers fill" transform="translate(-500.165 -1040.465) scale(5.92388)"/></svg>