<svg xmlns="http://www.w3.org/2000/svg" viewBox="24 20 1280 853" height="853" width="1280"><path style="stroke-width:4.26584" fill="#ff1d10" d="M24 20h1280v853H24Z"/><g fill-rule="evenodd"><path fill="#211c1c" d="M944.096 629.821c-9.092.222-89.3 2.215-105.813 6.244-11.712 2.879-33.02-2.214-40.252-4.415-3.684-1.151-7.625.9-8.768 4.552-1.151 3.645.912 7.52 4.614 8.653.961.288 19.41 5.872 35.94 5.872 4.18 0 8.227-.354 11.85-1.249 12.7-3.1 78.485-5.26 102.77-5.827 3.865-.098 6.939-3.264 6.841-7.085-.088-3.822-3.343-6.802-7.187-6.749"/><path fill="#ec1d27" d="m931.63 400.174-257.678 11.359m43.246-3.84 35.842-75.864m0 76.21 60.135-74.5m0 71.852 41.635-59.436m6.646 57.315 23.483-42.002m-23.483 42.002 28.73 38.051m-77.01-35.93 37.728 60.684m-97.864-58.036 27.393 48.24m-63.235-48.586 17.558 54.91m-308.009-51.066h226.256m-50.274 0-27.366-72.091m-19.772 72.091-15.72-73.034m-29.324 73.034-36.25-46.293m36.25 46.293-36.25 52m81.294-52-39.987 60.29m87.125-60.29-30.794 52m156.489-125.894 4.711 1.085"/><path fill="#fff" d="m891.413 431.358-16.429-21.76 41.174-1.816c-5.814 6.394-14.135 14.777-24.745 23.576zm-66.033-19.573 32.667-1.44 22.362 29.617c-8.024 5.898-17.049 11.712-26.95 16.986l-28.075-45.167zm-144.404-23.24v-7.262c7.328-6.412 31.989-26.905 58.828-37.816l-28.097 59.48-30.731 1.354zm-17.492-17.238c-2.17 0-4.238.443-6.155 1.151-5.46-6.567-28.053-30.289-73.407-38.587-22.893-36.143-30.475-69.019-22.486-97.709 6.554-23.527 22.464-39.376 33.699-48.068-2.1 21.587-.328 41.293 5.004 59.134.061.425.22.815.367 1.218 4.269 13.785 10.637 26.48 19.351 37.874 27.557 35.993 69.776 50.128 92.355 55.362-21.981 12.736-38.804 27.619-42.356 30.856-1.975-.77-4.118-1.231-6.367-1.231zm-30.227 100.688c5.093-3.63 9.3-7.377 12.727-10.982v19.883c-2.515-2.17-6.722-5.429-12.722-8.9zm-194.806-53.55h58.763l-24.745 35.505c-17.571-12.297-28.328-26.4-34.018-35.5zm34.518-43.574 23.301 29.75h-54.932c6.975-7.972 17.824-19.175 31.631-29.758zm173.01 13.675v16.074h-38.383l-21.344-56.22c36.408 7.917 54.852 26.542 59.736 32.237v7.909zm-75.696-42.733 22.328 58.807h-31.343l-12.86-59.78c.974-.032 1.949-.08 2.923-.08 6.73 0 13.01.398 18.952 1.05zm-35.921.408 12.563 58.4h-32.92l-29.624-37.84c14.48-9.454 31.396-17.416 49.985-20.56zm-30.666 123.968-1.89-.855c-6.346-2.356-12.112-5.084-17.448-8.015l29.882-42.865h28.385l-32.902 49.596c-.075.11-.075.243-.146.367-1.94.576-3.897 1.17-5.88 1.772zm26.384-7.555 29.301-44.193h31.117l-22.681 38.317c-12.78.412-25.077 2.64-37.737 5.872zm88.489 2.338c-9.344-3.64-20.946-6.65-34.74-7.807l22.93-38.72h39.225v18.829c-1.74 3.72-8.99 17.04-27.367 27.667-.017.014-.022.031-.044.036zm-120.89-184.79c0-24.593 12.106-43.83 36-57.167 7.6-4.251 15.256-7.218 21.7-9.255-2.937 5.641-5.527 11.779-7.423 18.54-8.413 29.949-2.231 63.289 18.276 99.237-4.77-.38-9.707-.62-14.892-.62-11.69 0-22.841 1.793-33.358 4.818-13.418-16.96-20.304-35.616-20.304-55.548zm54.453-125.685c11.434-13.852 26.472-20.742 40.253-18.39 6.598 1.12 12.23 4.268 16.606 9.077.057.08.132.142.199.213a32.575 32.575 0 0 1 4.446 6.341c-2.569 1.523-5.536 3.472-7.993 5.61-4.136 3.632-6.36 8.61-7.466 11.868-5.766 3.33-19.458 12.222-31.649 27.424-5.446 1.072-17.766 3.986-31.32 10.256-.532-11.85 1.16-33.3 16.929-52.408zm130.721-38.716c32.105 0 50.659 17.226 58.864 27.464-16.765-.288-29.722 2.311-30.82 2.546-.177.031-.301.15-.47.195-.247.07-.495.102-.734.2-.147.052-.253.176-.399.247-.062.027-.12.075-.177.11-.42.222-.81.444-1.165.74-.141.111-.31.155-.451.28a132.022 132.022 0 0 1-11.346 9.586c-5.876-14.825-16.8-23.226-31.099-23.226-19.276 0-30.493 9.632-36.356 17.248-1.46-3.737-3.25-7.204-5.384-10.317 6.208-7.75 24.045-25.077 59.55-25.077zm128.888 97.452c-.32 9.551-3.96 18.368-10.517 26.047-7.883-47.418-40.505-67.296-47.382-70.985a30.773 30.773 0 0 0-5.642-8.608 35.464 35.464 0 0 0-2.48-2.422c15.22.744 32.845 4.304 45.7 15.153 13.4 11.3 20.812 26.18 20.325 40.815zm21.22 70.541c0 16.96-10.23 33.199-26.091 41.603a227.99 227.99 0 0 0-23.736-2.418c10.788-12.133 19.87-31.497 19.87-62.393 0-1.24-.124-2.37-.155-3.578 4.503-3.675 8.44-7.683 11.668-12.018 6.975 6.452 18.444 19.927 18.444 38.804zm54.41 87.466c12.61 8.299 22.273 16.5 28.752 22.686l-42.49 1.878 13.737-24.568zm-30.192-16.504c6.518 2.914 12.633 5.992 18.257 9.184l-18.23 32.601-30.232 1.328 30.2-43.117zm-41.218-13.55c9.985 2.152 19.263 4.96 27.95 8.148l-34.53 49.3-41.245 1.815 47.825-59.259zm-154.775-70.231c14.547 0 26.808-3.751 36.333-8.312 34.983-16.752 56.327-54.467 58.71-75.988 12.554 10.096 32.733 32.71 32.733 73.915 0 29.89-9.476 51.545-27.433 62.589-.044.026-.057.066-.097.088-3.472.443-6.953 1.152-10.42 2.01-.177.058-.354.08-.518.142-6.067 1.533-12.076 3.61-17.947 6.085l-2.538-.576c-.133-.035-.257 0-.376-.018-.155-.026-.28-.11-.425-.132-.634-.062-63.665-7.635-98.218-52.86a106.53 106.53 0 0 1-10.238-16.318c14.856 6.762 28.429 9.379 40.43 9.379zm-52.85-67.389c10.835 8.923 28.118 20.334 46.31 20.99 11.823.38 22.26-3.61 31.139-11.983 23.823-22.469 30.802-42.006 32.813-52.43 5.743.974 14.095 3.29 19.21 8.843 3.63 3.95 5.136 9.034 4.57 15.534-1.347 15.455-19.547 50.628-51 65.688-24.24 11.602-50.593 8.724-78.322-8.475-3.322-11.78-4.907-24.502-4.725-38.171zm29.819-41.612c3.161-5.022 11.092-14.201 26.892-14.201 10.894 0 16.318 8.449 19.055 17.08-9.547 4.972-18.599 7.01-27.065 5.845-7.883-1.099-14.215-4.827-18.882-8.724zm-23.195 5.73c1.54-1.342 3.595-2.701 5.544-3.87 5.588 6.926 17.035 18.054 34.38 20.525 2.339.336 4.686.504 7.055.504 12.235 0 24.961-4.552 38.025-13.373-4.083 8.44-11.248 19.183-23.882 31.113-6.12 5.757-12.996 8.414-20.9 8.148-19.463-.682-39.297-18.568-45.673-24.83.407-3.542.885-7.106 1.505-10.746.244-1.13 1.537-5.359 3.941-7.484zm112.547 234.563 30.43-64.409c4.35-.877 8.68-1.403 12.91-1.403 10.281 0 20.059.743 29.376 2.019l-50.703 62.805-22.017.974zm210.73.132a6.714 6.714 0 0 0 .385-2.444c0-.026.018-.044.014-.07 0-.134-.08-.24-.089-.373a6.74 6.74 0 0 0-.51-1.992c-.114-.266-.274-.514-.429-.775-.15-.266-.248-.554-.443-.797-1.917-2.436-39.734-49.362-111.458-66.835 13.223-11.585 21.287-28.128 21.287-45.314 0-26.455-17.062-44.074-25.383-51.11a53.755 53.755 0 0 0 4.154-18.98c.633-18.855-8.555-37.729-25.214-51.784-12.027-10.14-26.937-15.047-41.139-17.217-.075-.155-.061-.327-.146-.487-.916-1.727-23.004-42.245-76.408-42.245-39.013 0-60.282 18.364-69.222 28.761-5.447-4.162-11.788-7.04-18.864-8.236-18.838-3.224-38.854 5.5-53.529 23.292-22.07 26.756-20.963 56.885-19.515 68.416-19.732 12.444-38.083 32.893-38.083 65.998 0 21.654 6.855 41.944 20.401 60.414-49.166 20.06-81.328 64.542-83.046 66.955-.23.328-.386.686-.554 1.04-.058.12-.133.222-.186.342a6.66 6.66 0 0 0-.478 2.338c0 .088-.045.16-.045.248s.045.177.045.265c.044.789.15 1.568.46 2.316l.036.089c0 .009.013.027.022.035 1.027 2.498 17.261 39.854 62.792 62.066-27.26 7.794-58.572 14.866-99.347 14.866-3.88 0-7.019 3.1-7.019 6.917 0 3.821 3.144 6.916 7.019 6.916 52.727 0 89.84-11.23 122.582-21.144 23.753-7.192 44.282-13.404 65.608-13.404 44.238 0 66.423 22.296 66.769 22.641l14.737 14.516a7.053 7.053 0 0 0 4.96 2.028 7.058 7.058 0 0 0 4.968-2.028 6.828 6.828 0 0 0 0-9.773l-3.343-3.29V388.527c0-1.869 1.55-3.4 3.463-3.4 1.904 0 3.454 1.527 3.454 3.4v100.866c0 3.821 3.144 6.917 7.018 6.917 3.875 0 7.019-3.1 7.019-6.917v-28.385c4.738 4.977 10.929 10.26 18.953 15.07 3.32 1.97 7.63.947 9.644-2.321 2.01-3.268.961-7.515-2.347-9.508-17.358-10.397-24.514-23.394-26.25-27.025v-19.103l31.768-1.404 15.322 47.94c.947 2.954 3.72 4.835 6.695 4.835.695 0 1.417-.101 2.112-.318 3.693-1.143 5.744-5.026 4.584-8.68l-14.197-44.415 21.786-.96 25.268 44.503c1.284 2.267 3.675 3.543 6.133 3.543 1.16 0 2.334-.28 3.419-.877 3.383-1.86 4.587-6.08 2.7-9.415l-21.83-38.436 44.636-1.971 31.454 50.601c-1.772.797-3.534 1.603-5.359 2.347-3.586 1.47-5.278 5.513-3.79 9.043 1.12 2.656 3.733 4.26 6.483 4.26.894 0 1.807-.164 2.683-.523 4.632-1.904 9.052-3.959 13.374-6.089.12-.057.248-.088.367-.155.027-.018.044-.044.07-.066 51.873-25.693 81.37-65.879 82.698-67.72.248-.337.367-.727.545-1.09.12-.24.265-.443.354-.709zM497.971 670c-41.258-52.324-112.596-38.911-115.612-38.322-3.8.753-6.266 4.397-5.5 8.148.762 3.733 4.49 6.155 8.259 5.411.664-.115 65.794-12.381 101.769 33.247 3.09 3.919 6.633 7.683 10.53 11.177a7.073 7.073 0 0 0 9.92-.452c2.612-2.816 2.4-7.191-.457-9.764-3.312-2.967-6.31-6.155-8.9-9.445m297.372-42.157-1.904-1.847c-4.561-4.48-54.277-53.466-92.01-90.636-2.745-2.701-7.182-2.701-9.919 0a6.828 6.828 0 0 0 0 9.773c37.729 37.18 87.457 86.173 92 90.645l2.02 1.949c7.218 6.952 26.392 25.435 26.467 39.331.018 3.436-1.186 6.23-3.79 8.799-3.777 3.72-7.958 5.385-12.31 5.447-9.698-.102-18.776-8.272-20.725-10.14-4.047-4.163-8.148-7.75-11.31-10.505-1.399-1.217-2.532-2.2-3.24-2.891l-30.334-29.89-9.928 9.777 30.342 29.89c.85.842 2.192 2.024 3.861 3.476 6.532 5.695 21.845 19.028 22.16 29.094.075 2.493-.878 4.623-2.98 6.7-3.242 3.188-6.555 4.702-10.097 4.499-7.232-.328-14.538-7.2-16.739-9.809l-.044-.03c-1.949-2.534-4.127-5.093-6.793-7.724l-36.506-35.988-9.92 9.787 36.498 35.983c5.947 5.846 9.552 11.182 10.707 15.853 1.165 4.677-.177 8.582-4.34 12.674-6.907 6.82-17.225 1.904-20.71-.089-1.696-2.834-3.707-5.535-6.164-7.953-8.48-8.36-30.232-32.49-30.453-32.733-2.568-2.865-7.005-3.122-9.897-.576a6.84 6.84 0 0 0-.589 9.76c.903 1.005 22.238 24.683 31.02 33.327 3.617 3.564 6.08 8.033 6.753 12.266.726 4.508-.576 8.325-3.955 11.668-1.408 1.373-3.011 1.873-5.092 1.97-4.703-.035-15.791-3.32-37.078-24.974-2.688-2.746-7.13-2.799-9.919-.146a6.844 6.844 0 0 0-.15 9.786c19.205 19.528 34.597 29.071 47.045 29.164h.186c5.757 0 10.911-2.081 14.923-6.022 5.358-5.283 8.161-11.912 8.205-19.015 2.347.505 4.783.828 7.263.828 6.332 0 12.921-1.948 18.536-7.484 5.536-5.446 8.48-11.672 8.777-18.28 2.427.798 4.96 1.431 7.678 1.564.421.022.842.035 1.258.035 7.085 0 13.807-2.944 19.506-8.564 4.827-4.756 7.276-10.61 7.086-16.916-.062-1.727-.341-3.44-.753-5.145 1.829.354 3.72.575 5.655.602h.434c8.223 0 15.64-3.197 22.052-9.512 5.27-5.194 7.935-11.469 7.896-18.643-.111-19.67-21.54-40.327-30.688-49.153"/><path fill="#211c1c" d="M653.02 734.805c-7.599 18.643-32.202 42.423-43.883 42.423-1.475 0-2.157-.434-2.733-1.08-5.371-6.08 3.6-22.85 21.814-40.767 8.165-8.041 16.225-12.842 21.543-12.842 1.807 0 3.206.554 4.535 1.807 1.027.974 1.062 4.667-1.285 10.46zm-88.55 21.929c-8.79-8.653 7.337-32.304 27.202-51.899 2.989-2.944 6.921-6.82 11.203-10.539.177-.164.408-.265.576-.46.022-.027.044-.045.057-.076 7.055-6.049 14.937-11.5 20.946-11.5 2.099 0 3.755.709 5.38 2.316 2.586 2.569 3.786 5.336 3.777 8.724-.044 13.55-19.085 32.127-27.211 40.066l-1.966 1.913c-.996.988-2.073 2.082-3.224 3.246-7.802 7.882-20.848 21.078-30.36 21.078-2.378-.008-4.41-.916-6.39-2.878zm-32.282-26.428c-8.17-8.046 7.116-30.333 25.874-48.856 18.775-18.466 30.289-23.837 37.338-17.412 2.657 2.436 8.104 7.448-2.258 20.339-3.853 3.374-7.66 6.997-11.398 10.672-8.467 8.356-18.9 19.892-25.95 31.808-5.88 4.88-15.985 10.96-23.602 3.454zm-25.76-28.624c-3.573-3.52.443-11.601 3.158-16.1 5.283-8.75 13.417-17.293 17.784-21.601l1.798-1.772c5.92-5.88 15.83-15.707 21.83-15.707.753 0 1.692.155 2.897 1.285 1.24 1.16 1.798 2.524 1.815 4.406.11 8.515-10.37 22.694-20.804 32.981l-2.506 2.51c-5.438 5.5-15.57 15.743-22.203 15.739-.93 0-2.214-.195-3.773-1.736zm143.342 7.028c-2.152 0-4.295.38-6.408.917 2.59-5.327 4.27-10.827 4.287-16.283.026-7.103-2.622-13.338-7.87-18.528-4.22-4.18-9.52-6.394-15.32-6.394-3.72 0-7.458.9-11.186 2.422-.213-7.882-4.588-13.55-8.352-16.969-11.177-10.193-24.103-6.863-35.257-.053.044-.602.097-1.209.088-1.806-.062-5.598-2.2-10.54-6.177-14.26-3.543-3.334-7.896-5.092-12.568-5.092-11.84 0-22.902 10.969-31.785 19.781l-1.763 1.745c-4.84 4.765-13.869 14.259-19.927 24.31-10.627 17.603-6.42 27.633-1.018 32.947 3.835 3.786 8.577 5.792 13.692 5.792 2.365 0 4.68-.532 6.974-1.276-2.524 8.919-1.727 17.403 5.093 24.112 5.137 5.07 11.358 7.586 18.054 7.572 2.568 0 5.212-.407 7.89-1.151-1.018 7.395.559 14.325 6.333 20.007 4.65 4.592 10.14 6.917 16.314 6.921 7.085 0 14.064-3.21 20.52-7.648-1.506 7.006-.589 13.746 4.428 19.431 3.366 3.818 7.98 5.837 13.33 5.837h.008c20.582 0 48.71-30.998 56.894-51.102 5.756-14.143 2.072-21.742-2.037-25.608-3.92-3.698-8.844-5.642-14.237-5.642zm-40.022-132.864c0-30.156 48.09-64.532 71.197-81.045 5.003-3.587 8.967-6.408 11.61-8.569 15.867-12.94 49.22-20.662 89.22-20.662 30.873 0 56.371 14.029 72.326 25.79 20.007 14.781 83.22 15.02 90.176 15.03 3.88-.01 7.014-3.11 6.997-6.926 0-3.817-3.144-6.908-7.015-6.908h-.664c-25.21 0-68.938-3.295-81.08-12.267-17.669-13.027-46.01-28.553-80.744-28.553-43.813 0-79.593 8.689-98.165 23.842-2.303 1.873-6.288 4.73-10.916 8.024-26.826 19.183-76.71 54.834-76.984 91.93-.323 3.914-2.613 37.715 12.895 54.44 5.88 6.346 13.417 9.565 22.407 9.565 7.904 0 14.294-2.467 18.997-7.329 10.096-10.45 9.193-28.991 8.458-43.883-.288-5.792-.678-13.728.08-15.455 8.178-10.362 25.887-25.706 37.931-25.706 3.875 0 7.019-3.1 7.019-6.917 0-3.821-3.144-6.908-7.023-6.908-20.113 0-42.201 22.407-49.012 31.042-3.985 5.04-3.586 13.25-3.02 24.621.576 11.602 1.351 27.5-4.605 33.663-1.258 1.298-3.543 3.038-8.834 3.038-5.017 0-8.835-1.607-12.032-5.048-9.919-10.672-10.052-35.514-9.264-44.194a5.52 5.52 0 0 0 .036-.62"/></g></svg>