<svg xmlns="http://www.w3.org/2000/svg" height="889.333" width="1333.333"><path style="fill:#fcc52b;fill-opacity:1;stroke-width:21.7295;stroke-linecap:round;paint-order:stroke markers fill" d="M430.634 0h902.699v889.333H430.634z"/><path style="fill:#fc8922;fill-opacity:1;stroke-width:15.0084;stroke-linecap:round;paint-order:stroke markers fill" d="M0 0h430.634v889.333H0z"/><g style="display:inline"><path style="fill:#898e95;fill-opacity:1;stroke-width:1.33333" d="M996.354 327.214c-4.108-3.92-5.99-6.659-5.333-7.758.559-.935 5.15-7.108 10.204-13.718l9.188-12.017 6.647 2.806c3.657 1.544 6.92 3.514 7.253 4.38.459 1.193-20.227 32.546-21.374 32.395-.13-.017-3.093-2.757-6.585-6.088zm37.016-58.831c-1.466-.353-3.153-1.1-3.747-1.66-1.12-1.054 15.71-28.09 17.44-28.014.535.023 2.107.9 3.492 1.949 2.428 1.838 2.309 2.384-3.333 15.26-6.082 13.881-6.478 14.238-13.851 12.465z"/><path style="fill:#b0b4bc;fill-opacity:1;stroke-width:1.33333" d="m983.989 616.08-7.55-12.894 2.784-45.143c3.078-49.92 2.918-51.949-3.825-48.462-3.604 1.864-4.757 1.564-24.282-6.326-19.197-7.756-21.725-9.213-39.821-22.948-22.582-17.14-34.933-25.966-36.37-25.986-.563-.008-.675 1.379-.248 3.081.428 1.703-.737 11.593-2.587 21.98l-3.365 18.882-13.078 16.323c-12.39 15.464-13.79 16.74-26.572 24.22l-13.493 7.898 1.767 5.467c.972 3.008 3.926 12.518 6.564 21.135 3.316 10.831 5.409 15.666 6.78 15.666 1.091 0 4.61 2.421 7.82 5.38 3.985 3.673 8.948 6.438 15.638 8.715 9.28 3.157 10.038 3.726 14.286 10.734 2.496 4.117 3.974 7.898 3.333 8.522-.634.618-7.516 1.542-15.293 2.055-13.73.905-14.318.829-20.22-2.63-3.342-1.959-7.043-5.035-8.223-6.835-1.548-2.364-3.348-3.274-6.473-3.274h-4.329l-16.484-38.577c-9.198-21.525-16.135-39.489-15.693-40.64.436-1.136 4.416-7.453 8.844-14.04 7.816-11.623 8.052-12.23 8.052-20.739 0-8.63-.185-9.08-12-29.265-6.6-11.276-12-21.789-12-23.363 0-1.574.662-5.491 1.471-8.705 2.49-9.885.487-9.877-2.5.008-1.549 5.126-3.509 17.12-4.355 26.653-.846 9.533-3.55 27.333-6.01 39.555-3.87 19.244-5.363 24-11.131 35.497-4.721 9.407-8.14 14.419-11.735 17.202-7.636 5.913-17.865 9.746-25.987 9.74-6.073-.004-8.6-.91-17.669-6.333-7.613-4.553-10.922-7.37-11.792-10.04-3.04-9.323 3.542-10 19.636-2.017l11.3 5.604 9.324-6.37c13.778-9.414 18.282-18.398 24.562-48.984 2.618-12.753 5.169-29.763 5.668-37.798.656-10.564 1.917-17.58 4.553-25.334 3.464-10.189 4.299-11.365 16.765-23.615l13.12-12.892 19.39-5.345 19.39-5.344 16 2.584c8.8 1.421 35.972 4.669 60.382 7.217l44.382 4.633 22.951-5.343 22.952-5.343 12.666-8.741c6.967-4.808 20.25-13.944 29.517-20.303l16.85-11.56 1.432-12.61c.788-6.934 1.136-12.904.773-13.267-.363-.363-6.79-3.186-14.282-6.274-13.458-5.546-13.628-5.672-14.037-10.4-.468-5.417-.093-5.552 7.747-2.786 6.98 2.462 8 2.485 8 .18 0-1.12-9.11-5.413-23.666-11.153-23.256-9.169-23.674-9.403-24.086-13.524-.333-3.333.194-4.42 2.569-5.298l2.987-1.105-2.902-.758c-2.3-.602-2.902-1.751-2.902-5.55 0-2.636.494-4.792 1.097-4.792s11.253 2.055 23.666 4.566l22.57 4.566 3.407-3.233c3.305-3.136 4.022-3.232 24.138-3.232 11.402 0 24.42.385 28.927.856l8.195.857v5.522c0 4.915.793 6.305 7.203 12.636 4.421 4.366 7.82 6.733 8.798 6.128 1.073-.663-.41-2.825-4.537-6.613-6.012-5.52-6.13-5.787-6.13-13.841 0-4.517.289-8.212.642-8.212 1.856 0 23.358 10.656 23.358 11.576 0 .595-1.513 5.624-3.362 11.177-2.503 7.515-4.718 11.42-8.667 15.275-4.97 4.853-5.305 5.664-5.305 12.858 0 11.355-4.308 23.038-23.343 63.304-15.159 32.067-17.576 36.395-21.215 38-3.708 1.633-4.267 2.692-5.73 10.853-3.886 21.663-27.624 64.405-42.653 76.8-4.552 3.753-8.933 6.824-9.738 6.824-.804 0-3.668-1.499-6.363-3.33-6.024-4.094-6.207-3.765-7.408 13.33-.476 6.785-2.508 17.798-4.676 25.344l-3.834 13.344 2.29 16.656c1.258 9.16 2.997 18.456 3.863 20.656 1.028 2.612 5.482 6.776 12.835 12 6.193 4.4 11.258 8.6 11.254 9.333 0 .733-1.164 3.883-2.58 7l-2.571 5.667h-31.878zm91.84-338.44 2.183-3.333-9.697.11-9.697.112 6.666 3.14c8.364 3.94 7.943 3.941 10.544-.03zM891.894 604.62c-3.111-5.35-4.966-7.13-7.965-7.65-3.304-.573-5.05-2.662-11.277-13.486-4.053-7.045-9.318-14.542-11.701-16.66-3.458-3.072-5.158-6.58-8.416-17.353l-4.083-13.503 14.659-20.516 14.659-20.517 1.563-14.647c.859-8.057 1.766-14.865 2.015-15.13.25-.264 5.918 2.984 12.597 7.218l12.143 7.698-5.934 6.117c-4.486 4.623-7.634 10.107-12.901 22.473-3.832 8.997-8.703 18.543-10.824 21.212-2.122 2.67-3.574 5.809-3.226 6.976.347 1.167 1.646 6.321 2.886 11.455 2.833 11.729 4.29 14.54 11.435 22.066 4.942 5.204 8.693 7.268 26.426 14.533 11.367 4.657 20.862 8.622 21.1 8.812.238.189.034 3.006-.454 6.26-.803 5.359-1.442 6.184-6.802 8.788-4.832 2.348-8.29 2.87-18.88 2.85l-12.964-.022-4.056-6.973zm160.723-48.911c-15.62-1.522-29.545-13.013-18.667-15.402 4.321-.95 4.871-1.93 2.444-4.357-1.924-1.923-.466-2.477 9.07-3.45 6.093-.621 7.45-.256 12.309 3.318 3.329 2.449 6.382 3.721 7.82 3.26 2.716-.873 23.857-56.543 22.08-58.145-.581-.523-6.606-2.91-13.39-5.305-6.783-2.394-12.322-4.42-12.308-4.504.015-.083 3.774-7.474 8.356-16.424l8.33-16.273 15.311 8.415 15.311 8.415-.291 12.751c-.292 12.747-.296 12.76-13.17 44.944l-12.88 32.194-8.815 5.914c-4.848 3.252-9.722 5.819-10.83 5.704-1.107-.116-5.914-.59-10.68-1.055zm40.333-294.343c-2.712-.523-3-1.343-3-8.552 0-8.99-.915-8.986 11.664-.045 9.696 6.893 9.85 9.63.527 9.356-3.405-.1-7.541-.442-9.191-.76z"/><path style="fill:#9d1d25;fill-opacity:1;stroke-width:1.33333" d="M875.737 361.304c-28.548-17.401-28.597-17.42-42.12-15.794l-6.732.809-4.43 9.846c-2.438 5.415-4.881 9.846-5.43 9.846-.55 0-1.417-3.15-1.927-7s-1.516-9.756-2.237-13.124c-1.264-5.906-1.533-6.175-7.579-7.563-5.176-1.189-6.66-1.086-8.518.59-1.238 1.115-12.9 4.702-25.913 7.971l-23.662 5.944-14.936 11.924c-8.215 6.559-15.715 11.924-16.667 11.924-3.505 0-17.238-4.388-17.238-5.509 0-.636.826-1.157 1.836-1.157 1.01 0 6.14-.972 11.4-2.16l9.565-2.16 6.6-9.78c3.629-5.379 6.599-10.06 6.599-10.4 0-.342-1.85-1.028-4.111-1.525-2.844-.624-11.08.834-26.718 4.732-12.434 3.099-22.81 5.407-23.057 5.13-2.6-2.92-22.22-30.836-21.889-31.145.243-.227 8.067 3.98 17.387 9.348l16.946 9.76 11.265-1.665c10.644-1.573 11.824-2.093 21.388-9.418 5.567-4.265 10.122-7.998 10.122-8.298 0-.3-8.542-4.716-18.983-9.815l-18.984-9.27h-50.566l-37.105 8.137-37.105 8.137-25.996-4.972-25.996-4.973-5.173-8.83c-2.845-4.856-4.9-9.27-4.568-9.809.333-.539 7.925 2.69 16.871 7.174l16.266 8.154 17.67-3.126c9.718-1.72 17.67-3.48 17.67-3.914 0-.433-6.287-2.82-13.97-5.302-7.684-2.484-13.797-4.689-13.585-4.9.919-.92 72.707-4.428 90.748-4.435l19.86-.008 28.807 8.515c27.129 8.02 29.86 8.568 46.918 9.429l18.113.913 7.22-4.31c6.782-4.049 8.433-4.407 27.135-5.886l19.914-1.575 24.05 11.056c23.415 10.763 26.028 11.413 26.102 6.49.011-.752-10.76-9.422-23.936-19.266-13.175-9.844-23.764-18.09-23.53-18.324.234-.234 12.244 1.524 26.69 3.907l26.264 4.332 13.747 16.128 13.747 16.129 31.403 13.47 31.403 13.469 8.783-2.635c4.83-1.45 8.783-2.962 8.783-3.362 0-.4-2.25-3.606-5-7.124l-5-6.397-21.254-5.813c-18.875-5.163-22.594-6.671-33.238-13.48-6.592-4.217-11.128-7.656-10.08-7.643 1.048.014 7.605.903 14.572 1.976 6.966 1.074 13.552 1.963 14.635 1.976 1.083.014-2.803-4.776-8.635-10.642-5.833-5.867-10.018-10.652-9.302-10.635.716.018 12.778 2.608 26.806 5.756l25.503 5.723 8.968 7.136 8.967 7.135-.514 9.094-.514 9.094 10.973 10.916 10.972 10.916-7.779 8.765a1988.594 1988.594 0 0 1-12.93 14.43l-5.15 5.663-33.04 4.003c-18.171 2.202-34.671 3.986-36.666 3.963-2.246-.025-14.017-6.373-30.905-16.666z"/></g></svg>