<svg xmlns="http://www.w3.org/2000/svg" width="2250" height="1500"><path style="fill:#000" d="M0 0h2250v1500H0z"/><path style="fill:#cbab72;fill-opacity:1;stroke:#000;stroke-width:1.62738562;stroke-miterlimit:4;stroke-opacity:1;stroke-dasharray:none" d="M1210.773 563.661h21.412v624.853h-21.412z"/><path style="fill:#fff;stroke:#000;stroke-width:1.57500005;stroke-miterlimit:4;stroke-dasharray:none" d="M1211.809 610.949V717.45l150.554-.249c16.38-99.636-2.859-181.168-60.486-237.136l-41.729 25.731c36.068 94.033-8.54 105.702-48.339 105.152z"/><path d="M1212.938 1188.135h-35.175v-876.27h35.175v876.27zm-35.175 0h-35.175v-876.27h35.175v876.27zm-105.525 0h-35.176v-876.27h35.176v876.27zm70.325 21.219h-35.126V290.646h35.126v918.708zm-35.15-21.219h-35.175v-876.27h35.175v876.27z" style="fill:#cbab72;fill-opacity:1;stroke:#000;stroke-width:1.57500005;stroke-miterlimit:4;stroke-opacity:1;stroke-dasharray:none"/><path d="M1142.588 1188.135h-35.175v-876.27h35.175v876.27z" style="fill:#cbab72;fill-opacity:1;stroke:#000;stroke-width:1.57500005;stroke-miterlimit:4;stroke-opacity:1;stroke-dasharray:none"/><path d="M1037.062 486.313v-30.62h175.873v30.62h-175.873zm0 30.62v-30.62h175.873v30.62h-175.873zm0 489.832v29.888h195.124v-29.888h-195.124zm0-29.888v29.888h195.124v-29.888h-195.124zm0-74.783v69.125l175.873-373.313v-69.125z" style="fill:#fff;fill-opacity:1;stroke:#000;stroke-width:1.57500005;stroke-miterlimit:4;stroke-opacity:1;stroke-dasharray:none"/><g style="fill:#cbab72;stroke:#000;stroke-width:1.57500005;stroke-linecap:round;stroke-linejoin:round;stroke-miterlimit:4;stroke-dasharray:none"><path style="stroke-width:1.57500005;stroke-miterlimit:4;stroke-dasharray:none" d="M1248.216 606.49c.902.05 2.88.751 2.684 1.832 1.205-1.025 1.996-2.05 2.543-3.074l-5.227 1.241zm.212 4.138c.481.951.65 2.063.635 3.192l-3.037 1.42c.115-1.85.89-3.961 2.401-4.612z" transform="translate(4.984 -41.213)"/><path style="stroke-width:1.57500005;stroke-miterlimit:4;stroke-dasharray:none" d="M1243.518 611.426c.692 1.888 3.683 1.787 5.545 1.271l.234 1.082-2.945 2.465-4.282-2.069v-2.72l1.448-.03z" transform="translate(4.984 -41.213)"/><path style="stroke-width:1.57500005;stroke-miterlimit:4;stroke-dasharray:none" d="M1222.975 577.443c-1.61-.018-3.039.114-4.538.19-1.766.932-3.553 2.106-5.507 3.073-.802.768-1.353 1.645-1.403 2.727-2.048 1.306-2.845 2.871-3.403 4.489l.536 15.83c-1.07 1.936-1.557 3.923.186 6.094l.185 5.041c-2.342 4.859 3.242 6.905 6.869 5.973-1.891-1.265-2.662-2.435-2.682-3.539l1.98-.138c.416 1.053 1.268 2.067 3.383 2.97-.973-1.028-1.473-2.063-1.526-3.09l.68-.035c.658 1.159 1.872 2.311 3.466 3.47-.942-1.198-1.525-2.393-1.774-3.59l.289-.018.185.034c.84 1.337 2.022 2.74 4.188 3.747 1.2.557 2.769.576 3.96-.104.595.609 1.352 1.08 3.032 1.467 1.478.34 2.764.242 2.764.242-.971-1.343-2.429-2.331-4.084-3.16l3.383.743 3.94 4.247s2.318.622 2.557-.829c.437-2.65-.825-5.033-2.743-7.388.478.046.935.16 1.175.362 2.299 1.924 3.944 4.489 8.767 4.489 1.211 0 3.555-1.161 3.877-2.366.286-1.066-.32-2.138-.907-2.779.539-.693.914-1.346.846-1.95-.076-.674-.676-1.048-1.547-1.002-.773.745-1.693 1.488-3.115 1.467-1.306-.019-3.273-.82-3.032-1.467.456-1.225 1.542-2.352 2.743-3.556 1.754-1.76 4.052-2.558 6.353-2.78 1.34-.129 3.663-1.489 4.538-2.244 1.261-1.09 1.698-3.363 2.104-5.145.317-1.392.495-2.71.495-2.71-.083-.749-.485-1.66-1.753-2.192-2.085-.876-4.296-1.575-5.796-2.435l-3.672-.932c.058-.369-.038-.68-.35-.898a26.253 26.253 0 0 1-3.404-2.83 181.024 181.024 0 0 1-5.157-1.537l-1.732-1.122c-.618-2.1-1.848-3.947-3.92-5.438-2.337-.677-4.915-1.26-8.745-1.312a23.697 23.697 0 0 0-1.691-.07z" transform="translate(4.984 -41.213)"/><path style="stroke-width:1.57500005;stroke-miterlimit:4;stroke-dasharray:none" d="M1208.127 587.924c.558-1.617 1.343-3.187 3.39-4.493.05-1.083.612-1.952 1.413-2.72 1.955-.966 3.745-2.142 5.51-3.074 2-.1 3.867-.311 6.217-.118 3.83.053 6.421.623 8.76 1.3 2.111 1.52 3.35 3.407 3.955 5.558-5.788-.925-9.1-.813-12.715-.828 2.999.788 5.376 1.516 7.205 2.365 1.52.705 2.439 1.716 2.826 2.838.789 2.286-1.489 4.781-3.815 6.8-.542 3.388-1.863 5.93-3.532 8.69.95 1.953 1.949 3.663 2.685 6.208 1.09.112 1.499.381 2.401.65 3.954 4.06 7.937 7.747 7.206 12.18-.24 1.451-2.543.828-2.543.828l-3.956-4.257-13.422-2.956-10.596.71-.99-29.68z" transform="translate(4.984 -41.213)"/><path style="stroke-width:1.57500005;stroke-miterlimit:4;stroke-dasharray:none" d="M1211.306 599.513c-2.151 3.962-6.869 7.71-.142 12.416-6.62 6.967.441 10.03 4.733 8.927-3.522-2.357-3.19-4.38-1.271-6.267.41 1.933.132 3.926 3.956 5.558-1.4-1.478-1.827-2.957-1.343-4.435.315 1.597 1.76 3.193 3.956 4.79-1.208-1.538-1.829-3.075-1.907-4.612.877 1.596 2.066 3.517 4.804 4.789 1.2.557 2.765.562 3.955-.119.596.61 1.358 1.092 3.038 1.479 1.478.34 2.755.236 2.755.236-2.202-3.046-6.862-4.24-10.808-5.971 2.363.8 4.077 1.925 7.276 2.305-2.388-1.069-3.412-2.329-4.733-3.547 1.718 1.13 3.66 2.198 6.499 3.015-1.585-2.01-3.564-4.02-4.097-6.03" transform="translate(4.984 -41.213)"/><path style="stroke-width:1.57500005;stroke-miterlimit:4;stroke-dasharray:none" d="M1222.975 577.442a23.8 23.8 0 0 1 1.7.08c3.83.052 6.403.627 8.74 1.304 2.072 1.492 3.304 3.337 3.922 5.437l1.724 1.126c1.606.513 3.358 1.01 5.15 1.523.968.946 2.052 1.906 3.402 2.846.312.218.412.52.354.89l3.685.929c1.5.86 3.703 1.556 5.788 2.431 1.268.533 1.665 1.446 1.748 2.195 0 0-.179 1.316-.496 2.708-.406 1.781-.842 4.07-2.103 5.16-.874.755-3.196 2.105-4.535 2.234-2.301.22-4.601 1.028-6.355 2.787-1.2 1.205-2.284 2.333-2.74 3.558-.24.648 1.718 1.444 3.024 1.463 1.422.021 2.346-.717 3.118-1.463.871-.045 1.483.316 1.559.989.068.605-.312 1.264-.85 1.957.587.64 1.183 1.72.897 2.787-.322 1.204-2.662 2.353-3.874 2.353-4.823 0-6.465-2.564-8.764-4.488-.24-.201-.703-.309-1.18-.356 1.918 2.356 3.2 4.744 2.763 7.394-.24 1.45-2.575.81-2.575.81l-.047-.059c-.501 1.352-2.267 2.802-4.89.83 1.037.032 1.96-.174 2.622-.929-1.582.395-2.735.392-3.189-.237.679-.399.957-.941 1.04-1.443a9.78 9.78 0 0 1-1.536-.217c-1.68-.387-2.428-.874-3.024-1.483-1.19.68-2.768.676-3.968.119-2.166-1.007-3.342-2.42-4.181-3.756l-.19-.04-.283.02c.25 1.198.83 2.4 1.772 3.598-1.594-1.16-2.815-2.321-3.473-3.48l-.685.04c.053 1.028.563 2.076 1.536 3.104-2.116-.903-2.963-1.933-3.378-2.985l-1.985.138c.02 1.104.802 2.273 2.693 3.539-3.626.93-9.216-1.112-6.874-5.97l-.189-5.042c-1.742-2.17-1.26-4.152-.189-6.088l-.543-15.835c.558-1.617 1.354-3.182 3.402-4.487.05-1.083.615-1.96 1.417-2.729 1.954-.966 3.738-2.132 5.504-3.064 1.5-.075 2.925-.215 4.536-.197zm6.78 41.673c.96.48 1.85 1.034 2.621 1.66a13.41 13.41 0 0 0-.496-1.186l-2.126-.474z" transform="translate(4.984 -41.213)"/><path style="stroke-width:1.57500005;stroke-miterlimit:4;stroke-dasharray:none" d="M1244.436 592.359s-.58 1.774-1.412 2.158c-.707.325-1.554.044-2.084-.444-.635-.584-1.166-1.833-1.192-1.862 1.89-.455 2.92.276 4.406.207 1.542-.073 1.907-.769 1.907-.769v-.06m12.751 5.854c-.907.344-2.343.41-2.932.06-.175.984.974 1.653 2.12 1.477m-7.63 6.15c-4.057.283-6.55 2.471-8.547 5.261m3.179-21.521s-.46.355-.919.237c-.597-.154-1.316-.652-1.316-.652-3.076 0-5.474 1.827-7.373 3.43m2.19 1.981s-2.11-.997-2.013-.325c.097.672 1.673 1.056 2.402 3.015.547 1.471 1.61 2.746 3.037 3.814 2.216 1.658 4.521 1.744 7.276 2.099m5.546-8.278s-.088 1.39-1.413 1.774c-1.325.384-3.073-.695-3.885-.237-.813.459 1.698 1.312.635 2.07-2.03 1.448-6.216-1.951-6.216-1.951m-19.427 7.213s-1.077 1.626-.211 4.139c.865 2.512 1.872 3.355 3.673 5.912s2.967 3.725 3.532 4.316c.531.556 1.453 2.106 1.978 3.607.178.51.439 1.863-.918 2.66.453.629 1.596.632 3.178.237-.661.754-1.576.977-2.613.946 3.324 2.5 5.277-.514 5.015-1.833-.906-4.573-4.918-8.308-7.347-12.534l-1.342-2.365m13.917-1.065s-6.006 3.654-6.287 1.774c-.398-2.664 10.49-5.587 10.49-5.587" transform="translate(4.984 -41.213)"/></g><path style="fill:none;stroke:#000;stroke-width:1.57500005;stroke-linecap:butt;stroke-linejoin:miter;stroke-miterlimit:4;stroke-opacity:1;stroke-dasharray:none" d="M1294.031 484.708c42.93 40.963 78.804 120.481 58.241 231.988"/></svg>