<svg xmlns="http://www.w3.org/2000/svg" width="1280" height="853" viewBox="0 0 338.667 225.69"><g style="opacity:.993"><path style="fill:#436a06;stroke-width:.264583;fill-opacity:1" d="M-3.78-2.268h352.274v235.101H-3.78z"/><path d="m169.333 21.97-45.46 45.46-45.46 45.46 45.414 45.415c24.978 24.979 45.456 45.415 45.506 45.415.05 0 20.528-20.436 45.506-45.415l45.415-45.415-45.46-45.46zm0 27.249 12.444 12.443c6.844 6.843 12.444 12.512 12.444 12.596 0 .204-24.617 24.826-24.82 24.826-.088 0-5.759-5.6-12.602-12.444l-12.443-12.444 12.489-12.489zm-38.63 38.784c.085 0 5.757 5.6 12.603 12.443l12.447 12.444-12.447 12.444c-6.846 6.844-12.517 12.444-12.603 12.444-.085 0-5.754-5.6-12.598-12.444l-12.443-12.444 12.443-12.444c6.844-6.844 12.513-12.443 12.598-12.443zm77.263 0c.084 0 5.752 5.6 12.596 12.443l12.443 12.444-12.443 12.444c-6.844 6.844-12.484 12.444-12.535 12.444-.05 0-5.67-5.58-12.49-12.4-6.818-6.819-12.397-12.47-12.397-12.556 0-.203 24.623-24.82 24.826-24.82zm-38.632 38.467 12.443 12.45c6.845 6.847 12.444 12.518 12.444 12.603 0 .16-24.73 24.948-24.888 24.948-.05 0-5.67-5.58-12.489-12.398-6.819-6.82-12.398-12.468-12.398-12.551 0-.084 5.6-5.755 12.444-12.603z" style="fill:#fff;stroke-width:.181661"/><path style="fill:none;stroke-width:.134542" d="M67.658 15.59h203.351V210.1H67.658z"/><path style="fill:none;stroke-width:.134542" d="M118.784 49.61h101.099v126.47H118.784z"/></g></svg>