<svg xmlns="http://www.w3.org/2000/svg" viewBox="0 0 338.667 225.69" height="853" width="1280"><path style="fill:#005c94;stroke-width:.264583;fill-opacity:1" d="M-6.804-6.804h354.542v250.976H-6.804z"/><path style="fill:#eee8aa;stroke-width:.0819207;fill-opacity:1" d="M173.656 169.152c0-.032 5.524-5.588 12.275-12.347l12.276-12.29.337-.696c.435-.896.586-1.563.588-2.583 0-1.013-.134-1.571-.62-2.562-.847-1.727-2.602-2.876-4.613-3.018-.973-.07-1.871.117-2.876.598l-.779.372-15.858 15.85-15.858 15.85-1.345-.3c-3.954-.878-8.093-2.273-11.62-3.916-.695-.324-1.277-.63-1.293-.68-.017-.05 7.936-8.03 17.671-17.735 9.736-9.705 17.938-17.922 18.229-18.26 1.49-1.736 1.844-4.026.932-6.05-1.49-3.308-5.716-4.339-8.593-2.096-.248.193-8.911 8.815-19.252 19.158-10.34 10.344-18.824 18.807-18.854 18.807-.1 0-1.854-1.434-3.071-2.511-1.988-1.76-4.125-4.014-5.882-6.199l-.647-.805 19.05-19.06c16.568-16.577 19.094-19.136 19.383-19.635 1.076-1.859 1.076-3.98 0-5.809-1.1-1.865-3.389-2.98-5.49-2.672-1.042.152-1.948.516-2.727 1.096-.18.134-8.44 8.35-18.356 18.258l-18.028 18.014-.516-1.09a57.273 57.273 0 0 1-4.1-12.067l-.248-1.146 15.8-15.812c12.226-12.234 15.866-15.923 16.092-16.304.956-1.612 1.057-3.695.26-5.358-.685-1.43-1.823-2.425-3.356-2.933-.572-.19-.79-.218-1.72-.22-.955 0-1.133.022-1.72.226-1.36.472-.855-.002-13.927 13.074-6.668 6.67-12.144 12.129-12.169 12.129-.103 0 .22-2.84.546-4.793 1.33-7.976 4.273-15.423 8.739-22.118a56.315 56.315 0 0 1 37.413-24.243c3.723-.63 6.385-.823 10.486-.76 3.926.062 6.513.336 10.2 1.082a56.433 56.433 0 0 1 35.643 23.839 56.978 56.978 0 0 1 7.067 14.768 56.424 56.424 0 0 1-1.426 37.463c-7.424 18.775-24.32 32.166-44.275 35.089a55.71 55.71 0 0 1-2.334.29c-.541.05-1.085.108-1.209.127-.124.02-.225.01-.225-.022z"/></svg>