<svg xmlns="http://www.w3.org/2000/svg" width="1280" height="853.333"><path style="fill:#000;fill-opacity:1;stroke:none" d="M-15000-8947.638h30000v20000h-30000z" transform="translate(640 381.766) scale(.04267)"/><path style="fill:red;fill-opacity:1;stroke:none" d="m0 744.094-15000-4874v-5126h7734z" transform="translate(640 394.919) scale(.04267)"/><path style="fill:red;fill-opacity:1;stroke:none" d="m0 1052.362 7266-10000H0Zm0 0 15000-4874v9748zm0 0-15000 4874.001v5125.999h7734zm0 0 7266 10000H0Z" transform="translate(640 381.766) scale(.04267)"/><path style="fill:#000;fill-opacity:1;stroke:none" d="m0 218.375-118.063 363.25H-500L0 744.094l500-162.469H118.062Zm0 525.719 309.031 425.312L191 806.156l309-224.5zm0 0-309 425.343 309-224.5 309 224.5zm0 0-500-162.438 309 224.5-118.031 363.25z" transform="translate(640 -26.248) scale(.60868)"/><path style="fill:red;fill-opacity:1;stroke:none" d="M0 1052.362-500 889.91l308.99 224.516Zm0 0-.006-525.729L-118.05 889.88Zm0 0 499.996-162.465-381.946-.017Zm0 0 309.021 425.32-118.011-363.257Zm0 0-309.01 425.328L0 1253.2Z" transform="translate(640 -213.885) scale(.60868)"/></svg>