<svg xmlns="http://www.w3.org/2000/svg" width="1280" height="853" viewBox="0 0 338.667 225.69"><defs><path id="a" d="M33.64 80.131h56.318v58.208H33.64z"/></defs><path style="fill:#ff3e3d;stroke:#fff;stroke-width:1;stroke-linecap:square;paint-order:stroke markers fill;fill-opacity:1" d="M-3.402-3.572h345.47v232.833H-3.402z"/><path d="M169.333 37.562a75.283 75.283 0 0 0-75.283 75.283 75.283 75.283 0 0 0 75.283 75.283 75.283 75.283 0 0 0 75.283-75.283 75.283 75.283 0 0 0-75.283-75.283zm0 19.138a56.145 56.145 0 0 1 56.145 56.145 56.145 56.145 0 0 1-56.145 56.145 56.145 56.145 0 0 1-56.145-56.145A56.145 56.145 0 0 1 169.333 56.7z" style="fill:#fff;stroke:#fff;stroke-width:1.56227;stroke-linecap:square;paint-order:stroke markers fill"/><g style="font-size:22.5778px;line-height:1.25;font-family:sans-serif;letter-spacing:0;word-spacing:0;white-space:pre;shape-inside:url(#a)" transform="translate(-21.918 -315.126) scale(4.54084)"><path d="M49.78 100.73v-.409c-.566-.088-1-.272-1.3-.55-.302-.28-.618-.817-.949-1.61l-5.214-12.722h-.408l-5.556 12.788c-.375.867-.699 1.43-.97 1.686-.272.25-.75.386-1.434.408v.408h6.097v-.408c-.698-.058-1.147-.176-1.345-.352a.859.859 0 0 1-.309-.684c0-.345.17-.908.507-1.687l3.219-7.938 3.054 7.828c.33.801.496 1.39.496 1.764 0 .309-.103.555-.309.739-.205.176-.62.286-1.245.33v.408z" style="font-style:normal;font-variant:normal;font-weight:400;font-stretch:normal;font-size:22.5778px;font-family:'Times New Roman';-inkscape-font-specification:'Times New Roman, ';fill:#fff" aria-label="Λ"/></g><g style="font-size:22.5778px;line-height:1.25;font-family:sans-serif;letter-spacing:0;word-spacing:0;white-space:pre;shape-inside:url(#a)" aria-label="Λ" transform="matrix(-4.54084 0 0 4.54084 360.584 -315.126)"><path style="font-style:normal;font-variant:normal;font-weight:400;font-stretch:normal;font-size:22.5778px;font-family:'Times New Roman';-inkscape-font-specification:'Times New Roman, ';fill:#fff" d="M49.78 100.73v-.409c-.566-.088-1-.272-1.3-.55-.302-.28-.618-.817-.949-1.61l-5.214-12.722h-.408l-5.556 12.788c-.375.867-.699 1.43-.97 1.686-.272.25-.75.386-1.434.408v.408h6.097v-.408c-.698-.058-1.147-.176-1.345-.352a.859.859 0 0 1-.309-.684c0-.345.17-.908.507-1.687l3.219-7.938 3.054 7.828c.33.801.496 1.39.496 1.764 0 .309-.103.555-.309.739-.205.176-.62.286-1.245.33v.408z"/></g></svg>