<svg xmlns="http://www.w3.org/2000/svg" width="1280" height="853" viewBox="0 0 338.667 225.69"><path style="fill:#fff;fill-opacity:1;stroke:none;stroke-width:2.64583" d="M-2.673-1.604h343.709v230.386H-2.673z"/><path style="fill:#fff;fill-opacity:1;stroke:red;stroke-width:3.73766;stroke-miterlimit:4;stroke-dasharray:none;stroke-opacity:1" d="M187.143 389.286a60.714 60.714 0 1 1-121.429 0 60.714 60.714 0 1 1 121.429 0z" transform="translate(-15.174 -455.27) scale(1.45938)"/><path d="m349 539.967 2.531-7.105 46.235.036 2.402 7.084zm51.217-.105z" style="fill:red;fill-opacity:1" transform="matrix(1.98302 0 0 2.17874 -573.307 -1056.158)"/><path d="m340.187 559.862 2.777-7h11.871l15.78-47.5h7.77l15.78 47.5h11.739l2.909 7h-19.46l-14.748-45.012-14.295 45.012z" style="fill:#000;fill-opacity:1" transform="matrix(1.98302 0 0 2.17874 -573.307 -1056.158)"/></svg>