<svg xmlns="http://www.w3.org/2000/svg" width="1280" height="853" viewBox="0 0 338.667 225.69"><path style="fill:#fff;stroke-width:.264583" d="M-3.935-.27h345.47v232.077H-3.935z"/><path style="fill:#ec1d26;fill-opacity:1;stroke-width:.279835" d="M152.543 193.97c0-.093 1.322-4.365 2.938-9.494 1.616-5.128 2.939-9.513 2.939-9.743 0-.395-1.543-1.6-11.985-9.36-2.36-1.752-4.248-3.222-4.198-3.264.165-.14 10.613-.427 15.623-.43l4.897-.003 3.184-9.445c1.75-5.194 3.275-9.615 3.386-9.825.122-.23.894 1.67 1.933 4.757.95 2.826 2.449 7.247 3.329 9.823l1.6 4.685 5.597.056c3.078.03 6.667.086 7.975.124 1.308.037 3.446.076 4.75.086 2.314.017 2.357.03 1.818.532-.303.283-3.763 2.882-7.687 5.777-3.925 2.894-7.403 5.503-7.73 5.797l-.592.534 1.617 5.093c3.304 10.402 4.474 14.272 4.353 14.393-.069.069-3.857-2.531-8.419-5.777s-8.34-5.902-8.395-5.902c-.056 0-3.826 2.644-8.378 5.876s-8.34 5.877-8.416 5.877c-.076 0-.139-.076-.139-.169zm-26.584-44.712v-6.89l4.267-.007c4.96-.007 7.363-.422 10.004-1.73 1.54-.764 2.985-2.057 9.39-8.399 4.164-4.123 7.667-7.496 7.784-7.496.48 0 2.482 1.731 6.131 5.301l3.856 3.773-7.494 7.521c-4.122 4.137-8.312 8.151-9.313 8.921-2.477 1.906-6.853 3.996-10.22 4.88-2.446.643-3.512.751-8.599.874l-5.806.141zm76.255 6.63c-4.669-.6-9.956-2.595-13.432-5.07-.77-.547-7.066-6.616-13.992-13.485-12.586-12.482-14.627-14.32-17.915-16.127-4.755-2.614-8.628-3.464-15.78-3.464-2.784 0-5.062.064-5.062.142 0 .078.315 1.477.7 3.107 1.014 4.292 1.153 5.818.604 6.656-.248.377-.7.766-1.006.863-.997.316-.458.744-14.43-11.438l-6.935-6.044c-.19-.163 7.176-6.74 17.192-15.349 3.209-2.758 3.957-3.051 4.983-1.95.786.844.733 2.098-.269 6.289-.462 1.932-.84 3.625-.84 3.762 0 .138 2.36.251 5.248.252 9.27.003 15.348 1.427 22.216 5.207 4.804 2.644 6.464 4.097 19.969 17.471 11.858 11.744 13.337 13.115 15.03 13.934 2.726 1.32 5.007 1.713 9.945 1.719l4.267.007v13.712l-4.827-.042c-2.655-.023-5.205-.09-5.666-.15zm-.573-27.92c-.91-.909-.887-1.854.153-6.353.462-1.998.84-3.701.84-3.784 0-.083-2.74-.087-6.087-.01-6.776.156-8.058.391-12.484 2.292l-2.465 1.059-4.801-4.723c-2.64-2.597-4.838-4.855-4.883-5.017-.173-.623 6.78-4.18 10.571-5.409 4.513-1.462 6.564-1.752 13.502-1.91 3.656-.083 6.647-.254 6.647-.38 0-.125-.378-1.775-.84-3.666-1.003-4.108-1.062-5.486-.269-6.337.95-1.02 1.81-.78 4.006 1.11 10.665 9.186 18.351 16.031 18.17 16.183-.12.1-1.731 1.505-3.578 3.12-12.718 11.124-16.745 14.514-17.24 14.514-.305 0-.864-.31-1.242-.687zm-35.825-24.71c-1.608-.574-2.818-1.44-3.54-2.536-.463-.702-.495-2.303-.497-25.165V51.141h-11.474V31.553l12.523.003c13.833.007 14.865.102 18.01 1.69 2.417 1.22 5.216 4.056 6.345 6.428 1.213 2.55 1.445 3.81 1.453 7.898l.007 3.568h-11.474v48.84l-.693 1.021c-.44.647-1.283 1.309-2.3 1.806-2.106 1.03-6.122 1.246-8.36.448z"/></svg>