<svg xmlns="http://www.w3.org/2000/svg" width="1280" height="853" viewBox="0 0 338.667 225.69"><path style="fill:#c00;fill-opacity:1;stroke-width:.264583" d="M-1.512-.756h343.958v231.321H-1.512z"/><g style="fill:gold;fill-opacity:1"><path d="m137.437 171.694 18.863 18.994 17.789-17.666c27.058 29.021 55.438 56.995 82.287 86.128 4.034 4.062 10.598 4.085 14.66.05 4.063-4.034 4.085-10.598.05-14.66-28.818-27.19-57.725-54.602-86.552-81.891l23.965-23.8-33.34-4.616z" style="fill:gold;fill-opacity:1;stroke:none;stroke-width:.489191;stroke-miterlimit:4;stroke-dasharray:none;stroke-dashoffset:0;stroke-opacity:1" transform="matrix(.86006 0 0 .85782 -1.206 -46.884)"/><path d="M198.289 110.195c15.517 8.74 27.298 21.282 34.248 34.393 7.044 13.289 10.14 27.162 10.203 38.254.13 22.744-18.437 41.182-41.181 41.182-12.136 0-23.047-5.249-30.583-13.6l-4.17 3.51a6.224 6.224 0 0 0-6.973 1.789 7.815 7.815 0 0 0-6.404 5.291c-3.135 6.289-8.636 11.22-15.291 13.478-.064.022-.12.05-.176.078-3.078 1.128-6.163 3.165-8.79 5.803-5.19 5.236-7.728 11.936-6.3 16.638a3.931 3.931 0 0 0-.215 1.27 3.93 3.93 0 0 0 3.931 3.93 3.933 3.933 0 0 0 1.578-.336c4.693 1.059 11.068-1.546 16.054-6.559 2.826-2.85 4.944-6.224 5.983-9.53 2.317-6.623 7.297-12.02 13.623-15.054a2.7 2.7 0 0 0 .382-.223 7.815 7.815 0 0 0 4.225-5.214c9.702 11.445 24.253 18.753 40.519 19.136 29.833.702 52.133-21.258 53.164-52.837.519-15.892-5.63-36.385-19.641-53.19-10.709-12.845-26.41-23.509-44.187-28.209z" style="fill:gold;fill-opacity:1;stroke:none;stroke-width:.500035;stroke-miterlimit:4;stroke-dasharray:none;stroke-dashoffset:0;stroke-opacity:1" transform="matrix(.86006 0 0 .85782 -1.206 -46.884)"/></g></svg>