<svg xmlns="http://www.w3.org/2000/svg" height="853.333" width="1280"><path style="fill:#ed020f;fill-opacity:1;stroke:none" d="M125 382.362h450v300H125Z" transform="translate(-355.556 -1087.608) scale(2.84444)"/><g style="fill:#fff"><g style="fill:#fff"><path style="fill:#fff;fill-opacity:1;stroke:none" d="M110.965 742.274a26.763 26.763 0 0 0 9.54 12.72c5.3 3.812 12.043 5.567 18.53 4.824l22.15-40.46-2.742-11.623 5.592-8.004-11.732-7.566-7.676 10.745-9.759 1.316-23.903 38.048" transform="translate(80.285 -1427.931) scale(2.84444)"/><path style="fill:#fff;fill-opacity:1;stroke:none" d="M218.86 711.134c13.252-2.378 26.342-7.734 35.751-17.365 9.677-9.904 14.75-23.67 16.003-37.46 1.363-15.001-1.53-30.235-7.29-44.154-5.76-13.919-14.323-26.568-24.289-37.863a177.83 177.83 0 0 0-34.649-30.263 147.12 147.12 0 0 1 32.456 41.667c10.23 19.612 15.974 42.155 12.627 64.021-1.073 7.015-3.143 14.045-7.364 19.75-3.001 4.058-7.004 7.313-11.396 9.798-4.392 2.485-9.174 4.223-14.042 5.553-22.2 6.068-46.64 3.512-67.106-7.017l-8.333 13.158a94.312 94.312 0 0 0 34.704 18.201c13.911 3.895 28.709 4.526 42.928 1.974" transform="translate(80.285 -1427.931) scale(2.84444)"/></g><g style="fill:#fff"><path style="fill:#fff;fill-opacity:1;stroke:none" d="m165.03 599.566 5.932-4.943h4.42l106.84 126.205a14.313 14.313 0 0 1-.23 7.28 14.313 14.313 0 0 1-3.801 6.211 14.331 14.331 0 0 1-7.211 3.703 14.33 14.33 0 0 1-8.063-.834L165.03 603.404v-3.838" transform="translate(80.285 -1427.931) scale(2.84444)"/><path style="fill:#fff;fill-opacity:1;stroke:none" d="m227.018 610.576-57.84 42.023h-7.908l-15.662-19.849 2.171-9.924 44.66-33.65 19.538 1.396 15.041 20.004" transform="translate(80.285 -1427.931) scale(2.84444)"/></g></g></svg>