<svg xmlns="http://www.w3.org/2000/svg" width="1280" height="853" viewBox="0 0 338.667 225.69"><path style="fill:#000;stroke-width:10.5833;stroke-linecap:round;stroke-linejoin:round;paint-order:fill markers stroke" d="M-3.78-3.572h346.226v232.833H-3.78z"/><circle r="75" cy="112.845" cx="169.333" style="fill:#fff;stroke-width:11.2019;stroke-linecap:round;stroke-linejoin:round;paint-order:fill markers stroke"/><path style="fill:#000;stroke-width:.95531" d="m135.058 150.498 6.032-19.774.037-3.222-6.11-.599-7.983-16.718-3.34 17.196h-10.211l.849-2.388 4.575-21.48-15.465-11.537 25.684.536 6.67 15.762 4.581-16.24h12.06l-2.749 11.464h7.28l5.176-12.897h-8.351l15.07-47.883 14.705 47.883h-8.05l16.133 34.19-7.664-32.757 13.98.022 8.599 16.556 1.585-16.579 27.074.06-10.409 8.287 6.274 27.111-9.223-.589-4.793-20.061-1.585 20.539h-8.427l-9.474-18.629 3.852 18.629h-5.86v2.147l12.202 40.422-39.429-29.167-39.326 29.49 6.032-19.775zm17.532-37.479v-1.879h-4.74l-3.986 16.24h1.62zm26.395 6.72h-18.713l-3.9 7.642h25.833zm-9.349-19.34-5.514 10.741h10.44z"/></svg>