<svg xmlns="http://www.w3.org/2000/svg" width="1280" height="853" viewBox="0 0 338.667 225.69"><path style="fill:#000;fill-opacity:1;stroke:#0038b8;stroke-width:2.64583;paint-order:markers fill stroke" d="M-6.048-2.816h350.762v231.321H-6.048z"/><g style="fill:red;stroke:none"><path style="fill:red;fill-opacity:1;stroke:none;stroke-width:1px;stroke-linecap:butt;stroke-linejoin:miter;stroke-opacity:1" d="M-146.182 129.187s-1.332-26.306-28.803-27.471c-27.472-1.166-33.299 26.639-31.467 32.633 1.831 5.993 1.165 7.825 11.155 19.313l6.66-1.499s-23.31 27.139-24.642 32.8c-1.332 5.66 5.828 4.995 5.828 4.995l28.97-37.961s-14.652-8.491-16.483-18.98c-1.832-10.49 4.661-22.977 22.643-24.641 17.981-1.665 26.14 20.811 26.14 20.811" transform="translate(320.1 68.484) scale(.53292)"/><g style="fill:red;stroke:none"><path style="fill:red;stroke:none;stroke-width:1px;stroke-linecap:butt;stroke-linejoin:miter;stroke-opacity:1" d="M149.75 96.832c-17.541 32.964-26.489 2.472-26.489 2.472 18.013-2.825 6.24-20.955 6.24-20.955-21.427-20.014-24.161-28.067-24.161-28.067-3.497.167-2.498 8.991-2.498 8.991L45.735.667C32.082 11.157 85.86 71.094 85.86 71.094L30.251 41.791c-5.494 14.652 51.447 48.95 51.447 48.95L18.596 80.25c-5.66 15.65 65.766 29.636 65.766 29.636L37.41 125.205c3.497 13.153 54.61.166 54.61.166l-39.126 26.473c4.329 12.653 53.778-15.65 53.778-15.65l-26.028 32.924c11.42 7.652 40.145-26.372 40.145-26.372l-17.306 34.613c8.123 5.886 34.495-30.728 34.495-30.728l7.487 28.355c-42.123-19.146-23.675 25.683-23.675 25.683s-39.027 22.545-36.967 19.366c2.06-3.178-1.236-4.532-1.236-4.532s-.765-1.295-10.596 3.355c-9.83 4.65-.765 9.418-.765 9.418-3.002 4.121 3.826 7.359 3.826 7.359-1.648 4.002 5.651 4.709 5.651 4.709s6.122-4.474 8.83-5.887c2.708-1.412-1.06-5.533-1.06-5.533l.471-2.59 36.665-20.338 9.25.206c-18.203-28.316 15.355-19.612 13.269-16.564 9.157 24.474-10.49 34.63-10.49 34.63l9.817.77s.236 12.833-10.147 19.27l10.147.73s.236 12.833-10.477 19.308l9.3-1.987 8.123 22.84 8.124-22.84 9.3 1.987c-10.713-6.475-10.478-19.307-10.478-19.307l10.148-.731c-10.383-6.437-10.148-19.27-10.148-19.27l9.817-.77s-19.646-10.156-10.489-34.63c-2.086-3.048 31.471-11.752 13.27 16.564l9.248-.206 36.666 20.338.47 2.59s-3.767 4.12-1.059 5.533c2.708 1.413 8.83 5.887 8.83 5.887s7.299-.707 5.65-4.71c0 0 6.829-3.237 3.827-7.358 0 0 9.065-4.768-.765-9.418-9.83-4.65-10.596-3.355-10.596-3.355s-3.296 1.354-1.236 4.532c2.06 3.18-36.967-19.366-36.967-19.366s18.448-44.83-23.675-25.683l7.487-28.355s26.372 36.614 34.495 30.728l-17.306-34.613s28.726 34.024 40.145 26.372l-26.028-32.925s49.449 28.304 53.778 15.65l-39.126-26.472s51.113 12.987 54.61-.166l-46.952-15.318s71.426-13.985 65.765-29.636l-63.1 10.49s56.94-34.298 51.446-48.95l-55.61 29.303S278.72 11.156 265.069.667L207.96 59.273s1-8.824-2.497-8.99c0 0-2.735 8.052-24.161 28.066 0 0-11.773 18.13 6.24 20.955 0 0-8.948 30.492-26.49-2.472l7.535 1.472-4.886-15.246 6.063 1.883-5.12-13.656 6.533 2.001-2.59-6.004-.647-.765s.235-12.538-2.414-14.48c0 0 10.301 2.942 10.066-3.238l-5.239-.354-13.01-8.653s-6.827-3.06-10.124 1.943c0 0-9.771.059-7.064 10.831 0 0 5.357-4.827 11.361-1 6.005 3.825 7.3 13.42 7.3 13.42s-8.36-8.123-12.185-5.474c0 0 13.232 8.78 3.12 37.32z" transform="translate(91.267 36.672) scale(.53292)"/><path d="m151.28 42.176 3.062 1.207s-2.443 2.208.382 3.208c2.826 1.001 3.209-1.5 3.209-1.5l5.003 3.443.236.412-.354.677-3.473-1.501s-10.448 3.443-8.064-5.946zm-22.073 4.857s2.178 9.948 13.539 7.358c11.36-2.59 12.89 4.768 12.89 4.768s-7.71-5.945-14.127-.824c-6.416 5.12-13.068-9.536-13.068-9.536z" style="fill:red;stroke:none;stroke-width:1px;stroke-linecap:butt;stroke-linejoin:miter;stroke-opacity:1" transform="translate(91.267 36.672) scale(.53292)"/><g style="fill:red;stroke:none"><path style="fill:red;stroke:none;stroke-width:1.09476px;stroke-linecap:butt;stroke-linejoin:miter;stroke-opacity:1" d="m251.553 205.255-8.08-.2-.04 39.089 8.287.1z" transform="translate(42.705 -3.764) scale(.53292)"/><path style="fill:red;stroke:none;stroke-width:1px;stroke-linecap:butt;stroke-linejoin:miter;stroke-opacity:1" d="m236.517 194.076-.117 11.42 23.075.059.059-11.714z" transform="translate(42.705 -3.764) scale(.53292)"/></g><path d="m91.592 242.345 4.356 3.296-.706 6.358-6.357-2.59-1.06-5.533-16.6-26.019-9.065 6.946-4.238-7.652 8.947-4.12L.45 78.087l75.588 129.865 7.432-5.517 5.062 9.183-10.242 2.119z" style="fill:red;stroke:none;stroke-width:1px;stroke-linecap:butt;stroke-linejoin:miter;stroke-opacity:1" transform="translate(91.267 36.672) scale(.53292)"/></g></g></svg>