<svg xmlns="http://www.w3.org/2000/svg" width="1426" height="951" version="1.0"><path style="fill:#eb0000;fill-opacity:1" d="M.5.5h1425v950H.5z"/><path transform="matrix(1.10396 0 0 1.15562 -187.09 -111.235)" d="M1123.004 507.72a307.672 296.135 0 1 1-615.345 0 307.672 296.135 0 1 1 615.345 0z" style="fill:#fff;fill-opacity:1;fill-rule:nonzero;stroke:#000;stroke-opacity:0"/><path style="fill:#000" d="M941.374 695.108c-7.844-2.592-13.047-6.544-30.756-23.362-38.645-36.7-55.806-52.5-57.307-52.758-.885-.152-6.537 2.228-12.56 5.289-17.516 8.9-35.307 14.097-63.695 18.61-3.337.53-15.668 1.226-27.402 1.545-19.24.524-22.454.385-32.74-1.406-17.536-3.054-27.714-5.303-37.36-8.255-40.8-12.49-67.613-30.036-87.211-57.073-4.437-6.12-6.415-8.127-8.01-8.127-2.525 0-14.204 9.96-14.312 12.205-.04.838 4.107 5.377 9.216 10.087 5.109 4.71 9.289 9.239 9.289 10.063 0 1.912-10.784 12.23-12.783 12.23-.827 0-5.617-4.04-10.644-8.98l-9.14-8.979-3.344 3.174c-1.84 1.746-9.284 11.116-16.543 20.823-20.055 26.816-22.717 29.563-42.125 43.457-9.397 6.727-17.702 9.953-25.624 9.953-4.913 0-7.968-1.343-15.603-6.855-5.52-3.985-7.524-7.3-9.991-16.517-2.62-9.786 3.023-25.862 12.228-34.835 4.173-4.068 63.04-46.075 66.458-47.425 2.685-1.06.658-4.193-7.663-11.846-4.853-4.463-8.824-8.554-8.824-9.09 0-.932 10.093-10.588 12.642-12.094.832-.491 4.608 2.426 11.709 9.046 5.765 5.374 10.977 9.776 11.583 9.782 2.238.02 20.511-13.447 28.174-20.765 15.44-14.744 25.76-23.81 27.105-23.81.75 0 2.782 1.776 4.517 3.947 12.358 15.461 30.928 31.04 45.922 38.522 19.504 9.734 31.76 13.556 51.552 16.074 24.897 3.169 44.692 2.08 70.594-3.879 12.079-2.78 19.506-5.522 19.506-7.203 0-.441-1.777-2.386-3.948-4.322-9.46-8.435-49.957-47.062-68.04-64.898-7.152-7.055-14.112-13.522-15.466-14.371-1.354-.849-6.58-5.472-11.61-10.274-60.676-57.904-74.666-71.048-76.576-71.943-1.336-.626-2.34-.36-3.878 1.026-1.142 1.03-12.316 10.566-24.833 21.193-12.516 10.626-23.643 20.113-24.727 21.083-1.965 1.758-2.002 1.733-14.862-9.573-7.09-6.234-15.609-13.721-18.93-16.638-25.175-22.112-33.008-29.212-33.236-30.124-.144-.578 9.469-10.23 21.362-21.452 11.893-11.221 26.221-24.79 31.84-30.155 5.619-5.364 14.606-13.947 19.972-19.072a6194.09 6194.09 0 0 1 18.117-17.225 5559.388 5559.388 0 0 0 15.98-15.183l7.619-7.276 20.71 3.4c46.585 7.65 60.417 9.899 74.586 12.126 20.8 3.27 26.472 4.429 26.472 5.409 0 1.342-4.015 4.915-38.083 33.895-17.625 14.992-32.168 27.982-32.317 28.866-.34 2.014 4.715 6.879 49.036 47.19 8.43 7.666 17.628 16.204 20.44 18.973 9.368 9.22 53.306 49.146 67.081 60.952 4.292 3.679 14.256 12.602 22.143 19.828 22.842 20.93 26.462 24.016 27.4 23.346 2.084-1.49 9.617-12.498 14.098-20.602 8.216-14.862 11.637-22.185 14.1-30.189 3.74-12.148 4.821-19.935 5.376-38.702.504-17.035.134-19.573-5.858-40.222-4.017-13.844-8.73-25.717-13.976-35.206-5.287-9.562-21.134-31.99-34.543-48.885-17.147-21.606-53.192-56.97-73.551-72.16-8.479-6.326-33.046-29.772-32.143-30.675.647-.646 27.4 1.732 34.483 3.065 25.579 4.816 39.568 9.563 57.59 19.54 6.13 3.394 13.407 7.183 16.17 8.42 11.701 5.243 41.879 28.256 58.232 44.408 21.54 21.275 40.459 49.57 52.149 77.992 2.739 6.66 6.637 16.145 8.663 21.079 8.082 19.683 11.83 41.385 11.928 69.054.053 15.065-1.315 26.977-4.921 42.839-2.25 9.896-9.774 31.992-13.089 38.436-6.066 11.794-18.106 29.46-30.371 44.565-1.443 1.777-2.623 3.702-2.623 4.278 0 .576 2.403 3.275 5.34 5.998 2.938 2.723 9.73 9.158 15.095 14.3 18.54 17.772 38.576 36.486 46.13 43.087 7.733 6.76 9.126 9.09 10.974 18.376 1.316 6.611-4.91 23.242-10.81 28.871-7.178 6.852-21.018 9.485-31.553 6.004z"/></svg>