<svg xmlns="http://www.w3.org/2000/svg" version="1.0" width="1280" height="768"><path fill="#d00" style="fill:#febe00;fill-opacity:1;stroke-width:1.28" d="M0 0h1280v768H0z"/><circle style="stroke-width:1.28" cx="640" cy="384" r="288" fill="#fff"/><path d="m585.925 600.955-54.073-54.074-27.205 27.175-27.204 27.176-26.56-26.478c-14.608-14.563-26.56-26.8-26.56-27.194 0-.393 11.808-12.513 26.24-26.932 14.432-14.42 26.234-26.798 26.227-27.508-.005-.71-24.2-25.481-53.762-55.046l-53.75-53.753 26.881-26.882 26.882-26.882 54.398 54.387 54.398 54.387 26.885-26.863c14.788-14.775 26.732-27.326 26.543-27.891-.188-.566-24.52-25.198-54.071-54.739l-53.73-53.71 81.579-81.578 81.578-81.578 53.828 53.748c29.605 29.561 54.111 54.01 54.458 54.329.347.32 12.684-11.462 27.416-26.181 14.731-14.72 27.065-26.5 27.407-26.181.343.32 12.484 12.36 26.98 26.757l26.358 26.177-26.45 26.472c-14.547 14.56-26.235 27.107-25.973 27.882.263.776 24.238 25.219 53.278 54.318 29.04 29.1 52.8 53.45 52.8 54.113 0 .663-11.956 13.15-26.569 27.75l-26.568 26.547-53.746-53.758c-29.56-29.566-54.33-53.757-55.043-53.757-.714 0-13.243 11.956-27.843 26.568l-26.546 26.569 53.757 53.746c29.567 29.56 53.758 54.326 53.758 55.035 0 1.262-160.029 161.922-161.286 161.922-.351 0-24.971-24.333-54.712-54.073zm82.595-81.579 25.958-26.41-27.238-27.103-27.237-27.103-26.56 26.522c-14.608 14.588-26.56 27.1-26.56 27.803 0 2.23 52.802 54.228 54.274 53.447.773-.41 13.086-12.63 27.363-27.156zm-.357-216.348 26.857-26.88-26.857-26.88c-14.772-14.784-27.25-26.88-27.73-26.88-1.02 0-53.55 52.66-53.55 53.684 0 .887 52.874 53.836 53.76 53.836.364 0 12.748-12.096 27.52-26.88z" style="fill:#000;stroke-width:1.28"/></svg>