<svg xmlns="http://www.w3.org/2000/svg" xmlns:xlink="http://www.w3.org/1999/xlink" viewBox="0 0 361.24 240.736" fill="#fff" height="853" width="1280"><path style="stroke-width:.354706" d="M-.002 0h361.245v240.736H-.002" fill="#012169"/><g transform="translate(-1.864 -16.186) scale(1.34575)"><use height="100%" width="100%" transform="rotate(180 135.6 101.47)" xlink:href="#a"/><g id="a" transform="translate(427.64 -170.45)"><use transform="rotate(90 -291.86 271.68)" xlink:href="#b" width="100%" height="100%"/><path d="M-407.19 273.06v-2.275h57.573v2.275zm114.01 56.43h2.275v23.707h-2.275z"/><path id="b" d="M-342.74 271.84h50.641l-9.155 9.155 7.99 35.85c0 .397-.37.397-.37 0l-10.663-33.548zm12.2 6.48c2.646 16.034 15.214 28.998 31.591 32.041l-1.164-3.043c-13.68-3.069-24.74-14.129-27.781-28.23z"/></g><path d="M129.06 62.5c-16.378 2.672-29.316 15.637-31.962 31.644l3.043-1.138c3.042-13.732 14.076-24.79 27.78-27.464z"/></g></svg>