<svg xmlns="http://www.w3.org/2000/svg" viewBox="0 0 338.667 225.69" height="853" width="1280"><path style="fill:#fff;stroke-width:2.64583;stroke-linecap:round;stroke-linejoin:round;paint-order:fill markers stroke" d="M-4.536-6.596h347.738v238.881H-4.536z"/><path style="fill:#9e2b24;fill-opacity:1;stroke-width:.213115" d="M173.654 196.039c-3.26-1.15-3.16-1.09-3.007-1.857.074-.37.158-.696.186-.724.028-.028 1.729-.159 3.78-.291 3.628-.235 9.543-.953 13.213-1.604.997-.177 1.937-.322 2.09-.322.45 0-1.015 2.542-1.647 2.861-.302.153-1.075.45-1.717.66-.925.302-1.08.412-.746.53.33.117.252.17-.362.242-.432.051-.738.017-.68-.076.249-.403-2.756.15-3.516.648-.306.2-.473.24-.38.09.105-.171.041-.267-.177-.267-.838 0-4.496.476-4.791.623-.197.099-1.092-.106-2.246-.513zm16.615-3.213c.324-.775 1.129-2.012 1.31-2.012.055 0 1.502-.385 3.214-.856s3.16-.81 3.218-.751c.238.237-.543.816-2.277 1.688a240.08 240.08 0 0 0-3.508 1.806c-2.131 1.125-2.382 1.141-1.957.125zm-18.782-.451c-.676-.093-.676-.093-.829-1.726-.188-2.004.01-6.416.299-6.707.117-.116 2.018-.29 4.225-.388 4.32-.189 9.124-.747 13.692-1.59 1.573-.29 2.892-.495 2.932-.455.13.13-.37 4.469-.7 6.074-.52 2.533-.5 2.507-2.174 2.888-4.54 1.033-15.272 2.204-17.445 1.904zm-4.857-.768c-.722-.624-.793-.773-.659-1.382.1-.456.57-1.063 1.414-1.827l1.263-1.143-.64-1.553c-.353-.854-.64-1.636-.64-1.737 0-.206 1.146-.242 1.835-.057.407.11.464.327.597 2.257.08 1.174.081 3.037 0 4.138l-.147 2.003h-1.107c-.945 0-1.226-.102-1.916-.699zm25.032-2.186c0-.212.138-1.16.306-2.107.168-.946.417-2.691.553-3.877l.248-2.156 2.899-.793c2.359-.645 8.576-2.576 9.774-3.036.21-.08.286.12.286.76 0 .695.108.942.537 1.223.493.323.525.439.4 1.443-.261 2.096-.762 2.656-4.027 4.509a80.997 80.997 0 0 0-2.671 1.621c-1.617 1.025-5.437 2.405-7.399 2.674-.777.107-.906.07-.906-.26zm18.097-4.114c.3-.562 1.344-1.346 2.576-1.936l.959-.46-.98.915c-.537.503-1.386 1.142-1.885 1.42-.875.487-.899.489-.67.061zm-43.447-2.572c-.135-.252-1.141-1.12-2.236-1.929-1.096-.808-2.137-1.678-2.315-1.932-.292-.417-.285-.525.068-1.133.214-.37.553-1.176.751-1.792.336-1.04.336-1.156.009-1.655-.285-.436-.428-.496-.756-.32-.667.357-.907.278-.645-.212.29-.54.21-.567-2.158-.745-1.831-.138-1.84-.141-2.77-1.097-1.437-1.477-1.711-1.565-4.866-1.565h-2.781v-2.557h.799c.44 0 1.518.136 2.397.303 2.824.535 8.077 1.008 12.94 1.163 2.603.084 4.809.227 4.901.32.18.179.238 13.026.06 13.204-.058.057-.791.172-1.63.255-1.42.14-1.54.119-1.768-.308zm4.356-1.143c-.192-2.056-.051-11.787.175-12.013.095-.095 1.725-.24 3.623-.321 3.919-.17 9.599-.827 13.68-1.582 1.524-.283 2.986-.514 3.25-.516l.48-.002v13.365l-1.652.348c-4.119.87-9.048 1.522-13.906 1.842-1.817.12-3.798.275-4.402.345l-1.098.128-.15-1.594zm40.497.878c.342-1.13.786-1.819 1.41-2.188.364-.214 1.645-1.337 2.846-2.494 1.202-1.158 2.284-2.105 2.404-2.105.241 0 .477.495.477 1.004 0 .466-2.012 3.123-3.015 3.982-.853.73-2.86 1.873-3.773 2.15-.449.136-.485.1-.349-.349zm-18.437-8.947v-6.69l1.967-.505c3.796-.972 8.833-2.621 12.803-4.191 2.205-.872 4.141-1.585 4.303-1.585.372 0 .513 1.048.585 4.355l.055 2.543-2.835 3.297c-2.91 3.384-3.452 4.158-3.452 4.938 0 .247-.09.394-.198.327-.11-.068-.26-.024-.335.098-.306.495-2.367 1.294-6.606 2.56-2.462.736-4.883 1.384-5.381 1.44l-.906.104zm-47.844-3.267a36.902 36.902 0 0 1-2.007-.636c-.518-.185-1.86-.437-2.984-.56-1.155-.125-2.423-.404-2.918-.64-.872-.417-5.87-5.001-6.274-5.756-.206-.386-.188-.386.71-.002 2.28.977 10.202 3.349 14.698 4.4l1.652.386v1.453c0 1.09-.073 1.453-.293 1.453-.162 0-.57.045-.906.1-.337.056-1.092-.034-1.678-.199zm12.786-2.242c-3.42-.376-7.813-1.014-8.318-1.208-.15-.057-.312-.504-.362-.994-.091-.884.255-6.408.683-10.908.122-1.29.275-2.922.34-3.63.178-1.971.066-1.92 3.103-1.412 3.464.58 9.554 1.123 13.345 1.188 1.67.03 3.095.112 3.167.183.184.184.3 11.675.148 14.7l-.125 2.504-4.285-.024c-2.476-.014-5.725-.183-7.696-.4zm13.032-.696c-.175-1.46-.178-13.145-.003-14.818l.135-1.294 1.517-.112c7.421-.549 11.56-1.039 16.062-1.902l1.545-.296.197.766c.108.422.445 3.404.749 6.628.771 8.196.766 8.11.592 9.057l-.157.852-2.769.557c-4.68.941-11.287 1.667-15.26 1.676l-2.474.005-.134-1.12zm-24.646-1.12c-4.429-.899-15.984-4.547-15.984-5.046 0-.115-.336-.714-.746-1.332-.488-.735-.745-1.374-.744-1.848.003-1.477 2.132-13.25 2.526-13.974.1-.183.452-.131 1.308.191 3.715 1.398 9.145 3.116 12.68 4.012 3.136.794 4.067 1.108 4.125 1.39.06.299-.36 5.9-1.17 15.596-.07.83-.205 1.325-.36 1.312-.138-.011-.873-.147-1.635-.301zm67.137-1.49c-.005-1.055-.068-2.544-.14-3.309l-.132-1.39 2.104-1.148a124.32 124.32 0 0 0 3.134-1.761c1.014-.605 1.027-.607.881-.126-.963 3.166-2.729 6.38-4.572 8.32l-1.266 1.332-.01-1.918zm-110.276.523c-2.11-2.335-3.835-5.006-4.843-7.499-.553-1.367-1.488-4.47-1.38-4.579.044-.043 1.153 1.127 2.465 2.6 1.313 1.474 3.197 3.372 4.187 4.219 1.442 1.232 1.79 1.641 1.743 2.05-.046.41-.26.57-1.07.806-.557.162-1.013.315-1.013.342 0 .026.185.694.412 1.485.226.79.38 1.438.344 1.438-.037 0-.417-.388-.845-.862zm89.738.49c-.067-.109-.274-2.06-.46-4.335a471.83 471.83 0 0 0-.714-7.836c-.48-4.697-.457-4.863.685-5.152.485-.122 2.055-.567 3.49-.987l2.609-.765.754.575c1.223.933 1.507 1.336 1.875 2.658.315 1.133.45 1.315 1.399 1.9.578.355 1.336 1.061 1.686 1.57.567.824.804.973 2.211 1.387 2.625.772 3.547 1.249 4.044 2.091.298.505.658.804 1.062.885.542.109.612.213.612.914 0 .905.217.765-3.673 2.374-3.23 1.337-5.814 2.232-10.289 3.563-4.086 1.216-5.116 1.441-5.291 1.158zm-91.27-8.845c-4.76-4.849-5.411-5.828-5.411-8.123v-1.09l.996 1.49a51.25 51.25 0 0 0 2.102 2.874c.608.762 1.74 2.344 2.517 3.517.776 1.172 1.757 2.586 2.18 3.143.424.557.684 1.012.58 1.012-.105 0-1.438-1.27-2.963-2.823zm111.373 1.83a4.101 4.101 0 0 0-.124-.843c-.102-.38.21-.683 1.974-1.912 1.152-.804 2.691-1.967 3.42-2.586 1.66-1.407 1.979-1.438 1.979-.192 0 2.227.252 1.974-4.422 4.437-2.348 1.236-2.825 1.421-2.827 1.096zm-117.342-3.748c-.784-1.32-2.205-3.98-3.157-5.914-1.672-3.397-4.071-9.122-3.896-9.297.047-.047.406.61.797 1.462.875 1.907 2.385 4.496 4.258 7.302 1.854 2.777 1.768 2.592 2.656 5.66.423 1.459.81 2.771.86 2.918.242.702-.213.062-1.518-2.131zm31.675 1.716c-.346-.468-.581-1.217-.754-2.397l-.25-1.717.638-.735c1.355-1.56 1.85-3.86 1.36-6.333-.165-.833-.127-.942.614-1.761.622-.69.85-.823 1.081-.632.429.356.373.925-.549 5.657-.46 2.361-.958 5.262-1.106 6.446-.147 1.184-.327 2.153-.4 2.153-.071 0-.357-.306-.634-.68zm82.405-2.356a57.19 57.19 0 0 1-.963-2.123c-.271-.677-2.738-2.753-4.224-3.554-.824-.444-1.149-.793-1.611-1.729-.319-.644-.58-1.268-.582-1.385-.002-.117 1.43-.764 3.18-1.438 2.79-1.074 3.842-1.392 3.842-1.162 0 .035.527 2.735 1.172 6 .645 3.266 1.172 6.05 1.172 6.19 0 .205-.848.746-1.17.746-.047 0-.414-.695-.816-1.545zm2.756.092c-.06-.097-.352-1.512-.648-3.144-.296-1.633-.82-4.296-1.164-5.918l-.626-2.95.887-.532c.488-.292 2.278-1.319 3.978-2.28 3.488-1.976 4.051-2.33 7.405-4.671 1.32-.92 2.566-1.642 2.771-1.603.236.044.51.483.746 1.194.343 1.033.346 1.188.04 1.917-.184.436-.422 1.272-.53 1.858-.282 1.54-1.94 4.698-3.246 6.18-.62.704-1.459 1.84-1.865 2.527-.466.787-1.865 2.342-3.785 4.207-3.06 2.971-3.762 3.54-3.963 3.215zm-49.786-4.328c-3.444-.253-7.874-.767-10.07-1.168l-1.865-.34v-1.007c0-.947.386-4.11 1.513-12.422l.484-3.563.866-.124c1.093-.157 11.191.023 11.65.207.503.202.442 3.11-.078 3.684-.203.225-.37.513-.37.642 0 .31 2.331 1.757 2.83 1.757.216 0 .818.108 1.339.239l.946.238v11.823l-1.438.135c-1.671.158-2.47.144-5.807-.1zm9.136.084c-.706-.073-.784-.148-.903-.867-.072-.434-.131-2.988-.133-5.676l-.003-4.889.586.559c.365.347 1.39.814 2.707 1.235l2.12.678.384-.474c.224-.276.384-.822.384-1.312 0-1.653 1.64-2.459 3.706-1.82 1.855.573 3.77.85 6.044.872 1.201.013 2.184.07 2.184.129s.29 2.158.646 4.664c.355 2.507.61 4.594.566 4.638-.404.404-8.005 1.596-12.614 1.978-4.03.334-4.814.374-5.674.285zm50.909-.738c.257-.257.542-.393.633-.302.09.091-.02.302-.248.468-.642.47-.907.356-.385-.166zm-129.2-2.462c-1.731-2.648-4.9-8.871-5.623-11.042-.885-2.66-1.006-7.904-.276-12.046.16-.91.175-.925.44-.44.151.276.363 1.127.471 1.89.109.765.618 2.457 1.132 3.762 1.344 3.412 1.784 4.968 2.377 8.405.574 3.331 1.184 5.092 2.355 6.798.718 1.047.766 1.227.848 3.144.047 1.118.047 2.033 0 2.033-.048 0-.823-1.127-1.724-2.504zm52.425.601c-6.945-1.79-14.385-4.38-14.385-5.005 0-.144.147-.693.326-1.22.278-.815.55-1.105 1.834-1.955 1.084-.718 1.726-1.002 2.285-1.008.932-.012 2.257-.458 2.79-.94.213-.193.594-.918.847-1.611.598-1.64 1.396-2.412 3.07-2.97 2.56-.85 3.633-2.906 2.21-4.23-.258-.239-.804-.523-1.215-.63-.69-.18-.744-.254-.72-.983.013-.434.065-.83.115-.88.05-.05.67.09 1.38.31.708.221 2.67.756 4.359 1.189 1.69.432 3.207.86 3.372.95.222.12.06.322-.624.774-.85.562-1.066.608-2.645.562-2.2-.064-2.51.033-2.425.76.106.92 1.37 1.421 3.586 1.421h1.816l-.253 1.492c-.14.82-.6 4.177-1.023 7.459-.996 7.728-.858 7.141-1.68 7.13-.372-.006-1.73-.282-3.02-.615zm45.074.137c0-.034-.29-2.072-.645-4.529-.879-6.082-.89-5.464.112-5.771.469-.144 1.362-.27 1.985-.278 1.464-.022 1.825-.233 2.285-1.343.458-1.102.693-5.695.339-6.608-.27-.692-.52-.64-2.02.416-.986.695-1.092.722-2.346.587-1.174-.125-1.358-.092-1.73.32-.39.43-.425.435-.568.072-.084-.213-.16-.878-.168-1.478l-.015-1.09 1.332-.371c3.603-1.003 6.554-1.971 9.805-3.218 1.964-.753 3.658-1.37 3.763-1.37.424 0 5.22 15.59 5.483 17.817.11.94.074 1.105-.271 1.213-.22.07-1.902.742-3.74 1.495-3.895 1.596-3.453 1.662-5.958-.888-.822-.837-1.717-1.577-1.989-1.645-.275-.07-.788.028-1.16.22-.81.419-.78.493 1.157 2.892.75.928 1.267 1.745 1.151 1.817-.672.416-6.802 1.983-6.802 1.74zm51.69-4.468c-.045-.146-.134-1.033-.196-1.971-.063-.938-.178-1.92-.255-2.184-.214-.727.258-.581.516.16.36 1.033.563 4.262.268 4.262-.137 0-.287-.12-.332-.267zm-33.966-5.481c-.508-1.87-1.736-6-2.73-9.18-.993-3.177-1.774-5.87-1.737-5.984.038-.114.849-.623 1.802-1.132 1.606-.858 1.758-.9 2.082-.576.257.256.741.35 1.823.35 1.426 0 1.502-.028 2.325-.832l.851-.83-.403-.792-.404-.791.575-.54c.665-.624 3.841-2.716 4.124-2.716.256 0 3.836 7.336 5.793 11.873l1.583 3.669-.509.333c-1.013.664-1.455.731-2.01.306-.286-.22-.592-.403-.68-.406-.089-.003-.503.374-.92.836-.941 1.042-1.872 1.363-3.626 1.251-1.095-.07-1.545-.216-2.298-.747-1.355-.955-1.7-1.018-2.379-.434-.69.593-.768 1.503-.18 2.082.219.216.974.74 1.678 1.165 1.05.635 1.417.75 2.055.653.747-.115.79-.087 1.126.755.301.752.424.86.875.774.29-.055.526-.074.526-.043 0 .273-7.556 4.36-8.056 4.358-.287-.002-.554-.706-1.286-3.402zm-75.042-.55a2.63 2.63 0 0 1 .66-.539c.307-.164.36-.139.26.124-.12.313-.73.745-1.049.745-.08 0-.023-.149.129-.33zm85.143-1.018c.666-.55 1.005-1.187 1.823-3.431l.46-1.263.395.77c.217.424.593.91.835 1.079.422.295.355.368-1.543 1.682-2.234 1.546-2.937 1.962-1.97 1.163zm-88.09.037c.11-.332.587-.39.604-.074.006.117-.149.246-.344.287-.223.046-.32-.034-.26-.213zm50.515-2.453c-.681-.274-.132-.498 1.225-.498 1.462 0 1.963.25 1.013.505-.564.151-1.857.147-2.238-.007zm10.443-1.286c-.528-.198-.249-.696.702-1.253 1.11-.65 1.428-.548.821.265-.52.697-1.173 1.12-1.523.988zm51.678-.65c-.638-.654-.975-1.372-1.844-3.92-.585-1.717-1.548-4.272-2.14-5.679-.591-1.407-1.076-2.696-1.076-2.866 0-.17.67-1.377 1.488-2.683 1.729-2.76 2.553-4.354 4.18-8.085.65-1.49 1.216-2.742 1.258-2.785.042-.042.31.295.597.75.46.726.5.951.343 1.884-.098.583-.278 3.313-.4 6.068-.123 2.754-.334 5.73-.47 6.614-.223 1.444-.2 1.787.215 3.416.254.997.462 1.986.462 2.199 0 .213.155.714.344 1.114l.345.726-1.207 2.023c-.664 1.113-1.231 2.023-1.26 2.023-.03 0-.405-.36-.835-.8zm3.46-.497c-.267-.808-.251-.935.23-1.817.464-.848.546-.91.786-.582.147.202.268.693.268 1.093 0 .735-.558 2.176-.843 2.176-.085 0-.284-.392-.441-.87zm-78.372.105c-.496-.296-.902-.625-.902-.732 0-.365.784-.616 1.406-.45.47.124.636.308.689.761.106.905-.2 1.013-1.193.42zm10.127.07c-.525-.429-1.07-1.863-.707-1.863.08 0 .819-.104 1.642-.232.822-.128 1.752-.167 2.065-.087l.57.144-.791.408c-.6.31-.853.614-1.046 1.26-.301 1.005-.82 1.116-1.733.37zm-8.006-.47c.06-.76.136-.859.749-.983l.68-.138-.562.77c-.904 1.236-.939 1.25-.867.351zm15 .128c-.196-.38-.724-1.059-1.174-1.508l-.816-.816 1.183-.238c.65-.13 1.453-.238 1.783-.238.632 0 .645.026.93 1.785.13.8.117.822-.406.691-.44-.11-.595-.03-.841.44l-.301.575zm-53.59-.96c-.19-.229-.194-.349-.015-.46.348-.214.779.263.494.547-.154.155-.3.128-.479-.087zm-46.523-1.89c-1.443-4.96-2.164-13.931-1.52-18.917.237-1.843.292-1.702.791 2.025.188 1.406.78 4.14 1.315 6.074.777 2.807.953 3.752.876 4.688-.272 3.328-.622 6.792-.747 7.409-.13.636-.19.528-.715-1.28zm139.584 1.164c-.175-.202-.97-1.902-1.767-3.778-.798-1.875-2.346-5.216-3.44-7.424-1.096-2.208-1.992-4.138-1.992-4.288 0-.15.983-1.144 2.185-2.21 1.201-1.066 3-2.871 3.996-4.013 3.655-4.187 3.415-3.969 3.895-3.54.46.411 4.166 5.956 5.805 8.687 1.46 2.43 3.3 5.952 3.3 6.313 0 .346-2.127 3.073-3.86 4.949-1.084 1.173-1.182 1.23-1.745 1.013-.567-.218-.69-.142-2.455 1.527-1.022.966-2.25 2.067-2.73 2.445-.818.644-.895.664-1.192.32zm-53.447-.42c-.002-.206-.241-.791-.533-1.301-.551-.964-.744-2.858-.318-3.121.33-.204 3.624 2.248 3.624 2.697 0 .366-.037.368-.748.029-.972-.464-1.38-.161-.977.725.239.523.217.627-.2.965-.59.478-.845.48-.848.005zm68.46-.796c-.47-.535-1.237-1.702-1.702-2.594l-.846-1.621-.615 1.146c-.48.897-.74 1.161-1.19 1.213-.7.081-1.449-.288-1.449-.713 0-.172-.192-.312-.426-.312-.234 0-.426-.06-.426-.132 0-.223 3.886-4.77 4.076-4.77.227 0 .85 1.224 1.698 3.338.882 2.198 1.916 5.24 1.817 5.34-.044.043-.465-.36-.936-.895zm-77.122-.697c.2-2.663.458-3.87.896-4.19.229-.167.436-.282.462-.257.026.026.064 1.118.084 2.426.04 2.59-.24 3.46-1.111 3.46-.41 0-.432-.094-.331-1.439zm13.453.58c-.593-.607-.791-1.027-.952-2.012-.24-1.483-.641-1.968-2.572-3.118-2.468-1.47-2.24-.681-2.406-8.297-.08-3.664-.117-6.69-.083-6.725.035-.035 1.308-.166 2.828-.291a98.164 98.164 0 0 0 5.216-.592c1.348-.2 2.882-.366 3.41-.37l.959-.007 1.118 5.115c1.256 5.743 1.399 7.287.849 9.164-.473 1.614-.255 2.28.9 2.741.753.302.813.393.952 1.454.08.623.196 1.331.256 1.574.089.364-.036.484-.705.678-.447.13-1.255.3-1.795.378-1.106.158-1.128.134-1.369-1.47-.127-.847-.218-.986-.643-.986-.92 0-1.588.383-1.588.91 0 .441-.082.486-.746.409-.41-.048-.745-.023-.745.057 0 .079.253.476.562.881.31.406.525.767.48.802-.046.035-.78.155-1.63.267l-1.547.204zm9.275-3.081c.214-.258.194-.344-.11-.46-.401-.155-.983.119-1.118.526-.123.367.914.312 1.228-.066zm-36.867 1.725a250.726 250.726 0 0 1-4.406-1.21l-1.742-.506.736-1.316c.496-.886.837-1.89 1.045-3.074.17-.967.348-1.796.395-1.843.325-.326 2.006-.042 3.837.649 1.157.435 2.512.848 3.012.917l.91.124.45-1.205c.635-1.697.59-2.808-.158-3.972-.335-.521-.862-1.18-1.172-1.464-.625-.574-.733-1.184-.243-1.372.177-.068.75-.043 1.276.055.989.185 1.181.095 1.458-.68.111-.31.218-.339.566-.152.513.274.52.399.116 2.315-.172.819-.746 4.027-1.276 7.13-.53 3.102-1.022 5.795-1.095 5.984-.183.477-.663.428-3.709-.38zm7.362.525c-.162-.261.031-.357 1.056-.525l.853-.14-.504.432c-.53.455-1.2.565-1.405.233zm31.442-1.007a7.47 7.47 0 0 1-.226-1.672c.002-.8.07-.893 1.09-1.492.599-.352 1.462-.863 1.92-1.137.743-.446 1.116-.502 3.544-.534 2.873-.037 3.568-.23 4.518-1.248.894-.96.486-1.686-1.38-2.459-3.246-1.345-4.472-1.415-6.026-.344l-1.13.777-.626-.6c-.466-.447-.594-.726-.5-1.097.119-.476.074-.497-1.064-.497-1.08 0-1.217.054-1.499.586-.229.432-.339.502-.42.266-.187-.542-1.834-8.57-1.974-9.626l-.133-.996 1.571-.455c1.917-.555 5.19-1.65 7.708-2.578 1.26-.465 1.944-.62 2.088-.476.43.43 5.377 12.39 7.145 17.273l.713 1.97-1.008.51c-2.31 1.166-10.92 4.087-13.3 4.51-.765.136-.789.12-1.011-.68zm4.683-10.332c.52-.156.85-.401.927-.692.167-.622.158-2.05-.012-2.05-.212 0-1.623 1.103-2.038 1.593-.566.668-.47 1.23.234 1.374.045.01.445-.092.889-.225zm-24.093 9.573c-1.089-.723-1.614-1.273-2.451-2.567-1.341-2.073-1.621-2.167-3.49-1.17-1.405.75-1.417.752-2.444.444-.568-.17-1.284-.279-1.593-.243-.474.056-.588.207-.742.987-.173.883-.241.95-1.603 1.56-.782.351-1.59.79-1.796.976-.307.278-.373.284-.373.034 0-.92 2.406-13.733 2.59-13.799.122-.043.524-.34.894-.661s1.103-.847 1.63-1.168c.528-.322 1.344-1.016 1.813-1.543l.854-.957 3.941.285 3.942.286.144.959c.079.528.15 3.35.16 6.274l.015 5.314-.597-.573c-.879-.841-1.32-.76-1.32.242 0 .616.205 1.09.849 1.952.915 1.227 1.136 1.95 1.03 3.376l-.068.911zm34.12-7.573c-.747-1.963-2.496-6.297-3.887-9.63-1.39-3.335-2.528-6.13-2.528-6.212 0-.082.983-.702 2.184-1.378a79.819 79.819 0 0 0 4.316-2.651c3.018-2.017 3.06-2.036 3.435-1.564 1.5 1.883 7.259 10.911 9.682 15.178l1.137 2.001-.627.503c-.345.276-1.444 1.067-2.442 1.759l-1.814 1.257-.574-.458c-.316-.252-1.034-1.13-1.596-1.95-.87-1.27-1.216-1.584-2.347-2.13-1.972-.95-1.964-.93-1.129-2.655.62-1.281.685-1.56.472-2.026-.569-1.249-2.051-.199-3.267 2.316-.453.937-.824 1.913-.824 2.168 0 .794 2.614 3.41 4.08 4.082 1.057.485 1.252.656 1.156 1.014-.063.236-.117.816-.118 1.288l-.003.858-1.815.9c-.998.495-1.886.9-1.974.9-.088 0-.77-1.607-1.517-3.57zm8.622-3.556c.408-.303.408-.31-.013-.633-.386-.295-1.385-.473-1.385-.247 0 .051.093.339.208.64.234.617.585.688 1.19.24zM87.129 119.1a92.75 92.75 0 0 0-.667-2.45c-1.092-3.848-1.937-10.111-1.684-12.478.225-2.096.58-1.438.782 1.443.407 5.837.603 7.317 1.225 9.223.76 2.329.974 3.66.702 4.368l-.205.533zm149.98-1.426a129.4 129.4 0 0 1-1.624-2.892c-1.52-2.772-2.881-4.954-5.346-8.576a215.365 215.365 0 0 1-2.096-3.111c-.075-.13.44-1.17 1.144-2.315 1.448-2.35 2.487-4.372 3.83-7.452l.922-2.117 2.038 2.134c3.398 3.559 8.325 10.222 8.325 11.258 0 1.609-3.288 8.572-5.87 12.432l-.899 1.345zm16.357-1.643c0-.25.24-1.142.533-1.98.293-.84.532-1.791.532-2.116 0-.325-.24-1.042-.532-1.593-.541-1.017-.73-2.644-.306-2.644.125 0 .413.1.64.22.359.193.416.145.446-.372.074-1.282.338 2.77.364 5.604.02 2.262-.038 3.009-.239 3.029-.146.015-.53.09-.852.167-.5.12-.586.073-.586-.315zm-36.735-3.484a568.746 568.746 0 0 1-2.648-4.422c-1.29-2.169-3.64-5.9-5.222-8.291l-2.876-4.348 2.5-2.472c1.375-1.36 3.043-3.095 3.708-3.857l1.208-1.385 2.674 2.77c5.009 5.19 10.538 11.695 10.538 12.397 0 .193-.402.888-.894 1.543-1.073 1.431-8.105 8.544-8.446 8.544-.132 0-.376-.216-.542-.48zm-65.226-3.09c.75-.648.784-.728.535-1.273-.234-.514-.213-.624.179-.94.244-.198.443-.56.443-.805 0-.34.134-.446.568-.446.857 0 2.814.673 2.73.939-.04.128-.18.905-.31 1.726l-.238 1.492h-4.707l.8-.692zm4.78.417c0-.447.61-2.856.76-3.007.058-.058.31.102.562.354.432.431.44.51.157 1.37-.441 1.336-1.479 2.236-1.479 1.283zm-8.852-3.04c-.26-.423.108-1.211.804-1.722l.696-.51 1.324.43c1.3.423 1.32.44 1.06.963-.146.294-.595.645-1.005.786-.93.319-2.694.352-2.879.053zm17.673-.005c-.657-.19-.665-.21-.808-1.97-.081-1.006-.056-2.01.06-2.313.172-.454 1.34-1.24 1.84-1.24.084 0 .114.67.068 1.491-.047.82-.03 1.492.037 1.492s.447-.272.846-.605l.724-.604-.486-1.707c-.69-2.419-.628-2.37-1.994-1.588-2.248 1.286-2.714.866-2.714-2.445 0-1.768.08-2.448.332-2.807.182-.261 1.213-1.178 2.29-2.039 1.71-1.364 2.072-1.775 2.837-3.216l.876-1.651.151 4.335c.083 2.384.123 6.181.09 8.438l-.062 4.102h-.568c-.372 0-.69.185-.918.533-.247.376-.541.533-1.002.533-.426 0-.622.092-.564.266.115.35 1.105.457 1.844.2.715-.25 1.3.025 1.3.61 0 .38-.15.414-1.758.396-.967-.01-2.056-.105-2.421-.211zm5.032-.069c0-.508 1.597-1.182 2.815-1.188 1.236-.006 1.811-.533 1.958-1.794.412-3.534.642-4.729.957-4.98.67-.533 1.847-1.056 2.654-1.181.968-.15 1.419-.476 1.419-1.026 0-.549-.454-.501-2.344.246-.88.347-1.702.631-1.828.632-.421 0-1.115-.949-1.356-1.857-.436-1.643-.349-2.283.508-3.72 1.01-1.696 1.2-2.632.577-2.83-.671-.213-1.268.224-1.514 1.11-.121.439-.221.91-.222 1.047 0 .138-.33.682-.733 1.21-1.612 2.111-1.808 3.313-.763 4.694.684.904.67.993-.412 2.584-.33.485-.435.983-.436 2.057-.002 1.368-.023 1.425-.612 1.63l-.61.213-.132-1.843c-.073-1.014-.134-4.002-.135-6.639-.002-2.637-.065-5.778-.142-6.98-.115-1.822-.087-2.184.168-2.184.27 0 3.731-.416 6.298-.756l.894-.119.328 1.103c.396 1.334 4.492 17.714 4.668 18.671l.126.677-1.43.323c-1.437.324-5.664.853-8.943 1.118-1.566.127-1.758.103-1.758-.218zm7.131-5.934c-.082-.381-.19-.765-.243-.853-.166-.282-.86-.17-1.155.186-.248.298-.2.413.347.85.908.728 1.234.67 1.051-.183zm72.636 5.309c-.415-.853-.588-.988-1.794-1.395-.734-.248-1.412-.45-1.506-.45-.095 0-.172.335-.172.745 0 .878-.258.965-.605.203-.362-.794-.314-1.3.373-3.971.59-2.299 1.118-5.768 1.43-9.416l.144-1.675.73 1.142c1.04 1.628 2.676 5.082 3.47 7.324.622 1.756.686 2.182.76 5.066l.082 3.15-.795-1.536c-1.044-2.019-1.322-2.093-1.342-.358-.022 2.029-.216 2.322-.775 1.17zm-94.952-.51c-.647-.067-.799-.17-.799-.538 0-.25-.388-1.106-.861-1.904-.827-1.39-.851-1.484-.606-2.302.222-.74.207-.907-.115-1.262-.401-.444-.26-.954.419-1.518.3-.25.38-.243.542.048.174.31.3.307 1.418-.041.675-.21 1.262-.35 1.304-.31.042.04-.14.378-.406.75-.397.559-.43.71-.183.86.979.59.967.552.466 1.518l-.472.912.409 1.45c.292 1.036.353 1.601.211 1.972-.108.286-.272.504-.362.485-.091-.02-.525-.074-.965-.12zm-66.305-.54a4.087 4.087 0 0 1-.124-.903c.004-.42.008-.42.317-.012.35.462.412 1.098.124 1.276-.104.064-.246-.098-.317-.36zm94.383-.21a6847.15 6847.15 0 0 0-2.531-10.177c-1.759-7.057-2.348-9.737-2.163-9.846.139-.083 1-.395 1.915-.693 2.502-.817 3.744-.689 4.17.43.446 1.174-.59 2.011-2.488 2.011-.51 0-.927.057-.927.126 0 .07.335.518.746.997.41.48.745.983.745 1.119s.252.362.56.502c.594.27.617.163.188-.88-.133-.322-.025-.372.806-.372h.959l-.152-.693c-.083-.38-.097-.906-.03-1.167.135-.534.765-1.337 1.048-1.337.375 0 8.343 15.702 8.343 16.442 0 .547-5.12 2.55-9.2 3.597-1.999.514-1.85.518-1.99-.06zm-32.91-.658c-.754-.254-1.404-.567-1.446-.695-.093-.286 2.365-1.421 2.867-1.324.198.038.5.319.671.624.262.467.268.663.035 1.224-.321.776-.327.777-2.127.17zm92.871-3.391c-2.04-2.89-3.416-4.613-6.306-7.896-1.32-1.5-2.4-2.844-2.4-2.985 0-.142.236-1.12.526-2.173.465-1.69.76-3.582 1.34-8.621l.158-1.376 1.385 1.216c1.748 1.533 2.953 2.383 3.13 2.207.134-.135-1.224-1.52-3.598-3.67l-1.192-1.08-.138-1.904c-.129-1.79-.818-5.701-1.488-8.456-.22-.9-.233-1.225-.051-1.225.833.003 7.43 5.45 8.64 7.136.79 1.1 1.321 2.418 2.028 5.035.574 2.122 1.48 6.905 1.71 9.027l.138 1.272-1.187-1.272c-.653-.7-1.328-1.485-1.5-1.744-.171-.26-.503-.575-.738-.7-.647-.347-.558.324.126.95l.746.682c.107.099.69.928 1.297 1.844 1.308 1.976 1.429 2.72 1.044 6.386-.469 4.465-1.504 9.53-1.948 9.53-.099.001-.874-.982-1.722-2.183zm-.309-18.215c-.322-.511-.703-.579-.867-.154-.177.464.538 1.061.871.728.151-.15.15-.33-.003-.574zM88.091 101.039c-.135-.615-.3-2.006-.368-3.09-.105-1.678-.075-1.971.201-1.971.522 0 .737.447.873 1.816.146 1.47-.05 4.364-.296 4.364-.09 0-.275-.503-.41-1.119zm84.338.592c.145-.76.528-.937.442-.204-.038.325-.177.627-.308.67-.15.05-.2-.122-.134-.466zm53.624-.98c-3.513-4.323-6.54-7.733-9.938-11.193l-2.32-2.363 1.119-1.896c.616-1.043 1.657-3.033 2.313-4.423l1.194-2.527 2.444 1.746c4.596 3.282 11.814 9.46 12.164 10.411.173.469-.367 1.973-1.769 4.933-1.009 2.13-3.293 6.157-3.787 6.676-.093.097-.731-.517-1.42-1.364zm-34.445-6.644c-1.963-3.898-4.117-8.116-4.787-9.374-.916-1.72-1.157-2.348-.974-2.532.184-.184.28-.052.39.53.084.448.27.773.44.773.164 0 .369.007.457.016.088.009.306-.584.486-1.317.323-1.318.344-1.344 1.806-2.254.814-.506 1.642-.92 1.84-.92.632 0 10.51 11.912 12.874 15.524l.606.927-.521.411c-1.936 1.527-8.239 5.302-8.852 5.302-.109 0-1.803-3.19-3.765-7.086zm60.568 2.877c-.739-1.861-1.824-3.972-3.104-6.043-1.24-2.004-1.378-2.495-1.768-6.3-.123-1.192-.516-3.482-.873-5.09-.358-1.608-.61-2.966-.558-3.017.13-.13.874 1.917 1.752 4.818.411 1.36 1.118 3.287 1.57 4.283.861 1.899 1.283 3.352.905 3.118-.117-.073-.386-.612-.597-1.199-.211-.586-.473-1.066-.582-1.066-.286 0-.008 1.542.623 3.456.518 1.572.576 1.651 1.293 1.786.532.1.864.334 1.143.806.215.366.475.756.576.867.101.11.145.47.097.799-.087.588.268.85.447.33.05-.146.061-.079.024.15-.037.228.039.542.168.697.182.22.156.253-.116.148-.483-.185-.462.466.023.742.315.178.332.28.107.647-.147.239-.267.628-.267.864 0 .786-.37.443-.863-.796zM84.938 95.552a4.11 4.11 0 0 1 .167-1.066c.133-.417.17-.44.166-.106-.002.234-.077.714-.166 1.065-.146.574-.163.585-.167.107zm118.423-3.463c-2.686-3.542-6.515-8.258-9.213-11.349l-2.232-2.557 2.057-2.131c1.132-1.172 2.173-2.161 2.313-2.198.14-.037.52.347.843.852.324.506.618.96.654 1.01.035.05.183-.069.328-.264.237-.318.491-.181 2.41 1.294 5.28 4.06 12.027 9.989 12.027 10.569 0 .572-6.48 7.384-7.024 7.384-.1 0-1.074-1.175-2.163-2.61zM87.474 93.42c.01-.293.094-.773.188-1.066.156-.488.172-.47.189.213.01.41-.075.89-.189 1.066-.162.251-.203.205-.188-.213zm1.052-1.066c-.003-.41.137-1.273.313-1.918.175-.645.61-2.798.965-4.786.355-1.988.69-3.658.744-3.712.144-.144.132-.01-.322 3.596-.476 3.787-.958 6.21-1.392 7.01l-.302.556-.006-.746zm-2.983.276c-.049-1.025 2.41-9.008 2.688-8.729.165.165-.973 4.306-1.831 6.665-.465 1.277-.85 2.205-.857 2.064zm29.305-3.42c.07-.322.169-.714.218-.872.05-.157-.095-.334-.32-.393-.328-.086-.39-.243-.303-.78.06-.37-.042-1.103-.227-1.63-.184-.528-.336-1.07-.338-1.205-.003-.307.904-.647 3.05-1.142.917-.212 1.714-.431 1.77-.488.057-.057-.214-.322-.601-.59a31.06 31.06 0 0 1-.809-.57c-.142-.116.795-.836 1.735-1.335.863-.457.92-.426 1.567.845l.375.737-.721.612c-.397.337-1.153.91-1.68 1.274-1.24.855-1.272.91-1.276 2.243-.003 1.326-.54 2.511-1.502 3.321-.849.714-1.099.707-.938-.026zm117.306-.95c-2.692-2.513-6.298-5.504-9.75-8.086-2.022-1.513-3.676-2.872-3.676-3.021 0-.15.19-1.13.423-2.179.232-1.049.527-3.01.656-4.357.128-1.347.268-2.485.311-2.527.28-.281 9.212 4.705 12.462 6.958 2.298 1.592 2.771 2.126 2.769 3.122-.007 2.92-1.47 11.26-1.964 11.192-.032-.004-.586-.5-1.23-1.102zm-84.534-.877c-.714-.655-.792-.83-.744-1.655.03-.508.147-1.035.26-1.17.113-.137.149-.397.079-.58-.085-.22.072-.435.473-.645.575-.301.633-.284 1.393.402.59.533 1.069.753 1.868.86.59.078 1.072.201 1.07.274-.001.073-.367.804-.813 1.624-.809 1.49-.812 1.492-1.799 1.557-.873.057-1.082-.021-1.787-.667zm4.197-.097c.004-.084.145-.393.313-.686l.304-.533.008.563c.004.31-.136.619-.312.686-.176.068-.316.054-.312-.03zm58.763-3.11c-3.16-2.854-7.476-6.43-10.884-9.019-1.618-1.229-2.912-2.298-2.875-2.375 1.187-2.499 2.585-4.936 2.831-4.936.84 0 12.62 6.344 16.305 8.781 1.252.828 1.383.983 1.355 1.6-.061 1.379-3.563 7.947-4.236 7.947-.156 0-1.279-.9-2.496-1.998zm-100.902-.196c-.844-.61-1.54-1.258-1.546-1.44-.017-.499.43-.842 1.097-.842.329 0 .597-.085.597-.19 0-.293-2.544-2.58-2.87-2.58-.159 0-.542.301-.852.67l-.564.67-1.023-1.107-1.023-1.107.875-.704c2.633-2.119 12.17-7.8 13.094-7.8.103 0 .309.886.457 1.969a49.33 49.33 0 0 0 .776 4.062c.655 2.708.647 3.14-.079 3.798-.67.609-2.108 1.68-2.253 1.68-.054 0-.252-.384-.44-.853-.187-.468-.429-.852-.536-.852-.108 0-.261.384-.34.852-.08.47-.232.853-.339.853-.302 0-.23-.97.141-1.896.546-1.363.36-1.941-.82-2.546-1.14-.586-1.512-.485-.857.234.612.671.915 1.32.915 1.953 0 .435-.204.647-1.033 1.067-.987.5-1.045.58-1.279 1.744-.351 1.748-.32 1.974.288 2.127.293.073.533.201.533.283 0 .138-1.18 1.095-1.324 1.074-.034-.005-.752-.509-1.595-1.12zm60.043.755c.013-.228 3.111-2.375 4.253-2.948.527-.265 1.208-.544 1.513-.62.524-.13.572-.071.905 1.116.479 1.704.454 1.918-.234 2.058-2.546.519-6.459.758-6.437.394zm7.898-1.183a12.02 12.02 0 0 1-.322-1.082c-.13-.535-.1-.592.236-.447.21.092.959.305 1.662.475 1.677.404 1.89.472 1.786.576-.048.048-.785.28-1.639.517l-1.551.43zm-85.563-1.084c.183-.539.82-1.772 1.415-2.74 1.565-2.547 1.962-3.426 2.618-5.808.323-1.173.77-2.44.995-2.818.703-1.182 6.309-5.446 6.062-4.61-.645 2.177-1.27 6.108-1.366 8.587l-.11 2.864-.957 1.022c-1.155 1.235-1.555 1.213-3.099-.166-.562-.503-1.153-.865-1.312-.804-.274.105-.998 1.047-2.831 3.682-.44.633-1.014 1.29-1.275 1.46l-.474.311zm41.01-.723c.587-.746 6.098-5.384 7.831-6.591l1.13-.786 2.141 2.142 2.142 2.142-1.843.386c-1.753.368-1.899.37-3.007.02l-1.165-.367-2.605 1.312c-1.433.722-2.862 1.496-3.176 1.719a3.949 3.949 0 0 1-1.27.546l-.7.14zM89.793 80.42c.355-.703.843-1.59 1.084-1.971l.439-.693-.149.745c-.124.623-1.686 3.197-1.94 3.197-.044 0 .211-.575.566-1.278zm31.102-.572c-.247-.749-.23-.809.357-1.278.757-.606.935-.618.935-.06 0 .411-.764 2.123-.947 2.123-.047 0-.202-.354-.345-.785zm11.542.112c-.2-.57-.157-.842.279-1.794.813-1.776 2.2-3.687 3.96-5.458 1.685-1.695 2.523-2.138 3.116-1.647.32.267 1.569 2.295 1.573 2.557.002.068-.88.836-1.959 1.705a287.66 287.66 0 0 0-4.17 3.445c-1.215 1.025-2.289 1.865-2.387 1.865-.098 0-.283-.303-.412-.673zm53.833.387c-.06-.157-.026-.42.075-.584.249-.403.737.067.557.536-.157.409-.483.434-.632.048zm-37.817-1.314c-.263-.188-.48-.41-.48-.494 0-.323 1.93-2.46 6.363-7.052 4.6-4.763 7.706-7.69 8.158-7.69.16 0 .184.226.074.692a6.105 6.105 0 0 0-.133 1.39c.024.544-.162.907-.848 1.65-.483.524-1.21 1.158-1.614 1.408-.606.375-.714.547-.607.972.197.784-.607 1.813-1.284 1.643-.497-.124-.518-.086-.518.935v1.065l-1.612.922c-1.425.816-1.722 1.099-2.567 2.456-1.03 1.652-1.61 2.035-3.501 2.309-.705.102-1.076.049-1.43-.206zm3.44-1.08c.07-.184.026-.526-.099-.76-.181-.338-.288-.373-.532-.171-.318.264-.407.88-.163 1.124.252.252.662.152.794-.193zm-32.238-1.787c-.625-2.548-1.09-5.244-1.09-6.318l-.001-.875 1.961-.911c1.725-.802 7.056-2.886 8.455-3.307.569-.17.614-.286-.656 1.687-.496.77-1.223 1.537-1.872 1.974-1.177.793-1.889 1.846-1.44 2.133.146.093.768.218 1.384.278l1.118.109-.905 1.1c-2.91 3.535-5.52 6.04-6.298 6.04-.104 0-.399-.86-.656-1.91zm25.059-.228-1.924-1.923.62-.647c1.262-1.317 12.75-8.85 16.017-10.504.948-.48 1.182-.524 1.545-.298.236.147.428.362.428.477 0 .115-2.136 2.37-4.748 5.01-2.611 2.64-5.784 5.928-7.05 7.305-1.268 1.377-2.453 2.504-2.634 2.504-.182 0-1.196-.866-2.254-1.924zm-42.134-.393c0-1.86.557-5.676 1.21-8.281.207-.83.542-1.538.893-1.89 1.048-1.048 6.914-3.789 11.403-5.326a150.18 150.18 0 0 1 2.79-.94c.025 0-.129.791-.341 1.758-.213.967-.39 2.168-.392 2.67-.004.795-.08.938-.591 1.132-.642.242-1.759 1.22-1.759 1.54 0 .112.424.154.96.093l.958-.108v2.213l-2.392 1.265c-3.474 1.837-6.849 3.873-9.857 5.946-1.451 1-2.694 1.819-2.76 1.819-.067 0-.122-.85-.122-1.89zm88.141 1.178c-.712-.57-.655-.629.941-.983.645-.142 1.364-.31 1.599-.37.298-.079.14.183-.524.87-.523.54-1.05.982-1.172.982-.122 0-.502-.225-.844-.499zm-4.981-.086c-.415-.361-1.31-2.806-1.726-4.716l-.204-.933.854.827c.47.454 1.122 1.415 1.451 2.135.49 1.071.782 1.416 1.608 1.9.93.546.98.615.623.876-.562.41-2.092.358-2.606-.09zm29.144-1.579c-3.161-1.973-7.19-4.201-11.462-6.34-1.878-.94-3.465-1.793-3.527-1.894-.186-.3.593-5.372.825-5.371.513 0 6.174 1.593 9.025 2.537 4.287 1.42 8.671 3.16 9.016 3.577.765.925-.283 9.016-1.168 9.016-.146 0-1.365-.686-2.709-1.525zm18.29-.534c-2.717-1.856-6.262-3.955-9.845-5.83l-3.257-1.703-.258-2.132c-.142-1.173-.527-3.235-.856-4.581-.328-1.347-.515-2.449-.415-2.449.431 0 6.013 1.938 7.964 2.765 3.138 1.33 5.848 2.772 6.177 3.285.468.731 1.123 2.958 1.688 5.737.531 2.614.93 6.115.695 6.115-.07 0-.92-.543-1.892-1.207zm-40.126.059c-.88-.384-2.102-1.79-2.861-3.295-1.046-2.072-.341-2.08 2.531-.029 2.819 2.013 2.796 1.978 1.92 2.882-.81.836-.735.815-1.59.442zm-23.283-.71c-.19-.068-.267-.712-.267-2.214 0-2.047.018-2.125.518-2.316 1.002-.38 2.07-.353 2.33.06.244.389.041.655-.918 1.206-.254.146-.207.31.266.93.316.415.575.85.575.969 0 .464-.483.473-.968.018l-.51-.48-.224.617c-.4 1.107-.532 1.306-.802 1.21zm-28.362-1.853c-.762-1.061-.802-1.19-.368-1.19.491 0 .596-.388.242-.894-.296-.423-.294-.505.024-.856.193-.214.726-.448 1.184-.521.607-.097.885-.268 1.021-.628.104-.272.6-.702 1.103-.956.503-.255 1.524-.94 2.27-1.523 1.635-1.279 2.439-1.644 7.357-3.336l3.81-1.311.82.377c.45.207.82.426.824.487.003.06-1.361.912-3.032 1.892-2.718 1.594-9.297 5.901-12.907 8.45-.74.522-1.419.95-1.509.95-.09 0-.467-.424-.839-.941zm52.903-.728c-1.483-.96-1.746-1.249-1.916-2.097-.104-.524-.03-.7.425-.997.754-.494.693-.778-.168-.778-.882 0-1.136-.285-1.328-1.489-.098-.609-.342-1.104-.702-1.423l-.553-.49 1.095.317c.602.174 2.376.852 3.942 1.506l3.13 1.307c.38.156.186.863-.743 2.72-.81 1.619-1.273 2.24-1.67 2.24-.14 0-.82-.367-1.512-.816zm-25.818-.137c-.167-.542-.186-.92-.055-1.05.334-.334.457-.02.383.969l-.07.928zm16.301-.269c-.651-.681-.705-1.095-.328-2.504.248-.93.706-1.263.93-.678.06.156.081 1.074.047 2.04l-.062 1.755zm56.833-1.366c-.343-.366-1.487-1.383-2.542-2.26a162.665 162.665 0 0 1-2.112-1.776c-.284-.263 1.376.029 2.028.356.668.337 1.65 1.428 2.685 2.988.881 1.327.853 1.664-.059.692zm-144.467-.323c.946-2.209 1.3-3.696.88-3.696-.149 0-.396.12-.55.267-.152.146.029-.347.403-1.097.438-.876.644-1.557.577-1.906-.075-.392.097-.806.62-1.491.399-.522.725-.881.725-.8 0 .313 1.346-.653 1.903-1.366.967-1.238 1.003-1.354.38-1.235-.52.1-.499.043.416-1.088 2.047-2.53 5.378-6.117 7.317-7.881 2.773-2.523 4.99-4.288 5.513-4.389.24-.046.892-.286 1.449-.532l1.012-.448-.444.487a5.509 5.509 0 0 0-.691.967c-.136.264-.388.48-.56.48-.173 0-.312.196-.312.441 0 .309.113.419.373.365a.435.435 0 0 0 .344-.442c-.017-.2.094-.364.245-.364.15 0 .909-.575 1.684-1.278 2.74-2.483 3.67-2.83 8.543-3.19 3.572-.263 3.335-.262 3.725-.015.253.16-.086.61-1.683 2.238-1.1 1.122-1.939 2.1-1.865 2.173.195.195 1.754-.936 2.522-1.828 1.26-1.464 2.56-2.358 3.432-2.36.928-.003 4.124.655 6.806 1.4 2.083.58 5.497 1.781 5.497 1.935 0 .055-.25.43-.558.832-.641.841-.374.948.705.281.717-.443.752-.445 2.05-.082.726.204 1.895.66 2.598 1.015l1.28.644-1.063.31c-1.68.491-2.241.992-2.241 2 0 .469-.074.806-.163.75-.09-.055-1.36-.311-2.824-.569-1.463-.258-2.695-.5-2.738-.54-.042-.038.374-.642.923-1.342.862-1.097.967-1.334.762-1.717-.13-.244-.319-.444-.418-.444-.25 0-1.144 1.206-1.696 2.29-.548 1.076-.5 1.07-5.035.589-1.64-.175-4.872-.318-7.181-.32l-4.199-.002.312-.746c.38-.912.157-.952-.644-.117-.864.902-1.644 1.205-4.095 1.591a48.989 48.989 0 0 0-7.689 1.913c-.85.292-1.545.459-1.545.371 0-.139.808-1.13 3.06-3.759.336-.39.569-.835.518-.986-.115-.345-2.16 1.677-3.952 3.907-1.095 1.362-1.66 1.842-3.321 2.82-2.107 1.24-5.26 3.423-5.508 3.813-.158.25-.032.57.224.57.088 0 1.113-.681 2.279-1.513 1.165-.833 2.487-1.702 2.938-1.933l.82-.42-.782 1.347c-.9 1.55-3.163 6.193-4.082 8.376-.597 1.42-.714 1.55-2.516 2.805-1.04.724-2.427 1.786-3.083 2.36-1.695 1.483-1.813 1.53-1.397.559zm29.896-23.16c.04-.206-.067-.355-.254-.355-.396 0-.635.347-.447.65.192.312.618.133.7-.295zm2.415 21.986c.224-.962.524-1.9.665-2.082 1.454-1.875 1.786-2.166 2.814-2.466 2.913-.85 4.195-1.114 4.268-.878.04.132.18.885.308 1.673.23 1.409.222 1.453-.44 2.627-.757 1.34-1.225 1.609-2.507 1.437l-.884-.119.539-.963c.296-.53.486-1.015.422-1.078-.063-.064-.712.467-1.441 1.18-.73.713-1.536 1.403-1.792 1.533-.65.331-1.133.296-1.133-.082 0-.457-.373-.395-.526.087-.072.224-.258.514-.415.644-.216.18-.186-.19.122-1.513zm-10.902-1.422c0-1.13.05-1.267.549-1.494.465-.212.632-.185 1.094.179 1.023.804 1.99.554 3.7-.959.525-.465 1.151-.753 2.024-.932 1.857-.38 2.756-.875 2.756-1.516 0-.297.139-.553.32-.588.221-.043.32.119.324.529.003.325.068.88.145 1.235l.14.644-2.005.685c-1.102.377-3.51 1.31-5.352 2.074-1.84.763-3.426 1.388-3.521 1.388-.096 0-.174-.56-.174-1.245zm57.967.638c0-.206.708-.885.923-.885.078 0 .143.24.143.533 0 .426-.107.532-.533.532-.293 0-.533-.08-.533-.18zm1.73-1.072c-.279-.214-.47-.505-.423-.645.051-.153.334.005.708.395.685.715.514.865-.285.25zm18.303-.578c-.996-.416-2.904-1.17-4.24-1.676-1.336-.506-2.498-1.05-2.583-1.21-.085-.16-.275-.82-.422-1.464-.147-.645-.446-1.37-.665-1.61l-.399-.44 1.475.158c1.929.206 7.274 1.18 8.699 1.586l1.119.318-.005 1.113c-.005.982-.097 1.586-.534 3.51-.142.628-.305.61-2.445-.285zm19.713-.093c-3.206-1.28-7.979-2.866-11.858-3.939-1.906-.527-3.567-1.059-3.69-1.18-.377-.376-1.168-4.971-.89-5.169.692-.489 12.036.896 15.98 1.951 1.158.31 1.355.442 1.694 1.135.457.936 1.364 5.133 1.464 6.778.055.91 0 1.18-.249 1.222-.176.03-1.279-.33-2.45-.798zm-37.166-.074c-.284-.342-.08-1.04.27-.925.295.096.455 1.218.174 1.218-.11 0-.31-.132-.444-.293zm56.118-1.07c-.935-.63-1.106-.86-1.312-1.759l-.236-1.034.569.662c.59.687 2.187 2.854 2.102 2.854-.026 0-.531-.326-1.123-.724zm-96.916-.058c-.079-.078-.143-.647-.143-1.264v-1.122l1.652-.353a63.91 63.91 0 0 0 2.039-.46c.364-.1.362-.06-.036.721-.83 1.627-2.902 3.088-3.512 2.478zm-33.278-.764c.33-1.13 2.11-4.887 3.347-7.057 2.164-3.8 2.478-4.023 7.838-5.567 2.637-.76 6.752-1.526 6.979-1.3.076.077-.223.783-.665 1.57a58.415 58.415 0 0 0-1.645 3.243c-.464.997-1.056 2.244-1.318 2.771l-.474.959-3.517 1.224c-1.934.673-5.084 1.992-7 2.93-1.916.939-3.53 1.707-3.584 1.707-.055 0-.037-.216.04-.48zm14.198-2.002c.217-1.018.528-2.057.693-2.309.314-.479 1.597-.963 2.55-.963h.56l-.777 1.012c-.427.557-1.002 1.501-1.278 2.099-.538 1.167-.983 1.66-1.693 1.876l-.448.136zm12.757.772c0-.485.136-.705.548-.893.433-.197.584-.191.72.028.276.446-.005 1.1-.565 1.312-.711.27-.703.276-.703-.447zm17.203.256c-.934-1.078-.527-2.04 1.197-2.823 1.182-.537 1.677-.514 2.612.12.948.644.984.646 1.475.104.375-.415.375-.44.002-.712-.344-.252-.26-.299.763-.421a24.532 24.532 0 0 1 2.383-.14c1.167-.002 1.22.02 1.005.424-.37.69-.965.97-5.15 2.424-3.68 1.278-4 1.354-4.286 1.024zm-18.695-.464c0-.235.085-.427.189-.427.103 0 .238.192.3.427.072.277.006.426-.189.426-.165 0-.3-.192-.3-.426zm99.14-.95c-2.566-1.25-6.167-2.658-9.208-3.6l-2.453-.761-1.109-2.3c-.61-1.264-1.64-3.136-2.288-4.158-.649-1.023-1.18-1.921-1.18-1.996 0-.334 5.183.607 8.374 1.52l1.873.536 2.602 2.607c2.083 2.087 2.802 2.972 3.607 4.438 1.023 1.865 2.153 4.664 1.883 4.664-.081 0-1.027-.428-2.1-.95zm-93.599.122c0-.269.194-.439.586-.514.737-.142.754-.12.356.449-.4.572-.942.61-.942.065zm2.131-.438c0-.128.336-.393.746-.589.41-.195.746-.445.746-.554 0-.11-.287-.527-.64-.927-.35-.4-.638-.861-.638-1.023 0-.556.258-.97.608-.972.193-.001.768-.241 1.278-.533.825-.471 1.173-.53 3.144-.53 1.218 0 2.215.053 2.215.118 0 .614-.741 3.07-1.033 3.423-.266.322-1.043.607-2.707.996-3.5.818-3.719.853-3.719.591zm44.382-.583c-.574-.4-.618-.822-.107-1.021.205-.08 1.225-.201 2.267-.27 2.234-.146 2.36.083.57 1.04-1.27.678-2.019.747-2.73.251zm-51.349-.655c-.017-.44-.063-.987-.101-1.217-.05-.289.175-.578.728-.941.44-.289.8-.642.8-.785 0-.232.67-.347 4.688-.804.258-.03.309.21.264 1.242-.09 2.06.075 1.982-3.093 1.468-.74-.12-.89-.05-1.856.853-.578.54-1.13.983-1.225.983-.095 0-.188-.36-.205-.8zm65.574.148c-.996-.217-3.392-.645-5.324-.951-1.931-.306-3.551-.596-3.6-.644-.048-.048.266-.518.697-1.045l.785-.957 1.68.13 1.681.13.07-.724.069-.723 2.686-.06c1.982-.043 2.744.013 2.908.214.338.414.868 2.367 1.03 3.794.17 1.503.257 1.476-2.682.836zm-67.25-.007a.37.37 0 0 1 .06-.433c.267-.268.911-.008.911.368 0 .35-.763.4-.97.065zm103.85-.647c-.634-.327-.893-.363-1.243-.176-.244.13-.467.205-.498.166-.312-.398-1.579-3.053-1.496-3.136.06-.06.551.009 1.09.153.54.144 1.02.224 1.066.177.047-.046-.253-.49-.668-.986-.414-.495-.752-.949-.752-1.007 0-.221 2.674 2.042 3.164 2.678l.513.665h-.56c-.677 0-.684.069-.11.999.248.4.416.762.373.804-.042.041-.438-.11-.879-.337zm-83.432-.884c-.965-.186-1.119-.283-1.119-.708 0-.271.107-.727.237-1.012.326-.717 1.204-.821 4.665-.555 4.145.32 4.21.335 4.587 1.063.179.347.251.632.16.634-.09.001-1.652.193-3.468.426-3.62.463-3.466.458-5.062.152zm-3.321-.298c-.231-.23-.162-1.951.085-2.104.125-.077.568-.076.984.002.73.137.754.17.636.892-.067.413-.234.886-.371 1.052-.258.31-1.084.408-1.334.158zm-25.996-1.048c.407-1.195 2.312-4.953 3.16-6.236.974-1.47 1.196-1.525 6.22-1.522 2.438 0 5.776.145 7.417.32 1.64.174 3.004.316 3.03.317.025 0-.132.312-.35.693-.217.38-.605 1.338-.861 2.127-.783 2.408-.56 2.296-5.762 2.898l-1.598.185-.842-.717c-.926-.79-2.224-1.237-2.952-1.018-.806.243-2.558 1.387-3.58 2.337-.781.726-1.234.96-2.237 1.16a33.58 33.58 0 0 0-1.622.353c-.34.097-.342.04-.023-.897zm93.625-.871c-3.568-.73-7.745-1.3-11.506-1.573-1.815-.131-3.365-.279-3.445-.328-.26-.16-2.778-4.806-2.667-4.918.504-.504 7.951-1.19 11.958-1.102 3.158.07 3.303.093 3.853.605 1.027.958 4.672 7.516 4.318 7.772-.033.025-1.163-.18-2.511-.456zm-57.861-.62c-.235-.037-1.272-.13-2.306-.205-1.765-.13-1.859-.16-1.545-.507.493-.545.41-.715-.294-.612-.666.098-.665.066.039-.95.286-.413.589-.586 1.03-.586.726 0 .734.025.29.883-.185.357-.283.702-.218.766.064.065.562-.052 1.105-.26l.987-.376.986.985c.542.542.843.973.669.957a14.622 14.622 0 0 1-.743-.096zm-8.685-.455c-.322-.049-.586-.168-.586-.264 0-.097.312-.628.693-1.18.863-1.253 1.972-1.94 2.795-1.733.534.134.579.216.459.834-.438 2.248-1.071 2.69-3.36 2.343zm1.986-.92c.491-.263.541-.809.09-.982-.419-.16-.957.29-.957.802 0 .45.26.504.867.18zm-10.163.309c.21-.903 1.26-2.917 1.572-3.02.162-.054.321.173.4.569.12.598.205.657.956.657.613 0 1.073-.19 1.8-.745.776-.592 1.172-.746 1.917-.746.823 0 .955.065 1.072.532.191.762-.033 1.173-.64 1.173-.681 0-.9.354-.329.535.533.17.494.905-.067 1.254-.297.185-.558.132-1.215-.244-.46-.264-1.119-.48-1.464-.48-.529 0-2.647.56-3.82 1.01-.265.102-.3.01-.182-.495zm52.979-.839c-1.44-1.062-1.367-1.813.226-2.342 1.332-.443 1.485-.692.61-.997-.665-.231-.674-.25-.214-.42.733-.27 2.313-.277 2.635-.01.276.23 2.29 3.898 2.29 4.172 0 .074-1.084.134-2.41.134-2.24 0-2.46-.037-3.137-.537zm37.94-1.274c-.517-.528-.893-.96-.834-.96.058 0 .53.432 1.047.96.518.527.894.959.835.959-.059 0-.53-.432-1.048-.96zm-1.848-.608c-1.344-1.078-3.573-3.05-5.17-4.574l-1.187-1.133.913.448c.503.247.992.4 1.088.34.409-.252 4.81 3.908 5.262 4.973.17.4.283.75.252.778-.03.029-.552-.346-1.158-.832zm-86.648-.707c-.516-.14-.468-.635.076-.778.588-.153 1.528.21 1.417.549-.092.28-.869.4-1.493.23zm12.257-.183c-.268-.188-.413-.458-.344-.64.257-.669 1.599-.16 1.416.537-.134.513-.444.543-1.072.103zm-4.066-.9c.588-1.348.67-1.435 1.658-1.73.744-.223.95-.202 1.654.17.443.234.949.534 1.124.666.267.202.253.22-.086.11-.429-.14-2.471.443-2.471.705 0 .085.103.257.23.383.285.285-.819.709-1.848.709h-.702zm35.277-1.042c-.435-.66-.791-1.278-.791-1.372 0-.49.533-.363 1.267.301.454.41 1.026.853 1.271.984.593.318.573.992-.034 1.155-.817.219-.9.168-1.713-1.068zm6.434-.103c-.282-.219-.875-.459-1.319-.534-1.008-.17-1.618-.642-2.224-1.722l-.472-.842 1.263-.604 1.263-.604.808.56c1.044.725 3.593 3.297 3.429 3.46-.07.07-.6.251-1.181.405-.957.252-1.103.24-1.567-.12zm28.045-.105c-1.055-.274-3.02-.652-4.369-.84-2.887-.404-3.412-.674-4.87-2.504-.577-.726-1.253-1.502-1.5-1.726-.247-.223-.45-.473-.45-.556 0-.082.704-.27 1.563-.417 1.368-.234 1.645-.224 2.227.077.366.189 1.03.345 1.475.348.491.003 1.019.175 1.342.438l.533.433-2.238-.14c-2.605-.162-2.65.06-.152.736 1.974.535 4.504 1.763 6.919 3.36 1.62 1.071 2.014 1.397 1.598 1.319-.088-.017-1.023-.254-2.078-.528zm-32.074-.495c0-.56.285-.697.747-.358.45.329.26.771-.333.771-.267 0-.414-.146-.414-.413zm-33.312-.228-.598-.37.54-.103c.403-.077.575.002.672.308.18.567.08.593-.614.165zm39.12-1.756-2.177-2.185 1.86-.783c1.996-.84 6.014-2.094 6.708-2.094.232 0 .867.366 1.411.813 1.637 1.347 2.235 1.703 4.755 2.83 1.467.657 2.73 1.086 3.22 1.093.642.009.913.146 1.328.674l.52.664-.474.139c-.261.076-2.297.15-4.524.163-2.776.017-4.986.157-7.027.447-1.638.233-3.078.423-3.2.423-.123 0-1.203-.983-2.4-2.184zm-42.174.255c-1.648-.816-1.972-1.738-.708-2.015.725-.16 1.844.316 2.574 1.093l.503.535-.53.408c-.667.512-.764.511-1.839-.02zm67.342-1.183c-1.037-.539-2.024-1.186-2.193-1.438-.17-.252-.793-.931-1.385-1.51l-1.078-1.052 1.161.662c1.915 1.091 5.995 4.277 5.52 4.31-.077.005-.988-.432-2.025-.972zm-31.264-.824c-.066-.173-.603-.661-1.194-1.086-.733-.526-1.075-.922-1.075-1.242 0-.259-.12-.6-.266-.757-.22-.236-.19-.261.16-.14.551.193 3.26 1.74 3.914 2.236l.505.383-.743.46c-.876.54-1.138.57-1.3.146zm-39.619-.51c1.008-.862 4.166-2.587 4.738-2.587.444 0 .416.06-.3.628-.767.61-4.566 2.578-4.942 2.56-.103-.004.124-.275.504-.6zm-4.208-.797c-2.082-.767-5.42-1.69-8.416-2.33l-1.703-.364.78-.674c.957-.828 5.911-3.796 7.164-4.293 1.417-.562 2.335-.324 5.028 1.302 2.493 1.506 5.246 3.442 5.246 3.691 0 .081-.312.327-.693.547-.38.22-1.564.96-2.63 1.644-1.066.685-2.12 1.24-2.344 1.234-.224-.007-1.318-.347-2.432-.757zm44.513-1.101a148.222 148.222 0 0 0-2.77-1.617l-.718-.395.839-.727c.618-.536.775-.79.6-.965-.176-.176-.51-.04-1.269.518l-1.03.756-1.914-.618a65.593 65.593 0 0 0-3.823-1.083c-1.05-.256-3.01-.989-4.357-1.629l-2.45-1.164.948-.496c1.235-.645 1.452-.636 3.217.139 1.752.768 2.45.71 3.28-.276l.553-.657 3.556.227c3.362.215 3.95.328 6.4 1.229.176.064-.198.432-.958.943-1.18.79-1.941 1.627-1.702 1.866.06.06 1.165-.581 2.457-1.424 1.292-.842 2.451-1.469 2.576-1.392.124.077.715-.022 1.313-.22 1.356-.451 2.089-.27 4.627 1.144l1.78.992-.715.147c-.424.088-1.667-.019-3.059-.262-2.563-.447-4.903-.547-4.689-.2.073.117.398.213.723.213.409 0 .677.16.87.523.353.66 1.231.969 2.755.97.656 0 1.54.097 1.964.215.765.213 1.893 1.077 1.893 1.45 0 .108-.455.321-1.012.474-.557.152-2.395.788-4.085 1.413-1.69.624-3.225 1.133-3.41 1.131-.185-.002-1.26-.554-2.39-1.225zM123.04 40.5c0-.227 2.899-2.017 3.623-2.237.41-.125 1.561-.323 2.558-.44.996-.116 2.866-.542 4.155-.945 1.29-.403 3.016-.796 3.836-.872l1.492-.14-1.147.7c-.632.383-2.044 1.33-3.138 2.103l-1.99 1.406-4.322.124c-2.376.068-4.489.189-4.694.269-.205.08-.373.094-.373.032zm27.599-2.086a53.439 53.439 0 0 0-3.562-2.374c-1.061-.635-1.746-1.168-1.599-1.243.143-.071 1.402-.244 2.799-.383 1.396-.14 3.773-.547 5.282-.906 2.283-.543 2.8-.606 3.077-.375.66.547 3.043 4.394 2.809 4.532-.41.242-6.357 2.057-6.675 2.037-.235-.015-1.194-.594-2.131-1.288zm6.808.752c1.566-.547 2.564-.656 2.782-.304.072.117.102.213.066.213-.037 0-.881.144-1.878.32-2.475.436-2.713.38-.97-.23zm22.404.2c-.46-.162-.891-.354-.959-.427-.193-.21 1.56.147 1.782.362.352.342.035.367-.823.065zm-4.903-.055c-.065-.105.016-.243.18-.305.382-.147 1.191.062 1.191.307 0 .247-1.219.245-1.371-.002zm-13.494-.383c-.353-.135-.34-.631.02-.77.564-.216 4.313-.609 5.148-.54l.853.072-1.172.566c-.862.416-1.624.593-2.877.67-.938.057-1.825.058-1.972.003zm-2.543-3.956c-.841-1.318-1.54-2.493-1.55-2.61-.01-.117.43-.261.981-.32 1.172-.124 1.45-.537.503-.745-1.018-.224-.448-.661 1.068-.82.704-.073 1.639-.314 2.077-.535.826-.417 3.635-.993 3.84-.787.065.064-.049.117-.252.117-.514 0-2.472.864-2.472 1.092 0 .103.379.187.842.187 1.093 0 2.86.381 3.264.705.174.14.372.553.439.918.113.618.06.691-.773 1.047l-.895.382.852.125.853.126.063 1.438.063 1.439h-1.342c-.738.001-2.205.143-3.26.317-1.054.173-2.11.316-2.344.317-.311.002-.838-.643-1.957-2.393zm40.041.981c-.738-.42-1.292-.814-1.232-.875.137-.136 2.35.277 4.066.759l1.279.358-1.066.127c-.586.07-1.209.188-1.385.261-.18.076-.902-.197-1.662-.63zm-30.305-1.23a2.26 2.26 0 0 0-.139-.663c-.115-.3-.051-.336.373-.209.282.085.752.307 1.045.493l.532.34-.532.15c-.873.245-1.28.21-1.28-.11zm3.143-1.341c-.322-.05-.586-.179-.586-.288 0-.274.414-.234 1.172.113.644.294.496.338-.586.175zm-3.356-1.099c0-.712.385-1.306.847-1.306.692 0 .658.33-.11 1.073-.697.676-.737.69-.737.233z"/></svg>