<svg xmlns="http://www.w3.org/2000/svg" width="1280" height="853" viewBox="0 0 338.667 225.69"><path style="fill:#ed1d26;stroke:none;stroke-width:1;stroke-linecap:square;paint-order:stroke markers fill;fill-opacity:1" d="M-2.268-2.268h346.226v233.589H-2.268z"/><path style="fill:#000;fill-opacity:1;fill-rule:evenodd;stroke:none;stroke-width:.304636" d="M155.214 35.225c-.117 0-.17.026-.133.086.102.164-.183.304-.628.304-.446 0-1 .221-1.228.495-.355.428-.233.495.8.495.955 0 1.199.133 1.199.629 0 1.238-.966 1.634-4.084 1.675-1.585.021-2.067.172-2.742.847-.685.685-.956.765-1.666.495-1.208-.459-3.763-.267-3.56.267.087.23.522.501.952.61.429.107.932.378 1.123.608.272.328-.045.429-1.466.429-1.807 0-3.125.549-4.103 1.723-.37.444-.41.344-.238-.714.236-1.458-.204-1.65-.8-.343-.4.879-.432.886-.885.267-.258-.353-.476-.757-.476-.905 0-.147-.196-.266-.438-.266-.29 0-.399.312-.314.914.086.617-.244 1.518-1.01 2.78-1.453 2.396-1.622 3.133-1.066 4.464.488 1.168.246 1.476-1.152 1.476-.773 0-3.862-2.569-3.722-3.094.076-.283 0-.29-.257-.038-.26.255-.23.631.105 1.333.256.536.567 1.752.685 2.713l.22 1.752-1.096-.667c-.6-.366-1.506-.666-2.008-.666-.982-.002-1.236.467-.42.78.275.106.505.411.505.676 0 .415-.187.403-1.332-.047-1.69-.664-2.026-.333-.886.856 1.11 1.158 1.165 1.868.134 1.61-.413-.104-.975-.052-1.248.123-.41.264-.361.364.257.533.412.113.743.389.743.619 0 .57-.825 1.21-1.161.904-.15-.135-.167-.074-.048.134.119.207-.02.573-.305.809-.284.236-.739.849-1.009 1.37-.27.523-.639.864-.818.753-.18-.111-.28-.008-.229.219.113.51-1.337 1.302-1.952 1.066-.247-.095-.456-.65-.456-1.219 0-1.03.002-1.023-.648-.37-.803.805-.923 1.89-.571 5.311.353 3.432.073 4.124-2.161 5.388-.974.552-2.055 1.32-2.399 1.705-.344.383-.775.6-.962.485-.186-.115-.244-.065-.133.114.111.18-.17 1.057-.619 1.942-.519 1.026-.818 2.17-.818 3.16 0 1.134-.181 1.722-.667 2.162-.814.737-1.207 2.19-1.504 5.54-.252 2.85-.258 2.852-3.313 4.675-1.097.654-2.342 1.571-2.78 2.037-.437.466-.93.771-1.085.676-.154-.095-.177.077-.057.39.126.328.088.484-.095.372-.431-.267-.553.714-.514 4.283.03 2.792-.027 3.08-.771 3.78-.857.805-2.674 1.207-3.009.666-.365-.592-.828-.34-.828.457 0 .432.451 1.357 1 2.047.548.69 1 1.401 1 1.58 0 .334-.994.2-2.133-.276-.54-.225-.592-.17-.362.371.15.352.273.893.286 1.2.013.307.102.554.2.543.098-.01.649.166 1.209.4l1.009.428-.429 1.685c-.239.922-.591 1.82-.78 2.009-.562.562-1.484-.243-1.6-1.41-.142-1.429-.622-1.32-1.094.258-.368 1.228-.313 1.466.885 3.903 1.881 3.827 1.858 3.76 1.266 3.76-.286 0-.959-.474-1.494-1.047-1.137-1.217-1.406-1.102-1.114.438.25 1.324.718 2.02 1.732 2.56.412.22.752.624.752.896 0 .271.379.666.838.875.66.301.782.52.58 1.067-.437 1.192-.155 3.92.486 4.779.734.982 1.27.864 1.152-.257l-.085-.838.685.838c.582.7.664 1.113.505 2.675-.162 1.587-.08 1.995.561 2.827.651.845.666.907.095.495-.36-.26-.989-.853-1.399-1.323l-.752-.857v.828c0 1.324 1.221 3.004 2.637 3.608.996.426 1.386.837 1.704 1.8.488 1.478.822 1.572 1.133.333.2-.796.268-.84.552-.333.178.318.215.751.086.961-.138.224-.084.3.123.171.23-.142.347.272.334 1.19-.012.778.059 1.79.171 2.247.182.743.172.731-.171-.086-.576-1.37-.924-1.114-.924.695 0 1.133.213 1.881.695 2.495.379.481.56.882.41.885-.15.002.095.192.552.428.644.333.814.651.733 1.39-.133 1.204.183 2.494.609 2.494.18 0 .324-.363.324-.809 0-.446.158-.908.352-1.028.234-.144.316.271.247 1.228-.09 1.248-.206 1.462-.913 1.561-.587.083-1.039-.16-1.58-.837l-.753-.943v.847c0 .467.171 1.019.39 1.238.22.22.257.41.086.41-.513 0 2.02 1.605 3.408 2.16l1.285.505-.123 2.113c-.094 1.476.015 2.396.38 3.104.287.554.446 1.104.362 1.218-.084.115-.048.133.067.048s.522.065.904.333c.681.477 2.2.683 2.2.295 0-.107-.315-.466-.715-.79-.709-.574-.698-.579.772-.238 1.48.344 1.503.363 1.066 1.2-.482.923-.617 3.198-.2 3.455.142.088.631-.214 1.076-.675.686-.714 1.017-.804 2.237-.667.79.09 2.137.519 2.999.962 1.362.7 1.597.971 1.78 2.094.13.796.512 1.515 1 1.885 1.419 1.076 2.26 2.048 2.056 2.38-.111.18-.04.216.171.086.21-.13.65-.083.971.104.515.3.484.357-.248.4-1.139.068-1.079.066-1.894-.18-.586-.178-.716-.093-.676.437.027.362.13.635.229.61.518-.13 4.128 2.192 3.846 2.475-.078.077.298.177.847.219.66.05 1.348.457 2.009 1.209 1.136 1.295 2.52 1.85 4.731 1.894.843.017 1.45.157 1.352.314-.098.158.022.218.266.124.271-.104 1.153.748 2.257 2.2 2.281 3 3.822 4.06 5.95 4.093l1.59.028-1.029.905c-.983.868-.99.909-.266.914 1.268.009 2.93-.864 4.34-2.276.311-.31.683-.629 1.057-.933 0-.092.026-.113.086-.066.486-.389.965-.724 1.295-.895 1.071-.554 1.086-.56.6.057-.876 1.111-1.466 1.453-1.743 1.019a.671.671 0 0 0-.152-.181l-.086.066c.002.128.066.37.19.695.2.518 1.481.442 2.295-.133.183-.13.602-.335.943-.457.534-.191.602-.082.476.78-.193 1.312.459 1.317 1.39.01.648-.91.768-.956 1.437-.533 1.026.649 2.722.952 3.894.695 1.028-.226 1.31-.674.58-.924-.228-.078-.116-.097.257-.038 3.635.571 7.473.495 7.473-.152 0-.134-.712-.443-1.58-.695-1.283-.373-1.43-.496-.78-.61 1.293-.224 3.684.254 3.684.734 0 .238-.318.832-.705 1.323-.386.491-.635.974-.542 1.066.389.39 2.506-.87 3.731-2.228.727-.804 1.445-1.42 1.6-1.37.155.05.205-.047.104-.21-.246-.399.86-1.368 1.762-1.542.595-.115.692-.027.523.504-.119.375-.057.657.153.657.636 0 4.165-1.91 5.702-3.084 1.223-.934 1.622-1.07 2.228-.8.404.18.733.43.733.552 0 .343 1.96-.023 2.199-.409.115-.187-.143-.616-.581-.962l-.79-.637 1 .21c.548.11 1.15.247 1.342.304.192.056.824-.097 1.409-.343 1.288-.542 1.467-1.463.238-1.228-1.017.194-1.407-.606-.876-1.77.308-.676.596-.813 1.78-.81.78.002 2.25.235 3.256.505 1.005.27 2.5.485 3.322.485 2.121.002 6.746-1.174 8.13-2.066 1.637-1.054 3.242-4.472 2.257-4.817-.229-.08-.52.132-.638.467-.319.894-1.163 1.785-1.495 1.58-.16-.099-.15-.448.029-.78.177-.331.252-.682.152-.781-.367-.367.539-1.497 1.6-1.99.6-.279 2.208-.69 3.579-.914 2.521-.412 4.988-1.402 4.988-1.999 0-.179-.307-.324-.695-.324-1.094 0-.27-.776 1.952-1.827 2.527-1.197 3.67-2.053 4.426-3.294.43-.704.629-.834.629-.438 0 .32.15.58.323.58.468 0 1.006-2.249 1.01-4.198.002-2.048.315-3.78.685-3.78.148 0 .175.542.067 1.21-.236 1.452.286 1.312 1.133-.314.42-.81.602-2.396.752-6.693.141-4.058.309-5.65.609-5.75.229-.076.338-.263.247-.41-.09-.146.088-.474.39-.723.498-.408.537-.347.343.552a31.21 31.21 0 0 1-.418 1.685c-.134.468-.024.772.323.905.287.11.48.102.438-.029-.042-.13.44-1.25 1.076-2.475.998-1.922 1.3-2.238 2.161-2.323 1.028-.1 1.693-1.256.723-1.256-.268 0-.572-.25-.685-.543-.266-.693.3-2.78.98-3.617.53-.65.54-.65.324.009a18.044 18.044 0 0 0-.41 1.608c-.185.92-.17.94.6.514.439-.242.898-.407 1.029-.37.13.036.18-.127.104-.353-.306-.907 1.006-2.687 2.618-3.55.896-.481 1.961-1.35 2.361-1.933.4-.585.805-.995.895-.905.09.09.159-.019.162-.247.002-.229.114-.901.248-1.495.139-.62.12-1.085-.058-1.085-.174 0-.119-.76.134-1.733.247-.954.464-2.488.485-3.408.032-1.332.08-1.474.248-.695.286 1.333.82 1.269 1.17-.152.238-.962.123-1.568-.618-3.323-2.075-4.911-2.057-4.864-.98-6.854.978-1.81.913-2.268-.315-2.494-.343-.064-.847-.445-1.114-.848-.46-.695-.435-.73.429-.666.499.037.976-.114 1.057-.343.08-.228-.097-.418-.4-.418-.765 0-2.504-1.803-2.504-2.6 0-.36.238-.747.524-.856.755-.29.255-.866-.753-.866-1.11 0-3.2-1.562-2.95-2.21.101-.264.052-.41-.105-.313-.266.164-.555-.489-1.962-4.456-.291-.822-.73-1.809-.97-2.19-.24-.38-.32-.809-.181-.96.137-.152.083-.186-.124-.067-.45.256-1.222-.559-.867-.914.136-.136.074-.194-.133-.134-.63.186-2.51-1.393-2.304-1.932.103-.268.055-.403-.104-.305-.322.2-1.254-1.778-1.086-2.304.059-.182-.003-.234-.133-.104s-.554-.23-.942-.8c-.389-.57-1.307-1.342-2.038-1.723-1.207-.63-1.253-.707-.533-.81.436-.06 1.202.19 1.704.562 1.02.755 1.342.666 1.086-.314-.188-.719-1.684-1.628-2.676-1.628-.51 0-.601-.19-.476-1.047.144-.98.114-1.035-.628-.78-1.468.504-3.534.346-4.274-.324l-.695-.619.8-.866c.844-.904 1.875-2.73 1.875-3.332 0-.221-.374-.171-.98.143-1.113.575-3.53.684-3.847.171-.115-.187-.028-.307.19-.257.22.05.47-.086.553-.314.093-.254-.155-.432-.628-.448-.496-.016-.595-.092-.277-.21.75-.275 1.675-1.151 1.505-1.427-.083-.134-.54-.203-1-.152-1.206.132-1.34-.393-.162-.629 1.014-.202 1.386-.876.486-.876-.275 0-.495-.186-.495-.4 0-.213-.094-.286-.21-.17-.52.52-1.573-.673-2.732-3.104-.692-1.453-1.159-2.637-1.038-2.637.366 0 1.211 1.083 1.904 2.456.785 1.555 1.26 1.106.752-.705-.418-1.489-1.382-2.641-3.084-3.693-1.502-.928-1.577-1.127-.257-.629.541.205 1.094.268 1.218.143.389-.388-.485-1.137-2.18-1.866-.933-.401-1.726-.98-1.846-1.361-.116-.365-.959-1.291-1.866-2.056-.908-.766-1.936-1.867-2.295-2.447-.91-1.473-2.314-2.81-2.95-2.818-.296-.003-1.16-.42-1.914-.933-.897-.608-2.387-1.145-4.313-1.542-3.398-.7-5.026-1.431-6.14-2.742-1.96-2.305-4.06-2.995-6.378-2.113-.648.246-.974.145-1.685-.514-.485-.45-.876-.732-.876-.628 0 .103-.454-.05-1.019-.343-1.212-.627-1.617-.394-1.009.58.392.629.372.672-.18.438-2.882-1.215-4.103-1.403-5.541-.856-.686.26-1.143.075-2.933-1.171-2.45-1.706-4.804-2.264-8.168-1.923-1.525.154-2.454.071-3.493-.324-1.937-.736-3.749-1.263-4.256-1.266zm3.227 3.541c.057-.02.13.135.229.42.144.41.356.751.485.751.13 0 .186.615.115 1.362-.071.747.034 1.52.238 1.723.271.271.37.162.37-.39 0-1.067.6-2.038 1.248-2.038.303 0 .955.396 1.466.885 1.204 1.154 1.433.893.61-.723-.374-.73-.525-1.418-.362-1.58.441-.442 1.685 1.385 1.685 2.465 0 .524.141.952.304.952.369 0 .7-.827.714-1.78.01-.705.027-.698.505-.067.268.355.489 1.098.495 1.657.01.966.031.993.495.38.268-.354.485-1.01.485-1.446 0-.722.094-.775 1.076-.562 1.257.272 2.687 1.218 3.418 2.256.344.49.581.597.742.343.293-.462 2.407-1.07 3.009-.866.331.112.286.307-.172.818-.593.662-.578.674.467.448.95-.206 1.112-.124 1.59.8.56 1.084 1.161 1.079 1.161-.01 0-.726.354-.827.914-.267.207.207.648.27.98.143.333-.128.654-.181.714-.124.061.058.34-.266.61-.723l.485-.838-.21 1c-.115.548-.443 1.259-.732 1.58-.659.73-.368 1.06.704.79.536-.134 1.015-.657 1.38-1.485.53-1.198.626-1.265 1.733-1.085.646.105 1.15.31 1.124.447a3.587 3.587 0 0 0-.058.571c0 .178-.428.439-.97.581-.626.164-.904.404-.753.647.179.288.578.263 1.571-.076l1.323-.457-.828.638c-.456.347-1.46.81-2.237 1.028-2.282.64-1.663 1.225 1.066 1 .546-.045 1.652-.48 2.456-.952 1.417-.83 1.47-.835 1.914-.229.405.554.38.668-.286 1.038-.413.23-.681.438-.59.457.091.018 1.656.103 3.484.19 5.632.268 8.246 1.053 9.53 2.856.382.537.636 1.013.57 1.067-.065.053-.602-.032-1.19-.19-.693-.188-1.006-.451-.894-.743.139-.362-.304-.41-2.256-.276-2.694.184-3.599.506-3.599 1.294 0 .38.12.434.42.19.228-.185 1.461-.312 2.74-.285 1.959.042 2.656.232 4.409 1.18 1.145.62 2.01 1.199 1.923 1.286-.087.087.159.403.542.714.671.543.619.56-1.342.419-1.523-.11-2.243-.009-2.866.4-1.02.668-1.199 1.743-.2 1.208.851-.455 2.126-.437 3.19.048l.866.4-1.076.352c-1.443.477-1.698 1.246-.323.971.556-.111 1.398-.093 1.885.029.816.204.849.24.304.637-.64.469-.465.666.895.99 1.046.25 2.299 1.515 3.484 3.504.827 1.385.823 1.425.143 1.209-1.06-.336-.85-.026.657.97.892.591 1.286 1.066 1.161 1.39-.104.272-.059.41.096.315.154-.095.705.607 1.218 1.561 1.19 2.211 2.017 3.3 2.923 3.808 1.198.672-.12.465-1.733-.266-2.722-1.235-1.824.082.962 1.409l1.161.552-1.066.028c-.806.02-1.02.15-.876.524.113.294-.057.588-.41.723-.401.155.095.364 1.533.657 1.486.303 2.379.7 2.97 1.314l.838.866-.885-.19a13.057 13.057 0 0 1-1.409-.419c-.706-.27-.679.306.048.952.683.608 3.05 1.302 3.493 1.028.17-.104.523.118.781.486.258.367 1.508 1.313 2.79 2.104 2.435 1.502 3.298 2.525 1.028 1.218-.72-.414-1.427-.649-1.562-.514-.426.426 1.101 1.724 3.999 3.399 2.688 1.553 3.804 2.76 3.303 3.57-.123.198-.067.27.124.152.343-.212 1.471 2.077 1.885 3.836.205.875.18.895-.705.562-.505-.19-1.568-.966-2.36-1.733-1.342-1.297-1.437-1.335-1.333-.561.06.457.555 1.334 1.104 1.951.548.617.964 1.264.914 1.438-.05.173.043.236.21.133.166-.103.477.014.694.276.218.262 1.133.722 2.028 1.019 1.112.37 1.924.935 2.57 1.77 1.222 1.58 2.828 4.38 2.513 4.38-.134 0 .045.239.4.523.635.509.635.497-.019.181-.365-.176-1.304-.904-2.085-1.628-.78-.723-1.479-1.199-1.56-1.066-.34.548 2.48 3.56 4.302 4.589.554.312.58.372.114.38-1.46.027-4.264-1.856-4.264-2.865 0-.233-.963-1.378-2.142-2.551-1.18-1.174-2.232-2.53-2.352-3.009-.12-.479-.36-.866-.523-.866-.46 0-.345 1.881.19 3.16.265.634.36 1.162.219 1.162-.495 0-1.621-1.505-2.056-2.742-.517-1.466-.982-1.624-.971-.333.011 1.395 1.165 3.614 2.218 4.284.518.33 1.003.676 1.094.771.167.174.318.193 1.8.286.602.038.965.44 1.523 1.637.795 1.707 1.592 2.742 2.094 2.742.174 0 .226-.228.124-.495-.14-.364.16-.304 1.21.228 1.966.999 1.958 1.049-.182.838-2.318-.228-2.49.232-.333.895.868.267 1.38.492 1.133.505-.26.013-.377.235-.267.523.214.557-.292.68-.618.152-.115-.185-.33-.248-.486-.152-.393.243-1.555-1.311-2.009-2.684-.462-1.4-1.122-1.515-.923-.162.194 1.319-.275.967-.533-.4-.247-1.308-1.368-3.237-1.885-3.237-.221 0-.28.236-.143.58.127.32.447 1.625.714 2.904.267 1.28.77 2.874 1.114 3.542.344.667.515 1.313.39 1.437-.125.125-.078.187.105.143.867-.21 1.36.414 1.228 1.542-.109.931-.278 1.152-.876 1.152-.622 0-.752-.204-.79-1.218-.052-1.382-.45-2.066-2.59-4.475-.84-.946-1.674-2.145-1.856-2.665-.522-1.499-.865-.812-.552 1.114.925 5.695.915 5.247.2 4.864-.358-.191-.891-.926-1.19-1.637-.718-1.71-1.161-1.65-.866.114.252 1.51 1.092 2.928 2.199 3.703.375.263.579.631.457.828-.356.576-1.748.422-1.971-.218-.111-.32-.568-1.253-1.019-2.076-.765-1.398-.804-1.712-.618-4.836l.19-3.341-1.076-1.238c-.599-.682-1.363-1.39-1.685-1.561-.544-.292-.527-.193.067 1.37.625 1.645.633 2.608.086 6.198-.149.972-.24 1.049-.848.724-1.097-.588-1.03-.17.21 1.39 1.638 2.06 1.54 2.91-.143 1.228-.724-.725-1.483-1.224-1.675-1.105a.423.423 0 0 0-.124.58c.134.218.072.27-.162.125-.214-.133-.294-.402-.171-.6.122-.198.076-.283-.105-.171-.181.111-.873.043-1.542-.162-.67-.206-1.307-.293-1.41-.19-.101.101.54.891 1.42 1.751.878.86 1.41 1.466 1.19 1.352-.221-.115-.788-.101-1.267.019-.737.185-.851.348-.685 1.085.134.599.11.714-.096.371-.164-.274-.405-1.128-.533-1.904-.216-1.309-.79-2.24-.885-1.437a6.632 6.632 0 0 1-.124.685c-.046.183-.115.745-.152 1.247-.083 1.121-.227.734-.505-1.332-.22-1.634-1.496-3.57-2.351-3.57-.324 0-.218.355.362 1.209.935 1.379 1.172 3.492.314 2.78-.548-.455-.581-.343-.495 1.237.032.59-.042 1.382-.162 1.761-.175.551-.31.617-.686.305-.57-.474-.62-1.702-.085-2.237.3-.3.25-.54-.21-1.047-.35-.388-.532-.947-.428-1.343.214-.818-.042-.997-.924-.666-.511.192-.928-.035-1.808-.962-.939-.988-1.163-1.096-1.266-.618-.164.75-.48.73-1.447-.077l-.79-.656 1.827.142 1.828.134-.885-.781c-.892-.775-.9-1.17-.029-1.17.254 0 .75.671 1.114 1.494.364.822.806 1.494.98 1.494.603 0 .308-1.57-.637-3.446-.814-1.613-.858-1.858-.343-1.694.983.311 3.22-.474 4.113-1.438.837-.903 1.194-3.065.504-3.065-.183 0-.333.352-.333.78 0 .429-.261 1.001-.58 1.276-1.198 1.028-1.393.948-.582-.248.827-1.217 1.09-2.605.562-2.932-.15-.092-.454.33-.676.943-.525 1.452-.962 1.793-2.827 2.142-1.526.285-1.56.276-2.066-.79-.773-1.63-1.814-2.442-3.303-2.561-1.19-.095-1.32-.19-1.219-.905.142-1.005-.552-2.354-1.104-2.142-.268.103-.375.603-.286 1.39.111.983.07 1.105-.219.638-.508-.82-1.564-.727-1.847.162l-.238.743-.257-.714c-.422-1.142-.009-2.095.905-2.095 1.143 0 1.345-.914.523-2.342l-.704-1.228.809.162c1.109.212 1.098-.864-.019-1.913-.634-.596-.828-1.121-.828-2.2 0-.889-.205-1.614-.562-1.97-.676-.676-.973-.155-.457.81.461.861.45 1.037-.086 1.037-.243 0-.652-.412-.904-.914-.646-1.292-1.339-2.076-1.847-2.076-.31 0-.234.342.267 1.19.553.938.613 1.249.276 1.457-.307.19-.029.557.99 1.295.784.567 1.228 1.037.99 1.037-.304 0-.26.201.152.657.385.426.543.99.448 1.638-.08.546-.026.91.124.818.15-.092.276-.016.276.162 0 .179.106.587.228.905.192.5.066.55-.876.361-1.025-.205-1.076-.172-.885.59.243.971-.227 1.367-.8.677-.226-.273-.795-.486-1.275-.486h-.876l.99.847c.548.47.834.774.619.667-.788-.393-.748.411.047.933.45.295 1.164 1.13 1.58 1.856.75 1.308 1.72 1.907 3.161 1.942.866.02.963-.34.248-.933-.438-.363-.389-.514.37-1.218.48-.444.947-.73 1.048-.629.102.102.053.201-.114.22-.168.017.367.234 1.19.485l1.494.457-1.247-.096c-1.577-.114-1.698.635-.171 1.076l1.085.314-1.247.029c-1.386.033-1.739.695-.371.695.873 0 3.113 1.894 3.113 2.627 0 .64-1.6.393-2.294-.352l-.676-.714.066 1.01c.041.559.187.95.324.866.137-.085.593.077 1 .361.738.52.74.524-.267.524-.817 0-1.218-.294-2.085-1.523-.587-.833-1.518-1.693-2.066-1.923-.548-.23-.927-.491-.847-.571.08-.08-.32-.143-.895-.143-.788 0-1.078-.156-1.161-.657a8.021 8.021 0 0 0-.295-1.171c-.305-.834-.717.612-.743 2.58-.013.96-.179 1.742-.362 1.742-.182 0-.333-.283-.333-.638 0-.932-.648-1.208-.695-.295-.022.422-.014.966.02 1.209.032.243-.201.821-.505 1.285a2.628 2.628 0 0 0-.372 1.885c.098.572.104.857.01.628-.285-.688-.845-.473-.62.238.116.364.116 1.347-.008 2.18-.217 1.448-.261 1.483-.848.953-.581-.527-.61-.51-.457.238.09.434.267 1.462.381 2.284l.2 1.504-.714-.637c-.96-.852-1.308-.404-.61.78.619 1.046.757 2.173.23 1.847-.197-.121-.334.252-.334.914 0 .616-.196 1.399-.447 1.742-.44.603-.472.599-.695-.105-.31-.977-1.836-2.764-2.18-2.551-.152.094-.086.575.152 1.076.238.5.533 1.425.647 2.047l.21 1.123-.79-.838c-1.046-1.129-1.862-.73-1.047.514.308.471.498 1.11.437 1.41-.092.455-.222.422-.818-.23-.391-.427-1.025-1.433-1.419-2.217-.393-.785-1.089-1.578-1.532-1.78-.444-.203-.732-.492-.648-.629.085-.137-.22-.226-.676-.2-.455.026-.828.248-.828.476 0 1.095-2.448-.55-3.294-2.209-.796-1.56-1.566-2.36-2.227-2.36-.372 0-.314.216.238.961.411.557.632 1.205.514 1.514-.121.315-.068.46.123.342.186-.114.324.185.324.686 0 .88-.006.88-.857.324-1.155-.757-1.438-.367-.476.656.674.717.737.926.4 1.666-.214.47-.55.77-.733.657-.218-.135-.208-.442.029-.885.298-.558.17-.96-.781-2.38-1.071-1.6-3.237-3.333-3.237-2.59 0 .183.15.43.333.543.183.113.33.533.324.933-.009.66-.032.667-.343.133-.512-.88-.994-.366-.609.648.18.476.26.92.19.99-.07.07-.383-.56-.704-1.4-.356-.932-.895-1.663-1.38-1.885-.437-.199-.8-.548-.8-.78 0-.508-.9-1.466-1.38-1.466-.19 0-.258.22-.153.495.253.657-.115.617-1.066-.114l-.771-.59 1.19-.81c.657-.445 1.515-1.47 1.904-2.266l.704-1.437.819 1.038c1.19 1.52 1.588.886.467-.743-.527-.765-.987-1.5-1.01-1.637-.067-.409-1.176-1.483-1.409-1.362-.117.062-.108.61.029 1.219.355 1.574-.279 3.298-1.352 3.675-1.062.372-2.745.006-2.418-.524.135-.219.087-.282-.124-.152-.569.351-2.075-.489-2.075-1.162 0-.744-.27-.774-1.01-.104-.776.703-3.62.984-5.073.504-1.362-.45-3.227-2.38-3.227-3.35 0-.36-.141-.658-.324-.658-.183 0-.333.223-.333.495 0 .273-.301.676-.667.905-.365.228-.67.638-.685.914-.017.316-.088.356-.19.104-.09-.22.17-.844.58-1.4 1.118-1.511.557-1.566-.99-.094-.75.712-1.458 1.212-1.58 1.104-.121-.108-.124-.035 0 .18.124.217-.496 1.361-1.39 2.543-2.243 2.963-2.303 3.066-1.066 2.351.598-.346 1.548-1.18 2.104-1.866 1.288-1.588 1.909-1.643 1.57-.143-.594 2.636-3.112 4.693-5.312 4.341-.724-.116-1.586-.089-1.913.057-.763.342-3.418.394-3.418.067 0-.434-.76-.276-1.39.295-.334.303-.6.398-.6.21 0-.19.214-.527.486-.752.675-.56.295-1.085-.485-.667-.343.183-.696.333-.781.333-.401 0-.94-2.526-1.41-6.578-.282-2.442-.733-5.129-.99-5.978-.569-1.893-.38-2.06 2.276-2.066 1.843-.005 1.897-.033 1.542-.695-.203-.38-.28-.911-.18-1.171.246-.643 1.199-.597 1.199.057 0 .29.19.46.419.38.228-.078.773.139 1.209.477 1.04.806 1.931.777 2.199-.067.167-.526.374-.62.933-.428 1.247.428 2.586.165 3.427-.676l.81-.81-1.924.163c-1.883.17-4.407-.47-4.407-1.124 0-.146 1.233-.288 2.741-.314 1.508-.026 3.264-.084 3.903-.133.64-.05 1.792.007 2.58.123 1.32.197 1.42.157 1.228-.447-.163-.516-.087-.606.353-.438.442.17.529.52.4 1.666-.152 1.344.121 1.857.58 1.114.108-.175.417-.227.686-.124.31.12.485-.02.485-.38 0-.312.285-.962.628-1.448.344-.485.726-1.667.857-2.627.147-1.078.445-1.869.78-2.056.5-.28.501-.349-.028-.933-.316-.35-.51-.735-.419-.857.092-.122.077-.151-.047-.057-.125.094-.658-.222-1.171-.714a3.735 3.735 0 0 0-2.275-1.028c-.738-.07-1.942-.338-2.685-.6-1.433-.506-3.51-2.065-3.37-2.532.046-.154-.025-.26-.162-.238-.61.096-1.102-.062-.952-.305.351-.568-2.036-.375-3.294.266-.984.503-1.674.626-2.675.476-1.027-.153-1.45-.068-1.799.353-.335.403-.364.608-.086.78.263.162.129.55-.419 1.228-.785.974-.793.98-1.332.324-.3-.365-.45-.485-.334-.257.116.229.046.419-.152.419-.568 0-1.058-1.675-.819-2.799.12-.562.724-2.336 1.343-3.932 1.335-3.441 1.467-5.518.438-7.206-.542-.888-.767-1.035-1-.667-.199.315-.301-.084-.305-1.218-.003-1.219.185-1.946.676-2.57.377-.48.773-1.445.876-2.133.236-1.577 2.01-5.398 2.504-5.398.204 0 .26-.11.124-.247-.137-.137-.425-.248-.638-.248-.213 0-.381-.186-.381-.4 0-.676-.402-.816-1.609-.59-.772.145-1.118.373-1.009.657.091.238-.026.403-.267.38-1.06-.098-4.578.54-4.417.8.098.159 1.474.246 3.066.2 2.426-.07 2.916-.17 3.008-.647a.665.665 0 0 1 1.228-.238c.113.183.069.333-.086.333-.154 0-.824.957-1.494 2.123-1.071 1.862-1.37 2.138-2.456 2.342-1.34.251-3.65 2.246-3.285 2.837.118.19.394.242.61.105.215-.137.55-.254.732-.257.183-.003.334-.193.334-.429 0-.603.824-1.06 1.942-1.066h.952l-.876 1.143c-.479.627-.866 1.512-.866 1.97 0 1.062-.55 1.421-.829.543-.353-1.112-.881-.768-.657.428.53 2.822-1.085 12.115-2.17 12.48-.182.062-.235.248-.124.43.112.18-.097.148-.457-.077-.645-.403-.644-.425.114-1.542.55-.811.699-1.337.515-1.857-.294-.828-.243-3.36.095-4.57l.228-.808-.685.78c-.375.432-.693 1.174-.714 1.657-.09 2.074-.327 2.837-1.285 4.284-1.109 1.673-1.086 2.216.038 1.218l.714-.628-.42.828c-.229.457-.882 1.279-1.456 1.828-.574.55-1.675 1.737-2.446 2.646-1.039 1.226-1.494 1.572-1.771 1.295-.277-.277-.278-.566 0-1.085.374-.7-.082-1.03-.495-.362-.114.184-1.09.942-2.17 1.676-1.734 1.176-1.92 1.236-1.676.57.16-.434 1.175-1.254 2.399-1.941 2.25-1.263 3.588-3.026 2.922-3.827-.183-.22-.29-.53-.238-.686.1-.296-.145-.447-.742-.447-.194 0-.282.132-.18.295.194.316-1.39 1.17-2.847 1.533-.911.227-2.688 1.828-2.028 1.828a.79.79 0 0 0 .59-.334c.113-.182.443-.319.752-.304.46.021.484.06.076.219-.662.257-1.227.972-2.037 2.58l-.676 1.332.181-1.742c.178-1.789-.278-2.423-.657-.914-.115.457-.404.829-.638.829-.53 0-.797 1.668-.428 2.665.238.642.206.685-.229.324-.277-.23-.517-.363-.533-.295-.212.95-.121 1.53.22 1.4.76-.293.831.532.161 1.846-.367.72-.775 1.918-.895 2.666-.235 1.472-.923 1.818-1.237.618-.145-.553-.29-.652-.572-.37-.622.622.342 2.255 1.41 2.379.766.089.979-.099 1.542-1.37.358-.81.838-1.589 1.056-1.724.242-.15.178.162-.142.78-.29.56-.515 1.28-.505 1.61.015.518.094.5.543-.143l.514-.743.933 1.39c.956 1.424.996 1.923.133 1.923-.51 0-3.465 2.548-3.465 2.99 0 .14.23.347.514.456.283.11.434.069.333-.095-.318-.514 2.83-2.351 4.027-2.351 1.149 0 1.365-.272.733-.905-.61-.61-.242-5.391.457-5.902.315-.23.58-.566.58-.752 0-.186.217-.517.477-.733.26-.216.632-.864.828-1.447l.352-1.066-1.104 1.17c-.604.64-1.375 1.383-1.714 1.657-.585.473-.6.431-.4-.81.153-.95.633-1.738 1.771-2.893 1.483-1.506 2.314-1.839 1.904-.771-.223.58.019.608.923.123.602-.322.637-.287.315.315-.608 1.134-.376 1.592.361.714.384-.457.837-.784 1.01-.733.172.05.23-.057.123-.229-.207-.335 2.35-2.694 2.923-2.694.188 0-.177.456-.81 1.019-.775.689-.923.952-.475.809.491-.157.364.113-.495 1.009-1.262 1.314-2.78 2.246-3.113 1.913-.115-.114-.21.023-.21.315 0 .291.331.599.743.675.683.128.647.183-.343.6-.596.25-1.024.612-.962.8.063.188.212.303.334.257.122-.046.605-.086 1.075-.086.586 0 1.477-.587 2.828-1.875 1.084-1.035 2.057-1.808 2.151-1.714.095.095-.064.36-.342.59-.279.232-.505.607-.505.838 0 .231-.375.664-.828.962-.454.297-1.107 1.122-1.447 1.828-.553 1.143-.566 1.381-.143 2.19.432.823.434.87-.067.59-.302-.17-.742-.674-.961-1.114-.22-.441-.668-.85-1-.914-.788-.152-2.092 1.094-2.304 2.199-.198 1.037.301 2.525.752 2.246.176-.108.23-.444.115-.742-.14-.363-.089-.465.171-.305.249.154.4 0 .4-.438 0-.925 1.186-.913 1.685.02.303.566.424.615.657.247.217-.344.3-.263.304.295.002.411.16.742.343.742.183 0 .333-.37.333-.828 0-.457.11-.828.257-.828.147 0 .288-.613.305-1.361.034-1.553.54-2.316 1.142-1.714.288.288.242.589-.171 1.219-.51.777-.732 1.856-.39 1.856.082 0 .554-.371 1.047-.828.493-.457 1.095-.838 1.342-.838.723 0 .567 2.125-.21 2.827-.993.9-.811 1.12.753.924.987-.124 1.308-.065 1.076.18-.183.194-.92.4-1.638.458-.717.058-1.368.292-1.447.533-.08.24.057.415.305.38 1.21-.166 2.004.04 1.837.477-.097.252-.015.623.19.828.276.275.234.371-.17.371-.303 0-.704-.26-.896-.58-.328-.548-.368-.541-.837.066-.587.759-.634 1.318-.162 2.2.207.387.219.647.028.647-.174 0-.375-.19-.457-.42-.081-.228-.282-.297-.438-.152-.155.146-.094.569.134.933.558.895.324 1.16-1.571 1.79-1.563.52-3.002 1.635-2.609 2.028.105.105.497.026.867-.172.369-.197 1.21-.352 1.885-.352 1.051 0 1.173.067.818.495-.243.294-.966.505-1.76.505-1.398 0-4.228 1.147-4.228 1.713 0 .178-.122.235-.285.134-.164-.101-.396.048-.505.333-.11.285-.331.434-.495.333-.163-.101-.279.002-.266.228.032.601-1.515 3.904-1.828 3.904-.485 0-.278-1.379.342-2.276 1.118-1.615 1.204-1.848.629-1.628-.388.15-.306-.118.285-.99 1.22-1.796.972-2.051-.561-.58-.754.722-1.22 1.022-1.028.657.19-.366.958-1.268 1.704-1.99 1.307-1.267 1.644-1.837 1.085-1.837-.146 0-1.12.756-2.161 1.685-1.042.928-1.895 1.516-1.895 1.313 0-.203.222-.457.495-.561.274-.105.425-.31.334-.457-.092-.148.429-.734 1.161-1.314.732-.58 1.333-.972 1.333-.866 0 .105.331-.1.742-.457a57.92 57.92 0 0 1 1.419-1.18c.64-.515.627-.526-.333-.324-.549.115-1.25.23-1.562.257-.31.027-.5.118-.418.2.082.082-.307.43-.867.77-1.007.613-1.02.612-1.6-.104-.426-.527-.804-.67-1.389-.524-.434.11-.884.167-1.01.134.01.103-.035.123-.123.047-.25.167-.836.773-1.456 1.523-.748.905-1.708 1.835-2.123 2.066-.416.231-.602.429-.42.438.184.01.104.163-.17.343-.414.271-.413.387-.039.628.289.186.367.552.22 1.019-.221.694-.25.7-.686.124-.414-.546-.457-.476-.467.742-.006.742-.25 1.645-.533 2-.485.608-.5.58-.304-.439.244-1.268-.34-3.267-1.029-3.531-.353-.136-.485.069-.485.77 0 1.183-.31 2.062-.657 1.847-.143-.088-.244.08-.219.381.025.302-.457.852-1.076 1.219l-1.123.676.552-.857c.817-1.247 1.206-2.851.886-3.684-.28-.729-.288-.726-.62.104-.443 1.114-1.636 2.153-3.027 2.618-1.062.356-1.006.25.952-1.523 2.43-2.199 3.322-3.884 3.332-6.311.008-1.996-.644-2.81-.695-.867-.028 1.075-.06 1.144-.257.438-.297-1.07-.812-.96-1.056.229-.272 1.319-.956 2.473-1.324 2.246-.171-.106-.226.028-.123.295.152.398-.022.443-.971.229-.982-.221-1.147-.18-1.057.285.058.303-.11.849-.38 1.21-.456.607-.486.55-.306-.629.25-1.628.788-2.622 1.257-2.332.208.128.283.073.162-.124-.118-.19.194-.607.695-.933 1.181-.769 1.599-1.368 2.056-2.894.283-.944.7-1.401 1.685-1.904.717-.365 1.668-.666 2.133-.666.924 0 1.133-.487.342-.79-.274-.106-.495-.574-.495-1.048 0-.489-.144-.773-.333-.656-.183.112-.333.054-.333-.124 0-.179.137-.377.286-.438.148-.061.164-.476.047-.933-.198-.778-.258-.728-1.066.847-.475.926-1.495 2.244-2.256 2.932-1.49 1.346-2.26 1.399-1.01.067.572-.608.795-1.34.924-2.951l.18-2.133 1.6-.942c1.387-.81 2.206-1.679 1.885-2-.052-.051-.79.245-1.647.658-.856.412-1.53.588-1.494.39.035-.198.212-.463.39-.59.177-.127.213-.34.086-.467-.128-.127-.47-.035-.752.2-.283.235-.59.344-.686.248-.255-.256 2.74-1.649 3.665-1.704.433-.026.704-.184.6-.353-.104-.168.058-.212.362-.095.315.121.552.054.552-.162 0-.207.082-.298.18-.2.1.1-.051 1.289-.332 2.637-.606 2.904-.582 2.618-.19 2.618.342 0 1.665-3.991 1.665-5.017 0-.677 1.853-2.196 2.456-2.018.207.061.271.014.143-.114-.128-.128.436-.926 1.247-1.761 1.336-1.374 2.805-4.164 2.409-4.56-.088-.088-.8.804-1.59 1.97-1.324 1.953-3.332 3.694-3.332 2.894 0-.186.47-.867 1.038-1.513.65-.74.855-1.18.561-1.18-.256 0-.655.19-.885.418-.336.333-.377.305-.2-.162.122-.32.37-.59.552-.59.183 0 .63-.379.99-.838.361-.458.784-.758.933-.666.15.092.356-.064.467-.352.3-.785.251-.893-.314-.676-.284.109-.444.081-.353-.067.092-.148 1.222-.693 2.514-1.2 2.365-.927 3.008-1.532 3.008-2.865 0-.663-.109-.609-1.352.514-.747.675-1.455 1.135-1.561 1.028-.275-.274 1.289-1.875 1.628-1.666.154.096.203-.038.104-.295-.098-.256-.803-.738-1.57-1.085-1.083-.49-1.432-.843-1.514-1.552-.058-.502-.239-.914-.41-.914-.527 0-.34-.626.286-.961.494-.265.608-.168.667.542.072.878.632 1.786 1.018 1.657.12-.04.21.038.21.171 0 .676 1.775 1.39 3.436 1.39 1.73 0 1.76.025 1.086.571-.383.31-.705.645-.705.752 0 .413.95.179 1.733-.437.85-.669 3.12-4.6 2.827-4.894-.092-.092-.81.29-1.58.848-.771.558-1.545.916-1.733.8-.188-.117-.247-.061-.133.123.266.43-1.194 1.104-2.399 1.104-.513 0-1.214-.302-1.552-.676-.336-.372-.797-.596-1.037-.504-.78.299-.457-.847.495-1.761.508-.489 1.618-1.286 2.475-1.78 1.406-.813 4.56-4.48 4.56-5.294 0-.56-.582-.282-1.105.514-.287.44-1.016 1.115-1.618 1.514-.73.485-.87.532-.419.124 1.672-1.512 2.392-3.732 1.4-4.303-.229-.132-.31-.115-.181.028.256.285-.845 2.653-1.39 2.99-.2.123-.343-.197-.343-.78 0-.545-.062-1.195-.152-1.438-.175-.471 3.35-2.59 4.303-2.59.424 0 .488-.28.352-1.418-.093-.777-.06-1.249.076-1.047.406.597 1.758 1.194 2.266 1 .26-.1.466-.438.466-.743 0-.306.257-.73.562-.952.51-.373.488-.498-.238-1.533-.435-.62-.572-.962-.305-.762 1.139.853 1.634.767 3.018-.523.908-.847 1.312-1.468 1.18-1.81-.15-.392.014-.524.696-.532.497-.006 1.261-.306 1.694-.667.647-.538.71-.744.371-1.152-.226-.273-.862-.495-1.418-.495-1.283 0-1.086-.177.514-.466 1.149-.208 1.277-.154 1.6.695.426 1.121.852 1.412 2.046 1.418.593.004.914-.162.914-.485 0-.31-.311-.505-.828-.505-.457 0-.828-.14-.828-.323 0-.547 2.4-.384 3.056.21.517.467.6.48.6.056 0-.274-.304-.786-.686-1.133-.383-.346-.858-.927-1.047-1.294-.285-.553-.182-.522.609.18.526.468 1.54 1.27 2.237 1.78.698.511 1.178 1.012 1.076 1.115-.102.102-.499-.086-.866-.42-1.081-.977-1.155-.288-.086.781l.97.971-1.541.21c-1.948.258-2.213.516-1.257 1.237.417.315.644.68.514.81s-.453.062-.723-.162c-.612-.508-1.305-.144-1.038.552.113.295-.114.858-.533 1.304-.623.663-.648.78-.172.78.539 0 2.05-.98 5.789-3.731 2.92-2.15 6.816-3.572 9.795-3.58 1.462-.003 1.58-.068 1.58-.837 0-1.026.218-1.037 1.02-.076.612.734.617.732.628.057.013-.856-1.668-4.223-2.19-4.38-.265-.079-.345.347-.247 1.39.154 1.65-.202 1.92-1.38 1.029-.873-.66-1.273-.628-.99.076.128.32.315.761.409.99.093.228.019.419-.162.419s-.402-.292-.495-.648c-.093-.355-.854-1.127-1.685-1.713-.832-.586-1.678-1.472-1.885-1.97-.91-2.195-3.338-2.915-5.331-1.572-.843.568-1.194 1.093-1.343 2.01-.204 1.254.206 1.72.581.656.417-1.182 1.542-2.084 2.58-2.066l1.018.02-.752.513c-.925.646-.953 1.114-.076 1.114.366 0 .657.115.657.267 0 .15-.441.223-.99.142-2.171-.318-3.588 1.953-1.904 3.056 1.274.835 2.497.184 2.275-1.218a.219.219 0 0 1 .22-.257c.332 0 2.732 1.64 2.732 1.866 0 .095-.309-.053-.695-.324-.703-.492-1.638-.408-1.638.152 0 .163.27.31.59.324.423.019.462.085.124.219-.35.139-.268.328.333.79l.781.61-1.038.009c-.571.004-1.22-.211-1.447-.486-.555-.669-1.12-.63-.856.058.116.302-.444-.039-1.238-.753s-1.376-1.48-1.304-1.694c.172-.517-.516-1.761-.971-1.761-.198 0-.277.3-.181.666.096.366.042.579-.124.476-.166-.102-.314-.71-.314-1.352 0-.64-.144-1.444-.324-1.78-.272-.51-.22-.587.314-.447.903.236 2.355-1.268 2.114-2.19-.147-.563-.039-.695.571-.695.418 0 1.037.25 1.37.552.572.517.61.498.61-.19 0-.508-.335-.874-1.085-1.2-.764-.331-.88-.465-.41-.466 1.045-.002 1.95.65 3.96 2.846 1.028 1.122 2.352 2.215 2.942 2.437a28.2 28.2 0 0 1 1.828.772c.572.271.852.248 1.162-.086.324-.35.32-.395-.01-.21-.228.13-.409.079-.409-.114 0-.192-.612-.802-1.37-1.352-.76-.55-1.302-.99-1.2-.99.42 0 2.894 1.474 2.894 1.723 0 .15.15.267.333.267.642 0 .335-1.23-.514-2.028-.472-.443-.883-.748-.914-.676-.182.426-1.561-.43-1.561-.97 0-.354-.15-.648-.333-.648-.183 0-.333.23-.333.504 0 .275-.15.496-.334.496-.182 0-.337.26-.342.58-.007.365-.302.096-.8-.714-.644-1.048-.713-1.431-.428-2.056l.342-.771 1.295.666c.713.364 1.47 1.026 1.675 1.476.445.975.809 1.043 1.076.2.242-.763-.06-1.662-.857-2.552-.59-.658-.59-.683.067-.733.396-.03 1.207.5 1.952 1.267.699.72 1.363 1.304 1.475 1.304.342 0 .227-.776-.247-1.685-.426-.816-.402-.884.561-1.247.787-.297 1.077-.29 1.276.028.463.741 1.42-.215 1.609-1.609.086-.633.146-.945.219-.97zm-43.915 70.904c.052-.034.095-.054.114-.047h.01a.515.515 0 0 0-.02-.115c-.15-.514 2.37-2.495 3.018-2.37.926.178.55.75-.561.857-1.285.124-1.413.628-.238.923.878.22 2.817-.393 2.817-.895 0-.16.19-.295.429-.295.24 0 1.292-.516 2.332-1.142 1.935-1.165 2.315-1.197 1.352-.133-.504.556-.506.611.01.809.323.124.828-.028 1.208-.372.43-.39.647-.455.647-.18 0 .229-.438.836-.98 1.342-1.117 1.044-1.012 1.44.247.961 1.204-.457 1.711-1.262 1.724-2.722.011-1.414-.836-3.345-1.333-3.037a.368.368 0 0 0-.134.504c.106.17.045.315-.142.315-.398 0-1.216-1.363-1.086-1.81.05-.167-.145-.11-.428.125-.282.234-.442.54-.352.685.09.145-.43.193-1.162.095-1.38-.185-1.89.344-.695.724.35.11.823.441 1.057.723.375.452.279.479-.8.276-1.365-.256-2.894.015-2.894.514 0 .18.562.337 1.248.343 1.13.01 1.186.05.637.467-.44.334-.877.373-1.647.152-1.756-.504-2.44-.349-3.893.866-.766.64-1.72 1.147-2.114 1.133-.618-.023-.59-.073.2-.362.897-.327 1.236-.898.581-.98-1.3-.163-1.77-.581-1.304-1.143.298-.359.177-.627-.543-1.247-.73-.628-.914-1.053-.876-2.066.027-.7.213-1.421.4-1.608.436-.436.434-.876 0-.876-.185 0-.637.491-1 1.085-.362.594-.656.885-.656.657 0-.229-.145-.41-.324-.41-.53 0-.759 1.537-.343 2.314.27.503.278 1.005.048 1.666-.433 1.24-.066 1.56.685.6.506-.647.492-.521-.095.837-.381.882-.599 1.834-.495 2.104.106.277.042.4-.143.286-.18-.112-.333-.573-.333-1.019 0-1.047-.527-1.046-.79 0-.243.97.274 2.513.847 2.513.226 0-.251.697-1.066 1.543-1.48 1.536-1.482 1.528-.486 1.294.549-.128 1.5-.609 2.114-1.075 1.024-.78 1.09-.794.742-.143-.646 1.208.16.81 2.228-1.104 1.081-1.001 2.076-1.713 2.209-1.58.009.008.02.011.028.018zm24.97-65.068c.131-.008.388.103.8.324.36.192.574.492.467.666-.312.506-.778.374-1.161-.343-.201-.375-.259-.58-.153-.628.013-.006.03-.018.048-.02zm-2.474 1.447c.153-.02.257.242.257.638 0 .443.316 1.184.695 1.666.379.482.64 1.108.58 1.39-.08.379-.351.25-1.028-.524-.917-1.05-1.23-2.74-.58-3.141a.22.22 0 0 1 .076-.029zM136.755 49c.095-.005.262.586.381 1.38.127.848.148 1.623.057 1.714-.091.091-.263-.533-.39-1.38-.127-.848-.158-1.613-.067-1.704a.031.031 0 0 1 .02-.01zm22.334.686c-.122-.008-.21.096-.22.276-.01.239-.142 1.15-.285 2.018-.142.867-.176 1.641-.085 1.732.09.092.364.004.609-.2.521-.432.603-3.47.105-3.779a.266.266 0 0 0-.124-.047zm-12.11.238c.153-.065.571.45.705.961.096.368.115.676.048.676-.154 0-.82-1.212-.82-1.495 0-.084.032-.128.068-.142zm-2.589 1.37c.023-.008.049-.008.076.02.11.11.115.407.02.647-.107.265-.185.178-.2-.21-.011-.262.036-.432.104-.457zm5.36.01c.101-.002.297.228.476.562.204.381.236.695.067.695-.342 0-.814-1.015-.581-1.247.01-.01.023-.01.038-.01zm35.166 2.285c-.8.01-1.56.17-1.951.485-.604.488-.571.514.752.333 1.073-.146 1.418-.082 1.418.267 0 .264.666.644 1.561.895.859.24 1.39.489 1.171.562-.218.072-.409.337-.409.58 0 .352.206.363.99.067.541-.204 1.026-.302 1.085-.219.06.083.713.899 1.438 1.809.725.91 1.274 1.772 1.228 1.913-.046.141.03.217.171.172.233-.076 1.83 1.589 3.075 3.208.467.607.427.629-.761.438-1.312-.211-1.64.151-.657.723.32.187.45.356.295.362-.155.006.52.675 1.495 1.485 1.783 1.48 2.573 1.759 1.447.514-1.286-1.42.425-1.056 2.141.457.88.775.688.288-.523-1.352-.567-.767-.67-1.126-.38-1.304.252-.156-.025-.403-.753-.666-.63-.228-.962-.424-.733-.438.754-.046.436-.603-.59-1.028-.556-.23-1.16-.698-1.343-1.038-.274-.512-.214-.61.362-.61.463 0 .616.134.457.41-.131.229-.12.307.029.171.15-.135.488-.08.733.124.678.563.527-.185-.162-.809-.329-.298-1.262-.773-2.066-1.057-1.976-.697-2.746-1.451-2.504-2.418.13-.516.036-.821-.304-.952-.279-.107-.514-.403-.514-.647 0-.679-.52-.846-1.466-.486-.526.2-.857.201-.857.01 0-.588 1.292-.99 3.122-.99 2.446 0 2.676-.567.353-.857-1.326-.166-2.215-.096-3.113.257-1.058.416-1.387.438-2.057.067-.547-.303-1.38-.45-2.18-.438zM135.07 64.394c-1.676.09-5.836 1.202-5.36 1.523.235.158.941.202 1.58.095.64-.107 2.025-.282 3.076-.39 1.936-.199 2.606-.842 1.237-1.2a1.19 1.19 0 0 0-.238-.028 3.111 3.111 0 0 0-.295 0zm-.162 1.456c-.728.006-1.902.267-3.008.705-1.226.486-2.229.646-3.322.542-1.591-.15-1.829.21-.486.753 1.414.57 5.036.134 6.017-.724.479-.42.913-.326.676.143-.116.228.026.126.314-.229.287-.354.514-.766.514-.914 0-.186-.267-.279-.705-.276zm-4.921 4.322c-.212 0-.666.642-1.02 1.419-.612 1.35-.803 1.397-.685.19.03-.303-.084-.64-.266-.752-.367-.226-1.025 1.819-1.028 3.19-.001.483-.437 1.686-.962 2.684-.525.998-1.206 2.577-1.513 3.503-.424 1.275-.918 1.944-2.028 2.78-.807.608-1.48 1.224-1.485 1.361-.015.363.239.316 1.428-.285 1.389-.702 2.51-1.735 3.094-2.856.292-.562.643-.838.942-.724.622.239-.018 1.373-.942 1.666-.499.159-.536.251-.172.476.37.229.342.382-.19.771-.363.266-.777.409-.914.324-.137-.084-.17.074-.067.343.58 1.51 5.147-2.487 4.646-4.065-.117-.37.158-1.126.695-1.914 1.235-1.814 1.77-3.232 1.77-4.626 0-1.654-.521-1.188-1.227 1.094l-.6 1.904-.086-1.57c-.093-1.441.14-2.835.752-4.332.146-.355.092-.58-.143-.58zm66.048 3.99c-.217 0-.164.237.134.58.278.32.608.981.723 1.466.115.485.92 1.528 1.8 2.323 1.811 1.638 2.374 2.38 1.58 2.075-1.01-.387-.476.215 1.637 1.876 1.179.926 2.233 1.995 2.352 2.37.265.836.784.39.875-.743.084-1.033-.773-2.34-2.284-3.493-.648-.494-1.471-1.595-1.838-2.437-.77-1.771-1.543-2.743-1.96-2.485-.161.099-.077.491.2.885.925 1.322.514 1.373-.467.057-.533-.714-.908-1.39-.838-1.504.14-.227-1.325-.97-1.914-.97zm-81.537 3.474c.022.003.05.031.076.095.092.229.092.61 0 .838-.092.228-.162.038-.162-.419 0-.286.022-.465.067-.504.007-.006.011-.01.019-.01zm79.7 1.847c-.14 0-.257.732-.257 1.628.001.895.129 1.552.286 1.456.156-.096.194.122.076.495-.119.373-.06.776.133.895.193.12.27.368.162.543-.108.174-.084.277.067.228.15-.049.623.158 1.047.457.525.37.63.587.333.686-.35.116-.354.315-.029 1.028.223.488.636.885.914.885.613 0 .653-.385.095-.942-.328-.329-.328-.474.029-.695.62-.383.189-3.009-.495-3.009-.272 0-.854-.81-1.304-1.827-.445-1.006-.916-1.828-1.057-1.828zm13.832 4.522c-.43.068-.069.743.734 1.2.616.35.916.726.77.96-.134.22-.1.306.086.191.298-.184 1.805 2.02 1.666 2.437-.031.096.353.698.857 1.333.733.925.975 1.058 1.219.676.249-.39.4-.404.818-.057.281.233.603.714.714 1.066.112.352.334.557.495.457.533-.329-.153-1.438-2.256-3.646-1.14-1.198-2.075-2.362-2.075-2.59 0-.38-2.089-1.887-2.799-2.018a.665.665 0 0 0-.228-.009zm-35.737 1.58c-.542-.029-.598.258-.038.847.342.36.128.391-1.21.2-1.447-.207-1.593-.173-1.399.333.19.492.074.535-.866.324-2.997-.673-2.822-.67-2.151.086.814.918.179 1.114-1.752.542-1.158-.343-1.543-.353-1.742-.038-.15.237-.013.594.323.857.508.396.437.427-.59.295-.64-.082-1.462-.268-1.828-.419-.639-.262-.645-.248-.085.39.32.366.58.754.58.858 0 .303-2.292-.309-2.827-.753-.362-.3-.495-.305-.495-.019 0 .602 2.79 3.426 4.293 4.351.899.553 1.356 1.063 1.362 1.542.005.396.411 1.043.914 1.438.502.394.683.608.409.476-.274-.132-.135.106.295.523.624.606.834.665 1.057.305.182-.295.949-.451 2.208-.457 1.656-.008 1.913-.097 1.828-.6-.124-.74.897-1.168 1.295-.542.162.255.23.646.152.856-.28.769 2.468 1.034 4.027.39.515-.212 1.053-.362 1.19-.332.137.029.208-.054.162-.19-.046-.138.065-.288.248-.334.182-.046.342.105.342.333.001.246.347.38.838.324.806-.092 2.415.339 5.14 1.38 1.695.647 2.535.658 3.342.048.608-.46.572-.485-.523-.505-1.306-.023-2.391-.696-2.247-1.38.06-.281-.138-.41-.524-.343-.915.157-2.513-.597-2.323-1.095.116-.301-.268-.434-1.285-.457-.787-.017-2.764-.483-4.398-1.037-1.802-.612-3.695-1.022-4.817-1.038-1.017-.014-1.666-.098-1.437-.19.228-.093.418-.496.418-.895 0-.915 2.696-2.052 6.284-2.656l2.446-.42-.857-.551c-.472-.31-1.729-.968-2.789-1.447-1.4-.634-2.429-.971-2.97-1zm36.375.552c-.185.026-.233.427.048.952.203.38.672 1.681 1.047 2.894.375 1.213 1.041 2.565 1.476 2.999.434.434 1.172.79 1.637.79.836 0 .822-.02-.41-1.256-1.142-1.149-2.634-4.3-2.522-5.313.025-.226-.078-.33-.228-.238-.151.094-.42-.087-.6-.409-.173-.31-.336-.434-.448-.419zm14.09.143a.145.145 0 0 0-.086.019c-.132.082.045.711.38 1.4.886 1.813 1.006 3.016.448 4.35-.394.943-.405 1.223-.066 1.438 1.992 1.264 4.273-2.228 2.76-4.227-.481-.637-.492-.628-.523.028-.027.57-.08.541-.362-.171-.37-.934-2.062-2.783-2.551-2.837zm-99.721.838c.067-.007.067.036-.029.152-.256.309-.923.79-1.485 1.076-1.266.643-1.076.414.629-.743.45-.306.773-.474.885-.485zm56.853 1.57c-.114.002-.257.143-.324.343-.076.229.098.42.38.42.284 0 .669.293.858.647.189.353.673.735 1.085.866.696.221.711.26.124.466-.53.187-.384.363.914 1.124.85.498 1.542 1.06 1.542 1.247 0 .186.127.25.285.152.159-.098.559.134.886.495.34.375.428.647.21.647-.541 0-.473.518.142 1.133.65.65 1.929.69 2.447.067.313-.377.155-.65-.79-1.37-.648-.494-1.08-1.057-.962-1.248.118-.19.057-.25-.133-.133-.19.117-.527-.014-.752-.286-.353-.424-.216-.485.942-.485.743 0 1.43-.15 1.542-.334.113-.182-.091-.333-.457-.333-.365 0-.753-.15-.866-.333-.113-.183-.673-.347-1.257-.362-.583-.014-.877-.088-.647-.18.692-.28.107-.781-.914-.781-1.364 0-2.665-.56-2.665-1.152 0-.285-.293-.514-.667-.514-.365 0-.763-.04-.885-.086-.015-.006-.022-.009-.038-.009zm-36.985 2.457c1.12-.014 2.848.246 3.846.638l.99.39-.828.343c-.457.184-1.58.538-2.494.79-.914.252-2.578.453-3.704.457-1.883.003-2.025-.045-1.865-.657.095-.366.44-.667.77-.667.332 0 .834-.223 1.114-.504.281-.28.548-.494.6-.476.053.018.383-.073.714-.2.188-.072.484-.11.857-.114zm-31.73 2.96c-.387 0-.484.267-.39 1.076.076.655-.11 1.471-.476 2.075-.333.549-.61 1.491-.61 2.085-.001 1.5.476 1.35.972-.304.281-.94.502-1.248.685-.952.406.656 1.333.133 1.333-.752 0-.428-.217-1.064-.486-1.419-.268-.355-.489-.908-.495-1.228-.006-.32-.248-.58-.533-.58zm63.517.99c.252.01.466.125.466.315 0 .171-.275.283-.628.257-.353-.027-.565-.16-.476-.305.114-.184.386-.278.638-.267zm-27.94.334c.273 0 .494.15.494.333 0 .183-.22.333-.495.333-.274 0-.505-.15-.505-.333 0-.183.23-.333.505-.333zm23.408 3.455c-.136.001-.237.019-.266.048-.09.09.133.384.485.657.54.417.537.456.048.285-.655-.228-.808.396-.162.657 1.305.527 5.062-.128 4.38-.761-.32-.297-3.53-.895-4.485-.886zm6.855.867c-.65 0-1.19.15-1.19.333 0 .183.452.333.99.333.537 0 1.058-.15 1.17-.333.123-.198-.266-.333-.97-.333zm-48.361 1c-.765 0-1.134.499-.876 1.17.102.266.263.486.371.486.108 0 .115-.135.01-.305-.106-.17-.044-.409.142-.524.186-.114.333-.032.333.172s.15.275.333.162c.577-.357.359-1.162-.314-1.162zm19.03.133c-.771.048-2.094.357-2.094.561 0 .42 2.25.38 2.513-.047.12-.195.159-.404.095-.457-.066-.056-.257-.074-.514-.057zm-16.289.019c.074-.025.15.047.238.19.136.219.317.262.4.105.084-.158.135-.136.105.047-.03.183-.315.38-.619.438-.396.077-.494-.053-.343-.447.076-.198.146-.309.22-.334zm84.223 1.932c-.424.018-.223.481.6 1.904.705 1.219.593 2.498-.305 3.541-.66.768-1.04.916-2.313.895-.84-.013-1.764-.212-2.047-.447-.283-.235-.622-.33-.752-.2-.36.36 1.274 1.482 2.513 1.723.604.118 1.614.128 2.228.029.837-.136 1.26-.023 1.694.456 1.145 1.265 4.003.5 4.95-1.332.575-1.111.665-2.342.172-2.342-.183 0-.333.235-.333.523 0 .796-1.838 2.466-2.713 2.466-.664 0-.612-.082.38-.58 1.617-.813 2.22-2.007 1.819-3.6-.436-1.73-1.14-1.906-.914-.228.235 1.755-.481 2.383-1.6 1.4-.435-.382-.569-.59-.295-.457.274.132.179-.07-.219-.457-.397-.387-.913-1.224-1.142-1.857-.238-.657-.71-1.231-1.095-1.332-.281-.074-.487-.11-.628-.105zm-15.87 3.75c.1-.004.214.006.343.039 1.066.279 1.412 1.22.638 1.704-.976.61-.807 1.299.276 1.142.708-.102 1.178.147 2.066 1.067 1.238 1.283.94 1.494-.867.637-1.325-.628-1.474-.57-1.085.457.302.799 1.288 1.296 3.456 1.733 1.067.215 1.142.275.4.305-.958.037-3.228.87-3.228 1.18 0 .097 1.422.171 3.151.162 1.73-.009 3.406.142 3.732.333.428.25-.242.288-2.399.143-2.546-.171-3.067-.125-3.455.343-.629.757-.288.968.77.485.724-.33 1.215-.289 2.704.181 1 .315 1.81.616 1.81.676 0 .06-.673.036-1.496-.057-.828-.094-1.494-.04-1.494.133 0 .415 4.375 1.455 5.207 1.238.856-.224 1.751 1.432.943 1.742-.733.281-.608.9.142.704.635-.166 2.019.551 2.019 1.048 0 .14-.426.191-.952.114-.527-.078-1.066.028-1.19.228-.124.2-.37.362-.552.362-.183 0-.258-.118-.172-.257.086-.139-.065-.78-.333-1.418-.268-.638-.437-1.199-.38-1.257.171-.18-1.109-.796-1.286-.619-.091.091.074.615.362 1.171.287.556.514 1.34.514 1.742 0 .608-.17.503-1.01-.657-1.946-2.687-5.228-4.075-6.815-2.875-.608.46-.582.495.514.514l1.161.02-1.323.818c-.731.45-1.76.819-2.285.819-.81 0-.894.081-.543.504.548.66 1.154.624 3.247-.171 2.402-.913 3.3-.799 1.209.152-.936.426-1.815.946-1.942 1.152-.128.207-.413.267-.629.143-.216-.124-.278-.102-.143.048.136.15.091.46-.104.695-.429.516-1.903.079-2.542-.762-.59-.777-.928-.26-.476.733.829 1.819 3.56 1.866 5.588.086.955-.838 1.462-1.042 2.523-1 .731.03 1.413.137 1.523.248.337.337-.728.84-1.609.761-.457-.041-1.018.05-1.247.19-.228.142-.542.167-.704.067-.162-.1-.459.008-.657.248-.284.341.003.53 1.314.866.916.235 2.146.338 2.732.229.933-.174 1.255-.014 2.637 1.294 1.05.994 1.58 1.78 1.58 2.323 0 .45.28 1.082.619 1.41.888.855 1.843 2.417 1.475 2.417-.477 0-1.807-1.515-1.551-1.77.123-.124.058-.22-.153-.22-.21 0-.738-.712-1.18-1.58-.955-1.876-2.035-2.945-3.284-3.256-1.06-.262-1.283.348-.248.676.366.116.666.337.666.486 0 .149.321.356.705.457.384.1.597.338.476.533-.12.195-.07.352.124.352.193 0 .352.176.352.39 0 .215-.342.071-.762-.323-.873-.82-2.894-1.36-2.894-.771 0 .205.215.37.476.37.679 0 2.35 2.14 2.79 3.57.205.67.316 1.274.247 1.343-.07.07-.732-.688-1.475-1.694-1.286-1.74-2.511-2.885-3.113-2.885-.152 0 .068.491.504 1.085s1.2 1.788 1.695 2.656c1.078 1.893 1.997 2.807 3.446 3.418 1.22.515 1.482 1.193.343.895-.716-.187-.705-.155.17.885 1.069 1.27 1.19 1.874.286 1.39-.341-.183-.868-.857-1.17-1.494-1.092-2.3-3.085-4.046-3.085-2.704 0 .264.155.454.343.419.344-.065 1.904 3.75 1.685 4.122-.185.314 1.396 1.062 1.894.895.247-.083.705.257 1.019.77.314.515.926 1.027 1.352 1.134.568.142.892.59 1.218 1.694.245.828.78 1.91 1.2 2.409.473.562.66 1.075.495 1.342-.286.462-.342.396-2.447-2.77-1.34-2.016-2.36-2.805-3.97-3.066-1.573-.255-1.568.174.02 1.152 1.14.702 2.722 2.556 2.722 3.19 0 .145-.422-.204-.952-.772-.926-.99-1.704-1.338-1.704-.761 0 .15.371.637.828 1.066 1.206 1.132 1.101 1.766-.247 1.495-1.234-.249-2.57-1.558-2.57-2.514 0-.355-.151-.647-.334-.647-.183 0-.333.595-.333 1.323 0 2.044 1.284 3.222 3.77 3.466 2.318.227 2.41.275 3.065 1.627l.514 1.067-.666-.762c-.738-.848-1.1-.577-.828.619.099.437.26 1.441.361 2.218.103.777.302 1.409.438 1.409.448 0 1.052-1.933.829-2.637-.17-.533-.1-.64.304-.486.416.16.514-.045.514-1.056 0-1.444.537-1.217.82.352.264 1.474-.374 3.356-1.4 4.16l-.914.705 1.333-.172c1.22-.16 1.277-.139.685.305-.823.616-1.986.631-2.494.019-.218-.262-.522-1.355-.676-2.418-.338-2.325-.621-3.125-1.304-3.637-.765-.573-1.012-.236-.676.933.164.572.17 1.254.019 1.523-.203.363-.323.215-.476-.552-.114-.569-.365-1.028-.552-1.028-.475 0-.4 1.915.133 3.408.244.686.327 1.247.18 1.247-.146 0-.5.09-.79.2-.445.171-.533-.121-.533-1.942 0-1.685-.155-2.39-.752-3.275-.417-.62-1.009-1.18-1.304-1.237-.481-.093-.48.028-.076 1.161.248.696.454 1.567.457 1.933.005.61-.022.62-.333.085-.721-1.237-3.509-1.992-5.103-1.38-.825.317-.261.8.933.8 1.686 0 3.193 2.012 3.19 4.255v.895l-.667-1.085c-.741-1.216-2.069-1.869-3.218-1.58-1.077.27-.947.636.4 1.123.64.231 1.161.57 1.161.752 0 .182-.176.218-.39.086-.277-.172-.313-.054-.114.4.43.978.6 3.352.333 4.721-.204 1.045-.276 1.135-.504.571-.149-.365-.283-1.311-.296-2.094-.026-1.624-.658-3.35-1.475-4.027-.65-.54-1.182-.21-.6.371.216.217.38.55.38.733 0 .185-.168.146-.39-.076-.219-.219-.683-.39-1.037-.39-.568 0-.548.079.2.666.666.524.938 1.169 1.266 3.066.229 1.325.774 3.05 1.218 3.827.645 1.126.706 1.409.305 1.409-.83 0-1.563-.378-1.361-.705.104-.168.065-.283-.086-.257-.78.136-1.151-.082-.971-.552.109-.284.057-.43-.114-.324-.346.214-.632-1.128-.771-3.646l-.095-1.656-.448.99c-.529 1.18-.632 3.487-.238 5.236l.286 1.256-.905-.342c-1.175-.447-2.066-1.556-2.323-2.904-.25-1.32-.755-1.406-1.028-.171-.11.502-.23 1.043-.266 1.2-.036.155-.568-.19-1.18-.762-1.346-1.257-1.664-1.087-.915.485.393.823.836 1.226 1.514 1.362.529.105 1.29.643 1.695 1.19.404.546 1.245 1.212 1.875 1.475.63.263 1.227.681 1.323.933.097.252.619.632 1.162.857l.99.419-1.228 1.123c-1.305 1.195-2.194 1.086-1.41-.171.237-.38.334-.771.22-.886-.382-.381-1.47.448-2.095 1.61l-.609 1.142-1.028-.629c-1.425-.869-3.907-.818-5.55.105-1.41.793-1.734 1.467-.543 1.133.411-.115 1.415-.282 2.237-.371 1.192-.13 1.326-.096.61.142-.495.165-1.747.776-2.77 1.362-1.025.586-1.919.995-2 .914-.302-.302 1.907-4.243 2.256-4.027.196.121.262.082.153-.095-.11-.178.027-.986.304-1.79.52-1.508.367-3.833-.228-3.465a.37.37 0 0 0-.133.504c.103.168-.112.975-.476 1.8-.735 1.66-1.184 2.063-.61.542.482-1.277-.127-3.353-1.409-4.788-1.32-1.478-1.55-.969-.533 1.18 1.011 2.138 1.183 3.744.2 1.885-.68-1.288-2.176-2.49-2.485-1.99-.103.169.188.865.648 1.543 1.364 2.01 1.074 2.312-.914.961-.68-.462-1.47-1.285-1.752-1.828-.638-1.235-.828-1.243-.828-.038 0 .96.5 1.6 2.78 3.608 1.76 1.55 1.587 2.5-.2 1.095-.465-.366-.955-.666-1.076-.666-.451 0 1.136 1.862 1.961 2.303 1.034.554 1.082 1.424.162 3.018-.369.64-.575.86-.457.495.118-.365.303-1.185.41-1.818l.19-1.152-1.01.819c-.554.45-.934.938-.856 1.076.078.137-.105.247-.39.247-.732 0-1.847-1.209-1.847-2 0-.365-.15-.656-.333-.656-.183 0-.334.479-.334 1.066 0 .996-.036 1.02-.552.505-.337-.337-.532-1.022-.504-1.761.04-1.07-.013-1.165-.476-.781-.893.74-.408 3.238.847 4.36.57.509 1.279.923 1.58.923.782 0 .496.204-1.713 1.181-1.21.535-1.792.671-1.542.371.22-.266.84-.661 1.38-.885.54-.224.9-.557.79-.733-.179-.29-.91-.208-2.513.266-.437.13-.522.001-.371-.6.181-.724.174-.738-.429-.209-.348.306-1.057.665-1.561.79-.842.21-.966.11-1.57-1.256-.665-1.501-1.525-2.503-1.867-2.161-.102.102-.009.514.2.904.209.39.328 1.176.267 1.761l-.115 1.076-.456-1.409c-.251-.77-.604-1.309-.781-1.2-.431.267-.103 3.536.371 3.694.206.069.38.43.38.81 0 .67-.012.677-.665.085-.612-.553-.66-.964-.6-4.617.058-3.502-.03-4.24-.686-5.836-.64-1.557-.71-2.01-.4-3.046.2-.669.905-1.69 1.562-2.266.656-.576 1.093-1.143.98-1.256-.402-.403-2.524.923-3.16 1.97-.531.874-.69.963-.867.505-.193-.503-.03-1.204.686-2.97.401-.99-.47-.654-1.133.438l-.619 1.009-.133-3.218c-.14-3.22-.142-3.224-1.37-4.35-1.184-1.085-1.62-2.105-.886-2.105.193 0 .262-.146.152-.323-.11-.178.033-.77.314-1.314.735-1.42.05-1.58-.809-.19-.396.64-.86 1.161-1.028 1.161-.433 0-.377-.317.352-1.828.353-.73.65-1.513.657-1.742.022-.802-.536-.402-1.104.79-.84 1.763-1.053 1.108-.238-.733.82-1.855.862-2.282.2-2.028-.383.147-.35-.082.161-1.037 1.351-2.52.563-2.834-1-.4-1.051 1.64-1.665 1.884-1.665.666 0-.713-.637-1.272-.695-.609-.078.884.1 1.79.485 2.437.223.374.386 1.847.381 3.37-.005 1.49.101 2.646.238 2.561.42-.26.289.349-.247 1.114-.511.73-1.375.711-1.895-.048-.353-.515-.316-.922.067-.685.21.13.251-.373.114-1.371-.157-1.144-.11-1.497.172-1.323.211.13.38.468.38.742 0 .275.15.399.334.286.444-.275.43-2.73-.02-3.008-.195-.121-.273-.43-.17-.695.101-.266.046-.405-.115-.305-.34.21-.695-.572-.695-1.533 0-.386-.168-.605-.41-.523-.256.087-.414.783-.418 1.818-.005.974-.21 1.922-.495 2.266-.47.565-.667 3.072-.324 4.14.203.634 1.334 1.306 1.856 1.105a.523.523 0 0 1 .61.21c.32.517 1.21.43 1.885-.181.589-.533 1.471-.36 1.113.219-.105.17-.017.314.2.314.267 0 .338.379.21 1.17-.159.977-.106 1.164.362 1.086.309-.051.825-.546 1.142-1.095l.58-1-.247 1.495c-.611 3.736-.09 6.296 1.818 8.892.437.594 1.011 1.603 1.276 2.237.547 1.308.635 4.08.152 4.827-.236.365-.32.12-.323-.905-.007-1.823-.636-4.682-1.085-4.96-.234-.144-.287.107-.162.743.218 1.112-.758 5.788-1.21 5.788-.174 0-.192-.669-.047-1.58.378-2.378.422-3.732.114-3.542-.151.094-.285.005-.285-.2 0-.204-.141-.274-.324-.161-.183.113-.333.564-.333 1 0 1.011-.465 1.295-1.019.627-.287-.346-.315-.593-.086-.742.962-.625 1.41-2.723.79-3.703-.258-.41-.354-.378-.542.171-.123.36-.497 1.252-.838 1.99-.608 1.316-.61 1.371.038 3.075 1.04 2.738.78 3.545-.342 1.066-1.083-2.39-1.254-4.016-.495-4.646.937-.778.404-3.367-1.038-5.017-.401-.459-.356-.655.352-1.418.498-.537 1.027-.797 1.342-.676.993.38.528-.873-.57-1.542-1.301-.793-3.247-.897-3.247-.172 0 .27.364.595.8.705.762.191.775.228.295 1.19-.484.97-.44 2.347.114 3.75.236.6.17.593-.81-.104-.784-.56-1.065-1.004-1.065-1.742 0-.547.133-.932.285-.838.152.094.276-.039.276-.305 0-1.143-1.636-.028-1.97 1.343-.153.626-.173.624-.21-.048-.021-.392.337-1.064.79-1.495.454-.43.825-.892.829-1.028.011-.503-1.383-.015-2.333.819-1.134.996-1.318 2.626-.476 4.255.279.54.39.996.248 1.01-.35.031.972.599 1.466.628.216.013.437-.387.495-.876l.105-.895.942.819c.83.717.97 1.104 1.104 3.141.084 1.275.21 2.504.286 2.733.293.88-.187.352-.828-.905-.37-.724-.676-1.697-.676-2.16 0-.708-.145-.839-.943-.839-1.91 0-3.722-2.538-3.227-4.512.256-1.02-.25-1.057-.733-.057-.3.624-.362.646-.38.143-.03-.771 1.24-3.822 2.027-4.855.725-.953.792-2.788.124-3.456-.266-.266-.376-.595-.248-.733.129-.138-.112-.071-.523.143-.412.214-.743.466-.743.561 0 .096.135.086.305-.019.461-.285.817 1.163.39 1.59-.203.203-.965.32-1.694.267-1.527-.11-1.758.39-.42.923.8.318.812.337.086.162-2.071-.501-2.803-.528-3.94-.152-1.107.365-1.527.865-2.267 2.618-.1.239.378.048 1.067-.42.757-.514 1.708-.847 2.418-.847h1.17l-1.19 1.076c-1.149 1.039-1.939 2.58-1.323 2.58.164 0 .642-.367 1.057-.81.799-.85 2.581-1.74 2.885-1.437.099.1-.055.644-.343 1.2-.766 1.48-.698 4.205.133 5.036.366.365.878.666 1.133.666s.552.221.657.495c.318.829-.917.588-1.8-.352-.665-.708-.828-1.27-.932-3.341-.122-2.407-.143-2.476-.743-1.933-.597.54-1.126 2.336-1.047 3.551.03.464-.086.516-.571.257-.689-.368-2.342-2.243-2.342-2.656 0-.15-.23-.358-.514-.466-.284-.11-.435-.07-.333.095.101.164.09.554-.029.866-.19.495-.277.467-.657-.219-.24-.433-.441-1.135-.447-1.561-.02-1.284-.836-.633-.952.761-.151 1.808.095 2.514 1.513 4.36 1.69 2.2 2.29 3.381 2.523 4.96.18 1.218.157 1.277-.285.686-.266-.355-.495-.775-.495-.933 0-.159-.141-.199-.324-.086-.183.113-.35.01-.371-.228-.157-1.8-.323-2.436-.772-2.885-.463-.464-.523-.471-.523.02 0 .703-1.595 1.061-2.76.618-.707-.268-.896-.243-.896.133 0 .26.261.644.58.847.502.319.47.353-.247.229a8.211 8.211 0 0 1-1.456-.41c-.463-.193-.59-.136-.476.21.237.727 1.964 1.444 3.503 1.457l1.39.009-.81.847c-1.132 1.182-1.073 1.78.163 1.533.764-.153.941-.094.8.276-.208.539-1.291.964-1.743.685-.165-.102-.38.026-.476.276-.428 1.116 2.814 1.514 3.485.429.129-.21.343-.276.466-.153.347.347-.1 1.71-.838 2.561-.748.863-1.17 2.602-.933 3.846.203 1.062.1 1.042-.79-.162-.511-.691-.85-.893-1.123-.666-.267.222-.59.12-1-.333-.58-.641-.573-.667.038-.705.349-.021.76-.024.905 0 .145.024.102-.26-.095-.628-.198-.368-.62-.673-.933-.676-.483-.005-.492-.042-.077-.305.331-.21.66-.163 1.019.162.768.695 1.637.613 1.637-.162s-1.217-2.008-1.99-2.008c-.873 0-.994-.358-.475-1.362.612-1.184.597-1.294-.067-1.294-.298 0-1.12.521-1.828 1.161-1.346 1.216-1.78 1.382-2.123.828-.325-.527-2.003-.388-4.055.333-1.04.366-1.928.667-1.97.667-.043 0 .162-.562.456-1.247.486-1.133.626-2.982.257-3.351-.081-.082-.353.025-.609.238-.37.307-.508.238-.647-.295-.252-.964.398-.834 2.075.4l1.447 1.066-.885.295c-1.468.489-.996.906 1.028.914 4.1.016 4.53-.03 5.283-.524 1.144-.75.962-1.152-.533-1.152-1.312 0-1.323-.003-1.114-1.076.116-.594.333-1.132.476-1.19.144-.057.177-.319.076-.58-.104-.274.31-.968.981-1.638 1.477-1.476 1-1.81-.952-.666-1.04.61-1.713 1.321-2.209 2.342-.615 1.266-.87 1.47-1.742 1.466-1.673-.008-1.969-.408-.98-1.333.475-.445 1.013-1.102 1.2-1.447.494-.918 1.973-6.575 1.77-6.778-.095-.095-.18-.013-.18.2 0 .213-.207.4-.467.4-.261 0-.87.481-1.343 1.075l-.847 1.086.505-1.485c.623-1.801 1.36-2.671 2.284-2.685.642-.009.667-.05.143-.447-.518-.394-.446-.559.847-1.828.781-.766 1.552-1.274 1.724-1.133.171.141.215.131.095-.02-.12-.15.509-1.225 1.39-2.389.88-1.163 1.792-2.633 2.027-3.284.236-.651.518-1.19.638-1.19s.909-.589 1.733-1.314c.824-.725 1.551-1.266 1.628-1.19.076.077.171-.107.21-.419.037-.31.154-1.205.266-1.98l.21-1.409-1.924 1.162c-1.06.638-2.131 1.186-2.37 1.209-.814.078-.923.119-2.8 1.18-1.879 1.064-3.438 2.773-3.198 3.494.073.22.752-.188 1.59-.933 1.183-1.052 1.322-1.102.723-.324-.963 1.253-.643 1.539.524.476.998-.908 2.069-1.599 3.475-2.208 1.488-.645 1.055-.217-.914.895-2.257 1.274-3.054 2.166-3.96 4.426-.682 1.699-.742 1.747-1.885 1.647-1.028-.089-1.396.114-2.8 1.505-.886.878-1.407 1.329-1.17 1.009.237-.32.335-.581.219-.581-.116 0 .018-.538.295-1.2.277-.662.495-1.363.495-1.551 0-.62-1.378.89-2.209 2.418-.447.822-.723 1.203-.609.837 1.493-4.8 1.495-4.817 2.532-4.817 1.253 0 2.276-.55 2.276-1.209 0-.371-.197-.437-.743-.276-.669.197-.638.113.248-.733.544-.52 1.087-.905 1.209-.866.122.04.141-.23.047-.59-.214-.818-.502-.821-1.228-.02-.314.348-.849.7-1.2.79-.53.14-.586.072-.313-.437.423-.792.416-1.98-.01-1.98-.182 0-.34.19-.352.419-.012.228-.192.078-.39-.333-.528-1.095-.802-.923-1.01.618-.135 1.013-.514 1.686-1.456 2.6-.767.743-1.758 2.32-2.494 3.96l-1.228 2.713.99-.705c.541-.385 1.23-1.095 1.533-1.58.599-.957 1.751-2.19 1.751-1.876 0 .108-.51 1-1.142 1.99-1.261 1.972-3.089 3.16-4.865 3.16-1.02 0-1.04-.025-.542-.751.282-.412.684-.698.895-.648.21.05.296-.06.18-.247-.115-.187.02-.343.305-.343s.514-.15.514-.333c0-.59-1.545-.36-2.475.371-.497.391-1.034 1.023-1.2 1.41-.249.58-.285.523-.18-.334.069-.569.286-1.34.485-1.714.318-.593.285-.649-.304-.495-.371.097-.969.752-1.324 1.447-.54 1.06-1.671 2.335-1.266 1.428.073-.162.428-1.1.79-2.085.363-.984 1.048-2.218 1.533-2.741.776-.837 1.116-.943 2.827-.943 2.104 0 3.768-.759 4.427-1.99.295-.55.279-.675-.133-.675-.28 0-.524.132-.524.285 0 .292-1.448 1.047-2.008 1.047-.179 0-.075-.375.228-.837.303-.463.487-.913.41-.99-.139-.139-2.682.963-4.941 2.142-.846.44-1.502 1.253-2.428 2.97-1.33 2.466-1.998 2.867-3.027 1.837-.617-.616-.645-.944-.162-1.847.532-.994.088-1.165-.819-.314l-.8.733-.533-.752c-.293-.42-.528-.987-.514-1.266.015-.28.1-.358.181-.162.082.196.59.29 1.133.21 1.024-.15 1.295-.546.571-.838-.228-.092-.082-.186.314-.2 1.728-.063 2.515-1.019.838-1.019-.513 0-1.225-.217-1.58-.485-.627-.474-.628-.494.124-.505.425-.006 1.217-.446 1.751-.98.756-.756.962-1.278.962-2.333 0-1.36.428-1.797.8-.828.279.728.843.291.637-.495-.169-.645-.036-.824 2.675-3.275.86-.777 1.21-1.364 1.21-2.056 0-.62.257-1.159.723-1.485.4-.28.622-.616.485-.752-.488-.49-2.059.771-2.875 2.313-1.09 2.062-1.491 2.018-.666-.076 1.23-3.12 1.669-3.464 4.94-3.798.98-.1 2.334-.496 3-.886l1.2-.714-.8.876c-.444.475-.987.857-1.21.857-.222 0-.498.211-.6.476-.129.337-.005.431.391.304.481-.153.482-.124.057.181-.274.198-.906.359-1.409.362-.997.006-1.22.478-.38.8.857.329 2.789.231 3.56-.181.696-.373.696-.357.19.419-.287.44-1.066 1.086-1.723 1.447-1.024.563-1.382.607-2.551.295-1.343-.359-1.357-.352-.905.343.253.387.928.843 1.505 1.018 1.17.355 1.34.716.466.98-.883.268-2.737.136-2.542-.18.095-.153-.059-.185-.343-.076-.711.273-.641.654.22 1.256.618.434.682.66.409 1.438-.178.505-.77 1.132-1.314 1.4-.735.36-.853.512-.438.6.814.17 2.514-.794 2.76-1.572.271-.852.574-.849 1.362.038.632.712.636.72-.276.553-.632-.117-.914-.037-.914.276 0 .297.404.457 1.18.457.717 0 1.108.128.981.333-.115.186-.384.238-.6.114-.215-.124-.287-.092-.152.057.136.15.08.469-.124.714-.282.34-.245.448.143.448.523 0 2.228-1.81 2.228-2.361 0-.515-1.33-1.67-1.676-1.457-.33.205 1.39-2.855 2.019-3.589.19-.221.562-.7.828-1.066.436-.6.451-.556.114.495-.205.64-.73 1.551-1.161 2.018-.71.767-1.038 1.638-.62 1.638.486 0 3.015-2.257 2.904-2.59-.22-.662 1.183-2.303 2.304-2.694l1.057-.38-.78.846c-.437.465-.982.773-1.21.686-.254-.098-.351.028-.238.324.215.559.894.616 1.761.152.457-.244.663-.191.81.19.111.291.054.42-.134.305-.18-.112-.333-.077-.333.076 0 .154-.442.45-.99.657-1.528.576-1.27 1.17.41.933.776-.11 1.659-.267 1.951-.352.552-.162 1.295-1.502 1.295-2.323 0-.28.204-.388.495-.276.432.166.432.297 0 1.133-.45.87-.659 1.98-.372 1.98.066 0 .637-.492 1.276-1.095 1.154-1.088 3.095-1.89 4.617-1.904.436-.003 1.399-.276 2.133-.61.807-.366 1.59-.515 1.99-.37.52.187.348.298-.81.532-2.012.407-2.155 1.057-.228 1.057.825 0 1.65.104 1.837.22.488.3 1.685-.423 1.685-1.02 0-.278.147-.417.314-.314.167.104.358.07.42-.076.12-.288 2.74-1.836 3.674-2.17 1.068-.383.598.088-.581.58-1.611.674-1.457 1.133.314.933.814-.092 1.738-.065 2.056.057.513.197.49.312-.304 1.048-.9.834-1.153 1.475-.59 1.475.166 0 1.015-.573 1.904-1.276 2.705-2.138 3.919-2.567 3.141-1.113-.544 1.016-.875 4.379-.428 4.379.204 0 .466-.373.58-.828.115-.456.334-.747.496-.648.16.1.236-.019.152-.257-.175-.495.62-1.518 1.818-2.351.864-.6 2.323-.774 2.323-.276 0 .406-.838 1.065-1.066.837-.103-.102-.132.945-.057 2.314.075 1.369-.02 2.892-.21 3.389-.189.497-.26.987-.162 1.085.34.34 1.174-1.108 1.714-2.98 1.184-4.103 2.942-4.592 2.942-.818 0 1.67.087 2.057.409 1.79.836-.694 1.17-2.909.666-4.437l-.466-1.418.8.314c1.657.63 2.064 1 2.275 2.123.273 1.456.787 1.195.838-.429.02-.674.106-.967.19-.647.084.32.309.58.495.58.288 0 .264-1.536-.048-2.827-.044-.182-.056-.554-.028-.828.082-.811 1.342.933 1.342 1.857 0 1.002.592 1.04 1.019.057.246-.566.3-.25.219 1.323-.119 2.288.188 2.68.752.97.2-.608.58-1.113.847-1.113.367 0 .392.113.114.448-.28.336-.248.447.143.447.283 0 .83-.404 1.21-.885.679-.865.685-.858.685-.115 0 .43-.497 1.22-1.162 1.847-1.794 1.692-1.512 2.243.667 1.333.858-.359 1.2-.382 1.428-.086.655.852.625 1.49-.124 3.228-.786 1.821-.974 3.139-.6 4.112.36.94.694.566.866-.961.093-.823.369-1.73.6-2.009.645-.777.716-.378.143.771-.467.935-.469 1.197.019 2.875.7 2.405 1.293 2.101.99-.514-.155-1.338-.116-1.952.133-1.952.2 0 .362.221.362.495 0 .275.167.495.362.495.195 0 .282-.26.19-.58-.357-1.242-.366-5.326-.009-4.97.256.257.524 4.563.486 7.816-.016 1.342.148 2.759.37 3.16.223.401.37.875.315 1.058-.054.182.006.223.143.085.137-.137.492-.042.78.22.51.46 1.568.686 2.761.58.718-.064.789-.714.076-.714-1.282 0-2.386-.976-2.808-2.485-.375-1.338-.35-1.596.143-2.142.526-.581.516-.73-.124-2.551-.375-1.066-.685-2.718-.685-3.665 0-1.555-.12-1.82-1.18-2.751-.647-.568-1.39-1.029-1.657-1.029-.641 0-.62-.475.047-1.028.463-.384.71-.256 1.838.952.715.767 1.384 1.839 1.494 2.39.222 1.107.669 1.33.867.428.326-1.49-1.335-4.564-2.647-4.893-.548-.138-.762-.438-.762-1.085 0-.855.066-.826 1.58.79.869.926 2.151 2.107 2.847 2.618 1.415 1.038 2.218 2.356 2.218 3.627 0 .466.15.847.334.847.343 0 .465-.56.4-1.99-.03-.648.027-.722.275-.333.175.274.32.774.324 1.105.002.33.15.503.333.39.504-.312.399-1.925-.18-2.751-.283-.404-1.187-1.127-2.01-1.61-.822-.481-1.442-.927-1.38-.99.173-.172 3.037.742 4.18 1.333 1.26.652 2.05 1.75 2.046 2.847-.002 1.145-1.216 3.091-1.742 2.79-.225-.13-.307-.103-.171.047.135.15.083.474-.124.723-.56.674-.201.81.79.295.482-.25.98-.367 1.114-.247.134.12.173.068.086-.114-.088-.183.209-.705.657-1.162.735-.75.779-.761.438-.104-.329.632-.29.718.276.675.358-.026.583-.102.504-.18-.078-.079.234-.594.695-1.143.462-.548.923-1.425 1.028-1.951.106-.527.322-1.038.476-1.133.492-.304.693 1.384.324 2.713-.497 1.788-.452 1.98.295 1.304 1.507-1.364 1.627-3.94.257-5.407-.412-.442-.52-.752-.276-.752.8 0 1.732.716 2.085 1.6l.352.894.4-.962c.333-.78.451-.842.628-.38.12.31.133 1.18.029 1.942l-.181 1.39.847-.933c1.107-1.207 1.12-2.66.038-3.742-.448-.448-1.15-.822-1.57-.837-.42-.016.07-.216 1.104-.438 1.034-.223 2.117-.596 2.408-.838.703-.583.679-1.346-.047-1.38-1.697-.081-2.18-.312-3.351-1.58-.869-.941-1.557-1.381-2.142-1.381-.968 0-1.47.503-.771.771.518.199 2.634 3.218 2.256 3.218-.136 0-.567-.238-.962-.514-.398-.28-.808-.351-.913-.181-.31.5.199 1.385.932 1.656.469.173-.121.329-1.856.486-2.413.218-2.567.194-3.37-.61-.635-.634-1.192-.837-2.247-.837-2.25 0-1.214-.4 1.39-.533 1.67-.086 2.678.032 3.351.38.902.467.952.457.952-.152 0-.357-.394-.963-.876-1.342-.81-.638-.819-.686-.18-.686 1.1 0 1.135-.547.066-.99-.86-.356-.922-.468-.495-.895.646-.645.928-1.841.762-3.265-.075-.64-.013-1.161.133-1.161.146 0 .257-.225.257-.495 0-.671-1.315-.954-2.447-.524-.51.194-1.057.284-1.209.19-.151-.093-.345.018-.437.248-.132.326-.17.318-.19-.02-.015-.236.413-.687.96-.999.548-.311 1-.672 1-.809.005-.607-1.683-.157-2.827.752-1.446 1.149-1.751 1.218-1.695.41.057-.812.977-2.742 1.305-2.742.149 0 .171-.157.057-.343-.115-.186-.374-.236-.572-.114-.197.122-.002-.405.429-1.171l.79-1.39.59 1.162c.33.641.907 1.325 1.276 1.523.37.197.582.504.476.676-.106.171.022.225.285.123.413-.158.4-.327-.057-1.237-.578-1.153-.848-5.54-.342-5.54.327 0 .431.25.77 1.789.314 1.418.956.563.8-1.066-.091-.963-.012-1.27.296-1.152.533.205.546-.643.019-1.171-.22-.22-.892-.4-1.495-.4-1.018 0-1.105-.073-1.095-1.076.01-.907.079-1 .419-.57.223.28.66.455.98.39.596-.123 2.136 1.415 2.723 2.722.29.647.327.634.448-.257.092-.678-.17-1.378-.895-2.39-1.367-1.903-1.29-1.993.314-.39.736.736 1.42 1.256 1.523 1.152.104-.103-.363-1.183-1.038-2.39-.704-1.259-1.237-2.677-1.256-3.34-.037-1.29-.126-1.345-1.047-.648-.82.62-1.18.615-1.18-.01 0-.271.613-.875 1.351-1.341.738-.466 1.472-1.202 1.637-1.638.169-.442.358-.642.657-.657zm-88.934.61c.043-.034.217.07.533.267.376.235.676.537.676.676 0 .51-.647.231-1-.429-.168-.314-.253-.48-.21-.514zm3.884 5.255c.097-.008.17.008.2.038.12.12-.444.511-1.248.876s-1.766.658-2.132.647c-.467-.013-.512-.074-.162-.2.274-.097 1.138-.48 1.914-.856.581-.283 1.135-.479 1.428-.505zm115.666.429.647.78c.36.432.648.956.648 1.171h.009c0 .215-.301.4-.667.4-.541 0-.656-.223-.647-1.18zm-129.032.495c.194 0 .45.166.57.361.359.579-.048.702-.504.153-.262-.316-.287-.514-.066-.514zm121.026.666c-.017.017.079.155.286.419.434.553.704.73.704.457 0-.07-.26-.33-.58-.58-.264-.208-.393-.313-.41-.296zm-97.379.98c.358.01.273.192.02.667-.544 1.015-.328 1.105 1.132.495.688-.287 1.335-.446 1.428-.352.093.093-.226.27-.705.39-.983.247-1.177.797-.295.847.371.021.288.111-.238.257-.588.164-.92.594-1.17 1.485-.193.688-.437 1.154-.543 1.048-.107-.107-.119.195-.029.666.162.844.16.85.629.18.62-.886 1.216-.872.933.02-.196.617-.147.651.466.324.814-.436 1.441-1.495 1.104-1.857-.13-.14-.017-.19.257-.105.295.092.53.622.572 1.295.039.626-.005.952-.105.724-.297-.678-.677-.485-1.114.57-.24.58-.57.907-.79.782-.207-.119-.282-.097-.153.047.13.144.04.65-.209 1.133-1.132 2.189-3.717 3.775-4.646 2.846-.263-.263-.767-.476-1.113-.476-.689 0-2.076 1.3-2.076 1.943 0 .22-.376.575-.847.79-.933.425-1.809 1.816-1.809 2.894 0 .874.562.88.838.009.245-.773 1.941-1.751 2.76-1.59.397.078.11.428-.98 1.18-1.426.985-2.182 1.96-1.809 2.333.086.086.556-.166 1.048-.552.49-.387 1.07-.695 1.294-.695.638 0 2.161-1.322 2.161-1.876 0-.274.235-.72.505-.99s.601-.675.742-.895c.141-.22.848-.69 1.571-1.056.768-.388 2.118-1.669 3.256-3.075 1.577-1.95 2.135-2.409 2.884-2.409.53 0 1.464-.43 2.18-1 1.647-1.308 1.795-1.255.534.181-1.159 1.32-1.32 1.874-.457 1.619.637-.189.498-.058-1.657 1.361-1.101.725-2.457 2.369-2.18 2.647.096.095.521-.136.962-.524 1.167-1.028 2.296-1.74 2.475-1.561.085.085-.701.8-1.752 1.58l-1.913 1.409-.105-1.076c-.07-.706.133-1.402.58-2.008.378-.511.564-1.019.41-1.114-.391-.242-1.506 1.046-2.332 2.694-.514 1.024-1.003 1.483-1.876 1.77-1.404.464-3.16 1.875-3.16 2.533 0 .258-.15.466-.334.466-.182 0-.293.162-.247.362.087.382-.317.66-1.828 1.257-.971.383-2.234 2.143-2.237 3.113-.002.91.535.68.99-.42.338-.815.608-.99 1.485-.99 1.267 0 1.894-.613 2.856-2.789.717-1.62 2.023-2.532 3.627-2.532 1.396 0 .398 1.276-1.095 1.4-.677.056-.856.228-.809.8.034.404.17.686.295.609.35-.216 2.334.693 2.076.952-.419.418-1.347.232-2.2-.438-.919-.723-1.415-.874-1.075-.324.383.62-.806 1.962-2.533 2.837-2.01 1.019-1.915 1.377.229.838 1.855-.467 2.166-.286 1.209.733-.393.418-.89 1.241-1.095 1.827-.204.587-.471 1.067-.6 1.067-.386 0-1.037-.767-1.037-1.228 0-.238-.158-.429-.362-.429-.208 0-.297.295-.2.667.129.493.003.656-.466.656-.349 0-.634-.18-.638-.409-.003-.228-.486-.64-1.076-.914-.963-.447-1.085-.646-1.085-1.913 0-1.575-.35-1.833-.819-.6-.315.828-.234 1.856.2 2.599.133.228-.07.14-.447-.19-.803-.704-1.099-2.562-.676-4.227.162-.643 1.184-2.368 2.265-3.827 1.953-2.636 2.232-3.142 1.704-3.142-.15 0-.205-.453-.123-1.009.099-.677-.07-1.248-.486-1.723-.342-.39-.428-.6-.2-.467.245.143.42.066.42-.19 0-.24.3.058.665.657.867 1.42 2.006 1.847 3.704 1.39.899-.242 1.509-.687 1.942-1.4.778-1.28.517-1.856-.448-.99-1.244 1.118-1.66 1.236-1.037.286.314-.48.467-.876.342-.876s.098-.466.505-1.038c.81-1.138 1.207-3.808.676-4.598-.425-.631-.594-.438-.81.943-.096.618-.353 1.29-.57 1.494-.304.285-.326.21-.058-.314.225-.438.25-.853.048-1.161-.265-.405-.412-.369-.838.19a4.637 4.637 0 0 0-.685 1.41c-.104.41-.323.751-.486.751-.43 0-.377-.184.514-1.942 1.014-2.001 1.493-2.397 3.209-2.627.336-.045.595-.083.78-.096.07-.005.13-.011.181-.009zm96.427.515.314.8c.346.864.28 1.546-.114 1.151-.133-.133-.23-.622-.22-1.095zm16.346 0c.38-.015.82.323 1.342 1.037.592.81.596.885.038 1.41-.547.513-.574.501-.371-.077.187-.533.094-.583-.676-.39-.764.191-.827.146-.476-.276.337-.407.297-.51-.248-.6-.571-.094-.603-.188-.228-.695.195-.265.39-.4.619-.41zm-6.322.504c.146-.002.216 1.083.162 2.409-.105 2.598-.477 3.054-1.066 1.304-.382-1.133-.857-1.11-.857.038 0 .568-.068.589-.552.19-.504-.414-.53-.353-.333.705.19 1.019.153 1.1-.238.59-.246-.32-.534-.59-.638-.59-.104 0-.226.234-.286.514-.082.392-.235.335-.618-.248-1.087-1.648-1.077-1.632-.267-1.437 1.018.245 2.698-.812 3.665-2.304.417-.644.883-1.168 1.028-1.17zm-83.032 1.028c.17 0 .151.1-.152.295-.275.178-.726.315-1 .305-.329-.012-.267-.116.171-.305.457-.196.812-.295.981-.295zm92.238.962c.183 0 .324.3.324.666 0 .39-.211.667-.524.667-.35 0-.465-.189-.333-.534.11-.289.2-.59.2-.666 0-.076.15-.133.333-.133zm-96.341.047c.18-.002.38.015.543.057.323.085.129.165-.42.172-.548.007-.805-.071-.58-.162.112-.046.276-.063.457-.067zm76.207 1.419c.045-.002.153.19.333.533.239.457.536 1.24.657 1.742.132.556.078.914-.134.914-.41 0-.541-.366-.78-2.161-.094-.706-.136-1.025-.076-1.028zm-4.627.143 1.161.77c.64.426 1.228.82 1.305.867.076.046.056.162-.048.267-.105.104-.683-.282-1.295-.857zm18.906.057c.058 0 .095.592.076 1.323-.037 1.425-.358 1.736-.695.676-.173-.548.275-2 .62-2zm-94.275.095a.085.085 0 0 1 .057 0c.025.016-.134.137-.438.38-.355.285-.793.515-.97.515-.423 0-.237-.154.78-.638.294-.14.484-.23.571-.257zm83.366.143c.145-.005.33.136.58.428.533.623.522.657-.085.657-.764 0-1.06-.38-.724-.923.065-.105.141-.159.229-.162zM120 120.028c.472 0-.242 1.674-.933 2.199-1.012.77-1.139.477-.257-.571.473-.563.857-1.164.857-1.333 0-.169.155-.295.333-.295zm117.437.095c.012 0 .026.006.038.01.369.12.784 2.145.572 2.798-.299.918-.672.322-.78-1.247-.066-.946-.004-1.545.17-1.561zm-103.214 1.095c.042.007.067.036.067.076 0 .496-1.249 1.441-1.457 1.104-.108-.174.173-.549.628-.847.342-.224.636-.354.762-.333zm48.903 2.56c.296.05 1.13.921 2.038 2.257.824 1.214 1.642 2.03 2.16 2.161.459.115 1.037.624 1.295 1.123.683 1.321 1.925 2.009 3.647 2.009 1.346 0 1.504.076 1.504.752 0 1.05-.82 2.12-1.819 2.37-.46.116-.837.435-.837.715 0 .28-.509.725-1.143.99-.634.264-1.416.474-1.742.457-.331-.019-.06-.266.638-.553 1.532-.628 1.59-1.001.171-1.17l-1.085-.124 1.104-.276c.631-.155 1.038-.442.952-.667-.1-.262.174-.342.82-.247.57.083.951-.01.951-.229a.357.357 0 0 0-.362-.362c-.204 0-.967-.612-1.694-1.36-1.02-1.05-1.513-1.33-2.142-1.21-.702.134-.927-.072-1.638-1.475-.454-.898-1.2-1.953-1.647-2.342-.67-.583-.737-.792-.4-1.21.234-.288.247-.41.039-.285-.204.122-.52-.143-.724-.59-.215-.472-.24-.693-.133-.724.015-.005.028-.013.048-.009zm51.227.591c.124.014.274.131.514.371.536.536.516.588-.343.914-.5.19-1.053.352-1.228.352-.174 0-.229.372-.114.829.173.69.096.837-.485.837-.386 0-.72-.12-.743-.257a26.06 26.06 0 0 1-.114-.952c-.042-.386-.167-.837-.267-1-.1-.161.344-.309.98-.323.638-.014 1.297-.235 1.457-.495.124-.2.219-.29.343-.276zm-52.426.457c.117-.012.283.118.543.352.365.331.666.75.666.933 0 .183.404.844.885 1.476.826 1.082.83 1.135.162.923-.922-.293-.902.02.114 1.352.457.6.838 1.393.838 1.77 0 .76-.726.925-1.237.277-.18-.229-.436-1.091-.562-1.914-.253-1.658-1.046-3.128-1.533-2.827-.173.107-.573.044-.895-.143-.52-.303-.503-.334.181-.343.53-.007.755-.189.714-.59-.087-.853-.07-1.248.124-1.266zm31.101 1.19c.118.015.235.223.267.647.027.362-.095.742-.267.848-.17.105-.314-.19-.314-.657 0-.56.163-.857.314-.838zm4.113.371a.33.33 0 0 1 .133.057c.189.117.598 1.147.914 2.295.316 1.147.786 2.425 1.047 2.837.569.892.44.97-.266.161-.746-.855-1.142-1.762-1.4-3.189-.126-.698-.326-1.498-.438-1.79-.091-.238-.087-.374.01-.37zm-38.88.067c.008-.005.021-.002.03 0 .116.027.33.443.513 1 .32.965.896 1.542 1.533 1.542.072 0-.012-.379-.19-.848-.502-1.32-.39-1.707.238-.8.312.453.763 1.016 1 1.257.235.242.428.724.428 1.076 0 .787.113.806-1.533-.18-1.247-.748-2.483-2.582-2.037-3.028.006-.006.012-.015.019-.02zm-57.985.628c.18-.021.293.077.42.276.163.26.244.62.19.79-.136.43-.575.492-1.552.22l-.838-.239.952-.618c.398-.263.65-.407.828-.429zm-5.102 1.485-.686.79c-.38.437-1.097 1.251-1.59 1.8-.492.548-1.019 1.45-1.18 1.999-.266.904-.306.839-.333-.686-.018-.994.172-1.95.457-2.332.465-.623.477-.617.295.105-.248.983.13.948.942-.086.36-.458.984-1.003 1.38-1.209zm86.174 1.095c-.521.014-.993.18-1.286.533-.644.777-.669 1.448-.047 1.21.37-.143.441-.077.247.237-.167.27-.139.365.067.238.438-.27 3.18 1.483 3.875 2.475.297.426.533 1.037.533 1.362 0 .325.15.59.333.59.452 0 .426-1.737-.048-2.885-.212-.514-.36-1.072-.323-1.228.3-1.308-1.788-2.574-3.351-2.532zm-5.18 1.323c.174.003.352.447.343 1.228-.02 1.843-.233 2.257-1.409 2.676-1.552.553-1.553.544-.666-.4.424-.452.874-.763 1-.686.255.158.357-.283.447-1.97.032-.594.15-.85.286-.848zm-67.533 1.666c.314 0 .271.189-.153.657-.327.361-.714.583-.856.495-.143-.088-.327.037-.42.267-.096.239-.184.256-.2.047-.033-.475 1.065-1.466 1.629-1.466zm58.947.01c.487-.023.876.092.876.323 0 .183-.11.33-.248.333-.137.002-.57.095-.961.2-.833.224-1.36-.371-.59-.666.303-.117.63-.177.923-.19zm-78.273 1.999c.031.018-.06.204-.238.552-.499.976-.477 3.261.038 3.665.229.179.737.4 1.124.495.661.161.69.091.41-1.162-.343-1.522-.397-1.414.808-1.704 1.188-.285 1.523.467.743 1.657-.31.474-.489 1.145-.4 1.485.089.34-.009.748-.219.904-.858.64-2.187.415-2.77-.476-.804-1.226-.789-4.236.028-5.017.292-.278.445-.418.476-.4zm37.766.752c.265.016.6.126 1.095.323.702.281 1.49.39 1.76.248.268-.141 1.189-.345 2.057-.457 1.369-.178 1.57-.123 1.57.39 0 .946-.688 1.39-2.17 1.39-1.544 0-3.475-.57-3.475-1.028 0-.165-.15-.305-.333-.305-.183 0-.333.301-.333.667 0 .74-1.06.895-2.075.304-.846-.492-.76-1.407.104-1.133.375.12.898.038 1.162-.18a.843.843 0 0 1 .638-.22zm-6.474 2.37c.73.01 1.333.13 1.333.267s.27.257.6.257c.33 0 .892.217 1.247.485.784.593.54.588-2.009-.028-2.447-.592-2.934-1.002-1.17-.98zm-26.456.524c.03 0 .058.592.058 1.323s-.005 1.329-.01 1.323a36.462 36.462 0 0 0-.618-.476c-.575-.435-.57-.51-.038-1.323.309-.472.58-.847.609-.847zm40.146 1.342c-.137-.03-.385.103-.705.4-.363.337-.403.319-.21-.086.132-.274-.112-.091-.542.41-.464.54-1.49 1.118-2.532 1.427-.964.287-1.829.704-1.914.924-.084.22-.013 1.123.153 2.009.26 1.393.22 1.685-.324 2.151-.345.296-.638.637-.638.762 0 .411 1.274-.09 1.857-.733.314-.348.607-1.17.647-1.828.063-1.041.241-1.282 1.361-1.79 1.227-.557 2.416-1.823 2.885-3.084.126-.34.1-.531-.038-.562zm4.883.4c-.65.077-2.007.935-2.989 1.951-1.422 1.472-1.96 3.273-1.96 6.588 0 1.29.101 2.342.218 2.342.613 0 1.1-1.37 1.114-3.151.018-2.39.282-3.565.752-3.275.21.13.252.053.095-.2-.166-.268.366-1.056 1.504-2.208.971-.983 1.683-1.868 1.58-1.971a.278.278 0 0 0-.19-.076c-.037-.002-.08-.005-.124 0zm-13.384 1.275c-.636.028-1.49.358-2.676.99-1.048.56-1.816.867-1.704.686.113-.182.023-.44-.19-.571-.228-.141-.649.117-1.028.638-1.136 1.557-3.28 2.228-5.036 1.56-.674-.255-.866-.227-.866.134 0 .255.41.616.913.8.9.329.894.326-.333.352-1.465.03-1.626.508-.333.98 1.91.698 3.514.252 5.702-1.58 1.91-1.598 2.927-2.027 4.837-2.027 1.674 0 2.51-.684 1.837-1.495-.273-.33-.63-.488-1.123-.467zm8.348.476c-.233-.023-.521.294-1.218 1.067-.647.717-1.596 2.068-2.094 3.008-1.05 1.977-2.123 2.8-3.846 2.932a34.55 34.55 0 0 0-1.39.124c-.092.017.13.246.485.514.908.686 2.303.603 3.932-.229.987-.503 1.272-.563.97-.2-.234.283-.797.611-1.246.724-1.255.315-.997.954.323.8.627-.074 1.063-.016.971.133-.092.149-1.018.248-2.056.21-1.044-.04-2.262.121-2.723.361-1.652.862-3.148 3.344-3.665 6.083-.18.957-.404 2.013-.504 2.333-.341 1.084.35.558 1.266-.952 1.167-1.923 3.162-2.885 5.655-2.732 1.427.087 1.748.002 1.847-.486.08-.4-.235-.738-.99-1.085-1.035-.477-1.056-.508-.2-.381.958.142 1.146-.062.57-.638-.235-.236-.043-.304.6-.21a2.234 2.234 0 0 0 1.705-.485c.89-.72.991-1.95.38-4.893-.424-2.045-.24-3.696.381-3.313.23.142.28.075.133-.162-.292-.472.938-2.104 1.333-1.77.156.13.07-.052-.19-.39-.168-.22-.289-.349-.429-.363zm42.526.162c.045.005.097.15.19.429.173.52.173 1.26 0 1.78-.247.741-.285.597-.285-.885 0-.927.02-1.331.095-1.324zm-77.083.724c.052-.002.086.022.086.066 0 .418-1.96 1.51-2.151 1.2-.116-.186.19-.488.685-.676.494-.188 1.024-.417 1.18-.514a.46.46 0 0 1 .2-.076zm-4.398 1.009c.05-.001-.032.243-.228.78-.559 1.53-.14 2.708 1.056 2.97.549.121.99.347.99.515 0 .491-1.53.36-1.97-.172-.668-.805-.797-2.917-.22-3.665.211-.272.333-.428.372-.428zm72.808.942c-.122.014-.254.132-.39.353-.532.86-.188 2.897.809 4.788.573 1.087 1.047 2.321 1.047 2.732 0 .412.134.752.295.752.363 0 .69-1.174.695-2.484.005-.94.027-.966.581-.41.447.449.573 1.083.533 2.733-.028 1.18.016 2.151.086 2.151.07 0 .35-.45.628-.99 1.164-2.25.19-5.268-1.99-6.178-.954-.4-1.22-.733-1.532-1.971-.258-1.025-.494-1.507-.762-1.476zm-67.448 2.476-.22 1.161c-.118.64-.6 1.93-1.084 2.875-.632 1.233-.769 1.776-.476 1.894.748.303.936.215 1.837-.77.492-.54 1.615-1.292 2.485-1.676 1.79-.792 2.894-1.836 2.894-2.723 0-.852-.743-.735-1.666.248-.695.74-.818.763-1.086.285-.263-.471-.382-.428-.875.324l-.572.857-.609-1.228zm44.99.161c-.2 0-.258.337-.142.8.122.485-.075 1.422-.495 2.37-1.043 2.358-.85 3.438.8 4.418.801.476 2.395.233 3.18-.476.633-.573 1.053-3.126.475-2.904-.193.074-.528.58-.733 1.123-.24.634-.609.981-1.028.981-1.128 0-1.504-.84-1.295-2.865.197-1.902-.145-3.447-.761-3.447zm-17.306 5.084c.281-.006.537.031.723.114.478.214.239.292-.942.314-1.427.028-1.497 0-.648-.285.273-.092.585-.138.867-.143zm-7.997.238c.035.006.038.077.038.21 0 .178-.22.616-.505.97-.487.609-.506.593-.133-.19.333-.7.522-1.003.6-.99zm14.508.78c-.267-.032-.19.448.22 1.438.212.515.347 1.058.313 1.21-.034.15.083.183.257.075.175-.108.417-.032.543.172.126.204.694.579 1.266.828 1.396.607 2.363.595 3.637-.067 1.197-.621 1.16-.652-1.6-.961-1.796-.202-2.135-.37-3.408-1.695-.619-.644-1.02-.974-1.228-1zm-18.45 2.333c.175-.01.375.031.62.095.685.18.622.317-1.02 2.104-2.7 2.94-3.978 4.746-5.425 7.73-.94 1.935-1.65 2.957-2.447 3.484-.621.412-1.373.75-1.666.743-.293-.007-.062-.22.505-.466.566-.247 1.107-.66 1.209-.924.154-.403-.031-.441-1.114-.152-1.455.388-2.972.034-3.237-.771-.141-.428-.095-.44.38-.048.807.666 3.515.522 4.532-.238 1.065-.795.84-1.21-.6-1.085l-1.123.086.724-.762c.403-.427 1.022-1.342 1.37-2.018a7.69 7.69 0 0 1 3.228-3.304c.554-.301 1.538-1.366 2.18-2.37 1.02-1.596 1.362-2.074 1.885-2.104zm-21.324 1.219c.023-.006.043-.001.067 0 .146.007.312.153.428.456a.506.506 0 0 1-.304.648c-.316.12-.476-.034-.476-.467 0-.372.128-.594.285-.637zm59.195 0c-.148.003-.316.162-.448.504-.38.99-.2 1.754.914 3.856.614 1.157 1.232 2.484 1.371 2.941.243.799.199.775-.885-.257-1.181-1.124-3.842-2.031-3.018-1.028.227.276.301.613.171.743-.13.13.008.148.295.038.34-.13.88.213 1.562.99.935 1.065 1.037 1.404 1.037 3.265 0 1.176.184 2.26.41 2.485.61.61 1.712.519 1.466-.124-.586-1.526-.57-2.161.095-3.237 1.116-1.805.908-3.06-.971-6.035-.914-1.448-1.657-2.98-1.657-3.399 0-.49-.152-.747-.342-.742zm35.185.333c.02-.005.032-.002.048 0 .159.018.099.357-.248.961-.749 1.305-.417 1.529 1.028.676 1.447-.853 2.28-.652 2.78.676.227.602.622 1.003.99 1.01.59.008.59.018 0 .36-.482.282-.773.19-1.4-.399-.886-.833-2.316-.767-4.197.171-1.088.543-1.266.597-1.266.39 0-.412 1.146-2.786 1.58-3.274.311-.35.548-.54.685-.571zm-69.18.095c-.39.102-1.893 2.026-1.905 2.542-.008.338-.14.244-.419-.257-.656-1.182-.893-.53-.904 2.56-.007 1.98-.166 3.047-.504 3.494-.269.355-.486.846-.486 1.086 0 .755 2.14.524 2.904-.315.976-1.072 1.3-1.814 1.76-4.055.225-1.092.482-2.175.572-2.409.38-.99-.617-.32-1.219.82-.786 1.488-.864.872-.18-1.381.272-.898.483-1.8.475-2-.002-.068-.04-.1-.095-.085zm-22.153 2.275c.217.002.642.046 1.323.124 1.005.116 1.978.35 2.151.514.174.164.606.305.971.305.517 0 .577.08.267.39-.22.22-.4.528-.4.685 0 .387 2.82-.013 4.589-.647.788-.282 1.515-.436 1.608-.343.094.094-.325.935-.932 1.857-.608.921-1.31 1.675-1.552 1.685-.297.012-.208-.266.257-.857 1.194-1.518.653-1.991-.886-.78-1.085.853-1.545.85-1.085-.01.357-.666.35-.674-.895-.143-1.894.809-2.502 1.027-3.57 1.286-.852.206-.908.167-.533-.286.236-.283.572-.413.762-.295.193.12.248.058.124-.143-.123-.198-.074-.455.114-.571.188-.116.315-.633.276-1.142-.053-.69-.22-.89-.638-.781-.309.08-.982-.094-1.504-.39-.59-.334-.81-.46-.447-.457zm70.96 2.313c-.398.4 1.014 2.429 2.333 3.351 2.756 1.928 2.728 1.908 1.885 1.695-.933-.235-.985.408-.076.895 1.126.602.753.906-1.143.923-.998.01-1.97.112-2.16.229-.653.403-.351.724.561.59.503-.074 1.657.151 2.57.514 2.205.875 2.603.789 2.97-.695.372-1.497-.195-2.451-2.494-4.15a73.176 73.176 0 0 1-2.894-2.276c-.786-.659-1.485-1.142-1.551-1.076zm-19.04 2.171c-.069.006-.17.119-.313.314-.663.906-.517 2.726.314 3.894.41.576.702 1.127.657 1.218-.045.092.062.172.228.172.167 0 .827.416 1.476.933 1.012.807 1.133 1.027.8 1.56-.308.493-.274.866.17 1.8.639 1.338 1.267 1.485 2.238.514.494-.494.609-.91.448-1.58-.4-1.666-1.424-3.347-2.59-4.236-.634-.484-1.245-1.184-1.361-1.552-.148-.467-.319-.567-.562-.324-.243.244-.175.636.248 1.285.549.844.552.887.028.457-.857-.702-1.496-2.113-1.59-3.503-.046-.683-.074-.962-.19-.952zm35.405 1.837c.176.002-.015.15-.409.448-.355.268-1.177.478-1.828.466-1.144-.021-1.131-.048.476-.495 1.04-.289 1.586-.422 1.761-.419zm-6.445.038c.09-.023.23.125.324.372.225.585.023.701-.305.171-.12-.195-.144-.436-.057-.523a.087.087 0 0 1 .038-.02zm-19.22.895c-.338.068-.171.667.647 2.456.457 1 .828 2.17.828 2.609 0 .438.116.905.248 1.038.342.341 1.076-.78 1.076-1.638 0-.75-2.255-4.465-2.714-4.465-.026 0-.063-.005-.085 0zm7.235 2.447c.09.002.104.13.019.352-.221.576-.467.688-.467.21 0-.172.153-.403.334-.514.047-.03.084-.048.114-.048zm-13.27 2.97c.09-.024.228.134.323.38.225.587.023.693-.305.163-.12-.195-.144-.437-.057-.524a.087.087 0 0 1 .038-.019zm-14.347.038c.01-.005.025 0 .038 0 .107 0 .31.132.704.42.646.47.82.905.829 2.017.006.777-.128 1.41-.305 1.41s-.238.23-.133.504c.104.273.304.425.438.343.375-.232 2.5 1.326 3.141 2.303.316.482.526 1.021.467 1.2-.06.178-.376-.13-.705-.686-.57-.963-2.437-2.227-2.78-1.885-.089.09.114.566.448 1.076l.609.933-1.047-.619c-.817-.482-1.08-.901-1.219-1.942-.306-2.286-2.131-3.266-4.503-2.427-.594.21-.75.163-.637-.172.08-.244-.164-.71-.543-1.028-.68-.568-.669-.57.552-.58.682-.006 1.856.24 2.608.542 1.474.59 1.95.34 1.962-.99.002-.251.003-.388.076-.419zm-8.997 1.523h1.333l-.857 1.02c-1.04 1.236-.859 1.682.572 1.418.989-.184 1.03-.165.542.352-.577.61-1.486.763-2.39.38-.87-.368-.74.663.163 1.295.406.285 1.103.524 1.542.524.653 0 .713.078.39.466-.322.389-.213.507.552.638.514.088.212.135-.657.105-1.075-.038-1.58.077-1.58.362 0 .23.128.418.276.418.148 0 .56.219.914.486.62.467.611.48-.152.343-.437-.08-1.033-.367-1.343-.648-.727-.658-1.1-.296-.618.61.324.61.31.642-.124.285-.749-.617-.984-.114-.438.943.28.54.982 1.098 1.656 1.342.778.281 1.018.51.743.685-.903.574-2.479-.14-3.218-1.456-.43-.768-.431-1.149-.047-2.818.244-1.063.516-2.454.609-3.094.093-.64.385-1.29.638-1.438.346-.2.368-.43.104-.923-.507-.947-.127-1.295 1.39-1.295zm14.1.829.761 2.037c.451 1.206.7 2.493.619 3.16l-.134 1.114-.047-1.075c-.03-.594-.027-1.123.019-1.18.046-.059-.312-.492-.8-.943-.756-.701-.857-.983-.657-1.961zm22.038.504c.361 0 .329.146-.133.657-.331.366-.73.666-.886.666-.156 0-.095-.3.134-.666.228-.365.626-.657.885-.657zm-50.275 1.561c.235-.003.194.169-.142.505-.65.649-.454.917.685.952 1.023.031 1.035.053.248.305-1.307.418-2.48.374-3.161-.124-.584-.427-.52-.511.857-1.123.768-.342 1.279-.511 1.513-.515zm38.251.429c.425 0 .326.232-.41 1-.524.548-.994.99-1.056.99-.062 0 .107-.442.39-.99.284-.549.773-1 1.076-1zm-34.633 1.675c.183 0 .103.137-.171.315-.275.177-.646.323-.829.323-.182 0-.112-.146.162-.323.274-.178.655-.315.838-.315zm28.122.98c.182 0 .236.151.123.334-.112.183-.35.333-.533.333-.182 0-.246-.15-.133-.333.113-.183.36-.333.543-.333zm.98.049a.917.917 0 0 1 .372.057c.265.106.187.184-.2.2-.35.014-.549-.071-.438-.181.055-.055.15-.072.266-.076z"/></svg>