<svg xmlns="http://www.w3.org/2000/svg" width="1280" height="1150.742"><g style="display:inline"><path style="fill:#002868;fill-opacity:1;stroke-width:12.3492;stroke-linecap:round;stroke-linejoin:round;paint-order:fill markers stroke" d="M0 766.718h1280v384.024H0z"/></g><path style="fill:#fff;fill-opacity:1;stroke-width:10;stroke-linecap:round;stroke-linejoin:round;paint-order:fill markers stroke" d="m260.983 837.062-42.786-13-25.918 36.44-.858-44.71-42.665-13.389 42.256-14.631-.45-44.715 26.972 35.666 42.387-14.246-25.585 36.674z" transform="matrix(1.16398 0 0 1.1728 -5.265 -24.88)"/><path transform="matrix(1.16398 0 0 1.1728 387.238 -30.37)" d="m260.983 837.062-42.786-13-25.918 36.44-.858-44.71-42.665-13.389 42.256-14.631-.45-44.715 26.972 35.666 42.387-14.246-25.585 36.674z" style="display:inline;fill:#fff;fill-opacity:1;stroke-width:10;stroke-linecap:round;stroke-linejoin:round;paint-order:fill markers stroke"/><path transform="matrix(1.16398 0 0 1.1728 768.15 -23.507)" d="m260.983 837.062-42.786-13-25.918 36.44-.858-44.71-42.665-13.389 42.256-14.631-.45-44.715 26.972 35.666 42.387-14.246-25.585 36.674z" style="display:inline;fill:#fff;fill-opacity:1;stroke-width:10;stroke-linecap:round;stroke-linejoin:round;paint-order:fill markers stroke"/><g style="display:inline"><path style="fill:#bf0a30;fill-opacity:1;stroke-width:17.0356;stroke-linecap:round;stroke-linejoin:round;paint-order:fill markers stroke" d="M0 0h98.462v766.718H0z"/><path style="fill:#fff;fill-opacity:1;stroke-width:17.0356;stroke-linecap:round;stroke-linejoin:round;paint-order:fill markers stroke" d="M98.462 0h98.462v766.718H98.462z"/><path style="fill:#bf0a30;fill-opacity:1;stroke-width:17.0356;stroke-linecap:round;stroke-linejoin:round;paint-order:fill markers stroke" d="M196.923 0h98.462v766.718h-98.462z"/><path style="fill:#fff;fill-opacity:1;stroke-width:17.0356;stroke-linecap:round;stroke-linejoin:round;paint-order:fill markers stroke" d="M295.385 0h98.462v766.718h-98.462z"/><path style="fill:#bf0a30;fill-opacity:1;stroke-width:17.0356;stroke-linecap:round;stroke-linejoin:round;paint-order:fill markers stroke" d="M393.846 0h98.462v766.718h-98.462z"/><path style="fill:#fff;fill-opacity:1;stroke-width:17.0356;stroke-linecap:round;stroke-linejoin:round;paint-order:fill markers stroke" d="M492.308 0h98.462v766.718h-98.462z"/><path style="fill:#bf0a30;fill-opacity:1;stroke-width:17.0356;stroke-linecap:round;stroke-linejoin:round;paint-order:fill markers stroke" d="M590.769 0h98.462v766.718h-98.462z"/><path style="fill:#fff;fill-opacity:1;stroke-width:17.0356;stroke-linecap:round;stroke-linejoin:round;paint-order:fill markers stroke" d="M689.231 0h98.462v766.718h-98.462z"/><path style="fill:#bf0a30;fill-opacity:1;stroke-width:17.0356;stroke-linecap:round;stroke-linejoin:round;paint-order:fill markers stroke" d="M787.692 0h98.462v766.718h-98.462z"/><path style="fill:#fff;fill-opacity:1;stroke-width:17.0356;stroke-linecap:round;stroke-linejoin:round;paint-order:fill markers stroke" d="M886.154 0h98.462v766.718h-98.462z"/><path style="fill:#bf0a30;fill-opacity:1;stroke-width:17.0356;stroke-linecap:round;stroke-linejoin:round;paint-order:fill markers stroke" d="M984.615 0h98.462v766.718h-98.462z"/><path style="fill:#fff;fill-opacity:1;stroke-width:17.0356;stroke-linecap:round;stroke-linejoin:round;paint-order:fill markers stroke" d="M1083.077 0h98.462v766.718h-98.462z"/><path style="fill:#bf0a30;fill-opacity:1;stroke-width:17.0356;stroke-linecap:round;stroke-linejoin:round;paint-order:fill markers stroke" d="M1181.539 0h98.462v766.718h-98.462z"/></g><g style="display:inline"><path style="display:inline;fill:#092484;fill-opacity:1;stroke-width:1.14388" d="M780.657 279.426c-9.305.012-19.745 5.105-32.73 15.878-7.996 6.633-13.171 8.113-21.908 6.262-8.142-1.725-17.985-6.416-23.423-11.164-2.062-1.8-5.794-4.317-8.293-5.592-2.5-1.275-4.544-2.846-4.544-3.49 0-.644-.644-1.059-1.43-.922-.787.136-4.776-.11-8.865-.55-10.547-1.133-23.712 1.368-34.938 6.638-8.884 4.17-9.342 4.58-13.425 12.046l-4.227 7.73-10.024 3.474c-5.513 1.911-12.339 4.126-15.17 4.922-2.831.796-5.92 2.074-6.863 2.84-.944.766-6.024 3.544-11.29 6.175-5.265 2.63-13.825 7.526-19.02 10.878-5.197 3.352-18.133 10.599-28.747 16.104-10.615 5.504-20.586 11.154-22.159 12.555-4.74 4.223-17.431 12.477-21.06 13.698-2.373.798-3.675 2.182-4.302 4.575-.698 2.667-3.507 5.217-12.598 11.44-9.665 6.614-12.755 9.498-17.78 16.585-11.305 15.95-19.23 34.655-34.648 81.788-4.743 14.498-5.8 19.374-6.81 31.456-2.184 26.132-1.052 45.584 4.057 69.777 1.5 7.105 2.47 9.169 5.641 12.01 6.451 5.78 9.717 13.79 9.717 23.839 0 7.44-3.215 33.662-5.262 42.913-2.975 13.451-8.31 27.884-12.958 35.054-5.752 8.873-15.09 18.874-17.625 18.874-.906 0-2.716 2.683-4.053 6.005-2.036 5.062-2.246 6.905-1.336 11.725 1.802 9.537 4.018 16.302 6.093 18.595l5.565 5.797 4.317 4.676c3.226 3.495 5.194 4.676 7.785 4.676 1.908 0 4.13.8 4.942 1.779 3.188 3.841 5.715 4.296 8.635 1.553 1.514-1.422 2.76-3.912 2.768-5.532.01-1.62.327-4.105.706-5.52l2.717-12.912c1.264-7.492 1.498-7.918 3.99-7.292 2.324.583 3.166-.293 6.9-7.154 2.339-4.3 6.059-10.525 8.266-13.836 2.207-3.31 5.176-9.23 6.597-13.155 1.42-3.924 2.955-7.135 3.41-7.135.982 0 2.949 5.076 6.221 16.06 2.115 7.099 2.328 9.999 1.788 24.449l.864 18.4-.77 7.818c-1.116 11.32-.113 12.191 15.918 13.85 9.629.995 14.06.979 18.874-.07 3.46-.754 9.38-1.417 13.154-1.475l6.864-.105-.394-5.147c-.216-2.831-1.034-7.015-1.818-9.296l-1.426-4.147-.187-2.252c-.595-1.12-2.66-7.51-4.59-14.2-3.153-10.936-3.536-13.997-3.813-30.313-.3-17.745-.226-18.39 3.331-29.015 2.002-5.976 4.175-15.215 4.833-20.53 1.384-11.185 2.543-13.123 5.06-8.478 1.753 3.235 1.771 3.184 1.816-4.383.026-4.21.55-7.963 1.164-8.342.615-.38 3.703-.998 6.864-1.372 5.728-.678 5.746-.67 5.764 2.625.01 1.93.376 2.74.88 1.946 1.38-2.17 6.815-3.789 12.719-3.789h5.462l1.672-8.865c1.998-10.598 4.115-11.652 6.32-3.146.815 3.146 1.491 7.308 1.504 9.247.035 5.658 1.311 5.417 4.186-.788 3.025-6.53 5.197-6.852 6.267-.932.654 3.617.719 3.669.858.684.113-2.417.653-3.135 2.151-2.851 1.418.269 2.124 1.712 2.42 4.944l.42 4.567 1.399-4.004c.77-2.202 2.1-4.003 2.955-4.003 2.544 0 8.827 9.253 9.67 14.242.43 2.547 1.194 4.632 1.7 4.632.505 0 1.743-2.06 2.75-4.576 1.007-2.517 2.305-4.576 2.884-4.576.58 0 1.4 2.06 1.826 4.576 1.06 6.275 2.404 5.737 3.237-1.298.68-5.741 1.378-7.624 2.435-6.566.442.442 1.83 8.518 3.262 18.988.787 5.749 1.757 3.322 2.473-6.182.418-5.55.966-10.733 1.218-11.52 1.067-3.338 2.651-.933 3.963 6.02.773 4.097 1.804 7.695 2.29 7.995.486.3 1.235-1.795 1.665-4.658.927-6.183 2.679-6.14 4.845.119 2.185 6.31 3.338 6.98 2.829 1.644-.239-2.503-.11-5.392.284-6.419.662-1.725.872-1.725 2.786.007 2.749 2.488 3.485 1.49 2.779-3.773-.924-6.884 1.659-6.986 4.535-.179 2.477 5.863 5.086 8.03 3.91 3.249-.348-1.416-.736-7.44-.86-13.387-.243-11.663.97-14.122 4.037-8.19 1.465 2.833 1.77 7.992 1.711 28.956-.039 14.03-.44 29.198-.894 33.71-.785 7.832-1.082 8.483-6.548 14.3-6.99 7.438-10.316 12.736-12.455 19.845-1.443 4.795-1.42 5.957.199 10.132 2.01 5.184 10.114 17.202 13.887 20.594l5.192 3.863 2.592 3.25 2.591 3.251 3.189-2.95 3.185-2.95 1.144-.898.333-5.148c.295-4.551 10.68-30.359 12.889-32.028.416-.315 1.682-2.374 2.81-4.576 1.13-2.202 3.495-5.805 5.26-8.007 1.764-2.202 4.556-8.02 6.202-12.929 2.87-8.564 2.936-9.328 1.637-18.874-1.177-8.655-1.113-10.506.5-14.238 1.021-2.36 2.455-4.29 3.187-4.29.73 0 5.29 1.877 10.13 4.17l8.797 4.166.767 9.2c.421 5.06 2.096 14.498 3.72 20.977l2.95 11.78 2.398-3.128c3.925-5.118 4.536-5.125 9.055-.134 3.155 3.486 4.29 5.75 4.29 8.56 0 2.926.401 3.665 1.715 3.16.944-.361 1.716-.425 1.716-.14s1.579 4.845 3.508 10.132c6.83 18.723 9.77 29.87 8.445 32.015l.511 1.34.744 3.57c1.867 8.973 7.946 11.758 17.873 8.189 5.175-1.861 5.754-1.87 8.432-.114 1.582 1.036 3.366 1.58 3.968 1.208.601-.371 5.35-1.595 10.55-2.719l9.454-2.042-.357-4.481-.355-4.48-2.105-3.655c-2.58-2.325-5.373-7.747-10.197-19.79-3.654-9.122-7.304-18.645-8.112-21.161-.807-2.517-2.114-5.348-2.904-6.292-.79-.943-2.595-7.635-4.01-14.87-2.694-13.77-6.054-24.286-14.223-44.504-4.463-11.046-4.849-12.785-4.359-19.656.317-4.436-.175-11.026-1.195-16.014-1.297-6.344-1.491-10.78-.773-17.628.596-5.688.488-13.48-.286-20.59-1.75-16.084-1.752-16.038.547-15.855 1.101.087 2.002.052 2.002-.078s-.811-2.97-1.803-6.307c-2.436-8.205-.79-9.927 4.544-4.757l3.888 3.77-2.17-6.58c-1.193-3.62-2.171-9.648-2.171-13.399 0-6.327.17-6.775 2.361-6.202 2.273.595 2.292.51.483-2.252-1.548-2.362-1.678-3.813-.726-8.206 2.62-12.096 2.613-12.196-1.667-17.69-3.892-4.996-3.996-5.38-3.233-12.13.983-8.683 3.649-9.564 6.377-2.11l1.778 4.862.836-6.645c.638-5.074 1.246-6.56 2.578-6.291 1.897.383 5.998 10.047 6.217 14.651.127 2.65.201 2.608 1.01-.572.48-1.887.942-5.233 1.026-7.435.084-2.202.66-4.776 1.28-5.72 1.001-1.524 1.25-1.524 2.252 0 .62.944 1.172 2.746 1.229 4.004.056 1.259 1.085 4.347 2.285 6.864l2.183 4.575-.686-7.721c-.762-8.583.12-9.486 5.302-5.433 1.573 1.23 3.406 2.249 4.075 2.263 1.672.035 6.719 5.588 8.856 9.747 2.137 4.16 2.881 2.756 3.338-6.291l.317-6.291 1.89 3.418 1.892 3.418.811-5.42c.447-2.981 1.23-5.42 1.736-5.42.507 0 1.777 2.574 2.822 5.72 1.045 3.145 2.186 5.719 2.538 5.719.352 0 .334-2.574-.038-5.72-.8-6.76.46-7.295 4.066-1.729 3.39 5.234 4.496 5.062 3.597-.558-.84-5.252.726-6.028 4.676-2.317 4.487 4.216 7.277 3.497 10.84-2.786 1.77-3.12 3.764-5.856 4.433-6.08.669-.222 1.787 1.817 2.486 4.532.699 2.714 2.254 8.023 3.456 11.798 2.06 6.467 2.656 10.338 5.71 37.176 2.68 23.542 4.494 34.103 7.293 42.426 3.247 9.656 9.518 24.117 10.858 25.038.477.329 2.087 3.17 3.575 6.316s5.619 9.066 9.182 13.155c3.563 4.09 8.949 11.038 11.968 15.442 3.02 4.404 7.087 9.855 9.04 12.114 1.952 2.259 4.322 5.005 5.265 6.103 1.557 1.812 5.703 5.083 29.895 23.573 5.302 4.052 7.785 6.774 8.235 9.026l.646 3.224 6.635-1.327c6.635-1.328 6.637-1.33 7.273-6.046.35-2.594 1.312-5.535 2.14-6.533 2.055-2.476.027-4.787-5.036-5.737-2.14-.402-7.832-3.138-12.65-6.081-10-6.11-19.843-16.38-29.928-31.222-7.704-11.338-9.617-14.017-15.661-21.924-7.57-9.9-12.866-24.072-14.924-39.935-2.24-17.263-2.481-52.483-.36-52.482.786 0 4.078 1.008 7.314 2.238 10.16 3.862 24.671 5.575 38.155 4.507 15.332-1.215 25.653-3.493 32.846-7.255 3.137-1.64 6.446-2.697 7.355-2.348 3.05 1.17 11.204-2.706 20.713-9.848 10.387-7.802 11.442-8.878 18.139-18.516 7.27-10.463 12.037-20.26 15.88-32.63 4.272-13.749 5.38-22.697 5.619-45.389.198-18.793-.947-30.05-4.656-45.755-5.668-23.998-21.515-52.046-29.406-52.046-1.763 0-.372 3.135 4.57 10.295 10.105 14.643 16.962 40.617 18.732 70.965 1.545 26.478-6.073 55.767-19.69 75.695-5.857 8.573-9.04 10.201-7.908 4.046.376-2.045 1.021-12.755 1.437-23.798.832-22.124.144-27.265-6.656-49.697-4.05-13.36-13.914-35.59-16.957-38.214-1.16-1.002-3.403-3.78-4.984-6.173-4.877-7.386-19.183-21.89-27.7-28.084-4.879-3.548-11.444-7.03-16.492-8.746-8.88-3.02-12.22-3.197-4.901-.26 9.285 3.727 29.038 22.12 37.897 35.289 6.13 9.11 16.107 29.934 16.888 35.246.423 2.873 2.028 9.084 3.568 13.802 3.975 12.178 6.127 32.215 4.915 45.755-1.032 11.532-6.017 26.146-12.401 36.352-4.027 6.437-14.949 13.571-23.365 15.261-5.944 1.194-7.109 1.048-15.371-1.928-4.916-1.77-10.86-4.408-13.206-5.862-2.347-1.454-4.723-2.643-5.281-2.643-1.326 0-26.912-23.382-32.601-29.792-5.477-6.172-5.993-7.546-8.269-21.989-1.556-9.883-2.813-13.632-8.085-24.102-3.433-6.819-9.075-16.787-12.536-22.151-6.934-10.75-16.462-28.675-16.465-30.976-.001-.808-4.106-5.825-9.12-11.149-12.76-13.547-17.192-20.408-17.192-26.62 0-6.59-9.679-24.82-15.127-28.49-4.301-2.896-12.714-6.182-16.901-6.599-1.573-.156-5.232-.66-8.13-1.12a24.79 24.79 0 0 0-3.921-.303z"/></g></svg>