<svg xmlns="http://www.w3.org/2000/svg" version="1.0" width="1280" height="853.333"><path style="fill:#bd5be5;fill-opacity:1;stroke:none;stroke-width:1.42222" d="M-837.143 33.076h1280v853.333h-1280z" transform="translate(837.143 -33.076)"/><path d="M-195.121 566.84c-.663.302-4.155 4.85-8.089 10.578-5.563 8.103-8.573 11.209-11.156 11.556-1.947.262-4.145 1.062-4.888 1.778-2.428 2.339-3.511 1.417-4.49-4-.529-2.934-1.598-6.614-2.4-8.178-2.407-4.7-8.478-12.233-9.244-11.467-.393.394.041 1.627.978 2.756 2.212 2.664 1.463 16.81-.933 17.6-.978.322-1.778-.369-1.778-1.511 0-1.143-.96-2.849-2.133-3.823-1.748-1.45-2.134-1.356-2.134.534 0 1.269-.96 2.31-2.133 2.31-1.278 0-2.133-1.329-2.133-3.288 0-4.522-2.742-7.136-5.29-5.022-1.526 1.267-3.142.442-7.555-3.867-5.934-5.795-6.442-5.565-4.311 1.867 1.11 3.872.892 4.853-1.333 6.044-3.52 1.884-4.267 1.784-4.267-.533 0-1.556-9.875-9.422-11.822-9.422-.273 0-.198 1.834.133 4.088.873 5.95-2.069 6.805-7.111 2.09l-4.356-4.045.89 4.622.888 4.622-4.178-2.133c-5.685-2.94-5.975-2.79-5.466 2.489.389 4.032 1.533 5.204 8.978 9.2 14.544 7.807 39.02 15.069 56.844 16.889l8.222.844 1.69.178c26.983 1.906 55.76-.798 79.421-14.622-1.023-.034-1.379-1.008-.844-2.4.763-1.988.24-2.261-3.511-1.511-6.17 1.234-6.931-1-2.534-7.645l3.734-5.644-9.956 5.022c-5.49 2.765-10.513 4.87-11.11 4.711-.6-.159-2.538.227-4.356.845-1.82.617-3.658.83-4.045.444-1.035-1.035 4.455-11.256 9.022-16.8 4.615-5.602 2.362-4.112-10.4 6.844-7.883 6.768-14.05 10.4-17.689 10.4-1.748 0-1.729-10.837.045-17.022.769-2.68 1.185-5.081.889-5.378-.019-.018-.045-.02-.09 0z" style="fill:#194619;fill-opacity:1;stroke-width:1.42222" transform="translate(837.143 -33.076)"/><path d="M-180.415 588.508c1.553 0 1.56-.285-.089 5.466-1.202 4.191-1.078 4.618 1.067 3.734 8.584-3.54 6.182 1.852-7.156 7.022a3.1 3.1 0 0 0 .356-1.467c0-4.247 4.143-14.755 5.822-14.755zm-28.263 3.2c.475-.015.967-.022 1.511 0l5.334.222-3.778 6.755c-2.944 5.301-3.886 6.141-4.445 4.045-.667-2.504-.95-2.464-4.622.711-1.404 1.214-4.069 2.099-5.822 2.711l-2.756-3.333c-2.13-2.533-3.855-5.99-3.822-7.69.05-2.608.44-2.368 2.534 1.556l2.488 4.667 4.8-4.933c3.413-3.521 5.257-4.608 8.578-4.711z" style="fill:#232800;fill-opacity:1;stroke-width:1.42222" transform="translate(837.143 -33.076)"/><path d="M-392.584 578.745c-.833 0-1.804 4.778-3.245 14.356-1.444 9.6-3.128 18.347-3.733 19.467-.79 1.464-2.147-.012-4.844-5.334-2.063-4.07-4.975-9.405-6.445-11.822l-2.666-4.355-1.2 7.555-1.2 7.556-5.69-7.778-5.688-7.733-.711 6.222-.711 6.222-6.178-5.156c-3.399-2.846-6.382-5.155-6.622-5.155-.241 0 .458 2.978 1.555 6.622 3.493 11.606 2.84 12.933-3.555 7.156-3.06-2.765-6.92-5.735-8.578-6.623-2.778-1.486-2.973-1.343-2.134 2 .502 1.997.49 3.645-.044 3.645s-4.742-3.623-9.378-8.045c-8.96-8.546-9.33-8.388-7.022 3.778.786 4.145 1.258 7.764 1.022 8-.236.236-3.592-.558-7.466-1.733-3.875-1.176-9.515-2.69-12.534-3.378l-5.51-1.244 3.732 3.866c2.041 2.13 3.69 4.242 3.69 4.711 0 .47-5.606-.651-12.445-2.533-14.99-4.124-15.054-4.131-13.2-.667 1.64 3.065 1.212 3.468-4.933 4.978l-4.267 1.067 7.111 2.8c10.478 4.13 10.954 5.424 2.044 5.467-8.02.038-21.054 4.685-16.977 6.044 1.173.391 7.893 1.474 14.933 2.4 7.04.927 16 2.45 19.911 3.378l7.111 1.689-6.755.4c-3.716.238-6.756 1.131-6.756 1.955 0 1.387-3.005 1.06-10.311-1.11-1.64-.488-2.489.016-2.489 1.51 0 1.946-1.355 2.16-9.422 1.334-9.168-.94-9.39-.891-8.445 2.088 1.12 3.53 1.194 3.51-9.955 1.6a2075.632 2075.632 0 0 0-13.422-2.266l-4.978-.8 4 4.222 4.044 4.222-5.466 1.378-5.423 1.378 4.267 1.733c5.555 2.259 15.585 4.072 30.578 5.511l12.089 1.156-4.978 2.31-4.978 2.268 5.111.133c2.801.064 12.081-1.159 20.623-2.711 21.104-3.836 24.72-3.636 15.51.8-8.893 4.283-6.719 4.282 12.09 0 8.213-1.87 15.204-3.148 15.51-2.845.308.304-.284 1.546-1.288 2.756-1.504 1.812-1.497 2.044.133 1.467 4.289-1.52 27.3-7.867 28.489-7.867 3.016 0 .754 2.79-5.511 6.889-3.716 2.43-5.946 4.435-4.978 4.444 3.862.037 29.944-9.051 36.622-12.755 3.911-2.17 9.031-4.362 11.378-4.89 2.347-.526 5.387-1.281 6.756-1.688 1.806-.537 2.488.044 2.488 2.178 0 1.617.256 2.977.578 2.977.323 0 5.603-.96 11.734-2.133 12.576-2.406 16.133-2.635 16.133-1.022 0 1.903-8.61 6.296-19.111 9.778l-10.045 3.333 8.49-.933c4.665-.51 18.745-2.979 31.288-5.511 12.543-2.533 23.05-4.389 23.333-4.134.284.255-1.594 1.718-4.177 3.29l-4.711 2.888 11.288.4c12.234.459 12.29.21-1.51 6.178-3.13 1.353-4.875 2.756-3.867 3.11 1.591.56 13.244-1.047 24.489-3.377 3.3-.684 3.198-.426-1.423 3.6-4.884 4.256-4.91 4.363-1.422 4.4 1.956.021 8.58-.916 14.711-2.089 14.446-2.764 20.845-2.777 20.845-.044 0 1.148-1.76 3.01-3.911 4.178-4.806 2.607-3.15 2.718 9.333.577 5.354-.918 10.872-1.246 12.267-.71 2.352.902 2.375 1.225.266 4.444l-2.266 3.466 6.71-2.044c3.708-1.125 6.916-2.036 7.112-2.045.195-.009.355 1.28.355 2.845 0 3.737.247 3.68 9.334-2.133 8.97-5.738 10.577-6.061 10.577-2.134 0 3.396.024 3.372 5.067.756 2.185-1.133 4.513-1.73 5.156-1.334 2.639 1.631.757 4.92-6.311 11.067-6.094 5.3-6.89 6.505-4.4 6.533 5.455.062 21.3-5.555 23.955-8.488 1.424-1.573 3.831-2.845 5.378-2.845 1.546 0 4.99-1.382 7.644-3.022 6.711-4.148 9.603-2.736 8.445 4.089l-.934 5.333 3.245-3.6c1.78-1.981 4.317-5.181 5.644-7.111l2.445-3.511.044 3.422.09 3.467 3.466-3.245c3.632-3.412 6.489-2.955 6.489 1.023 0 1.87.48 1.687 2.222-.8 2.136-3.05 2.3-3.062 5.955-.667 3.586 2.35 3.707 2.362 2.8 0-1.17-3.05 1.435-3.238 5.245-.356 1.942 1.47 3.253 1.64 4.533.578 1.22-1.013 3.443-1.04 6.89-.089 3.446.952 5.066.91 5.066-.089 0-1.383 8.273-.768 16.71 1.245 2.618.624 3.044.335 2.268-1.69-.858-2.234-.232-2.398 6.044-1.51 3.84.543 8.264 1.363 9.822 1.822 2.578.76 2.632.626.711-1.689-1.93-2.325-1.872-2.462.845-1.6 2.959.94 24.15 5.156 25.91 5.156.51 0-1.55-1.76-4.577-3.911-6.409-4.554-4.923-5.306 6.8-3.467 7.167 1.124 8.293.943 9.511-1.333 1.326-2.478 1.642-2.46 8 .266 4.86 2.083 6.889 2.379 7.645 1.156.726-1.175 3.419-.26 9.155 3.022 7.496 4.289 8.045 4.4 7.156 1.6-1.116-3.516.906-4.028 3.51-.889 1.324 1.595 2.299 1.732 3.69.578 1.032-.857 3.233-1.117 4.933-.578 1.96.622 3.52.32 4.267-.889.913-1.477 2.138-1.015 5.378 2.09 2.782 2.665 4.356 3.376 4.755 2.177.465-1.396 1.98-1.236 6.622.622 7.548 3.02 7.836 3.006 6.934-.444-.84-3.21.045-3.478 5.333-1.467 2.611.993 4.493.908 6.444-.311 2.168-1.354 3.166-1.368 4.534 0 2.345 2.345 4 2.197 4-.356 0-1.685.73-1.78 3.778-.622 2.62.996 4.11.954 4.755-.089 1.38-2.234 31.07-2.642 32.445-.444 2.693 4.309 19.504 8.347 17.955 4.31-.948-2.471 20.594-8.033 30.089-7.777 5.548.15 8.775-.75 13.867-3.733 3.65-2.14 6.622-4.09 6.622-4.356s-2.4.376-5.333 1.422c-3.578 1.277-12.122 1.884-25.956 1.823l-20.622-.09 10.666-1.955c5.867-1.062 14.507-3.3 19.2-4.978 9.013-3.222 25.295-11.328 24.445-12.177-.276-.276-9.59 1.43-20.667 3.777-11.076 2.348-21.569 4.232-23.333 4.223-2.102-.012 1.836-3.005 11.422-8.711 8.044-4.79 14.406-8.928 14.133-9.2-.272-.273-4.933.76-10.355 2.31-14.743 4.217-16.292 3.569-6.756-2.8 7.628-5.093 14.804-11.422 12.934-11.422-.41 0-7.315 1.93-15.334 4.312-8.018 2.382-14.84 4.047-15.2 3.688-.358-.358.408-2.332 1.734-4.355 3.01-4.594 2.176-4.582-4.445-.089-2.881 1.956-6.113 3.556-7.2 3.556-1.086 0-5.837 1.94-10.533 4.31-18.82 4.783-37.933 7.27-57.156 6.845-7.504-.596-20.328-8.135-24.577-8.622-.41-1.565-7.173 1.733-8.49 1.733-1.316 0-3.51-1.41-4.888-3.11l-2.49-3.112-4.355 3.111c-5.545 3.948-5.647 3.913-6.8-1.333l-.933-4.4-2.622 4.266c-3.76 6.183-5.645 6.86-5.645 2.045 0-2.251-1.02-7.494-2.266-11.689l-2.267-7.644-3.511 7.022c-1.938 3.857-4.438 7.921-5.556 9.066-1.777 1.821-2.044 1.71-2.044-1.066 0-2.73-.52-3.04-3.778-2.222-3.323.833-3.655.59-2.667-1.778.62-1.486 2.287-5.701 3.734-9.378l2.666-6.667-9.288 6.49c-5.108 3.57-9.629 6.193-10 5.821-.372-.371.017-2.491.844-4.666 1.241-3.265-.145-2.367-8.044 5.022l-38.312 21.467-28.044 12.844c-3.528 2.08-9.499 5.533-14.133 6.533-9.418 2.033-18.313 2.486-45.156 2.445-30.062-.046-35.707-.438-56.044-4-12.436-2.178-28.542-5.442-35.823-7.289-31.186-7.911-62.216-28.05-76.044-49.378-5.186-7.998-5.307-8.112-7.822-5.333-2.538 2.804-2.586 2.802-6.578-1.022-3.842-3.681-4-3.693-4-.8 0 1.664-.562 3.356-1.244 3.777-.683.422-1.698-4.815-2.267-11.644-.798-9.58-1.478-14.355-2.311-14.356z" style="fill:#194619;fill-opacity:1;stroke-width:1.42222" transform="translate(837.143 -33.076)"/><path d="M-116.673 651.457c-3.937 3.712-9.186 9.789-13.067 13.51-5.309 5.093-10.109 8.783-10.666 8.223-.558-.56 2.497-4.137 6.8-7.956 2.888-2.563 6.647-7.671 8.666-10.8zm-13.6 4.933c-3.897 3.606-8.402 8.501-11.378 11.733-3.247 3.527-6.45 5.894-7.11 5.245-.662-.65 1.331-3.5 4.4-6.311 2.172-1.992 4.897-4.752 5.866-6.656zM22.02 645.904l.8 4.49v3.688l4.267-2.533c1.481-.875 4.99.177 5.67-.471 8.261.12 29.22-3.016 33.44-2.862l5.69.222-6.045 3.022c-3.324 1.67-6.044 3.55-6.044 4.178 0 .628 6.08 1.155 13.51 1.155 7.432 0 13.512.52 13.512 1.2 0 .68-2.88 2.081-6.4 3.067-3.52.986-6.4 2.248-6.4 2.844 0 .596 3.04 1.715 6.756 2.49 6.251 1.302 5.695 1.429-7.467 1.555l-14.222.133 3.555-2.933 3.556-2.89-3.556.712c-1.955.41-7.01 1.225-11.244 1.778l-7.69.978 2.356-3.378c2.495-3.562 3.12-6.208 1.2-5.022-.627.387-4.364 1.955-8.31 3.51l-7.156 2.845.666-3.6.712-3.555-6.09 3.11c-4.47 2.281-6.34 2.626-7.11 1.378-.733-1.185-1.719-.756-3.245 1.423l-2.178 3.11-1.022-3.2c-.918-2.892-1.153-2.938-2.4-.71-1.3 2.322-1.484 2.305-3.333-.134-1.887-2.489-1.957-2.472-2 .134-.044 2.619-.14 2.622-2.89.133-2.775-2.513-2.844-2.52-2.844 1.156v3.777l-12.044-5.955c-6.62-3.283-11.847-6.153-11.644-6.356.202-.202 3.823.554 8.088 1.69 10.357 2.755 10.395 2.774 9.378-2.312-.93-4.65-.343-4.85 6.578-2 1.907.785 2.489.34 2.489-1.956 0-3.917 2.304-3.822 4.444.178 1.647 3.078 1.733 3.088 2.8.356.254-.649.462-2.636.623-3.126 2.705-.344 2.65 2.03 3.688 4.237 1.612 3.01 1.632 3.002 4.978-.889zm-290.339-58.088 5.023 4.755 5.022 4.8.489-4.089c.442-3.791.622-3.562 2.844 2.712 1.705 4.813 1.916 6.743.711 6.71-3.003-.08-9.543-5.845-11.866-10.444zm73.779 4.755c.318.045.488.387.488 1.023 0 1.802-3.416 7.257-6.844 10.933-3.712 3.98-7.047 5.371-4.978 2.089 5.71-9.06 9.95-14.239 11.333-14.045zm-50.445.179c.03-.027.082-.007.133.043.4.392 1.377 3.112 2.178 6.045 1.356 4.968 1.292 6.765-.178 4.267-.922-1.568-2.601-9.969-2.133-10.356zm-5.689.177c.192.034.564.293 1.067.755.958.883 1.446 3.443 1.11 5.69-.429 2.877-.65 3.15-.8.977-.117-1.696-.649-4.256-1.155-5.689-.442-1.252-.543-1.79-.222-1.733zM-389.058 618.8c.94-.07 3.052.971 7.644 3.289 7.554 3.813 8.435 3.978 9.022 1.733 1.095-4.186 9.49-2.824 19.334 3.156 4.826 2.932 8.755 5.94 8.755 6.666 0 1.941-4.458 1.53-8.533-.8-4.564-2.609-5.69-2.617-5.69-.044 0 1.33-.815 1.757-2.266 1.2-1.252-.48-2.767-.054-3.378.933-.865 1.401-2.877 1.105-9.155-1.244-9.156-3.426-9.883-3.524-8.667-1.556 1.215 1.966.252 1.802-11.022-1.555-10.895-3.245-13.215-2.816-8.044 1.422l3.422 2.756-5.69-1.29c-8.039-1.832-8.564-1.701-5.777 1.379 2.434 2.689 2.232 2.727-11.511 1.91-12.794-.76-13.833-.642-12.089 1.467 1.692 2.046 1.15 2.491-4.667 3.956-5.321 1.34-6.251 2.056-4.933 3.644 1.324 1.596.755 1.948-3.155 1.956-2.638.006-9.12.39-14.4.889-5.28.498-9.6.553-9.6.089 0-.465 3.52-1.978 7.822-3.334s7.822-2.858 7.822-3.377c0-.52-1.44-1.64-3.2-2.49-2.837-1.368-2.475-1.558 3.067-1.644l6.222-.089-7.289-7.733c-4.025-4.255-7.333-8.43-7.333-9.244 0-.815 4.185.839 9.289 3.644 11.813 6.493 21.241 9.304 27.244 8.178 6.493-1.218 5.896-3.169-1.333-4.356-5.394-.886-5.662-1.093-2.49-2 1.956-.559 5.686-1.077 8.312-1.155 3.786-.113 4.612-.619 3.911-2.445-.787-2.05.347-2.214 10.178-1.333 6.073.544 12.462 1.362 14.222 1.778 2.55.602 3.2.14 3.2-2.267 0-1.286.025-2.034.756-2.089zm306.341 20.123c.306.019.209.308-.267.89-1.768 2.158-1.394 2.4 3.778 2.4 3.963 0 5.96.703 6.577 2.31.678 1.766 2.066 2.128 5.867 1.511 2.955-.48 4.668-.304 4.178.49-.455.735-.002 1.357 1.022 1.377 1.024.02 4.401 1.181 7.511 2.578l5.645 2.578-9.423-.623c-6.562-.417-11.74.174-17.022 1.911-4.178 1.374-8.487 2.805-9.555 3.2-1.569.581-1.633.115-.311-2.355 1.541-2.88 1.333-3.046-3.734-3.067-4.16-.017-4.893-.362-3.244-1.51 2.1-1.465.838-1.344-11.378 1.066-3.536.697-2.195-.193 15.644-10.534 2.602-1.508 4.2-2.252 4.712-2.222z" style="fill:#232800;fill-opacity:1;stroke-width:1.42222" transform="translate(837.143 -33.076)"/><path d="M46.26 648.034c-2.19 0-4.382.073-6.044.223-3.325.299-.605.533 6.044.533 6.65 0 9.37-.234 6.045-.533-1.662-.15-3.854-.223-6.045-.223z" style="fill:#194119;fill-opacity:1;stroke-width:1.42222" transform="translate(837.143 -33.076)"/><path d="M-343.162 124.745c-2.253.052-3.724 1.099-5.467 2.978-3.348 3.612-5.63 17.047-3.955 23.422.95 3.616 1.158 3.724 2.222 1.112 1.056-2.59 1.178-2.527 1.289.71.067 1.956.694 4.494 1.422 5.645 1.166 1.843 1.389 1.843 1.911 0 4.31-15.201 6.297-15.178 21.823.267 10.673 10.618 11.69 12.05 9.51 13.644-1.338.98-3.447 1.775-4.666 1.778-1.22.003-4.462 1.4-7.2 3.111-6.47 4.044-17.676 3.681-39.111-1.244-21.09-4.847-37.79-5.922-42.622-2.756-4.722 3.094-4.561 4.931.31 4 3.687-.704 3.76-.604 1.423 1.733-4.02 4.021-2.87 4.881 3.556 2.667 7.617-2.625 29.904-1.727 50.044 2 13.672 2.53 13.995 2.664 10.711 4.845-3.302 2.192-3.341 2.369-.933 6.044 2.254 3.44 3.287 3.778 11.733 3.778 5.092 0 11.56-.965 14.356-2.134 7.76-3.242 57.591-1.82 74.31 2.134 19.162 4.532 36.059 13.535 49.734 26.4 4.731 4.45 11.175 11.803 14.178 14.933l.089.09c2.208 3.508 4.105 7.212 6.4 10.666-1.199.145 3.499 8.255 4.578 11.066.52.864.896 1.233 1.155 1.245 2.431 10.39 5.196 20.766 6.489 31.378.023 3.732-.32 3.985-3.911 3.066-27.121-6.94-34.776-8.12-57.245-8.844-18.563-.599-25.856-.294-34.8 1.555-20.052 5.198-24.274 8.634-35.955 14.8-9.01 7.506-12.63 8.892-17.6 19.512-8.734 18.664-6.095 41.966 6.889 56.266l3.333 3.689-8.533 5.289c-10.31 6.364-20.994 16.497-26.445 25.111-12.283 19.41-11.936 45.812.845 65.956l4.4 6.977-4.667 3.69c-22.886 17.908-38.146 36.455-45.511 55.377-4.481 11.513-4.518 33.254-.089 44.311 1.723 4.302 3.143 8.782 3.156 9.956.042 4.086 13.983 21.054 23.644 28.755 27.734 22.109 54.856 31.341 113.645 38.8 24.444 3.102 66.799 1.862 86.666-2.578 18.464-4.125 25.931-6.833 41.245-14.888 13.177-6.932 34.658-22.637 39.422-28.845 1.803-2.35 6.358-8.137 10.133-12.844l6.845-8.534 5.644 5.067c17.091 15.44 49.195 34.767 61.689 37.111 2.738.514 4.978 1.414 4.978 2.045 0 1.984 13.912 4.248 26.044 4.222 26.422-1.585 52.285-10.689 69.6-31.6 14.966-16.894 16.875-20.49 17.778-33.378.692-9.877.582-10.35-2.844-11.911-2.912-1.327-4.75-1.048-10.134 1.333-3.619 1.601-6.578 3.47-6.578 4.178 0 .709-5.28 6.72-11.733 13.333-17.817 18.26-28.467 22.354-55.689 21.511-12.75-.394-14.877-.862-22.044-4.888C11.29 601.669-9.7 585.74-22.006 574.212l-10.311-9.644 2.71-7.067c2.164-5.61 2.739-10.647 2.712-24.8-.056-29.27-7.227-53.272-22.667-76.044-8.059-11.887-8.642-13.28-7.555-17.867 1.933-8.163 1.816-31.39-.223-39.778-4.81-19.798-15.947-37.31-35.377-55.644l-12.667-11.911-.845-13.512c-4.566-70.394-49.993-132.132-111.288-151.244-12.118-3.778-29.346-6.622-39.956-6.622-5.345 0-7.507-.934-13.067-5.556-3.66-3.042-8.043-5.936-9.733-6.444-1.69-.508-4.116-2.52-5.378-4.445-1.653-2.523-3.577-3.466-6.889-3.466-6.31 0-21.806-4.603-35.822-10.623-7.711-3.312-11.904-4.866-14.8-4.8zm.222 4.178c1.371-.085 2.43 1.06 3.023 3.422.49 1.956 1.843 3.556 2.977 3.556 1.249 0 1.74-.842 1.245-2.133-1.273-3.316 2.506-2.631 15.733 2.844 6.614 2.738 13.416 4.978 15.111 4.978 4.697 0 18.91 8.101 27.734 15.822 7.093 6.208 8.61 6.933 14.755 6.933 4.788 0 7.967.89 10.622 2.978 3.092 2.432 4.173 2.643 5.911 1.2 2.954-2.451 6.534-.546 17.378 9.156 9.04 8.086 11.505 8.986 22.222 8.222 2.278-.162 5.338.814 6.845 2.178 2.243 2.03 2.92 2.091 3.911.489 1-1.619 2.113-1.522 6.444.533 4.916 2.333 5.06 2.642 3.112 5.556-1.836 2.743-1.74 3.656.622 8.31 1.462 2.881 3.295 5.644 4.089 6.134.793.49 1.422 3.408 1.422 6.444 0 3.037.64 5.917 1.422 6.4 2.82 1.743 1.37 3.879-2.178 3.2-3.384-.647-3.449-.564-1.289 1.823 1.266 1.399 4.643 3.104 7.512 3.777 4.523 1.063 5.257 1.853 5.644 5.823.29 2.985 1.235 4.577 2.667 4.577 1.345 0 1.869-.809 1.377-2.088-.44-1.149-.147-2.52.667-3.023 1.855-1.146 9.655 7.795 9.733 11.156.08 3.456 2.392 3.113 3.334-.489 1.029-3.936 5.839-3.043 6.444 1.2.29 2.027 1.43 3.2 3.156 3.2 1.492 0 3.74 1.6 5.022 3.556 1.281 1.955 3.228 3.555 4.311 3.555 1.083 0 1.956.728 1.956 1.645 0 .916 1.075 2.808 2.355 4.222 2.155 2.381 2.127 2.678-.044 3.51-1.29.496-3.281.078-4.445-.888-1.672-1.388-2.133-1.384-2.133 0 0 1.142-1.174 1.453-3.422.889-3.01-.756-3.66-.17-5.156 4.489-.941 2.933-2.58 6.332-3.644 7.555-1.452 1.67-1.532 2.601-.311 3.823 1.997 1.997-.823 6.044-4.223 6.044-1.74 0-1.548.694.89 3.289 1.7 1.81 3.066 4.274 3.066 5.467 0 2.377 5.657 5.466 10 5.466 1.767 0 3.766 1.96 5.6 5.556 4.115 8.066 5.747 8.417 5.733 1.244-.011-5.693-1.878-25.138-3.51-36.666-1.706-12.042 2.382 2.827 5.021 18.266 3.615 21.142 3.615 25.822 0 25.822-2.912 0-5.218 2.426-3.733 3.912.483.482 1.608.08 2.533-.845 2.435-2.435 8.223-2.08 8.223.489a2.14 2.14 0 0 0 2.133 2.133c2.855 0 2.682 1.807-.533 5.778l-2.623 3.289-2.444-4.667c-1.76-3.404-3.054-4.413-4.8-3.733-4.388 1.709-5.142 1.483-5.644-1.822-.707-4.65-5.158-3.48-5.734 1.51-.247 2.145-1.33 3.912-2.4 3.912-1.07 0-2.152 1.76-2.4 3.911-.323 2.811-1.144 3.767-2.933 3.467-1.369-.23-2.489.424-2.489 1.466 0 1.043-1.28 4.443-2.844 7.512-1.565 3.068-2.845 5.755-2.845 6 0 .245 1.6 1.078 3.556 1.822 3.73 1.418 4.429 3.577 2.222 7.066-.836 1.323-.783 2.754.178 3.912 1.127 1.358.917 1.822-.8 1.822-1.27 0-2.311.96-2.311 2.133a2.14 2.14 0 0 0 2.133 2.133c1.173 0 2.133.66 2.133 1.467 0 2.268-4.241 3.359-6.044 1.556-.886-.886-3.09-1.6-4.89-1.6-2.068 0-3.288-.852-3.288-2.311 0-1.847-.406-1.982-2.044-.623-3.192 2.649-10.045 1.31-10.045-1.955 0-3.864 3.376-4.499 4.711-.89 1.112 3.007 1.112 3.018 4.49-.577l3.377-3.6h-3.778c-5 0-4.929-2.532.089-3.111 4.572-.527 8.048-6.523 7.867-13.511-.08-3.026 1.044-5.538 3.333-7.689 4.17-3.917 4.286-6.412.489-8.444-1.587-.85-2.504-2.146-2.045-2.89 1.358-2.196 3.512-1.542 3.511 1.067 0 1.896.38 2.065 1.734.711 1.342-1.342 1.357-2.744.044-6.222-1.43-3.788-1.348-4.737.622-6.178 2.615-1.912 1.61-6.632-1.288-6.044-1.139.231-1.717-.928-1.556-3.156.347-4.79-2.147-11.009-4.844-12.044-1.944-.746-1.923-1.14.222-3.511 2.013-2.224 2.139-3.154.666-5.511-.975-1.562-2.61-2.53-3.644-2.134-1.052.404-1.911-.208-1.911-1.422 0-1.193-.347-3.13-.8-4.31-.614-1.601-.11-1.987 2.044-1.423 2.696.705 2.775.483 1.2-3.689-1.422-3.77-1.904-4.144-3.244-2.311-1.38 1.886-1.822 1.74-3.245-1.022-2.378-8.209-5.118-15.668-10.31-22.356l-3.067-4.355c.272.237-3.156-5.258-3.156-5.365-2.837-5.534-2.974-4-7.022-8.591-2.096-3.024-6.007-6.677-8.711-8.133-2.704-1.457-4.934-3.107-4.934-3.645 0-1.455-12.797-9.066-19.066-11.333-3.008-1.088-5.772-2.746-6.134-3.689-.361-.943-3.482-2.15-6.933-2.667-3.45-.517-6.267-1.484-6.267-2.177 0-.694-2.837-1.245-6.31-1.245-3.474 0-6.729-.72-7.245-1.555-.517-.836-1.782-1.191-2.8-.8-1.018.39-2.244.333-2.711-.134-.467-.467-3.886-.956-7.6-1.066-5.38-.16-6.835-.72-7.245-2.845-.467-2.428-.78-2.349-3.244.8l-2.667 3.467-3.644-4.09c-3.642-4.107-6.865-4.272-3.467-.177 1.005 1.211 1.439 2.606.934 3.111-.506.505-7.238.75-14.934.578-9.623-.215-15.955.41-20.266 1.911-6.99 2.434-13.5 2.867-14.667.978-.423-.683 2.336-1.674 6.133-2.178 4.607-.611 8.265-2.152 10.978-4.667l4.044-3.777-4 1.022c-2.837.712-3.689.529-2.977-.622 1.476-2.39 9.88-5.6 14.666-5.6 8.124 0 6.09-3.63-10.577-18.711-8.952-8.1-17.853-15.409-19.778-16.223-1.926-.814-5.464-3.295-7.822-5.555-4.023-3.854-4.154-4.283-1.956-6.711 1.42-1.57 2.667-2.378 3.733-2.445zm-6.71 10.045c.365-.03.739.217 1.066.8.336.6-.26 3.03-1.289 5.377l-1.867 4.267-.044-4.578c-.046-3.236 1.036-5.775 2.133-5.866zm4.666 4.177c.319.042.584.575.978 1.6.503 1.311-.09 3.826-1.334 5.6l-2.266 3.245.044-3.511c.011-1.934.605-4.493 1.333-5.645.57-.9.926-1.33 1.245-1.289zm42.933 2.8c-.908.013-1.466 1.049-1.466 3.112 0 2.367 1.998 4.46 7.466 7.822 4.105 2.524 7.565 4.622 7.69 4.622.123 0-.444-2.265-1.29-5.022-1.02-3.327-2.645-5.281-4.8-5.822-1.786-.449-3.979-1.748-4.889-2.845-1.067-1.286-2.005-1.877-2.71-1.867zm22.445 17.023a1.11 1.11 0 0 0-.578.31c-.54.54-.122 1.983.889 3.2 1.953 2.355 4.173 2.361 4.355 0 .129-1.666-3.048-3.832-4.666-3.51zm26.577 4.844c-.323-.016-.684.195-1.11.622-.862.861-3.046 1.6-4.845 1.6-3.98 0-4.336 2.305-.533 3.511 1.514.481 2.954 2.285 3.2 4 .581 4.07 5.422 5.181 5.422 1.245 0-1.557-.8-3.118-1.778-3.467-.978-.349-1.275-1.172-.667-1.822.609-.65 3.079 1.192 5.467 4.089 2.388 2.897 4.932 4.884 5.644 4.444 1.64-1.013-4.334-9.155-6.71-9.155-.974 0-2.19-1.38-2.712-3.022-.431-1.36-.838-2.018-1.378-2.045zm27.6 2.222c.453-.024.977 0 1.512 0 6.389 0 15.688 3.263 15.688 5.511 0 2.134-2.184 3.06-3.688 1.556-.733-.732-4.805-1.837-9.023-2.444-8.844-1.273-11.273-4.256-4.489-4.623zm-14.844 1.956a1.648 1.648 0 0 0-1.333.8c-.42.677-.344 2.267.133 3.511 1.211 3.157 4.8 2.82 4.8-.444 0-2.148-2.032-3.968-3.6-3.867zm-23.822 5.778c-.957.009-1.88 1.17-2.222 3.644-.271 1.956-1.083 4.254-1.823 5.156-.881 1.074-.714 1.862.49 2.266 4.423 1.488 6.647-.562 6.31-5.822-.217-3.399-1.525-5.254-2.755-5.244zm30.355 2.222c-1.92 0-3.226 2.57-2.177 4.267.49.795 1.45 1.072 2.177.622 1.728-1.068 1.73-4.89 0-4.89zm5.29 2c-1.504.06-1.402 8.108.31 10.8 1.128 1.773 1.84 1.815 4.267.311 2.44-1.513 3.039-1.455 3.733.356.457 1.19 1.415 2.177 2.09 2.177.673 0 .85-.96.4-2.133-.52-1.35.019-2.133 1.466-2.133 1.257 0 2.267-.918 2.267-2 0-1.995-6.505-2.258-9.512-.4-1.897 1.173-3.288-.3-3.288-3.467 0-1.388-.64-2.894-1.423-3.378-.114-.07-.21-.137-.31-.133zm-27.467.844c-1.102 0-2.09.5-2.09 1.423 0 .782 1.323 1.422 2.934 1.422 1.61 0 2.528-.64 2.044-1.422-.57-.924-1.787-1.423-2.888-1.423zm8.4.711c-.53.082-.995.324-1.29.8-.483.783-.138 2.381.8 3.512 1.9 2.289 4.223 1.496 4.223-1.423 0-1.792-2.146-3.132-3.733-2.889zm8.977.045-1.466 3.289c-1.118 2.504-.974 3.574.577 4.533 3.09 1.91 4.668-.75 2.667-4.489zm28.134 4.978c-.393 0-.667.466-.667 1.377 0 .783.683 1.423 1.511 1.423.828 0 1.106-.64.622-1.423-.563-.91-1.074-1.377-1.466-1.377zm8.933 1.466a1.007 1.007 0 0 0-.489.267c-.357.357-.226 1.692.267 2.978 1.106 2.882 3.422 3.056 3.422.266 0-1.868-1.954-3.804-3.2-3.51zm9.733 1.334c-1.243 0-2.266 1.125-2.266 2.533s-.74 3.317-1.645 4.222c-1.24 1.24-1.231 2.117 0 3.6.899 1.083 1.226 2.419.711 2.934-.514.514-.244.933.623.933 2.23 0 3.12-1.839 4.044-8.445.653-4.67.36-5.777-1.467-5.777zm-20.8 1.733c-1.502.06-2.789 1.346-2 2.622.45.728 1.355 1.334 2.045 1.334 1.992 0 3.057-2.573 1.466-3.556a2.69 2.69 0 0 0-1.51-.4zm31.645 1.733c.296-.296 6.643 5.147 14.089 12.09 13.721 12.793 22.143 23.475 26.133 33.155 2.806 6.807 1.866 6.807-2.311 0-1.8-2.934-10.416-12.694-19.111-21.69-14.51-15.009-20.197-22.158-18.8-23.555zm-23.911 4.134c-.17.028-.383.101-.578.222-.782.483-1.422 1.122-1.422 1.467 0 .344.64.666 1.422.666.782 0 1.422-.683 1.422-1.51 0-.622-.334-.931-.844-.845zm-2.09 5.2c-.828 0-1.105.64-.621 1.422 1.126 1.822 2.133 1.822 2.133 0 0-.782-.683-1.422-1.511-1.422zm15.023 4.31c-.432.058-.711.768-.711 2.134 0 1.22.672 1.825 1.467 1.334.794-.492 1.072-1.495.622-2.223-.457-.74-.872-1.152-1.2-1.244-.069-.02-.116-.01-.178 0zm2.444 7.068c-.592.118-1.258.707-1.555 1.6-.293.88.187 1.36 1.067 1.066.88-.293 1.6-1.013 1.6-1.6 0-.833-.52-1.185-1.112-1.066zm14.623 18.488c-2.2 0-2.802 1.643-1.2 3.245 1.136 1.136 3.333-.118 3.333-1.911 0-.736-.96-1.334-2.133-1.334zm6.489 10c-.747 0-1.654.458-2.223 1.378-.483.782.114 1.422 1.334 1.422s2.222-.64 2.222-1.422c0-.92-.587-1.378-1.333-1.378zm5.6.267a1.612 1.612 0 0 0-.4.044c-.585.152-1.023.703-1.023 1.645a2.284 2.284 0 0 0 2.267 2.267c1.238 0 1.998-.76 1.689-1.69-.48-1.441-1.603-2.255-2.533-2.266zm15.6 6.933c-1.1-.021-1.629 1.442-.8 3.6.711 1.854 1.357 2.021 2.622.756s1.238-2.05-.045-3.333c-.679-.68-1.278-1.013-1.777-1.023zm-9.512 2.934c-.228-.05-.337.364-.355 1.289-.024 1.238.412 2.678.933 3.2 1.735 1.735 2.154-.211.622-2.845-.62-1.066-.97-1.594-1.2-1.644zm-5.377.266a1.128 1.128 0 0 0-.623.178c-.864.534-.767 2.254.312 4.622 1.36 2.985 1.843 3.256 2.222 1.29.575-2.988-.505-6.06-1.911-6.09zm20.444 2.356c-.726 0-.607 1.3.267 2.933.873 1.632 1.876 2.702 2.222 2.356.995-.996-1.027-5.289-2.489-5.289zm-4.133 1.422c-1.67 0-2.912 2.244-1.822 3.334 1.796 1.796 4.633.914 3.822-1.2-.45-1.174-1.348-2.134-2-2.134zm-3.156 4.978c-1.12.113-.963 2.174.578 5.822l1.778 4.134.533-4.134c.324-2.416-.222-4.598-1.333-5.289-.66-.41-1.182-.57-1.556-.533zm-3.066 5.511c-.32-.003-.68.147-1.023.489-1.061 1.062-.945 2.483.356 4.844 1.617 2.935 1.929 3.052 2.4.8.665-3.178-.352-6.12-1.733-6.133zm-53.6 27.911c7.862 0 42.8 13.964 42.8 17.111 0 1.033-.936 1.286-2.49.623-6.107-2.608-20.178-7.66-27.022-9.69l-7.51-2.222 3.688 4.756c2.007 2.63 4.524 5.142 5.6 5.556 2.093.802 13.511 17.299 13.511 19.51 0 1.482-2.097 1.454-11.377-.133-3.52-.601-17.006-1.9-30-2.889-17.535-1.332-23.586-2.288-23.467-3.644.287-3.267-2.688-2.762-3.156.533-.33 2.33-1.401 3.2-3.955 3.2-3.114 0-3.321-.343-1.911-2.977 2.585-4.832.304-4.887-4.178-.09-4.048 4.334-7.835 5.518-10.889 3.378-1.972-1.381-4.933-11.615-4.933-17.11 0-3.886-.477-4.404-4.578-4.8-3.08-.298-4.79-1.323-5.111-3.023-.39-2.057.167-2.35 2.978-1.644 2.728.684 3.66.225 4.266-2.09.6-2.294 1.891-2.933 5.867-2.933 5.69 0 6.308.857 2.622 3.734-2.303 1.797-2.09 2.308 2.845 6.578 2.933 2.537 5.333 5.606 5.333 6.844 0 3.278 1.599 4.386 3.778 2.578 1.413-1.173 2.727-1.06 5.11.489 3.727 2.42 20.031 8.222 23.112 8.222 1.154 0 3.338-2.425 4.844-5.378 1.507-2.952 5.949-8.38 9.867-12.044 6.182-5.783 6.763-6.762 4.4-7.511-3.52-1.118-3.558-4.934-.044-4.934zm-17.023 3.022c4.891-.025 7.2.29 7.2.934 0 .826-3.36 1.851-7.466 2.266-17.698 1.79-35.2 2.266-35.2.978 0-2.142 3.715-2.732 23.822-3.778 4.839-.251 8.71-.385 11.644-.4zm22.09 6.978c-.393 0-.667.467-.667 1.378 0 .782.682 1.422 1.51 1.422.829 0 1.106-.64.623-1.422-.563-.911-1.074-1.378-1.467-1.378zm-65.379 1.378a2.14 2.14 0 0 0-2.133 2.133 2.14 2.14 0 0 0 2.133 2.134 2.14 2.14 0 0 0 2.134-2.134 2.14 2.14 0 0 0-2.134-2.133zm124.623.222c-.575-.004-1.221.244-1.823.845-1.247 1.247-1.168 2.181.267 3.91 1.737 2.093 1.99 2.12 3.2-.044 1.314-2.347.079-4.699-1.644-4.71zm6.933 2.622c-.782 0-1.422 1.279-1.422 2.89 0 1.61.64 2.572 1.422 2.088 1.847-1.141 1.847-4.978 0-4.978zm-73.644.134c-.563-.001-1.053.119-1.378.444-.53.53-.04 1.583 1.11 2.311 2.754 1.741 4.223 1.718 4.223-.089 0-1.375-2.267-2.664-3.955-2.666zm-68.045.089a.43.43 0 0 1 .311.133c.481.48-1.388 3.12-4.133 5.866-2.746 2.746-6.143 6.943-7.556 9.334-3.817 6.462-5.506 5.267-1.822-1.29 3.365-5.986 11.156-14.136 13.2-14.044zm13.778 4.044c-1.794 0-3.092 2.197-1.956 3.333 1.602 1.602 3.29 1 3.29-1.2 0-1.173-.598-2.133-1.334-2.133zm119.467 1.422c-1.921 0-3.227 2.57-2.178 4.267.491.795 1.45 1.072 2.178.622 1.727-1.068 1.73-4.889 0-4.889zm-68.8.045c-.914.025-.452.985 1.066 2.133 3.134 2.37 5.067 2.664 5.067.8 0-1.368-3.432-3.007-6.133-2.933zm23.155 2.844c-.747 0-1.378.458-1.378 1.378 0 .782 1.003 1.422 2.223 1.422 1.219 0 1.816-.64 1.333-1.422-.569-.92-1.431-1.378-2.178-1.378zm-11.2.622c-.106.022-.18.08-.267.134-2.062 1.274-1.465 3.184 1.2 3.777 3.424.762 3.922.13 1.823-2.4-.86-1.035-2.015-1.664-2.756-1.51zm-103.733 1.734c1.043-.08 1.777 1.664 3.244 6.71 3.367 11.582 9.208 13.446 24.356 7.779 5.686-2.128 8.43-2.547 9.51-1.467 1.081 1.08.423 1.955-2.266 2.978-3.222 1.225-3.778 2.267-3.778 7.066 0 6.778-1.786 8.223-6.4 5.2-4.108-2.692-17.1-3.024-18.666-.489-1.352 2.187-3.674 16.168-3.556 21.378.05 2.151-.186 3.911-.489 3.911-.302 0-2.644-3.68-5.244-8.177-4.19-7.25-4.729-9.228-4.445-17.423.406-11.709 3.054-21.726 5.467-20.8 2.816 1.081 3.678-.81 1.2-2.622-1.989-1.454-1.989-1.845-.089-3.422.458-.38.808-.596 1.156-.622zm89.378.444c-.783 0-1.423.64-1.423 1.422 0 .783.64 1.423 1.423 1.423.782 0 1.422-.64 1.422-1.423 0-.782-.64-1.422-1.422-1.422zm-46.934 1.422c-.782 0-1.422.959-1.422 2.178 0 1.22.64 1.861 1.422 1.378 1.84-1.137 1.84-3.556 0-3.556zm55.467.134a1.41 1.41 0 0 0-.489.044.969.969 0 0 0-.444.267c-.418.417-.338 1.432.177 2.266 1.159 1.875 3.6 1.996 3.6.178 0-1.285-1.625-2.649-2.844-2.756zm14.578 1.866a1.32 1.32 0 0 0-.934.622c-.424.686-.367 1.634.134 2.134 1.352 1.352 3.288 1.084 3.288-.445 0-1.447-1.4-2.484-2.488-2.31zm66.977.756c.536.01.934.585.934 1.866 0 3.994-5.991 23.048-9.29 29.556-1.932 3.814-4.752 7.59-6.266 8.4-5.842 3.127-5.704 1.888.622-6.4 4.378-5.734 8.486-16.471 11.29-29.422.528-2.442 1.818-4.018 2.71-4zm11.067 7.2c3.186 0 2.648 5.034-1.911 18.71-2.665 7.996-5.543 14.737-6.4 15.023-3.183 1.061-3.39-2.796-.533-10 1.617-4.079 3.96-11.058 5.2-15.555 1.24-4.498 2.893-8.178 3.644-8.178zm-122.044.978c18.953-.103 42.553 3.248 59.777 9.377 6.98 2.484 8.872 3.82 9.245 6.445.715 5.036-8.998 13.481-19.911 17.289-11.59 4.043-37.534 5.201-50.4 2.266-25.79-5.882-40.624-24.096-25.467-31.289 5.676-2.693 15.384-4.027 26.756-4.088zm-68 .444c-1.186 0-2.134 1.264-2.134 2.844 0 1.58.948 2.845 2.134 2.845 1.185 0 2.133-1.264 2.133-2.845 0-1.58-.948-2.844-2.133-2.844zm26.489 5.689c-2.353.387-3.573 3.61-2.4 6.667.77 2.007 1.295 1.727 3.022-1.6 2.57-4.954 2.54-5.067-.134-5.067-.166 0-.332-.026-.488 0zm-20.534 1.422c-1.679.105-3.822 1.792-3.822 3.511 0 1.198.558 2.178 1.244 2.178 1.793 0 5.013-4.187 4-5.2-.364-.364-.862-.524-1.422-.489zm8.978 0c-.782 0-1.422.64-1.422 1.422 0 .783.64 1.423 1.422 1.423.782 0 1.422-.64 1.422-1.423 0-.782-.64-1.422-1.422-1.422zm-17.911 1.956a1.077 1.077 0 0 0-.578.177c-.782.484-1.422 1.442-1.422 2.178s.64 1.378 1.422 1.378c.782 0 1.422-1.003 1.422-2.222 0-.915-.334-1.489-.844-1.511zm-1.289 6.577c-2.497 0-2.724 1.934-.667 5.778 2.056 3.84 2.8 3.445 2.8-1.51 0-2.845-.71-4.268-2.133-4.268zm17.022 4.267c.099-.026.226 0 .356 0 .557 0 7.191 6.4 14.755 14.222 7.564 7.823 13.592 14.223 13.378 14.223-.213 0-4.125-2.802-8.711-6.178-11.169-8.222-22.83-21.448-19.778-22.267zm135.245 3.289c-1.098 0-1.93 1.484-1.29 3.156.441 1.148 1.391 2.088 2.09 2.088 1.459 0 1.71-3.355.355-4.71-.38-.38-.79-.534-1.155-.534zm68.489 3.822c.592 0 13.568 20.55 14.31 22.667.427 1.216 1.633 3.227 2.712 4.489 1.078 1.261 2.392 5.718 2.889 9.91l.889 7.645-4.845-5.51c-8.618-9.817-17.504-11.331-18.667-3.2-.242 1.695-2.195 3.9-4.355 4.933-2.16 1.032-4.831 4.109-5.956 6.8-1.124 2.69-2.343 4.888-2.666 4.888-.323 0-1.28-3.485-2.134-7.733-1.892-9.424-10.451-26.81-15.244-30.978-5.582-4.853-4.301-7.265 1.689-3.2 2.847 1.932 6.367 3.511 7.822 3.511 1.874 0 2.622 1.037 2.622 3.556 0 4.324 1.814 4.54 4.445.578 1.942-2.925 2.002-2.886 8.133 1.555 3.395 2.46 6.597 4.025 7.111 3.511.514-.513.933-5.985.933-12.177 0-6.193.154-11.245.312-11.245zm-67.867 4.267c-.782 0-1.422.638-1.422 1.467 0 .828.64 1.15 1.422.666 1.822-1.126 1.822-2.133 0-2.133zm23.378 1.955c1.335-.029 2.223.271 3.022.934 3.057 2.537 2.513 4.66-2.356 9.289-2.416 2.297-5.276 5.937-6.4 8.089-1.146 2.194-3.271 3.91-4.8 3.91-1.498 0-3.116.64-3.6 1.423-.75 1.214-3.64 2.105-3.466 1.067.032-.196 1.21-5.16 2.622-11.023l2.578-10.666 6.666-1.911c2.609-.737 4.398-1.083 5.734-1.112zm-126.4 1.378c3.8-.263 24.927 6.95 24.4 8.534-.286.855-2.379 1.975-4.667 2.488-6.076 1.364-14.212 5.101-16.889 7.778-1.95 1.95-2.019 2.601-.4 3.956 1.065.89 5.674 5.613 10.222 10.489 6.956 7.456 7.995 9.208 6.49 11.022-1.545 1.86-1.064 2.188 3.688 2.355 3.884.137 4.463.395 1.956.845-4.762.854-6.662 2.805-4.667 4.8 1.156 1.156 2.69.935 5.778-.889 2.754-1.627 5.513-2.169 7.955-1.556 3.821.96 5.247 3.734 1.911 3.734-1.016 0-2.575.664-3.422 1.51-.847.848-6.777 1.847-13.2 2.223-10.096.59-11.93.362-13.644-1.867-1.888-2.455-2.128-2.44-4.667.8-2.038 2.601-3.486 3.22-6.222 2.534-2.46-.617-4.73-.032-7.2 1.91-4.784 3.763-6.17 3.593-5.333-.666.147-.752-.856-2.2-2.223-3.2s-2.2-1.974-1.866-2.178a118.66 118.66 0 0 1 3.333-1.91c3.558-1.965 4.548-4.845 1.644-4.845-2.844 0-2.936-2.702-.133-3.778 1.565-.6 1.748-1.485.711-3.422-1.877-3.508-1.759-4.596.356-3.289.964.596 2.724 1.19 3.91 1.289 7.973.658 12.612 2.327 11.868 4.267-.44 1.144-.066 2.088.8 2.088.866 0 1.555-.64 1.555-1.422 0-.782.985-1.422 2.178-1.422 2.544 0 5.233 6.102 4.044 9.2-.573 1.494.091 2.178 2.178 2.178 3.306 0 3.837-1.452 1.422-3.867-1.151-1.152-.724-2.024 1.556-3.244 3.095-1.657 3.055-1.71-1.556-5.111-2.554-1.885-5.936-3.826-7.555-4.312-9.625-2.89-28.728-12.588-33.911-17.244-2.645-2.376-3.337-6.044-1.156-6.044 3.457 0 5.422 1.806 4.756 4.355-.493 1.884.026 2.756 1.6 2.756 1.264 0 2.266-.99 2.266-2.178 0-1.635.951-1.952 3.911-1.245 2.152.514 4.625 1.476 5.467 2.134.847.66 3.709.518 6.4-.356 7.379-2.396 9.194-3.595 8.578-5.689-2.822-9.578-3.439-12.606-2.711-13.333.088-.088.235-.16.489-.178zm125.91 1.245c-.277.012-.574.084-.933.222-1.237.475-2.517.889-2.844.889-.327 0-.622.96-.622 2.133 0 2.394.288 2.464 3.466 1.245 1.238-.475 2.223-1.805 2.223-2.978 0-1.021-.455-1.55-1.29-1.511zm-53.955 3.11c1.682-.095 1.917.706.178 2.445-.865.865-1.252 2.449-.844 3.511.407 1.063-.368 5.48-1.734 9.823-2.405 7.646-2.39 7.977.222 9.955 1.484 1.123 3.754 2.064 5.067 2.089 1.313.025 3.409 1.053 4.667 2.311 2.253 2.253 7.07 2.229 12.489-.089 1.757-.751 2.489-.443 2.489 1.111 0 2.945-1.444 3.716-10.267 5.29-4.118.733-12.631 2.3-18.889 3.466-14.927 2.783-19.048 2.723-20.178-.222-.983-2.562.11-3.616 11.29-10.49 4.095-2.517 6.755-5.173 6.755-6.755 0-3.56-6.666-9.509-13.245-11.822-5.147-1.81-9.149-4.94-7.91-6.178.313-.314 3.157.136 6.31.978 5.096 1.36 6.7 1.09 14.578-2.444 4.185-1.879 7.34-2.883 9.022-2.978zm-64.133.845c-1.794 0-3.092 2.198-1.956 3.334 1.602 1.601 3.29 1 3.29-1.2 0-1.174-.598-2.134-1.334-2.134zm109.067.134c-.256-.01-.666.31-1.29.933-1.246 1.247-1.186 2.17.223 3.867 2.024 2.44 4.486 2.273 5.378-.4.31-.93-.45-1.69-1.69-1.69-1.238 0-2.266-.794-2.266-1.733 0-.646-.1-.968-.355-.977zm-102.045 1.289c-.782 0-1.422.958-1.422 2.177 0 1.22.64 1.862 1.422 1.378 1.84-1.137 1.84-3.555 0-3.555zm90.356 1.955c.166-.027.304-.007.355.045 1.599 1.598-3.307 5.336-14.222 10.8-9.698 4.853-18.178 7.199-18.178 5.066 0-.328 3.16-1.65 7.022-2.933s10.99-4.877 15.823-8c4.228-2.733 8.035-4.787 9.2-4.978zm71.777.889c-.782 0-1.422.64-1.422 1.422 0 .782.64 1.422 1.422 1.422.783 0 1.423-.64 1.423-1.422 0-.782-.64-1.422-1.423-1.422zm-43.377.444c1.83.578 8.627 13.3 9.822 18.4.504 2.152.424 3.845-.178 3.778-2.135-.238-20.976-9.723-19.422-9.778.869-.03 3.11-2.924 4.978-6.444 1.867-3.52 4.016-6.203 4.8-5.956zm-74.667 2.4c-.782 0-1.422.64-1.422 1.423 0 .782.64 1.422 1.422 1.422.782 0 1.422-.64 1.422-1.422 0-.783-.64-1.423-1.422-1.423zm9.956 0c-.783 0-1.423.64-1.423 1.423 0 .782.64 1.422 1.423 1.422.782 0 1.422-.64 1.422-1.422 0-.783-.64-1.423-1.422-1.423zm46.222 2.845c-1.174 0-2.134.64-2.134 1.422 0 .782.96 1.422 2.134 1.422 1.173 0 2.133-.64 2.133-1.422 0-.782-.96-1.422-2.133-1.422zm-50.178 1.422c-.592.119-1.258.708-1.556 1.6-.293.88.187 1.36 1.067 1.067.88-.294 1.6-1.014 1.6-1.6 0-.833-.519-1.185-1.111-1.067zm117.733 0c-1.67 0-2.845 3.966-1.91 6.4 1.038 2.708 4.755 2.772 4.755.089 0-2.951-1.556-6.489-2.845-6.489zm-25.733.311c-.464.048-1.039.205-1.778.49-1.285.492-2.355 1.798-2.355 2.888 0 2.762 3.798 2.486 4.889-.356.85-2.217.635-3.165-.756-3.022zm20.622.222a1.077 1.077 0 0 0-.578.178c-.782.484-1.422 1.442-1.422 2.178s.64 1.378 1.422 1.378c.783 0 1.423-1.003 1.423-2.222 0-.915-.335-1.489-.845-1.512zm-11.244 2.356c-.432.057-.711.767-.711 2.133 0 1.22.671 1.825 1.466 1.334.795-.492 1.073-1.494.623-2.223-.458-.74-.872-1.151-1.2-1.244-.069-.02-.117-.009-.178 0zm-203.156.845c1.014-.027 2.331.806 4.222 2.444 3.077 2.665 3.703 3.966 2.49 5.2-1.155 1.174-1.894 1.196-2.578.089-.548-.886-2.509-1.142-4.578-.622-3.298.827-3.558.598-2.622-2.49.942-3.11 1.763-4.587 3.066-4.621zm198.267.488c-.298-.028-.615.082-.933.4-.47.47-.346 1.676.266 2.667.896 1.45 1.207 1.445 1.69 0 .515-1.547-.128-2.98-1.023-3.067zm-149.645 1.023c.632.026 2.117.491 4.667 1.377 3.444 1.197 13.733 2.5 22.933 2.934 9.192.432 16.712 1.333 16.712 2 0 1.949-24.108 1.185-33.423-1.067-4.69-1.134-9.393-2.948-10.489-4.044-.812-.813-1.03-1.227-.4-1.2zm-17.466 1.866c-2.634 0-4.124 2.383-3.111 5.023 1.35 3.517 5.155 2.44 5.155-1.467 0-2.148-.806-3.556-2.044-3.556zm-40.622 1.423c.782 0 1.422.597 1.422 1.333s-.64 1.739-1.422 2.222c-.783.484-1.423-.158-1.423-1.378s.64-2.177 1.423-2.177zm201.91 1.688c-.878.006-1.377 1.188-1.377 3.29 0 2.401.652 3.575 1.778 3.2 2.307-.77 2.307-5.632 0-6.4a1.3 1.3 0 0 0-.4-.09zm9.112 0c-.291.108-.447.832-.4 1.956.068 1.657.39 2.023.844.889.411-1.027.384-2.283-.089-2.756a.334.334 0 0 0-.355-.089zm-161.778.267c-1.442-.165-2.615 2.091-1.6 3.733.483.783 1.486 1.423 2.222 1.423 1.73 0 1.728-3.866 0-4.934a1.483 1.483 0 0 0-.622-.222zm-28.711 3.156c.58-.065 1.015-.036 1.289.133 1.513.935 1.021 1.334-12.4 9.689-7.133 4.44-10.35 7.643-14.622 14.578-5.123 8.314-9.023 11.319-9.023 6.977 0-3.077 8.218-14.552 14.445-20.177 5.539-5.005 16.255-10.749 20.31-11.2zm202.578 2.089c.766.006 1.755 8.69 2.489 24.8.872 19.156.792 20.045-2.223 23.466l-3.11 3.556.8-7.822c.44-4.303.858-16.783.933-27.734.074-11.01.515-16.271 1.11-16.266zm-71.334 1.466c.872-.027 2.226.14 4.134.49 14.92 2.725 37.51 13.078 37.51 17.2 0 2.708-.9 2.523-8.533-1.912-3.52-2.045-12.44-5.847-19.866-8.4-11.448-3.936-17.02-7.261-13.245-7.378zm-36.755.045c-1.101.01-2.17.429-2.756 1.377-.629 1.018-.83 2.354-.444 2.978.385.624 2.344 1.156 4.31 1.156 2.632 0 3.418-.67 3.068-2.49-.366-1.9-2.343-3.039-4.178-3.021zm-6.934.71-3.288 3.112c-1.81 1.7-4.53 3.099-6.045 3.11-2.31.02-2.412.232-.622 1.423 1.173.78 3.413 1.102 4.978.711 1.564-.39 3.324-.7 3.91-.71.587-.012 1.067-1.731 1.067-3.823zm16.223 1.023c-.17.029-.383.101-.578.222-.782.484-1.422 1.122-1.422 1.467s.64.666 1.422.666c.782 0 1.422-.682 1.422-1.51 0-.622-.334-.93-.844-.845zm22.622 2.311c1.041.041 2.521 1.313 3.644 3.778 1.425 3.126 1.346 4.177-.666 6.4-1.99 2.198-2.085 2.666-.356 2.666 1.15 0 4.09 2.22 6.533 4.978 3.756 4.242 4.26 5.614 3.2 8.89-.688 2.13-1.448 4.974-1.688 6.31-.38 2.107-1.607 1.827-9.245-2.266-4.844-2.597-11.49-5.074-14.755-5.512-4.52-.606-7.269-2.206-11.512-6.622-5.358-5.577-8.31-7.175-8.31-4.533 0 .686.96 2.048 2.133 3.022 3.16 2.623 2.596 4.267-1.467 4.267-4.412 0-5.868-3.254-3.644-8.134 1.623-3.563 1.956-3.639 11.466-2.755 6.792.631 9.935.418 10.311-.711.4-1.2 1.42-1.152 3.823.133 4.048 2.167 5.134 1.197 3.066-2.667-1.276-2.384-1.198-2.933.49-2.933 1.154 0 2.493.64 2.977 1.422 1.779 2.878 3.861 1.388 2.978-2.133-.614-2.445-.02-3.641 1.022-3.6zm-165.689.222c.969.025 1.937.503 3.111 1.29 1.845 1.236 1.75 1.738-.711 3.866-1.564 1.353-2.911 4.409-3.022 6.755-.111 2.347-.624 7.947-1.111 12.445s-.413 8.178.177 8.178c1.857 0 29.382-5.875 33.956-7.245 6.064-1.816 9.111-1.641 9.111.533 0 2.621-2.963 5.29-5.911 5.29-2.222 0-2.4 1.028-1.644 9.11.742 7.947.398 9.817-2.49 14.49-3.068 4.965-3.093 5.26-.533 4.266 4.57-1.776 5.6-1.682 5.6.533 0 1.163-1.052 2.327-2.355 2.578-2.931.565-17.74-6.803-23.6-11.733l-4.311-3.645-5.156 7.2c-2.837 3.949-5.759 6.807-6.489 6.356-.73-.451-1.758-3.067-2.266-5.778-.682-3.633-1.677-4.889-3.734-4.889-2.73 0-2.708.065.178 3.734 1.621 2.06 2.933 5.58 2.933 7.822 0 2.674.734 4.089 2.134 4.089 2.233 0 2.751 2.455 1.289 6.266-1.664 4.336-6.214 2.427-6.267-2.622-.017-1.63-1.374-5.813-2.978-9.333-4.04-8.868-4.5-32.657-.711-36.845 1.536-1.697 2.18-3.868 1.644-5.555-.614-1.938.858-4.945 4.89-10.045 4.043-5.116 6.135-7.166 8.266-7.11zm55.733 2.667c-.782 0-1.422.638-1.422 1.467 0 .828.64 1.15 1.422.666 1.823-1.126 1.823-2.133 0-2.133zm-.8 5.689c-2.001 0-3.282.58-2.844 1.289.438.709 2.08.942 3.644.533 3.914-1.023 3.558-1.822-.8-1.822zm12.534 0c-1.565 0-3.649.96-4.623 2.133-1.473 1.776-1.3 2.133 1.067 2.133 1.565 0 3.649-.96 4.622-2.133 1.474-1.775 1.3-2.133-1.066-2.133zm-76.578 4.755a1.68 1.68 0 0 0-.578.223c-.782.483-1.422 1.121-1.422 1.466s.64.667 1.422.667c.782 0 1.422-.683 1.422-1.511 0-.621-.334-.93-.844-.845zm168.089.356c-.506-.01-.952.108-1.29.444-.732.733-.958 2.33-.488 3.556 1 2.604 4.583 2.986 6.044.622 1.078-1.743-2.076-4.583-4.266-4.622zm-104.311 2.089c-.722 0-1.822.442-3.2 1.333-1.725 1.115-1.521 1.36 1.066 1.378 1.76.011 3.2-.596 3.2-1.378 0-.89-.344-1.333-1.066-1.333zm164.044 2.222c.696.095 1.762.767 3.556 2.044 5.01 3.568 14.089 19.411 14.089 24.578 0 4.223 1.61 4.845 4.266 1.645.974-1.174 3.616-2.134 5.867-2.134 3.556 0 4.089-.548 4.089-4.089 0-2.24 1.315-5.764 2.933-7.822 1.706-2.168 2.606-4.821 2.133-6.31-.448-1.414.078-3.771 1.156-5.245 1.892-2.587 2.004-2.58 2.978.489.588 1.854-.013 6.263-1.422 10.577-2.858 8.751-10.79 25.68-12.356 26.356-.604.26-1.111 1.417-1.111 2.578 0 1.16-1.685 4.336-3.733 7.022-2.049 2.686-4.32 4.889-5.067 4.889-.748 0-1.239-3.04-1.111-6.756.46-13.405.382-13.62-3.2-11.11-1.9 1.33-6.168 2.221-10.711 2.221-5.409 0-8.72.837-11.556 2.934-2.773 2.05-5.033 2.644-7.6 2l-3.689-.934 3.422-5.066c1.887-2.78 3.423-5.842 3.423-6.8 0-.959 2.562-5.486 5.689-10.09 3.67-5.402 5.686-9.98 5.688-12.888.001-2.478.416-5.523.89-6.756.376-.982.682-1.428 1.377-1.333zm-49.778.533c-1.238 0-2.266.984-2.266 2.223 0 1.238.76 1.998 1.689 1.688 2.637-.879 3.089-3.91.577-3.91zm40.311 0c.38-.01.872.336 1.6 1.023 1.45 1.366 1.489 2.5.178 5.377-.917 2.014-1.689 4.917-1.689 6.445 0 1.527-.56 2.8-1.289 2.8-.727 0-1.527 1.44-1.777 3.2-.284 2-1.608 3.328-3.511 3.6-2.237.319-2.887 1.17-2.356 3.2.815 3.118-1.73 3.866-2.889.844-.412-1.074-3.075-2.401-5.911-2.933-3.564-.669-5.646-2.054-6.756-4.489-1.44-3.163-1.084-3.95 3.29-7.689 2.678-2.29 6.334-4.19 8.133-4.222 4.066-.072 11.158-3.669 12.044-6.089.261-.713.554-1.056.933-1.067zm-61.822.045c-.392 0-.666.466-.666 1.378 0 .782.682 1.422 1.51 1.422.829 0 1.106-.64.623-1.422-.563-.912-1.074-1.378-1.467-1.378zm11.778 2.844c-.744.01-.78.722.356 2.09.973 1.172 2.815 2.113 4.088 2.088 1.945-.038 1.875-.38-.444-2.133-1.797-1.36-3.256-2.054-4-2.045zm-61.511 2.222c24.958.016 39.252 1.893 59.022 7.734 17.38 5.134 39.822 17.518 39.822 22 0 1.951-8.945 9.735-20.622 17.91-3.911 2.74-7.751 5.345-8.533 5.779-.782.434-4.177-.45-7.556-1.956-15.82-7.05-60.592-11.97-94.489-10.355l-20.977 1.022-2.712-6.222c-1.482-3.414-3.14-8.97-3.688-12.356-.856-5.287-.517-6.656 2.355-9.733 9.282-9.947 25.475-13.842 57.378-13.823zm107.378 2.312c-1.5.041-2.845 1.377-2.845 3.288 0 2.612 2.03 2.634 4.178.045 1.138-1.372 1.197-2.259.178-2.89-.497-.306-1.012-.457-1.511-.444zm-214.756 1.11c-.782 0-1.422.639-1.422 1.467 0 .829.64 1.15 1.422.667 1.822-1.126 1.823-2.133 0-2.133zm180.622 0c-.782 0-1.422.64-1.422 1.423 0 .782.64 1.422 1.422 1.422.783 0 1.423-.64 1.423-1.422 0-.782-.64-1.422-1.423-1.422zm26.534 4.445c-.385.004-.817.017-1.29.045-6.408.375-6.84.81-5.021 4.8 1.91 4.194 4.61 4.703 3.555.666-.77-2.942.984-3.929 2.533-1.422 1.491 2.412 3.556 1.552 3.556-1.467 0-2.049-.642-2.647-3.333-2.622zm-184.134.133c-.17-.003-.328.02-.489.045a2.366 2.366 0 0 0-.488.133c-3.229 1.239-1.936 4.218 2.266 5.244 1.898.464 3.67.27 3.956-.444.778-1.94-2.693-4.94-5.245-4.978zm-27.51 1.2c-.816.025-1.2.715-1.2 2.045 0 1.173.732 2.133 1.6 2.133.97 0 1.216 1.365.666 3.556-.67 2.667-.306 3.555 1.378 3.555 1.234 0 1.793-.694 1.289-1.51-.505-.817-.083-2.466.933-3.69 1.546-1.862 1.422-2.565-.845-4.222-1.745-1.276-3.006-1.892-3.822-1.867zm41.555 2.845c-.133-.01-.268.018-.4.044-.823.164-1.655 1.02-2.49 2.578-2.026 3.787-1.909 4.111 1.734 4.711 4.428.73 5.898-.899 4-4.444-.982-1.836-1.917-2.819-2.844-2.89zm-29.067.266c-.636.125-.889.842-.889 2.223 0 1.59 1.12 3.198 2.49 3.555 4.07 1.064 4.276 1.045 8.444-.666l4-1.645-4.978-1.022c-2.738-.555-6.098-1.509-7.467-2.089-.713-.302-1.218-.43-1.6-.356zm-3.733 2.49c-.782 0-1.422.64-1.422 1.422 0 .782.64 1.422 1.422 1.422.782 0 1.422-.64 1.422-1.422 0-.783-.64-1.423-1.422-1.423zm231.289 1.422c-.596.174-.404.95.577 2.133.99 1.192 2.087 1.869 2.445 1.511.986-.986-1.037-3.644-2.756-3.644-.118 0-.181-.025-.266 0zm-209.823 1.422c-2.917 0-5.822 1.825-5.822 3.689 0 1.165 1.465 2 3.556 2 2.607 0 3.555-.759 3.555-2.845 0-1.564-.57-2.844-1.289-2.844zm206.09 4.266c-.783 0-1.345 1.76-1.29 3.912.089 3.465.206 3.587 1.29 1.066 1.669-3.884 1.669-4.978 0-4.978zm-7.956.045c-2.813-.027-6.267 2.037-6.267 4.755 0 .807.74.726 1.689-.222 1.25-1.25 2.148-1.294 3.6-.089 2.304 1.912 5.578-.497 4.044-2.977-.626-1.015-1.788-1.455-3.066-1.467zm-190.8.222c-.92-.134-1.778 1.365-1.778 4.578 0 3.674.62 5.111 2.222 5.111 1.643 0 2.107-1.199 1.778-4.533-.322-3.26-1.302-5.022-2.222-5.156zm-25.378 1.689a1.077 1.077 0 0 0-.578.178c-.782.483-1.422 1.441-1.422 2.178 0 .736.64 1.377 1.422 1.377.782 0 1.422-1.002 1.422-2.222 0-.915-.334-1.488-.844-1.511zm231.244.889c-.782 0-1.422.638-1.422 1.467 0 .828.64 1.15 1.422.666 1.823-1.126 1.823-2.133 0-2.133zm-213.2.667a1.226 1.226 0 0 0-.31.133c-.714.44-.895 1.405-.445 2.133 1.337 2.164 3.462 1.504 2.578-.8-.393-1.023-1.157-1.632-1.823-1.467zm-8.355 6.622c.03-.027.09-.018.133 0 .45.181 1.63 2.76 4.178 8.444 6.098 13.602 10.76 19.738 19.6 25.734 3.851 2.612 7.002 5.555 7.022 6.533.098 4.75-9.75-.712-17.644-9.778-6.606-7.587-12.251-19.324-13.156-27.333-.24-2.133-.35-3.412-.133-3.6zm243.289 3.022c1.397-.432 6.822 7.544 8.178 12.578.855 3.176 1.342 7.464 1.066 9.555-.44 3.335-.72 3.028-2.355-2.577-1.026-3.516-3.095-8.783-4.578-11.69-1.483-2.906-2.692-6.102-2.667-7.11.012-.437.156-.694.356-.756zm-22.356 1.556c.09-.018.174-.003.222.044 1.476 1.476-7.533 15.533-14.266 22.267-6.542 6.542-9.511 8.418-9.511 6.088 0-.519 3.73-5.159 8.266-10.31 4.537-5.152 9.705-11.458 11.511-14.045 1.581-2.264 3.154-3.92 3.778-4.045zm42.578 3.2c.084-.053.2-.04.311 0 .893.31 2.71 3.563 5.822 9.822 3.06 6.15 4.034 9.824 3.511 13.155-.611 3.9-.28 4.623 2.09 4.623 2.324 0 2.99 1.283 3.733 7.466 1.455 12.116 1.1 25.51-.623 24.445-1.024-.634-1.183.71-.533 4.177 1.108 5.904-.43 6.554-4 1.645-3.207-4.41-3.15-4.588 1.333-8.445 2.567-2.207 3.255-3.573 2.134-4.266-.984-.608-1.69-.135-1.69 1.155 0 1.347-.81 1.841-2.132 1.334-1.245-.478-2.116-.016-2.134 1.11-.017 1.062-1.275-.738-2.755-4-1.481-3.26-3.925-6.596-5.467-7.421-4.057-2.172-8.813-10.705-7.289-13.112.684-1.08 1.277-3.31 1.289-4.933.011-1.624 1.665-4.504 3.689-6.4 3.464-3.247 3.614-3.96 2.711-12.667-.487-4.697-.586-7.32 0-7.688zm-72.8.577c1.382-.09 2.4.53 2.4 1.956 0 1.078-1.44 2.95-3.2 4.178-2.686 1.874-2.8 2.248-.711 2.31 3.053.092 3.207 1.99.355 4.356-2.595 2.154-2.77 4.266-.355 4.267 4.675.003 1.334 16.473-3.733 18.4-1.71.65-11.358.612-21.423-.089l-18.266-1.289-5.156 5.556c-2.815 3.05-5.111 6.407-5.111 7.466 0 1.06-1.6 2.175-3.556 2.445-1.955.27-5.52 2.644-7.955 5.289l-4.445 4.8 3.334 2.178c1.82 1.192 4.738 2.177 6.533 2.177s4.107 1.282 5.111 2.89c1.557 2.492 2.737 2.789 8 2 6.166-.925 10.481 1.253 5.467 2.755-3.771 1.13-49.224.182-51.245-1.067-.968-.598-1.777-.387-1.777.445 0 .854-2.922 1.49-6.756 1.466-5.217-.033-6.205-.407-4.311-1.51 5.127-2.989 13.847-5.416 14.667-4.09 1.313 2.126 3.537 1.606 4.577-1.11.524-1.37 2.265-3.582 3.867-4.89 3.155-2.575 3.413-2.326-7.422-6.133-.985-.346-2.477-2.13-3.333-3.911-.857-1.782-4.461-5.649-8-8.622-5.393-4.53-7.169-5.252-10.89-4.534l-4.444.845 4.178-3.778c3.54-3.211 4.396-3.502 5.689-1.733 1.172 1.602 2.105 1.742 4.044.533 1.925-1.2 2.842-1.1 3.778.4.851 1.364 2.684 1.69 6 1.067 4.733-.89 4.756-.837 4.756 4.444 0 3.791.616 5.333 2.133 5.333 1.568 0 2.123-1.568 2.044-5.866l-.133-5.867 12.4-.844c14.43-1.025 15.71-1.444 18.222-5.467 1.701-2.723 1.614-2.896-.755-2-2.502.945-2.491.871-.133-1.511 1.936-1.957 2.836-2.141 4.177-.8 1.336 1.335 1.372 2.095.045 3.422-.939.939-1.734 2.762-1.734 4.044 0 1.283-1.6 3.065-3.555 3.956-2.972 1.354-5.027 4.533-2.933 4.533 3.205 0 7.91-3.283 7.91-5.51 0-2.42 2.793-4.715 6.178-5.067.65-.068 2.037-1.331 3.112-2.8 1.165-1.594 3.031-2.372 4.622-1.956 3.152.824 6.307-1.214 8.666-5.644.938-1.76 2.934-3.2 4.445-3.2 3.162 0 12.415 3.922 15.867 6.755 1.472 1.208 2.695 1.422 3.244.533.481-.779.217-1.82-.578-2.31-.795-.492-1.466-2.127-1.466-3.645 0-1.812-.977-2.756-2.845-2.756-3.625 0-3.729-3.836-.133-4.977 1.494-.475 3.76-2.431 5.022-4.356 1.378-2.102 3.734-3.35 5.511-3.467zm-158.089 4.711c1.509.069 2.986 1.018 4.845 3.023 1.901 2.052 3.296 4.492 3.11 5.422-.185.93 1.085 1.91 2.845 2.178 1.76.268 3.2 1.418 3.2 2.577 0 1.16 1.948 2.821 4.311 3.645 2.363.824 4.963 2.744 5.778 4.267.815 1.523 2.547 2.563 3.867 2.355 3.053-.482 10.222 4.225 10.222 6.711 0 3.44-2.992 3.835-6.222.8-3.734-3.507-7.333-3.856-8.49-.844-1.298 3.386-10.477 2.823-11.6-.711-.496-1.565-1.492-2.845-2.221-2.845-1.775 0-1.68 2.436.133 3.556 1.935 1.196.329 3.603-1.867 2.8-.953-.349-2.507-.169-3.467.444-2.179 1.393.044 10.491 3.2 13.111 1.16.963 2.09 2.548 2.09 3.511 0 .964 1.592 3.442 3.51 5.512 4.002 4.318 2.235 4.586-4.933.8-2.738-1.447-7.491-3.754-10.578-5.156-5.668-2.576-9.213-7.05-4.089-5.156 1.435.53 3.056 1.628 3.6 2.445.545.816 1.483 1.006 2.09.4.606-.607.43-1.545-.356-2.089-2.135-1.478-1.651-8.8.578-8.8 2.245 0 1.5-3.144-.934-3.956-.929-.31-1.689.35-1.689 1.467 0 3.085-4.94 6.932-7.6 5.911-1.302-.5-2.355-.21-2.355.667 0 .866-.96 1.6-2.134 1.6a2.153 2.153 0 0 1-2.133-2.133c0-1.154-1.963-3.096-4.4-4.356-2.995-1.549-3.997-2.758-3.022-3.733 1.755-1.755 7.523-.16 7.067 1.955-.18.833.444 1.775 1.422 2.134.982.36 1.778-.438 1.778-1.778 0-1.995.378-2.079 2.133-.622 1.747 1.45 2.133 1.356 2.133-.534 0-1.82 1.5-2.31 7.111-2.31 3.911 0 7.111-.54 7.111-1.156 0-.617-1.295-3.657-2.888-6.756-1.594-3.099-2.623-6.775-2.267-8.178.356-1.403-.23-4.283-1.333-6.4-2.808-5.382-2.528-8.471.888-9.555a4.502 4.502 0 0 1 1.556-.223zm48.933.978c.914-.055 1.9.378 2.845 1.29.743.715 2.933 1.515 4.889 1.777 2.79.373 4.593 2.551 8.4 10.133 4.654 9.27 5.03 9.642 9.066 8.756 3.19-.7 4.059-.484 3.556.978-.394 1.145-2.348 1.8-4.8 1.6-2.27-.187-4.773-.38-5.556-.445-.782-.066-2.747.29-4.4.8-2.057.636-3.27.222-3.866-1.333-.679-1.768-2.105-2.11-6.4-1.422-4.322.69-5.707.383-6.4-1.423-.69-1.798-2.068-2.1-6.311-1.422-4.02.643-5.953.287-7.334-1.378-2.81-3.386-.924-6.187 5.423-8.089 4.237-1.27 6.057-2.756 7.11-5.777.889-2.548 2.256-3.953 3.778-4.045zm-47.422 5.69c-.592.118-1.258.707-1.555 1.6-.294.88.186 1.36 1.066 1.066.88-.294 1.6-1.014 1.6-1.6 0-.833-.518-1.185-1.11-1.067zm55.156 0c-.782 0-1.422.957-1.422 2.177 0 1.22.64 1.861 1.422 1.378 1.84-1.138 1.84-3.556 0-3.556zm179.778 1.955a1.077 1.077 0 0 0-.578.177c-.782.484-1.422 1.442-1.422 2.178s.64 1.378 1.422 1.378c.782 0 1.422-1.003 1.422-2.222 0-.915-.334-1.489-.844-1.511zm-188.934 2.31c-1.22 0-2.222.64-2.222 1.423 0 1.84 2.418 1.84 3.556 0 .483-.782-.114-1.422-1.334-1.422zm11.156 1.956a1.077 1.077 0 0 0-.578.178c-.782.484-1.422 1.442-1.422 2.178s.64 1.378 1.422 1.378c.782 0 1.422-1.003 1.422-2.223 0-.914-.334-1.488-.844-1.51zm-21.911.89c-.783 0-1.423.64-1.423 1.421 0 .783.64 1.423 1.423 1.423.782 0 1.422-.64 1.422-1.423 0-.782-.64-1.422-1.422-1.422zm-33.423.044c-.432.057-.71.767-.71 2.133 0 1.22.671 1.825 1.466 1.333.795-.491 1.072-1.494.622-2.222-.457-.74-.871-1.152-1.2-1.244-.068-.02-.116-.01-.178 0zm5.69 0c-.433.057-.712.767-.712 2.133 0 1.22.672 1.825 1.467 1.333.795-.491 1.072-1.494.622-2.222-.457-.74-.871-1.152-1.2-1.244-.068-.02-.116-.01-.178 0zm124.977.222c-1.527.027-1.955.567-1.955 1.733 0 1.287 1.182 2.267 2.755 2.267 1.518 0 3.161.64 3.645 1.422 1.34 2.169 4.964 1.668 5.91-.8 1.093-2.846.877-2.998-6.266-4.178-1.872-.309-3.173-.46-4.089-.444zm96.445 1.733c-.423.146-.88.775-1.512 1.956-.866 1.618-1.6 3.61-1.6 4.444 0 .834 1.28 1.556 2.845 1.556 3.014 0 3.783-3.46 1.555-6.978-.5-.79-.866-1.124-1.288-.978zm-180.934.312c-.925.124-1.378.61-1.378 1.422 0 1.117 1.505 1.955 3.556 1.955 4.608 0 4.608-2.319 0-3.2-.894-.17-1.623-.252-2.178-.177zm186.356.844a1.612 1.612 0 0 0-.4.044c-.585.152-1.022.703-1.022 1.645a2.284 2.284 0 0 0 2.266 2.267c1.239 0 1.999-.76 1.69-1.69-.482-1.442-1.604-2.255-2.534-2.266zm-40.622.311c.447-.058 1.19.221 2.355.845 1.626.87 3.871 1.224 4.978.8 1.107-.425 4.741.938 8.089 3.022 5.691 3.543 6.063 4.202 5.955 9.955-.094 5-1.179 7.399-5.733 12.8-3.083 3.657-7.52 9.516-9.867 13.023-2.346 3.506-5.066 6.619-6.044 6.933-2.267.728-2.319-4.04-.089-8.933 1.081-2.373 1.195-4.097.311-4.712-1.626-1.13-4.894-13.544-5.467-20.755-.274-3.456.445-5.774 2.267-7.422 1.454-1.316 2.622-3.232 2.622-4.311 0-.774.175-1.187.623-1.245zm-64.89 2.267c-1.004-.026-2.47.389-3.822 1.244-1.161.736-1.614 2.263-1.066 3.69.76 1.98 1.346 2.094 3.066.666 1.711-1.42 2.09-1.335 2.09.355 0 1.363 1.529 2.141 4.4 2.223 4.267.12 4.325.045 1.91-2.623-1.37-1.514-3.39-2.755-4.488-2.755-1.099 0-1.595-.64-1.112-1.422.542-.876.028-1.353-.977-1.378zm-176.31.978c.189-.015.366-.013.533 0 .801.062 1.394.416 2.044 1.066 1.735 1.734 1.6 2.227-.8 3.511-1.531.82-5.242 1.511-8.266 1.511s-6.37.8-7.423 1.778c-1.536 1.427-1.72 1.38-.888-.089.57-1.007 4.245-3.347 8.177-5.244 3.37-1.626 5.299-2.429 6.623-2.533zm142.222.355c.163-.037.337-.03.489 0a.974.974 0 0 1 .489.267c.296.296.02 1.406-.623 2.444-.755 1.223-1.498 1.356-2.089.4-.664-1.075.593-2.852 1.734-3.11zm-90.8.045c-.782 0-1.422.958-1.422 2.177 0 1.22.64 1.862 1.422 1.378 1.84-1.137 1.84-3.555 0-3.555zm114.489 1.422c-2.221 0-2.792 1.652-1.156 3.289 1.637 1.636 3.289 1.065 3.289-1.156a2.14 2.14 0 0 0-2.133-2.133zm30.577 0c-.782 0-1.422.64-1.422 1.422 0 .782.64 1.422 1.422 1.422.783 0 1.423-.64 1.423-1.422 0-.782-.64-1.422-1.423-1.422zm46.09.444c-.17.033-.383.146-.578.267-.783.483-1.423 1.484-1.423 2.267 0 .782.64 1.06 1.423.577.782-.483 1.422-1.529 1.422-2.31 0-.587-.335-.9-.845-.8zm-53.734.09c-.51.022-.889.596-.889 1.51 0 1.22.64 2.222 1.422 2.222 1.84 0 1.84-2.418 0-3.555-.195-.121-.363-.185-.533-.178zm94.667 1.688a1.09 1.09 0 0 0-.311.044c-.265.068-.457.265-.623.534-1.425 2.307.212 5.733 2.756 5.733 1.198 0 2.178.96 2.178 2.133 0 1.174.64 2.134 1.422 2.134 2.66 0 1.463-5.189-1.956-8.4-1.502-1.412-2.67-2.154-3.466-2.178zm-57.111.622c1.472-.082 2.807.272 2.8 1.067-.026 2.775-9.808 7.47-15.734 7.555-5.22.075-5.758.314-3.11 1.378 4.604 1.851 3.947 5.278-1.645 8.578-2.668 1.574-5.177 3.787-5.6 4.889-.423 1.102-3.243 3.257-6.267 4.8-3.024 1.542-6.357 3.792-7.378 5.022-1.021 1.23-3.224 2.207-4.889 2.178-2.592-.046-2.205-.713 2.623-4.845 3.099-2.652 6.05-4.548 6.577-4.222.528.326 1.71-.323 2.623-1.422 1.302-1.57 1.197-2.116-.623-2.489-1.986-.407-1.772-1.566 1.734-8.267 4.699-8.98 8.374-11.348 17.733-11.377 3.67-.012 7.072-.64 7.556-1.423.508-.822 2.127-1.34 3.6-1.422zm-220.045 1.156c2.43-.207.068 3.011-6.844 7.733-8.038 5.49-18.233 17.425-24.134 28.267l-4 7.333 4.09-1.022c2.233-.56 5.586-2.142 7.466-3.511 3.016-2.197 4.235-2.276 10.267-.711 3.758.975 8.05 2.439 9.555 3.244 3.201 1.713 6-.359 6-4.4 0-1.408 1.419-3.952 3.111-5.644l3.067-3.067-4-3.2c-3.986-3.178-4.03-3.2-1.689-8.133 1.295-2.73 2.356-6.751 2.356-8.934 0-3.551.209-3.716 1.822-1.51.99 1.355 3.333 3.232 5.2 4.177 5.55 2.81 8.95 8.44 7.822 12.933-.821 3.272-1.55 3.782-4.4 3.067-3.1-.778-3.3-.519-2.444 2.889.807 3.217.568 3.662-1.734 2.933-3.978-1.26-13.378 18.947-13.378 28.8 0 12.356-5.127 14.124-15.955 5.422-5.965-4.793-7.29-8.899-2.356-7.333 2.179.691 2.82.416 2.356-.978-.916-2.749-5.63-3.31-7.422-.889-.834 1.127-3.591 2.43-6.134 2.934-3.88.768-4.622.523-4.622-1.69 0-2.989-3.826-6.751-5.333-5.244-.547.547-1.11 3.276-1.29 6.09-.385 6.032-1.927 8-5.288 6.71-2.783-1.068-2.578-7.193.222-6.622.96.196 1.734-.26 1.734-.978s.414-2.318.888-3.555c1.722-4.486-3.475-2.233-6.444 2.8-3.451 5.85-3.996 11.319-1.022 10.178 1.162-.446 2.63.67 3.6 2.8 1.295 2.843 1.186 4.508-.534 7.955-1.192 2.39-2.177 5.534-2.177 6.978s-.64 2.622-1.423 2.622c-.782 0-1.422-1.838-1.422-4.089 0-2.25-.869-4.831-1.955-5.733-2.537-2.105-3.857-8.938-2.134-11.022.73-.884 1.577-4.323 1.911-7.69.344-3.456 1.584-6.652 2.8-7.332 1.715-.96 1.814-1.911.578-4.623-1.255-2.755-.949-4.645 1.6-9.91 3.166-6.541 6.084-8.859 4.756-3.779-.482 1.843.479 3.503 2.933 5.112 3.866 2.532 6.578 1.85 6.578-1.6 0-8.046 17.553-27.896 31.111-35.2 3.092-1.666 5.206-2.484 6.311-2.578zm272.311 1.689c-1.564.336-1.344 3.182.667 7.51 1.865 4.018 5.333 5.267 5.333 1.912 0-1.078-.96-2.76-2.133-3.733-1.173-.974-2.133-2.656-2.133-3.734 0-1.077-.64-1.955-1.423-1.955-.12 0-.207-.023-.31 0zm-32.089.266c-.834.074-2.337.716-3.822 1.69-3.457 2.264-4.701 6.409-2.578 8.533.557.556 1.523-.35 2.134-2 .61-1.65 1.712-2.631 2.444-2.178 1.455.899 3.694-4.618 2.4-5.911-.11-.11-.3-.158-.578-.134zm6.8 1.156c-.782 0-1.422.96-1.422 2.133 0 1.174.64 2.134 1.422 2.134.783 0 1.423-.96 1.423-2.134 0-1.173-.64-2.133-1.423-2.133zm-119.377.355c-.317.047-.715.17-1.156.356-1.369.575-3.917 1.394-5.689 1.778-3.724.807-5.183 2.536-3.867 4.666.567.918 1.562 1.02 2.578.223.908-.713 3.405-1.753 5.556-2.267 2.232-.533 3.91-1.867 3.91-3.156 0-1.2-.384-1.738-1.332-1.6zm140.71 1.067c-.782 0-1.422.64-1.422 1.422 0 .783.64 1.423 1.423 1.423.782 0 1.422-.64 1.422-1.423 0-.782-.64-1.422-1.422-1.422zm-42.4.133c.224-.02.417.06.534.178.469.469.654 2.427.4 4.4-.425 3.295-.692 3.438-3.244 1.556-2.604-1.92-2.64-2.206-.4-4.445.986-.986 2.041-1.63 2.71-1.689zm-29.777 4.845c-.152.004-.243.248-.267.71-.06 1.174-.506 3.574-.978 5.334-.474 1.772-.217 3.2.578 3.2 2.254 0 3.191-3.95 1.778-7.466-.465-1.158-.858-1.785-1.111-1.778zm46.844.8c-1.505 0-4.443 3.09-3.689 4.31.43.694 1.304 1.29 1.956 1.29 1.428 0 3.271-4.418 2.267-5.422-.142-.142-.319-.178-.534-.178zm20.89.622-.49 18.489c-.315 12.675-1.21 20.584-2.844 25.155-1.31 3.668-3.284 7.43-4.4 8.356-2.7 2.24-2.645 1.71 1.644-11.067 2.373-7.068 4.131-16.326 4.89-25.955zm18.31 0c-.513.046-1.064.617-1.91 1.733-1.046 1.378-1.931 3.654-1.956 5.023-.06 3.273 1.783 3.125 4.933-.356 2.096-2.316 2.195-3.19.711-4.978-.805-.97-1.264-1.468-1.778-1.422zm-156.089.667c-2.326.12-4.735 1.057-5.644 2.755-.81 1.513-1.467 3.821-1.467 5.111 0 3.4 3.507 1.745 4.045-1.91.5-3.396 2.982-4.04 5.6-1.423 2.096 2.097 3.796.633 2.666-2.311-.621-1.62-2.873-2.342-5.2-2.222zm59.156 1.022c.368-.039.578.009.578.178 0 1.58-17.425 9.545-24.89 11.377-10.37 2.547-19.2 3.383-19.2 1.778 0-.83 1.824-1.51 4.045-1.51 6.422 0 24.888-5.191 32.8-9.2 2.99-1.516 5.563-2.507 6.667-2.623zm-175.244.444c-1.89 0-1.984.386-.534 2.134 2.23 2.686 2.845 2.686 2.845 0 0-1.174-1.042-2.134-2.311-2.134zm94.222.534c-.51.022-.89.596-.89 1.51 0 1.22.64 2.223 1.423 2.223 1.84 0 1.84-2.418 0-3.556-.195-.12-.363-.185-.533-.177zm132.4 1.155c-.258.037-.631.203-1.022.445-.783.483-1.423 1.761-1.423 2.889 0 1.127 1.054 2.088 2.311 2.088 1.5 0 1.99-.79 1.423-2.266-.475-1.238-.89-2.56-.89-2.934 0-.186-.141-.258-.4-.222zm-179.69.133c.314-.313 8.311 2.036 17.779 5.2 9.467 3.165 18.35 5.766 19.733 5.778 1.382.012 3.449.664 4.622 1.422 1.174.759 1.494 1.261.711 1.156-8.105-1.09-11.114-1.655-18.489-3.511-8.838-2.225-25.355-9.045-24.355-10.045zm190.668 1.734c-.458-.052-1.136.029-2.045.267-3.354.877-4.745 2.698-3.555 4.622.485.786 1.99.355 3.6-1.022 2.694-2.308 3.373-3.712 2-3.867zm-240.09 1.244c-1.442-.164-2.614 2.092-1.6 3.734.484.782 1.487 1.422 2.223 1.422 1.73 0 1.727-3.866 0-4.933a1.483 1.483 0 0 0-.622-.223zm8.223 1.423a1.077 1.077 0 0 0-.578.177c-.782.484-1.422 1.442-1.422 2.178s.64 1.378 1.422 1.378c.782 0 1.422-1.003 1.422-2.222 0-.915-.334-1.489-.844-1.511zm109.6 2.355c-.393 0-.667.467-.667 1.378 0 .782.683 1.422 1.511 1.422.829 0 1.106-.64.623-1.422-.564-.911-1.075-1.378-1.467-1.378zm-81.6.622a1.225 1.225 0 0 0-.311.134c-.713.44-.895 1.405-.445 2.133 1.338 2.164 3.462 1.504 2.578-.8-.392-1.023-1.156-1.632-1.822-1.467zm196.133.756c-.782 0-1.422.64-1.422 1.422 0 .782.64 1.422 1.422 1.422.782 0 1.422-.64 1.422-1.422 0-.782-.64-1.422-1.422-1.422zm-39.689 2.889c.461-.033 1.554 1.555 2.445 3.511 1.43 3.14 1.33 3.556-1.156 3.556-4.387 0-3.321 2.747 1.911 4.933 2.605 1.088 5.567 3.004 6.578 4.222 2.01 2.422 5.733 2.998 5.733.889 0-.726-.912-2.246-2.044-3.378-1.796-1.795-1.388-2.183 3.2-2.933 2.892-.473 7.097-1.264 9.333-1.778l4.045-.933-2.934 5.51c-1.62 3.042-3.297 7.316-3.733 9.468-.908 4.48-5.022 5.354-5.022 1.066 0-2.212-.948-2.844-4.267-2.844-2.37 0-5.53-1.264-7.11-2.845-1.565-1.564-4.438-2.844-6.4-2.844-1.964 0-4.661-1.28-6-2.845-1.34-1.564-3.36-2.844-4.49-2.844-1.853 0 7.917-9.77 9.911-9.911zm-171.244 1.378 8 4.355c10.214 5.532 35.501 11.915 56.178 14.178 27.207 2.978 66 .335 81.377-5.511 4.604-1.75 16.452 1.85 28.8 8.755 14.962 8.367 15.076 7.359-3.11 24.978-15.744 15.252-17.427 16.454-27.156 20.045-29.7 10.673-59.31 16.483-91.022 10.489-26.68-5.288-62.808-13.425-76.712-39.334-.954-2.892-1.301-7.138-.8-9.422 1.457-6.632 8.729-16.415 16.89-22.711zm107.644 7.377c-.29.108-.446.832-.4 1.956.069 1.657.39 2.023.845.889.41-1.027.383-2.283-.09-2.756a.334.334 0 0 0-.355-.089zm-20.31 2.756c-.495.02-.92.12-1.156.356-.473.472.367.817 1.866.755 1.657-.068 1.98-.39.845-.844a3.825 3.825 0 0 0-1.556-.267zm103.688 1.244c-.782 0-1.422.96-1.422 2.134 0 1.173.64 2.133 1.422 2.133.782 0 1.422-.96 1.422-2.133 0-1.174-.64-2.134-1.422-2.134zm-269.689 1.69c-.29.106-.446.83-.4 1.955.068 1.657.39 2.023.845.889.41-1.027.383-2.283-.09-2.756a.334.334 0 0 0-.355-.089zm282.711.755 4.667 4.533c3.305 3.204 5.178 6.804 6.4 12.267.95 4.247 2.293 8.083 3.022 8.533.73.45 1.334 2.038 1.334 3.556 0 3.27 1.152 3.448 4.888.622 4.02-3.04 6.31-2.609 7.334 1.467.734 2.926 1.275 3.287 2.933 1.91 1.379-1.143 1.574-1.978.533-2.621-2.506-1.55-.236-4.84 5.067-7.334 3.885-1.826 4.568-1.861 3.245-.266-1.238 1.49-1.246 2.443-.09 3.6 1.158 1.157.836 2.524-1.2 5.11-3.323 4.226-3.562 6.196-.622 5.067 1.519-.582 1.892-.192 1.29 1.378-.47 1.223-3.061 2.985-5.734 3.867-3.83 1.264-4.594 2.046-3.6 3.822 1.42 2.538-6.637 14.998-11.333 17.511-1.518.813-2.711 2.997-2.711 4.978 0 2.01-.802 3.511-1.912 3.511-2.01 0-1.648-6.37.534-9.244.594-.783.68-6.863.178-13.512-.898-11.86-1-12.08-4.49-11.644-1.955.244-5.155 1.529-7.11 2.889-5.21 3.623-18.348 6.346-20.8 4.311-1.47-1.219-2.812-1.013-5.512.756-1.96 1.283-3.538 3.084-3.555 4.044-.018.96-1.258.202-2.711-1.689l-2.622-3.422-2.356 8.089c-2.15 7.394-2.705 8.1-6.089 7.733-4.936-.534-5.711 2.211-1.2 4.267 3.864 1.76 4.724 5.135 1.778 6.978-1 .625-2.555 2.755-3.467 4.71l-1.644 3.556-.978-3.2c-1.806-6.047-3.74-3.423-2.756 3.734.815 5.924.496 7.363-2 9.688l-2.888 2.712 5.2 1.91c2.867 1.038 8.448 2.273 12.4 2.756 5.439.666 7.306 1.523 7.688 3.511.393 2.04-.11 2.418-2.266 1.734-1.67-.53-3.497-.014-4.578 1.289-.988 1.19-3.347 2.177-5.244 2.177-1.898 0-7.012 2.274-11.378 5.067-5.078 3.248-8.46 4.563-9.334 3.689-.874-.874-3.505-.12-7.288 2.044-6.346 3.629-8.846 4.145-10.09 2.134-.749-1.213 7.807-9.793 12.356-12.4 1.196-.686 3.183-3.645 4.4-6.578 1.218-2.933 2.911-5.333 3.734-5.333.822 0 1.466-.69 1.466-1.512 0-2.352-9.258-5.635-15.955-5.644-9.107-.011-15.638-2.292-21.778-7.6l-5.511-4.756 5.333-1.777c4.144-1.368 5.785-1.366 7.378-.045 1.643 1.364 2.913.972 6.444-2 2.548-2.143 6.173-3.689 8.578-3.689 2.287 0 5.413-1.28 6.978-2.844 1.564-1.564 4.042-2.844 5.511-2.844 1.469 0 3.484-.977 4.444-2.134 1.269-1.528 2.466-1.722 4.356-.71 4.17 2.231 5.6 1.647 5.6-2.268 0-4.083 9.849-14.255 16.133-16.666 1.325-.508 3.752-3.2 5.378-5.956 1.914-3.243 4.02-5.008 6-5.022 4.064-.029 6.212-1.54 6.845-4.844.295-1.547 2.473-3.387 5.066-4.267 2.508-.852 5.338-2.311 6.311-3.289 1.414-1.42.881-1.778-2.755-1.778-4.52 0-5.98-1.789-2.978-3.644.862-.533 2.498-3.212 3.644-5.956zm-252.177.089c-.865-.04-2.046.327-3.378 1.2-1.915 1.254-3.511 2.819-3.511 3.51 0 1.873 3.371 1.516 6.355-.666 2.802-2.048 2.436-3.956.534-4.044zm304.755.4c.717.02 1.245 1.344 1.245 3.91 0 2.332-1.92 6.498-4.578 9.956-4.057 5.279-6.8 7.376-6.8 5.2 0-.407 1.558-3.127 3.466-6.044 1.908-2.917 3.921-7.049 4.445-9.2.62-2.55 1.505-3.842 2.222-3.822zm-295.955.889c-.92-.04-1.67.355-2.045 1.333-1.15 2.995.214 4.832 2.845 3.822 1.428-.548 2.456.186 2.977 2.178.954 3.647 3.32 4.073 3.29.578-.034-3.769-4.307-7.794-7.067-7.911zm-35.6 1.866c-.783 0-1.423 1.279-1.423 2.89 0 1.61.64 2.572 1.423 2.088 1.846-1.141 1.846-4.978 0-4.978zm14.222 0c-.782 0-1.422.64-1.422 1.423 0 .782.64 1.422 1.422 1.422.782 0 1.422-.64 1.422-1.422 0-.783-.64-1.423-1.422-1.423zm14 3.2c-.876.125-1.827.904-2.267 2.223-.31.928.45 1.688 1.689 1.688 1.238 0 2.222-1.028 2.222-2.266 0-1.256-.769-1.77-1.644-1.645zm-20.4 1.067c-1.174 0-2.134.64-2.134 1.422 0 .782.96 1.422 2.134 1.422 1.173 0 2.133-.64 2.133-1.422 0-.782-.96-1.422-2.133-1.422zm4.978 1.556a1.41 1.41 0 0 0-.49.044.969.969 0 0 0-.444.267c-.417.417-.338 1.432.178 2.266 1.159 1.875 3.6 1.996 3.6.178 0-1.285-1.626-2.649-2.844-2.755zm266.488.31c-2.016.036-3.377.917-3.377 2.445 0 .916 1.178 1.196 2.844.667 1.632-.518 2.845-.293 2.845.578 0 .835 1.28 1.555 2.844 1.555 4.088 0 3.527-2.704-.933-4.4-1.562-.594-3.013-.865-4.223-.844zm-246.577 2.4c-.783 0-1.423.96-1.423 2.134 0 1.173.64 2.133 1.423 2.133.782 0 1.422-.96 1.422-2.133s-.64-2.133-1.422-2.133zm4.266 1.423c-.782 0-1.422.96-1.422 2.133 0 1.174.64 2.134 1.422 2.134.783 0 1.423-.96 1.423-2.134 0-1.173-.64-2.133-1.423-2.133zm-6.4 7.111a2.14 2.14 0 0 0-2.133 2.133 2.14 2.14 0 0 0 2.133 2.134 2.14 2.14 0 0 0 2.134-2.134 2.14 2.14 0 0 0-2.134-2.133zm8.49 1.067c-.746.072-1.465.704-1.823 1.777-.26.783.563 1.423 1.867 1.423 1.303 0 2.103-.8 1.777-1.778-.335-1.007-1.077-1.494-1.822-1.422zm241.955.355c-1.239 0-2.267.984-2.267 2.222 0 1.239.76 1.999 1.689 1.69 2.637-.88 3.09-3.912.578-3.912zm-272.49 2.845c.798 0 1.423.843 1.423 1.91 0 4.33 10.623 22.698 17.378 30.09 7.37 8.063 8.264 10.186 3.244 7.51-7.497-3.995-14.404-13.068-19.022-24.977-3.716-9.581-4.732-14.533-3.022-14.533zm264.223 0c-1.473 0-2.044 1.762-2.044 6.266 0 4.386.503 6.028 1.733 5.556 2.187-.84 3.865-6.68 2.089-7.289-.718-.246-.92-1.366-.489-2.489.457-1.191-.093-2.044-1.289-2.044zm14.8.71a2.512 2.512 0 0 0-.978.179c-1.173.45-2.133 1.71-2.133 2.8 0 1.09.96 2 2.133 2 1.174 0 2.134-1.26 2.134-2.8 0-1.429-.352-2.146-1.156-2.178zm-294.533 5.29c-1.72.07-3.32 2.19-2.311 3.822 1.394 2.256 5.022 1.861 5.022-.533 0-1.128-.705-2.453-1.556-2.978a1.987 1.987 0 0 0-1.155-.311zm494.71 1.11c2.807 0 7.2 3.47 7.2 5.69 0 2.242-2.076 2.353-6.044.355-4.494-2.262-5.215-6.044-1.155-6.044zm-223.421.045c-.492-.014-1.08.16-1.823.445-1.207.463-2.222 2.144-2.222 3.733 0 3.783 3.817 3.709 5.022-.089.844-2.659.497-4.048-.977-4.089zm18.71 1.378c-.781 0-1.421.638-1.421 1.467 0 .828.64 1.15 1.422.666 1.822-1.126 1.822-2.133 0-2.133zm18.49 0c-.783 0-1.423.64-1.423 1.422 0 .782.64 1.422 1.423 1.422.782 0 1.422-.64 1.422-1.422 0-.782-.64-1.422-1.422-1.422zm-255.69.044c.706.076 1.112.803 1.112 2.09 0 1.224 1.294 2.133 3.022 2.133 2.322 0 2.848.623 2.267 2.844-1.143 4.371 1.587 12.439 5.022 14.845 4.298 3.01 4.712 1.73 1.067-3.2-3.371-4.56-3.342-9.512.044-9.512 1.35 0 2.167 1.541 2.311 4.267.124 2.347.284 4.864.356 5.6.072.736 1.106.096 2.266-1.422 2.074-2.713 2.133-2.728 2.978.267.537 1.902 2.367 3.353 4.933 3.866 2.942.589 3.886 1.467 3.29 3.022-.46 1.196-.111 2.178.755 2.178s1.556-.74 1.555-1.644c0-.983 1.067-.697 2.623.71 1.43 1.295 4.56 2.356 6.977 2.356 2.417 0 5.43.37 6.667.845 3.914 1.502 2.415 3.422-2.667 3.422-2.691 0-5.305.676-5.822 1.511-.516.836-1.82 1.166-2.889.756-1.069-.41-2.27-.198-2.666.444-1.493 2.415-12.759 2.872-15.245.622-2.155-1.95-2.525-1.873-3.955.8-1.726 3.225-3.885 3.699-7.2 1.556-1.174-.758-3.52-1.41-5.245-1.422-3.304-.023-3.602-.882-5.289-15.911-.68-6.07-.479-6.702 2.4-7.111 4.125-.587 4.09-4.613-.044-5.2-3.501-.498-4.272-4.262-1.467-7.067 1.162-1.162 2.14-1.72 2.845-1.645zm436.445 4.223c1.99 0 9.822 7.831 9.822 9.822 0 2.664-4.014 1.65-4.933-1.245-.484-1.524-2.12-3.16-3.644-3.644-2.895-.919-3.91-4.933-1.245-4.933zm-173.466 1.422c-.783 0-1.828.64-2.312 1.422-.483.782-.204 1.422.578 1.422.782 0 1.783-.64 2.267-1.422.483-.782.249-1.422-.533-1.422zm-40.89.267c-.29.107-.446.83-.4 1.955.069 1.657.391 2.024.845.889.41-1.027.384-2.283-.089-2.756a.334.334 0 0 0-.355-.088zm-14.755 1.155c-.782 0-1.422.638-1.422 1.467 0 .828.64 1.15 1.422.666 1.822-1.126 1.823-2.133 0-2.133zm225.289 2.845c2.594 0 11.117 9.731 10.044 11.466-1.314 2.126-2.502 1.422-7.422-4.31-5.121-5.968-5.55-7.156-2.622-7.156zm-178.356 1.422c-2.875 0-3.534 2.153-1.955 6.266 1.52 3.963 4.8 2.6 4.8-2 0-3.318-.632-4.266-2.845-4.266zm-13.644.222c.11.011.194.06.267.133 3.088 3.089-19.935 28.398-32.534 35.778-8.347 4.89-16.666 8.215-16.666 6.667 0-.714 2.72-2.718 6.044-4.445 12.46-6.473 29.99-22.057 39.067-34.8 1.462-2.052 3.054-3.417 3.822-3.333zm30.578 1.511c.292-.009.706.104 1.244.267 1.344.407 10.728 1.413 20.845 2.266 10.116.854 18.828 1.839 19.377 2.178.55.34 1.38 2.373 1.823 4.534 3.541 17.308 5.886 24.567 7.955 24.71 13.908.966 27.111.499 27.111-.977 0-.935.96-2.083 2.134-2.533 2.579-.99 2.742 1.005.4 4.755-1.444 2.311-1.206 3.275 1.289 6 2.16 2.36 2.627 4.074 1.777 6.133-1.138 2.758-1.202 2.747-2.133-.355-1.178-3.929-2.062-3.978-6.667-.356-4.466 3.514-5.264 3.412-16.71-1.377-6.834-2.86-9.357-4.63-9.69-6.89-.513-3.478-6.996-9.207-9.022-7.955-.737.456-.214 1.677 1.2 2.711 3.333 2.437 1.808 3.924-2.844 2.756-3.494-.877-6.362-3.105-23.111-17.956-4.127-3.659-8.775-7.311-10.312-8.133-1.536-.822-3.471-3.503-4.31-5.911-1.01-2.896-1.233-3.84-.356-3.867zm158 2.489c.517.106 1.26.808 2.222 2.178 1.099 1.563 3.31 4.303 4.889 6.133 1.578 1.83 2.529 3.91 2.089 4.622-1.877 3.038-4.326 1.04-8.4-6.977-1.866-3.672-1.938-6.189-.8-5.956zm-236.622.578c-.51.022-.89.596-.89 1.51 0 1.22.64 2.223 1.423 2.223 1.84 0 1.84-2.418 0-3.555-.196-.121-.363-.186-.533-.178zm-188.623.889c-.782 0-1.422.96-1.422 2.133s.64 2.133 1.422 2.133c.783 0 1.423-.96 1.423-2.133s-.64-2.133-1.423-2.133zm276.045 1.422c-2.89.386-1.438 3.621 3.778 8.089 6.268 5.37 7.466 5.699 7.466 1.866 0-2.555-1.46-3.537-4.622-3.022-.604.099-1.743-1.416-2.489-3.378-.746-1.96-2.318-3.555-3.511-3.555-.232 0-.43-.026-.622 0zm9.644 0c-3.288 0-3.363 1.116-.31 4.489 2.673 2.954 4.185 3.254 5.51 1.11 1.285-2.078-1.997-5.6-5.2-5.6zm134.534.178c.27-.053.603-.022.933.089 1.368.456 3.891 6.06 6.489 14.31 1.294 4.113-2.35 2.802-3.956-1.422-.817-2.15-2.475-5.014-3.689-6.355-2.052-2.268-1.675-6.256.223-6.622zm-123.2.177c-.869.127-1.835.794-2.223 1.956-.266.798.494 1.467 1.69 1.467 1.194 0 2.177-.892 2.177-2 0-1.106-.776-1.55-1.644-1.423zm7.466 1.067c-1.644 0-5.798 8.069-4.71 9.156 1.484 1.485 3.055.805 4.532-1.956 1.829-3.416 1.934-7.2.178-7.2zm-306.044 4.267c-1.491 0-1.67 1.93-.311 3.289 1.727 1.727 3.232 1.012 2.4-1.156-.45-1.173-1.39-2.133-2.09-2.133zm18.622.31a1.612 1.612 0 0 0-.4.045c-.585.152-1.022.703-1.022 1.645a2.284 2.284 0 0 0 2.266 2.266c1.239 0 1.999-.76 1.69-1.689-.481-1.442-1.604-2.255-2.534-2.266zm397.689 1.512c1.324-.441 6.222 9.655 6.222 12.8 0 2.905-2.43.252-4.667-5.067-1.394-3.316-2.674-6.296-2.844-6.622-.17-.326.427-.824 1.289-1.111zm-122.445 2.444c-3.253 0-2.63 2.577 1.734 7.2 4.21 4.46 5.38 4.938 6.755 2.712.487-.788-.14-1.82-1.422-2.312-1.283-.492-2.897-2.417-3.6-4.266-.703-1.85-2.274-3.334-3.467-3.334zm-262.488.045c-.747 0-1.378.457-1.378 1.378 0 .782 1.002 1.422 2.222 1.422s1.817-.64 1.333-1.422c-.568-.92-1.43-1.378-2.177-1.378zm-24.934 1.378c-1.22 0-1.78.627-1.289 1.422.492.795 1.45 1.072 2.178.622 1.973-1.219 1.61-2.044-.889-2.044zm165.956 0c-1.735 0-3.022.907-3.022 2.133 0 2.733 1.998 2.733 4.266 0 1.48-1.782 1.278-2.133-1.244-2.133zm236.933.089c.318-.016.752.03 1.289.133 1.609.307 2.871 1.931 3.156 4.044.261 1.948 1.061 4.146 1.777 4.89.716.742 1.29 2.822 1.29 4.622 0 5.202-2.295 3.822-4.579-2.756-1.154-3.324-2.627-7.263-3.244-8.711-.67-1.573-.643-2.176.311-2.222zm-390 1.333c-1.173 0-2.133.64-2.133 1.422 0 .782.96 1.422 2.133 1.422s2.133-.64 2.133-1.422c0-.782-.96-1.422-2.133-1.422zm160.756 0c-2.34 0-3.939 2.017-2.623 3.333 1.5 1.5 2.955 1.063 3.823-1.2.489-1.274-.003-2.133-1.2-2.133zm124.844.844c-.546.058-.98.284-1.244.712-.496.802.228 2.707 1.6 4.222 3.15 3.48 6.31 3.545 6.31.133 0-2.482-4.3-5.317-6.666-5.067zm-248.489.045c3.897-.185 6.046 1.712 3.067 3.467-4.9 2.886-.826 4.145 11.333 3.466 7.784-.435 12.938-.103 14.134.89 1.06.879 3.533 1.118 5.688.577 3.177-.797 3.556-.594 2.178 1.067-2.083 2.51-.783 3.866 3.69 3.866 2.538 0 3.235-.622 2.621-2.222-1.13-2.945 3.058-4.365 6.49-2.222 2.64 1.649 6.07.92 4.888-1.022-.324-.533 1.943-1.11 5.022-1.29 6.67-.389 8.605 2.49 4.623 6.89-2.044 2.257-3.995 2.82-8.712 2.444-6.4-.51-7.71 1.721-1.822 3.111 4.262 1.006 5.485 4.267 1.6 4.267-1.598 0-4.341 1.555-6.133 3.466-4.377 4.67-10.377 6.708-16.622 5.69-5.035-.822-4.957-.74 2.533 3.51 10.123 5.745 23.33 18.154 20.489 19.245-4.462 1.712-16.925.754-20.222-1.556-2.654-1.859-3.924-2.008-6-.71-5.412 3.38-9.778.342-9.778-6.8 0-1.99-.918-2.934-2.845-2.934-3.196 0-3.736 2.797-1.066 5.467 3.935 3.935-6.599 5.103-13.156 1.466-1.79-.993-1.734-1.163.356-1.2 3.317-.057 3.172-2.426-.267-4.266-1.958-1.048-3.83-1.014-6.444.177-3.06 1.395-4.094 1.284-6.045-.666-3.053-3.053-1.332-4.723 2.89-2.8 2.433 1.109 5.493.955 11.688-.623 6.318-1.609 9.017-1.774 10.933-.577 2.18 1.36 2.534 1.103 2.534-1.823 0-1.878.975-3.778 2.133-4.222 3.132-1.202-2.864-9.651-9.6-13.555-5.43-3.147-6.529-5.516-3.822-8.223 1.066-1.066-.142-1.768-4.09-2.4-9.155-1.464-11.923-8.218-4-9.733.62-.118 1.177-.196 1.734-.222zm348.311.533c2.683 0 3.083.908 4.223 10.311.837 6.908.644 8.178-1.245 8.178-1.448 0-2.267-1.295-2.267-3.644 0-1.995-.972-5.536-2.177-7.867-2.315-4.475-1.795-6.978 1.466-6.978zm-217.689.133c-.194-.016-.444.045-.71.134-1.027.342-2.147 1.462-2.49 2.489-.355 1.066.178 1.6 1.245 1.244 1.027-.342 2.147-1.462 2.489-2.489.266-.8.05-1.328-.534-1.378zm-24.222 3.2a1.7 1.7 0 0 0-.578.223c-.782.483-1.422 1.121-1.422 1.466s.64.667 1.422.667c.783 0 1.423-.683 1.423-1.511 0-.621-.335-.93-.845-.845zm234.8.267c1.94-.022 3.359 3.782 3.778 10.489.286 4.576-.123 7.868-1.022 8.178-2.192.754-3.467-.95-3.467-4.667 0-1.788-.703-4.875-1.6-6.844-1.269-2.785-1.228-4.075.222-5.823.733-.883 1.443-1.325 2.09-1.333zm-8.089 2.089a.941.941 0 0 1 .311 0c.422.06.928.35 1.467.889.831.831 1.305 5.494 1.067 10.489-.591 12.383-3.39 12.645-4.4.4-.609-7.374-.023-11.507 1.555-11.778zm-392.355.667c.205.003.443.102.755.222 1.063.408 2.312 2.186 2.756 3.956.444 1.769 2.733 5.63 5.111 8.622 2.722 3.425 4.024 6.385 3.511 8-.448 1.41-.089 3.939.8 5.6 2.108 3.938 1.435 4.445-2.889 2.089-1.945-1.06-4.657-2.28-6.044-2.711-1.388-.432-3.021-2.08-3.6-3.645-.967-2.614-1.359-2.699-4.934-.844-3.87 2.008-3.91 2.029-3.91-2.756 0-6.037-2.45-7.825-3.734-2.711-.922 3.673-1.014 3.752-2.933 1.156-1.104-1.493-1.75-4.152-1.423-5.912.44-2.355-.068-3.2-1.955-3.2-1.41 0-2.995.676-3.511 1.512-.517.835-2 1.097-3.29.577-1.289-.52-3.268-1.1-4.4-1.289-3.918-.652-3.133-3.493.934-3.377 2.214.063 6.044-.935 8.534-2.223 4.965-2.567 13.915-3.196 12.488-.888-.483.782-2.766 1.422-5.066 1.422s-4.178.64-4.178 1.422c0 .782 1.92 1.422 4.267 1.422 2.346 0 4.266-.64 4.266-1.422 0-.782 2.014-1.422 4.445-1.422 3.274 0 4.186-.562 3.6-2.09-.384-.998-.217-1.519.4-1.51zm176.178.089a2.767 2.767 0 0 0-2.267 1.866c-.416 1.246.317 1.71 2.044 1.378 1.46-.28 2.463-1.14 2.267-1.911-.262-1.034-1.124-1.442-2.044-1.333zm-20.978.71c-.747 0-1.654.458-2.222 1.379-.484.782.113 1.422 1.333 1.422s2.222-.64 2.222-1.422c0-.92-.587-1.378-1.333-1.378zm-36.356 1.379c-1.173 0-2.133.64-2.133 1.422 0 .782.96 1.422 2.133 1.422 1.174 0 2.134-.64 2.134-1.422 0-.782-.96-1.422-2.134-1.422zm243.378 0c2.691 0 2.634 12.727-.089 19.244-2.302 5.51-6.028 6.993-4.355 1.733.56-1.76 1.328-7.2 1.733-12.089.519-6.265 1.324-8.888 2.711-8.888zm21.022.222c4.019.205 4.59 15.72.534 20.755-1.614 2.003-3.484 2.303-4.4.711-.338-.586-.221-5.555.266-11.022.678-7.598 1.429-10.062 3.2-10.4.137-.026.27-.05.4-.044zm-11.689.178c.508.01 1.082.177 1.778.444 2.133.818 2.424 2.083 1.645 7.956-.508 3.826-1.657 8.52-2.534 10.444-.876 1.924-2.42 3.511-3.422 3.511-1.388 0-1.639-2.455-1.022-10.311.727-9.265 1.356-12.09 3.555-12.044zm-296 .355c-.37-.01-.752.079-1.155.222-4.066 1.446-4.68 1.99-3.822 3.378.45.728 2.694 1.333 5.022 1.333 3.765 0 4.084-.316 2.755-2.8-.732-1.368-1.688-2.103-2.8-2.133zm68.178.667c-.782 0-1.422.64-1.422 1.422 0 .782.64 1.422 1.422 1.422.782 0 1.422-.64 1.422-1.422 0-.782-.64-1.422-1.422-1.422zm-57.644 2.489c-.746.072-1.465.704-1.823 1.777-.26.783.563 1.423 1.867 1.423s2.104-.8 1.778-1.778c-.336-1.007-1.077-1.494-1.822-1.422zm-70.49 1.022c2.227.08 7.76 1.25 16 3.511 26.345 7.229 38.179 11.478 38.179 13.689 0 1.109-.48 1.951-1.067 1.867-2.876-.415-44.449-13.869-49.289-15.956-4.972-2.144-6.049-3.19-3.822-3.111zm147.156 0c-.51.077-1.302.393-2.489.933-1.99.907-3.284 2.222-2.844 2.934 1.285 2.079 5.432.627 5.956-2.09.262-1.36.228-1.907-.623-1.777zm-11.11.755c-1.22 0-2.223.64-2.223 1.423 0 1.84 2.418 1.84 3.556 0 .483-.783-.114-1.423-1.334-1.423zm-50.534.356c-1.581.12-2.889.718-2.889 1.333 0 1.573 3.934 1.44 4.933-.177.454-.735-.463-1.275-2.044-1.156zm-29.245 1.111c-.392 0-.666.467-.666 1.378 0 .782.682 1.422 1.51 1.422.83 0 1.107-.64.623-1.422-.563-.911-1.074-1.378-1.467-1.378zm275.778 0c-1.998.074-6.222 3.678-6.222 5.333 0 3.376-3.172 3.18-6.489-.4-3.387-3.654-7.715-4.355-8.622-1.422-.242.782 1.61 2.484 4.133 3.778 4.67 2.395 15.005 2.25 19.511-.267 1.847-1.031 1.81-1.333-.266-2.133-1.328-.512-2.028-1.818-1.6-2.933.425-1.109.226-1.98-.445-1.956zm-352.71.089c-2.552-.074-2.405 1.257.4 4.356 3.186 3.521 5.082 3.295 4.532-.578-.292-2.057-1.632-3.397-3.688-3.69-.476-.067-.88-.078-1.245-.088zm176.355.133c-.291.107-.447.831-.4 1.956.068 1.657.39 2.023.844.889.41-1.027.384-2.283-.089-2.756a.334.334 0 0 0-.355-.089zm-92.978 1.156c-.782 0-1.422.64-1.422 1.422 0 .782.64 1.422 1.422 1.422.782 0 1.422-.64 1.422-1.422 0-.782-.64-1.422-1.422-1.422zm14.8.533a1.077 1.077 0 0 0-.578.178c-.782.483-1.422 1.442-1.422 2.178s.64 1.377 1.422 1.377c.782 0 1.422-1.002 1.422-2.222 0-.914-.334-1.488-.844-1.51zm84.8.267c-.848.154-1.467.857-1.467 2.089 0 .736 1.362 1.377 3.022 1.377 2.512 0 2.752-.37 1.29-2.133-.889-1.07-1.997-1.488-2.845-1.333zm-172.133 3.466c-.783 0-1.423.64-1.423 1.423 0 .782.64 1.422 1.423 1.422.782 0 1.422-.64 1.422-1.422 0-.783-.64-1.423-1.422-1.423zm79.022 1.423c-2.174 0-4.018 1.982-2.89 3.11 1.441 1.441 4.934.553 4.934-1.244 0-1.043-.917-1.866-2.044-1.866zm-64.09.222a3.11 3.11 0 0 1 .579 0c.878.065 1.555.578 1.555 1.644 0 1.14-1.323 2.38-2.933 2.8-2.183.571-2.784.16-2.445-1.6.314-1.627 1.876-2.682 3.245-2.844zm73.912 4.089c-.393 0-.667.466-.667 1.378 0 .782.683 1.422 1.511 1.422.829 0 1.106-.64.623-1.422-.564-.912-1.074-1.378-1.467-1.378zm89.467 3.066c-.291.108-.447.832-.4 1.956.068 1.657.39 2.023.844.889.41-1.027.384-2.283-.089-2.756a.334.334 0 0 0-.355-.089zm-21.2.445c5.097.004 2.123 2.717-8.178 4.933-6.543 1.408-38.356 1.666-47.245.4-11.072-1.576-4.319-2.693 16.712-2.755 12.715-.038 26.925-.794 31.555-1.69 2.521-.486 4.523-.752 6.045-.844a18.61 18.61 0 0 1 1.11-.044zm29.333 3.733c-.411-.011-.92.151-1.467.49-.847.523-1.159 1.603-.666 2.4.6.97 1.423.932 2.444-.09 1.37-1.369.923-2.764-.311-2.8zm-107.867 1.245c-1.86.337-2.424 3.087-.8 4.71 1.803 1.804 3.29.968 3.29-1.866 0-1.58-.949-2.844-2.134-2.844-.135 0-.232-.023-.356 0zm95.6 1.066c-.745.072-1.464.704-1.822 1.778-.26.782.563 1.422 1.867 1.422 1.303 0 2.103-.8 1.778-1.777-.336-1.007-1.078-1.495-1.823-1.423zm-85.377 4.623c-1.22 0-1.78.627-1.29 1.422.492.795 1.45 1.072 2.178.622 1.973-1.22 1.61-2.044-.888-2.044zm73.333 0c-.782 0-1.422.64-1.422 1.422 0 .782.64 1.422 1.422 1.422.782 0 1.422-.64 1.422-1.422 0-.782-.64-1.422-1.422-1.422zm10.578.133c-.195-.017-.445.044-.711.133-1.027.342-2.147 1.462-2.49 2.489-.355 1.067.178 1.6 1.245 1.244 1.027-.342 2.147-1.462 2.489-2.488.267-.8.05-1.328-.533-1.378zm-77.378 2.711c-1.38 0-2.857 5.232-1.778 6.311 1.6 1.6 2.466.716 2.667-2.755.113-1.955-.28-3.556-.89-3.556zm-14.267 1.422c-.799.068-1.545.464-2 1.2-.416.673-.367 1.633.133 2.134 1.902 1.901 6.071.954 5.245-1.2-.557-1.45-2.047-2.247-3.378-2.134z" style="fill:#000;stroke-width:1.42222" transform="translate(837.143 -33.076)"/><path style="font-style:normal;font-variant:normal;font-weight:700;font-stretch:normal;font-size:60px;font-family:Caslon;-inkscape-font-specification:'Caslon Bold';fill:#000;fill-opacity:1;stroke:none;stroke-width:1.42222px;stroke-linecap:butt;stroke-linejoin:miter;stroke-opacity:1" d="m-561.927 748.71-.342 4.182c-1.08 6.997-4.466 12.942-10.154 17.834-5.917 5.063-12.8 7.595-20.651 7.595h-23.979v-2.304h4.523c1.195 0 2.105-.654 2.73-1.963.171-.398.257-.796.257-1.194v-45.483c0-1.195-.598-2.133-1.792-2.816-.399-.228-.797-.341-1.195-.341h-4.523v-2.304h32.512c8.761 0 15.133 3.953 19.115 11.86 2.275 4.438 3.442 9.416 3.499 14.934m-7.424-1.024c-.513-7.793-2.817-13.852-6.912-18.176-3.073-3.185-6.77-4.778-11.094-4.778h-12.202c-1.48 0-2.475.967-2.987 2.9a5.61 5.61 0 0 0-.17 1.366v42.24c0 1.878.625 3.186 1.877 3.926.398.227.824.34 1.28.34h8.02c6.714 0 12.232-2.872 16.556-8.618 3.754-4.95 5.66-10.723 5.717-17.322 0-.626-.029-1.252-.085-1.878m40.97 32.427c-9.785 0-17.35-3.613-22.698-10.837-3.869-5.291-5.832-11.52-5.888-18.688 0-5.063 1.052-9.785 3.157-14.166 3.527-7.338 9.102-12.089 16.725-14.25 2.73-.74 5.604-1.11 8.619-1.11 9.785 0 17.322 3.613 22.613 10.838 3.869 5.29 5.803 11.52 5.803 18.688a31.472 31.472 0 0 1-1.11 8.96c-2.161 7.736-6.456 13.425-12.885 17.066-4.153 2.333-8.931 3.499-14.336 3.499m0-1.792h-.085c7.168 0 12.658-3.47 16.47-10.41 2.673-4.893 4.01-10.639 4.01-17.238 0-3.698-.455-7.253-1.365-10.667-2.105-7.623-5.917-12.771-11.435-15.445-2.333-1.138-4.864-1.707-7.595-1.707-7.11 0-12.544 3.47-16.298 10.41-2.674 4.95-4.011 10.696-4.011 17.238 0 7.737 1.792 14.25 5.376 19.542 3.755 5.518 8.732 8.277 14.933 8.277m95.264-54.016h-4.096c-2.39 0-4.067 1.536-5.034 4.608a10.713 10.713 0 0 0-.512 3.243v46.165h-5.462l-33.11-51.03v40.79c0 2.56.797 4.693 2.39 6.4.91.967 1.963 1.45 3.158 1.45h3.242v2.39h-20.394v-2.39h4.18c2.22 0 3.87-1.479 4.95-4.437.398-1.194.598-2.332.598-3.413v-40.704c0-1.252-.626-2.19-1.878-2.816a2.382 2.382 0 0 0-1.194-.341h-4.438v-2.304h13.312l32.683 49.578v-39.338c0-2.959-.825-5.206-2.475-6.742a4.42 4.42 0 0 0-2.986-1.11h-3.243v-2.388h20.31v2.389m58.743 12.459-1.962.085c-1.138-4.38-3.727-7.709-7.766-9.984-2.39-1.365-4.892-2.048-7.51-2.048h-6.826c-1.479 0-2.474.967-2.986 2.901a5.61 5.61 0 0 0-.171 1.366v43.776c0 1.365.626 2.332 1.877 2.9.342.172.711.257 1.11.257h4.522v2.304h-21.845v-2.304h4.523c1.194 0 2.104-.654 2.73-1.963a3.02 3.02 0 0 0 .256-1.194v-43.776c0-2.105-.682-3.47-2.048-4.096a3.49 3.49 0 0 0-1.11-.171h-3.498c-6.03 0-10.581 1.963-13.653 5.888-1.365 1.763-2.276 3.811-2.73 6.144l-2.134-.085 4.95-14.848h49.407l4.864 14.848m86 0-1.962.085c-1.138-4.38-3.727-7.709-7.766-9.984-2.39-1.365-4.892-2.048-7.51-2.048h-6.826c-1.479 0-2.474.967-2.986 2.901a5.61 5.61 0 0 0-.171 1.366v43.776c0 1.365.626 2.332 1.877 2.9.342.172.711.257 1.11.257h4.522v2.304h-21.845v-2.304h4.523c1.194 0 2.104-.654 2.73-1.963a3.02 3.02 0 0 0 .256-1.194v-43.776c0-2.105-.682-3.47-2.048-4.096a3.49 3.49 0 0 0-1.11-.171h-3.498c-6.03 0-10.581 1.963-13.653 5.888-1.365 1.763-2.276 3.811-2.73 6.144l-2.134-.085 4.95-14.848h49.407l4.864 14.848m58.41 41.557h-7.595c-2.845 0-5.12-1.394-6.827-4.181a4.487 4.487 0 0 0-.426-.683l-15.02-26.283h-9.13v25.686c0 1.365.626 2.332 1.878 2.9.34.172.71.257 1.109.257h4.437v2.304h-21.76v-2.304h4.523c1.195 0 2.105-.654 2.73-1.963.171-.398.257-.796.257-1.194v-45.398c0-1.308-.598-2.275-1.792-2.901-.399-.228-.797-.341-1.195-.341h-4.523v-2.304h27.136c7.111 0 11.69 2.19 13.739 6.57.512 1.195.825 2.532.939 4.01v3.5c-.626 5.575-3.528 9.073-8.704 10.496a17.1 17.1 0 0 1-2.56.512l14.762 25.173c1.195 2.048 2.902 3.413 5.12 4.096.626.227 1.223.341 1.792.341h1.11v1.707m-18.86-45.653c0-3.47-1.876-5.86-5.631-7.168-1.422-.512-2.987-.768-4.693-.768h-9.814V744.7h9.728c5.86 0 9.245-2.703 10.155-8.107l.256-3.925m64.756 28.928-4.437 16.725h-41.302v-2.304h4.523c1.195 0 2.105-.654 2.73-1.963.171-.398.257-.796.257-1.194v-45.483c0-1.195-.598-2.133-1.792-2.816-.399-.228-.797-.341-1.195-.341h-4.523v-2.304h41.984l3.755 17.066h-1.963l-1.11-2.56c-2.56-5.916-5.745-9.557-9.556-10.922-1.366-.512-2.902-.768-4.608-.768h-10.923c-1.593 0-2.617.995-3.072 2.986a4.64 4.64 0 0 0-.17 1.28v17.067h8.533c2.673 0 4.949-1.138 6.826-3.413 1.081-1.366 1.622-2.845 1.622-4.438v-1.536h1.792v21.675h-1.792v-1.536c0-2.617-1.252-4.836-3.755-6.656-1.48-1.138-3.044-1.707-4.693-1.707h-8.534v22.784c0 2.048.683 3.385 2.048 4.01.342.172.74.257 1.195.257h10.923c6.314 0 11.036-3.755 14.165-11.264l1.11-2.645h1.962m66.41 16.725h-19.371v-2.39h3.413c.967 0 1.564-.483 1.792-1.45l-.085-1.11-7.595-21.93h-16.64l-7.168 17.664a4.156 4.156 0 0 0-.341 1.707c0 .682.142 1.393.426 2.133.797 1.991 2.105 2.987 3.926 2.987h3.157v2.389h-19.883v-2.39h3.072c1.878 0 3.556-1.28 5.035-3.84.17-.398.341-.767.512-1.109l19.03-45.312-.854-2.56 5.803-3.328 18.858 52.736c.512 1.48 1.764 2.532 3.755 3.158.569.17 1.11.256 1.621.256h1.536v2.389m-22.613-29.184-6.741-19.883-8.192 19.883h14.933m77.343-.427-.342 4.182c-1.08 6.997-4.466 12.942-10.154 17.834-5.917 5.063-12.8 7.595-20.651 7.595h-23.979v-2.304h4.523c1.195 0 2.105-.654 2.73-1.963.171-.398.257-.796.257-1.194v-45.483c0-1.195-.598-2.133-1.792-2.816-.399-.228-.797-.341-1.195-.341h-4.523v-2.304h32.512c8.761 0 15.133 3.953 19.115 11.86 2.275 4.438 3.442 9.416 3.499 14.934m-7.424-1.024c-.512-7.793-2.816-13.852-6.912-18.176-3.072-3.185-6.77-4.778-11.094-4.778h-12.202c-1.48 0-2.475.967-2.987 2.9a5.61 5.61 0 0 0-.17 1.366v42.24c0 1.878.625 3.186 1.877 3.926.398.227.824.34 1.28.34h8.021c6.713 0 12.231-2.872 16.555-8.618 3.754-4.95 5.66-10.723 5.717-17.322a20.7 20.7 0 0 0-.085-1.878m61.137 32.427c-9.785 0-17.351-3.613-22.699-10.837-3.868-5.291-5.83-11.52-5.888-18.688 0-5.063 1.053-9.785 3.158-14.166 3.527-7.338 9.102-12.089 16.725-14.25 2.73-.74 5.603-1.11 8.619-1.11 9.784 0 17.322 3.613 22.613 10.838 3.868 5.29 5.803 11.52 5.803 18.688a31.472 31.472 0 0 1-1.11 8.96c-2.162 7.736-6.457 13.425-12.885 17.066-4.153 2.333-8.932 3.499-14.336 3.499m0-1.792h-.085c7.168 0 12.657-3.47 16.469-10.41 2.674-4.893 4.01-10.639 4.01-17.238 0-3.698-.455-7.253-1.365-10.667-2.105-7.623-5.916-12.771-11.434-15.445-2.333-1.138-4.864-1.707-7.595-1.707-7.111 0-12.544 3.47-16.299 10.41-2.673 4.95-4.01 10.696-4.01 17.238 0 7.737 1.792 14.25 5.376 19.542 3.754 5.518 8.732 8.277 14.933 8.277m95.264-54.016h-4.096c-2.39 0-4.068 1.536-5.035 4.608a10.713 10.713 0 0 0-.512 3.243v46.165h-5.461l-33.11-51.03v40.79c0 2.56.797 4.693 2.39 6.4.91.967 1.963 1.45 3.157 1.45h3.243v2.39H26.23v-2.39h4.182c2.218 0 3.868-1.479 4.949-4.437.398-1.194.597-2.332.597-3.413v-40.704c0-1.252-.626-2.19-1.877-2.816a2.386 2.386 0 0 0-1.195-.341H28.45v-2.304h13.312l32.683 49.578v-39.338c0-2.959-.825-5.206-2.475-6.742a4.42 4.42 0 0 0-2.987-1.11h-3.242v-2.388H86.05v2.389m90.175 54.016h-21.846v-2.304h4.523c1.194 0 2.105-.654 2.73-1.963.228-.398.342-.796.342-1.194v-46.336l-19.712 51.797h-4.864l-19.968-50.688v40.448c0 2.674.796 4.835 2.39 6.485.91.91 1.962 1.366 3.157 1.366h3.157v2.389h-20.31v-2.39h4.182c2.219 0 3.84-1.507 4.864-4.522.398-1.138.597-2.247.597-3.328v-40.704c0-1.195-.597-2.133-1.792-2.816a2.382 2.382 0 0 0-1.194-.341h-4.523v-2.304h14.763l20.138 51.114 19.542-51.114h13.824v2.304h-4.523c-1.252 0-2.134.682-2.645 2.048-.171.341-.257.71-.256 1.109v45.483c0 1.365.597 2.332 1.792 2.9.34.172.71.257 1.109.257h4.523v2.304m46.542-16.725-4.437 16.725h-41.301v-2.304h4.522c1.195 0 2.105-.654 2.73-1.963.172-.398.257-.796.257-1.194v-45.483c0-1.195-.597-2.133-1.792-2.816a2.386 2.386 0 0 0-1.195-.341h-4.522v-2.304h41.984l3.754 17.066h-1.962l-1.11-2.56c-2.56-5.916-5.746-9.557-9.557-10.922-1.366-.512-2.902-.768-4.608-.768h-10.923c-1.593 0-2.617.995-3.072 2.986a4.64 4.64 0 0 0-.17 1.28v17.067h8.533c2.674 0 4.95-1.138 6.827-3.413 1.08-1.366 1.62-2.845 1.62-4.438v-1.536h1.793v21.675h-1.792v-1.536c0-2.617-1.252-4.836-3.755-6.656-1.479-1.138-3.043-1.707-4.693-1.707h-8.533v22.784c0 2.048.682 3.385 2.048 4.01.34.172.74.257 1.194.257h10.923c6.314 0 11.036-3.755 14.165-11.264l1.11-2.645h1.962" transform="translate(837.143 -33.076)"/></svg>