<svg xmlns="http://www.w3.org/2000/svg" width="1280" height="853" viewBox="0 0 338.667 225.69"><defs><filter height="1" y="0" width="1" x="0" id="a" style="color-interpolation-filters:sRGB"><feGaussianBlur stdDeviation=".004"/></filter></defs><g style="mix-blend-mode:color;filter:url(#a)"><path style="fill:#00b0ef;stroke:#000;stroke-width:.264583;fill-opacity:1" d="M-9.449-5.292h363.991v244.551H-9.449z"/></g><g style="display:inline"><path d="M168.257 197.39c-.87-.216-1.85-1.037-2.42-2.029-2.085-3.632-3.045-5.334-4.17-7.4-.475-.872-1.011-1.765-1.192-1.984-.18-.218-.494-.783-.696-1.256-.202-.473-.444-.86-.537-.86-.093 0-.238-.209-.322-.463-.084-.255-.545-1.137-1.023-1.96-2.031-3.493-3.558-6.238-3.954-7.111-.626-1.378-.772-2.297-.33-3.316.284-.657 1.218-1.301 1.704-1.305 3.882-.035 13.158-.062 13.158-.062 7.237-.033 13.406.005 13.709.086 1.115.296 1.956 1.309 2.128 2.56.135.984.031 1.477-.578 2.747-.408.851-.983 1.898-1.278 2.327a22.018 22.018 0 0 0-1.04 1.72 55.612 55.612 0 0 1-1.918 3.322c-.359.582-.767 1.328-.908 1.66-.14.33-.652 1.223-1.137 1.984-.484.76-1.063 1.74-1.286 2.176-.764 1.496-2.15 3.969-2.412 4.303-.277.354-.994 1.608-1.547 2.709-.885 1.703-2.67 2.464-3.95 2.151zm-20.79-46.812c-2.35-.692-7.525-4.105-10.117-6.671-4.498-4.454-7.467-10.19-9.216-17.808-.721-3.141-1.352-3.333-1.352-10.936 0-5.24.648-8.197.825-8.99 1.176-4.086 1.812-8.633 2.68-12.34 2.266-9.533 1.78-20.565-1.342-30.473-1.067-3.387-1.218-3.75-3.32-8.03-1.606-3.266-3.205-5.861-4.873-7.907-1.518-1.861-1.286-1.986 2.1-1.126 4.696 1.192 8.907 2.628 13.537 4.615.874.375 1.94.815 2.372.98 2.181.828 9.688 4.795 12.212 6.453a213.5 213.5 0 0 0 1.991 1.294c2.298 1.437 6.942 4.915 7.836 5.917 1.027.94 2.675 2.203 3.503 3.468 0 .204-.476.935-1.058 1.625-.582.69-1.059 1.325-1.059 1.41 0 .085-.512.784-1.138 1.552-4.048 4.97-8.829 14.941-10.672 22.258-1.694 6.726-2.134 9.529-2.495 15.883-.157 2.76-.344 5.113-.417 5.23-.072.118-.007 1.789.145 3.714.153 1.926.412 5.347.575 7.602.164 2.256.39 4.637.504 5.292.113.655.41 2.44.66 3.969.248 1.528.547 3.016.663 3.307.116.291.354 1.057.53 1.701.315 1.16 1.545 3.911 2.186 4.89.361.552.535.766 2.053 2.527.56.65.96 1.275.89 1.39-3.012.77-5.556-.006-8.203-.796zm18.688.394c-3.537-1.21-5.87-2.804-7.938-5.425-2.464-3.124-3.322-6.007-4.383-14.735-.212-1.747-.514-3.95-.67-4.895-.468-2.831-.149-15.311.496-19.447 1.783-11.061 5.091-19.71 10.908-28.228 2.939-4.334 7.14-8.683 10.634-11.805.49-.678 4.762-4.083 6.816-5.433 4.512-2.953 9.554-5.924 14.035-7.915 6.946-2.716 16.258-6.772 22.62-7.34.338 0 .055.56-.885 1.75-1.869 2.37-5.854 9.436-6.771 12.008-1.675 4.696-2.163 6.367-2.935 10.054-.711 3.397-.894 5.53-.883 10.318.019 8.13.576 12.903 2.069 17.728.427 1.382.92 3.585 1.096 4.894.175 1.31.411 3.036.526 3.837.432 3.022.586 11.225.276 14.706-.503 5.646-2.116 11.34-4.32 15.25-.552.978-1.003 1.848-1.003 1.934 0 .264-3.068 4.202-4.11 5.275-2.29 2.358-6.112 5.019-9.384 6.533l-1.985.92c-.97.452-1.95.498-11.774.548-10.453.054-10.757.041-12.435-.532zm1.303-86.866c-.527-.569-4.713-4.206-5.669-4.925l-1.587-1.211c-3.35-2.564-6.717-4.692-11.458-7.242-1.265-.68-2.334-1.402-2.376-1.602-.056-.272.544-.44 2.381-.663 1.352-.165 2.755-.363 3.119-.44.363-.078 1.792-.375 3.175-.66 1.382-.287 2.87-.633 3.307-.77a37.127 37.127 0 0 1 2.249-.58c2.402-.546 8.939-2.744 11.774-3.96 8.041-3.446 13.54-6.712 19.663-11.68 2.563-2.078 3.776-2.359 5.434-2.02 2.946.631 2.588 7.575 2.548 9.956-.002 3.728-.092 6.909-.199 7.069-.107.16-.968.599-1.914.975-6.977 3.01-13.246 6.208-19.05 10.085a30.402 30.402 0 0 0-2.418 1.785c-3.046 2.21-5.051 4.06-7.034 5.818-1.044.927-1.143.93-1.945.065zm-30.47-18.84c-1.961-1.816-1.508-4.815-1.783-7.323-.802-7.301.003-7.371 1.849-8.734 1.97-1.452 3.253-1.13 6.786 1.708 2.245 1.803 4.94 3.796 6.308 4.663 1.827 1.276 3.947 2.363 5.754 3.272 1.565.775 2.845 1.547 2.845 1.714 0 .418-.5 1.046-6.478 2.295-3.365.917-9.414 2.162-10.851 2.356-.634.08-2.286.903-4.43.05z" style="fill:#fff;fill-opacity:1;stroke-width:.264583"/></g></svg>