<svg xmlns="http://www.w3.org/2000/svg" width="1280" height="853" viewBox="0 0 338.667 225.69"><path style="fill:red;stroke:none;stroke-width:1;stroke-linecap:square;paint-order:stroke markers fill" d="M-3.969-2.06h346.604v229.81H-3.969z"/><g transform="translate(-25.602 -17.061) scale(1.15119)"><circle style="fill:#ff0;stroke:none;stroke-width:1.091;stroke-linecap:square;paint-order:stroke markers fill" cx="169.333" cy="112.845" r="60"/><path d="M141.26 64.461a.174.174 0 0 0-.054 0c-.64.083-4.413 2.575-6.949 4.618-6.496 5.234-11.91 11.984-15.53 19.363-3.442 7.015-5.248 14.014-5.656 21.915l-.146 2.807h14.01c7.706 0 14.012-.08 14.014-.179.034-1.452.609-5.197 1.057-6.883 1.737-6.53 5.904-12.485 11.292-16.136l1.962-1.33-2.76-4.754a1665.253 1665.253 0 0 1-5.277-9.175c-2.343-4.11-5.788-10.052-5.932-10.229a.055.055 0 0 0-.031-.017zm56.414.135a.325.325 0 0 0-.23.114c-.27.293-2.987 4.96-9.09 15.61-1.205 2.103-2.785 4.84-3.511 6.085l-1.32 2.263 1.82 1.194c2.268 1.487 5.715 4.921 7.394 7.367 2.779 4.048 4.498 8.933 4.958 14.084l.165 1.851h27.881v-1.646c0-2.63-.657-8.14-1.29-10.817-2.254-9.522-6.986-18.575-13.24-25.327-3.76-4.06-7.35-7.101-11.472-9.72-1.243-.789-1.773-1.077-2.065-1.058zm-28.012 23.04c-11.637-.104-22.038 7.499-25.209 19.432-.428 1.613-.51 2.597-.514 6.216-.004 3.727.066 4.562.532 6.27.738 2.704 2.133 5.852 3.529 7.965 1.397 2.115 4.692 5.482 6.68 6.826 3.209 2.17 7.291 3.792 10.987 4.368 2.496.389 7.345.116 9.98-.56 10.55-2.712 18.11-11.503 19.286-22.426.823-7.64-2.09-15.478-7.787-20.946-2.992-2.873-6.608-5.033-10.133-6.055a27.242 27.242 0 0 0-7.351-1.09zm-.292 2.486c3.696 0 5.685.449 8.957 2.022 4.585 2.205 7.513 5.551 8.992 10.277.477 1.526.559 2.29.56 5.25.003 3.876-.292 5.485-1.705 9.301-2.842 7.673-9.487 16.37-14.441 18.897-2.076 1.059-3.634.787-6.304-1.1-5.18-3.662-10.777-11.74-13.236-19.106-3.502-10.49-.402-19.359 8.22-23.516 3.267-1.575 5.257-2.025 8.957-2.025zm-16.074 18.755c-.804-.019-.686.38-.57 1.839.333 4.167 1.735 7.386 4.353 9.997 1.929 1.925 3.907 3.028 6.625 3.696.948.233 2.401.432 3.23.442l1.504.017-.151-1.493c-.797-7.865-5.733-13.189-13.234-14.274-.834-.12-1.39-.216-1.757-.224zm32.57.047c-1.05-.01-3.583.461-5.334 1.04-4.634 1.535-8.214 5.497-9.497 10.512-.259 1.012-.47 2.431-.47 3.152v1.311l1.97-.148c6.39-.482 11.464-4.509 13.184-10.462.497-1.722.877-5.042.609-5.317-.057-.058-.22-.086-.462-.088zm-2.143 29.008c-.207 0-.938.29-1.765.708-4.048 2.04-7.52 2.817-12.588 2.817-5.016 0-7.907-.628-12.249-2.662-1.123-.526-1.942-.784-2.071-.651-.118.12-2.07 3.445-4.338 7.386a4883.942 4883.942 0 0 1-6.815 11.804c-1.48 2.551-2.634 4.731-2.564 4.844.22.357 5.109 2.713 7.972 3.843 4.027 1.589 10.126 3.013 15.407 3.599 1.989.22 10.34-.065 12.66-.432 2.634-.418 7.319-1.515 9.568-2.241 3.1-1.001 9.528-3.92 10.342-4.695.27-.257-.201-1.215-2.842-5.769-1.741-3.002-4.83-8.361-6.863-11.909l-3.798-6.625c-.008-.012-.026-.018-.056-.017z" style="fill:#000;stroke:none;stroke-width:.902785;stroke-linecap:square;paint-order:stroke markers fill"/></g></svg>