<svg xmlns="http://www.w3.org/2000/svg" height="853.333" width="1280" version="1.0"><path style="fill:#000;fill-opacity:1;fill-rule:evenodd;stroke:none;stroke-width:2.13333px;stroke-linecap:butt;stroke-linejoin:miter;stroke-opacity:1" d="M143.442 328.103h1280v853.333h-1280z" transform="translate(-143.442 -328.103)"/><path style="fill:#fff;fill-opacity:1;stroke:none;stroke-width:5.41511" d="M1103.442 754.77a320 320 0 1 1-640 0 320 320 0 1 1 640 0z" transform="translate(-143.442 -328.103)"/><a transform="scale(4.2667) rotate(2.5 19682.518 526.194)"><path style="fill:#d00;fill-opacity:1;fill-rule:evenodd;stroke:none;stroke-width:1px;stroke-linecap:butt;stroke-linejoin:miter;stroke-opacity:1" transform="rotate(-2.5 7651.927 4077.125)" d="M305.094 555.906c-24.376 18.945-37.903 39.826-45.281 71.094-13.236-2.324-27.295-6.334-38.688-10.875 19.046 24.506 40.048 38.023 71.594 45.375-2.323 13.244-6.33 27.317-10.875 38.719 24.448-19.002 37.949-39.952 45.312-71.375 13.18 2.328 27.16 6.355 38.5 10.875-19.007-24.456-39.966-38.013-71.406-45.375 2.33-13.161 6.331-27.117 10.844-38.438z"/></a></svg>