<svg xmlns="http://www.w3.org/2000/svg" viewBox="0 0 338.667 225.69" height="853" width="1280"><rect style="fill:#c00;fill-opacity:1;fill-rule:nonzero;stroke:none;stroke-width:2.94351;stroke-linecap:butt;stroke-linejoin:round;stroke-miterlimit:4;stroke-dasharray:none;stroke-dashoffset:0;stroke-opacity:.909449;paint-order:normal" width="340.935" height="230.565" x="-1.134" y="-2.438" rx="0" ry="0"/><path style="fill:#ffd701;fill-opacity:1;stroke:none;stroke-width:.571384;stroke-opacity:1" d="M236.744 50.245a10.838 10.838 0 0 0-6.526.028c-2.858.923-3.246 1.511-4.842 7.32-.731 2.658-1.57 5.612-1.863 6.562a70.487 70.487 0 0 0-.904 3.208c-.2.816-.64 2.428-.974 3.584-1.046 3.614-2.28 8.077-2.312 8.375-.018.157-.328 1.297-.689 2.536-.36 1.24-.876 3.123-1.147 4.186a869.048 869.048 0 0 1-1.831 6.93c-.735 2.748-1.322 5.057-1.302 5.131.018.075-.128.663-.328 1.307-.424 1.364-2.236 8.767-3.347 13.66-.666 2.932-.912 5.697-.732 8.23.109 1.54 1.035 3.655 2.151 4.913.952 1.073 1.377 1.32 2.746 1.622 1.473.324 1.803.294 3.663-.305 1.623-.524 2.313-.9 3.347-1.823 2.023-1.806 2.179-2.192 4.918-12.24 1.188-4.359 2.347-8.622 2.517-9.259.066-.246.43-1.523.811-2.837.381-1.315.705-2.526.72-2.688.018-.164.396-1.579.844-3.146a627.816 627.816 0 0 0 1.632-5.837c.45-1.644 1.195-4.288 1.657-5.875.462-1.586.822-2.944.8-3.022-.022-.079.307-1.337.728-2.8 1.748-6.044 5.138-18.418 5.477-19.985.185-.857.122-1.667-.232-2.99-.437-1.63-.613-1.93-1.749-2.963-.9-.82-2.014-1.435-3.235-1.823zM123.476 20.077c-1.815-.579-3.899-.653-5.953-.13-1.616.41-2.11.652-2.924 1.44-.872.845-1.169 1.601-2.695 6.813-.944 3.223-1.796 6.254-1.892 6.737-.096.483-.468 1.828-.832 2.992-.364 1.164-.71 2.405-.764 2.755-.05.35-.265 1.177-.47 1.842-.368 1.18-1.936 6.901-3.616 13.184-.461 1.723-1.19 4.4-1.615 5.946a142.872 142.872 0 0 0-1.052 4.02c-.153.665-.69 2.817-1.198 4.78-3.326 12.881-4.112 17.125-3.792 20.476.176 1.857.293 2.296.986 3.65.882 1.723 2.325 2.797 4.272 3.178 1.399.274 1.865.24 3.343-.252 3.076-1.023 5.802-4.056 6.34-7.053.114-.64.513-2.18.892-3.424.377-1.243.767-2.656.866-3.14.1-.483.477-1.892.835-3.13a752.486 752.486 0 0 0 1.604-5.693c.526-1.892 1.256-4.517 1.624-5.835.369-1.318.9-3.269 1.18-4.333.56-2.143.695-2.634 1.97-7.177.487-1.73 1.011-3.674 1.163-4.325.153-.65.54-2.046.866-3.1.325-1.055.581-1.966.565-2.026-.017-.06.342-1.42.797-3.024s1.195-4.26 1.642-5.904a595.25 595.25 0 0 1 1.503-5.415c1.878-6.6 2.012-8.691.692-10.705-.977-1.488-2.522-2.569-4.337-3.147zm19.422 8.711-.438 1.555c-1.472 5.242-2.248 8.113-2.224 8.204.017.058-.399 1.608-.915 3.448a902.949 902.949 0 0 0-3.197 11.706c-.438 1.64-1.103 4.06-1.477 5.38a129.454 129.454 0 0 0-1.105 4.174c-.231.977-.541 2.12-.69 2.54-.147.42-.557 1.9-.91 3.289-.353 1.39-.803 3.069-.996 3.73-.726 2.477-2.163 7.745-2.138 7.836.011.051-.362 1.444-.833 3.092-.472 1.649-.847 3.055-.828 3.124.017.07-.147.697-.367 1.401-.382 1.22-1.906 6.763-2.731 9.936l-.001.004c-.213.819-.312 1.647-.223 1.839.088.192 1.306.657 2.703 1.037 1.397.379 3.813 1.04 5.374 1.462 1.56.423 4.276 1.176 6.035 1.674 1.758.498 3.253.89 3.326.87.072-.018 1.193.277 2.487.657 1.911.563 4.95 1.397 8.766 2.41 3.66.969 6.723 1.8 9.454 2.568 1.836.515 3.385.927 3.445.91.061-.017 1.536.369 3.274.855a625.82 625.82 0 0 0 4.167 1.152c.553.148 2.485.672 4.293 1.169 1.808.493 4.34 1.167 5.625 1.498 1.285.33 3.183.864 4.222 1.189 1.04.324 1.957.574 2.033.553.077-.023 1.045.223 2.153.547 1.107.323 2.038.546 2.067.488.071-.135 1.373-4.917 2.018-7.416a141.92 141.92 0 0 1 1.107-3.996c.334-1.134.59-2.12.57-2.194-.024-.074.28-1.233.663-2.573.738-2.583 2.13-7.662 3.453-12.593a483.46 483.46 0 0 1 1.477-5.38c.371-1.318.863-3.196 1.096-4.172.23-.977.546-2.119.694-2.54.148-.42.558-1.902.912-3.292.353-1.39.796-3.066.99-3.728.781-2.661 2.168-7.749 2.14-7.852-.017-.06.395-1.613.91-3.45a3778.24 3778.24 0 0 0 1.611-5.734c.972-3.459 1.687-6.42 1.559-6.465-.736-.251-6.312-1.817-6.393-1.796-.062.017-1.431-.342-3.046-.797-1.614-.454-4.41-1.22-6.214-1.7a344.656 344.656 0 0 1-5.939-1.644c-1.461-.422-2.707-.75-2.77-.733-.064.017-1.467-.358-3.116-.83-1.648-.472-3.056-.841-3.13-.82-.072.016-.84-.192-1.705-.466a62.906 62.906 0 0 0-3.206-.895 185.66 185.66 0 0 1-4.174-1.11 795.668 795.668 0 0 0-5.528-1.506 1287.597 1287.597 0 0 1-11.65-3.174c-1.811-.504-3.422-.932-3.579-.95-.25-.028-3.049-.785-7.684-2.084zm79.255 24.421c-.68-.212-2.298-.64-3.6-.95-1.301-.311-2.53-.632-2.729-.714-.248-.105-.558.64-1.01 2.424-1.027 4.053-1.16 4.552-2.013 7.63-.444 1.595-.787 2.952-.77 3.018.017.065-.353 1.483-.821 3.147-.468 1.665-.835 3.082-.818 3.149.034.119-.329 1.47-2.26 8.454-.518 1.863-.925 3.433-.91 3.489.029.1-1.583 6.226-2.467 9.372a100.64 100.64 0 0 0-.816 3.127c-.33 1.387-4.435 17.042-5.154 19.66h.004c-.181.658-.312 1.288-.288 1.4.045.214.883.47 5.225 1.596 1.45.378 2.654.64 2.671.59.116-.336 1.421-5.442 1.73-6.763.205-.885.711-2.829 1.121-4.319.943-3.415 3.445-12.952 3.914-14.911.195-.814.622-2.397.955-3.516.332-1.12.585-2.101.563-2.183-.023-.083.352-1.477.831-3.101.48-1.624.853-3.03.827-3.12-.023-.09.345-1.51.816-3.158.472-1.648.843-3.047.828-3.107-.017-.059.171-.823.419-1.695.247-.873.802-2.926 1.227-4.564a3168.27 3168.27 0 0 1 1.709-6.551 997.788 997.788 0 0 0 1.495-5.796l.56-2.222zm-89.54-23.61c-1.06-.25-1.316-.227-1.43.117-.49 1.468-3.225 11.595-3.179 11.767.017.061-.275 1.226-.649 2.586a625.832 625.832 0 0 0-1.51 5.6 1374.4 1374.4 0 0 1-1.63 6.116c-.444 1.642-.887 3.38-.987 3.864-.1.483-.47 1.89-.824 3.125a98.962 98.962 0 0 0-.925 3.433c-.321 1.363-1.52 5.925-3.838 14.601a723.58 723.58 0 0 0-1.77 6.848c-.579 2.288-1.211 4.636-1.403 5.22-.192.585-.324 1.185-.295 1.33.028.144.638.393 1.35.556.71.164 2.416.61 3.793.991 1.376.38 2.567.677 2.644.657.13-.034 1.247-4.079 2.11-7.63a302.8 302.8 0 0 1 1.271-4.909c.504-1.886 1.212-4.545 1.57-5.906.357-1.36.984-3.681 1.387-5.16.402-1.478.717-2.736.702-2.797-.017-.061.355-1.468.824-3.125.47-1.656.838-3.078.816-3.158-.023-.08.352-1.477.83-3.101.48-1.624.852-3.031.826-3.13-.029-.097.311-1.392.75-2.88.438-1.486.781-2.765.761-2.841-.023-.076.183-.899.455-1.83.27-.93.863-3.131 1.315-4.892.452-1.76 1.203-4.64 1.668-6.401 1.827-6.925 1.879-7.186 1.505-7.349-.454-.195-4.42-1.297-6.136-1.701zm15.236 81.208-.101.33c-.45 1.45-.886 2.984-.874 3.085.017.137-.528 1.978-1.05 3.564-.19.575-.32 1.072-.289 1.109.03.034-.109.594-.305 1.235a98.16 98.16 0 0 0-.692 2.36c-.184.66-.466 1.63-.625 2.158a26.82 26.82 0 0 0-.4 1.44c-.059.264-.238.94-.401 1.5-.164.56-.442 1.529-.617 2.155-.175.627-.485 1.709-.687 2.401a121.93 121.93 0 0 0-.69 2.457 218.743 218.743 0 0 1-1.398 4.914c-.14.461-.406 1.43-.597 2.156-.19.726-.52 1.912-.732 2.637-.819 2.805-.951 3.276-1.27 4.496a69.29 69.29 0 0 1-.836 3.026c-.162.545-.439 1.504-.615 2.13-.672 2.387-.874 3.092-1.175 4.078-.172.557-.286 1.051-.258 1.096.029.045 1.036.356 2.24.69 2.956.825 7.94 2.182 9.253 2.524.587.153 2.763.734 4.83 1.286 2.068.552 3.806 1 3.864 1.004.098.004.323-.719 1.094-3.47a98.14 98.14 0 0 1 .671-2.28c.195-.625.35-1.192.342-1.26-.006-.067.145-.658.335-1.317.193-.66.759-2.64.759-2.64.225-.79.536-1.82.695-2.285.156-.467.262-.874.233-.907-.045-.051.435-1.807.866-3.162.082-.264.245-.8.356-1.195.11-.396.329-1.177.488-1.738.159-.56.43-1.532.604-2.158.174-.626.506-1.816.738-2.64.232-.824.564-2.01.737-2.635.172-.627.434-1.517.581-1.978.15-.46.328-1.103.4-1.423.07-.32.218-.832.327-1.137.107-.307.234-.772.286-1.036.124-.638.656-2.508 1.085-3.807.19-.575.32-1.074.293-1.108-.03-.034.072-.425.224-.87.153-.445.503-1.673.778-2.729.274-1.056.625-2.283.778-2.729.152-.445.254-.835.224-.87-.029-.034.103-.48.291-.99.187-.51.368-1.154.405-1.43l.07-.503-.852-.259a92.214 92.214 0 0 0-2.624-.716c-.976-.253-2.92-.776-4.321-1.158-5.768-1.57-8.298-2.252-9.276-2.504a74.513 74.513 0 0 1-2.094-.583zm10.504 57.63a583.718 583.718 0 0 1-5.82-1.533c-1.36-.369-2.536-.651-2.612-.631-.078.023-1.065-.218-2.196-.529-2.513-.686-8.536-2.238-10.552-2.718-4.508-1.073-9.233-2.289-9.505-2.442-.171-.098-.392-.155-.492-.128-.168.046-1.033 2.939-1.17 3.915-.034.237-.505 2.106-1.046 4.151l-.983 3.717.712.295c.39.164.796.276.902.25.105-.028 1.767.364 3.692.864 6.465 1.677 7.353 1.905 11.228 2.873 5.063 1.268 4.782 1.192 6.84 1.746.985.266 2.447.615 3.252.776.804.16 1.81.412 2.23.562.847.3 5.828 1.496 6.023 1.444.067-.017.356-1.002.642-2.183.285-1.18.924-3.723 1.419-5.651s.872-3.599.843-3.711c-.029-.112-1.562-.593-3.403-1.068zm-26.18 8.69c-1.766-.48-3.338-.8-3.489-.714-.248.144-.676 1.621-1.995 6.862-.441 1.755-.827 3.208-2.527 9.512a369.606 369.606 0 0 0-1.255 4.752 224.56 224.56 0 0 1-2.133 7.893c-.37 1.27-.653 2.362-.628 2.426.023.064-.244 1.093-.6 2.286-.354 1.193-.626 2.22-.605 2.276.023.057-.278 1.164-.664 2.464-.387 1.299-.682 2.42-.655 2.492.029.071-.248 1.089-.609 2.257-.36 1.169-.666 2.315-.68 2.552-.016.236-.205.976-.422 1.646-.22.67-.546 1.85-.724 2.622l23.793 6.645c.407-1.568 3.157-11.14 3.524-12.423.366-1.284.65-2.376.629-2.43-.017-.052.211-.982.514-2.065 1.35-4.816 2.033-7.387 1.996-7.483-.023-.057.28-1.16.671-2.453.39-1.292.692-2.399.668-2.459-.023-.06.295-1.323.708-2.808 1.537-5.517 1.839-6.643 1.805-6.734-.018-.052.279-1.159.664-2.464.386-1.306.681-2.423.657-2.484-.023-.06.183-.848.455-1.75.625-2.066 1.322-4.9 1.211-4.942-.15-.06-5.126-1.413-8.448-2.3-7.38-1.966-8.784-2.345-11.858-3.177z"/></svg>