<svg xmlns="http://www.w3.org/2000/svg" xml:space="preserve" height="853.333" width="1280"><path style="stroke-width:1.42222" d="M0 0h1280v853.333H0z"/><g stroke-miterlimit="10" stroke-width="6" stroke="#fff" fill="#ed1c24"><g transform="scale(1.42222)"><path d="M463.388 377.858 258.944 173.415v-40.889h40.889L504.276 336.97"/><ellipse ry="10.843" rx="28.913" cy="357.414" cx="483.832" transform="rotate(-45.001 483.83 357.421)"/><path d="M476.165 349.747 281.943 155.525m230 230-40.745 40.746-35.921-20.302 9.121-24.455 20.371 10.297 26.73-26.73z"/><path d="m511.943 385.525 40.746-40.745-20.301-35.921-24.456 9.121 10.297 20.371-26.73 26.73z"/><ellipse ry="14.458" rx="38.762" cy="455.036" cx="581.454" transform="rotate(-45.001 581.451 455.045)"/><path d="m557.322 459.02-59.431-59.432 28.11-28.11 59.431 59.43zM505.043 406.735l28.11-28.11m7.412 7.412-28.11 28.11m35.522-20.701-28.113 28.112m7.412 7.412 28.112-28.112m7.411 7.411-28.112 28.11m35.523-20.698-28.111 28.11m7.41 7.412 28.112-28.112"/></g><path d="M820.898 183.148 355.556 633.714l58.151 58.153 450.566-465.343z" stroke-width="8.533"/><path d="m779.06 163.685 145.384 145.382-62.926 62.927L716.136 226.61l-50.883-50.883-.276-14.26z" stroke-width="8.533"/></g></svg>