<svg xmlns="http://www.w3.org/2000/svg" width="1280" height="853" viewBox="0 0 338.667 225.69"><path style="fill:red;fill-opacity:1;stroke-width:.264583" d="M-4.536-3.024h345.47v233.589H-4.536z"/><path style="fill:#000;stroke-width:1.19439" d="M94.563 188.417c-63.042-125.611-31.52-62.805 0 0zm117.172-2.322a1210.674 1210.674 0 0 0-10.1-8.622 5126.808 5126.808 0 0 1-14.93-12.68 1517.74 1517.74 0 0 0-14.78-12.433l-6.365-5.259-19.934 19.908-19.933 19.908-8.088-8.15-8.087-8.149 18.551-18.436c10.203-10.14 18.556-19.02 18.561-19.736.01-1.386-5.44-6.609-14.535-13.928-5.867-4.721-9.964-5.546-16.053-3.231-2.83 1.076-3.694.835-6.28-1.75l-2.998-2.999 2.917-2.522c1.605-1.388 11.937-11.35 22.96-22.138 11.023-10.788 20.741-19.615 21.596-19.615 2.941 0 4.786 5.383 3.303 9.637-.74 2.122-1.345 4.825-1.345 6.008 0 2.84 15.486 23.43 18.383 24.443 1.75.612 4.66-1.6 12.89-9.795 5.848-5.822 11.684-12.58 12.97-15.017 2.537-4.808 3.075-12.863 1.104-16.545-2.29-4.28-9.88-7.087-19.321-7.147l-8.707-.056 5.941-3.09c15.508-8.064 34.934-3.033 50.606 13.107 3.206 3.301 4.69 5.65 3.882 6.15-3.631 2.244-.312 12.325 5.476 16.632 2.451 1.824 3.532 1.988 5.928.896 1.611-.734 3.69-1.335 4.618-1.335 2.126 0 6.56 4.671 6.56 6.91 0 2.363-15.508 18.173-17.826 18.173-2.105 0-8.814-5.723-8.178-6.975 4.121-8.11 4.203-7.254-1.17-12.266-8.476-7.906-10.278-7.25-27.488 10.001-8.037 8.057-14.614 15.478-14.614 16.492 0 1.013 1.292 3.424 2.871 5.357 1.579 1.934 8.343 10.503 15.032 19.043s13.056 16.604 14.15 17.92c1.093 1.316 3.716 4.594 5.828 7.286l3.84 4.893-3.484 4.739c-2.73 3.71-8.13 7.805-9.926 7.525-.133-.024-1.855-1.44-3.825-3.154zM95.918 96.167c-1.843-2.036-2.01-3.691-1.268-12.594.725-8.701 1.112-10.036 2.562-8.833 2.074 1.722 1.96 1.877 4.014-5.491 1.934-6.94 2.172-11.973.757-16.005l-1.005-2.866 13.574.821c20.94 1.267 28.504 4.686 28.504 12.885 0 3.384-2.245 9.386-3.476 9.291-.387-.031-2.048-2.851-3.69-6.27-3.5-7.288-7.166-9.015-7.166-3.377 0 1.986-.582 6.326-1.294 9.643-1.137 5.301-1.656 6.03-4.294 6.03-1.651 0-4.594-1.133-6.54-2.519-1.945-1.385-3.778-2.278-4.072-1.984-.293.293-.666 3.666-.827 7.494-.198 4.726.187 7.12 1.2 7.46 2.614.872 1.606 2.688-1.492 2.688-3.498 0-3.712.802-1.01 3.788 1.895 2.093 1.678 2.184-5.19 2.184-5.604 0-7.628-.511-9.287-2.345z"/></svg>