<svg xmlns="http://www.w3.org/2000/svg" width="1280" height="853" viewBox="0 0 338.667 225.69"><path style="fill:#8f0cff;stroke-width:1;stroke-linecap:square;paint-order:stroke markers fill;fill-opacity:1" d="M-3.78-3.78h345.47v233.589H-3.78z"/><path style="opacity:1;fill:#ffdd02;fill-opacity:1;stroke-width:.444068" d="M205.237 198.64c-1.968-3.143-17.286-3.865-24.574-4.142l-1.317-71.313 3.285-.453c4.568 0 17.064-1.855 24.382-3.617 6.909-1.664 15.355-4.498 21.606-7.25 2.513-1.105 6.457-2.59 6.363-3.48-.126-1.201-5.657-.125-7.32.03-12.925 1.204-35.726.643-57.46-1.413-15.678-1.484-22.291-2.148-35.354-2.126-13.997.024-18.597.75-27.06 2.531-3.226.68-4.105.954-4.105.954s2.948 1.453 5.633 2.598c18.315 7.806 40.758 12.21 62.256 12.217 2.733 0 5.054.151 5.156.334l-2.107 70.924c-8.902.636-26.353-.612-28.676 4.368 2.685.195 57.11-.022 59.292-.163zm-28.21-93.892c-4.738-10.926-6.773-19.175-6.792-27.532-.012-5.417.572-9.065 2.868-17.903 3.566-13.723 3.791-18.387 1.485-30.722l-.516-1.78 1.434 2.224c2.342 3.872 6.477 12.846 8.223 18.07 4.336 12.969 4.674 26.185.305 42.095-2.352 8.566-5.774 17.422-5.774 17.422s-.493-.168-1.233-1.874zm2.195-10.88c.977-5.519 1.096-13.156.289-18.617-.413-2.791-1.01-5.57-1.328-6.177-.564-1.077-.592-1.047-1.194 1.299-.804 3.131-.828 18.053-.036 22.386 1.04 5.694 1.424 5.882 2.269 1.11z"/></svg>