<?xml version="1.0" encoding="UTF-8" standalone="no"?>
<svg
   xmlns:dc="http://purl.org/dc/elements/1.1/"
   xmlns:cc="http://creativecommons.org/ns#"
   xmlns:rdf="http://www.w3.org/1999/02/22-rdf-syntax-ns#"
   xmlns:svg="http://www.w3.org/2000/svg"
   xmlns="http://www.w3.org/2000/svg"
   xmlns:sodipodi="http://sodipodi.sourceforge.net/DTD/sodipodi-0.dtd"
   xmlns:inkscape="http://www.inkscape.org/namespaces/inkscape"
   width="900"
   height="600"
   viewBox="0 0 238.12499 158.75"
   version="1.1"
   id="svg8"
   inkscape:version="1.0.1 (3bc2e813f5, 2020-09-07)"
   sodipodi:docname="Flag of Trotskyism 2.svg"
   inkscape:export-filename="C:\Users\MrEuroBlue\Desktop\Countrys\​​​templetes​​\Flag of Trotskyism 2.png"
   inkscape:export-xdpi="640"
   inkscape:export-ydpi="640">
  <defs
     id="defs2" />
  <sodipodi:namedview
     id="base"
     pagecolor="#ffffff"
     bordercolor="#666666"
     borderopacity="1.0"
     inkscape:pageopacity="0.0"
     inkscape:pageshadow="2"
     inkscape:zoom="0.5"
     inkscape:cx="271.15264"
     inkscape:cy="286.67136"
     inkscape:document-units="mm"
     inkscape:current-layer="layer1"
     inkscape:document-rotation="0"
     showgrid="false"
     units="px"
     inkscape:window-width="1920"
     inkscape:window-height="1017"
     inkscape:window-x="-8"
     inkscape:window-y="-8"
     inkscape:window-maximized="1" />
  <metadata
     id="metadata5">
    <rdf:RDF>
      <cc:Work
         rdf:about="">
        <dc:format>image/svg+xml</dc:format>
        <dc:type
           rdf:resource="http://purl.org/dc/dcmitype/StillImage" />
        <dc:title></dc:title>
      </cc:Work>
    </rdf:RDF>
  </metadata>
  <g
     inkscape:label="Слой 1"
     inkscape:groupmode="layer"
     id="layer1">
    <g
       id="g35267"
       transform="matrix(0.26458333,0,0,0.26458333,439.67183,-112.18111)">
      <path
         fill="#bc0000"
         fill-opacity="1"
         d="m -1661.7518,423.9916 h 900.00002 v 600 h -900.00002 z"
         id="path2"
         style="fill:#cc0000;fill-opacity:1;stroke-width:1" />
    </g>
    <g
       id="g36379"
       transform="matrix(0.27212028,0,0,0.27614301,-178.82772,10.17382)"
       style="fill:#ffffff;stroke-width:2.83193">
      <g
         id="g37062"
         transform="translate(-161.22035,-46.669047)"
         style="stroke-width:2.83193">
        <path
           id="path3822"
           style="fill:none;stroke:#ffffff;stroke-width:4.74237;stroke-miterlimit:4;stroke-dasharray:none;stroke-opacity:1"
           d="m 1089.6097,48.514979 c 17.7401,17.234327 24.1863,38.227626 19.3384,58.193711 -2.7669,11.39581 -9.2131,22.45699 -19.3384,32.29363 m -39.6523,-16.51489 c 21.4267,-15.06197 50.1942,-15.06197 71.621,0 m -38.8529,-74.407788 c -28.0586,27.258566 -28.0586,63.855838 0,91.114408 m 2.8052,-91.066188 c -25.4941,0.128824 -46.0735,20.565491 -46.0066,45.672402 0.067,25.105616 20.7533,45.399106 46.2437,45.399106 25.4905,0 46.177,-20.29349 46.2438,-45.399106 0.067,-25.106911 -20.5125,-45.543578 -46.0066,-45.672402 z m 0.2371,0 v 91.134048 m 46.2454,-45.567026 h -92.4907 m 10.4349,-27.417429 c 21.4267,15.061971 50.1942,15.061971 71.621,0"
           sodipodi:nodetypes="csccccccssscccccccc" />
        <rect
           style="fill:#ffffff;fill-rule:evenodd;stroke-width:0;stroke-linecap:round;stroke-linejoin:bevel;stroke-opacity:0.25;paint-order:markers stroke fill"
           id="rect837"
           width="2.3411877"
           height="2.470001"
           x="1102.9254"
           y="117.81145" />
        <g
           id="g912"
           transform="matrix(0.35357299,0,0,0.34815827,1042.8864,29.35007)"
           style="stroke-width:8.07154">
          <g
             id="g36430"
             transform="translate(547.49079,-560.463)"
             style="stroke-width:8.07154">
            <path
               id="path36396"
               style="fill:#ffffff;fill-rule:evenodd;stroke-width:0;stroke-linecap:round;stroke-linejoin:bevel;stroke-opacity:0.25;paint-order:markers stroke fill"
               d="m 149.95703,612.5 a 137.5,137.5 0 0 0 -3.80859,0.0547 c -2.24222,7.28091 -7.97504,25.8239 -15.66602,50.74414 l -15.80859,51.19336 -57.335939,0.0625 -40.207032,0.0644 a 137.5,137.5 0 0 0 -2.490234,11.21094 l 31.728516,24.23242 46.367187,35.44531 -2.316406,7.47266 c -1.29044,4.1375 -9.238977,29.85801 -17.685547,57.21484 -1.338266,4.33438 -2.190095,7.11898 -3.427734,11.13477 a 137.5,137.5 0 0 0 21.93164,12.98047 c 4.440815,-3.39065 7.687205,-5.86177 12.583989,-9.60352 l 46.25195,-35.38476 0.76172,0.58789 c 4.7953,3.71525 33.67935,25.76426 58.05468,44.33984 a 137.5,137.5 0 0 0 21.98047,-13.04883 c -1.96639,-6.37587 -3.48573,-11.3227 -5.71679,-18.53906 -9.73702,-31.49431 -17.65629,-57.27771 -17.62696,-57.30859 0.0587,-0.0309 20.88288,-15.96328 46.28125,-35.38477 l 31.55079,-24.12695 a 137.5,137.5 0 0 0 -2.49024,-11.22266 l -40.11719,-0.0644 -57.25,-0.0625 -0.43945,-1.48242 C 184.41212,710.73649 160.15656,632.26939 154.02344,612.5586 A 137.5,137.5 0 0 0 150,612.5 a 137.5,137.5 0 0 0 -0.043,0 z"
               transform="translate(-576.21039,-4.8124574)" />
            <path
               d="m -427.58516,640.20403 c -0.76987,2.52421 -6.75287,21.86076 -13.26376,42.9573 l -11.856,38.39528 -43.00273,0.0463 -43.00274,0.0695 34.77613,26.56175 34.77612,26.58491 -1.73771,5.60414 c -0.96783,3.10312 -6.92883,22.39339 -13.26376,42.911 -6.33493,20.51762 -11.48206,37.30688 -11.46006,37.35319 0.044,0.0463 15.68335,-11.87985 34.77612,-26.46913 l 34.68814,-26.53858 0.57191,0.43999 c 6.24695,4.83993 68.91436,52.63718 68.95835,52.56772 0.022,-0.0463 -5.917,-19.3829 -13.21976,-43.00364 -7.30277,-23.62073 -13.24177,-42.95732 -13.21977,-42.98048 0.044,-0.0231 15.66135,-11.97247 34.71014,-26.53859 l 34.64414,-26.49228 -42.93675,-0.0695 -42.93674,-0.0463 -0.32994,-1.11156 c -0.54991,-1.92208 -26.13159,-84.68726 -26.19758,-84.75674 -0.044,-0.0463 -0.70389,1.99152 -1.47375,4.51572 z"
               id="path2-6"
               style="fill:#cc0000;fill-opacity:1;stroke-width:0.0620881" />
          </g>
        </g>
        <rect
           style="fill:#ffffff;fill-rule:evenodd;stroke:none;stroke-width:0;stroke-linecap:round;stroke-linejoin:bevel;stroke-opacity:0.25;paint-order:markers stroke fill"
           id="rect36432"
           width="3.8752146"
           height="2.3387582"
           x="1104.4344"
           y="105.12247" />
      </g>
    </g>
    <g
       id="g36343"
       transform="matrix(-0.38988821,0,0,0.37707362,986.74947,-133.87486)"
       style="fill:#ffffff;stroke-width:2.60805">
      <path
         sodipodi:nodetypes="ccscsccc"
         inkscape:connector-curvature="0"
         id="path2596"
         d="m 2378.1643,558.65686 13.4971,-52.38483 c 48.0301,23.12663 67.9976,-17.03747 70.4906,-36.03576 4.7506,-36.20276 -40.1125,-68.53173 -78.1078,-50.15866 46.1795,-29.69566 87.0415,-1.53892 94.8844,36.25845 7.2114,34.75408 -24.2061,78.35385 -72.9683,68.17712 l -6.2839,40.09396 c -8.689,1.18505 -15.7196,-1.09064 -21.5121,-5.95028 z"
         style="fill:#ffffff;stroke:none;stroke-width:0.690047px;stroke-linecap:butt;stroke-linejoin:miter;stroke-opacity:1" />
      <path
         sodipodi:nodetypes="ccccccccccccc"
         inkscape:connector-curvature="0"
         id="path2598"
         d="m 2408.4643,476.91666 52.754,88.62239 c 6.6083,-1.81884 12.8861,-4.82786 18.2411,-11.1585 l -56.5375,-86.91329 10.0164,-6.23661 5.4806,-10.11087 -7.3705,-11.71726 -14.3631,2.55134 -28.4427,17.38691 -9.4494,12.09524 7.087,12.28422 16.3475,-3.2128 z"
         style="fill:#ffffff;stroke:none;stroke-width:0.690047px;stroke-linecap:butt;stroke-linejoin:miter;stroke-opacity:1" />
    </g>
  </g>
</svg>
