<svg xmlns="http://www.w3.org/2000/svg" height="750" width="1280"><path style="fill:#c00;fill-opacity:1;stroke-width:59.5169;stroke-linecap:round;stroke-linejoin:round" d="M0 0h1280v582.912H0z"/><path style="fill:gold;fill-opacity:1;stroke-width:31.8649;stroke-linecap:round;stroke-linejoin:round" d="M0 582.912h1280V750H0z"/><path d="M89.091 299.172c-3.02-1.071-11.108-5.562-20.483-11.373-1.664-1.032-3.55-2.197-4.193-2.59-.666-.408-1.169-.925-1.169-1.203 0-1.225 2.299-6.363 8.454-18.9 2.19-4.461 4.272-8.755 4.628-9.541l.647-1.43-2.671-2.404c-13.826-12.436-16.575-15.951-23.297-29.791-1.243-2.56-3.638-8.82-4.253-11.117-.32-1.2-.63-2.257-.688-2.35-.058-.094-.412-1.958-.787-4.143-.982-5.728-1.404-13.496-1.176-21.651.612-21.913.996-24.84 4.897-37.31 5.544-17.724 12.577-31.164 23.02-43.992 3.665-4.503 5.246-6.218 12.243-13.287 7.663-7.742 14.024-13.434 19.97-17.87 5.076-3.787 5.604-4.16 8.246-5.821a466.294 466.294 0 0 0 3.281-2.08c5.237-3.38 19.48-10.937 25.675-13.624 1.35-.586 3.162-1.211 4.025-1.39 1.414-.291 1.66-.27 2.497.219 1.27.742 1.827 1.77 1.43 2.642-.287.629-4.414 3.563-6.82 4.85-3.15 1.683-9.455 6.14-14.434 10.206-17.186 14.03-34.377 37.661-44.2 60.763-2.775 6.523-5.553 14.455-7.32 20.895-1.795 6.545-2.173 11.022-2.205 26.12-.032 14.69.47 22.33 1.51 22.973.157.097.54-.053.852-.332.667-.598 2.943-3.916 4.302-6.273 2.44-4.232 8.368-14.897 9.862-17.743.913-1.739 3.018-5.698 4.678-8.798 1.66-3.1 4.29-8.11 5.843-11.135 1.553-3.025 3.041-5.87 3.306-6.324.675-1.155 7.246-13.81 9.492-18.284 1.026-2.041 4.37-8.537 7.432-14.434 3.062-5.898 7.508-14.645 9.881-19.439 4.926-9.95 4.763-8.92 1.767-11.145-1.374-1.02-1.945-1.674-2.585-2.959-.795-1.597-.82-1.773-.816-5.499.004-3.397.08-4.041.655-5.485.765-1.923 2.702-4.12 4.015-4.553 1.244-.41 2.448-.06 6.866 1.993 5.766 2.682 8.905 3.778 13.683 4.781 2.922.613 4.066.708 8.724.722 6.472.02 8.243-.355 13.335-2.828 3.707-1.8 6.312-2.765 7.556-2.8.985-.029 9.63 4.285 16.364 8.164 2.42 1.393 4.956 2.847 5.636 3.23 2.259 1.27 7.806 4.51 9.898 5.78 1.135.689 3.98 2.418 6.324 3.844a2574.29 2574.29 0 0 0 7.149 4.332c1.587.957 3.69 2.261 4.674 2.898l4.261 2.764c6.296 4.086 9.044 6.495 9.36 8.203.088.48-.034 1.382-.28 2.077-2.023 5.693-16.514 24.594-20.437 26.656-.365.192-.985.257-1.458.153-1.437-.316-7.55-3.2-17.867-8.427-11.003-5.576-15.305-7.553-15.656-7.197-.319.323-3.064 5.189-4.708 8.345l-4.657 8.935c-4.865 9.334-18.421 36.504-19.464 39.011-.962 2.313-.906 2.63.465 2.639.68.005 2.81-1.95 3.94-3.613 2.616-3.854 4.167-6.347 6.921-11.125 4.34-7.53 4.349-7.546 4.891-8.628.265-.53 1.512-2.78 2.772-5.003 1.26-2.222 3.256-5.782 4.438-7.91l2.15-3.87 6.511.16c9.615.234 13.395.565 14.896 1.305 1.09.536 1.281.77 1.612 1.966.339 1.225.32 1.562-.185 3.451-1.06 3.96-4.002 10.207-9.388 19.936-4.481 8.095-5.785 10.521-5.785 10.77 0 .14 1.84.407 4.087.592 4.02.331 7.637.885 8.25 1.263.17.106.31.332.31.502 0 .364-1.606 3.545-2.882 5.707-.49.832-1.297 2.254-1.792 3.162-.496.907-1.41 2.55-2.031 3.649-.622 1.1-1.317 2.337-1.546 2.75-.23.412-1.107 1.925-1.95 3.361l-3.426 5.843c-1.406 2.398-2.033 3.23-2.437 3.23-.3 0-2.9.184-5.78.408-2.88.225-5.825.441-6.544.482l-1.308.073-1.537 3.299c-3.546 7.612-5.136 11.726-5.469 14.143l-.2 1.45 1.474-.196c1.578-.21 6.09-1.561 14.247-4.262 5.354-1.773 7.951-2.241 9.278-1.672.426.183 1.565 1.39 2.556 2.708 1.755 2.336 4.14 5.47 7.89 10.374 1.04 1.361 3.273 4.295 4.96 6.52a1491.25 1491.25 0 0 0 4.113 5.405c.575.749 1.912 2.56 2.97 4.024 1.059 1.465 2.422 3.3 3.03 4.08a67.2 67.2 0 0 1 2.134 2.929c.565.832 2.297 3.37 3.847 5.64 6.173 9.042 7.729 12.314 8.364 17.592.572 4.756.327 5.701-2.074 8.008-3.52 3.382-14.15 9.205-20.21 11.07-2.814.867-3.236.8-4.586-.725-1.313-1.485-4.886-6.85-7.277-10.93-6.845-11.674-9.06-15.395-10.653-17.898-.719-1.128-1.306-2.102-1.306-2.164 0-.23-3.047-4.348-4.115-5.561l-1.109-1.26-2.68.898c-1.475.493-3.053 1.056-3.507 1.25-.453.193-3.98 1.41-7.835 2.703-10.552 3.537-14.378 4.604-22.82 6.36-9.47 1.97-20.211 2.488-27.02 1.3-3.348-.583-8.857-.826-10.25-.452-.628.168-4.217 5.436-9.058 13.295-5.947 9.652-11.058 16.55-12.224 16.494-.233-.01-1.104-.261-1.936-.556zm49.698-71.255c1.743-1.163 4.545-5.578 8.283-13.054 1.259-2.516 2.781-6.447 2.781-7.18 0-.716-.913-1.14-2.453-1.14-1.308 0-1.777.137-2.66.778-.971.705-3.135 3.086-3.135 3.449 0 .081-.389.803-.863 1.603-1.423 2.397-5.464 10.338-6.73 13.223-1.258 2.867-1.263 2.83.445 3.039 1.668.203 3.376-.08 4.332-.718zm-38.915-9.59c2.664-2.724 6.263-8.716 6.263-10.43 0-1.015-.997-1.813-2.879-2.303-1.337-.348-3.53-.426-12.025-.426-5.715 0-10.387.093-10.384.206.003.114.248.516.544.894.295.378.54.797.543.932.016.62 3.183 4.926 4.528 6.155 2.146 1.96 5.509 4.256 7.876 5.374 1.762.832 2.395 1.049 3.647 1.249.129.02.978-.723 1.887-1.652zm24.37-41.75c1.016-.006 3.72-2.98 6.5-7.15 1.362-2.04 2.624-3.992 2.806-4.336a65.56 65.56 0 0 1 1.28-2.2 698.809 698.809 0 0 0 7.342-12.507c1.276-2.232 2.445-4.273 2.599-4.537.153-.263.771-1.344 1.374-2.402a189.565 189.565 0 0 1 1.43-2.474c.182-.304.486-.861.674-1.24.188-.377 1.43-2.562 2.76-4.855 1.33-2.292 2.419-4.227 2.419-4.299 0-.071 1.034-1.907 2.3-4.08 1.264-2.172 2.666-4.63 3.116-5.461 2.422-4.485 2.92-5.386 3.115-5.637.54-.695 4.732-9.316 5.22-10.732.65-1.891.68-2.645.147-3.675-.472-.914-2.078-2.378-2.891-2.636-1.35-.429-4.515 2.562-7.018 6.633-1.882 3.06-2.35 3.846-2.677 4.5-.19.377-1.058 1.894-1.929 3.37-.87 1.477-1.583 2.755-1.583 2.842 0 .087-.97 1.91-2.156 4.053-2.662 4.809-3.852 7.022-6.232 11.592a4320.055 4320.055 0 0 1-5.91 11.273c-4.198 7.98-10.042 19.526-13.496 26.66-2.304 4.76-2.662 6.37-1.587 7.13.357.254.897.396 1.2.317.302-.08.841-.146 1.198-.148z" style="fill:#fc0;fill-opacity:1;stroke-width:.274943"/></svg>