<?xml version="1.0" encoding="UTF-8" standalone="no"?>
<svg
   xmlns:dc="http://purl.org/dc/elements/1.1/"
   xmlns:cc="http://creativecommons.org/ns#"
   xmlns:rdf="http://www.w3.org/1999/02/22-rdf-syntax-ns#"
   xmlns:svg="http://www.w3.org/2000/svg"
   xmlns="http://www.w3.org/2000/svg"
   xmlns:sodipodi="http://sodipodi.sourceforge.net/DTD/sodipodi-0.dtd"
   xmlns:inkscape="http://www.inkscape.org/namespaces/inkscape"
   inkscape:version="1.0 (4035a4fb49, 2020-05-01)"
   sodipodi:docname="4theory_flag.svg"
   id="svg10"
   version="1.1"
   width="1250"
   height="833.33337">
  <defs
     id="defs14" />
  <sodipodi:namedview
     inkscape:current-layer="svg10"
     inkscape:window-maximized="1"
     inkscape:window-y="-8"
     inkscape:window-x="-8"
     inkscape:cy="300"
     inkscape:cx="450"
     inkscape:zoom="1.1655556"
     fit-margin-bottom="0"
     fit-margin-right="0"
     fit-margin-left="0"
     fit-margin-top="0"
     showgrid="false"
     id="namedview12"
     inkscape:window-height="1017"
     inkscape:window-width="1920"
     inkscape:pageshadow="2"
     inkscape:pageopacity="0"
     guidetolerance="10"
     gridtolerance="10"
     objecttolerance="10"
     borderopacity="1"
     bordercolor="#666666"
     pagecolor="#ffffff" />
  <metadata
     id="metadata2">
    <rdf:RDF>
      <cc:Work
         rdf:about="">
        <dc:format>image/svg+xml</dc:format>
        <dc:type
           rdf:resource="http://purl.org/dc/dcmitype/StillImage" />
        <dc:title></dc:title>
      </cc:Work>
    </rdf:RDF>
  </metadata>
  <g
     id="g8"
     transform="matrix(1.3888889,0,0,1.3888889,0,-628.2808)">
    <path
       id="path4"
       d="M 0,452.36217 H 900 V 1052.3622 H 0 Z"
       fill="#000000" />
    <path
       id="path6"
       transform="translate(0,452.36218)"
       d="M 318.5,168.5 349.8125,228.4375 361,217.25 439.28125,295.5625 H 388 V 279.75 L 323.5,300 388,320.25 v -15.8125 h 51.28125 L 361,382.75 349.8125,371.5625 318.5,431.5 378.4375,400.1875 367.25,389 445.5625,310.71875 V 343.15625 362 H 429.75 L 450,426.5 470.25,362 H 454.4375 V 310.71875 L 532.75,389 521.5625,400.1875 581.5,431.5 550.1875,371.5625 539,382.75 460.71875,304.4375 H 493.15625 512 V 320.25 L 576.5,300 512,279.75 v 15.8125 h -18.84375 -32.4375 L 539,217.25 550.1875,228.4375 581.5,168.5 521.5625,199.8125 532.75,211 454.4375,289.28125 V 256.84375 238 H 470.25 L 450,173.5 429.75,238 h 15.8125 v 51.28125 L 367.25,211 378.4375,199.8125 Z"
       fill="#ffcd01" />
  </g>
</svg>
