<?xml version="1.0" encoding="UTF-8" standalone="no"?>
<svg
   xmlns:dc="http://purl.org/dc/elements/1.1/"
   xmlns:cc="http://creativecommons.org/ns#"
   xmlns:rdf="http://www.w3.org/1999/02/22-rdf-syntax-ns#"
   xmlns:svg="http://www.w3.org/2000/svg"
   xmlns="http://www.w3.org/2000/svg"
   xmlns:sodipodi="http://sodipodi.sourceforge.net/DTD/sodipodi-0.dtd"
   xmlns:inkscape="http://www.inkscape.org/namespaces/inkscape"
   width="1280"
   height="800"
   id="Flag of Poland"
   viewBox="0 0 16 10"
   version="1.1"
   sodipodi:docname="Agsoc_flag.svg"
   inkscape:version="1.0 (4035a4fb49, 2020-05-01)">
  <metadata
     id="metadata11">
    <rdf:RDF>
      <cc:Work
         rdf:about="">
        <dc:format>image/svg+xml</dc:format>
        <dc:type
           rdf:resource="http://purl.org/dc/dcmitype/StillImage" />
        <dc:title />
      </cc:Work>
    </rdf:RDF>
  </metadata>
  <defs
     id="defs9" />
  <sodipodi:namedview
     inkscape:document-rotation="0"
     pagecolor="#ffffff"
     bordercolor="#666666"
     borderopacity="1"
     objecttolerance="10"
     gridtolerance="10"
     guidetolerance="10"
     inkscape:pageopacity="0"
     inkscape:pageshadow="2"
     inkscape:window-width="1920"
     inkscape:window-height="1017"
     id="namedview7"
     showgrid="false"
     inkscape:zoom="2.3179844"
     inkscape:cx="607.10019"
     inkscape:cy="497.51111"
     inkscape:window-x="-8"
     inkscape:window-y="-8"
     inkscape:window-maximized="1"
     inkscape:current-layer="Flag of Poland" />
  <rect
     width="16"
     height="10"
     fill="#fff"
     id="rect2"
     style="fill:#009900;fill-opacity:1" />
  <rect
     width="16"
     height="5"
     fill="#dc143c"
     y="5"
     id="rect4"
     style="fill:#ff0100;fill-opacity:1;stroke:none" />
  <path
     style="fill:#ece710;fill-opacity:1;fill-rule:evenodd;stroke:#000000;stroke-width:0.0109407;stroke-miterlimit:4;stroke-dasharray:none"
     id="path10"
     d="M 9.3186273,8.5532479 C 8.8582096,8.7259767 8.3962656,8.8249064 7.9358568,8.8235833 7.475448,8.8222655 7.0150286,8.7067355 6.5546152,8.5684788 6.7431359,8.0571296 6.9384603,7.5356379 7.0174585,7.1143485 6.7526197,6.3005697 6.4173349,5.5616557 5.9970166,4.9131096 L 6.2011047,4.6397775 6.5072374,4.7017327 6.6931038,4.3919558 7.0575473,4.5195115 7.345458,4.2789785 7.6698114,4.4794232 7.9593718,4.2206677 8.2431714,4.4813412 8.5828753,4.2789785 8.8669488,4.5252682 9.225636,4.4053869 9.4172587,4.705571 9.7368209,4.6628026 9.8929387,4.9322982 C 9.4852827,5.5814124 9.0089631,6.2335028 8.9012771,7.0433616 8.9883456,7.4598137 9.1451553,8.0328349 9.3186219,8.5532487 Z" />
  <path
     style="fill:none;fill-rule:evenodd;stroke:#000000;stroke-width:0.0109407;stroke-miterlimit:4;stroke-dasharray:none"
     id="path27"
     d="m 7.9295951,6.3018292 -0.1491263,0.00447 -0.089789,-1.78198 0.2465721,-0.1891508 -0.00775,1.9666735 z M 7.7194199,6.313848 7.5881685,6.3212899 C 7.5517158,5.6738673 7.4763418,5.0264666 7.3900842,4.379068 L 7.650167,4.5344416 7.7194145,6.3138453 Z M 7.535704,6.3245693 7.4092817,6.3368944 C 7.3601345,5.7462104 7.2448986,5.1555227 7.0962252,4.5648383 L 7.3292858,4.3858199 c 0.094474,0.6419668 0.1716863,1.2868136 0.2064182,1.9387467 z m -0.169452,0.00369 -0.074239,0.00672 C 7.1297482,5.7235398 6.9539573,5.1120915 6.7618338,4.500655 L 7.0320489,4.585096 C 7.1530925,5.1709635 7.2651196,5.7523216 7.3662466,6.3282514 Z M 7.2572723,6.3405343 7.149826,6.355328 C 6.9725716,5.811436 6.7692865,5.2779669 6.5422838,4.7539877 L 6.690902,4.5344373 c 0.2034777,0.5971315 0.3927345,1.1990099 0.5663559,1.806097 z m -0.1648895,0.00894 -0.1263088,0.0098 C 6.7667894,5.8132589 6.5379839,5.2731527 6.288957,4.7370962 l 0.2026615,0.037154 c 0.209272,0.5250723 0.4113905,1.0501472 0.60075,1.5752261 z m -0.1788381,0.012379 -0.088283,0.0051 C 6.6396777,5.8621875 6.3950216,5.3810643 6.1099394,4.9161129 L 6.2247808,4.7573607 c 0.2473105,0.5259685 0.4812484,1.0586189 0.68875,1.6044935 z m 0.163174,0.8341679 -0.4247501,1.3356566 0.1126142,0.037702 C 6.9006453,8.108609 7.0453265,7.6478322 7.175806,7.1870748 M 7.2094117,7.186836 C 7.0821198,7.6481505 6.937946,8.1178578 6.8091793,8.5852234 l 0.1150089,0.035321 0.3594227,-1.4364661 m 0.032651,3.198e-4 C 7.2286489,7.6909951 7.1111854,8.1685635 6.9707909,8.632934 l 0.153988,0.040655 C 7.2191853,8.1714655 7.3141335,7.6702055 7.3873687,7.1733889 m 0.052274,-0.00198 -0.2788092,1.5110237 0.1483551,0.027259 C 7.3813368,8.194573 7.4547287,7.6794511 7.5110133,7.1643419 m 0.2928092,-0.025508 -0.02975,1.6392859 h 0.1487119 l 0.00378,-1.6762632 m -0.1730558,0.043264 -0.01919,1.629503 -0.1665689,-0.014181 c 0.04467,-0.536091 0.086492,-1.0721866 0.1153225,-1.6082754 m -0.054526,0.00432 C 7.6051615,7.6868246 7.5672672,8.2171636 7.522778,8.7475059 L 7.3577407,8.7208574 C 7.4412954,8.2011201 7.4941996,7.6813965 7.5407268,7.1616718 M 7.0178086,6.5545353 7.0860018,6.9636961 M 7.1603939,6.571067 7.2471848,6.9182336 M 7.2306072,6.5524689 7.333929,6.9698948 M 7.300864,6.5607348 7.3422,6.9223661 m 0.00198,-0.3409662 0.064058,0.320302 m 0.00216,-0.320302 0.06613,0.320302 M 7.927009,6.4656774 V 6.891408 M 7.8154165,6.4739439 7.8298318,7.0066966 M 7.7409795,6.453279 V 6.9546872 M 7.6211162,6.5090734 7.6479827,6.9043533 M 7.5570581,6.5380037 7.588051,6.9088465 M 7.459935,6.5545353 7.5174521,6.8843538 M 7.0674014,6.5772665 7.1748582,6.9657625 M 7.9852851,6.3018229 8.1497457,6.3062929 8.2280207,4.531986 7.9852867,4.3351604 v 1.9666744 z m 0.2216876,0.012019 0.1005648,0.0036 C 8.3518826,5.6563724 8.458664,5.0119372 8.5420692,4.392493 L 8.2762311,4.5286798 Z m 0.1664428,0.00881 0.1283323,0.014253 C 8.5568323,5.7462066 8.6915794,5.1747089 8.8359235,4.5840175 L 8.6067002,4.3915704 C 8.5092347,5.0335362 8.4005037,5.6707118 8.3734209,6.3226417 Z m 0.1771281,0.0056 0.091501,0.00672 C 8.7932758,5.7235407 8.9649117,5.1082607 9.1664774,4.4968155 L 8.886669,4.5850948 C 8.7533454,5.1709658 8.6331235,5.7523302 8.5505508,6.3282499 Z m 0.1377743,0.012271 0.1266565,0.010956 C 8.9008356,5.9701565 9.0889428,5.3799894 9.3783428,4.7520634 L 9.2239728,4.5114086 C 9.03095,5.108543 8.8670407,5.7334449 8.6883143,6.3405302 Z m 0.1610731,0.00319 0.076401,0.00405 C 9.1075422,5.7929978 9.3905489,5.2665631 9.6527832,4.7370913 L 9.429018,4.7761644 C 9.1979892,5.2967243 9.0092424,5.8129197 8.8493928,6.3437147 Z m 0.1097546,0.00279 0.086366,0.00125 C 9.2310814,5.8429912 9.5352156,5.4059968 9.8202981,4.9410454 L 9.7150484,4.7573518 C 9.4513022,5.278955 9.1548946,5.7947615 8.9591474,6.3464952 Z m -0.059986,0.9066647 c 0.07305,0.4226414 0.1986088,0.845306 0.3465837,1.2679802 l -0.1241698,0.04401 C 8.9880086,8.0755615 8.8856491,7.5770423 8.8269662,7.0660601 m -0.036957,0.00982 C 8.8312372,7.6556547 8.9477668,8.130851 9.0853717,8.5767744 L 8.9787702,8.6110526 C 8.8426554,8.0617913 8.7550158,7.5488834 8.7258698,7.0798463 m -0.052814,-0.00636 c 0.074167,0.6526585 0.1617218,1.1358264 0.2706691,1.545783 L 8.7939317,8.6630713 C 8.6912118,8.1637189 8.6338335,7.5853857 8.5683267,7.0859981 m -0.048904,0.00811 c 0.061625,0.6080963 0.1274313,1.1426463 0.225859,1.580971 L 8.594822,8.709705 C 8.4954825,8.2274041 8.4558224,7.6316383 8.4312443,7.0904045 m -0.2563312,0.00296 c -0.00919,0.561705 -0.013334,1.1217459 -0.00631,1.6781233 L 8.3341302,8.7520457 C 8.2801809,8.1903766 8.2758563,7.5844103 8.2591525,7.0815942 m 0.064617,0.00432 c 0.016938,0.5303336 0.011893,1.131263 0.060598,1.6616086 L 8.5546484,8.718767 C 8.4569486,8.1943087 8.4300641,7.6081847 8.4015037,7.0944474 M 8.7412041,6.5590181 8.683651,6.9182424 M 8.6674337,6.5524777 8.6277376,6.9664591 M 8.6092139,6.5607437 8.5713197,6.9223749 M 8.5237672,6.5814087 8.5006306,6.8707042 M 7.9916657,6.4656862 V 6.8914168 M 8.1032582,6.4739527 8.0888429,7.0067054 M 8.1776952,6.4532878 V 6.954696 M 8.2889454,6.5108047 8.270674,6.9043621 M 8.3753471,6.5397323 8.3512195,6.9088554 M 8.4518384,6.5545442 8.4321435,6.8843627 M 8.8186594,6.5514362 8.7438799,6.9657713 m -0.6454346,0.119202 0.031227,1.6883342 -0.1513427,0.00632 0.00955,-1.6742002" />
  <g
     style="fill:#ece710;fill-opacity:1;fill-rule:evenodd"
     id="g4197"
     transform="matrix(0.07753292,0,0,0.07753292,1.6386146,-9.6892292)">
    <path
       style="fill:#ece710;fill-opacity:1;stroke:#000000;stroke-width:0.141111;stroke-miterlimit:4;stroke-dasharray:none"
       id="_156174728"
       d="m 82.581958,140.14218 -0.06914,6.40346 1.209943,1.27908 v -5.78936 h 0.934049 v 8.26239 l 1.14014,-0.41492 v -6.56835 h 0.869469 v 29.10787 c -0.646174,1.65786 -1.645963,2.67899 -2.99945,3.06337 h -3.238661 c -1.353487,-0.38438 -2.353276,-1.40551 -2.99945,-3.06337 v -29.10787 h 0.869468 v 6.56835 l 1.140141,0.41492 v -8.26239 h 0.934048 v 5.78936 l 1.209944,-1.27908 -0.06914,-6.40346 z" />
    <path
       style="fill:#ece710;fill-opacity:1;stroke:#000000;stroke-width:0.141111;stroke-miterlimit:4;stroke-dasharray:none"
       id="_156192456"
       d="m 83.395219,150.01804 c 0,-1.05056 -0.471543,-1.99954 -1.229882,-2.66237 -0.07668,-0.067 -0.15859,-0.067 -0.235273,0 -0.758381,0.66283 -1.230213,1.61181 -1.230213,2.66237 0,1.05057 0.471832,1.99954 1.230213,2.66237 0.07668,0.067 0.15859,0.067 0.235273,0 0.758339,-0.66283 1.229882,-1.6118 1.229882,-2.66237 z" />
    <path
       style="fill:#ece710;fill-opacity:1;stroke:#000000;stroke-width:0.141111;stroke-miterlimit:4;stroke-dasharray:none"
       id="_156192384"
       d="m 80.956264,152.32597 c -0.631375,-0.83792 -1.55618,-1.3277 -2.52455,-1.42681 -0.09791,-0.01 -0.159502,0.0364 -0.176869,0.13326 -0.171689,0.95821 0.04402,1.98233 0.675437,2.82026 0.631376,0.83792 1.556388,1.32754 2.524841,1.42661 0.09786,0.01 0.15946,-0.0364 0.176828,-0.13327 0.171647,-0.95817 -0.04427,-1.98217 -0.675687,-2.82005 z" />
    <path
       style="fill:#ece710;fill-opacity:1;stroke:#000000;stroke-width:0.141111;stroke-miterlimit:4;stroke-dasharray:none"
       id="_156175520"
       d="m 80.956264,156.17594 c -0.631334,-0.83804 -1.556263,-1.32774 -2.52455,-1.42673 -0.09791,-0.0102 -0.159543,0.0361 -0.176745,0.13306 -0.171896,0.95826 0.0439,1.9825 0.675106,2.82034 0.631542,0.83784 1.556471,1.32754 2.525006,1.42661 0.09778,0.01 0.159378,-0.0364 0.176828,-0.13327 0.171689,-0.95817 -0.04423,-1.98221 -0.675645,-2.82001 z" />
    <path
       style="fill:#ece710;fill-opacity:1;stroke:#000000;stroke-width:0.141111;stroke-miterlimit:4;stroke-dasharray:none"
       id="_156175448"
       d="m 80.956264,160.02592 c -0.631334,-0.83805 -1.556263,-1.32775 -2.52455,-1.42673 -0.09791,-0.0102 -0.159543,0.0361 -0.176745,0.13306 -0.171896,0.95825 0.0439,1.9825 0.675106,2.82034 0.631542,0.83784 1.556471,1.32754 2.525006,1.4266 0.09778,0.01 0.159378,-0.0364 0.176828,-0.13326 0.171689,-0.95817 -0.04423,-1.98221 -0.675645,-2.82001 z" />
    <path
       style="fill:#ece710;fill-opacity:1;stroke:#000000;stroke-width:0.141111;stroke-miterlimit:4;stroke-dasharray:none"
       id="_156175376"
       d="m 80.956264,163.87585 c -0.631334,-0.83805 -1.556263,-1.32774 -2.52455,-1.42673 -0.09791,-0.0101 -0.159543,0.0362 -0.176745,0.13306 -0.171896,0.95825 0.0439,1.9825 0.675106,2.82034 0.631542,0.83784 1.556471,1.32754 2.525006,1.42661 0.09778,0.01 0.159378,-0.0364 0.176828,-0.13327 0.171689,-0.95817 -0.04423,-1.98221 -0.675645,-2.82001 z" />
    <path
       style="fill:#ece710;fill-opacity:1;stroke:#000000;stroke-width:0.141111;stroke-miterlimit:4;stroke-dasharray:none"
       id="_156175304"
       d="m 80.956264,167.72583 c -0.631334,-0.83805 -1.556263,-1.32775 -2.52455,-1.42673 -0.09791,-0.0102 -0.159543,0.0361 -0.176745,0.13305 -0.171896,0.95826 0.0439,1.9825 0.675106,2.82035 0.631542,0.83784 1.556471,1.32753 2.525006,1.4266 0.09778,0.01 0.159378,-0.0364 0.176828,-0.13326 0.171689,-0.95817 -0.04423,-1.98221 -0.675645,-2.82001 z" />
    <path
       style="fill:#ece710;fill-opacity:1;stroke:#000000;stroke-width:0.141111;stroke-miterlimit:4;stroke-dasharray:none"
       id="_156175232"
       d="m 80.956264,171.57601 c -0.631375,-0.83792 -1.55618,-1.3277 -2.52455,-1.42681 -0.09791,-0.01 -0.159502,0.0364 -0.176869,0.13326 -0.171689,0.95821 0.04402,1.98233 0.675437,2.82026 0.631376,0.83792 1.556388,1.32754 2.524841,1.42661 0.09786,0.01 0.15946,-0.0364 0.176828,-0.13327 0.171647,-0.95817 -0.04427,-1.98217 -0.675687,-2.82005 z" />
    <path
       style="fill:#ece710;fill-opacity:1;stroke:#000000;stroke-width:0.141111;stroke-miterlimit:4;stroke-dasharray:none"
       id="_156175160"
       d="m 83.139054,152.32597 c 0.631376,-0.83792 1.55618,-1.3277 2.52455,-1.42681 0.09791,-0.01 0.159502,0.0364 0.17687,0.13326 0.171688,0.95821 -0.04402,1.98233 -0.675438,2.82026 -0.631376,0.83792 -1.556388,1.32754 -2.52484,1.42661 -0.09786,0.01 -0.159461,-0.0364 -0.176829,-0.13327 -0.171647,-0.95817 0.04427,-1.98217 0.675687,-2.82005 z" />
    <path
       style="fill:#ece710;fill-opacity:1;stroke:#000000;stroke-width:0.141111;stroke-miterlimit:4;stroke-dasharray:none"
       id="_156175088"
       d="m 83.138639,156.17594 c 0.631335,-0.83804 1.556264,-1.32774 2.52455,-1.42673 0.09791,-0.0102 0.159544,0.0361 0.176746,0.13306 0.171895,0.95826 -0.0439,1.9825 -0.675107,2.82034 -0.631541,0.83784 -1.55647,1.32754 -2.525005,1.42661 -0.09778,0.01 -0.159378,-0.0364 -0.176829,-0.13327 -0.171688,-0.95817 0.04423,-1.98221 0.675645,-2.82001 z" />
    <path
       style="fill:#ece710;fill-opacity:1;stroke:#000000;stroke-width:0.141111;stroke-miterlimit:4;stroke-dasharray:none"
       id="_156175016"
       d="m 83.138639,160.02592 c 0.631335,-0.83805 1.556264,-1.32775 2.52455,-1.42673 0.09791,-0.0102 0.159544,0.0361 0.176746,0.13306 0.171895,0.95825 -0.0439,1.9825 -0.675107,2.82034 -0.631541,0.83784 -1.55647,1.32754 -2.525005,1.4266 -0.09778,0.01 -0.159378,-0.0364 -0.176829,-0.13326 -0.171688,-0.95817 0.04423,-1.98221 0.675645,-2.82001 z" />
    <path
       style="fill:#ece710;fill-opacity:1;stroke:#000000;stroke-width:0.141111;stroke-miterlimit:4;stroke-dasharray:none"
       id="_156174944"
       d="m 83.138639,163.87585 c 0.631335,-0.83805 1.556264,-1.32774 2.52455,-1.42673 0.09791,-0.0101 0.159544,0.0362 0.176746,0.13306 0.171895,0.95825 -0.0439,1.9825 -0.675107,2.82034 -0.631541,0.83784 -1.55647,1.32754 -2.525005,1.42661 -0.09778,0.01 -0.159378,-0.0364 -0.176829,-0.13327 -0.171688,-0.95817 0.04423,-1.98221 0.675645,-2.82001 z" />
    <path
       style="fill:#ece710;fill-opacity:1;stroke:#000000;stroke-width:0.141111;stroke-miterlimit:4;stroke-dasharray:none"
       id="_156174872"
       d="m 83.138639,167.72583 c 0.631335,-0.83805 1.556264,-1.32775 2.52455,-1.42673 0.09791,-0.0102 0.159544,0.0361 0.176746,0.13305 0.171895,0.95826 -0.0439,1.9825 -0.675107,2.82035 -0.631541,0.83784 -1.55647,1.32753 -2.525005,1.4266 -0.09778,0.01 -0.159378,-0.0364 -0.176829,-0.13326 -0.171688,-0.95817 0.04423,-1.98221 0.675645,-2.82001 z" />
    <path
       style="fill:#ece710;fill-opacity:1;stroke:#000000;stroke-width:0.141111;stroke-miterlimit:4;stroke-dasharray:none"
       id="_156174800"
       d="m 83.139054,171.57601 c 0.631376,-0.83792 1.55618,-1.3277 2.52455,-1.42681 0.09791,-0.01 0.159502,0.0364 0.17687,0.13326 0.171688,0.95821 -0.04402,1.98233 -0.675438,2.82026 -0.631376,0.83792 -1.556388,1.32754 -2.52484,1.42661 -0.09786,0.01 -0.159461,-0.0364 -0.176829,-0.13327 -0.171647,-0.95817 0.04427,-1.98217 0.675687,-2.82005 z" />
    <path
       style="fill:#ece710;fill-opacity:1;stroke:#000000;stroke-width:0.141111;stroke-miterlimit:4;stroke-dasharray:none"
       id="_156167904"
       d="m 66.771697,141.57414 1.153985,6.299 1.431746,1.02474 -1.104659,-5.683 0.916888,-0.17824 1.576533,8.1106 1.040037,-0.62487 -1.253301,-6.44764 0.85351,-0.16593 5.55401,28.57307 c -0.317968,1.75071 -1.104535,2.94387 -2.359826,3.57943 l -3.179138,0.61794 c -1.401984,-0.11904 -2.578228,-0.93064 -3.528857,-2.43476 l -5.554051,-28.57308 0.85351,-0.16588 1.253301,6.44764 1.198337,0.18976 -1.576533,-8.1106 0.916888,-0.17819 1.104659,5.683 0.943665,-1.48646 -1.289695,-6.27264 z" />
    <path
       style="fill:#ece710;fill-opacity:1;stroke:#000000;stroke-width:0.141111;stroke-miterlimit:4;stroke-dasharray:none"
       id="_156174632"
       d="m 69.454505,151.11337 c -0.200455,-1.03129 -0.844432,-1.87282 -1.715309,-2.37881 -0.08804,-0.0511 -0.168455,-0.0355 -0.230921,0.0449 -0.617988,0.79539 -0.900059,1.81694 -0.699604,2.84819 0.200455,1.03129 0.844681,1.87278 1.7156,2.37873 0.08804,0.0511 0.168455,0.0355 0.230962,-0.0449 0.617905,-0.79536 0.899728,-1.81687 0.699272,-2.84812 z" />
    <path
       style="fill:#ece710;fill-opacity:1;stroke:#000000;stroke-width:0.141111;stroke-miterlimit:4;stroke-dasharray:none"
       id="_156168768"
       d="m 67.500689,153.84426 c -0.779686,-0.70204 -1.780926,-1.00637 -2.750414,-0.91887 -0.09803,0.009 -0.149596,0.0661 -0.148186,0.16456 0.0143,0.97338 0.42147,1.93752 1.201156,2.63957 0.779645,0.70201 1.781091,1.00613 2.750621,0.91863 0.09803,-0.009 0.149596,-0.0661 0.148186,-0.16456 -0.01434,-0.97334 -0.421677,-1.93728 -1.201363,-2.63933 z" />
    <path
       style="fill:#ece710;fill-opacity:1;stroke:#000000;stroke-width:0.141111;stroke-miterlimit:4;stroke-dasharray:none"
       id="_156168696"
       d="m 68.23536,157.62348 c -0.779603,-0.70217 -1.781009,-1.00638 -2.750373,-0.91879 -0.09807,0.009 -0.14972,0.0659 -0.148103,0.16435 0.01409,0.97343 0.421345,1.93769 1.200824,2.6397 0.779811,0.70193 1.781175,1.00613 2.750829,0.91859 0.09791,-0.009 0.149513,-0.0662 0.148145,-0.16456 -0.0143,-0.9733 -0.421636,-1.93736 -1.201322,-2.63929 z" />
    <path
       style="fill:#ece710;fill-opacity:1;stroke:#000000;stroke-width:0.141111;stroke-miterlimit:4;stroke-dasharray:none"
       id="_156168624"
       d="m 68.969989,161.40274 c -0.779645,-0.70221 -1.781009,-1.00642 -2.750414,-0.91883 -0.09803,0.009 -0.14972,0.0659 -0.148103,0.16435 0.01413,0.97347 0.421387,1.93769 1.200866,2.6397 0.77981,0.70197 1.781174,1.00617 2.750828,0.91863 0.09786,-0.009 0.149471,-0.0662 0.148145,-0.16456 -0.0143,-0.97334 -0.421636,-1.93736 -1.201322,-2.63929 z" />
    <path
       style="fill:#ece710;fill-opacity:1;stroke:#000000;stroke-width:0.141111;stroke-miterlimit:4;stroke-dasharray:none"
       id="_156168552"
       d="m 69.704577,165.18192 c -0.779645,-0.70217 -1.781009,-1.00638 -2.750373,-0.91879 -0.09807,0.009 -0.149719,0.0659 -0.148103,0.16435 0.01409,0.97342 0.421346,1.93769 1.200824,2.6397 0.779811,0.70192 1.781175,1.00613 2.750829,0.91858 0.09786,-0.009 0.149513,-0.0661 0.148145,-0.16455 -0.0143,-0.97331 -0.421636,-1.93736 -1.201322,-2.63929 z" />
    <path
       style="fill:#ece710;fill-opacity:1;stroke:#000000;stroke-width:0.141111;stroke-miterlimit:4;stroke-dasharray:none"
       id="_156168480"
       d="m 70.439206,168.96118 c -0.779644,-0.70217 -1.781008,-1.00642 -2.750414,-0.91884 -0.09803,0.009 -0.14972,0.066 -0.148103,0.16436 0.01409,0.97346 0.421387,1.93769 1.200866,2.6397 0.77981,0.70196 1.781174,1.00617 2.750829,0.91862 0.09786,-0.009 0.149471,-0.0662 0.148144,-0.16455 -0.0143,-0.97335 -0.421636,-1.93736 -1.201322,-2.63929 z" />
    <path
       style="fill:#ece710;fill-opacity:1;stroke:#000000;stroke-width:0.141111;stroke-miterlimit:4;stroke-dasharray:none"
       id="_156168408"
       d="m 71.173753,172.74036 c -0.779686,-0.70205 -1.780926,-1.00638 -2.750456,-0.91892 -0.09799,0.009 -0.149595,0.0662 -0.148186,0.16456 0.01434,0.97338 0.42147,1.93757 1.201156,2.63957 0.779686,0.70205 1.781133,1.00618 2.750663,0.91867 0.09799,-0.009 0.149595,-0.0661 0.148186,-0.16456 -0.01438,-0.97334 -0.421677,-1.93731 -1.201363,-2.63932 z" />
    <path
       style="fill:#ece710;fill-opacity:1;stroke:#000000;stroke-width:0.141111;stroke-miterlimit:4;stroke-dasharray:none"
       id="_156168336"
       d="m 69.643189,153.42781 c 0.459936,-0.943 1.274275,-1.60024 2.20596,-1.88231 0.09418,-0.0285 0.163481,0.005 0.199004,0.0971 0.351377,0.90786 0.335087,1.95432 -0.124849,2.89732 -0.459936,0.943 -1.274523,1.60012 -2.20625,1.88219 -0.09418,0.0285 -0.163482,-0.005 -0.199005,-0.0971 -0.351335,-0.90785 -0.334796,-1.95419 0.12514,-2.89719 z" />
    <path
       style="fill:#ece710;fill-opacity:1;stroke:#000000;stroke-width:0.141111;stroke-miterlimit:4;stroke-dasharray:none"
       id="_156168264"
       d="m 70.377735,157.20707 c 0.459853,-0.94313 1.274316,-1.60033 2.205919,-1.88223 0.09418,-0.0286 0.163523,0.005 0.198922,0.0969 0.351584,0.90785 0.335169,1.95448 -0.12456,2.89736 -0.460101,0.94296 -1.274565,1.60011 -2.206416,1.88219 -0.09409,0.0284 -0.163398,-0.005 -0.199004,-0.0971 -0.351377,-0.90781 -0.334797,-1.95423 0.125139,-2.89711 z" />
    <path
       style="fill:#ece710;fill-opacity:1;stroke:#000000;stroke-width:0.141111;stroke-miterlimit:4;stroke-dasharray:none"
       id="_156168192"
       d="m 71.112364,160.98629 c 0.459812,-0.94309 1.274317,-1.60028 2.205919,-1.88223 0.09418,-0.0286 0.163523,0.005 0.19888,0.0969 0.351585,0.90785 0.335212,1.95444 -0.124559,2.89736 -0.46006,0.94291 -1.274565,1.60011 -2.206375,1.88214 -0.09409,0.0284 -0.163439,-0.005 -0.199046,-0.097 -0.351335,-0.90781 -0.334796,-1.95423 0.125181,-2.89715 z" />
    <path
       style="fill:#ece710;fill-opacity:1;stroke:#000000;stroke-width:0.141111;stroke-miterlimit:4;stroke-dasharray:none"
       id="_156168120"
       d="m 71.846952,164.76551 c 0.459812,-0.94313 1.274317,-1.60033 2.205919,-1.88223 0.09418,-0.0287 0.163523,0.005 0.198922,0.0969 0.351542,0.90785 0.335169,1.95448 -0.124559,2.89735 -0.460102,0.94296 -1.274565,1.60012 -2.206417,1.88219 -0.09409,0.0284 -0.163398,-0.005 -0.199004,-0.0971 -0.351377,-0.90781 -0.334838,-1.95424 0.125139,-2.89711 z" />
    <path
       style="fill:#ece710;fill-opacity:1;stroke:#000000;stroke-width:0.141111;stroke-miterlimit:4;stroke-dasharray:none"
       id="_156168048"
       d="m 72.581581,168.54473 c 0.459812,-0.94309 1.274317,-1.60029 2.205919,-1.88219 0.09418,-0.0287 0.163523,0.005 0.198881,0.0969 0.351584,0.90785 0.335211,1.95443 -0.12456,2.89735 -0.46006,0.94292 -1.274565,1.60012 -2.206416,1.88219 -0.09405,0.0284 -0.163398,-0.005 -0.199004,-0.0971 -0.351336,-0.90781 -0.334797,-1.95424 0.12518,-2.89715 z" />
    <path
       style="fill:#ece710;fill-opacity:1;stroke:#000000;stroke-width:0.141111;stroke-miterlimit:4;stroke-dasharray:none"
       id="_156167976"
       d="m 73.316252,172.32378 c 0.459895,-0.94296 1.274234,-1.6002 2.205919,-1.88227 0.09422,-0.0285 0.163481,0.005 0.199046,0.097 0.351336,0.9079 0.335045,1.95436 -0.124891,2.89736 -0.459936,0.94296 -1.274523,1.60008 -2.206209,1.88215 -0.09422,0.0285 -0.163481,-0.005 -0.199046,-0.0971 -0.351335,-0.90785 -0.334755,-1.95419 0.125181,-2.89719 z" />
    <path
       style="fill:#ece710;fill-opacity:1;stroke:#000000;stroke-width:0.141111;stroke-miterlimit:4;stroke-dasharray:none"
       id="_156153896"
       d="m 53.15691,148.47372 2.136531,5.45689 1.465072,0.6705 -1.984656,-4.91215 0.792536,-0.3202 2.832404,7.0105 0.825157,-0.74292 -2.25168,-5.57312 0.737738,-0.29807 9.978407,24.69748 c 0.02006,1.62818 -0.478174,2.83734 -1.494834,3.62743 l -2.747927,1.11025 c -1.280161,0.13787 -2.47854,-0.38582 -3.595136,-1.57098 l -9.978408,-24.69748 0.737738,-0.29803 2.251681,5.57312 1.109633,-0.0388 -2.832445,-7.0105 0.792536,-0.3202 1.984655,4.91219 0.588102,-1.50006 -2.253795,-5.40951 z" />
    <path
       style="fill:#ece710;fill-opacity:1;stroke:#000000;stroke-width:0.141111;stroke-miterlimit:4;stroke-dasharray:none"
       id="_156167808"
       d="m 57.232583,156.57437 c -0.360164,-0.8914 -1.085591,-1.53492 -1.95622,-1.83734 -0.08804,-0.0306 -0.157554,-0.002 -0.199626,0.0806 -0.416247,0.82238 -0.491273,1.78934 -0.13115,2.68069 0.360164,0.8914 1.085799,1.53484 1.956511,1.83726 0.08804,0.0306 0.157512,0.002 0.199626,-0.0807 0.416206,-0.82234 0.490982,-1.78918 0.130859,-2.68057 z" />
    <path
       style="fill:#ece710;fill-opacity:1;stroke:#000000;stroke-width:0.141111;stroke-miterlimit:4;stroke-dasharray:none"
       id="_156154760"
       d="m 55.954329,159.36872 c -0.823002,-0.49451 -1.775537,-0.59308 -2.631202,-0.3452 -0.08651,0.0251 -0.122818,0.0856 -0.104373,0.17372 0.182839,0.87187 0.71693,1.66689 1.539891,2.1614 0.823002,0.49446 1.775661,0.59283 2.631326,0.34491 0.08651,-0.0251 0.122819,-0.0856 0.104373,-0.17368 -0.182839,-0.87187 -0.717054,-1.66669 -1.540015,-2.16115 z" />
    <path
       style="fill:#ece710;fill-opacity:1;stroke:#000000;stroke-width:0.141111;stroke-miterlimit:4;stroke-dasharray:none"
       id="_156154688"
       d="m 57.274158,162.63532 c -0.82296,-0.49463 -1.77562,-0.59308 -2.631119,-0.34512 -0.08655,0.0249 -0.122984,0.0854 -0.104331,0.17347 0.182631,0.872 0.716847,1.66706 1.539642,2.16157 0.823084,0.49442 1.775744,0.59283 2.631451,0.34487 0.08638,-0.0251 0.122776,-0.0856 0.104372,-0.17368 -0.182797,-0.87187 -0.717054,-1.66673 -1.540015,-2.16111 z" />
    <path
       style="fill:#ece710;fill-opacity:1;stroke:#000000;stroke-width:0.141111;stroke-miterlimit:4;stroke-dasharray:none"
       id="_156154616"
       d="m 58.593988,165.90196 c -0.822961,-0.49467 -1.775621,-0.59308 -2.63112,-0.34512 -0.08655,0.0249 -0.122984,0.0854 -0.104373,0.17347 0.182673,0.872 0.716889,1.66706 1.539642,2.16157 0.823085,0.49438 1.775745,0.59283 2.631493,0.34487 0.08638,-0.0251 0.122735,-0.0856 0.104331,-0.17368 -0.182797,-0.87187 -0.717013,-1.66673 -1.539973,-2.16111 z" />
    <path
       style="fill:#ece710;fill-opacity:1;stroke:#000000;stroke-width:0.141111;stroke-miterlimit:4;stroke-dasharray:none"
       id="_156154544"
       d="m 59.913775,169.16856 c -0.82296,-0.49467 -1.77562,-0.59308 -2.631119,-0.34512 -0.08655,0.0249 -0.122984,0.0854 -0.104373,0.17347 0.182673,0.872 0.716889,1.66706 1.539642,2.16157 0.823085,0.49438 1.775744,0.59282 2.631492,0.34487 0.08638,-0.0251 0.122736,-0.0856 0.104332,-0.17372 -0.182798,-0.87183 -0.717013,-1.66669 -1.539974,-2.16107 z" />
    <path
       style="fill:#ece710;fill-opacity:1;stroke:#000000;stroke-width:0.141111;stroke-miterlimit:4;stroke-dasharray:none"
       id="_156154472"
       d="m 61.233563,172.43528 c -0.822961,-0.49463 -1.77562,-0.59307 -2.63112,-0.34512 -0.08655,0.025 -0.122984,0.0854 -0.104331,0.17352 0.182632,0.87195 0.716847,1.66706 1.539642,2.16156 0.823043,0.49438 1.775703,0.59283 2.631451,0.34483 0.08638,-0.0251 0.122735,-0.0855 0.104373,-0.17368 -0.182798,-0.87183 -0.717055,-1.66669 -1.540015,-2.16111 z" />
    <path
       style="fill:#ece710;fill-opacity:1;stroke:#000000;stroke-width:0.141111;stroke-miterlimit:4;stroke-dasharray:none"
       id="_156154400"
       d="m 62.553309,175.702 c -0.82296,-0.49446 -1.775537,-0.59303 -2.631161,-0.34515 -0.08651,0.0251 -0.122818,0.0855 -0.104372,0.17371 0.182838,0.87188 0.716888,1.6669 1.53989,2.16141 0.822961,0.49446 1.775662,0.59282 2.631327,0.34491 0.08651,-0.0251 0.122818,-0.0856 0.104372,-0.17372 -0.182838,-0.87183 -0.717054,-1.66665 -1.540056,-2.16116 z" />
    <path
       style="fill:#ece710;fill-opacity:1;stroke:#000000;stroke-width:0.141111;stroke-miterlimit:4;stroke-dasharray:none"
       id="_156154328"
       d="m 57.806177,158.6205 c 0.248497,-0.92742 0.865282,-1.66002 1.652968,-2.07606 0.07963,-0.0421 0.147771,-0.0238 0.19573,0.0524 0.474153,0.75419 0.642236,1.69707 0.393739,2.62448 -0.248496,0.92738 -0.865489,1.65989 -1.653216,2.07597 -0.07967,0.042 -0.147813,0.0238 -0.19573,-0.0524 -0.474112,-0.75419 -0.641946,-1.69703 -0.393491,-2.6244 z" />
    <path
       style="fill:#ece710;fill-opacity:1;stroke:#000000;stroke-width:0.141111;stroke-miterlimit:4;stroke-dasharray:none"
       id="_156154256"
       d="m 59.125965,161.88714 c 0.248372,-0.9275 0.865281,-1.66006 1.652926,-2.07598 0.07959,-0.0422 0.147772,-0.024 0.195564,0.0523 0.474361,0.75412 0.642402,1.69716 0.39403,2.62445 -0.248621,0.92738 -0.865531,1.65993 -1.653383,2.07601 -0.07954,0.042 -0.147688,0.0238 -0.195688,-0.0524 -0.474154,-0.75415 -0.641987,-1.69703 -0.393449,-2.62436 z" />
    <path
       style="fill:#ece710;fill-opacity:1;stroke:#000000;stroke-width:0.141111;stroke-miterlimit:4;stroke-dasharray:none"
       id="_156154184"
       d="m 60.445752,165.15378 c 0.248373,-0.9275 0.865282,-1.66006 1.652927,-2.07598 0.07959,-0.0422 0.147771,-0.024 0.195605,0.0523 0.47432,0.75416 0.64236,1.6972 0.393988,2.62445 -0.24862,0.92742 -0.86553,1.65997 -1.65334,2.07605 -0.07954,0.042 -0.14773,0.0237 -0.19573,-0.0524 -0.474154,-0.75415 -0.641987,-1.69703 -0.39345,-2.62436 z" />
    <path
       style="fill:#ece710;fill-opacity:1;stroke:#000000;stroke-width:0.141111;stroke-miterlimit:4;stroke-dasharray:none"
       id="_156154112"
       d="m 61.76554,168.42037 c 0.248372,-0.92749 0.865282,-1.66005 1.652926,-2.07601 0.07959,-0.0421 0.147772,-0.024 0.195606,0.0523 0.474319,0.75415 0.64236,1.6972 0.394029,2.62445 -0.248662,0.92741 -0.865571,1.65997 -1.653382,2.07605 -0.07954,0.0419 -0.14773,0.0237 -0.19573,-0.0525 -0.474153,-0.75412 -0.641987,-1.69703 -0.393449,-2.62433 z" />
    <path
       style="fill:#ece710;fill-opacity:1;stroke:#000000;stroke-width:0.141111;stroke-miterlimit:4;stroke-dasharray:none"
       id="_156154040"
       d="m 63.085328,171.6871 c 0.248413,-0.9275 0.865323,-1.6601 1.652968,-2.07602 0.07958,-0.0421 0.14773,-0.024 0.195564,0.0523 0.47436,0.75415 0.64236,1.69715 0.394029,2.62444 -0.248621,0.92738 -0.86553,1.65997 -1.653382,2.07606 -0.07954,0.0419 -0.147689,0.0237 -0.195688,-0.0525 -0.474154,-0.75411 -0.642029,-1.69703 -0.393491,-2.62432 z" />
    <path
       style="fill:#ece710;fill-opacity:1;stroke:#000000;stroke-width:0.141111;stroke-miterlimit:4;stroke-dasharray:none"
       id="_156153968"
       d="m 64.405198,174.95382 c 0.248497,-0.92742 0.865282,-1.66001 1.652968,-2.07609 0.07963,-0.042 0.147772,-0.0238 0.19573,0.0525 0.474154,0.75415 0.642194,1.69707 0.393698,2.62445 -0.248497,0.92741 -0.865489,1.65993 -1.653217,2.07601 -0.07963,0.042 -0.147771,0.0238 -0.195729,-0.0524 -0.474113,-0.7542 -0.641946,-1.69703 -0.39345,-2.62441 z" />
    <path
       style="fill:#ece710;fill-opacity:1;stroke:#000000;stroke-width:0.141111;stroke-miterlimit:4;stroke-dasharray:none"
       id="_156142976"
       d="m 41.868912,157.37706 2.82888,4.46087 1.411642,0.34127 -2.60086,-4.00496 0.646174,-0.41965 3.711861,5.71579 0.602319,-0.79925 -2.950828,-4.54386 0.60149,-0.39059 13.076634,20.13626 c 0.297781,1.43713 0.06491,2.59269 -0.698733,3.46668 l -2.240448,1.45496 c -1.109011,0.34213 -2.25939,0.0849 -3.451178,-0.77169 l -13.076634,-20.13625 0.60149,-0.39063 2.950786,4.54386 0.975126,-0.22516 -3.71182,-5.71575 0.646133,-0.41965 2.60086,4.00496 0.262382,-1.42839 -2.924548,-4.39874 z" />
    <path
       style="fill:#ece710;fill-opacity:1;stroke:#000000;stroke-width:0.141111;stroke-miterlimit:4;stroke-dasharray:none"
       id="_156143912"
       d="m 46.868271,163.8436 c -0.471998,-0.72675 -1.224493,-1.17139 -2.046873,-1.28923 -0.08315,-0.0119 -0.139813,0.0249 -0.162777,0.10565 -0.226859,0.79925 -0.126921,1.66773 0.345035,2.39448 0.471957,0.72676 1.2247,1.17127 2.047081,1.28912 0.08315,0.0119 0.139812,-0.0249 0.162776,-0.1057 0.226818,-0.79925 0.126715,-1.66756 -0.345242,-2.39432 z" />
    <path
       style="fill:#ece710;fill-opacity:1;stroke:#000000;stroke-width:0.141111;stroke-miterlimit:4;stroke-dasharray:none"
       id="_156143840"
       d="m 46.217869,166.53591 c -0.813261,-0.296 -1.67303,-0.21936 -2.387472,0.1471 -0.07221,0.0371 -0.09397,0.0968 -0.06247,0.17165 0.311709,0.73998 0.920992,1.35158 1.734211,1.64758 0.813262,0.29596 1.673113,0.21911 2.387556,-0.1474 0.07221,-0.0371 0.09397,-0.0968 0.06247,-0.17165 -0.311709,-0.73993 -0.921074,-1.35133 -1.734294,-1.64728 z" />
    <path
       style="fill:#ece710;fill-opacity:1;stroke:#000000;stroke-width:0.141111;stroke-miterlimit:4;stroke-dasharray:none"
       id="_156143768"
       d="m 47.947479,169.19919 c -0.813219,-0.29612 -1.673071,-0.21936 -2.38739,0.14719 -0.07229,0.0369 -0.09413,0.0967 -0.06247,0.17144 0.311543,0.7401 0.920992,1.35171 1.734045,1.64775 0.813262,0.29591 1.673113,0.21915 2.387639,-0.14744 0.07212,-0.0371 0.09389,-0.0968 0.06247,-0.17165 -0.311709,-0.73998 -0.921116,-1.35137 -1.734294,-1.64729 z" />
    <path
       style="fill:#ece710;fill-opacity:1;stroke:#000000;stroke-width:0.141111;stroke-miterlimit:4;stroke-dasharray:none"
       id="_156143696"
       d="m 49.677089,171.86243 c -0.813261,-0.29608 -1.673071,-0.21935 -2.38739,0.14719 -0.07229,0.0369 -0.09413,0.0967 -0.06251,0.17144 0.311584,0.74015 0.920991,1.35175 1.734045,1.64779 0.813303,0.29588 1.673154,0.21911 2.38768,-0.14748 0.07208,-0.0371 0.09389,-0.0968 0.06242,-0.17161 -0.311668,-0.73997 -0.921075,-1.35141 -1.734253,-1.64733 z" />
    <path
       style="fill:#ece710;fill-opacity:1;stroke:#000000;stroke-width:0.141111;stroke-miterlimit:4;stroke-dasharray:none"
       id="_156143624"
       d="m 51.406658,174.52605 c -0.813261,-0.29612 -1.673072,-0.21936 -2.38739,0.14715 -0.07229,0.037 -0.09413,0.0967 -0.06251,0.17148 0.311585,0.7401 0.920992,1.35171 1.734045,1.64775 0.813303,0.29587 1.673155,0.21915 2.38768,-0.14744 0.07208,-0.0371 0.09389,-0.0968 0.06247,-0.17165 -0.311708,-0.73998 -0.921115,-1.35137 -1.734293,-1.64729 z" />
    <path
       style="fill:#ece710;fill-opacity:1;stroke:#000000;stroke-width:0.141111;stroke-miterlimit:4;stroke-dasharray:none"
       id="_156143552"
       d="m 53.136226,177.18925 c -0.81322,-0.29612 -1.673071,-0.21935 -2.38739,0.14719 -0.07229,0.0369 -0.09413,0.0967 -0.06247,0.17144 0.311585,0.7401 0.920992,1.35175 1.734045,1.64775 0.813303,0.29591 1.673113,0.21915 2.387639,-0.14744 0.07212,-0.0371 0.09389,-0.0968 0.06247,-0.17165 -0.311667,-0.73997 -0.921116,-1.35137 -1.734294,-1.64729 z" />
    <path
       style="fill:#ece710;fill-opacity:1;stroke:#000000;stroke-width:0.141111;stroke-miterlimit:4;stroke-dasharray:none"
       id="_156143480"
       d="m 54.865795,179.85245 c -0.81322,-0.29599 -1.67303,-0.21935 -2.387473,0.14715 -0.07221,0.0371 -0.09393,0.0968 -0.06247,0.17161 0.31175,0.74002 0.921033,1.35158 1.734252,1.64758 0.81322,0.296 1.673072,0.21915 2.387514,-0.14736 0.07225,-0.037 0.09397,-0.0968 0.06251,-0.17164 -0.31175,-0.73998 -0.921116,-1.35134 -1.734335,-1.64734 z" />
    <path
       style="fill:#ece710;fill-opacity:1;stroke:#000000;stroke-width:0.141111;stroke-miterlimit:4;stroke-dasharray:none"
       id="_156143408"
       d="m 47.727708,165.55535 c 0.06039,-0.86329 0.480081,-1.61757 1.105488,-2.12119 0.06321,-0.0509 0.126673,-0.0465 0.182217,0.0128 0.549221,0.58574 0.8601,1.39113 0.799748,2.25442 -0.06039,0.86329 -0.48033,1.61757 -1.105737,2.12119 -0.06325,0.0509 -0.126673,0.0464 -0.182216,-0.0128 -0.549221,-0.58574 -0.859852,-1.39109 -0.7995,-2.25442 z" />
    <path
       style="fill:#ece710;fill-opacity:1;stroke:#000000;stroke-width:0.141111;stroke-miterlimit:4;stroke-dasharray:none"
       id="_156143336"
       d="m 49.457277,168.21872 c 0.06023,-0.86334 0.480081,-1.61765 1.105488,-2.12111 0.06317,-0.051 0.12659,-0.0467 0.182009,0.0126 0.549428,0.58565 0.860266,1.39116 0.800039,2.25433 -0.06052,0.86334 -0.480372,1.61761 -1.105861,2.12128 -0.06317,0.0508 -0.126632,0.0464 -0.182217,-0.0128 -0.549221,-0.5857 -0.859893,-1.39112 -0.799458,-2.25437 z" />
    <path
       style="fill:#ece710;fill-opacity:1;stroke:#000000;stroke-width:0.141111;stroke-miterlimit:4;stroke-dasharray:none"
       id="_156143264"
       d="m 51.186845,170.88213 c 0.06027,-0.86338 0.480123,-1.61766 1.105488,-2.12116 0.06317,-0.051 0.126632,-0.0467 0.182051,0.0127 0.549428,0.58569 0.860266,1.39116 0.799997,2.25437 -0.06048,0.86329 -0.48033,1.61757 -1.105861,2.12124 -0.06317,0.0508 -0.12659,0.0464 -0.182175,-0.0128 -0.549221,-0.5857 -0.859894,-1.39112 -0.7995,-2.25433 z" />
    <path
       style="fill:#ece710;fill-opacity:1;stroke:#000000;stroke-width:0.141111;stroke-miterlimit:4;stroke-dasharray:none"
       id="_156143192"
       d="m 52.916413,173.54533 c 0.06027,-0.86338 0.480123,-1.61765 1.105488,-2.12111 0.06317,-0.051 0.126632,-0.0467 0.182052,0.0126 0.549428,0.58566 0.860266,1.39117 0.799997,2.25433 -0.06048,0.86334 -0.48033,1.61761 -1.10582,2.12124 -0.06321,0.0508 -0.126632,0.0464 -0.182217,-0.0127 -0.549221,-0.58574 -0.859893,-1.39112 -0.7995,-2.25437 z" />
    <path
       style="fill:#ece710;fill-opacity:1;stroke:#000000;stroke-width:0.141111;stroke-miterlimit:4;stroke-dasharray:none"
       id="_156143120"
       d="m 54.646023,176.20895 c 0.06027,-0.86338 0.480123,-1.6177 1.105488,-2.12116 0.06317,-0.051 0.126591,-0.0467 0.182052,0.0126 0.549386,0.58569 0.860266,1.39116 0.799996,2.25433 -0.06048,0.86333 -0.480329,1.61761 -1.105861,2.12128 -0.06317,0.0508 -0.126631,0.0464 -0.182175,-0.0128 -0.549221,-0.5857 -0.859935,-1.39113 -0.7995,-2.25433 z" />
    <path
       style="fill:#ece710;fill-opacity:1;stroke:#000000;stroke-width:0.141111;stroke-miterlimit:4;stroke-dasharray:none"
       id="_156143048"
       d="m 56.375675,178.87215 c 0.06035,-0.86329 0.480081,-1.61757 1.105446,-2.1212 0.06325,-0.0509 0.126673,-0.0465 0.182217,0.0127 0.549221,0.58578 0.860101,1.39112 0.799748,2.25446 -0.06035,0.86329 -0.480288,1.61757 -1.105736,2.12115 -0.06321,0.0509 -0.126673,0.0465 -0.182176,-0.0127 -0.54922,-0.58573 -0.859893,-1.39112 -0.799499,-2.25441 z" />
    <path
       style="fill:#ece710;fill-opacity:1;stroke:#000000;stroke-width:0.141111;stroke-miterlimit:4;stroke-dasharray:none"
       id="_156011744"
       d="m 122.22616,157.37706 -2.82888,4.46087 -1.41164,0.34127 2.60086,-4.00496 -0.64618,-0.41965 -3.71186,5.71579 -0.60232,-0.79925 2.95083,-4.54386 -0.60149,-0.39059 -13.07663,20.13626 c -0.29779,1.43713 -0.0649,2.59269 0.69873,3.46668 l 2.24045,1.45496 c 1.10901,0.34213 2.25939,0.0849 3.45117,-0.77169 l 13.07664,-20.13625 -0.60149,-0.39063 -2.95079,4.54386 -0.97512,-0.22516 3.71182,-5.71575 -0.64614,-0.41965 -2.60086,4.00496 -0.26238,-1.42839 2.92455,-4.39874 z" />
    <path
       style="fill:#ece710;fill-opacity:1;stroke:#000000;stroke-width:0.141111;stroke-miterlimit:4;stroke-dasharray:none"
       id="_156097504"
       d="m 117.2268,163.8436 c 0.472,-0.72675 1.22449,-1.17139 2.04687,-1.28923 0.0832,-0.0119 0.13981,0.0249 0.16278,0.10565 0.22686,0.79925 0.12692,1.66773 -0.34504,2.39448 -0.47195,0.72676 -1.2247,1.17127 -2.04708,1.28912 -0.0832,0.0119 -0.13981,-0.0249 -0.16277,-0.1057 -0.22682,-0.79925 -0.12672,-1.66756 0.34524,-2.39432 z" />
    <path
       style="fill:#ece710;fill-opacity:1;stroke:#000000;stroke-width:0.141111;stroke-miterlimit:4;stroke-dasharray:none"
       id="_156097432"
       d="m 117.87716,166.53591 c 0.81326,-0.296 1.67303,-0.21936 2.38747,0.1471 0.0722,0.0371 0.094,0.0968 0.0625,0.17165 -0.31171,0.73998 -0.92099,1.35158 -1.73421,1.64758 -0.81326,0.29596 -1.67312,0.21911 -2.38756,-0.1474 -0.0722,-0.0371 -0.094,-0.0968 -0.0625,-0.17165 0.31171,-0.73993 0.92108,-1.35133 1.7343,-1.64728 z" />
    <path
       style="fill:#ece710;fill-opacity:1;stroke:#000000;stroke-width:0.141111;stroke-miterlimit:4;stroke-dasharray:none"
       id="_156097360"
       d="m 116.14784,169.19919 c 0.81322,-0.29612 1.67307,-0.21936 2.38739,0.14719 0.0723,0.0369 0.0941,0.0967 0.0625,0.17144 -0.31154,0.7401 -0.92099,1.35171 -1.73404,1.64775 -0.81326,0.29591 -1.67311,0.21915 -2.38764,-0.14744 -0.0721,-0.0371 -0.0939,-0.0968 -0.0625,-0.17165 0.3117,-0.73998 0.92111,-1.35137 1.73429,-1.64729 z" />
    <path
       style="fill:#ece710;fill-opacity:1;stroke:#000000;stroke-width:0.141111;stroke-miterlimit:4;stroke-dasharray:none"
       id="_156097288"
       d="m 114.4181,171.86243 c 0.81327,-0.29608 1.67308,-0.21935 2.38739,0.14719 0.0723,0.0369 0.0941,0.0967 0.0625,0.17144 -0.31158,0.74015 -0.92099,1.35175 -1.73404,1.64779 -0.81331,0.29588 -1.67316,0.21911 -2.38768,-0.14748 -0.0721,-0.0371 -0.0939,-0.0968 -0.0624,-0.17161 0.31167,-0.73997 0.92108,-1.35141 1.73425,-1.64733 z" />
    <path
       style="fill:#ece710;fill-opacity:1;stroke:#000000;stroke-width:0.141111;stroke-miterlimit:4;stroke-dasharray:none"
       id="_156097216"
       d="m 112.68837,174.52605 c 0.81326,-0.29612 1.67307,-0.21936 2.38739,0.14715 0.0723,0.037 0.0941,0.0967 0.0625,0.17148 -0.31159,0.7401 -0.92099,1.35171 -1.73405,1.64775 -0.8133,0.29587 -1.67315,0.21915 -2.38768,-0.14744 -0.0721,-0.0371 -0.0939,-0.0968 -0.0625,-0.17165 0.31171,-0.73998 0.92111,-1.35137 1.73429,-1.64729 z" />
    <path
       style="fill:#ece710;fill-opacity:1;stroke:#000000;stroke-width:0.141111;stroke-miterlimit:4;stroke-dasharray:none"
       id="_156097144"
       d="m 110.95905,177.18925 c 0.81322,-0.29612 1.67307,-0.21935 2.38739,0.14719 0.0723,0.0369 0.0941,0.0967 0.0625,0.17144 -0.31159,0.7401 -0.92099,1.35175 -1.73405,1.64775 -0.8133,0.29591 -1.67311,0.21915 -2.38764,-0.14744 -0.0721,-0.0371 -0.0939,-0.0968 -0.0625,-0.17165 0.31166,-0.73997 0.92111,-1.35137 1.73429,-1.64729 z" />
    <path
       style="fill:#ece710;fill-opacity:1;stroke:#000000;stroke-width:0.141111;stroke-miterlimit:4;stroke-dasharray:none"
       id="_156097072"
       d="m 109.22932,179.85245 c 0.81322,-0.29599 1.67303,-0.21935 2.38747,0.14715 0.0722,0.0371 0.0939,0.0968 0.0625,0.17161 -0.31175,0.74002 -0.92104,1.35158 -1.73426,1.64758 -0.81322,0.296 -1.67307,0.21915 -2.38751,-0.14736 -0.0722,-0.037 -0.094,-0.0968 -0.0625,-0.17164 0.31175,-0.73998 0.92112,-1.35134 1.73434,-1.64734 z" />
    <path
       style="fill:#ece710;fill-opacity:1;stroke:#000000;stroke-width:0.141111;stroke-miterlimit:4;stroke-dasharray:none"
       id="_156097000"
       d="m 116.36753,165.55535 c -0.0604,-0.86329 -0.48008,-1.61757 -1.10549,-2.12119 -0.0632,-0.0509 -0.12667,-0.0465 -0.18222,0.0128 -0.54922,0.58574 -0.8601,1.39113 -0.79975,2.25442 0.0604,0.86329 0.48033,1.61757 1.10574,2.12119 0.0632,0.0509 0.12667,0.0464 0.18222,-0.0128 0.54922,-0.58574 0.85985,-1.39109 0.7995,-2.25442 z" />
    <path
       style="fill:#ece710;fill-opacity:1;stroke:#000000;stroke-width:0.141111;stroke-miterlimit:4;stroke-dasharray:none"
       id="_156096928"
       d="m 114.63779,168.21872 c -0.0602,-0.86334 -0.48008,-1.61765 -1.10548,-2.12111 -0.0632,-0.051 -0.1266,-0.0467 -0.18201,0.0126 -0.54943,0.58565 -0.86027,1.39116 -0.80004,2.25433 0.0605,0.86334 0.48037,1.61761 1.10586,2.12128 0.0632,0.0508 0.12663,0.0464 0.18221,-0.0128 0.54923,-0.5857 0.8599,-1.39112 0.79946,-2.25437 z" />
    <path
       style="fill:#ece710;fill-opacity:1;stroke:#000000;stroke-width:0.141111;stroke-miterlimit:4;stroke-dasharray:none"
       id="_156096856"
       d="m 112.90847,170.88213 c -0.0603,-0.86338 -0.48012,-1.61766 -1.10548,-2.12116 -0.0632,-0.051 -0.12664,-0.0467 -0.18206,0.0127 -0.54942,0.58569 -0.86026,1.39116 -0.79999,2.25437 0.0605,0.86329 0.48033,1.61757 1.10586,2.12124 0.0632,0.0508 0.12659,0.0464 0.18217,-0.0128 0.54922,-0.5857 0.8599,-1.39112 0.7995,-2.25433 z" />
    <path
       style="fill:#ece710;fill-opacity:1;stroke:#000000;stroke-width:0.141111;stroke-miterlimit:4;stroke-dasharray:none"
       id="_156096784"
       d="m 111.17874,173.54533 c -0.0603,-0.86338 -0.48012,-1.61765 -1.10549,-2.12111 -0.0632,-0.051 -0.12663,-0.0467 -0.18205,0.0126 -0.54943,0.58566 -0.86027,1.39117 -0.8,2.25433 0.0605,0.86334 0.48033,1.61761 1.10582,2.12124 0.0632,0.0508 0.12663,0.0464 0.18222,-0.0127 0.54922,-0.58574 0.85989,-1.39112 0.7995,-2.25437 z" />
    <path
       style="fill:#ece710;fill-opacity:1;stroke:#000000;stroke-width:0.141111;stroke-miterlimit:4;stroke-dasharray:none"
       id="_156011888"
       d="m 109.449,176.20895 c -0.0603,-0.86338 -0.48012,-1.6177 -1.10548,-2.12116 -0.0632,-0.051 -0.12659,-0.0467 -0.18205,0.0126 -0.54939,0.58569 -0.86027,1.39116 -0.8,2.25433 0.0605,0.86333 0.48033,1.61761 1.10586,2.12128 0.0632,0.0508 0.12663,0.0464 0.18218,-0.0128 0.54922,-0.5857 0.85993,-1.39113 0.79949,-2.25433 z" />
    <path
       style="fill:#ece710;fill-opacity:1;stroke:#000000;stroke-width:0.141111;stroke-miterlimit:4;stroke-dasharray:none"
       id="_156011816"
       d="m 107.71927,178.87215 c -0.0603,-0.86329 -0.48008,-1.61757 -1.10545,-2.1212 -0.0633,-0.0509 -0.12667,-0.0465 -0.18221,0.0127 -0.54922,0.58578 -0.8601,1.39112 -0.79975,2.25446 0.0603,0.86329 0.48029,1.61757 1.10574,2.12115 0.0632,0.0509 0.12667,0.0465 0.18217,-0.0127 0.54922,-0.58573 0.85989,-1.39112 0.7995,-2.25441 z" />
    <path
       style="fill:#ece710;fill-opacity:1;stroke:#000000;stroke-width:0.141111;stroke-miterlimit:4;stroke-dasharray:none"
       id="_156111592"
       d="m 97.323455,141.57414 -1.153985,6.299 -1.431746,1.02474 1.104659,-5.683 -0.916887,-0.17824 -1.576533,8.1106 -1.040038,-0.62487 1.253301,-6.44764 -0.853509,-0.16593 -5.55401,28.57307 c 0.317968,1.75071 1.104534,2.94387 2.359825,3.57943 l 3.179138,0.61794 c 1.401984,-0.11904 2.578228,-0.93064 3.528857,-2.43476 l 5.554053,-28.57308 -0.85351,-0.16588 -1.253302,6.44764 -1.198338,0.18976 1.57653,-8.1106 -0.916885,-0.17819 -1.104659,5.683 -0.943664,-1.48646 1.289694,-6.27264 z" />
    <path
       style="fill:#ece710;fill-opacity:1;stroke:#000000;stroke-width:0.141111;stroke-miterlimit:4;stroke-dasharray:none"
       id="_156134392"
       d="m 94.640771,151.11337 c 0.200456,-1.03129 0.844432,-1.87282 1.71531,-2.37881 0.08804,-0.0511 0.168455,-0.0355 0.230921,0.0449 0.617988,0.79539 0.900059,1.81694 0.699604,2.84819 -0.200455,1.03129 -0.844681,1.87278 -1.7156,2.37873 -0.08804,0.0511 -0.168455,0.0355 -0.230963,-0.0449 -0.617904,-0.79536 -0.899727,-1.81687 -0.699272,-2.84812 z" />
    <path
       style="fill:#ece710;fill-opacity:1;stroke:#000000;stroke-width:0.141111;stroke-miterlimit:4;stroke-dasharray:none"
       id="_156134320"
       d="m 96.594339,153.84426 c 0.779686,-0.70204 1.780926,-1.00637 2.750414,-0.91887 0.09803,0.009 0.149596,0.0661 0.148186,0.16456 -0.0143,0.97338 -0.42147,1.93752 -1.201156,2.63957 -0.779644,0.70201 -1.781091,1.00613 -2.750621,0.91863 -0.09803,-0.009 -0.149596,-0.0661 -0.148186,-0.16456 0.01434,-0.97334 0.421677,-1.93728 1.201363,-2.63933 z" />
    <path
       style="fill:#ece710;fill-opacity:1;stroke:#000000;stroke-width:0.141111;stroke-miterlimit:4;stroke-dasharray:none"
       id="_156134248"
       d="m 95.859834,157.62348 c 0.779603,-0.70217 1.781009,-1.00638 2.750373,-0.91879 0.09807,0.009 0.14972,0.0659 0.148103,0.16435 -0.01409,0.97343 -0.421346,1.93769 -1.200824,2.6397 -0.779811,0.70193 -1.781175,1.00613 -2.750829,0.91859 -0.09791,-0.009 -0.149513,-0.0662 -0.148145,-0.16456 0.0143,-0.9733 0.421636,-1.93736 1.201322,-2.63929 z" />
    <path
       style="fill:#ece710;fill-opacity:1;stroke:#000000;stroke-width:0.141111;stroke-miterlimit:4;stroke-dasharray:none"
       id="_156134176"
       d="m 95.125329,161.40274 c 0.779645,-0.70221 1.781009,-1.00642 2.750414,-0.91883 0.09803,0.009 0.14972,0.0659 0.148103,0.16435 -0.01413,0.97347 -0.421387,1.93769 -1.200865,2.6397 -0.779811,0.70197 -1.781175,1.00617 -2.750829,0.91863 -0.09786,-0.009 -0.149471,-0.0662 -0.148145,-0.16456 0.0143,-0.97334 0.421636,-1.93736 1.201322,-2.63929 z" />
    <path
       style="fill:#ece710;fill-opacity:1;stroke:#000000;stroke-width:0.141111;stroke-miterlimit:4;stroke-dasharray:none"
       id="_156134104"
       d="m 94.39041,165.18192 c 0.779644,-0.70217 1.781008,-1.00638 2.750372,-0.91879 0.09807,0.009 0.14972,0.0659 0.148104,0.16435 -0.01409,0.97342 -0.421346,1.93769 -1.200825,2.6397 -0.77981,0.70192 -1.781174,1.00613 -2.750829,0.91858 -0.09786,-0.009 -0.149512,-0.0661 -0.148144,-0.16455 0.0143,-0.97331 0.421636,-1.93736 1.201322,-2.63929 z" />
    <path
       style="fill:#ece710;fill-opacity:1;stroke:#000000;stroke-width:0.141111;stroke-miterlimit:4;stroke-dasharray:none"
       id="_156134032"
       d="m 93.655905,168.96118 c 0.779644,-0.70217 1.781008,-1.00642 2.750414,-0.91884 0.09803,0.009 0.14972,0.066 0.148103,0.16436 -0.01409,0.97346 -0.421387,1.93769 -1.200866,2.6397 -0.77981,0.70196 -1.781174,1.00617 -2.750829,0.91862 -0.09786,-0.009 -0.149471,-0.0662 -0.148144,-0.16455 0.0143,-0.97335 0.421636,-1.93736 1.201322,-2.63929 z" />
    <path
       style="fill:#ece710;fill-opacity:1;stroke:#000000;stroke-width:0.141111;stroke-miterlimit:4;stroke-dasharray:none"
       id="_156133960"
       d="m 92.9214,172.74036 c 0.779686,-0.70205 1.780926,-1.00638 2.750455,-0.91892 0.09799,0.009 0.149596,0.0662 0.148186,0.16456 -0.01434,0.97338 -0.421469,1.93757 -1.201156,2.63957 -0.779686,0.70205 -1.781133,1.00618 -2.750663,0.91867 -0.09799,-0.009 -0.149595,-0.0661 -0.148186,-0.16456 0.01438,-0.97334 0.421678,-1.93731 1.201364,-2.63932 z" />
    <path
       style="fill:#ece710;fill-opacity:1;stroke:#000000;stroke-width:0.141111;stroke-miterlimit:4;stroke-dasharray:none"
       id="_156133888"
       d="m 94.452171,153.42781 c -0.459936,-0.943 -1.274275,-1.60024 -2.20596,-1.88231 -0.09418,-0.0285 -0.163482,0.005 -0.199005,0.0971 -0.351377,0.90786 -0.335087,1.95432 0.124849,2.89732 0.459937,0.943 1.274524,1.60012 2.206251,1.88219 0.09418,0.0285 0.163481,-0.005 0.199004,-0.0971 0.351336,-0.90785 0.334797,-1.95419 -0.125139,-2.89719 z" />
    <path
       style="fill:#ece710;fill-opacity:1;stroke:#000000;stroke-width:0.141111;stroke-miterlimit:4;stroke-dasharray:none"
       id="_156133816"
       d="m 93.717252,157.20707 c -0.459854,-0.94313 -1.274317,-1.60033 -2.205919,-1.88223 -0.09418,-0.0286 -0.163523,0.005 -0.198922,0.0969 -0.351584,0.90785 -0.33517,1.95448 0.124559,2.89736 0.460102,0.94296 1.274565,1.60011 2.206417,1.88219 0.09409,0.0284 0.163398,-0.005 0.199004,-0.0971 0.351377,-0.90781 0.334797,-1.95423 -0.125139,-2.89711 z" />
    <path
       style="fill:#ece710;fill-opacity:1;stroke:#000000;stroke-width:0.141111;stroke-miterlimit:4;stroke-dasharray:none"
       id="_156133744"
       d="m 92.982747,160.98629 c -0.459812,-0.94309 -1.274317,-1.60028 -2.205919,-1.88223 -0.09418,-0.0286 -0.163523,0.005 -0.19888,0.0969 -0.351585,0.90785 -0.335212,1.95444 0.124559,2.89736 0.46006,0.94291 1.274565,1.60011 2.206375,1.88214 0.09409,0.0284 0.163439,-0.005 0.199046,-0.097 0.351335,-0.90781 0.334796,-1.95423 -0.125181,-2.89715 z" />
    <path
       style="fill:#ece710;fill-opacity:1;stroke:#000000;stroke-width:0.141111;stroke-miterlimit:4;stroke-dasharray:none"
       id="_156133672"
       d="m 92.248242,164.76551 c -0.459812,-0.94313 -1.274317,-1.60033 -2.205919,-1.88223 -0.09418,-0.0287 -0.163523,0.005 -0.198922,0.0969 -0.351542,0.90785 -0.335169,1.95448 0.124559,2.89735 0.460102,0.94296 1.274565,1.60012 2.206417,1.88219 0.09409,0.0284 0.163398,-0.005 0.199004,-0.0971 0.351377,-0.90781 0.334838,-1.95424 -0.125139,-2.89711 z" />
    <path
       style="fill:#ece710;fill-opacity:1;stroke:#000000;stroke-width:0.141111;stroke-miterlimit:4;stroke-dasharray:none"
       id="_156133600"
       d="m 91.513737,168.54473 c -0.459812,-0.94309 -1.274317,-1.60029 -2.205919,-1.88219 -0.09418,-0.0287 -0.163523,0.005 -0.19888,0.0969 -0.351584,0.90785 -0.335211,1.95443 0.124559,2.89735 0.46006,0.94292 1.274565,1.60012 2.206416,1.88219 0.09405,0.0284 0.163399,-0.005 0.199005,-0.0971 0.351335,-0.90781 0.334796,-1.95424 -0.125181,-2.89715 z" />
    <path
       style="fill:#ece710;fill-opacity:1;stroke:#000000;stroke-width:0.141111;stroke-miterlimit:4;stroke-dasharray:none"
       id="_156133528"
       d="m 90.778817,172.32378 c -0.459894,-0.94296 -1.274233,-1.6002 -2.205919,-1.88227 -0.09422,-0.0285 -0.163481,0.005 -0.199046,0.097 -0.351335,0.9079 -0.335045,1.95436 0.124891,2.89736 0.459936,0.94296 1.274524,1.60008 2.206209,1.88215 0.09422,0.0285 0.163482,-0.005 0.199046,-0.0971 0.351336,-0.90785 0.334755,-1.95419 -0.125181,-2.89719 z" />
    <path
       style="fill:#ece710;fill-opacity:1;stroke:#000000;stroke-width:0.141111;stroke-miterlimit:4;stroke-dasharray:none"
       id="_156097600"
       d="m 110.93833,148.47372 -2.13654,5.45689 -1.46507,0.6705 1.98466,-4.91215 -0.79254,-0.3202 -2.8324,7.0105 -0.82516,-0.74292 2.25168,-5.57312 -0.73774,-0.29807 -9.978404,24.69748 c -0.02006,1.62818 0.478175,2.83734 1.494834,3.62743 l 2.74793,1.11025 c 1.28016,0.13787 2.47854,-0.38582 3.59513,-1.57098 l 9.97841,-24.69748 -0.73774,-0.29803 -2.25168,5.57312 -1.10963,-0.0388 2.83244,-7.0105 -0.79253,-0.3202 -1.98466,4.91219 -0.5881,-1.50006 2.2538,-5.40951 z" />
    <path
       style="fill:#ece710;fill-opacity:1;stroke:#000000;stroke-width:0.141111;stroke-miterlimit:4;stroke-dasharray:none"
       id="_156111496"
       d="m 106.86249,156.57437 c 0.36016,-0.8914 1.08559,-1.53492 1.95622,-1.83734 0.088,-0.0306 0.15755,-0.002 0.19962,0.0806 0.41625,0.82238 0.49128,1.78934 0.13115,2.68069 -0.36016,0.8914 -1.0858,1.53484 -1.95651,1.83726 -0.088,0.0306 -0.15751,0.002 -0.19962,-0.0807 -0.41621,-0.82234 -0.49099,-1.78918 -0.13086,-2.68057 z" />
    <path
       style="fill:#ece710;fill-opacity:1;stroke:#000000;stroke-width:0.141111;stroke-miterlimit:4;stroke-dasharray:none"
       id="_156111424"
       d="m 108.14082,159.36872 c 0.82301,-0.49451 1.77554,-0.59308 2.63121,-0.3452 0.0865,0.0251 0.12281,0.0856 0.10437,0.17372 -0.18284,0.87187 -0.71693,1.66689 -1.53989,2.1614 -0.823,0.49446 -1.77566,0.59283 -2.63133,0.34491 -0.0865,-0.0251 -0.12282,-0.0856 -0.10437,-0.17368 0.18284,-0.87187 0.71705,-1.66669 1.54001,-2.16115 z" />
    <path
       style="fill:#ece710;fill-opacity:1;stroke:#000000;stroke-width:0.141111;stroke-miterlimit:4;stroke-dasharray:none"
       id="_156111352"
       d="m 106.82104,162.63532 c 0.82296,-0.49463 1.77562,-0.59308 2.63111,-0.34512 0.0866,0.0249 0.12299,0.0854 0.10434,0.17347 -0.18264,0.872 -0.71685,1.66706 -1.53965,2.16157 -0.82308,0.49442 -1.77574,0.59283 -2.63145,0.34487 -0.0864,-0.0251 -0.12277,-0.0856 -0.10437,-0.17368 0.1828,-0.87187 0.71705,-1.66673 1.54002,-2.16111 z" />
    <path
       style="fill:#ece710;fill-opacity:1;stroke:#000000;stroke-width:0.141111;stroke-miterlimit:4;stroke-dasharray:none"
       id="_156111280"
       d="m 105.50125,165.90196 c 0.82296,-0.49467 1.77562,-0.59308 2.63112,-0.34512 0.0866,0.0249 0.12298,0.0854 0.10437,0.17347 -0.18267,0.872 -0.71689,1.66706 -1.53964,2.16157 -0.82309,0.49438 -1.77575,0.59283 -2.63149,0.34487 -0.0864,-0.0251 -0.12274,-0.0856 -0.10434,-0.17368 0.1828,-0.87187 0.71702,-1.66673 1.53998,-2.16111 z" />
    <path
       style="fill:#ece710;fill-opacity:1;stroke:#000000;stroke-width:0.141111;stroke-miterlimit:4;stroke-dasharray:none"
       id="_156111208"
       d="m 104.18146,169.16856 c 0.82296,-0.49467 1.77562,-0.59308 2.63112,-0.34512 0.0866,0.0249 0.12298,0.0854 0.10437,0.17347 -0.18267,0.872 -0.71689,1.66706 -1.53964,2.16157 -0.82308,0.49438 -1.77574,0.59282 -2.63149,0.34487 -0.0864,-0.0251 -0.12274,-0.0856 -0.10433,-0.17372 0.18279,-0.87183 0.71701,-1.66669 1.53997,-2.16107 z" />
    <path
       style="fill:#ece710;fill-opacity:1;stroke:#000000;stroke-width:0.141111;stroke-miterlimit:4;stroke-dasharray:none"
       id="_156111136"
       d="m 102.86167,172.43528 c 0.82296,-0.49463 1.77562,-0.59307 2.63112,-0.34512 0.0866,0.025 0.12299,0.0854 0.10433,0.17352 -0.18263,0.87195 -0.71684,1.66706 -1.53964,2.16156 -0.82304,0.49438 -1.7757,0.59283 -2.63145,0.34483 -0.0864,-0.0251 -0.12273,-0.0855 -0.10437,-0.17368 0.18279,-0.87183 0.71705,-1.66669 1.54001,-2.16111 z" />
    <path
       style="fill:#ece710;fill-opacity:1;stroke:#000000;stroke-width:0.141111;stroke-miterlimit:4;stroke-dasharray:none"
       id="_156111064"
       d="m 101.54188,175.702 c 0.82297,-0.49446 1.77554,-0.59303 2.63117,-0.34515 0.0865,0.0251 0.12281,0.0855 0.10437,0.17371 -0.18284,0.87188 -0.71689,1.6669 -1.53989,2.16141 -0.82296,0.49446 -1.77566,0.59282 -2.63133,0.34491 -0.0865,-0.0251 -0.122817,-0.0856 -0.10437,-0.17372 0.18284,-0.87183 0.71705,-1.66665 1.54005,-2.16116 z" />
    <path
       style="fill:#ece710;fill-opacity:1;stroke:#000000;stroke-width:0.141111;stroke-miterlimit:4;stroke-dasharray:none"
       id="_156110992"
       d="m 106.28881,158.6205 c -0.2485,-0.92742 -0.86528,-1.66002 -1.65297,-2.07606 -0.0796,-0.0421 -0.14777,-0.0238 -0.19573,0.0524 -0.47415,0.75419 -0.64223,1.69707 -0.39374,2.62448 0.2485,0.92738 0.86549,1.65989 1.65322,2.07597 0.0797,0.042 0.14781,0.0238 0.19573,-0.0524 0.47411,-0.75419 0.64194,-1.69703 0.39349,-2.6244 z" />
    <path
       style="fill:#ece710;fill-opacity:1;stroke:#000000;stroke-width:0.141111;stroke-miterlimit:4;stroke-dasharray:none"
       id="_156110920"
       d="m 104.96902,161.88714 c -0.24837,-0.9275 -0.86528,-1.66006 -1.65292,-2.07598 -0.0796,-0.0422 -0.14778,-0.024 -0.19557,0.0523 -0.47436,0.75412 -0.6424,1.69716 -0.39403,2.62445 0.24862,0.92738 0.86553,1.65993 1.65338,2.07601 0.0795,0.042 0.14769,0.0238 0.19569,-0.0524 0.47416,-0.75415 0.64199,-1.69703 0.39345,-2.62436 z" />
    <path
       style="fill:#ece710;fill-opacity:1;stroke:#000000;stroke-width:0.141111;stroke-miterlimit:4;stroke-dasharray:none"
       id="_156110848"
       d="m 103.64923,165.15378 c -0.24837,-0.9275 -0.86528,-1.66006 -1.65292,-2.07598 -0.0796,-0.0422 -0.14777,-0.024 -0.19561,0.0523 -0.47432,0.75416 -0.64236,1.6972 -0.39399,2.62445 0.24863,0.92742 0.86553,1.65997 1.65335,2.07605 0.0795,0.042 0.14773,0.0237 0.19572,-0.0524 0.47416,-0.75415 0.64199,-1.69703 0.39345,-2.62436 z" />
    <path
       style="fill:#ece710;fill-opacity:1;stroke:#000000;stroke-width:0.141111;stroke-miterlimit:4;stroke-dasharray:none"
       id="_156110776"
       d="m 102.32945,168.42037 c -0.24838,-0.92749 -0.86529,-1.66005 -1.65293,-2.07601 -0.0796,-0.0421 -0.14777,-0.024 -0.19561,0.0523 -0.47431,0.75415 -0.642355,1.6972 -0.39402,2.62445 0.24866,0.92741 0.86557,1.65997 1.65338,2.07605 0.0795,0.0419 0.14773,0.0237 0.19573,-0.0525 0.47415,-0.75412 0.64198,-1.69703 0.39345,-2.62433 z" />
    <path
       style="fill:#ece710;fill-opacity:1;stroke:#000000;stroke-width:0.141111;stroke-miterlimit:4;stroke-dasharray:none"
       id="_156110704"
       d="m 101.00966,171.6871 c -0.24841,-0.9275 -0.86532,-1.6601 -1.652969,-2.07602 -0.07958,-0.0421 -0.14773,-0.024 -0.195564,0.0523 -0.474361,0.75415 -0.64236,1.69715 -0.39403,2.62444 0.248621,0.92738 0.865531,1.65997 1.653383,2.07606 0.0795,0.0419 0.14769,0.0237 0.19569,-0.0525 0.47415,-0.75411 0.64203,-1.69703 0.39349,-2.62432 z" />
    <path
       style="fill:#ece710;fill-opacity:1;stroke:#000000;stroke-width:0.141111;stroke-miterlimit:4;stroke-dasharray:none"
       id="_156097672"
       d="m 99.689871,174.95382 c -0.248496,-0.92742 -0.865281,-1.66001 -1.652968,-2.07609 -0.07963,-0.042 -0.147771,-0.0238 -0.195729,0.0525 -0.474154,0.75415 -0.642195,1.69707 -0.393698,2.62445 0.248496,0.92741 0.865489,1.65993 1.653216,2.07601 0.07963,0.042 0.147772,0.0238 0.19573,-0.0524 0.474112,-0.7542 0.641946,-1.69703 0.393449,-2.62441 z" />
  </g>
  <path
     sodipodi:nodetypes="czcczcc"
     d="m 6.6628138,6.3755386 c 0,0 0.8611164,-0.08334 1.2927614,-0.0875 0.431645,-0.00416 1.2177614,0.0625 1.2177614,0.0625 l -0.125,0.3353121 c 0,0 -0.6611164,-0.06666 -1.0927614,-0.0625 -0.431645,0.00416 -1.1677614,0.0875 -1.1677614,0.0875 z"
     style="fill:#c0ad0f;fill-opacity:1;stroke:#3a3405;stroke-width:0.0375;stroke-linecap:square;stroke-miterlimit:4;stroke-dasharray:none;stroke-opacity:1;paint-order:stroke markers fill"
     id="rect1052" />
  <path
     sodipodi:nodetypes="ccccc"
     d="m 6.8981256,6.9025488 h 2.0987209 l -0.025,0.2912013 H 6.9481256 Z"
     style="fill:#c0ad0f;fill-opacity:1;stroke:#3a3405;stroke-width:0.0375;stroke-linecap:square;stroke-miterlimit:4;stroke-dasharray:none;stroke-opacity:1;paint-order:stroke markers fill"
     id="rect1055" />
</svg>
