<?xml version="1.0" encoding="UTF-8" standalone="no"?>
<svg
   xmlns:dc="http://purl.org/dc/elements/1.1/"
   xmlns:cc="http://creativecommons.org/ns#"
   xmlns:rdf="http://www.w3.org/1999/02/22-rdf-syntax-ns#"
   xmlns:svg="http://www.w3.org/2000/svg"
   xmlns="http://www.w3.org/2000/svg"
   xmlns:sodipodi="http://sodipodi.sourceforge.net/DTD/sodipodi-0.dtd"
   xmlns:inkscape="http://www.inkscape.org/namespaces/inkscape"
   inkscape:version="1.0 (4035a4fb49, 2020-05-01)"
   sodipodi:docname="Ancol_flag.svg"
   viewBox="0 0 1365.3333 909.8667"
   height="909.8667"
   width="1365.3333"
   id="svg2"
   version="1.1">
  <metadata
     id="metadata8">
    <rdf:RDF>
      <cc:Work
         rdf:about="">
        <dc:format>image/svg+xml</dc:format>
        <dc:type
           rdf:resource="http://purl.org/dc/dcmitype/StillImage" />
        <dc:title></dc:title>
      </cc:Work>
    </rdf:RDF>
  </metadata>
  <defs
     id="defs6" />
  <sodipodi:namedview
     inkscape:current-layer="layer1"
     inkscape:window-maximized="1"
     inkscape:window-y="-8"
     inkscape:window-x="-8"
     inkscape:cy="455.72016"
     inkscape:cx="682.30034"
     inkscape:zoom="0.77563481"
     showgrid="false"
     id="namedview4"
     inkscape:window-height="1017"
     inkscape:window-width="1920"
     inkscape:pageshadow="2"
     inkscape:pageopacity="0"
     guidetolerance="10"
     gridtolerance="10"
     objecttolerance="10"
     borderopacity="1"
     bordercolor="#666666"
     pagecolor="#ffffff" />
  <g
     style="display:inline"
     inkscape:label="base"
     id="layer2"
     inkscape:groupmode="layer">
    <rect
       y="0"
       x="0"
       height="909.8667"
       width="1365.3333"
       id="rect841"
       style="fill:#890014;fill-opacity:1;stroke-width:10;stroke-linecap:round;stroke-linejoin:round;paint-order:fill markers stroke" />
  </g>
  <g
     inkscape:label="top"
     id="layer1"
     inkscape:groupmode="layer">
    <path
       id="path837"
       d="M 0.26542637,455.20002 0.53333332,0.53333335 549.33332,0.28225423 C 851.17331,0.14416071 1157.6533,0.39864559 1230.4,0.84777619 1308.8095,1.3318684 1363.2096,1.2723397 1364,0.70158094 c 1.0661,-0.76981896 1.3333,90.24761506 1.3333,454.10116906 V 909.8667 H 682.66541 -0.00248058 Z M 232.19612,753.01112 c 126.02546,-83.92391 229.27842,-152.98755 229.451,-153.47475 0.17259,-0.48721 -1.6505,-6.58219 -4.05132,-13.54442 -12.52318,-36.31644 -17.54748,-69.087 -17.55871,-114.52527 -0.01,-37.9097 2.50876,-59.58945 10.57857,-91.0757 21.10733,-82.35519 79.54136,-156.56371 150.39302,-190.99216 24.89263,-12.0959 46.39236,-18.7785 76.00746,-23.62484 13.99494,-2.2902 60.64527,-3.23241 79.12823,-1.59819 58.81415,5.20022 105.59576,22.34004 148.38894,54.36664 10.97489,8.21365 32.34705,29.54274 35.0858,35.01508 3.35707,6.70782 2.87986,10.99415 -2.48481,22.31909 -2.60279,5.49454 -4.52224,9.99008 -4.26544,9.99008 0.25681,0 95.74734,-63.52078 212.20124,-141.15731 L 1356.8043,3.5520741 1249.4256,2.8427037 C 1190.3672,2.4525501 885.56626,2.1333334 572.09007,2.1333334 H 2.1333333 V 453.86668 c 0,248.45335 0.2082555,451.73335 0.4627903,451.73335 0.2545346,0 103.5745364,-68.66501 229.5999964,-152.58891 z m 535.38274,20.81508 c 60.10335,-7.1882 108.89803,-30.74838 150.46357,-72.65033 18.39907,-18.54799 25.27819,-29.4794 22.74469,-36.14297 -2.08509,-5.48424 -15.08747,-26.23055 -37.41559,-59.69954 -22.72401,-34.06242 -29.27126,-42.65705 -33.80993,-44.38265 -3.04259,-1.15679 -3.73677,-0.69773 -22.09495,14.61171 -22.51313,18.77436 -42.00412,30.33362 -62.77945,37.23177 -17.11259,5.68199 -25.19904,7.06255 -44.95388,7.67477 -21.08653,0.65348 -32.1713,-0.81773 -48.70185,-6.46388 -40.96067,-13.99049 -72.32462,-52.3422 -84.07377,-102.80506 -0.71711,-3.08 -1.49869,-5.6 -1.73684,-5.6 -0.23815,0 -32.1365,21.13931 -70.8852,46.97623 -63.76036,42.51424 -70.38813,47.20012 -69.7776,49.33334 1.78645,6.24203 17.2978,35.76868 24.7732,47.1571 16.13086,24.57457 39.7594,50.97848 60.53539,67.64576 51.27058,41.13122 115.09234,61.23954 187.73333,59.14915 9.38667,-0.27013 22.87716,-1.18605 29.97888,-2.0354 z M 719.86524,428.26668 c 61.64096,-41.06667 112.08804,-74.93626 112.10461,-75.26576 0.0165,-0.3295 -5.17711,-4.04858 -11.54151,-8.26461 -20.07607,-13.29919 -40.23384,-21.58013 -61.49503,-25.26256 -12.2911,-2.12881 -36.59133,-2.16592 -48.54359,-0.0741 -53.24129,9.31783 -92.70761,52.42947 -104.08437,113.69815 -2.38168,12.82639 -3.18204,43.46831 -1.52394,58.34479 0.7426,6.66248 1.72348,11.97347 2.17976,11.80221 0.45628,-0.17129 51.2631,-33.91142 112.90407,-74.97809 z m 153.0402,-49.10981 c 4.15921,-2.03326 8.65665,-7.70805 18.35661,-23.16205 12.59215,-20.06185 38.55593,-65.86148 37.33683,-65.86148 -0.50591,0 -92.87376,61.22092 -94.40122,62.56861 -0.25793,0.22759 0.70207,1.23273 2.13334,2.23365 1.43127,1.00091 6.20231,4.97819 10.60231,8.83841 11.90711,10.44633 20.20813,17.026 21.4803,17.026 0.62185,0 2.64317,-0.73941 4.49183,-1.64314 z"
       style="fill:#000000;stroke-width:1.06667" />
  </g>
</svg>
