<?xml version="1.0" encoding="UTF-8" standalone="no"?>
<svg
   xmlns:dc="http://purl.org/dc/elements/1.1/"
   xmlns:cc="http://creativecommons.org/ns#"
   xmlns:rdf="http://www.w3.org/1999/02/22-rdf-syntax-ns#"
   xmlns:svg="http://www.w3.org/2000/svg"
   xmlns="http://www.w3.org/2000/svg"
   xmlns:sodipodi="http://sodipodi.sourceforge.net/DTD/sodipodi-0.dtd"
   xmlns:inkscape="http://www.inkscape.org/namespaces/inkscape"
   width="1250"
   height="833.33331"
   version="1.1"
   id="svg6"
   sodipodi:docname="Ansynd_flag.svg"
   inkscape:version="1.0 (4035a4fb49, 2020-05-01)">
  <metadata
     id="metadata12">
    <rdf:RDF>
      <cc:Work
         rdf:about="">
        <dc:format>image/svg+xml</dc:format>
        <dc:type
           rdf:resource="http://purl.org/dc/dcmitype/StillImage" />
        <dc:title></dc:title>
      </cc:Work>
    </rdf:RDF>
  </metadata>
  <defs
     id="defs10" />
  <sodipodi:namedview
     fit-margin-bottom="0"
     fit-margin-right="0"
     fit-margin-left="0"
     fit-margin-top="0"
     inkscape:document-rotation="0"
     pagecolor="#ffffff"
     bordercolor="#666666"
     borderopacity="1"
     objecttolerance="10"
     gridtolerance="10"
     guidetolerance="10"
     inkscape:pageopacity="0"
     inkscape:pageshadow="2"
     inkscape:window-width="1920"
     inkscape:window-height="1017"
     id="namedview8"
     showgrid="false"
     inkscape:zoom="0.41208612"
     inkscape:cx="-161.51604"
     inkscape:cy="824.36239"
     inkscape:window-x="-8"
     inkscape:window-y="-8"
     inkscape:window-maximized="1"
     inkscape:current-layer="svg6" />
  <rect
     style="stroke-width:2.77778"
     y="0"
     x="0"
     width="1250"
     height="833.33331"
     id="rect2" />
  <polygon
     transform="scale(2.7777778)"
     points="0,300 450,0 0,0 "
     fill="#ff0000"
     id="polygon4" />
  <path
     sodipodi:nodetypes="sscsssssscssscccsssssscsscssssscsssssssscccscsssscsssssscsscssscssscccsssscsscscssssssscsscsscsssscssssssssscssssssccsssscccccscssscsssssssssscsssscssssssssssscscsssssscsscssssscssssss"
     inkscape:connector-curvature="0"
     id="path2996"
     d="m 212.28995,388.45397 c -0.31595,-1.09847 -3.25281,-10.19322 -3.75119,-20.51444 l -3.17678,-18.51714 -6.16927,-1.28075 c -3.39307,-0.70439 -8.9457,-2.23597 -12.33915,-3.4035 -3.39343,-1.1675 -6.796,-1.86664 -7.56126,-1.55364 -0.76526,0.313 -3.05099,2.73031 -5.0794,5.37181 -2.02841,2.6415 -5.10991,6.41888 -6.84778,8.39419 -1.73788,1.97533 -5.47092,6.44428 -8.29563,9.93094 -2.82472,3.48673 -5.51485,6.36445 -5.97809,6.39492 -0.67094,0.0442 -13.45092,-6.923 -22.46405,-12.24655 -1.33425,-0.78806 -0.64669,-3.57525 3.87972,-15.72725 3.02575,-8.12323 6.22002,-16.77537 7.09837,-19.227 l 1.59703,-4.4575 -9.60638,-9.49892 -9.60638,-9.49897 -14.13113,5.20747 c -22.839333,8.41647 -23.966916,8.766 -24.908702,7.72128 -0.492809,-0.54673 -2.70757,-4.33231 -4.921692,-8.41248 -2.214122,-4.08013 -4.970564,-9.05444 -6.12543,-11.05397 -1.154848,-1.99955 -1.8526,-3.82553 -1.550525,-4.05772 1.496711,-1.15056 14.320211,-11.78517 14.815438,-12.28656 0.721287,-0.73025 15.302201,-12.96402 15.709381,-13.18055 0.16606,-0.0883 -0.71214,-3.44861 -1.95149,-7.46736 -1.239313,-4.01875 -2.810996,-9.91428 -3.492613,-13.10114 l -1.239308,-5.7943 -18.493886,-3.13498 c -10.171631,-1.72422 -19.392661,-3.38844 -20.491153,-3.6983 -1.758297,-0.49595 -1.997272,-2.18367 -1.997272,-14.10511 0,-11.91381 0.240111,-13.61189 1.997272,-14.12514 1.098492,-0.32086 10.269561,-1.97517 20.380144,-3.67627 l 18.382875,-3.09293 2.90757,-10.95217 c 1.599171,-6.02371 3.210301,-11.97935 3.580331,-13.23478 0.51775,-1.75669 -0.57473,-3.26226 -4.741617,-6.53462 -2.977906,-2.33862 -6.705756,-5.42011 -8.2841,-6.8478 -2.401517,-2.17228 -15.473361,-13.10917 -17.003078,-14.22605 -0.565442,-0.41286 0.549022,-2.66989 7.204839,-14.59162 2.795022,-5.00636 5.548714,-9.25809 6.119342,-9.4483 0.570627,-0.19025 9.373963,2.7621 19.562984,6.5607 l 18.52547,6.90652 9.55049,-9.65861 9.55049,-9.65862 -6.87675,-18.987777 c -3.78221,-10.443283 -6.70227,-19.149775 -6.489,-19.347786 1.21073,-1.123975 22.76797,-13.150791 23.48917,-13.104644 0.47623,0.03055 3.17701,2.917819 6.00173,6.416311 2.82471,3.498472 5.65518,6.940219 6.28991,7.648344 0.94285,1.051853 4.85982,5.774425 13.24222,15.965839 0.44459,0.540534 4.06389,-0.0898 8.04292,-1.4004 3.979,-1.310753 9.93087,-2.951114 13.22637,-3.645275 3.2955,-0.694164 5.99183,-1.80955 5.99183,-2.478661 0,-1.372992 5.39787,-33.151986 6.3039,-37.11313 0.56875,-2.48645 1.0187,-2.56792 14.18431,-2.56792 11.97772,0 13.66283,0.237861 14.15041,1.99727 0.30442,1.098513 1.95992,10.311016 3.67884,20.472255 l 3.12533,18.474983 5.81381,1.325925 c 3.19755,0.729259 9.10183,2.30945 13.12058,3.51155 4.01875,1.202081 7.37905,2.049773 7.46736,1.883762 0.0883,-0.166056 2.96325,-3.631275 6.38878,-7.700559 3.4255,-4.069305 7.51216,-8.924491 9.08147,-10.78933 1.56928,-1.864817 4.67497,-5.396603 6.90155,-7.848386 l 4.04831,-4.457767 10.21794,5.796975 c 5.61984,3.188322 10.9507,6.2299 11.84634,6.759058 1.33847,0.790781 0.38122,4.370025 -5.37592,20.10132 l -7.00433,19.139193 9.74152,9.74154 9.74153,9.74153 4.19411,-1.80344 c 8.10859,-3.48666 29.3315,-10.99757 31.90828,-11.29255 2.17703,-0.24922 3.44903,1.20347 7.73358,8.83212 6.65137,11.84264 7.82192,14.20274 7.25103,14.61958 -1.11753,0.81593 -14.21966,11.68604 -14.73694,12.2264 -0.31386,0.32785 -3.65217,3.12836 -7.41845,6.22332 -3.76627,3.09497 -7.28905,5.99001 -7.82841,6.43341 -0.53934,0.44339 0.048,3.8059 1.30569,7.47225 1.25747,3.66635 1.83486,9.91667 3.588,13.02883 l 1.3017,6.36274 18.50663,3.13718 c 10.17867,1.72543 19.40545,3.39068 20.50392,3.70052 1.75831,0.49591 1.99728,2.18366 1.99728,14.10511 0,11.9318 -0.2375,13.6055 -1.99728,14.07789 -1.81155,0.48625 -6.78786,1.37925 -31.67103,5.68333 -4.394,0.76006 -8.01227,1.88892 -8.04058,2.50864 -0.13944,3.05172 -2.01211,10.99747 -4.11575,17.46319 -1.2895,3.96331 -2.16333,7.32361 -1.94189,7.46734 0.65931,0.42791 15.05258,12.56005 17.33881,14.61497 1.16091,1.04344 4.60958,3.86813 7.66372,6.27713 3.05414,2.409 5.57358,4.759 5.59875,5.22223 0.0364,0.67111 -6.9807,13.53261 -12.25689,22.46514 -0.78561,1.33008 -4.41992,0.34633 -20.15247,-5.45492 l -19.194,-7.07764 -9.5557,9.62042 c -5.25561,5.29122 -9.55566,9.95686 -9.55566,10.36805 0,0.4112 0.95189,2.9022 2.1153,5.53553 3.28836,7.443 11.91472,31.65767 11.43703,32.10431 -1.20633,1.12794 -22.78764,13.19311 -23.52881,13.15394 -0.47622,-0.025 -2.7795,-2.46469 -5.11841,-5.42117 -2.33892,-2.95647 -6.05917,-7.42972 -8.26731,-9.94058 -2.20814,-2.51086 -5.94391,-7.00167 -8.30175,-9.97958 -3.27869,-4.14095 -4.82383,-5.26053 -6.56958,-4.76028 -4.35072,1.24669 -18.27472,4.84917 -21.19075,5.48253 -2.83239,0.61516 -3.03408,1.25502 -6.05603,19.21308 -1.7193,10.21719 -3.38852,19.4755 -3.70936,20.57397 -0.51325,1.75717 -2.21136,1.99728 -14.12514,1.99728 -11.91722,0 -13.61066,-0.23972 -14.11616,-1.99728 z m 33.32725,-69.36555 c 30.13089,-5.71573 57.82372,-26.37717 71.0173,-52.98558 14.47828,-29.19942 15.18122,-59.24325 2.08953,-89.305 -12.82828,-29.45687 -41.86358,-51.8698 -74.58808,-57.57602 -37.09087,-6.4676 -74.31118,7.73197 -97.68735,37.26779 -31.73252,40.09405 -27.99487,99.36386 8.512,134.9792 14.27905,13.93036 32.86023,23.90038 51.33033,27.54219 10.97727,2.16439 28.14643,2.19819 39.32627,0.0775 z m 21.305,-29.83861 c -1.88314,-1.63767 -6.22623,-5.34495 -9.65134,-8.23834 -3.42511,-2.89341 -9.84489,-8.34586 -14.26622,-12.11655 -4.42136,-3.77069 -10.77592,-9.11694 -14.12128,-11.8805 l -6.0825,-5.02469 -19.04753,19.02286 -19.04756,19.02283 -7.72753,-7.78725 -7.72756,-7.78719 17.72614,-17.61592 c 9.74939,-9.68872 17.73031,-18.17536 17.7354,-18.85917 0.0103,-1.324 -5.19818,-6.31447 -13.8884,-13.30828 -5.60601,-4.51166 -9.52121,-5.29972 -15.33961,-3.08758 -2.7047,1.02833 -3.5299,0.79831 -6.00081,-1.67258 l -2.86487,-2.86486 2.78795,-2.41053 c 1.53337,-1.32581 11.40584,-10.84483 21.93881,-21.15338 10.53297,-10.30858 19.8191,-18.74287 20.63585,-18.74287 2.81022,0 4.57281,5.14355 3.15567,9.20879 -0.70675,2.02737 -1.285,4.6106 -1.285,5.74054 0,2.7138 14.79719,22.38853 17.56625,23.3565 1.67136,0.58422 4.45211,-1.52883 12.31719,-9.35991 5.58717,-5.56296 11.16395,-12.01998 12.39284,-14.34891 2.42413,-4.59401 2.93775,-12.29151 1.05491,-15.80963 -2.18853,-4.08931 -9.44058,-6.77195 -18.46247,-6.82961 l -8.31989,-0.0531 5.67717,-2.95209 c 14.81872,-7.70562 33.38028,-2.89841 48.35597,12.52356 3.06339,3.1547 4.48047,5.39969 3.70922,5.87635 -3.46986,2.1445 -0.29839,11.77691 5.23278,15.89313 2.34216,1.743 3.37461,1.89901 5.66386,0.85597 1.53978,-0.70152 3.52578,-1.27554 4.41336,-1.27554 2.03114,0 6.26792,4.46347 6.26792,6.60333 0,2.25725 -14.81884,17.36394 -17.03309,17.36394 -2.01158,0 -8.42272,-5.46819 -7.81444,-6.66511 3.93808,-7.74908 4.01617,-6.93058 -1.11833,-11.72 -8.09889,-7.55458 -9.82059,-6.92815 -26.2657,9.55653 -7.68008,7.69853 -13.96377,14.78972 -13.96377,15.75814 0,0.96844 1.23436,3.27214 2.74305,5.11939 1.5087,1.84722 7.97225,10.03516 14.3635,18.19544 6.3912,8.16031 12.47539,15.86578 13.52042,17.12331 1.045,1.2575 3.55136,4.39044 5.56969,6.96208 l 3.66964,4.67567 -3.3302,4.52838 c -2.60755,3.54573 -7.76747,7.45795 -9.48397,7.19062 -0.12722,-0.0195 -1.77238,-1.376 -3.65552,-3.0137 z M 156.25461,203.32067 c -1.76086,-1.94575 -1.92011,-3.52764 -1.21147,-12.03482 0.69254,-8.31383 1.06274,-9.58975 2.44871,-8.4395 1.98177,1.64473 1.87318,1.79331 3.83506,-5.24729 1.84764,-6.63063 2.07532,-11.44096 0.72385,-15.29296 l -0.96087,-2.73865 12.97071,0.78451 c 20.00807,1.21014 27.23693,4.47771 27.23693,12.31148 0,3.23406 -2.14565,8.96892 -3.32176,8.87835 -0.37003,-0.0285 -1.95674,-2.72481 -3.52602,-5.99181 -3.34476,-6.96326 -6.84781,-8.61387 -6.84781,-3.22664 0,1.89828 -0.55613,6.04462 -1.23586,9.21408 -1.08644,5.06589 -1.58261,5.76266 -4.10369,5.76266 -1.5773,0 -4.389,-1.08318 -6.24827,-2.40709 -1.85926,-1.32392 -3.6102,-2.17739 -3.89099,-1.8966 -0.28077,0.28078 -0.63639,3.50344 -0.79025,7.16148 -0.19002,4.5161 0.17814,6.80396 1.14688,7.12754 2.49741,0.8343 1.5341,2.56896 -1.42665,2.56896 -3.3425,0 -3.54662,0.76604 -0.9644,3.61935 1.80994,1.99998 1.60279,2.08714 -4.95895,2.08714 -5.35515,0 -7.28969,-0.4883 -8.87515,-2.24019 z"
     style="fill:#000000;fill-opacity:1;stroke-width:1.1413" />
</svg>
