<?xml version="1.0" encoding="UTF-8" standalone="no"?>
<svg
   xmlns:dc="http://purl.org/dc/elements/1.1/"
   xmlns:cc="http://creativecommons.org/ns#"
   xmlns:rdf="http://www.w3.org/1999/02/22-rdf-syntax-ns#"
   xmlns:svg="http://www.w3.org/2000/svg"
   xmlns="http://www.w3.org/2000/svg"
   xmlns:sodipodi="http://sodipodi.sourceforge.net/DTD/sodipodi-0.dtd"
   xmlns:inkscape="http://www.inkscape.org/namespaces/inkscape"
   sodipodi:docname="BHL_flag.svg"
   inkscape:version="1.0 (4035a4fb49, 2020-05-01)"
   id="svg853"
   version="1.1"
   viewBox="0 0 338.66666 225.68959"
   height="853"
   width="1280">
  <defs
     id="defs847">
    <rect
       x="37.041668"
       y="173.86905"
       width="303.89285"
       height="32.505951"
       id="rect879" />
    <rect
       x="37.041668"
       y="173.86905"
       width="303.89285"
       height="32.505951"
       id="rect1434" />
  </defs>
  <sodipodi:namedview
     inkscape:window-maximized="1"
     inkscape:window-y="-8"
     inkscape:window-x="-8"
     inkscape:window-height="1017"
     inkscape:window-width="1920"
     units="px"
     showgrid="false"
     inkscape:document-rotation="0"
     inkscape:current-layer="layer1"
     inkscape:document-units="mm"
     inkscape:cy="560"
     inkscape:cx="400"
     inkscape:zoom="0.35"
     inkscape:pageshadow="2"
     inkscape:pageopacity="0.0"
     borderopacity="1.0"
     bordercolor="#666666"
     pagecolor="#ffffff"
     id="base" />
  <metadata
     id="metadata850">
    <rdf:RDF>
      <cc:Work
         rdf:about="">
        <dc:format>image/svg+xml</dc:format>
        <dc:type
           rdf:resource="http://purl.org/dc/dcmitype/StillImage" />
        <dc:title />
      </cc:Work>
    </rdf:RDF>
  </metadata>
  <g
     id="layer1"
     inkscape:groupmode="layer"
     inkscape:label="Layer 1"
     style="opacity:0.999">
    <rect
       style="fill:#fff700;fill-opacity:1;stroke:none;stroke-width:2.265"
       id="rect859"
       width="343.95834"
       height="232.07739"
       x="-2.6458378"
       y="-1.1339329" />
    <g
       style="font-size:25.4px;line-height:1.25;font-family:sans-serif;letter-spacing:0px;word-spacing:0px;white-space:pre;shape-inside:url(#rect879)"
       id="text877"
       transform="translate(-6.7980847,3.8956801)"
       aria-label="DONT TREAD ON ME">
      <path
         id="path839"
         style="font-style:normal;font-variant:normal;font-weight:800;font-stretch:normal;font-size:25.4px;font-family:Montserrat;-inkscape-font-specification:'Montserrat Ultra-Bold'"
         d="m 38.819016,179.43412 h 8.407399 q 2.921,0 5.1816,1.0922 2.2606,1.0922 3.5052,3.0988 1.2446,2.0066 1.2446,4.699 0,2.6924 -1.2446,4.699 -1.2446,2.0066 -3.5052,3.0988 -2.2606,1.0922 -5.1816,1.0922 h -8.407399 z m 8.204199,13.7668 q 2.286,0 3.6576,-1.2954 1.397,-1.2954 1.397,-3.5814 0,-2.286 -1.397,-3.5814 -1.3716,-1.2954 -3.6576,-1.2954 h -3.174999 v 9.7536 z" />
      <path
         id="path841"
         style="font-style:normal;font-variant:normal;font-weight:800;font-stretch:normal;font-size:25.4px;font-family:Montserrat;-inkscape-font-specification:'Montserrat Ultra-Bold'"
         d="m 68.769981,197.56972 q -2.819399,0 -5.079999,-1.1938 -2.2352,-1.1938 -3.5306,-3.302 -1.27,-2.1082 -1.27,-4.7498 0,-2.6416 1.27,-4.7498 1.2954,-2.1082 3.5306,-3.302 2.2606,-1.1938 5.079999,-1.1938 2.8194,0 5.0546,1.1938 2.2606,1.1938 3.5306,3.302 1.2954,2.1082 1.2954,4.7498 0,2.6416 -1.2954,4.7498 -1.27,2.1082 -3.5306,3.302 -2.2352,1.1938 -5.0546,1.1938 z m 0,-4.1656 q 1.3462,0 2.4384,-0.635 1.0922,-0.635 1.7272,-1.778 0.635,-1.1684 0.635,-2.667 0,-1.4986 -0.635,-2.6416 -0.635,-1.1684 -1.7272,-1.8034 -1.0922,-0.635 -2.4384,-0.635 -1.3462,0 -2.438399,0.635 -1.0922,0.635 -1.7272,1.8034 -0.635,1.143 -0.635,2.6416 0,1.4986 0.635,2.667 0.635,1.143 1.7272,1.778 1.092199,0.635 2.438399,0.635 z" />
      <path
         id="path843"
         style="font-style:normal;font-variant:normal;font-weight:800;font-stretch:normal;font-size:25.4px;font-family:Montserrat;-inkscape-font-specification:'Montserrat Ultra-Bold'"
         d="m 98.201041,179.43412 v 17.78 h -4.1402 l -7.8486,-9.4742 v 9.4742 h -4.9276 v -17.78 h 4.1402 l 7.8486,9.4742 v -9.4742 z" />
      <path
         id="path845"
         style="font-style:normal;font-variant:normal;font-weight:800;font-stretch:normal;font-size:25.4px;font-family:Montserrat;-inkscape-font-specification:'Montserrat Ultra-Bold'"
         d="m 105.55792,183.42192 h -5.461 v -3.9878 h 15.9258 v 3.9878 h -5.4356 v 13.7922 h -5.0292 z" />
      <path
         id="path847"
         style="font-style:normal;font-variant:normal;font-weight:800;font-stretch:normal;font-size:25.4px;font-family:Montserrat;-inkscape-font-specification:'Montserrat Ultra-Bold'"
         d="m 129.07275,183.42192 h -5.461 v -3.9878 h 15.9258 v 3.9878 h -5.4356 v 13.7922 h -5.0292 z" />
      <path
         id="path849"
         style="font-style:normal;font-variant:normal;font-weight:800;font-stretch:normal;font-size:25.4px;font-family:Montserrat;-inkscape-font-specification:'Montserrat Ultra-Bold'"
         d="m 149.1836,192.48972 h -2.7432 v 4.7244 h -5.0292 v -17.78 h 8.128 q 2.413,0 4.191,0.8128 1.778,0.7874 2.7432,2.286 0.9652,1.4732 0.9652,3.4798 0,1.9304 -0.9144,3.3782 -0.889,1.4224 -2.5654,2.2352 l 3.8354,5.588 h -5.3848 z m 3.175,-6.477 q 0,-1.2446 -0.7874,-1.9304 -0.7874,-0.6858 -2.3368,-0.6858 h -2.794 v 5.207 h 2.794 q 1.5494,0 2.3368,-0.6604 0.7874,-0.6858 0.7874,-1.9304 z" />
      <path
         id="path851"
         style="font-style:normal;font-variant:normal;font-weight:800;font-stretch:normal;font-size:25.4px;font-family:Montserrat;-inkscape-font-specification:'Montserrat Ultra-Bold'"
         d="m 174.48796,193.32792 v 3.8862 h -14.2748 v -17.78 h 13.9446 v 3.8862 h -8.9662 v 2.9972 h 7.8994 v 3.7592 h -7.8994 v 3.2512 z" />
      <path
         id="path853"
         style="font-style:normal;font-variant:normal;font-weight:800;font-stretch:normal;font-size:25.4px;font-family:Montserrat;-inkscape-font-specification:'Montserrat Ultra-Bold'"
         d="m 189.19138,193.75972 h -7.5184 l -1.397,3.4544 h -5.1308 l 7.8486,-17.78 h 4.953 l 7.874,17.78 h -5.2324 z m -1.4732,-3.7084 -2.286,-5.6896 -2.286,5.6896 z" />
      <path
         id="path855"
         style="font-style:normal;font-variant:normal;font-weight:800;font-stretch:normal;font-size:25.4px;font-family:Montserrat;-inkscape-font-specification:'Montserrat Ultra-Bold'"
         d="m 197.22176,179.43412 h 8.4074 q 2.921,0 5.1816,1.0922 2.2606,1.0922 3.5052,3.0988 1.2446,2.0066 1.2446,4.699 0,2.6924 -1.2446,4.699 -1.2446,2.0066 -3.5052,3.0988 -2.2606,1.0922 -5.1816,1.0922 h -8.4074 z m 8.2042,13.7668 q 2.286,0 3.6576,-1.2954 1.397,-1.2954 1.397,-3.5814 0,-2.286 -1.397,-3.5814 -1.3716,-1.2954 -3.6576,-1.2954 h -3.175 v 9.7536 z" />
      <path
         id="path857"
         style="font-style:normal;font-variant:normal;font-weight:800;font-stretch:normal;font-size:25.4px;font-family:Montserrat;-inkscape-font-specification:'Montserrat Ultra-Bold'"
         d="m 234.56451,197.56972 q -2.8194,0 -5.08,-1.1938 -2.2352,-1.1938 -3.5306,-3.302 -1.27,-2.1082 -1.27,-4.7498 0,-2.6416 1.27,-4.7498 1.2954,-2.1082 3.5306,-3.302 2.2606,-1.1938 5.08,-1.1938 2.8194,0 5.0546,1.1938 2.2606,1.1938 3.5306,3.302 1.2954,2.1082 1.2954,4.7498 0,2.6416 -1.2954,4.7498 -1.27,2.1082 -3.5306,3.302 -2.2352,1.1938 -5.0546,1.1938 z m 0,-4.1656 q 1.3462,0 2.4384,-0.635 1.0922,-0.635 1.7272,-1.778 0.635,-1.1684 0.635,-2.667 0,-1.4986 -0.635,-2.6416 -0.635,-1.1684 -1.7272,-1.8034 -1.0922,-0.635 -2.4384,-0.635 -1.3462,0 -2.4384,0.635 -1.0922,0.635 -1.7272,1.8034 -0.635,1.143 -0.635,2.6416 0,1.4986 0.635,2.667 0.635,1.143 1.7272,1.778 1.0922,0.635 2.4384,0.635 z" />
      <path
         id="path859"
         style="font-style:normal;font-variant:normal;font-weight:800;font-stretch:normal;font-size:25.4px;font-family:Montserrat;-inkscape-font-specification:'Montserrat Ultra-Bold'"
         d="m 263.99558,179.43412 v 17.78 h -4.1402 l -7.8486,-9.4742 v 9.4742 h -4.9276 v -17.78 h 4.1402 l 7.8486,9.4742 v -9.4742 z" />
      <path
         id="path861"
         style="font-style:normal;font-variant:normal;font-weight:800;font-stretch:normal;font-size:25.4px;font-family:Montserrat;-inkscape-font-specification:'Montserrat Ultra-Bold'"
         d="m 291.01244,197.21412 -0.0508,-9.4234 -4.572,7.6708 h -2.2352 l -4.5466,-7.4168 v 9.1694 h -4.6482 v -17.78 h 4.1402 l 6.2484,10.2616 6.096,-10.2616 h 4.1402 l 0.0508,17.78 z" />
      <path
         id="path863"
         style="font-style:normal;font-variant:normal;font-weight:800;font-stretch:normal;font-size:25.4px;font-family:Montserrat;-inkscape-font-specification:'Montserrat Ultra-Bold'"
         d="m 313.44382,193.32792 v 3.8862 h -14.2748 v -17.78 h 13.9446 v 3.8862 h -8.9662 v 2.9972 h 7.8994 v 3.7592 h -7.8994 v 3.2512 z" />
    </g>
    <path
       sodipodi:nodetypes="sssccccssccccsscsssssccccc"
       inkscape:connector-curvature="0"
       id="path3725"
       d="m 184.11486,165.40626 c -2.99873,-3.75819 -3.13425,-3.80544 -4.66138,-1.62516 -1.59464,2.27668 -5.95255,2.56045 -6.57589,0.42819 -0.1809,-0.61939 5.35368,-8.01799 12.29953,-16.44135 25.83945,-25.72121 29.77729,-27.11508 55.38908,-59.292864 1.62898,8.327497 2.15116,16.626644 2.65115,25.057034 l -0.36519,9.00929 -4.03796,0.33838 c -2.66261,0.22303 -4.54881,-0.27709 -5.53785,-1.46882 -1.33501,-1.60861 -1.66496,-1.41486 -3.00055,1.76157 -1.63512,4.34169 -2.17986,8.73067 -3.23351,13.24134 l -1.73286,5.8352 c -3.4198,-0.11662 -7.39417,-0.81773 -10.31548,-2.40795 -2.27965,-1.68445 -4.48913,0.45565 -6.5947,5.50491 -9.61778,23.06334 -17.01353,29.17256 -24.28447,20.06014 z M 95.45368,67.922696 c -0.23125,-11.16522 8.75972,-24.47134 19.81861,-29.33039 7.92757,-3.483181 19.46008,-3.565711 27.07111,-0.19366 6.42409,2.84613 16.87938,12.45787 20.76684,19.09126 1.54778,2.64111 2.97118,4.801969 3.1632,4.801969 0.19196,0 1.61541,-2.160859 3.16318,-4.801969 3.88746,-6.63339 14.34275,-16.24513 20.76682,-19.09126 11.782,-4.191661 24.0094,-5.249401 33.68165,1.730079 6.37576,4.816271 15.3184,13.891111 15.42055,23.425292 4.09409,27.625659 -59.55383,71.570863 -72.32638,96.705293 C 148.58766,133.03684 96.13757,98.666893 95.45368,67.922696 Z"
       style="fill:#000000;stroke-width:1.12616" />
  </g>
</svg>
