<?xml version="1.0" encoding="UTF-8" standalone="no"?>
<!-- Created with Inkscape (http://www.inkscape.org/) -->

<svg
   xmlns:dc="http://purl.org/dc/elements/1.1/"
   xmlns:cc="http://creativecommons.org/ns#"
   xmlns:rdf="http://www.w3.org/1999/02/22-rdf-syntax-ns#"
   xmlns:svg="http://www.w3.org/2000/svg"
   xmlns="http://www.w3.org/2000/svg"
   xmlns:sodipodi="http://sodipodi.sourceforge.net/DTD/sodipodi-0.dtd"
   xmlns:inkscape="http://www.inkscape.org/namespaces/inkscape"
   version="1.1"
   width="3000"
   height="2000"
   id="svg2"
   inkscape:version="0.47 r22583"
   sodipodi:docname="M-26-7.svg">
  <metadata
     id="metadata11">
    <rdf:RDF>
      <cc:Work
         rdf:about="">
        <dc:format>image/svg+xml</dc:format>
        <dc:type
           rdf:resource="http://purl.org/dc/dcmitype/StillImage" />
      </cc:Work>
    </rdf:RDF>
  </metadata>
  <sodipodi:namedview
     pagecolor="#ffffff"
     bordercolor="#666666"
     borderopacity="1"
     objecttolerance="10"
     gridtolerance="10"
     guidetolerance="10"
     inkscape:pageopacity="0"
     inkscape:pageshadow="2"
     inkscape:window-width="1280"
     inkscape:window-height="725"
     id="namedview9"
     showgrid="false"
     inkscape:zoom="0.126"
     inkscape:cx="1500"
     inkscape:cy="1000"
     inkscape:window-x="0"
     inkscape:window-y="24"
     inkscape:window-maximized="1"
     inkscape:current-layer="svg2" />
  <defs
     id="defs4">
    <inkscape:perspective
       sodipodi:type="inkscape:persp3d"
       inkscape:vp_x="0 : 1000 : 1"
       inkscape:vp_y="0 : 1000 : 0"
       inkscape:vp_z="3000 : 1000 : 1"
       inkscape:persp3d-origin="1500 : 666.66667 : 1"
       id="perspective13" />
  </defs>
  <rect
     width="3000"
     height="2000"
     x="0"
     y="0"
     id="rect1308"
     style="fill:#000000;fill-opacity:1;stroke:none" />
  <rect
     width="3000"
     height="1000.0001"
     x="0"
     y="0"
     id="rect1312"
     style="fill:#cb1515;fill-opacity:1;stroke:none" />
  <path
     d="m 386.25599,772.3123 185.13218,0 71.44363,277.0771 71.133,-277.0771 184.51103,0 0,455.3755 -114.93115,0 0,-347.2782 -89.14922,347.2782 -104.0592,0 -88.83859,-347.2782 0,347.2782 -115.24168,0 0,-455.3755 m 569.06405,240.4234 183.88966,0 0,97.8467 -183.88966,0 0,-97.8467 m 594.84606,214.9521 -379.5832,0 c 4.3486,-37.482 17.4984,-72.686 39.4492,-105.6123 22.1578,-33.1332 63.5744,-72.1682 124.2498,-117.1055 37.0677,-27.54172 60.7786,-48.45709 71.133,-62.74608 10.3539,-14.28842 15.531,-27.85242 15.5313,-40.69185 -3e-4,-13.87422 -5.1774,-25.67795 -15.5313,-35.4112 -10.1473,-9.93962 -22.9864,-14.9096 -38.5173,-14.90997 -16.1527,3.7e-4 -29.4061,5.07391 -39.76,15.22061 -10.1473,10.14741 -16.981,28.06006 -20.5013,53.73804 l -126.7347,-10.25062 c 4.9699,-35.61793 14.0816,-63.36701 27.3349,-83.24735 13.2532,-20.08664 31.8907,-35.41077 55.9125,-45.97243 24.2285,-10.76784 57.6723,-16.152 100.3316,-16.15246 44.5227,4.6e-4 79.1055,5.07399 103.7486,15.22059 24.8497,10.14751 44.3154,25.78224 58.3973,46.9043 14.2885,20.91576 21.4328,44.41966 21.4333,70.51174 -5e-4,27.74947 -8.1803,54.25597 -24.5395,79.51996 -16.1527,25.26432 -45.6621,53.01342 -88.5278,83.24732 -25.4716,17.6022 -42.556,29.9237 -51.2532,36.9643 -8.4905,7.041 -18.5342,16.2562 -30.1305,27.6456 l 197.5573,0 0,103.1273 m 420.8959,-352.86943 -125.8029,15.53122 c -3.3135,-17.60171 -8.9047,-30.02667 -16.7737,-37.27494 -7.6622,-7.24753 -17.1881,-10.87146 -28.5774,-10.87185 -20.5015,3.9e-4 -36.4469,10.35452 -47.8361,31.06245 -8.2835,14.9103 -14.3926,46.80106 -18.3269,95.67238 15.1169,-15.32389 30.6481,-26.60982 46.5936,-33.85806 15.9453,-7.45472 34.3755,-11.18224 55.2911,-11.18252 40.5881,2.8e-4 74.8603,14.49604 102.8169,43.48752 28.1628,28.99176 42.2444,65.74903 42.2449,110.27163 -5e-4,30.0273 -7.1448,57.4656 -21.4332,82.3154 -14.082,24.85 -33.7548,43.6946 -59.0187,56.5337 -25.0572,12.6321 -56.5339,18.9481 -94.4298,18.9481 -45.5584,0 -82.1085,-7.7656 -109.6503,-23.2969 -27.5422,-15.5312 -49.5965,-40.2776 -66.1631,-74.2391 -16.3595,-34.1687 -24.5393,-79.3126 -24.5392,-135.4323 -10e-5,-82.21175 17.2912,-142.36925 51.8742,-180.47289 34.5827,-38.30991 82.5225,-57.46506 143.8192,-57.46552 36.2392,4.6e-4 64.8165,4.24564 85.7323,12.73559 21.1221,8.28376 38.6206,20.50166 52.4954,36.65368 13.8743,16.15289 24.4355,36.447 31.6837,60.88241 m -232.9683,202.83783 c -10e-5,24.643 6.2124,44.0052 18.6374,58.0868 12.425,13.8745 27.6454,20.8119 45.6619,20.8118 16.5663,1e-4 30.441,-6.316 41.6237,-18.9481 11.1823,-12.6319 16.7735,-31.4765 16.7737,-56.5337 -2e-4,-25.6781 -5.7987,-45.2473 -17.3949,-58.708 -11.597,-13.4601 -25.9891,-20.1904 -43.1769,-20.1905 -17.6023,1e-4 -32.4086,6.5233 -44.4193,19.5692 -11.8039,13.0464 -17.7057,31.684 -17.7056,55.9125 m 279.562,-64.9205 183.8897,0 0,97.8467 -183.8897,0 0,-97.8467 m 226.7558,-240.4234 369.3327,0 0,85.42173 c -32.0984,28.99195 -58.9156,60.36497 -80.4519,94.11925 -26.0927,41.00259 -46.6975,86.66432 -61.8142,136.98542 -12.0111,39.1387 -20.0873,85.4218 -24.2287,138.8491 l -126.1136,0 c 9.9399,-74.3427 25.5747,-136.6746 46.9043,-186.996 21.3293,-50.32084 55.0839,-104.16232 101.2636,-161.52469 l -224.8922,0 0,-106.85481"
     id="text2767"
     style="font-size:64px;font-style:normal;font-variant:normal;font-weight:normal;font-stretch:normal;text-align:start;line-height:125%;writing-mode:lr-tb;text-anchor:start;fill:#ffffff;fill-opacity:1;stroke:none;font-family:Arial Black" />
</svg>
