<?xml version="1.0" encoding="UTF-8" standalone="no"?>
<svg
   xmlns:dc="http://purl.org/dc/elements/1.1/"
   xmlns:cc="http://creativecommons.org/ns#"
   xmlns:rdf="http://www.w3.org/1999/02/22-rdf-syntax-ns#"
   xmlns:svg="http://www.w3.org/2000/svg"
   xmlns="http://www.w3.org/2000/svg"
   xmlns:sodipodi="http://sodipodi.sourceforge.net/DTD/sodipodi-0.dtd"
   xmlns:inkscape="http://www.inkscape.org/namespaces/inkscape"
   width="1280"
   height="853"
   viewBox="0 0 338.66666 225.68959"
   version="1.1"
   id="svg853"
   inkscape:version="1.0 (4035a4fb49, 2020-05-01)"
   sodipodi:docname="Councom_flag.svg">
  <defs
     id="defs847" />
  <sodipodi:namedview
     id="base"
     pagecolor="#ffffff"
     bordercolor="#666666"
     borderopacity="1.0"
     inkscape:pageopacity="0.0"
     inkscape:pageshadow="2"
     inkscape:zoom="0.7"
     inkscape:cx="726.93922"
     inkscape:cy="298.35859"
     inkscape:document-units="mm"
     inkscape:current-layer="layer1"
     inkscape:document-rotation="0"
     showgrid="false"
     units="px"
     inkscape:window-width="1920"
     inkscape:window-height="1017"
     inkscape:window-x="-8"
     inkscape:window-y="-8"
     inkscape:window-maximized="1" />
  <metadata
     id="metadata850">
    <rdf:RDF>
      <cc:Work
         rdf:about="">
        <dc:format>image/svg+xml</dc:format>
        <dc:type
           rdf:resource="http://purl.org/dc/dcmitype/StillImage" />
        <dc:title></dc:title>
      </cc:Work>
    </rdf:RDF>
  </metadata>
  <g
     inkscape:label="Layer 1"
     inkscape:groupmode="layer"
     id="layer1">
    <rect
       y="-3.9498479"
       x="-4.913691"
       height="233.58928"
       width="348.49405"
       id="rect1414"
       style="fill:#d40000;stroke:#ffffff;stroke-width:1;stroke-linecap:square;paint-order:stroke markers fill;fill-opacity:1" />
    <path
       style="fill:#000000;stroke-width:0.267369"
       d="m 160.63603,204.97593 c -17.94115,-1.79533 -35.07896,-8.7524 -49.0621,-19.91671 -3.79315,-3.0285 -11.41051,-10.64937 -14.40916,-14.41581 C 86.475246,157.21689 79.944486,141.81417 77.609435,124.52236 76.952543,119.6579 76.805924,109.72642 77.313175,104.45511 78.730371,89.727761 83.211907,76.421698 90.989982,63.847507 96.54905,54.860614 105.02066,45.61334 113.71287,39.044109 127.3335,28.750177 144.29295,22.247163 161.30445,20.795371 c 4.13312,-0.352728 12.2444,-0.354071 16.1758,-0.0027 7.10335,0.634907 15.12736,2.339964 21.79052,4.63037 10.04164,3.451727 18.3104,7.953115 27.13789,14.773457 3.82073,2.951993 11.96711,11.023639 15.08208,14.943732 11.5388,14.52119 18.41878,31.786555 19.96246,50.09587 0.39807,4.72128 0.19008,14.3409 -0.41071,18.99563 -2.23848,17.34356 -8.81441,32.86725 -19.77349,46.67902 -2.51845,3.17402 -8.41549,9.2537 -11.78561,12.15064 -13.65908,11.74128 -29.80161,18.93083 -48.39367,21.55354 -3.55513,0.5015 -16.72637,0.73396 -20.45369,0.36097 z m 20.05264,-17.85171 c 11.32028,-1.845 20.8053,-5.52272 30.07894,-11.66279 16.05203,-10.62804 27.62925,-27.43332 31.77665,-46.12644 1.39879,-6.30456 1.63905,-8.7149 1.63905,-16.44316 0,-5.61195 -0.1065,-7.9034 -0.47843,-10.29368 C 242.31561,93.669661 240.2063,86.953335 236.39959,79.337094 224.79346,56.116237 202.55922,40.807756 176.582,38.152122 172.45467,37.730188 162.3037,37.956481 158.49708,38.555284 144.56556,40.746801 132.4713,46.103436 121.8252,54.79753 108.48271,65.693609 99.17401,81.117822 95.80073,97.9192 c -1.171215,5.83348 -1.338559,7.72838 -1.334093,15.10632 0.0046,7.58046 0.254254,10.0632 1.640103,16.30947 2.49097,11.22722 7.86603,22.23478 15.23654,31.2028 12.54118,15.25942 30.26461,24.80402 50.27658,27.07544 3.73558,0.424 15.284,0.12784 19.06881,-0.48901 z m -11.49685,-13.48267 v -8.63238 l 3.94369,-0.32341 c 6.96198,-0.57093 12.78802,-2.14523 18.96906,-5.12579 l 3.26117,-1.57257 4.16189,7.20771 c 2.28903,3.96424 4.19035,7.34325 4.22514,7.50891 0.0819,0.39011 -5.51776,3.23382 -9.29463,4.72012 -6.03307,2.37418 -13.0749,4.00214 -19.73299,4.56195 -1.88293,0.15831 -3.89822,0.28784 -4.47842,0.28784 h -1.05491 z m -37.96827,-2.98877 c -1.83708,-1.23223 -4.36283,-3.06153 -5.61278,-4.06511 -2.91242,-2.33836 -7.64275,-7.06869 -9.98111,-9.98111 -2.37677,-2.96025 -6.35893,-8.90338 -6.11642,-9.12839 0.366,-0.33961 14.79,-8.57727 14.8507,-8.48136 2.87819,4.54878 4.49417,6.66871 7.39129,9.6963 2.89065,3.02082 6.17971,5.7696 9.14927,7.64635 1.2795,0.80865 2.33226,1.53286 2.33948,1.60937 0.0155,0.16496 -8.22648,14.48008 -8.49544,14.75526 -0.10166,0.10402 -1.6879,-0.81907 -3.52499,-2.05131 z m 34.8325,-11.6589 c -3.56461,-0.27406 -7.63309,-1.0948 -11.22391,-2.26422 -2.96476,-0.96553 -8.53318,-3.56426 -8.45836,-3.94744 0.0231,-0.11818 1.93978,-3.5081 4.25934,-7.53318 l 4.21738,-7.31832 1.2832,0.65024 c 3.31995,1.68235 7.17709,2.76301 10.76345,3.01562 l 2.42836,0.17105 0.0705,8.7563 c 0.0558,6.93027 3e-5,8.74838 -0.26737,8.71826 -0.18583,-0.0209 -1.56849,-0.13267 -3.07259,-0.24831 z m 22.11893,-13.37045 c -2.27931,-3.97121 -4.17065,-7.36572 -4.20298,-7.54335 -0.0323,-0.17764 0.62931,-0.74409 1.47029,-1.25877 1.96573,-1.20303 6.60299,-5.83745 7.81269,-7.80791 0.51469,-0.83836 1.03078,-1.53007 1.14686,-1.53714 0.25531,-0.0155 14.09143,7.94978 14.5498,8.37618 0.74084,0.68916 -4.99017,8.05064 -9.01245,11.5765 -1.90493,1.66982 -7.14979,5.45744 -7.51173,5.42466 -0.0596,-0.005 -1.97316,-3.25897 -4.25248,-7.23017 z m 33.68841,-2.37932 c -4.04394,-2.34086 -7.34576,-4.35259 -7.33737,-4.47051 0.008,-0.11791 0.6949,-1.59803 1.52555,-3.28913 2.84193,-5.78577 4.47476,-11.8541 5.05391,-18.78264 l 0.32965,-3.94368 h 8.66546 8.66546 l -0.17702,3.00789 c -0.50386,8.56159 -2.24859,16.40209 -5.26015,23.63812 -1.15604,2.7777 -3.18013,6.89223 -3.75646,7.63608 -0.326,0.42075 -0.98342,0.097 -7.70903,-3.79613 z m -93.18834,-8.51291 c -2.82568,-5.02184 -4.98247,-12.35728 -5.35091,-18.19888 -0.0799,-1.26701 -0.19701,-2.63615 -0.26022,-3.04255 l -0.11492,-0.73891 8.75035,0.0705 8.75037,0.0705 0.17104,2.42835 c 0.25268,3.58731 1.33323,7.44341 3.01673,10.76563 l 0.65135,1.28539 -1.65219,0.95362 c -0.90871,0.52449 -4.26331,2.46219 -7.45466,4.306 l -5.80247,3.35238 z m 35.97151,0.76743 c -4.47878,-0.95178 -8.40379,-3.07921 -11.62622,-6.30163 -9.07837,-9.07838 -9.02421,-23.72099 0.1211,-32.740168 9.08726,-8.961925 23.64371,-8.849942 32.61907,0.250939 7.53246,7.637799 8.7975,19.328229 3.08358,28.495839 -5.02689,8.06531 -14.90772,12.26918 -24.19753,10.29502 z m -0.50498,-10.27407 c 2.73684,-1.56263 5.083,-2.84005 5.21368,-2.83871 0.13069,10e-4 2.52362,1.31977 5.31762,2.92985 2.794,1.61007 5.11474,2.82823 5.1572,2.70701 0.0425,-0.12122 -0.46888,-2.78368 -1.13631,-5.91659 -0.66744,-3.1329 -1.21352,-5.71925 -1.21352,-5.74743 0,-0.0282 2.04536,-1.89258 4.54525,-4.14309 2.4999,-2.25052 4.51519,-4.12045 4.47843,-4.15541 -0.0368,-0.035 -2.65363,-0.32167 -5.81526,-0.63715 -3.16163,-0.31548 -5.90613,-0.65786 -6.09888,-0.76083 -0.19274,-0.10297 -1.40928,-2.57088 -2.70341,-5.48424 -1.29413,-2.913371 -2.44652,-5.297028 -2.56087,-5.297028 -0.11436,0 -1.25731,2.360897 -2.53989,5.246428 -1.28259,2.88554 -2.43897,5.34202 -2.56973,5.45885 -0.13076,0.11683 -2.91478,0.48778 -6.1867,0.82432 -3.27192,0.33654 -5.94895,0.63392 -5.94895,0.66084 0,0.0269 2.04537,1.8848 4.54527,4.12862 2.49989,2.24381 4.54526,4.10897 4.54526,4.1448 0,0.0358 -0.54142,2.60653 -1.20316,5.71269 -1.26352,5.93089 -1.32563,6.31025 -1.00263,6.1239 0.11029,-0.0636 2.43976,-1.39421 5.1766,-2.95683 z m -64.07157,-15.20694 c 0.67653,-10.996561 3.36556,-20.839452 8.0749,-29.557248 l 1.1986,-2.218822 1.11521,0.644911 c 0.61336,0.354698 3.88247,2.238468 7.26468,4.186148 3.38221,1.947682 6.22982,3.61847 6.32802,3.712861 0.0982,0.0944 -0.5138,1.570159 -1.36001,3.279481 -2.87079,5.798934 -4.56408,12.056579 -5.14588,19.016879 l -0.32965,3.94369 h -8.66546 -8.66546 z m 98.17585,2.82965 c -0.098,-0.098 -0.17824,-0.8695 -0.17824,-1.71437 0,-3.02235 -1.28125,-7.92039 -2.92218,-11.171031 l -0.77922,-1.54364 7.2649,-4.19384 c 3.9957,-2.306617 7.37165,-4.223634 7.5021,-4.260043 0.3038,-0.08479 2.02716,3.262574 3.24106,6.295244 1.67331,4.18043 2.88476,9.95353 3.1395,14.96119 l 0.0918,1.80474 h -8.59074 c -4.72491,0 -8.67094,-0.0802 -8.76898,-0.17825 z M 136.88057,94.182063 c -3.87471,-2.252972 -7.14755,-4.198932 -7.27298,-4.324355 -0.1258,-0.125807 0.51536,-1.330862 1.4302,-2.68801 3.43242,-5.091933 7.52034,-9.179508 12.5637,-12.562639 1.43938,-0.965544 2.65162,-1.709989 2.69387,-1.654326 0.39387,0.518816 8.45541,14.707907 8.44572,14.865262 -0.007,0.114716 -0.69877,0.62968 -1.53713,1.144363 -1.96503,1.206373 -6.60154,5.842881 -7.80792,7.807915 -0.51468,0.838356 -1.0561,1.520646 -1.20316,1.516196 -0.14705,-0.004 -3.43758,-1.851434 -7.3123,-4.104406 z M 182.8222,87.33869 c -3.14874,-1.684653 -7.35085,-2.877564 -11.09038,-3.148381 l -2.40631,-0.174268 -0.0705,-8.731289 -0.0705,-8.73129 1.67467,0.118084 c 6.12638,0.43198 10.78442,1.423323 15.48492,3.295568 2.97991,1.186918 5.91154,2.698808 5.89943,3.042425 -0.007,0.185036 -7.48082,13.29826 -8.20046,14.38724 -0.26778,0.405212 -0.36351,0.400658 -1.22094,-0.05809 z m 30.53939,-1.986188 c -3.54602,-5.865199 -9.79842,-12.227528 -15.65833,-15.933639 -1.58881,-1.004848 -2.24262,-1.567075 -2.14666,-1.84598 0.37901,-1.101561 8.28507,-14.437894 8.55909,-14.437894 0.50437,0 5.874,3.614949 8.65718,5.828194 3.08453,2.452888 8.04565,7.394953 10.52169,10.481281 2.43183,3.031228 6.1206,8.599508 5.86129,8.847751 -0.25482,0.243951 -14.15738,8.250941 -14.59682,8.406844 -0.1736,0.06159 -0.71245,-0.544361 -1.19744,-1.346557 z m -74.23043,-24.75049 c -2.29332,-3.971642 -4.19813,-7.351202 -4.23292,-7.510132 -0.09,-0.411152 5.46058,-3.19696 9.562,-4.799118 4.17722,-1.631759 8.75742,-2.915628 13.10106,-3.672326 3.19168,-0.556017 8.53268,-1.102569 10.82842,-1.10808 l 1.20316,-0.0029 -0.074,8.689603 -0.074,8.689605 -1.26285,2.65e-4 c -2.42464,5.29e-4 -8.4339,0.837882 -11.38732,1.586574 -3.69449,0.936553 -7.5349,2.363417 -10.90891,4.053083 l -2.58497,1.294524 -4.16967,-7.221164 z"
       id="path837" />
  </g>
</svg>
