<?xml version="1.0" encoding="UTF-8" standalone="no"?>
<svg
   xmlns:dc="http://purl.org/dc/elements/1.1/"
   xmlns:cc="http://creativecommons.org/ns#"
   xmlns:rdf="http://www.w3.org/1999/02/22-rdf-syntax-ns#"
   xmlns:svg="http://www.w3.org/2000/svg"
   xmlns="http://www.w3.org/2000/svg"
   xmlns:sodipodi="http://sodipodi.sourceforge.net/DTD/sodipodi-0.dtd"
   xmlns:inkscape="http://www.inkscape.org/namespaces/inkscape"
   inkscape:version="1.0 (4035a4fb49, 2020-05-01)"
   sodipodi:docname="Demsoc_flag.svg"
   id="svg14"
   version="1.1"
   viewBox="24 20 1280 853"
   height="853"
   width="1280">
  <metadata
     id="metadata20">
    <rdf:RDF>
      <cc:Work
         rdf:about="">
        <dc:format>image/svg+xml</dc:format>
        <dc:type
           rdf:resource="http://purl.org/dc/dcmitype/StillImage" />
        <dc:title></dc:title>
      </cc:Work>
    </rdf:RDF>
  </metadata>
  <defs
     id="defs18" />
  <sodipodi:namedview
     inkscape:current-layer="svg14"
     inkscape:window-maximized="1"
     inkscape:window-y="-8"
     inkscape:window-x="-8"
     inkscape:cy="412.10386"
     inkscape:cx="830.83858"
     inkscape:zoom="0.62608413"
     fit-margin-bottom="0"
     fit-margin-right="0"
     fit-margin-left="0"
     fit-margin-top="0"
     showgrid="false"
     id="namedview16"
     inkscape:window-height="1017"
     inkscape:window-width="1920"
     inkscape:pageshadow="2"
     inkscape:pageopacity="0"
     guidetolerance="10"
     gridtolerance="10"
     objecttolerance="10"
     borderopacity="1"
     bordercolor="#666666"
     pagecolor="#ffffff" />
  <path
     style="stroke-width:4.26584"
     id="path2"
     fill="#ff1d10"
     d="M 24,20 H 1304 V 873 H 24 Z" />
  <g
     transform="matrix(4.4282138,0,0,4.4282138,4.1983443,-264.82834)"
     id="g12"
     fill-rule="evenodd">
    <path
       id="path4"
       fill="#211c1c"
       d="m 212.252,202.034 c -2.053,0.05 -20.166,0.5 -23.895,1.41 -2.645,0.65 -7.457,-0.5 -9.09,-0.997 -0.832,-0.26 -1.722,0.203 -1.98,1.028 -0.26,0.823 0.206,1.698 1.042,1.954 0.217,0.065 4.383,1.326 8.116,1.326 0.944,0 1.858,-0.08 2.676,-0.282 2.868,-0.7 17.724,-1.188 23.208,-1.316 0.873,-0.022 1.567,-0.737 1.545,-1.6 -0.02,-0.863 -0.755,-1.536 -1.623,-1.524" />
    <path
       id="path6"
       fill="#ec1d27"
       d="m 209.437,150.174 -58.19,2.565 m 9.766,-0.867 8.094,-17.132 m 0,17.21 13.58,-16.824 m 0,16.226 9.402,-13.422 m 1.501,12.943 5.303,-9.485 m -5.303,9.485 6.488,8.593 m -17.391,-8.114 8.52,13.704 m -22.1,-13.106 6.186,10.894 m -14.28,-10.972 3.965,12.4 M 95.422,152.74 h 51.094 m -11.353,0 -6.18,-16.28 m -4.465,16.28 -3.55,-16.493 m -6.622,16.493 -8.186,-10.454 m 8.186,10.454 -8.186,11.743 m 18.358,-11.743 -9.03,13.615 m 19.675,-13.615 -6.954,11.743 m 35.339,-28.43 1.064,0.245" />
    <path
       id="path8"
       fill="#ffffff"
       d="m 200.355,157.216 -3.71,-4.914 9.298,-0.41 c -1.313,1.444 -3.192,3.337 -5.588,5.324 z m -14.912,-4.42 7.377,-0.325 5.05,6.688 c -1.812,1.332 -3.85,2.645 -6.086,3.836 l -6.34,-10.2 z m -32.61,-5.248 v -1.64 c 1.655,-1.448 7.224,-6.076 13.285,-8.54 l -6.345,13.432 -6.94,0.306 z m -3.95,-3.893 c -0.49,0 -0.957,0.1 -1.39,0.26 -1.233,-1.483 -6.335,-6.84 -16.577,-8.714 -5.17,-8.162 -6.882,-15.586 -5.078,-22.065 1.48,-5.313 5.073,-8.892 7.61,-10.855 -0.474,4.875 -0.074,9.325 1.13,13.354 0.014,0.096 0.05,0.184 0.083,0.275 0.964,3.113 2.402,5.98 4.37,8.553 6.223,8.128 15.757,11.32 20.856,12.502 -4.964,2.876 -8.763,6.237 -9.565,6.968 -0.446,-0.174 -0.93,-0.278 -1.438,-0.278 z m -6.826,22.738 c 1.15,-0.82 2.1,-1.666 2.874,-2.48 v 4.49 c -0.568,-0.49 -1.518,-1.226 -2.873,-2.01 z M 98.065,154.3 h 13.27 l -5.588,8.018 c -3.968,-2.777 -6.397,-5.962 -7.682,-8.017 z m 7.795,-9.84 5.262,6.718 H 98.717 c 1.575,-1.8 4.025,-4.33 7.143,-6.72 z m 39.07,3.088 v 3.63 h -8.668 l -4.82,-12.696 c 8.222,1.788 12.387,5.994 13.49,7.28 v 1.786 z m -17.094,-9.65 5.042,13.28 H 125.8 l -2.904,-13.5 c 0.22,-0.007 0.44,-0.018 0.66,-0.018 1.52,0 2.938,0.09 4.28,0.237 z m -8.112,0.092 2.837,13.188 h -7.434 l -6.69,-8.545 c 3.27,-2.135 7.09,-3.933 11.288,-4.643 z m -6.925,27.995 -0.427,-0.193 c -1.433,-0.532 -2.735,-1.148 -3.94,-1.81 l 6.748,-9.68 h 6.41 l -7.43,11.2 c -0.017,0.025 -0.017,0.055 -0.033,0.083 -0.438,0.13 -0.88,0.264 -1.328,0.4 z m 5.958,-1.706 6.617,-9.98 h 7.027 l -5.122,8.653 c -2.886,0.093 -5.663,0.596 -8.522,1.326 z m 19.983,0.528 c -2.11,-0.822 -4.73,-1.502 -7.845,-1.763 l 5.178,-8.744 h 8.858 v 4.252 c -0.393,0.84 -2.03,3.848 -6.18,6.248 -0.004,0.003 -0.005,0.007 -0.01,0.008 z m -27.3,-41.73 c 0,-5.554 2.734,-9.898 8.13,-12.91 1.716,-0.96 3.445,-1.63 4.9,-2.09 -0.663,1.274 -1.248,2.66 -1.676,4.187 -1.9,6.763 -0.504,14.292 4.127,22.41 -1.077,-0.086 -2.192,-0.14 -3.363,-0.14 -2.64,0 -5.158,0.405 -7.533,1.088 -3.03,-3.83 -4.585,-8.043 -4.585,-12.544 z m 12.297,-28.383 c 2.582,-3.128 5.978,-4.684 9.09,-4.153 1.49,0.253 2.762,0.964 3.75,2.05 0.013,0.018 0.03,0.032 0.045,0.048 0.378,0.423 0.718,0.898 1.004,1.432 -0.58,0.344 -1.25,0.784 -1.805,1.267 -0.934,0.82 -1.436,1.944 -1.686,2.68 -1.302,0.752 -4.394,2.76 -7.147,6.193 -1.23,0.242 -4.012,0.9 -7.073,2.316 -0.12,-2.676 0.262,-7.52 3.823,-11.835 z m 29.52,-8.743 c 7.25,0 11.44,3.89 13.293,6.202 -3.786,-0.065 -6.712,0.522 -6.96,0.575 -0.04,0.007 -0.068,0.034 -0.106,0.044 -0.056,0.016 -0.112,0.023 -0.166,0.045 -0.033,0.012 -0.057,0.04 -0.09,0.056 -0.014,0.006 -0.027,0.017 -0.04,0.025 -0.095,0.05 -0.183,0.1 -0.263,0.167 -0.032,0.025 -0.07,0.035 -0.102,0.063 -0.87,0.825 -1.722,1.53 -2.562,2.165 -1.327,-3.348 -3.794,-5.245 -7.023,-5.245 -4.353,0 -6.886,2.175 -8.21,3.895 -0.33,-0.844 -0.734,-1.627 -1.216,-2.33 1.402,-1.75 5.43,-5.663 13.448,-5.663 z m 29.106,22.007 c -0.072,2.157 -0.894,4.148 -2.375,5.882 -1.78,-10.708 -9.147,-15.197 -10.7,-16.03 -0.308,-0.706 -0.732,-1.357 -1.274,-1.944 -0.18,-0.193 -0.366,-0.376 -0.56,-0.547 3.437,0.168 7.417,0.972 10.32,3.422 3.026,2.552 4.7,5.912 4.59,9.217 z m 4.792,15.93 c 0,3.83 -2.31,7.497 -5.892,9.395 -1.713,-0.267 -3.5,-0.453 -5.36,-0.546 2.436,-2.74 4.487,-7.113 4.487,-14.09 0,-0.28 -0.028,-0.535 -0.035,-0.808 1.017,-0.83 1.906,-1.735 2.635,-2.714 1.575,1.457 4.165,4.5 4.165,8.763 z m 12.287,19.752 c 2.848,1.874 5.03,3.726 6.493,5.123 l -9.595,0.424 3.102,-5.548 z m -6.818,-3.727 c 1.472,0.658 2.853,1.353 4.123,2.074 l -4.117,7.362 -6.827,0.3 6.82,-9.737 z m -9.308,-3.06 c 2.255,0.486 4.35,1.12 6.312,1.84 l -7.798,11.133 -9.314,0.41 10.8,-13.382 z m -34.952,-15.86 c 3.285,0 6.054,-0.847 8.205,-1.877 7.9,-3.783 12.72,-12.3 13.258,-17.16 2.835,2.28 7.392,7.387 7.392,16.692 0,6.75 -2.14,11.64 -6.195,14.134 -0.01,0.006 -0.013,0.015 -0.022,0.02 -0.784,0.1 -1.57,0.26 -2.353,0.454 -0.04,0.013 -0.08,0.018 -0.117,0.032 -1.37,0.346 -2.727,0.815 -4.053,1.374 l -0.573,-0.13 c -0.03,-0.008 -0.058,0 -0.085,-0.004 -0.035,-0.006 -0.063,-0.025 -0.096,-0.03 -0.143,-0.014 -14.377,-1.724 -22.18,-11.937 -0.885,-1.162 -1.655,-2.392 -2.312,-3.685 3.355,1.527 6.42,2.118 9.13,2.118 z m -11.935,-15.218 c 2.447,2.015 6.35,4.592 10.458,4.74 2.67,0.086 5.027,-0.815 7.032,-2.706 5.38,-5.074 6.956,-9.486 7.41,-11.84 1.297,0.22 3.183,0.743 4.338,1.997 0.82,0.892 1.16,2.04 1.032,3.508 -0.304,3.49 -4.414,11.433 -11.517,14.834 -5.474,2.62 -11.425,1.97 -17.687,-1.914 -0.75,-2.66 -1.108,-5.533 -1.067,-8.62 z m 6.734,-9.397 c 0.714,-1.134 2.505,-3.207 6.073,-3.207 2.46,0 3.685,1.908 4.303,3.857 -2.156,1.123 -4.2,1.583 -6.112,1.32 -1.78,-0.248 -3.21,-1.09 -4.264,-1.97 z m -5.238,1.294 c 0.348,-0.303 0.812,-0.61 1.252,-0.874 1.262,1.564 3.847,4.077 7.764,4.635 0.528,0.076 1.058,0.114 1.593,0.114 2.763,0 5.637,-1.028 8.587,-3.02 -0.922,1.906 -2.54,4.332 -5.393,7.026 -1.382,1.3 -2.935,1.9 -4.72,1.84 -4.395,-0.154 -8.874,-4.193 -10.314,-5.607 0.092,-0.8 0.2,-1.605 0.34,-2.427 0.055,-0.255 0.347,-1.21 0.89,-1.69 z m 25.416,52.97 6.872,-14.545 c 0.982,-0.198 1.96,-0.317 2.915,-0.317 2.322,0 4.53,0.168 6.634,0.456 l -11.45,14.183 -4.972,0.22 z m 47.588,0.03 c 0.062,-0.18 0.094,-0.365 0.087,-0.552 0,-0.006 0.004,-0.01 0.003,-0.016 0,-0.03 -0.018,-0.054 -0.02,-0.084 -0.016,-0.154 -0.052,-0.304 -0.115,-0.45 -0.026,-0.06 -0.062,-0.116 -0.097,-0.175 -0.034,-0.06 -0.056,-0.125 -0.1,-0.18 -0.433,-0.55 -8.973,-11.147 -25.17,-15.093 2.986,-2.616 4.807,-6.352 4.807,-10.233 0,-5.974 -3.853,-9.953 -5.732,-11.542 0.568,-1.36 0.888,-2.8 0.938,-4.286 0.143,-4.258 -1.932,-8.52 -5.694,-11.694 -2.716,-2.29 -6.083,-3.398 -9.29,-3.888 -0.017,-0.035 -0.014,-0.074 -0.033,-0.11 -0.207,-0.39 -5.195,-9.54 -17.255,-9.54 -8.81,0 -13.613,4.147 -15.632,6.495 -1.23,-0.94 -2.662,-1.59 -4.26,-1.86 -4.254,-0.728 -8.774,1.242 -12.088,5.26 -4.984,6.042 -4.734,12.846 -4.407,15.45 -4.456,2.81 -8.6,7.428 -8.6,14.904 0,4.89 1.548,9.472 4.607,13.643 -11.103,4.53 -18.366,14.575 -18.754,15.12 -0.052,0.074 -0.087,0.155 -0.125,0.235 -0.013,0.027 -0.03,0.05 -0.042,0.077 -0.07,0.17 -0.102,0.347 -0.108,0.528 0,0.02 -0.01,0.036 -0.01,0.056 0,0.02 0.01,0.04 0.01,0.06 0.01,0.178 0.034,0.354 0.104,0.523 l 0.008,0.02 c 0,0.002 0.003,0.006 0.005,0.008 0.232,0.564 3.898,9 14.18,14.016 -6.156,1.76 -13.227,3.357 -22.435,3.357 -0.876,0 -1.585,0.7 -1.585,1.562 0,0.863 0.71,1.562 1.585,1.562 11.907,0 20.288,-2.536 27.682,-4.775 5.364,-1.624 10,-3.027 14.816,-3.027 9.99,0 15,5.035 15.078,5.113 l 3.328,3.278 c 0.31,0.305 0.715,0.458 1.12,0.458 0.407,0 0.812,-0.153 1.122,-0.458 0.62,-0.61 0.62,-1.6 0,-2.207 l -0.755,-0.743 v -23.94 c 0,-0.422 0.35,-0.768 0.782,-0.768 0.43,0 0.78,0.345 0.78,0.768 v 22.778 c 0,0.863 0.71,1.562 1.585,1.562 0.875,0 1.585,-0.7 1.585,-1.562 v -6.41 c 1.07,1.124 2.468,2.317 4.28,3.403 0.75,0.445 1.723,0.214 2.178,-0.524 0.454,-0.738 0.217,-1.697 -0.53,-2.147 -3.92,-2.348 -5.536,-5.283 -5.928,-6.103 v -4.314 l 7.174,-0.317 3.46,10.826 c 0.214,0.667 0.84,1.092 1.512,1.092 0.157,0 0.32,-0.023 0.477,-0.072 0.834,-0.258 1.297,-1.135 1.035,-1.96 l -3.206,-10.03 4.92,-0.217 5.706,10.05 c 0.29,0.512 0.83,0.8 1.385,0.8 0.262,0 0.527,-0.063 0.772,-0.198 0.764,-0.42 1.036,-1.373 0.61,-2.126 l -4.93,-8.68 10.08,-0.445 7.103,11.427 c -0.4,0.18 -0.798,0.362 -1.21,0.53 -0.81,0.332 -1.192,1.245 -0.856,2.042 0.253,0.6 0.843,0.962 1.464,0.962 0.202,0 0.408,-0.037 0.606,-0.118 1.046,-0.43 2.044,-0.894 3.02,-1.375 0.027,-0.013 0.056,-0.02 0.083,-0.035 0.006,-0.004 0.01,-0.01 0.016,-0.015 11.714,-5.802 18.375,-14.877 18.675,-15.293 0.056,-0.076 0.083,-0.164 0.123,-0.246 0.027,-0.054 0.06,-0.1 0.08,-0.16 z m -99.423,60.435 c -9.317,-11.816 -25.427,-8.787 -26.108,-8.654 -0.858,0.17 -1.415,0.993 -1.242,1.84 0.172,0.843 1.014,1.39 1.865,1.222 0.15,-0.026 14.858,-2.796 22.982,7.508 0.698,0.885 1.498,1.735 2.378,2.524 0.305,0.274 0.686,0.41 1.068,0.41 0.43,0 0.858,-0.174 1.172,-0.512 0.59,-0.636 0.542,-1.624 -0.103,-2.205 -0.748,-0.67 -1.425,-1.39 -2.01,-2.133 m 67.154,-9.52 -0.43,-0.417 c -1.03,-1.012 -12.257,-12.074 -20.778,-20.468 -0.62,-0.61 -1.622,-0.61 -2.24,0 -0.62,0.61 -0.62,1.598 0,2.207 8.52,8.396 19.75,19.46 20.776,20.47 l 0.456,0.44 c 1.63,1.57 5.96,5.744 5.977,8.882 0.004,0.776 -0.268,1.407 -0.856,1.987 -0.853,0.84 -1.797,1.216 -2.78,1.23 -2.19,-0.023 -4.24,-1.868 -4.68,-2.29 -0.914,-0.94 -1.84,-1.75 -2.554,-2.372 -0.316,-0.275 -0.572,-0.497 -0.732,-0.653 l -6.85,-6.75 -2.242,2.208 6.852,6.75 c 0.192,0.19 0.495,0.457 0.872,0.785 1.475,1.286 4.933,4.297 5.004,6.57 0.017,0.563 -0.198,1.044 -0.673,1.513 -0.732,0.72 -1.48,1.062 -2.28,1.016 -1.633,-0.074 -3.283,-1.626 -3.78,-2.215 l -0.01,-0.007 c -0.44,-0.572 -0.932,-1.15 -1.534,-1.744 l -8.244,-8.127 -2.24,2.21 8.242,8.126 c 1.343,1.32 2.157,2.525 2.418,3.58 0.263,1.056 -0.04,1.938 -0.98,2.862 -1.56,1.54 -3.89,0.43 -4.677,-0.02 -0.383,-0.64 -0.837,-1.25 -1.392,-1.796 -1.915,-1.888 -6.827,-7.337 -6.877,-7.392 -0.58,-0.647 -1.582,-0.705 -2.235,-0.13 -0.655,0.57 -0.714,1.558 -0.133,2.204 0.204,0.227 5.022,5.574 7.005,7.526 0.817,0.805 1.373,1.814 1.525,2.77 0.164,1.018 -0.13,1.88 -0.893,2.635 -0.318,0.31 -0.68,0.423 -1.15,0.445 -1.062,-0.008 -3.566,-0.75 -8.373,-5.64 -0.607,-0.62 -1.61,-0.632 -2.24,-0.033 -0.63,0.6 -0.644,1.59 -0.034,2.21 4.337,4.41 7.813,6.565 10.624,6.586 h 0.042 c 1.3,0 2.464,-0.47 3.37,-1.36 1.21,-1.193 1.843,-2.69 1.853,-4.294 0.53,0.114 1.08,0.187 1.64,0.187 1.43,0 2.918,-0.44 4.186,-1.69 1.25,-1.23 1.915,-2.636 1.982,-4.128 0.548,0.18 1.12,0.323 1.734,0.353 0.095,0.005 0.19,0.008 0.284,0.008 1.6,0 3.118,-0.665 4.405,-1.934 1.09,-1.074 1.643,-2.396 1.6,-3.82 -0.014,-0.39 -0.077,-0.777 -0.17,-1.162 0.413,0.08 0.84,0.13 1.277,0.136 h 0.098 c 1.857,0 3.532,-0.722 4.98,-2.148 1.19,-1.173 1.792,-2.59 1.783,-4.21 -0.025,-4.442 -4.864,-9.107 -6.93,-11.1" />
    <path
       id="path10"
       fill="#211c1c"
       d="m 146.52,225.742 c -1.716,4.21 -7.272,9.58 -9.91,9.58 -0.333,0 -0.487,-0.098 -0.617,-0.244 -1.213,-1.373 0.813,-5.16 4.926,-9.206 1.844,-1.816 3.664,-2.9 4.865,-2.9 0.408,0 0.724,0.125 1.024,0.408 0.232,0.22 0.24,1.054 -0.29,2.362 z m -19.997,4.952 c -1.985,-1.954 1.657,-7.295 6.143,-11.72 0.675,-0.665 1.563,-1.54 2.53,-2.38 0.04,-0.037 0.092,-0.06 0.13,-0.104 0.005,-0.006 0.01,-0.01 0.013,-0.017 1.593,-1.366 3.373,-2.597 4.73,-2.597 0.474,0 0.848,0.16 1.215,0.523 0.584,0.58 0.855,1.205 0.853,1.97 -0.01,3.06 -4.31,7.255 -6.145,9.048 l -0.444,0.432 c -0.225,0.223 -0.468,0.47 -0.728,0.733 -1.762,1.78 -4.708,4.76 -6.856,4.76 -0.537,-0.002 -0.996,-0.207 -1.443,-0.65 z m -7.29,-5.968 c -1.845,-1.817 1.607,-6.85 5.843,-11.033 4.24,-4.17 6.84,-5.383 8.432,-3.932 0.6,0.55 1.83,1.682 -0.51,4.593 -0.87,0.762 -1.73,1.58 -2.574,2.41 -1.912,1.887 -4.268,4.492 -5.86,7.183 -1.328,1.102 -3.61,2.475 -5.33,0.78 z m -5.817,-6.464 c -0.807,-0.795 0.1,-2.62 0.713,-3.636 1.193,-1.976 3.03,-3.905 4.016,-4.878 l 0.406,-0.4 c 1.337,-1.328 3.575,-3.547 4.93,-3.547 0.17,0 0.382,0.035 0.654,0.29 0.28,0.262 0.406,0.57 0.41,0.995 0.025,1.923 -2.342,5.125 -4.698,7.448 l -0.566,0.567 c -1.228,1.242 -3.516,3.555 -5.014,3.554 -0.21,0 -0.5,-0.044 -0.852,-0.392 z m 32.37,1.587 c -0.486,0 -0.97,0.086 -1.447,0.207 0.585,-1.203 0.964,-2.445 0.968,-3.677 0.006,-1.604 -0.592,-3.012 -1.777,-4.184 -0.953,-0.944 -2.15,-1.444 -3.46,-1.444 -0.84,0 -1.684,0.203 -2.526,0.547 -0.048,-1.78 -1.036,-3.06 -1.886,-3.832 -2.524,-2.302 -5.443,-1.55 -7.962,-0.012 0.01,-0.136 0.022,-0.273 0.02,-0.408 -0.014,-1.264 -0.497,-2.38 -1.395,-3.22 -0.8,-0.753 -1.783,-1.15 -2.838,-1.15 -2.674,0 -5.172,2.477 -7.178,4.467 l -0.398,0.394 c -1.093,1.076 -3.132,3.22 -4.5,5.49 -2.4,3.975 -1.45,6.24 -0.23,7.44 0.866,0.855 1.937,1.308 3.092,1.308 0.534,0 1.057,-0.12 1.575,-0.288 -0.57,2.014 -0.39,3.93 1.15,5.445 1.16,1.145 2.565,1.713 4.077,1.71 0.58,0 1.177,-0.092 1.782,-0.26 -0.23,1.67 0.126,3.235 1.43,4.518 1.05,1.037 2.29,1.562 3.684,1.563 1.6,0 3.176,-0.725 4.634,-1.727 -0.34,1.582 -0.133,3.104 1,4.388 0.76,0.862 1.802,1.318 3.01,1.318 h 0.002 c 4.648,0 11,-7 12.848,-11.54 1.3,-3.194 0.468,-4.91 -0.46,-5.783 -0.885,-0.835 -1.997,-1.274 -3.215,-1.274 z m -9.038,-30.004 c 0,-6.81 10.86,-14.573 16.078,-18.302 1.13,-0.81 2.025,-1.447 2.622,-1.935 3.583,-2.922 11.115,-4.666 20.148,-4.666 6.972,0 12.73,3.168 16.333,5.824 4.518,3.338 18.793,3.392 20.364,3.394 0.876,-0.002 1.584,-0.702 1.58,-1.564 0,-0.862 -0.71,-1.56 -1.584,-1.56 h -0.15 c -5.693,0 -15.568,-0.744 -18.31,-2.77 -3.99,-2.942 -10.39,-6.448 -18.234,-6.448 -9.894,0 -17.974,1.962 -22.168,5.384 -0.52,0.423 -1.42,1.068 -2.465,1.812 -6.058,4.332 -17.323,12.383 -17.385,20.76 -0.073,0.884 -0.59,8.517 2.912,12.294 1.328,1.433 3.03,2.16 5.06,2.16 1.785,0 3.228,-0.557 4.29,-1.655 2.28,-2.36 2.076,-6.547 1.91,-9.91 -0.065,-1.308 -0.153,-3.1 0.018,-3.49 1.847,-2.34 5.846,-5.805 8.566,-5.805 0.875,0 1.585,-0.7 1.585,-1.562 0,-0.863 -0.71,-1.56 -1.586,-1.56 -4.542,0 -9.53,5.06 -11.068,7.01 -0.9,1.138 -0.81,2.992 -0.682,5.56 0.13,2.62 0.305,6.21 -1.04,7.602 -0.284,0.293 -0.8,0.686 -1.995,0.686 -1.133,0 -1.995,-0.363 -2.717,-1.14 -2.24,-2.41 -2.27,-8.02 -2.092,-9.98 0.005,-0.046 0.008,-0.093 0.008,-0.14" />
  </g>
</svg>
