<?xml version="1.0" encoding="UTF-8" standalone="no"?>
<svg
   xmlns:dc="http://purl.org/dc/elements/1.1/"
   xmlns:cc="http://creativecommons.org/ns#"
   xmlns:rdf="http://www.w3.org/1999/02/22-rdf-syntax-ns#"
   xmlns:svg="http://www.w3.org/2000/svg"
   xmlns="http://www.w3.org/2000/svg"
   xmlns:sodipodi="http://sodipodi.sourceforge.net/DTD/sodipodi-0.dtd"
   xmlns:inkscape="http://www.inkscape.org/namespaces/inkscape"
   inkscape:version="1.0 (4035a4fb49, 2020-05-01)"
   sodipodi:docname="Distributism_flag.svg"
   viewBox="0 0 1333.3333 889.33331"
   height="889.33331"
   width="1333.3333"
   id="svg2"
   version="1.1">
  <metadata
     id="metadata8">
    <rdf:RDF>
      <cc:Work
         rdf:about="">
        <dc:format>image/svg+xml</dc:format>
        <dc:type
           rdf:resource="http://purl.org/dc/dcmitype/StillImage" />
        <dc:title></dc:title>
      </cc:Work>
    </rdf:RDF>
  </metadata>
  <defs
     id="defs6" />
  <sodipodi:namedview
     inkscape:current-layer="layer2"
     inkscape:window-maximized="1"
     inkscape:window-y="-8"
     inkscape:window-x="-8"
     inkscape:cy="637.46697"
     inkscape:cx="563.33695"
     inkscape:zoom="0.5616196"
     showgrid="false"
     id="namedview4"
     inkscape:window-height="1017"
     inkscape:window-width="1920"
     inkscape:pageshadow="2"
     inkscape:pageopacity="0"
     guidetolerance="10"
     gridtolerance="10"
     objecttolerance="10"
     borderopacity="1"
     bordercolor="#666666"
     pagecolor="#ffffff" />
  <g
     inkscape:label="base"
     id="layer2"
     inkscape:groupmode="layer">
    <rect
       y="0"
       x="430.63437"
       height="889.33331"
       width="902.69885"
       id="rect1484"
       style="fill:#fcc52b;fill-opacity:1;stroke-width:21.7295;stroke-linecap:round;paint-order:stroke markers fill" />
    <rect
       style="fill:#fc8922;fill-opacity:1;stroke-width:15.0084;stroke-linecap:round;paint-order:stroke markers fill"
       id="rect1484-2"
       width="430.63437"
       height="889.33331"
       x="0"
       y="0" />
  </g>
  <g
     style="display:inline"
     inkscape:label="top"
     id="layer1"
     inkscape:groupmode="layer">
    <g
       id="g1481">
      <path
         style="fill:#898e95;fill-opacity:1;stroke-width:1.33333"
         d="m 996.35396,327.21351 c -4.10773,-3.91895 -5.9909,-6.65827 -5.33333,-7.758 0.55907,-0.93499 5.15103,-7.10765 10.20437,-13.71701 l 9.1878,-12.01702 6.6476,2.80592 c 3.6561,1.54327 6.9197,3.51403 7.2524,4.37947 0.4588,1.1936 -20.2268,32.54625 -21.3738,32.39556 -0.1293,-0.0171 -3.09265,-2.75702 -6.58504,-6.08892 z m 37.01654,-58.83093 c -1.4667,-0.35278 -3.1531,-1.09963 -3.7477,-1.65968 -1.1192,-1.05419 15.7109,-28.08902 17.4395,-28.01383 0.5362,0.0233 2.108,0.90025 3.4929,1.94872 2.428,1.83816 2.3088,2.38372 -3.3334,15.26093 -6.0818,13.88074 -6.4782,14.23735 -13.8513,12.46386 z"
         id="path1446"
         sodipodi:nodetypes="ssscssssssssss" />
      <path
         style="fill:#b0b4bc;fill-opacity:1;stroke-width:1.33333"
         d="m 983.9885,616.07965 -7.5488,-12.89367 2.7832,-45.14249 c 3.0777,-49.92121 2.9177,-51.94908 -3.8247,-48.46246 -3.6042,1.8638 -4.7567,1.56355 -24.2822,-6.32553 -19.1973,-7.75646 -21.7249,-9.21312 -39.821,-22.94883 -22.5817,-17.1405 -34.93319,-25.96551 -36.36949,-25.98561 -0.564,-0.008 -0.6758,1.37866 -0.2483,3.08133 0.4273,1.70264 -0.7371,11.5931 -2.5877,21.97871 l -3.3646,18.88296 -13.0783,16.32314 c -12.38968,15.46371 -13.78871,16.73892 -26.57153,24.22035 l -13.49321,7.89725 1.76723,5.46757 c 0.97198,3.00718 3.92572,12.51761 6.56379,21.13429 3.3162,10.83148 5.40885,15.66667 6.78048,15.66667 1.09111,0 4.61038,2.42098 7.82056,5.38001 3.98434,3.67268 8.94682,6.43816 15.63688,8.71423 9.2807,3.15738 10.038,3.72642 14.286,10.73416 2.4957,4.11715 3.9745,7.89804 3.3333,8.52261 -0.6338,0.61742 -7.5158,1.54212 -15.2932,2.05485 -13.72923,0.90508 -14.31763,0.82855 -20.21914,-2.62995 -3.34314,-1.95919 -7.0436,-5.03527 -8.2233,-6.83573 -1.5484,-2.36315 -3.34874,-3.27352 -6.4735,-3.27352 h -4.32862 L 800.74783,573.0633 c -9.19813,-21.52524 -16.13439,-39.48907 -15.69241,-40.64085 0.43563,-1.13529 4.41536,-7.45274 8.84383,-14.03883 7.81576,-11.62371 8.05175,-12.23157 8.05175,-20.73932 0,-8.62948 -0.18519,-9.08076 -12,-29.2654 -6.6,-11.27543 -12,-21.78868 -12,-23.36277 0,-1.57406 0.6621,-5.49136 1.47133,-8.70509 2.48897,-9.88463 0.48715,-9.87696 -2.50038,0.008 -1.54889,5.12565 -3.50857,17.11937 -4.35492,26.6527 -0.84631,9.53333 -3.55053,27.3332 -6.00934,39.55528 -3.87144,19.24388 -5.3633,24.00091 -11.13218,35.49668 -4.7209,9.40754 -8.13948,14.41905 -11.73472,17.20271 -7.63612,5.91235 -17.86446,9.746 -25.98697,9.74007 -6.0726,-0.004 -8.59979,-0.91034 -17.66865,-6.33336 -7.61359,-4.55322 -10.92193,-7.36957 -11.79243,-10.0392 -3.04014,-9.32349 3.54225,-10.00003 19.63627,-2.0182 l 11.30053,5.60448 9.32349,-6.37043 c 13.77751,-9.41379 18.28244,-18.39803 24.56175,-48.98366 2.61834,-12.75352 5.16903,-29.76279 5.66823,-37.79844 0.6562,-10.56341 1.91732,-17.58036 4.55301,-25.33335 3.46386,-10.18919 4.29857,-11.36496 16.76523,-23.61543 l 13.11983,-12.89235 19.38996,-5.34421 19.38996,-5.34421 16.00003,2.58391 c 8.79998,1.42114 35.97197,4.66881 60.38207,7.21701 l 44.3821,4.63305 22.9513,-5.34289 22.9512,-5.34285 12.6666,-8.74133 c 6.9667,-4.80767 20.2492,-13.94385 29.5166,-20.30253 l 16.85,-11.56127 1.4322,-12.60839 c 0.7877,-6.93461 1.1355,-12.90513 0.7728,-13.26785 -0.3628,-0.36283 -6.7897,-3.18595 -14.2822,-6.2739 -13.4573,-5.54627 -13.6277,-5.67254 -14.0365,-10.40047 -0.4684,-5.41693 -0.093,-5.55205 7.7471,-2.78604 6.9796,2.46252 8,2.48538 8,0.17953 0,-1.1198 -9.1103,-5.41259 -23.6666,-11.15168 -23.256,-9.16914 -23.674,-9.40381 -24.0854,-13.5241 -0.3329,-3.33324 0.1939,-4.41963 2.5684,-5.29803 l 2.987,-1.10494 -2.9017,-0.75882 c -2.3009,-0.60147 -2.9017,-1.75056 -2.9017,-5.55008 0,-2.63532 0.4934,-4.7915 1.0963,-4.7915 0.603,0 11.253,2.05474 23.6667,4.56601 l 22.5704,4.56601 3.4063,-3.23267 c 3.3051,-3.13667 4.0218,-3.23267 24.1377,-3.23267 11.4023,0 24.4195,0.38548 28.9271,0.85663 l 8.1955,0.8566 v 5.52226 c 0,4.91483 0.7924,6.30478 7.2031,12.63591 4.421,4.366 7.8189,6.73308 8.7973,6.12835 1.0732,-0.66323 -0.4095,-2.82489 -4.5364,-6.61379 -6.0124,-5.52 -6.1306,-5.78684 -6.1306,-13.84056 0,-4.51665 0.2891,-8.21208 0.6425,-8.21208 1.8554,0 23.3575,10.65645 23.3575,11.57598 0,0.59489 -1.5129,5.6245 -3.3621,11.17693 -2.5028,7.51517 -4.7178,11.4192 -8.6666,15.27515 -4.9703,4.85333 -5.3047,5.66385 -5.3047,12.85844 0,11.35423 -4.3083,23.03781 -23.3429,63.30309 -15.1592,32.06717 -17.5759,36.39583 -21.2158,38.00001 -3.7072,1.63385 -4.2661,2.69246 -5.7299,10.85348 -3.8855,21.66285 -27.6237,64.40512 -42.6529,76.79942 -4.5513,3.7533 -8.9331,6.82417 -9.7375,6.82417 -0.8043,0 -3.6679,-1.49862 -6.3634,-3.3303 -6.0237,-4.09319 -6.2066,-3.76403 -7.4075,13.33032 -0.4767,6.78577 -2.5088,17.79829 -4.6766,25.34419 l -3.8335,13.34419 2.2889,16.65577 c 1.259,9.16071 2.9975,18.45585 3.8635,20.65584 1.0281,2.61188 5.4822,6.7762 12.8351,12 6.1934,4.40001 11.2577,8.60001 11.254,9.33332 0,0.73334 -1.1642,3.88335 -2.5789,7.00002 l -2.5722,5.66665 h -15.9387 -15.9387 z m 91.8398,-338.43968 2.1841,-3.33332 -9.6974,0.11112 -9.6974,0.11074 6.6666,3.14056 c 8.3635,3.93986 7.9427,3.94103 10.5441,-0.0302 z M 891.8952,604.62008 c -3.1112,-5.34927 -4.966,-7.13087 -7.965,-7.65036 -3.30379,-0.57226 -5.05069,-2.66132 -11.27769,-13.48604 -4.0525,-7.04489 -9.318,-14.54173 -11.701,-16.65963 -3.4572,-3.07253 -5.1579,-6.57947 -8.4158,-17.35325 l -4.08302,-13.50255 14.65902,-20.51648 14.6591,-20.51651 1.5627,-14.64764 c 0.8595,-8.05617 1.7666,-14.86416 2.0157,-15.1288 0.2491,-0.26457 5.91759,2.9831 12.59649,7.21723 l 12.1437,7.69833 -5.9344,6.11615 c -4.4864,4.62379 -7.6342,10.10742 -12.9011,22.47389 -3.8316,8.99678 -8.70249,18.54209 -10.82409,21.2118 -2.1216,2.66975 -3.5734,5.80872 -3.2262,6.97557 0.3473,1.16686 1.6459,6.32153 2.886,11.45484 2.8335,11.72932 4.2906,14.54098 11.43519,22.06606 4.9417,5.20479 8.6936,7.26818 26.4261,14.53326 11.3667,4.65699 20.8617,8.62228 21.1,8.81175 0.2385,0.18935 0.034,3.00627 -0.4536,6.2595 -0.8038,5.35967 -1.4424,6.18478 -6.8024,8.78887 -4.8318,2.34747 -8.2902,2.86961 -18.8797,2.85056 l -12.9643,-0.0227 -4.0557,-6.9732 z m 160.7224,-48.91113 c -15.6187,-1.52243 -29.5447,-13.0131 -18.6667,-15.40229 4.3215,-0.94915 4.8711,-1.92892 2.4437,-4.35632 -1.9232,-1.92321 -0.466,-2.47752 9.0703,-3.45018 6.0927,-0.62139 7.4493,-0.25587 12.3091,3.31827 3.329,2.44815 6.3824,3.72095 7.8194,3.25939 2.7169,-0.87265 23.8573,-56.54244 22.0801,-58.14458 -0.5808,-0.52358 -6.6059,-2.91088 -13.3893,-5.30506 -6.7833,-2.39421 -12.3218,-4.42102 -12.3079,-4.50399 0.015,-0.0828 3.774,-7.47375 8.3555,-16.42393 l 8.3301,-16.27306 15.3112,8.41508 15.3111,8.41504 -0.2914,12.75077 c -0.2914,12.74683 -0.2956,12.76048 -13.1707,44.94439 l -12.8792,32.19371 -8.815,5.91357 c -4.8483,3.25243 -9.7216,5.81915 -10.8293,5.70376 -1.1079,-0.11528 -5.9144,-0.58995 -10.681,-1.05457 z m 40.3333,-294.34325 c -2.7122,-0.52244 -3,-1.34264 -3,-8.55137 0,-8.98976 -0.9149,-8.98621 11.6636,-0.0454 9.6968,6.89261 9.851,9.62948 0.5271,9.35599 -3.4049,-0.0998 -7.5407,-0.4416 -9.1907,-0.75938 z"
         id="path837" />
      <path
         style="fill:#9d1d25;fill-opacity:1;stroke-width:1.33333"
         d="m 875.73704,361.30363 c -28.5485,-17.40104 -28.5972,-17.41931 -42.1207,-15.79405 l -6.7314,0.80899 -4.4307,9.8461 c -2.43693,5.41535 -4.88047,9.84609 -5.43016,9.84609 -0.5497,0 -1.41631,-3.15 -1.92579,-7 -0.50948,-3.85 -1.51627,-9.75566 -2.23729,-13.1237 -1.26448,-5.90652 -1.53328,-6.17473 -7.57878,-7.56298 -5.17629,-1.18864 -6.65979,-1.08606 -8.51864,0.58903 -1.23799,1.11557 -12.89874,4.70307 -25.91282,7.97225 l -23.66196,5.94395 -14.93616,11.92405 c -8.21492,6.55824 -15.71479,11.92406 -16.6664,11.92406 -3.50559,0 -17.2385,-4.38873 -17.2385,-5.50903 0,-0.6367 0.82639,-1.15764 1.83644,-1.15764 1.01007,0 6.14029,-0.97192 11.40056,-2.15984 l 9.56413,-2.15985 6.59944,-9.77994 c 3.6297,-5.37896 6.59943,-10.05936 6.59943,-10.40087 0,-0.34151 -1.84981,-1.02723 -4.11073,-1.52382 -2.8436,-0.62455 -11.07938,0.83389 -26.7182,4.73144 -12.43411,3.09885 -22.80944,5.40747 -23.05636,5.13024 -2.60009,-2.91937 -22.22026,-30.83577 -21.88948,-31.14522 0.24265,-0.22715 8.06714,3.97945 17.38742,9.34794 l 16.946,9.76088 11.265,-1.66557 c 10.64326,-1.57363 11.82372,-2.09348 21.38736,-9.41862 5.56728,-4.2642 10.12233,-7.99801 10.12233,-8.29733 0,-0.29934 -8.54256,-4.71617 -18.98347,-9.81518 l -18.98347,-9.27091 h -25.28326 -25.2833 l -37.10472,8.13754 -37.10472,8.13755 -25.99616,-4.97251 -25.99612,-4.97251 -5.173,-8.82965 c -2.84516,-4.85631 -4.9005,-9.27055 -4.56749,-9.80943 0.33298,-0.53889 7.92499,2.68933 16.87098,7.17381 l 16.26543,8.15361 17.66963,-3.1259 c 9.71834,-1.71924 17.66967,-3.48028 17.66967,-3.91344 0,-0.43316 -6.28634,-2.81932 -13.96963,-5.30259 -7.68329,-2.48326 -13.79648,-4.68816 -13.5849,-4.89976 0.91929,-0.91928 72.707,-4.42783 90.74857,-4.43525 l 19.8607,-0.008 28.80597,8.51537 c 27.12892,8.01961 29.86043,8.56854 46.91845,9.42892 l 18.11252,0.91358 7.22083,-4.31062 c 6.78164,-4.04842 8.43197,-4.40639 27.13474,-5.88572 l 19.91391,-1.57514 24.0494,11.05554 c 23.415,10.76384 26.0288,11.4138 26.1024,6.49045 0.011,-0.75217 -10.7598,-9.42197 -23.9356,-19.2662 -13.17584,-9.84424 -23.76461,-18.09007 -23.53062,-18.32407 0.23396,-0.23399 12.24432,1.52412 26.68962,3.90695 l 26.2642,4.33239 13.7473,16.1283 13.7474,16.12831 31.4027,13.46958 31.4028,13.46959 8.783,-2.63496 c 4.8306,-1.44937 8.7829,-2.96232 8.7829,-3.36225 0,-0.39994 -2.25,-3.60575 -5,-7.12403 l -5,-6.39687 -21.2533,-5.81298 c -18.8753,-5.16259 -22.5942,-6.67076 -33.2383,-13.47964 -6.5917,-4.21667 -11.1277,-7.65591 -10.08,-7.64275 1.0477,0.0132 7.6049,0.90239 14.5716,1.97608 6.9667,1.0737 13.5526,1.96294 14.6354,1.97608 1.0828,0.0132 -2.8031,-4.77608 -8.6354,-10.64274 -5.8323,-5.86667 -10.0182,-10.65224 -9.3021,-10.6346 0.7162,0.0178 12.7788,2.60766 26.8059,5.75561 l 25.5039,5.72355 8.9672,7.13549 8.9673,7.13549 -0.5138,9.09407 -0.5139,9.09408 10.9725,10.91554 10.97256,10.91555 -7.77886,8.76595 c -4.2783,4.82126 -10.0968,11.31438 -12.9298,14.42916 l -5.1509,5.66322 -33.0394,4.00344 c -18.1716,2.2019 -34.6716,3.98523 -36.6666,3.96298 -2.2457,-0.0249 -14.0172,-6.37335 -30.9047,-16.66667 z"
         id="path1420" />
    </g>
  </g>
</svg>
