<?xml version="1.0" encoding="UTF-8" standalone="no"?>
<svg
   xmlns:dc="http://purl.org/dc/elements/1.1/"
   xmlns:cc="http://creativecommons.org/ns#"
   xmlns:rdf="http://www.w3.org/1999/02/22-rdf-syntax-ns#"
   xmlns:svg="http://www.w3.org/2000/svg"
   xmlns="http://www.w3.org/2000/svg"
   xmlns:sodipodi="http://sodipodi.sourceforge.net/DTD/sodipodi-0.dtd"
   xmlns:inkscape="http://www.inkscape.org/namespaces/inkscape"
   width="2250"
   height="1500"
   id="svg2"
   version="1.1"
   inkscape:version="0.48.1 "
   sodipodi:docname="Flag_of_the_National_Fascist_Party_(PNF).svg">
  <metadata
     id="metadata76">
    <rdf:RDF>
      <cc:Work
         rdf:about="">
        <dc:format>image/svg+xml</dc:format>
        <dc:type
           rdf:resource="http://purl.org/dc/dcmitype/StillImage" />
      </cc:Work>
    </rdf:RDF>
  </metadata>
  <defs
     id="defs74" />
  <sodipodi:namedview
     pagecolor="#ffffff"
     bordercolor="#666666"
     borderopacity="1"
     objecttolerance="10"
     gridtolerance="10"
     guidetolerance="10"
     inkscape:pageopacity="0"
     inkscape:pageshadow="2"
     inkscape:window-width="1440"
     inkscape:window-height="838"
     id="namedview72"
     showgrid="false"
     fit-margin-top="0"
     fit-margin-left="0"
     fit-margin-right="0"
     fit-margin-bottom="0"
     inkscape:zoom="0.24607316"
     inkscape:cx="1310.2367"
     inkscape:cy="886.54092"
     inkscape:window-x="-8"
     inkscape:window-y="-8"
     inkscape:window-maximized="1"
     inkscape:current-layer="svg2" />
  <rect
     width="2250"
     height="1500"
     id="rect4"
     x="0"
     y="0"
     style="fill:#000000" />
  <!-- <g fill="#ffd323" stroke="#000" stroke-width="1.575"> -->
  <!-- <g fill="#b58f4b" stroke="#000" stroke-width="1.575"> -->
  <rect
     x="1210.7734"
     y="563.66058"
     width="21.4119"
     height="624.85291"
     id="rect10"
     style="fill:#cbab72;fill-opacity:1;stroke:#000000;stroke-width:1.62738562;stroke-miterlimit:4;stroke-opacity:1;stroke-dasharray:none" />
  <path
     style="fill:#ffffff;stroke:#000000;stroke-width:1.57500005;stroke-miterlimit:4;stroke-dasharray:none"
     inkscape:connector-curvature="0"
     id="path12"
     d="m 1211.809,610.94855 0,106.5026 150.5542,-0.2489 c 16.3795,-99.63654 -2.8591,-181.16843 -60.486,-237.1367 l -41.7288,25.73165 c 36.0674,94.03232 -8.5413,105.70221 -48.3394,105.15135 z"
     sodipodi:nodetypes="cccccc" />
  <path
     inkscape:connector-curvature="0"
     d="m 1212.9377,1188.1352 -35.1751,0 0,-876.27049 35.1751,0 0,876.27049 z"
     id="path46"
     style="fill:#cbab72;fill-opacity:1;stroke:#000000;stroke-width:1.57500005;stroke-miterlimit:4;stroke-opacity:1;stroke-dasharray:none" />
  <path
     inkscape:connector-curvature="0"
     d="m 1177.7626,1188.1352 -35.175,0 0,-876.27049 35.175,0 0,876.27049 z"
     id="path48"
     style="fill:#cbab72;fill-opacity:1;stroke:#000000;stroke-width:1.57500005;stroke-miterlimit:4;stroke-opacity:1;stroke-dasharray:none" />
  <path
     inkscape:connector-curvature="0"
     d="m 1072.2377,1188.1352 -35.1754,0 0,-876.27049 35.1754,0 0,876.27049 z"
     id="path50"
     style="fill:#cbab72;fill-opacity:1;stroke:#000000;stroke-width:1.57500005;stroke-miterlimit:4;stroke-opacity:1;stroke-dasharray:none" />
  <path
     inkscape:connector-curvature="0"
     d="m 1142.5634,1209.354 -35.1268,0 0,-918.70795 35.1268,0 0,918.70795 z"
     id="path8"
     style="fill:#cbab72;fill-opacity:1;stroke:#000000;stroke-width:1.57500005;stroke-miterlimit:4;stroke-opacity:1;stroke-dasharray:none" />
  <path
     inkscape:connector-curvature="0"
     d="m 1107.4126,1188.1352 -35.1749,0 0,-876.27049 35.1749,0 0,876.27049 z"
     id="path52"
     style="fill:#cbab72;fill-opacity:1;stroke:#000000;stroke-width:1.57500005;stroke-miterlimit:4;stroke-opacity:1;stroke-dasharray:none" />
  <path
     inkscape:connector-curvature="0"
     d="m 1142.5876,1188.1352 -35.175,0 0,-876.27049 35.175,0 0,876.27049 z"
     id="path54"
     style="fill:#cbab72;fill-opacity:1;stroke:#000000;stroke-width:1.57500005;stroke-miterlimit:4;stroke-opacity:1;stroke-dasharray:none" />
  <path
     inkscape:connector-curvature="0"
     d="m 1037.0623,486.31315 0,-30.62 175.8731,0 0,30.62 -175.8731,0 z"
     id="path58"
     style="fill:#ffffff;fill-opacity:1;stroke:#000000;stroke-width:1.57500005;stroke-miterlimit:4;stroke-opacity:1;stroke-dasharray:none" />
  <path
     inkscape:connector-curvature="0"
     d="m 1037.0623,516.93335 0,-30.6202 175.8731,0 0,30.6202 -175.8731,0 z"
     id="path60"
     style="fill:#ffffff;fill-opacity:1;stroke:#000000;stroke-width:1.57500005;stroke-miterlimit:4;stroke-opacity:1;stroke-dasharray:none" />
  <path
     inkscape:connector-curvature="0"
     d="m 1037.0623,1006.7653 0,29.888 195.1235,0 0,-29.888 -195.1235,0 z"
     id="path64"
     style="fill:#ffffff;fill-opacity:1;stroke:#000000;stroke-width:1.57500005;stroke-miterlimit:4;stroke-opacity:1;stroke-dasharray:none" />
  <path
     inkscape:connector-curvature="0"
     d="m 1037.0623,976.87725 0,29.88795 195.1235,0 0,-29.88795 -195.1235,0 z"
     id="path66"
     style="fill:#ffffff;fill-opacity:1;stroke:#000000;stroke-width:1.57500005;stroke-miterlimit:4;stroke-opacity:1;stroke-dasharray:none" />
  <path
     d="m 1037.0623,902.09374 0,69.1255 175.8731,-373.3131 0,-69.1255 z"
     id="path70"
     inkscape:connector-curvature="0"
     sodipodi:nodetypes="ccccc"
     style="fill:#ffffff;fill-opacity:1;stroke:#000000;stroke-width:1.57500005;stroke-miterlimit:4;stroke-opacity:1;stroke-dasharray:none" />
  <g
     style="fill:#cbab72;stroke:#000000;stroke-width:1.57500005;stroke-linecap:round;stroke-linejoin:round;stroke-miterlimit:4;stroke-dasharray:none"
     id="g14"
     transform="translate(4.9842,-41.21255)">
    <path
       style="stroke-width:1.57500005;stroke-miterlimit:4;stroke-dasharray:none"
       inkscape:connector-curvature="0"
       id="path16"
       d="m 1248.2158,606.4891 c 0.902,0.0505 2.8796,0.752 2.6843,1.8328 1.2054,-1.0248 1.996,-2.0496 2.5431,-3.0744 l -5.2274,1.2416 z" />
    <path
       style="stroke-width:1.57500005;stroke-miterlimit:4;stroke-dasharray:none"
       inkscape:connector-curvature="0"
       id="path18"
       d="m 1248.4276,610.6277 c 0.4817,0.9513 0.6512,2.0629 0.6357,3.1927 l -3.0376,1.419 c 0.1158,-1.8498 0.8903,-3.9607 2.4018,-4.6117 z" />
    <path
       style="stroke-width:1.57500005;stroke-miterlimit:4;stroke-dasharray:none"
       inkscape:connector-curvature="0"
       id="path20"
       d="m 1243.5181,611.4259 c 0.6916,1.8884 3.6833,1.7871 5.5453,1.2712 l 0.2335,1.0823 -2.945,2.4649 -4.282,-2.0691 0,-2.7197 1.4482,-0.0296 z" />
    <path
       style="stroke-width:1.57500005;stroke-miterlimit:4;stroke-dasharray:none"
       inkscape:connector-curvature="0"
       id="path22"
       d="m 1222.9748,577.4428 c -1.6103,-0.0175 -3.0385,0.1145 -4.5379,0.1899 -1.7659,0.9319 -3.5532,2.1064 -5.5073,3.0729 -0.8016,0.7682 -1.3524,1.6451 -1.4026,2.7276 -2.0479,1.3058 -2.8453,2.871 -3.4034,4.4885 l 0.5363,15.8306 c -1.0705,1.9358 -1.5567,3.9227 0.1857,6.094 l 0.1856,5.0409 c -2.3425,4.8585 3.2421,6.9044 6.8686,5.9732 -1.8913,-1.2657 -2.6617,-2.4353 -2.6814,-3.539 l 1.9802,-0.1381 c 0.4156,1.0524 1.2674,2.0666 3.3827,2.9693 -0.973,-1.0278 -1.4731,-2.0623 -1.5263,-3.0902 l 0.6806,-0.0345 c 0.6575,1.1587 1.8709,2.3112 3.4653,3.47 -0.9419,-1.198 -1.5247,-2.3928 -1.7739,-3.5908 l 0.2888,-0.0173 0.1856,0.0345 c 0.8395,1.3367 2.0211,2.7401 4.1872,3.7462 1.1998,0.5573 2.7693,0.5767 3.9603,-0.1036 0.5952,0.6091 1.3516,1.0807 3.0321,1.4674 1.4777,0.34 2.764,0.2417 2.764,0.2417 -0.9711,-1.3434 -2.4289,-2.3313 -4.0841,-3.1592 l 3.3827,0.7423 3.9396,4.2468 c 0,0 2.3184,0.6224 2.5577,-0.8286 0.4371,-2.6501 -0.8245,-5.0329 -2.7433,-7.3888 0.4779,0.0466 0.9353,0.1613 1.1757,0.3625 2.2985,1.9238 3.9434,4.4885 8.7663,4.4885 1.2116,10e-6 3.5554,-1.1609 3.8778,-2.3651 0.2854,-1.0666 -0.3206,-2.1385 -0.9075,-2.7794 0.5386,-0.6932 0.9141,-1.346 0.8456,-1.9508 -0.076,-0.6729 -0.6754,-1.0468 -1.547,-1.0013 -0.7722,0.7452 -1.6923,1.4884 -3.1146,1.4674 -1.3056,-0.0192 -3.273,-0.8198 -3.0321,-1.4674 0.4557,-1.2252 1.5424,-2.3515 2.7433,-3.5563 1.7535,-1.7593 4.0518,-2.5581 6.353,-2.7794 1.3394,-0.1288 3.6631,-1.4888 4.5378,-2.2443 1.2611,-1.0892 1.6979,-3.3633 2.1039,-5.1445 0.3173,-1.3922 0.495,-2.7104 0.495,-2.7104 -0.083,-0.7489 -0.4849,-1.66 -1.7532,-2.1925 -2.085,-0.8753 -4.2959,-1.5746 -5.7961,-2.4342 l -3.6715,-0.9322 c 0.058,-0.3691 -0.038,-0.68 -0.3507,-0.8977 -1.3493,-0.9398 -2.4354,-1.8852 -3.4033,-2.8312 -1.7922,-0.5124 -3.5511,-1.024 -5.1567,-1.5364 l -1.7326,-1.1221 c -0.618,-2.0997 -1.8476,-3.9465 -3.919,-5.438 -2.3381,-0.677 -4.9162,-1.2591 -8.7457,-1.312 -0.5874,-0.0482 -1.1546,-0.0633 -1.6913,-0.0691 z" />
    <path
       style="stroke-width:1.57500005;stroke-miterlimit:4;stroke-dasharray:none"
       inkscape:connector-curvature="0"
       id="path24"
       d="m 1208.1267,587.9242 c 0.5582,-1.6175 1.343,-3.1876 3.3909,-4.4934 0.05,-1.0826 0.6112,-1.9515 1.4128,-2.7197 1.9541,-0.9665 3.7441,-2.1426 5.51,-3.0744 1.9991,-0.1006 3.8666,-0.3112 6.2165,-0.1182 3.8295,0.053 6.4215,0.6237 8.7595,1.3007 2.1119,1.5206 3.3501,3.4068 3.9559,5.5576 -5.7883,-0.9245 -9.0999,-0.8125 -12.7155,-0.8277 2.9991,0.7883 5.3765,1.5159 7.2054,2.3649 1.5197,0.7054 2.4387,1.7164 2.8257,2.8379 0.7889,2.2864 -1.4889,4.7811 -3.8146,6.7992 -0.5424,3.3893 -1.8633,5.9304 -3.532,8.6912 0.9504,1.9529 1.9482,3.6625 2.6843,6.208 1.0904,0.1121 1.4994,0.3808 2.4017,0.6504 3.9533,4.0598 7.9366,7.7466 7.2055,12.1795 -0.2393,1.451 -2.5431,0.8277 -2.5431,0.8277 l -3.956,-4.2569 -13.4218,-2.9562 -10.5963,0.7095 -0.989,-29.6801 z" />
    <path
       style="stroke-width:1.57500005;stroke-miterlimit:4;stroke-dasharray:none"
       inkscape:connector-curvature="0"
       id="path26"
       d="m 1211.3056,599.5125 c -2.1506,3.9626 -6.8681,7.7104 -0.1413,12.416 -6.6199,6.9677 0.4409,10.0298 4.733,8.9277 -3.5225,-2.3573 -3.1896,-4.3809 -1.2716,-6.2671 0.4104,1.9326 0.1321,3.9258 3.9559,5.5576 -1.3991,-1.4781 -1.8267,-2.9562 -1.3421,-4.4343 0.3144,1.5963 1.7594,3.1927 3.9558,4.789 -1.2086,-1.5372 -1.8289,-3.0744 -1.9072,-4.6117 0.8765,1.5963 2.0657,3.5174 4.8035,4.789 1.1998,0.5573 2.765,0.5621 3.9559,-0.1182 0.5952,0.6091 1.3571,1.0914 3.0376,1.4781 1.4777,0.34 2.7549,0.2365 2.7549,0.2365 -2.2015,-3.046 -6.8615,-4.2401 -10.8081,-5.9715 2.3636,0.7996 4.0771,1.9257 7.276,2.3058 -2.388,-1.0694 -3.4117,-2.3292 -4.7329,-3.5474 1.718,1.1302 3.6604,2.1978 6.499,3.0153 -1.5853,-2.0102 -3.5643,-4.0204 -4.0972,-6.0306" />
    <path
       style="stroke-width:1.57500005;stroke-miterlimit:4;stroke-dasharray:none"
       inkscape:connector-curvature="0"
       id="path28"
       d="m 1222.9745,577.4423 c 0.5367,0.006 1.1134,0.0308 1.7008,0.0791 3.8295,0.053 6.4022,0.6277 8.7404,1.3047 2.0714,1.4915 3.3033,3.3367 3.9213,5.4364 l 1.7244,1.1268 c 1.6056,0.5124 3.3576,1.0098 5.1497,1.5222 0.968,0.946 2.0523,1.9069 3.4016,2.8467 0.3125,0.2177 0.4121,0.5205 0.3543,0.8896 l 3.6852,0.9291 c 1.5001,0.8595 3.7024,1.5563 5.7875,2.4315 1.2684,0.5325 1.6653,1.4455 1.7481,2.1943 0,0 -0.1788,1.3161 -0.4961,2.7083 -0.4061,1.7812 -0.8414,4.0705 -2.1024,5.1596 -0.8747,0.7554 -3.1961,2.1051 -4.5355,2.2339 -2.3011,0.2213 -4.6009,1.0281 -6.3545,2.7874 -1.2009,1.2048 -2.2845,2.3332 -2.7402,3.5584 -0.2409,0.6476 1.718,1.4436 3.0236,1.4629 1.4224,0.021 2.346,-0.7177 3.1182,-1.4629 0.8716,-0.0455 1.483,0.3155 1.5591,0.9884 0.068,0.6048 -0.3118,1.2639 -0.8504,1.9571 0.587,0.641 1.183,1.7208 0.8976,2.7874 -0.3223,1.2042 -2.6624,2.3525 -3.874,2.3525 -4.823,0 -6.4655,-2.5637 -8.764,-4.4875 -0.2404,-0.2012 -0.7032,-0.3092 -1.1811,-0.3558 1.9189,2.3559 3.2009,4.7434 2.7639,7.3935 -0.2393,1.451 -2.5749,0.8105 -2.5749,0.8105 l -0.047,-0.0593 c -0.5015,1.3516 -2.2671,2.8023 -4.8899,0.8303 1.037,0.0316 1.9607,-0.1747 2.6221,-0.9291 -1.5824,0.3951 -2.7357,0.3913 -3.189,-0.2372 0.6785,-0.3987 0.9571,-0.9414 1.0393,-1.4431 -0.4499,-0.0316 -0.966,-0.0864 -1.5354,-0.2175 -1.6805,-0.3867 -2.4285,-0.8735 -3.0237,-1.4826 -1.191,0.6803 -2.7688,0.6759 -3.9686,0.1186 -2.1661,-1.0061 -3.3417,-2.4194 -4.1812,-3.756 l -0.189,-0.0396 -0.2834,0.0198 c 0.2492,1.198 0.8298,2.3999 1.7716,3.5979 -1.5943,-1.1587 -2.815,-2.3206 -3.4725,-3.4793 l -0.685,0.0396 c 0.053,1.0278 0.5625,2.0759 1.5354,3.1037 -2.1153,-0.9027 -2.9623,-1.9327 -3.378,-2.9851 l -1.9843,0.1384 c 0.02,1.1037 0.8015,2.2729 2.6929,3.5386 -3.6266,0.9312 -9.2167,-1.1116 -6.8742,-5.9701 l -0.1889,-5.041 c -1.7423,-2.1713 -1.2596,-4.1529 -0.189,-6.0887 L 1208.116,587.92 c 0.5582,-1.6175 1.3538,-3.1817 3.4016,-4.4875 0.05,-1.0826 0.6158,-1.9599 1.4174,-2.7281 1.954,-0.9665 3.7382,-2.1323 5.5041,-3.0641 1.4993,-0.0754 2.9253,-0.2151 4.5355,-0.1977 z m 6.7796,41.6723 c 0.9606,0.4805 1.8511,1.0341 2.6221,1.6606 -0.1529,-0.4041 -0.3078,-0.8039 -0.4961,-1.1861 l -2.126,-0.4744 z" />
    <path
       style="stroke-width:1.57500005;stroke-miterlimit:4;stroke-dasharray:none"
       inkscape:connector-curvature="0"
       id="path30"
       d="m 1244.4364,592.3585 c 0,0 -0.5795,1.7744 -1.4128,2.158 -0.7064,0.3252 -1.5541,0.0444 -2.0839,-0.4434 -0.6345,-0.5842 -1.1656,-1.8328 -1.1921,-1.8624 1.8895,-0.4543 2.9202,0.2767 4.4062,0.2069 1.5423,-0.0724 1.9073,-0.7686 1.9073,-0.7686 l 0,-0.0591" />
    <path
       style="stroke-width:1.57500005;stroke-miterlimit:4;stroke-dasharray:none"
       inkscape:connector-curvature="0"
       id="path32"
       d="m 1258.8119,597.4431 c -0.9065,0.344 -2.3429,0.4093 -2.9315,0.0591 -0.1752,0.9846 0.974,1.654 2.1193,1.4781" />
    <path
       style="stroke-width:1.57500005;stroke-miterlimit:4;stroke-dasharray:none"
       inkscape:connector-curvature="0"
       id="path34"
       d="m 1250.3703,605.1292 c -4.0569,0.2837 -6.5496,2.4718 -8.5476,5.262" />
    <path
       style="stroke-width:1.57500005;stroke-miterlimit:4;stroke-dasharray:none"
       inkscape:connector-curvature="0"
       id="path36"
       d="m 1245.0015,588.8702 c 0,0 -0.4591,0.3547 -0.9183,0.2365 -0.5968,-0.1537 -1.3165,-0.6515 -1.3165,-0.6515 -3.0754,0 -5.4738,1.8265 -7.3725,3.4303" />
    <path
       style="stroke-width:1.57500005;stroke-miterlimit:4;stroke-dasharray:none"
       inkscape:connector-curvature="0"
       id="path38"
       d="m 1237.5842,593.8662 c 0,0 -2.1104,-0.9977 -2.0132,-0.3252 0.097,0.6725 1.6725,1.0564 2.4017,3.0153 0.5475,1.4707 1.6104,2.7455 3.0376,3.8135 2.2155,1.6577 4.5211,1.7442 7.2761,2.0989" />
    <path
       style="stroke-width:1.57500005;stroke-miterlimit:4;stroke-dasharray:none"
       inkscape:connector-curvature="0"
       id="path40"
       d="m 1253.8318,594.1913 c 0,0 -0.088,1.3894 -1.4128,1.7737 -1.3245,0.3843 -3.0729,-0.6947 -3.8853,-0.2365 -0.8124,0.4582 1.698,1.3117 0.6357,2.0693 -2.0309,1.4485 -6.2165,-1.9511 -6.2165,-1.9511" />
    <path
       style="stroke-width:1.57500005;stroke-miterlimit:4;stroke-dasharray:none"
       inkscape:connector-curvature="0"
       id="path42"
       d="m 1223.5265,603.0599 c 0,0 -1.0772,1.6259 -0.2119,4.1387 0.8654,2.5128 1.872,3.3553 3.6734,5.9124 1.8013,2.5571 2.9669,3.7248 3.532,4.316 0.5314,0.5559 1.4527,2.1058 1.9779,3.6065 0.1784,0.5099 0.4388,1.8631 -0.9183,2.6606 0.4533,0.6286 1.5965,0.6316 3.1788,0.2365 -0.6614,0.7544 -1.5766,0.9777 -2.6137,0.946 3.3245,2.4996 5.2769,-0.5139 5.0155,-1.8328 -0.9061,-4.5726 -4.9186,-8.3076 -7.3467,-12.5342 0,0 -1.3422,-2.3649 -1.3422,-2.3649" />
    <path
       style="stroke-width:1.57500005;stroke-miterlimit:4;stroke-dasharray:none"
       inkscape:connector-curvature="0"
       id="path44"
       d="m 1242.3878,607.0803 c 0,0 -6.0062,3.6537 -6.2871,1.7737 -0.398,-2.6644 10.4903,-5.5872 10.4903,-5.5872" />
  </g>
  <g
     style="fill:#ffffff;stroke:#000000;stroke-width:1.57500005;stroke-miterlimit:4;stroke-dasharray:none"
     id="g56"
     transform="translate(4.9842,-21.21255)" />
  <path
     style="fill:none;stroke:#000000;stroke-width:1.57500005;stroke-linecap:butt;stroke-linejoin:miter;stroke-miterlimit:4;stroke-opacity:1;stroke-dasharray:none"
     d="m 1294.0314,484.7081 c 42.9297,40.96271 78.8036,120.48136 58.2407,231.98826"
     id="path3890"
     inkscape:connector-curvature="0"
     sodipodi:nodetypes="cc" />
</svg>
