<?xml version="1.0" encoding="UTF-8" standalone="no"?>
<svg
   xmlns:dc="http://purl.org/dc/elements/1.1/"
   xmlns:cc="http://creativecommons.org/ns#"
   xmlns:rdf="http://www.w3.org/1999/02/22-rdf-syntax-ns#"
   xmlns:svg="http://www.w3.org/2000/svg"
   xmlns="http://www.w3.org/2000/svg"
   xmlns:sodipodi="http://sodipodi.sourceforge.net/DTD/sodipodi-0.dtd"
   xmlns:inkscape="http://www.inkscape.org/namespaces/inkscape"
   sodipodi:docname="lib.svg"
   inkscape:version="1.0 (4035a4fb49, 2020-05-01)"
   id="svg887"
   version="1.1"
   viewBox="0 0 338.66666 225.68959"
   height="853"
   width="1280">
  <defs
     id="defs881" />
  <sodipodi:namedview
     inkscape:window-maximized="1"
     inkscape:window-y="-8"
     inkscape:window-x="-8"
     inkscape:window-height="1017"
     inkscape:window-width="1920"
     units="px"
     showgrid="false"
     inkscape:document-rotation="0"
     inkscape:current-layer="layer1"
     inkscape:document-units="mm"
     inkscape:cy="560"
     inkscape:cx="400"
     inkscape:zoom="0.35"
     inkscape:pageshadow="2"
     inkscape:pageopacity="0.0"
     borderopacity="1.0"
     bordercolor="#666666"
     pagecolor="#ffffff"
     id="base" />
  <metadata
     id="metadata884">
    <rdf:RDF>
      <cc:Work
         rdf:about="">
        <dc:format>image/svg+xml</dc:format>
        <dc:type
           rdf:resource="http://purl.org/dc/dcmitype/StillImage" />
        <dc:title></dc:title>
      </cc:Work>
    </rdf:RDF>
  </metadata>
  <g
     id="layer1"
     inkscape:groupmode="layer"
     inkscape:label="Layer 1">
    <rect
       y="-6.8035712"
       x="-6.8035712"
       height="250.97618"
       width="354.54166"
       id="rect1450"
       style="fill:#005c94;stroke-width:0.264583;fill-opacity:1" />
    <path
       style="fill:#eee8aa;stroke-width:0.0819207;fill-opacity:1"
       d="m 173.65555,169.15213 c 0,-0.0321 5.52413,-5.58854 12.27586,-12.34748 l 12.27585,-12.289 0.33715,-0.69632 c 0.43418,-0.89674 0.58573,-1.56354 0.58723,-2.58377 9e-4,-1.01221 -0.13365,-1.57096 -0.61945,-2.56121 -0.84765,-1.72781 -2.60237,-2.87592 -4.61365,-3.01867 -0.97253,-0.069 -1.87074,0.1178 -2.87583,0.59823 l -0.77825,0.37199 -15.8584,15.84991 -15.85841,15.8499 -1.34491,-0.29895 c -3.95379,-0.87889 -8.09225,-2.27395 -11.61977,-3.91698 -0.69497,-0.32371 -1.27689,-0.62938 -1.29318,-0.67929 -0.0163,-0.0499 7.93578,-8.03101 17.67126,-17.73581 9.73549,-9.70478 17.93838,-17.92156 18.22867,-18.25948 1.49104,-1.73574 1.84397,-4.02608 0.93221,-6.04953 -1.49084,-3.30861 -5.71596,-4.33939 -8.59328,-2.09643 -0.24781,0.19317 -8.91088,8.81434 -19.25127,19.15815 -10.34039,10.3438 -18.8248,18.80692 -18.85425,18.80692 -0.10102,0 -1.85458,-1.43417 -3.07117,-2.5118 -1.98746,-1.76045 -4.12527,-4.0133 -5.88179,-6.19834 l -0.64695,-0.8048 19.05047,-19.06095 c 16.56736,-16.57647 19.09375,-19.13569 19.38251,-19.63439 1.07625,-1.8588 1.07577,-3.98085 -9e-4,-5.80864 -1.09938,-1.86558 -3.38807,-2.97979 -5.48955,-2.67251 -1.04201,0.15236 -1.94768,0.51635 -2.7267,1.09586 -0.18023,0.13407 -8.44043,8.35027 -18.35602,18.25821 l -18.02829,18.01447 -0.51584,-1.09065 c -1.77709,-3.7572 -3.21013,-7.97555 -4.09929,-12.06677 l -0.24898,-1.14567 15.80012,-15.8119 c 12.22581,-12.234913 15.86617,-15.923267 16.09209,-16.304206 0.95628,-1.612452 1.05765,-3.695506 0.26077,-5.358339 -0.68539,-1.430162 -1.82403,-2.425178 -3.35645,-2.933079 -0.57216,-0.189645 -0.79054,-0.217448 -1.72033,-0.219056 -0.95486,-0.0014 -1.13273,0.02169 -1.72034,0.225519 -1.3596,0.471676 -0.85479,-0.0022 -13.92638,13.073948 -6.66832,6.670623 -12.14419,12.128403 -12.16861,12.128403 -0.10363,0 0.21934,-2.83871 0.54525,-4.79236 1.33062,-7.975893 4.27306,-15.423219 8.73901,-22.118568 8.5844,-12.869666 22.14326,-21.655275 37.41374,-24.242619 3.72227,-0.630682 6.38468,-0.823548 10.48584,-0.75959 3.92604,0.06123 6.51271,0.335417 10.19911,1.081136 14.5496,2.943221 27.35271,11.5061 35.64401,23.839154 3.0315,4.509271 5.47541,9.61639 7.06683,14.767804 3.80697,12.323193 3.30535,25.495713 -1.42668,37.463733 -7.42344,18.77496 -24.31941,32.16538 -44.27426,35.0883 -0.74343,0.10893 -1.79406,0.23933 -2.33474,0.28986 -0.54067,0.0505 -1.08442,0.10815 -1.20833,0.12801 -0.1239,0.0198 -0.22527,0.0101 -0.22527,-0.0223 z"
       id="path870" />
  </g>
</svg>
