<?xml version="1.0" encoding="UTF-8" standalone="no"?>
<svg
   xmlns:dc="http://purl.org/dc/elements/1.1/"
   xmlns:cc="http://creativecommons.org/ns#"
   xmlns:rdf="http://www.w3.org/1999/02/22-rdf-syntax-ns#"
   xmlns:svg="http://www.w3.org/2000/svg"
   xmlns="http://www.w3.org/2000/svg"
   xmlns:sodipodi="http://sodipodi.sourceforge.net/DTD/sodipodi-0.dtd"
   xmlns:inkscape="http://www.inkscape.org/namespaces/inkscape"
   width="1280"
   height="853"
   viewBox="0 0 338.66666 225.68959"
   version="1.1"
   id="svg853"
   inkscape:version="1.0 (4035a4fb49, 2020-05-01)"
   sodipodi:docname="Marksoc_flag.svg">
  <defs
     id="defs847" />
  <sodipodi:namedview
     id="base"
     pagecolor="#ffffff"
     bordercolor="#666666"
     borderopacity="1.0"
     inkscape:pageopacity="0.0"
     inkscape:pageshadow="2"
     inkscape:zoom="0.35"
     inkscape:cx="400"
     inkscape:cy="560"
     inkscape:document-units="mm"
     inkscape:current-layer="layer1"
     inkscape:document-rotation="0"
     showgrid="false"
     units="px"
     inkscape:window-width="1920"
     inkscape:window-height="1017"
     inkscape:window-x="-8"
     inkscape:window-y="-8"
     inkscape:window-maximized="1" />
  <metadata
     id="metadata850">
    <rdf:RDF>
      <cc:Work
         rdf:about="">
        <dc:format>image/svg+xml</dc:format>
        <dc:type
           rdf:resource="http://purl.org/dc/dcmitype/StillImage" />
        <dc:title></dc:title>
      </cc:Work>
    </rdf:RDF>
  </metadata>
  <g
     inkscape:label="Layer 1"
     inkscape:groupmode="layer"
     id="layer1">
    <rect
       y="-0.26995763"
       x="-3.9349859"
       height="232.07739"
       width="345.47021"
       id="rect1396"
       style="fill:#ffffff;stroke-width:0.264583" />
    <path
       style="fill:#ec1d26;fill-opacity:1;stroke-width:0.279835"
       d="m 152.54296,193.96923 c 0,-0.0922 1.32222,-4.36421 2.93828,-9.49293 1.61605,-5.12878 2.93827,-9.51342 2.93827,-9.74366 0,-0.39453 -1.54212,-1.59882 -11.9847,-9.35899 -2.35908,-1.75312 -4.24797,-3.22238 -4.19754,-3.26506 0.16494,-0.13947 10.61321,-0.42705 15.62258,-0.42986 l 4.89712,-0.003 3.18365,-9.44431 c 1.751,-5.19437 3.27506,-9.61592 3.3868,-9.82566 0.12196,-0.22904 0.89362,1.67052 1.93232,4.75722 0.95106,2.8262 2.44922,7.24662 3.32924,9.82314 l 1.60009,4.6846 5.59669,0.0558 c 3.07818,0.0298 6.66706,0.0865 7.9753,0.1243 1.30824,0.0376 3.44548,0.0766 4.74941,0.0865 2.31446,0.0165 2.35773,0.0298 1.81896,0.53203 -0.30341,0.2826 -3.76304,2.88202 -7.68773,5.77649 -3.92469,2.89454 -7.40269,5.50315 -7.72889,5.79702 l -0.59311,0.53425 1.6173,5.09248 c 3.30379,10.4029 4.474,14.27249 4.3528,14.39369 -0.0685,0.0685 -3.8569,-2.53147 -8.41875,-5.77764 -4.56185,-3.24612 -8.33979,-5.90206 -8.39539,-5.90206 -0.0555,0 -3.82562,2.64445 -8.37787,5.87654 -4.55227,3.2321 -8.33936,5.87654 -8.41581,5.87654 -0.0763,-1.6e-4 -0.13881,-0.0756 -0.13881,-0.16823 z m -26.58433,-44.71085 v -6.89072 l 4.2675,-0.007 c 4.96036,-0.007 7.3626,-0.42118 10.0041,-1.7305 1.53884,-0.76273 2.98474,-2.0559 9.38983,-8.3979 4.16399,-4.123 7.66684,-7.49635 7.78411,-7.49635 0.47941,0 2.48192,1.73156 6.13087,5.30127 l 3.85624,3.77252 -7.49411,7.52129 c -4.12175,4.13707 -8.31263,8.15149 -9.31302,8.92129 -2.4769,1.90598 -6.85269,3.99528 -10.22056,4.87998 -2.44593,0.64252 -3.51111,0.75082 -8.59835,0.87423 l -5.80661,0.14081 z m 76.25511,6.62962 c -4.66825,-0.59906 -9.95602,-2.59474 -13.4321,-5.06949 -0.76956,-0.54786 -7.06585,-6.61627 -13.99177,-13.48528 -12.58588,-12.48252 -14.62681,-14.31974 -17.91486,-16.12709 -4.75527,-2.61381 -8.62796,-3.46399 -15.77926,-3.46399 -2.78468,0 -5.06305,0.0641 -5.06305,0.14212 0,0.078 0.31531,1.47634 0.70052,3.10696 1.01415,4.29199 1.15258,5.81794 0.60376,6.65553 -0.24756,0.37761 -0.7003,0.76606 -1.00642,0.86324 -0.99623,0.3163 -0.45713,0.74352 -14.42951,-11.43817 -3.69383,-3.22039 -6.81464,-5.9401 -6.93514,-6.04371 -0.18972,-0.16294 7.17635,-6.73927 17.19192,-15.348945 3.20886,-2.7584 3.95743,-3.05137 4.98332,-1.95019 0.78619,0.84387 0.73255,2.0983 -0.26903,6.288855 -0.46174,1.93206 -0.83951,3.62522 -0.83951,3.76257 0,0.13752 2.35844,0.25054 5.2469,0.25153 9.27082,0.003 15.34845,1.42742 22.216,5.20714 4.80478,2.64441 6.46446,4.09643 19.96916,17.47091 11.85795,11.74358 13.33713,13.11486 15.03082,13.93427 2.72598,1.31881 5.00665,1.71296 9.94447,1.71857 l 4.2675,0.007 v 6.85595 6.85598 l -4.82716,-0.042 c -2.65496,-0.0231 -5.20494,-0.0905 -5.66666,-0.14972 z m -0.57238,-27.91915 c -0.90985,-0.9098 -0.88714,-1.85461 0.15268,-6.3542 0.46174,-1.99812 0.83952,-3.70073 0.83952,-3.78352 0,-0.083 -2.73891,-0.0876 -6.08642,-0.01 -6.77577,0.15568 -8.05852,0.39108 -12.48391,2.29182 l -2.46524,1.05884 -4.80114,-4.72262 c -2.64064,-2.59744 -4.83801,-4.85522 -4.88305,-5.01726 -0.1732,-0.62289 6.77937,-4.17999 10.57162,-5.40871 4.51308,-1.46225 6.56394,-1.75244 13.50203,-1.91043 3.65535,-0.0832 6.64611,-0.25383 6.64611,-0.3794 0,-0.12554 -0.37778,-1.77515 -0.83952,-3.66599 -1.00323,-4.108425 -1.06173,-5.486515 -0.26903,-6.337445 0.94944,-1.01914 1.81046,-0.78048 4.00557,1.11017 10.66502,9.185835 18.35149,16.031345 18.17063,16.182555 -0.12099,0.10115 -1.73116,1.50562 -3.57808,3.12091 -12.71861,11.12348 -16.74486,14.51301 -17.23948,14.51301 -0.3054,0 -0.86459,-0.30904 -1.24236,-0.68688 z m -35.8255,-24.71147 c -1.60829,-0.57375 -2.81813,-1.44023 -3.54065,-2.53575 -0.46255,-0.70135 -0.49408,-2.302485 -0.49583,-25.164642 l -0.001,-24.415625 h -5.73663 -5.73663 v -9.794215 -9.79422 l 12.52265,0.0033 c 13.83306,0.0066 14.86543,0.102126 18.01016,1.689687 2.41692,1.220061 5.21588,4.05587 6.34491,6.428464 1.21313,2.549255 1.44505,3.809902 1.45288,7.897534 l 0.007,3.567899 h -5.73664 -5.73659 v 24.420614 24.420609 l -0.69376,1.020975 c -0.43938,0.64657 -1.28246,1.30896 -2.29931,1.80645 -2.10593,1.03035 -6.12291,1.24531 -8.35959,0.44735 z"
       id="path20"
       inkscape:connector-curvature="0" />
  </g>
</svg>
