<?xml version="1.0" encoding="UTF-8" standalone="no"?>
<svg
   xmlns:dc="http://purl.org/dc/elements/1.1/"
   xmlns:cc="http://creativecommons.org/ns#"
   xmlns:rdf="http://www.w3.org/1999/02/22-rdf-syntax-ns#"
   xmlns:svg="http://www.w3.org/2000/svg"
   xmlns="http://www.w3.org/2000/svg"
   xmlns:sodipodi="http://sodipodi.sourceforge.net/DTD/sodipodi-0.dtd"
   xmlns:inkscape="http://www.inkscape.org/namespaces/inkscape"
   width="1280"
   height="853"
   viewBox="0 0 338.66666 225.68959"
   version="1.1"
   id="svg853"
   inkscape:version="1.0 (4035a4fb49, 2020-05-01)"
   sodipodi:docname="Sorel_flag.svg">
  <defs
     id="defs847" />
  <sodipodi:namedview
     id="base"
     pagecolor="#ffffff"
     bordercolor="#666666"
     borderopacity="1.0"
     inkscape:pageopacity="0.0"
     inkscape:pageshadow="2"
     inkscape:zoom="0.35"
     inkscape:cx="400"
     inkscape:cy="560"
     inkscape:document-units="mm"
     inkscape:current-layer="layer1"
     inkscape:document-rotation="0"
     showgrid="false"
     units="px"
     inkscape:window-width="1920"
     inkscape:window-height="1017"
     inkscape:window-x="-8"
     inkscape:window-y="-8"
     inkscape:window-maximized="1" />
  <metadata
     id="metadata850">
    <rdf:RDF>
      <cc:Work
         rdf:about="">
        <dc:format>image/svg+xml</dc:format>
        <dc:type
           rdf:resource="http://purl.org/dc/dcmitype/StillImage" />
        <dc:title></dc:title>
      </cc:Work>
    </rdf:RDF>
  </metadata>
  <g
     inkscape:label="Layer 1"
     inkscape:groupmode="layer"
     id="layer1">
    <rect
       y="-2.8159292"
       x="-6.0476174"
       height="231.32144"
       width="350.7619"
       id="rect872"
       style="fill:#000000;fill-opacity:1;stroke:#0038b8;stroke-width:2.64583;paint-order:markers fill stroke" />
    <g
       style="fill:#ff0000;stroke:none"
       transform="matrix(0.53292372,0,0,0.53292372,91.266801,36.672476)"
       id="g878">
      <g
         style="fill:#ff0000;stroke:none"
         transform="translate(429.39177,59.691521)"
         id="g866">
        <path
           style="fill:#ff0000;fill-opacity:1;stroke:none;stroke-width:1px;stroke-linecap:butt;stroke-linejoin:miter;stroke-opacity:1"
           d="m -146.18164,129.18727 c 0,0 -1.33195,-26.30603 -28.80344,-27.47149 -27.47149,-1.16546 -33.29878,26.63902 -31.46734,32.6328 1.83143,5.99378 1.16546,7.82521 11.15509,19.31329 l 6.65975,-1.49844 c 0,0 -23.30914,27.1385 -24.64109,32.79929 -1.33195,5.6608 5.82728,4.99482 5.82728,4.99482 l 28.96994,-37.96061 c 0,0 -14.65146,-8.49119 -16.4829,-18.9803 -1.83143,-10.48912 4.66183,-22.97616 22.64317,-24.6411 17.98134,-1.66493 26.13954,20.81174 26.13954,20.81174"
           id="path846"
           inkscape:connector-curvature="0"
           sodipodi:nodetypes="cscccscccsc" />
        <g
           style="fill:#ff0000;stroke:none"
           id="g855"
           transform="translate(-429.39177,-59.691525)">
          <path
             style="fill:#ff0000;stroke:none;stroke-width:1px;stroke-linecap:butt;stroke-linejoin:miter;stroke-opacity:1"
             d="M 149.75041,96.83209 C 132.2088,129.7962 123.2614,99.3044 123.2614,99.3044 141.27393,96.47891 129.50103,78.34865 129.50103,78.34865 108.07436,58.33472 105.33975,50.2825 105.33975,50.2825 c -3.49637,0.16649 -2.49741,8.99067 -2.49741,8.99067 L 45.734942,0.66731741 C 32.082442,11.156432 85.859972,71.09423 85.859972,71.09423 L 30.251012,41.79131 c -5.4943,14.65146 51.44661,48.9492 51.44661,48.9492 L 18.596442,80.2514 c -5.6608,15.65042 65.76508,29.63591 65.76508,29.63591 l -46.95127,15.31744 c 3.49637,13.15302 54.60999,0.16649 54.60999,0.16649 l -39.12606,26.47253 c 4.32884,12.65354 53.777518,-15.65042 53.777518,-15.65042 l -26.028188,32.92433 c 11.41971,7.65238 40.145578,-26.37129 40.145578,-26.37129 l -17.30616,34.61231 c 8.1233,5.88645 34.49459,-30.72726 34.49459,-30.72726 l 7.48726,28.35498 c -42.12295,-19.14679 -23.67499,25.68262 -23.67499,25.68262 0,0 -39.027158,22.54509 -36.966898,19.36641 2.06026,-3.17868 -1.23615,-4.53256 -1.23615,-4.53256 0,0 -0.76524,-1.29502 -10.59561,3.35527 -9.83037,4.6503 -0.76524,9.41832 -0.76524,9.41832 -3.00209,4.12051 3.82619,7.35806 3.82619,7.35806 -1.6482,4.00278 5.65099,4.70916 5.65099,4.70916 0,0 6.12191,-4.4737 8.82968,-5.88645 2.70776,-1.41275 -1.05956,-5.53326 -1.05956,-5.53326 l 0.47091,-2.59004 36.665248,-20.33804 9.24905,0.20639 c -18.2019,-28.31611 15.35573,-19.61213 13.26925,-16.56441 9.15716,24.4746 -10.48912,34.63073 -10.48912,34.63073 l 9.81686,0.77031 c 0,0 0.23546,12.83246 -10.14737,19.26862 l 10.14737,0.73138 c 0,0 0.23546,12.83246 -10.47787,19.30755 l 9.30059,-1.98747 8.12329,22.83942 8.12329,-22.83942 9.30059,1.98747 c -10.71333,-6.47509 -10.47787,-19.30755 -10.47787,-19.30755 l 10.14737,-0.73138 c -10.38283,-6.43616 -10.14737,-19.26862 -10.14737,-19.26862 l 9.81686,-0.77031 c 0,0 -19.64628,-10.15613 -10.48912,-34.63073 -2.08648,-3.04772 31.47115,-11.7517 13.26925,16.56441 l 9.24905,-0.20639 36.66525,20.33804 0.47091,2.59004 c 0,0 -3.76732,4.12051 -1.05956,5.53326 2.70777,1.41275 8.82968,5.88645 8.82968,5.88645 0,0 7.29919,-0.70638 5.65099,-4.70916 0,0 6.82828,-3.23755 3.82619,-7.35806 0,0 9.06513,-4.76802 -0.76524,-9.41832 -9.83037,-4.65029 -10.59561,-3.35527 -10.59561,-3.35527 0,0 -3.29641,1.35388 -1.23615,4.53256 2.06026,3.17868 -36.9669,-19.36641 -36.9669,-19.36641 0,0 18.44796,-44.82941 -23.67499,-25.68262 l 7.48726,-28.35498 c 0,0 26.37129,36.61371 34.49459,30.72726 l -17.30616,-34.61231 c 0,0 28.72587,34.02367 40.14558,26.37129 L 204.1311,136.19335 c 0,0 49.44868,28.30396 53.77752,15.65042 l -39.12606,-26.47253 c 0,0 51.11362,12.98653 54.60999,-0.16649 l -46.95127,-15.31744 c 0,0 71.42588,-13.98549 65.76508,-29.63591 l -63.10118,10.48911 c 0,0 56.94091,-34.29774 51.44661,-48.9492 l -55.60896,29.30292 c 0,0 53.77753,-59.937803 40.12503,-70.42691759 L 207.96046,59.27317 c 0,0 0.99896,-8.82418 -2.49741,-8.99067 0,0 -2.73461,8.05222 -24.16128,28.06615 0,0 -11.7729,18.13026 6.23963,20.95575 0,0 -8.9474,30.4918 -26.48901,-2.47231 l 7.53466,1.47162 -4.88575,-15.2459 6.06304,1.88366 -5.12121,-13.65656 6.53395,2.00139 -2.59003,-6.00418 -0.64751,-0.76523 c 0,0 0.23546,-12.53814 -2.41345,-14.48067 0,0 10.30129,2.94323 10.06583,-3.23754 l -5.23894,-0.35319 -13.00905,-8.65308 c 0,0 -6.82828,-3.06095 -10.12469,1.94253 0,0 -9.7715,0.0589 -7.06374,10.83106 0,0 5.35667,-4.82688 11.36085,-1.00069 6.00417,3.82619 7.29919,13.4211 7.29919,13.4211 0,0 -8.35875,-8.1233 -12.18494,-5.4744 0,0 13.23272,8.78093 3.11981,37.32008 z"
             id="path64"
             inkscape:connector-curvature="0"
             sodipodi:nodetypes="cccccccccccccccccccccscscccccccccccccccccccccccccccccccscscccccccccccccccccccccccccccccccccc" />
          <path
             inkscape:connector-curvature="0"
             id="path72"
             d="m 151.28089,42.17642 3.06095,1.20673 c 0,0 -2.44287,2.20741 0.38262,3.20811 2.8255,1.0007 3.20812,-1.50104 3.20812,-1.50104 l 5.00348,3.44357 0.23546,0.41205 -0.35319,0.67694 -3.47301,-1.50104 c 0,0 -10.44844,3.44357 -8.06443,-5.94532 z"
             style="fill:#ff0000;stroke:none;stroke-width:1px;stroke-linecap:butt;stroke-linejoin:miter;stroke-opacity:1" />
          <path
             inkscape:connector-curvature="0"
             id="path80"
             d="m 129.20671,47.03274 c 0,0 2.17799,9.9481 13.53883,7.35806 11.36085,-2.59003 12.89132,4.76803 12.89132,4.76803 0,0 -7.71125,-5.94532 -14.12747,-0.82411 -6.41623,5.12121 -13.06792,-9.53604 -13.06792,-9.53604 z"
             style="fill:#ff0000;stroke:none;stroke-width:1px;stroke-linecap:butt;stroke-linejoin:miter;stroke-opacity:1" />
          <g
             style="fill:#ff0000;stroke:none"
             transform="translate(-91.123038,-75.87629)"
             id="g917">
            <path
               style="fill:#ff0000;stroke:none;stroke-width:1.09476px;stroke-linecap:butt;stroke-linejoin:miter;stroke-opacity:1"
               d="m 251.55328,205.25498 -8.07955,-0.19921 -0.0414,39.08796 8.28778,0.0996 z"
               id="path93-6"
               inkscape:connector-curvature="0" />
            <path
               style="fill:#ff0000;stroke:none;stroke-width:1px;stroke-linecap:butt;stroke-linejoin:miter;stroke-opacity:1"
               d="m 236.51748,194.07619 -0.11773,11.41971 23.07488,0.0589 0.0589,-11.71403 z"
               id="path93"
               inkscape:connector-curvature="0" />
          </g>
          <path
             inkscape:connector-curvature="0"
             id="path923"
             d="m 91.592312,242.34509 4.35597,3.29641 -0.70638,6.35736 -6.35736,-2.59003 -1.05956,-5.53326 -16.59978,-26.0181 -9.06513,6.946 -4.23825,-7.65238 8.94741,-4.12051 L 0.44860265,78.08698 76.036832,207.95221 l 7.43218,-5.51724 5.06234,9.18286 -10.24242,2.11912 z"
             style="fill:#ff0000;stroke:none;stroke-width:1px;stroke-linecap:butt;stroke-linejoin:miter;stroke-opacity:1" />
        </g>
      </g>
    </g>
  </g>
</svg>
