<?xml version="1.0" encoding="UTF-8" standalone="no"?>
<!-- Created with Inkscape (http://www.inkscape.org/) -->
<svg
   xmlns:dc="http://purl.org/dc/elements/1.1/"
   xmlns:cc="http://creativecommons.org/ns#"
   xmlns:rdf="http://www.w3.org/1999/02/22-rdf-syntax-ns#"
   xmlns:svg="http://www.w3.org/2000/svg"
   xmlns="http://www.w3.org/2000/svg"
   xmlns:sodipodi="http://sodipodi.sourceforge.net/DTD/sodipodi-0.dtd"
   xmlns:inkscape="http://www.inkscape.org/namespaces/inkscape"
   id="svg2"
   sodipodi:version="0.32"
   inkscape:version="0.46"
   width="1426"
   height="951"
   version="1.0"
   sodipodi:docname="National Bolshevik Party.svg"
   inkscape:output_extension="org.inkscape.output.svg.inkscape">
  <metadata
     id="metadata7">
    <rdf:RDF>
      <cc:Work
         rdf:about="">
        <dc:format>image/svg+xml</dc:format>
        <dc:type
           rdf:resource="http://purl.org/dc/dcmitype/StillImage" />
      </cc:Work>
    </rdf:RDF>
  </metadata>
  <defs
     id="defs5">
    <inkscape:perspective
       sodipodi:type="inkscape:persp3d"
       inkscape:vp_x="0 : 526.18109 : 1"
       inkscape:vp_y="0 : 1000 : 0"
       inkscape:vp_z="744.09448 : 526.18109 : 1"
       inkscape:persp3d-origin="372.04724 : 350.78739 : 1"
       id="perspective9" />
    <inkscape:perspective
       id="perspective2429"
       inkscape:persp3d-origin="372.04724 : 350.78739 : 1"
       inkscape:vp_z="744.09448 : 526.18109 : 1"
       inkscape:vp_y="0 : 1000 : 0"
       inkscape:vp_x="0 : 526.18109 : 1"
       sodipodi:type="inkscape:persp3d" />
    <inkscape:perspective
       id="perspective2614"
       inkscape:persp3d-origin="712.5 : 316.66667 : 1"
       inkscape:vp_z="1425 : 475 : 1"
       inkscape:vp_y="0 : 1000 : 0"
       inkscape:vp_x="0 : 475 : 1"
       sodipodi:type="inkscape:persp3d" />
  </defs>
  <sodipodi:namedview
     inkscape:window-height="712"
     inkscape:window-width="1024"
     inkscape:pageshadow="2"
     inkscape:pageopacity="0.0"
     guidetolerance="10.0"
     gridtolerance="10.0"
     objecttolerance="10.0"
     borderopacity="1.0"
     bordercolor="#666666"
     pagecolor="#ffffff"
     id="base"
     showgrid="false"
     showguides="true"
     inkscape:guide-bbox="true"
     inkscape:zoom="0.48316971"
     inkscape:cx="960.32511"
     inkscape:cy="475.5"
     inkscape:window-x="-4"
     inkscape:window-y="-4"
     inkscape:current-layer="svg2" />
  <rect
     y="0.5000003"
     x="0.50000119"
     id="rect5"
     style="fill:#eb0000;fill-opacity:1"
     height="950"
     width="1425" />
  <path
     transform="matrix(1.103956,0,0,1.155625,-187.09055,-111.23498)"
     d="M 1123.0043,507.72092 A 307.67242,296.1347 0 1 1 507.65948,507.72092 A 307.67242,296.1347 0 1 1 1123.0043,507.72092 z"
     sodipodi:ry="296.1347"
     sodipodi:rx="307.67242"
     sodipodi:cy="507.72092"
     sodipodi:cx="815.33191"
     id="path1921"
     style="fill:#ffffff;fill-opacity:1;fill-rule:nonzero;stroke:#000000;stroke-opacity:0"
     sodipodi:type="arc" />
  <path
     style="fill:#000000"
     d="M 941.37401,695.10779 C 933.52965,692.5158 928.3275,688.56431 910.61795,671.74581 C 871.97299,635.04531 854.81172,619.2465 853.31067,618.98828 C 852.42621,618.83613 846.77397,621.21595 840.75015,624.27676 C 823.23535,633.17635 805.4445,638.37445 777.05578,642.88687 C 773.71886,643.41729 761.38817,644.11254 749.65425,644.43189 C 730.41465,644.9555 727.19989,644.81747 716.91349,643.02613 C 699.37789,639.97237 689.19987,637.7233 679.55442,634.7708 C 638.75318,622.28142 611.94118,604.73525 592.34273,577.69819 C 587.90647,571.57817 585.92793,569.57062 584.3326,569.57062 C 581.80759,569.57062 570.12867,579.53085 570.02121,581.77592 C 569.98111,582.61375 574.12819,587.15312 579.23695,591.86338 C 584.34571,596.57365 588.5256,601.10188 588.5256,601.92611 C 588.5256,603.83836 577.74191,614.15616 575.74332,614.15616 C 574.91578,614.15616 570.12588,610.11542 565.09913,605.17673 L 555.9596,596.1973 L 552.61511,599.37132 C 550.77565,601.11703 543.33132,610.48713 536.07216,620.19378 C 516.01747,647.01006 513.35478,649.75692 493.94699,663.65056 C 484.55002,670.37767 476.24514,673.60354 468.32348,673.60354 C 463.40996,673.60354 460.35484,672.26137 452.71989,666.74855 C 447.20093,662.7636 445.19605,659.44929 442.72852,650.23171 C 440.1088,640.44558 445.75193,624.36994 454.95684,615.39675 C 459.12974,611.3289 517.99672,569.32165 521.41508,567.97241 C 524.10021,566.91259 522.07313,563.77899 513.75194,556.12616 C 508.89861,551.66267 504.92771,547.57236 504.92771,547.0366 C 504.92771,546.10384 515.02101,536.44784 517.57025,534.94182 C 518.40187,534.45053 522.17837,537.36828 529.27898,543.98808 C 535.04363,549.36239 540.25579,553.76413 540.86156,553.76973 C 543.10013,553.7904 561.37345,540.32329 569.03626,533.00547 C 584.47545,518.26134 594.79659,509.19436 596.14089,509.19436 C 596.89024,509.19436 598.92315,510.97082 600.65848,513.14204 C 613.01581,528.60346 631.58573,544.18134 646.5797,551.6643 C 666.0836,561.39801 678.34046,565.21971 698.13173,567.73824 C 723.02896,570.90654 742.82438,569.81875 768.7255,563.85898 C 780.80482,561.07958 788.23168,558.33698 788.23168,556.65571 C 788.23168,556.21467 786.45523,554.26994 784.28401,552.33413 C 774.82319,543.89903 734.32677,505.27207 716.24461,487.43565 C 709.09234,480.3806 702.13241,473.91378 700.77808,473.06496 C 699.42376,472.21613 694.1989,467.59287 689.16727,462.79105 C 628.49163,404.88662 614.50187,391.74309 612.59215,390.84785 C 611.2564,390.22168 610.25202,390.48757 608.71401,391.87449 C 607.57248,392.90391 596.39774,402.44042 583.88127,413.06676 C 571.36482,423.69309 560.23763,433.18046 559.15421,434.14979 C 557.18934,435.90773 557.15161,435.88342 544.29236,424.57714 C 537.20176,418.34286 528.68345,410.85576 525.36276,407.93917 C 500.18664,385.82671 492.3538,378.72734 492.12608,377.81481 C 491.98201,377.23747 501.59495,367.58417 513.48816,356.36303 C 525.38138,345.14189 539.70928,331.57207 545.32794,326.20786 C 550.94662,320.84367 559.93421,312.2613 565.30038,307.13592 C 570.66655,302.01056 578.81896,294.25919 583.41685,289.91067 C 588.01473,285.56215 595.20547,278.72998 599.39626,274.72808 L 607.01589,267.45188 L 627.72666,270.85271 C 674.31081,278.50211 688.14347,280.75094 702.31163,282.97825 C 723.11157,286.24812 728.78429,287.40703 728.78429,288.38655 C 728.78429,289.72884 724.76918,293.30238 690.70081,322.2818 C 673.07559,337.27426 658.53286,350.26406 658.38366,351.14802 C 658.04368,353.16226 663.09891,358.02702 707.42038,398.33723 C 715.84984,406.00378 725.04804,414.54195 727.86084,417.31093 C 737.22754,426.53175 781.16642,466.45685 794.94103,478.26341 C 799.23265,481.94187 809.19697,490.86451 817.08395,498.09149 C 839.92586,519.02194 843.54647,522.10672 844.48407,521.43659 C 846.5684,519.94681 854.10116,508.93858 858.58167,500.83457 C 866.79849,485.97262 870.21873,478.65014 872.68221,470.64644 C 876.4214,458.49802 877.50304,450.71101 878.05806,431.94404 C 878.56186,414.9092 878.19217,412.37071 872.20038,391.72243 C 868.18292,377.87784 863.46933,366.0046 858.22353,356.51563 C 852.9375,346.95386 837.08992,324.5262 823.68092,307.63055 C 806.53385,286.02485 770.48866,250.66155 750.13003,235.47104 C 741.65138,229.14474 717.08422,205.69941 717.98742,204.79621 C 718.63401,204.14961 745.3876,206.52764 752.47036,207.86126 C 778.04881,212.67743 792.03814,217.42389 810.06002,227.40091 C 816.19053,230.79481 823.46688,234.58421 826.22969,235.82183 C 837.93139,241.06362 868.1086,264.07651 884.46166,280.22902 C 906.00125,301.50447 924.92066,329.79969 936.61067,358.22137 C 939.34964,364.88055 943.24818,374.36582 945.27413,379.29975 C 953.35618,398.98283 957.1049,420.68476 957.20215,448.35368 C 957.2551,463.4186 955.88669,475.33052 952.28075,491.19264 C 950.03104,501.08867 942.50657,523.18542 939.19213,529.6294 C 933.12623,541.42263 921.08605,559.08963 908.82076,574.19436 C 907.37802,575.97111 906.19759,577.89593 906.19759,578.47174 C 906.19759,579.04754 908.60103,581.74663 911.53858,584.46971 C 914.47611,587.19279 921.26843,593.62777 926.63264,598.76965 C 945.17335,616.542 965.20907,635.25642 972.76214,641.85719 C 980.49643,648.61625 981.88852,650.9471 983.73669,660.23251 C 985.05269,666.84449 978.82679,683.47479 972.92775,689.10448 C 965.74893,695.95558 951.90883,698.58877 941.37401,695.10779 z"
     id="path2435" />
</svg>
