<?xml version="1.0" encoding="UTF-8" standalone="no"?>
<svg
   xmlns:dc="http://purl.org/dc/elements/1.1/"
   xmlns:cc="http://creativecommons.org/ns#"
   xmlns:rdf="http://www.w3.org/1999/02/22-rdf-syntax-ns#"
   xmlns:svg="http://www.w3.org/2000/svg"
   xmlns="http://www.w3.org/2000/svg"
   xmlns:sodipodi="http://sodipodi.sourceforge.net/DTD/sodipodi-0.dtd"
   xmlns:inkscape="http://www.inkscape.org/namespaces/inkscape"
   version="1.0"
   width="1280"
   height="768"
   viewBox="0 0 1280 768"
   id="svg8"
   sodipodi:docname="Nazcap_flag.svg"
   inkscape:version="1.0 (4035a4fb49, 2020-05-01)">
  <metadata
     id="metadata14">
    <rdf:RDF>
      <cc:Work
         rdf:about="">
        <dc:format>image/svg+xml</dc:format>
        <dc:type
           rdf:resource="http://purl.org/dc/dcmitype/StillImage" />
        <dc:title></dc:title>
      </cc:Work>
    </rdf:RDF>
  </metadata>
  <defs
     id="defs12" />
  <sodipodi:namedview
     fit-margin-bottom="0"
     fit-margin-right="0"
     fit-margin-left="0"
     fit-margin-top="0"
     inkscape:document-rotation="0"
     pagecolor="#ffffff"
     bordercolor="#666666"
     borderopacity="1"
     objecttolerance="10"
     gridtolerance="10"
     guidetolerance="10"
     inkscape:pageopacity="0"
     inkscape:pageshadow="2"
     inkscape:window-width="1920"
     inkscape:window-height="1017"
     id="namedview10"
     showgrid="false"
     inkscape:zoom="1.049"
     inkscape:cx="500"
     inkscape:cy="300"
     inkscape:window-x="-8"
     inkscape:window-y="-8"
     inkscape:window-maximized="1"
     inkscape:current-layer="svg8" />
  <rect
     y="0"
     x="0"
     width="1280"
     height="768"
     fill="#d00"
     id="rect2"
     style="fill:#febe00;fill-opacity:1;stroke-width:1.28" />
  <circle
     style="stroke-width:1.28"
     cx="640"
     cy="384"
     r="288"
     fill="#ffffff"
     id="circle4" />
  <path
     inkscape:connector-curvature="0"
     id="path20"
     d="m 585.92525,600.95455 -54.07345,-54.0735 -27.20466,27.17535 -27.20462,27.1754 -26.55997,-26.47812 c -14.60802,-14.56293 -26.56003,-26.80009 -26.56003,-27.19359 0,-0.39332 11.80799,-12.51296 26.24,-26.93211 14.43201,-14.4191 26.2345,-26.79785 26.22773,-27.50829 -0.005,-0.71042 -24.19991,-25.48085 -53.76256,-55.0454 l -53.75024,-53.7537 26.8816,-26.8816 26.88159,-26.8816 54.39807,54.38679 54.39805,54.38674 26.88571,-26.86288 c 14.7872,-14.77457 26.73148,-27.32576 26.5429,-27.89144 -0.18867,-0.56573 -24.52085,-25.19799 -54.07174,-54.73844 l -53.7289,-53.70989 81.57815,-81.57814 81.5782,-81.57816 53.82783,53.74802 c 29.60527,29.56139 54.11156,54.00943 54.45839,54.32897 0.34687,0.3193 12.68364,-11.4619 27.41525,-26.18097 14.73157,-14.71906 27.065,-26.5005 27.40756,-26.18096 0.34252,0.31954 12.48365,12.36029 26.9802,26.75727 l 26.35727,26.17624 -26.44967,26.47222 c -14.54736,14.55969 -26.23499,27.10675 -25.97253,27.88231 0.2622,0.77553 24.23715,25.21879 53.27718,54.31827 29.03999,29.09953 52.79999,53.45029 52.79999,54.11287 0,0.66254 -11.95579,13.1503 -26.56844,27.75051 l -26.56845,26.54581 -53.74583,-53.75724 c -29.56023,-29.56653 -54.32955,-53.7573 -55.04303,-53.7573 -0.71338,0 -13.24274,11.95579 -27.84296,26.56845 l -26.54585,26.56845 53.75728,53.74583 c 29.56648,29.56023 53.7573,54.32612 53.7573,55.03538 0,1.26209 -160.02857,161.92193 -161.28572,161.92193 -0.35122,0 -24.97115,-24.33309 -54.7116,-54.07348 z m 82.59478,-81.57859 25.95753,-26.40947 -27.23752,-27.10341 -27.23752,-27.10341 -26.55997,26.52272 c -14.60802,14.58751 -26.56,27.09887 -26.56,27.80301 0,2.22998 52.8029,54.22796 54.27403,53.44666 0.77328,-0.41073 13.08682,-12.63095 27.36345,-27.1561 z m -0.35752,-216.34794 26.85716,-26.88 -26.85716,-26.88001 c -14.77143,-14.78402 -27.24932,-26.88 -27.72864,-26.88 -1.0218,0 -53.55136,52.65979 -53.55136,53.68409 0,0.88712 52.87416,53.83592 53.76001,53.83592 0.36476,0 12.74856,-12.09604 27.51999,-26.88 z"
     style="fill:#000000;stroke-width:1.28" />
</svg>
