<?xml version="1.0" encoding="UTF-8" standalone="no"?>
<svg
   xmlns:dc="http://purl.org/dc/elements/1.1/"
   xmlns:cc="http://creativecommons.org/ns#"
   xmlns:rdf="http://www.w3.org/1999/02/22-rdf-syntax-ns#"
   xmlns:svg="http://www.w3.org/2000/svg"
   xmlns="http://www.w3.org/2000/svg"
   xmlns:sodipodi="http://sodipodi.sourceforge.net/DTD/sodipodi-0.dtd"
   xmlns:inkscape="http://www.inkscape.org/namespaces/inkscape"
   sodipodi:docname="Neolib_flag.svg"
   inkscape:version="1.0 (4035a4fb49, 2020-05-01)"
   id="svg853"
   version="1.1"
   viewBox="0 0 338.66666 225.68959"
   height="853"
   width="1280">
  <defs
     id="defs847" />
  <sodipodi:namedview
     inkscape:window-maximized="1"
     inkscape:window-y="-8"
     inkscape:window-x="-8"
     inkscape:window-height="1017"
     inkscape:window-width="1920"
     units="px"
     showgrid="false"
     inkscape:document-rotation="0"
     inkscape:current-layer="layer1"
     inkscape:document-units="mm"
     inkscape:cy="560"
     inkscape:cx="400"
     inkscape:zoom="0.35"
     inkscape:pageshadow="2"
     inkscape:pageopacity="0.0"
     borderopacity="1.0"
     bordercolor="#666666"
     pagecolor="#ffffff"
     id="base" />
  <metadata
     id="metadata850">
    <rdf:RDF>
      <cc:Work
         rdf:about="">
        <dc:format>image/svg+xml</dc:format>
        <dc:type
           rdf:resource="http://purl.org/dc/dcmitype/StillImage" />
        <dc:title />
      </cc:Work>
    </rdf:RDF>
  </metadata>
  <g
     id="layer1"
     inkscape:groupmode="layer"
     inkscape:label="Layer 1">
    <rect
       y="-6.5956759"
       x="-4.5357156"
       height="238.88094"
       width="347.7381"
       id="rect831"
       style="fill:#ffffff;stroke-width:2.64583;stroke-linecap:round;stroke-linejoin:round;paint-order:fill markers stroke" />
    <path
       style="fill:#9e2b24;fill-opacity:1;stroke-width:0.213115"
       d="m 173.65413,196.03897 c -3.26038,-1.15069 -3.16073,-1.08914 -3.00713,-1.85718 0.074,-0.36993 0.1575,-0.69546 0.18559,-0.72342 0.0281,-0.028 1.72933,-0.15926 3.78056,-0.29181 3.62816,-0.23443 9.5431,-0.95247 13.21314,-1.60397 0.9963,-0.17687 1.93697,-0.32172 2.09037,-0.32187 0.4486,0 -1.01579,2.5425 -1.64784,2.86152 -0.30199,0.15244 -1.07456,0.44901 -1.7168,0.65906 -0.92503,0.30253 -1.08005,0.4129 -0.74591,0.53105 0.33037,0.11681 0.25178,0.16923 -0.36243,0.24178 -0.43132,0.051 -0.73734,0.0169 -0.68003,-0.0759 0.24908,-0.40304 -2.75537,0.15036 -3.5158,0.64759 -0.30621,0.2002 -0.47259,0.23939 -0.38026,0.0896 0.10507,-0.17047 0.0415,-0.2664 -0.17647,-0.2664 -0.8379,0 -4.49612,0.47593 -4.79133,0.62337 -0.19704,0.0984 -1.09206,-0.1062 -2.24566,-0.51334 z m 16.61441,-3.21254 c 0.32398,-0.7754 1.12941,-2.01225 1.31038,-2.01225 0.0553,0 1.50159,-0.38536 3.21382,-0.85637 1.71225,-0.47099 3.16057,-0.80896 3.2185,-0.75103 0.23732,0.23732 -0.5437,0.8164 -2.27694,1.6882 -1.00882,0.50743 -2.58754,1.3202 -3.50825,1.80615 -2.13153,1.12505 -2.38193,1.14106 -1.95751,0.1253 z m -18.78179,-0.45162 c -0.67558,-0.0933 -0.67559,-0.0933 -0.82857,-1.72581 -0.18783,-2.00439 0.009,-6.41647 0.29881,-6.70654 0.11679,-0.11679 2.01815,-0.2914 4.22524,-0.388 4.31891,-0.18906 9.12403,-0.74706 13.69174,-1.58998 1.57255,-0.2902 2.89174,-0.49506 2.93154,-0.45524 0.12955,0.12952 -0.37038,4.46858 -0.69984,6.07422 -0.51968,2.53273 -0.50013,2.50676 -2.17324,2.8873 -4.54103,1.03282 -15.27248,2.20408 -17.44568,1.90405 z m -4.85714,-0.76784 c -0.72144,-0.62364 -0.79247,-0.77267 -0.65862,-1.38204 0.10017,-0.45603 0.56998,-1.06309 1.41354,-1.82647 l 1.26354,-1.14343 -0.64042,-1.55303 c -0.35223,-0.85415 -0.64041,-1.63574 -0.64041,-1.73682 0,-0.20633 1.14665,-0.24202 1.83548,-0.0571 0.40688,0.10921 0.46439,0.32649 0.59733,2.25659 0.0809,1.17466 0.081,3.03701 7e-5,4.13856 l -0.14702,2.0028 h -1.10742 c -0.94505,0 -1.22599,-0.10249 -1.91607,-0.69903 z m 25.03275,-2.18573 c 0,-0.21191 0.13756,-1.16 0.30571,-2.10686 0.16814,-0.94682 0.41712,-2.69173 0.55328,-3.87755 l 0.24757,-2.15601 2.89903,-0.79279 c 2.35891,-0.64509 8.57559,-2.57607 9.77393,-3.03594 0.21059,-0.0808 0.28608,0.11993 0.28608,0.76058 0,0.69483 0.10821,0.94125 0.53656,1.2219 0.49359,0.32344 0.52565,0.439 0.40043,1.44346 -0.2613,2.09603 -0.76152,2.65608 -4.02716,4.50868 -0.58607,0.33249 -1.78813,1.0623 -2.67126,1.62179 -1.6167,1.02423 -5.43673,2.40484 -7.39843,2.67384 -0.77741,0.10662 -0.90574,0.0697 -0.90574,-0.2611 z m 18.09649,-4.11388 c 0.30093,-0.56227 1.34428,-1.34681 2.57567,-1.93672 l 0.95902,-0.45943 -0.97868,0.91459 c -0.53826,0.50303 -1.38693,1.14186 -1.88591,1.41964 -0.87532,0.48726 -0.8989,0.48944 -0.6701,0.0619 z m -43.44693,-2.5724 c -0.13481,-0.25187 -1.14114,-1.11975 -2.23632,-1.92858 -1.09517,-0.80886 -2.13661,-1.67823 -2.31432,-1.93193 -0.29205,-0.41697 -0.28557,-0.52591 0.0674,-1.13374 0.21477,-0.36987 0.55289,-1.17595 0.75135,-1.79129 0.33567,-1.04084 0.3363,-1.15624 0.009,-1.65524 -0.2855,-0.43571 -0.42753,-0.49574 -0.75643,-0.3197 -0.66666,0.35677 -0.90676,0.27754 -0.64438,-0.21267 0.28889,-0.53982 0.21061,-0.56685 -2.15826,-0.74487 -1.83111,-0.13762 -1.83981,-0.14108 -2.77049,-1.09736 -1.43696,-1.47649 -1.71056,-1.56446 -4.86567,-1.56446 h -2.78108 v -1.27869 -1.2787 l 0.79918,6e-5 c 0.43955,1e-5 1.51845,0.13643 2.39755,0.30316 2.82322,0.53538 8.07703,1.00781 12.93895,1.16349 2.60369,0.0833 4.80944,0.22702 4.90165,0.31923 0.17922,0.17925 0.23774,13.0267 0.0601,13.20387 -0.0581,0.0579 -0.79138,0.17285 -1.62957,0.25537 -1.41986,0.13978 -1.5407,0.11875 -1.76905,-0.30795 z m 4.35631,-1.14266 c -0.19267,-2.05601 -0.0512,-11.78767 0.17464,-12.01342 0.0948,-0.0947 1.72511,-0.23933 3.62294,-0.32129 3.91879,-0.16929 9.59919,-0.8262 13.68014,-1.58204 1.52378,-0.28221 2.98628,-0.51403 3.25,-0.51513 l 0.47951,-0.002 v 6.68228 6.6823 l -1.65163,0.34839 c -4.11874,0.86887 -9.04822,1.52169 -13.90576,1.84152 -1.81681,0.11963 -3.79766,0.27503 -4.40189,0.34532 l -1.0986,0.12783 -0.14935,-1.5938 z m 40.49683,0.87814 c 0.34151,-1.1298 0.78587,-1.81908 1.41067,-2.18816 0.36331,-0.21461 1.64381,-1.33724 2.84557,-2.49474 1.20176,-1.15751 2.28326,-2.10453 2.40338,-2.10453 0.2418,0 0.47708,0.49493 0.47708,1.00365 0,0.46608 -2.01209,3.12351 -3.01487,3.98185 -0.85269,0.72988 -2.85919,1.87375 -3.77259,2.15072 -0.44927,0.13622 -0.48505,0.1005 -0.34924,-0.34879 z m -18.43712,-8.94743 v -6.69083 l 1.96679,-0.50382 c 3.7966,-0.97254 8.83359,-2.62145 12.80372,-4.19146 2.20451,-0.87179 4.14064,-1.58507 4.30252,-1.58507 0.37236,0 0.51318,1.0484 0.58493,4.35479 l 0.0552,2.54335 -2.83525,3.29684 c -2.91069,3.38457 -3.45164,4.15849 -3.45164,4.93819 0,0.24716 -0.0893,0.39421 -0.19839,0.32677 -0.10912,-0.0674 -0.25977,-0.0233 -0.33476,0.098 -0.30631,0.49563 -2.36715,1.29453 -6.60621,2.561 -2.46148,0.73537 -4.883,1.38341 -5.38117,1.44006 l -0.90573,0.103 z m -47.84436,-3.26688 c -0.58607,-0.16481 -1.48904,-0.45106 -2.0066,-0.63613 -0.51758,-0.18505 -1.86021,-0.43674 -2.98362,-0.55931 -1.15522,-0.12604 -2.42309,-0.40447 -2.91845,-0.6409 -0.87236,-0.41634 -5.86972,-5.00102 -6.27342,-5.75537 -0.20675,-0.38632 -0.18874,-0.38633 0.71017,-0.002 2.27906,0.9769 10.20098,3.34846 14.69734,4.39982 l 1.65164,0.38621 v 1.45284 c 0,1.09063 -0.0731,1.45285 -0.29303,1.45285 -0.16118,0 -0.56876,0.0451 -0.90575,0.10033 -0.33698,0.0552 -1.0922,-0.0345 -1.67828,-0.19933 z m 12.78691,-2.24236 c -3.41981,-0.37564 -7.81313,-1.0133 -8.31897,-1.2074 -0.14863,-0.0571 -0.31146,-0.50466 -0.36182,-0.9947 -0.0909,-0.88415 0.25492,-6.40719 0.68295,-10.9074 0.12263,-1.28935 0.27544,-2.92274 0.3396,-3.62978 0.17887,-1.97168 0.0672,-1.92085 3.10401,-1.41205 3.4638,0.58033 9.55332,1.12241 13.3448,1.18793 1.67005,0.0289 3.0952,0.11121 3.167,0.18301 0.18351,0.18352 0.29937,11.6748 0.14822,14.6996 l -0.12515,2.5041 -4.28539,-0.0243 c -2.47613,-0.0141 -5.72503,-0.1825 -7.69525,-0.39896 z m 13.03157,-0.69555 c -0.17548,-1.46096 -0.17769,-13.14475 -0.003,-14.81803 l 0.1353,-1.29446 1.51634,-0.11203 c 7.42175,-0.54839 11.56043,-1.0383 16.06208,-1.90134 l 1.54568,-0.29635 0.19663,0.76642 c 0.10815,0.42153 0.44499,3.40373 0.74852,6.62708 0.77186,8.19651 0.76618,8.10959 0.59195,9.05741 l -0.15672,0.85245 -2.76867,0.55684 c -4.67961,0.94114 -11.28672,1.66655 -15.2595,1.67537 l -2.47441,0.005 -0.1344,-1.11885 z m -24.64635,-1.12038 c -4.42873,-0.89888 -15.98364,-4.54674 -15.98364,-5.046 0,-0.11446 -0.33565,-0.7138 -0.74589,-1.33186 -0.48779,-0.73489 -0.74527,-1.37422 -0.74407,-1.8476 0.003,-1.47738 2.13177,-13.25098 2.52573,-13.97418 0.0997,-0.18294 0.45186,-0.1316 1.30851,0.19078 3.71434,1.39778 9.14427,3.11564 12.68034,4.01166 3.13546,0.79452 4.06606,1.10845 4.12398,1.39119 0.061,0.298 -0.35908,5.89992 -1.1695,15.59525 -0.0693,0.82953 -0.20544,1.32443 -0.36078,1.31194 -0.13719,-0.011 -0.87279,-0.14654 -1.63468,-0.30118 z m 67.13718,-1.49027 c -0.005,-1.05492 -0.068,-2.54373 -0.14031,-3.30846 l -0.13136,-1.39041 2.1042,-1.14745 c 1.1573,-0.63108 2.5674,-1.42379 3.13357,-1.76156 1.01436,-0.60517 1.02718,-0.60701 0.88102,-0.12607 -0.96257,3.16655 -2.72852,6.38012 -4.57191,8.31967 l -1.26628,1.33232 -0.009,-1.91804 z m -110.27567,0.5239 c -2.11021,-2.33574 -3.835174,-5.00661 -4.843304,-7.49916 -0.552859,-1.36694 -1.487829,-4.47054 -1.37941,-4.57894 0.0431,-0.0431 1.152211,1.12693 2.46463,2.60016 1.312414,1.47325 3.196724,3.37134 4.187354,4.21798 1.44178,1.23218 1.78953,1.64146 1.74286,2.05113 -0.0467,0.41006 -0.25953,0.57021 -1.0706,0.80564 -0.55676,0.1616 -1.0123,0.31521 -1.0123,0.34133 0,0.0262 0.18505,0.69454 0.4112,1.48536 0.22615,0.79081 0.38116,1.43786 0.34446,1.43786 -0.0367,0 -0.4169,-0.38762 -0.84489,-0.86136 z m 89.73756,0.48917 c -0.0671,-0.10853 -0.27383,-2.05916 -0.45943,-4.33472 -0.18559,-2.27556 -0.50721,-5.80176 -0.71469,-7.836 -0.47906,-4.69682 -0.45693,-4.86331 0.68513,-5.15162 0.485,-0.12243 2.05569,-0.56688 3.49043,-0.98764 l 2.60861,-0.76503 0.75417,0.57523 c 1.22321,0.93299 1.50745,1.3359 1.87493,2.65764 0.31502,1.13307 0.44941,1.31557 1.39903,1.89987 0.57778,0.35553 1.33648,1.06202 1.68597,1.56999 0.56742,0.82472 0.80422,0.97327 2.21132,1.38724 2.62506,0.77231 3.54724,1.24922 4.0442,2.09151 0.29761,0.50441 0.65726,0.80418 1.06194,0.88511 0.54202,0.1084 0.61191,0.2128 0.61191,0.91399 0,0.90492 0.21621,0.76513 -3.67298,2.37427 -3.2296,1.33624 -5.81465,2.23133 -10.28889,3.56265 -4.0865,1.21592 -5.11632,1.44117 -5.29165,1.15751 z m -91.26889,-8.84505 c -4.760114,-4.8484 -5.412243,-5.82714 -5.412243,-8.1229 v -1.08978 l 0.99628,1.48953 c 0.54795,0.81924 1.493919,2.11289 2.102159,2.87478 0.608261,0.76189 1.740724,2.34426 2.516604,3.51641 0.77588,1.17212 1.75711,2.58667 2.18054,3.14343 0.42343,0.55677 0.68418,1.0123 0.57945,1.0123 -0.10474,0 -1.43798,-1.27069 -2.96279,-2.82377 z m 111.37196,1.83008 c -0.002,-0.21534 -0.0575,-0.59469 -0.12407,-0.84296 -0.10196,-0.37988 0.21077,-0.68283 1.97376,-1.912 1.15221,-0.80332 2.69163,-1.96678 3.42093,-2.58547 1.65877,-1.40718 1.9782,-1.43826 1.9782,-0.19253 0,2.22753 0.25222,1.97445 -4.42213,4.43694 -2.34725,1.23654 -2.82428,1.42151 -2.82669,1.09602 z M 95.416117,154.95755 c -0.784141,-1.31865 -2.20484,-3.97992 -3.15712,-5.91394 -1.67236,-3.39651 -4.07122,-9.12127 -3.89566,-9.29682 0.0471,-0.0471 0.40544,0.61082 0.79629,1.46211 0.87547,1.9069 2.38574,4.49651 4.25849,7.30192 1.85425,2.77766 1.767389,2.59258 2.656179,5.66081 0.422301,1.45788 0.80915,2.77056 0.859681,2.91707 0.24212,0.70206 -0.21337,0.0625 -1.51786,-2.13115 z m 31.675313,1.71663 c -0.3461,-0.46812 -0.58183,-1.21742 -0.75433,-2.39754 l -0.2509,-1.71663 0.63845,-0.73507 c 1.35557,-1.56073 1.84943,-3.85978 1.36042,-6.33303 -0.16468,-0.83289 -0.12675,-0.94173 0.6137,-1.76134 0.62215,-0.68866 0.85108,-0.8223 1.08128,-0.63125 0.42847,0.35561 0.37322,0.92506 -0.54896,5.65621 -0.46031,2.36167 -0.95784,5.2627 -1.10561,6.44675 -0.14777,1.18405 -0.3276,2.15282 -0.39965,2.15282 -0.072,0 -0.35751,-0.30641 -0.6344,-0.68092 z m 82.40437,-2.35597 c -0.40197,-0.8498 -0.83518,-1.80545 -0.96268,-2.12369 -0.27116,-0.67676 -2.7383,-2.75222 -4.224,-3.55341 -0.82407,-0.4444 -1.14868,-0.79266 -1.61121,-1.72864 -0.31857,-0.64469 -0.58046,-1.26806 -0.58195,-1.38526 -0.002,-0.11721 1.42973,-0.76455 3.18053,-1.43853 2.78899,-1.07364 3.8413,-1.39188 3.8413,-1.16167 0,0.0351 0.52747,2.73523 1.17215,6.00039 0.64466,3.26516 1.17213,6.05019 1.17213,6.18894 0,0.20591 -0.84787,0.74695 -1.17052,0.74695 -0.0467,0 -0.41378,-0.69528 -0.81575,-1.54508 z m 2.75581,0.0915 c -0.0598,-0.0968 -0.35112,-1.51162 -0.6473,-3.14403 -0.29619,-1.63239 -0.82028,-4.29542 -1.16466,-5.91785 l -0.62615,-2.94985 0.88755,-0.53173 c 0.48818,-0.29244 2.27815,-1.31893 3.97775,-2.28106 3.4887,-1.97493 4.05135,-2.32977 7.40568,-4.67043 1.31864,-0.92014 2.56536,-1.64158 2.77051,-1.60319 0.23592,0.0441 0.5102,0.48297 0.74624,1.19395 0.34298,1.03312 0.34618,1.18845 0.0397,1.9172 -0.18347,0.43612 -0.42155,1.27248 -0.52906,1.85856 -0.28256,1.54039 -1.94134,4.69744 -3.24721,6.18033 -0.61935,0.70327 -1.45856,1.84022 -1.86496,2.52656 -0.46578,0.78665 -1.86479,2.34141 -3.78517,4.20655 -3.05921,2.97127 -3.76142,3.54094 -3.96285,3.21499 z m -49.78602,-4.32746 c -3.44335,-0.25282 -7.87341,-0.76681 -10.0697,-1.16829 l -1.86476,-0.34089 v -1.00584 c 0,-0.94721 0.38538,-4.111 1.51313,-12.42223 l 0.4834,-3.56251 0.86649,-0.12432 c 1.09313,-0.1568 11.19107,0.0226 11.64994,0.20705 0.503,0.20215 0.4416,3.10995 -0.0778,3.68385 -0.20326,0.22461 -0.36957,0.5133 -0.36957,0.64156 0,0.30998 2.33037,1.75785 2.8293,1.75785 0.21549,0 0.81786,0.1073 1.33863,0.23841 l 0.94683,0.23843 v 5.9111 5.91111 l -1.43853,0.13587 c -1.67115,0.15781 -2.4701,0.1439 -5.80739,-0.10115 z m 9.13672,0.0839 c -0.70596,-0.0727 -0.78445,-0.14805 -0.9034,-0.86747 -0.0717,-0.43334 -0.13131,-2.98759 -0.1326,-5.67612 l -0.003,-4.88824 0.58607,0.55826 c 0.36423,0.34694 1.38879,0.8147 2.70672,1.23571 l 2.12065,0.67745 0.38345,-0.47354 c 0.22399,-0.27662 0.38346,-0.82226 0.38346,-1.31209 0,-1.65337 1.64002,-2.45878 3.70646,-1.82024 1.85451,0.57304 3.7697,0.84952 6.04355,0.87248 1.20142,0.0122 2.18442,0.07 2.18445,0.1286 2e-5,0.0586 0.29063,2.15756 0.64579,4.66433 0.35519,2.50678 0.60992,4.59362 0.56611,4.63743 -0.40409,0.40409 -8.0053,1.59632 -12.61358,1.97841 -4.03139,0.33424 -4.8147,0.3736 -5.67478,0.28503 z m 50.90847,-0.73777 c 0.25721,-0.25723 0.54211,-0.39323 0.63308,-0.30225 0.091,0.091 -0.0207,0.30143 -0.24792,0.46767 -0.64205,0.46948 -0.90649,0.35591 -0.38516,-0.16542 z M 93.311617,146.96576 c -1.7316,-2.64798 -4.90084,-8.87103 -5.62315,-11.0415 -0.88558,-2.66108 -1.00598,-7.9043 -0.27663,-12.04639 0.16023,-0.90998 0.17467,-0.9244 0.44027,-0.43953 0.15103,0.2757 0.36313,1.12644 0.47134,1.89051 0.10819,0.76407 0.61727,2.45653 1.13129,3.76101 1.34454,3.41233 1.78467,4.96848 2.37721,8.40526 0.57433,3.33103 1.18431,5.09215 2.35462,6.79818 0.71819,1.04696 0.7666,1.22638 0.848089,3.14346 0.0476,1.11821 0.0477,2.03311 0,2.03311 -0.0473,0 -0.82286,-1.12684 -1.723489,-2.50411 z m 52.424423,0.60153 c -6.94551,-1.79099 -14.38527,-4.37979 -14.38527,-5.00559 0,-0.14399 0.14679,-0.6926 0.32619,-1.21912 0.27779,-0.81526 0.54995,-1.10551 1.83422,-1.95601 1.0841,-0.71796 1.72628,-1.00131 2.28445,-1.00805 0.93265,-0.0111 2.2572,-0.45747 2.79051,-0.94012 0.21313,-0.19287 0.59426,-0.91775 0.84697,-1.61084 0.59784,-1.63964 1.39633,-2.41167 3.07064,-2.96884 2.55891,-0.85154 3.63208,-2.90661 2.20894,-4.22999 -0.25765,-0.23961 -0.80411,-0.52338 -1.21436,-0.6306 -0.68995,-0.18036 -0.74403,-0.25414 -0.72096,-0.98359 0.0137,-0.43372 0.0657,-0.82943 0.11571,-0.87935 0.0499,-0.0499 0.67059,0.0897 1.37926,0.31026 0.70866,0.22058 2.67054,0.75521 4.35971,1.1881 1.68917,0.43289 3.20649,0.86036 3.37183,0.94996 0.2222,0.12039 0.0594,0.3224 -0.62431,0.77459 -0.84948,0.56186 -1.06515,0.60767 -2.64487,0.56195 -2.19999,-0.0637 -2.50912,0.0333 -2.42498,0.76071 0.10636,0.91955 1.37074,1.42022 3.58657,1.42022 h 1.816 l -0.25363,1.4918 c -0.13948,0.82051 -0.59976,4.17708 -1.02284,7.45904 -0.99625,7.7283 -0.85799,7.14146 -1.67982,7.12966 -0.37164,-0.005 -1.7306,-0.28171 -3.01996,-0.61419 z m 45.07386,0.13646 c 0,-0.0337 -0.29032,-2.07158 -0.64516,-4.52871 -0.87826,-6.08155 -0.89029,-5.46385 0.11237,-5.77151 0.46886,-0.14388 1.36225,-0.26895 1.98532,-0.27796 1.46358,-0.0211 1.82415,-0.23296 2.28479,-1.34213 0.45788,-1.10258 0.69312,-5.69563 0.33846,-6.60872 -0.26881,-0.69203 -0.51975,-0.64033 -2.01889,0.4161 -0.98675,0.69534 -1.09242,0.72178 -2.34695,0.58743 -1.17422,-0.12574 -1.35782,-0.0919 -1.72955,0.31887 -0.39051,0.4315 -0.4252,0.43594 -0.56841,0.0727 -0.0839,-0.21277 -0.15926,-0.87769 -0.16749,-1.47761 l -0.0151,-1.09077 1.33197,-0.37072 c 3.60298,-1.00278 6.55342,-1.97106 9.80487,-3.21778 1.96419,-0.75313 3.65766,-1.36933 3.76329,-1.36933 0.42374,0 5.22049,15.58851 5.48238,17.81659 0.11048,0.93998 0.0737,1.1046 -0.27076,1.21326 -0.21924,0.0691 -1.90228,0.74183 -3.74013,1.49486 -3.89528,1.59605 -3.45272,1.66203 -5.95789,-0.88822 -0.82205,-0.83685 -1.71692,-1.57733 -1.9886,-1.64552 -0.27522,-0.0691 -0.78884,0.0285 -1.15983,0.22037 -0.8098,0.41876 -0.78011,0.49296 1.15666,2.89189 0.74904,0.92782 1.26694,1.74565 1.15083,1.81741 -0.67196,0.41529 -6.80228,1.98298 -6.80228,1.73952 z m 51.69083,-4.4675 c -0.0456,-0.14651 -0.13423,-1.03361 -0.19708,-1.97132 -0.0629,-0.9377 -0.17762,-1.92069 -0.25506,-2.18442 -0.21321,-0.72633 0.25829,-0.58047 0.51634,0.15971 0.36049,1.03416 0.56325,4.26242 0.26769,4.26242 -0.13701,0 -0.28637,-0.11988 -0.33189,-0.26639 z m -33.9667,-5.48125 c -0.5079,-1.87019 -1.73614,-6.0008 -2.72943,-9.17911 -0.99329,-3.17831 -1.77502,-5.8716 -1.73718,-5.98511 0.0378,-0.11347 0.84844,-0.62293 1.80137,-1.13209 1.60597,-0.85809 1.75815,-0.90019 2.08219,-0.57616 0.25663,0.25663 0.74146,0.34958 1.8235,0.34958 1.42563,0 1.50182,-0.0272 2.32482,-0.83088 l 0.8509,-0.83088 -0.40364,-0.79118 -0.40364,-0.7912 0.57531,-0.54011 c 0.66439,-0.62373 3.84078,-2.71576 4.12342,-2.71576 0.25667,0 3.8364,7.33623 5.79369,11.8734 l 1.58251,3.66849 -0.50856,0.33322 c -1.01365,0.66417 -1.45528,0.73128 -2.00945,0.30533 -0.28658,-0.22024 -0.59321,-0.40256 -0.68142,-0.40517 -0.0882,-0.003 -0.50213,0.3735 -0.91981,0.83583 -0.94089,1.04146 -1.87179,1.36259 -3.62605,1.25089 -1.09422,-0.0697 -1.54431,-0.21598 -2.29746,-0.74686 -1.35476,-0.95491 -1.70082,-1.01814 -2.37913,-0.43469 -0.68941,0.593 -0.76846,1.50372 -0.18072,2.08219 0.21979,0.21629 0.97501,0.74069 1.67829,1.16533 1.05086,0.63449 1.41705,0.75079 2.05517,0.6527 0.74739,-0.11492 0.78963,-0.0865 1.1265,0.75535 0.30079,0.75177 0.42382,0.86062 0.87516,0.77434 0.28883,-0.0552 0.52515,-0.0745 0.52515,-0.043 0,0.27252 -7.55527,4.35947 -8.05523,4.35741 -0.28765,-0.002 -0.55411,-0.70592 -1.28626,-3.40188 z m -75.04245,-0.55089 c 0.15122,-0.18221 0.44851,-0.42418 0.66064,-0.53771 0.30709,-0.16435 0.35984,-0.13905 0.25885,0.1241 -0.11989,0.31245 -0.7282,0.74492 -1.04779,0.74492 -0.0807,0 -0.023,-0.1491 0.1283,-0.33131 z m 85.14387,-1.017 c 0.66567,-0.54933 1.00462,-1.18757 1.82218,-3.43109 l 0.46024,-1.26297 0.39514,0.77017 c 0.21732,0.42362 0.59329,0.90899 0.83547,1.07862 0.4213,0.29508 0.35446,0.36792 -1.54335,1.68177 -2.23368,1.54639 -2.93741,1.96207 -1.96968,1.1635 z m -88.09065,0.0367 c 0.11061,-0.33184 0.58741,-0.38994 0.60411,-0.0737 0.006,0.11723 -0.1487,0.24626 -0.34421,0.28675 -0.22222,0.046 -0.31964,-0.0338 -0.2599,-0.21312 z m 50.51509,-2.45248 c -0.68101,-0.27478 -0.13149,-0.4982 1.2254,-0.4982 1.4617,0 1.9632,0.25019 1.01232,0.50501 -0.56324,0.15095 -1.85652,0.14701 -2.23772,-0.007 z m 10.44263,-1.28601 c -0.52747,-0.19836 -0.2484,-0.69658 0.70225,-1.25369 1.11012,-0.65057 1.42855,-0.54763 0.82144,0.26552 -0.52044,0.6971 -1.17277,1.12015 -1.52369,0.98817 z m 51.67868,-0.65122 c -0.63792,-0.65328 -0.97552,-1.37084 -1.84436,-3.91977 -0.58494,-1.71605 -1.54768,-4.27116 -2.13945,-5.67801 -0.59174,-1.40687 -1.07591,-2.69676 -1.07591,-2.86645 0,-0.1697 0.66926,-1.37684 1.48727,-2.68258 1.72909,-2.76007 2.55358,-4.35455 4.18057,-8.08496 0.64967,-1.4896 1.21563,-2.74277 1.25771,-2.78484 0.042,-0.042 0.31089,0.29488 0.59743,0.74876 0.45874,0.72669 0.49967,0.9518 0.34279,1.8849 -0.098,0.5828 -0.27837,3.31334 -0.40082,6.06785 -0.12249,2.7545 -0.33388,5.73064 -0.46975,6.61361 -0.22223,1.44401 -0.20062,1.78751 0.21492,3.41674 0.25412,0.99624 0.46202,1.98556 0.46202,2.19846 0,0.21291 0.15517,0.71412 0.34482,1.1138 l 0.34484,0.72667 -1.20709,2.02275 c -0.66389,1.11252 -1.23116,2.02275 -1.26058,2.02275 -0.0294,0 -0.40491,-0.35986 -0.83441,-0.79968 z m 3.45933,-0.49579 c -0.26689,-0.80872 -0.25081,-0.9353 0.23097,-1.81722 0.46354,-0.84856 0.5459,-0.90957 0.78556,-0.58182 0.14724,0.20138 0.2677,0.69294 0.2677,1.09237 0,0.7349 -0.55803,2.17592 -0.84263,2.17592 -0.0851,0 -0.28381,-0.39117 -0.4416,-0.86925 z m -78.37126,0.10431 c -0.49611,-0.29587 -0.90203,-0.62501 -0.90203,-0.73145 0,-0.3647 0.78405,-0.6162 1.40622,-0.45105 0.46883,0.12442 0.6353,0.30871 0.68831,0.76206 0.10587,0.90517 -0.19925,1.01274 -1.1925,0.42044 z m 10.12708,0.0712 c -0.52553,-0.42932 -1.06982,-1.86369 -0.70721,-1.86369 0.0801,0 0.81878,-0.10444 1.64147,-0.23208 0.82271,-0.12767 1.75214,-0.16697 2.06542,-0.0873 l 0.56959,0.14473 -0.79087,0.40785 c -0.59959,0.30921 -0.85259,0.61384 -1.04603,1.25948 -0.30118,1.00525 -0.82002,1.11638 -1.73237,0.37106 z m -8.00647,-0.47087 c 0.0607,-0.75939 0.13648,-0.85889 0.74868,-0.98305 l 0.68114,-0.13813 -0.56282,0.76992 c -0.90371,1.23621 -0.93885,1.25045 -0.867,0.35126 z m 15.00052,0.12785 c -0.19651,-0.37999 -0.72477,-1.05835 -1.17391,-1.50752 l -0.81661,-0.81661 1.18316,-0.23762 c 0.65074,-0.1307 1.45306,-0.23762 1.78292,-0.23762 0.63229,0 0.64549,0.0253 0.92994,1.785 0.12937,0.80032 0.11678,0.82176 -0.40605,0.69054 -0.43984,-0.1104 -0.59528,-0.0291 -0.84089,0.43965 l -0.3013,0.57506 z m -53.59016,-0.95988 c -0.19,-0.22894 -0.19392,-0.34875 -0.015,-0.45933 0.34758,-0.21481 0.77877,0.26236 0.49423,0.54691 -0.15414,0.15412 -0.30088,0.1273 -0.4792,-0.0876 z m -46.523583,-1.89009 c -1.44234,-4.96006 -2.16327,-13.93083 -1.52022,-18.91664 0.23771,-1.84311 0.29265,-1.70261 0.79161,2.0246 0.1883,1.40656 0.78003,4.13976 1.31497,6.07378 0.776519,2.80749 0.95322,3.7527 0.87647,4.68853 -0.27294,3.32796 -0.62249,6.79144 -0.7477,7.40843 -0.12917,0.63644 -0.18973,0.52814 -0.71513,-1.2787 z m 139.584243,1.16465 c -0.17483,-0.20248 -0.97016,-1.90258 -1.76737,-3.77798 -0.79724,-1.87542 -2.34538,-5.21656 -3.44033,-7.42473 -1.09493,-2.20821 -1.99079,-4.13755 -1.99079,-4.28742 0,-0.1499 0.983,-1.1445 2.18443,-2.21023 1.20143,-1.06572 2.99959,-2.87148 3.99591,-4.01281 3.65494,-4.18691 3.41561,-3.96933 3.89512,-3.54078 0.46042,0.41149 4.16575,5.95645 5.80534,8.68763 1.45889,2.43016 3.29957,5.95157 3.29957,6.31242 0,0.3464 -2.12643,3.07327 -3.8593,4.94906 -1.08442,1.17385 -1.18242,1.23074 -1.74563,1.01352 -0.56695,-0.21863 -0.68948,-0.14243 -2.45462,1.52686 -1.02185,0.96633 -2.25085,2.06649 -2.73116,2.44479 -0.81731,0.64374 -0.89363,0.66423 -1.19117,0.31967 z m -53.44703,-0.42141 c -0.002,-0.20513 -0.24119,-0.79034 -0.5328,-1.30046 -0.55116,-0.9641 -0.74417,-2.85775 -0.31814,-3.12106 0.32969,-0.20375 3.624,2.24805 3.624,2.69718 0,0.36641 -0.037,0.36783 -0.74804,0.0288 -0.97225,-0.46364 -1.38015,-0.16057 -0.97644,0.72546 0.23843,0.52329 0.21687,0.62736 -0.19988,0.9648 -0.59028,0.47798 -0.84544,0.47958 -0.8487,0.005 z m 68.46096,-0.79475 c -0.47108,-0.53519 -1.23738,-1.70268 -1.70279,-2.59442 l -0.84626,-1.62132 -0.61444,1.14662 c -0.48045,0.89653 -0.74002,1.16111 -1.18999,1.21306 -0.69997,0.0808 -1.44907,-0.28793 -1.44907,-0.71326 0,-0.1717 -0.19181,-0.31218 -0.42622,-0.31218 -0.23444,0 -0.42625,-0.0595 -0.42625,-0.13212 0,-0.22222 3.88602,-4.76953 4.07592,-4.76953 0.22776,0 0.85044,1.2238 1.69827,3.33773 0.88168,2.19826 1.91637,5.23952 1.81654,5.33934 -0.0436,0.0436 -0.46463,-0.35872 -0.93571,-0.89392 z m -77.12307,-0.69705 c 0.20001,-2.66305 0.45826,-3.86993 0.89674,-4.19055 0.22812,-0.1668 0.43591,-0.28215 0.46174,-0.25632 0.0258,0.0258 0.0634,1.11716 0.0835,2.42519 0.0398,2.58999 -0.23967,3.46021 -1.1112,3.46021 -0.41034,0 -0.43179,-0.0933 -0.33078,-1.43853 z m 13.45329,0.57947 c -0.59277,-0.60706 -0.7912,-1.02665 -0.95158,-2.01201 -0.24129,-1.48256 -0.64154,-1.96758 -2.57268,-3.11751 -2.46824,-1.46975 -2.23964,-0.68143 -2.40603,-8.29734 -0.08,-3.66403 -0.11718,-6.69024 -0.0825,-6.72492 0.0347,-0.0347 1.30728,-0.16567 2.82803,-0.29111 1.52075,-0.12544 3.86788,-0.39169 5.21582,-0.59166 1.34795,-0.19997 2.88238,-0.36658 3.40984,-0.37025 l 0.95902,-0.007 1.1181,5.11476 c 1.25556,5.74364 1.3985,7.2869 0.8488,9.16393 -0.47289,1.61479 -0.25456,2.27963 0.90041,2.74174 0.75319,0.30139 0.81301,0.39277 0.95144,1.45387 0.0812,0.62276 0.19643,1.33105 0.25596,1.57399 0.089,0.36332 -0.036,0.48365 -0.70454,0.67818 -0.44702,0.13006 -1.25467,0.29977 -1.79475,0.37714 -1.10611,0.15843 -1.12885,0.134 -1.36936,-1.46979 -0.12703,-0.84721 -0.21763,-0.98625 -0.6426,-0.98625 -0.91989,0 -1.58804,0.38327 -1.58804,0.91095 0,0.44053 -0.0824,0.48565 -0.74591,0.40819 -0.41025,-0.0479 -0.74591,-0.0223 -0.74591,0.0571 0,0.0792 0.25314,0.47596 0.56251,0.88157 0.30939,0.4056 0.52516,0.7662 0.47951,0.8013 -0.0457,0.0351 -0.77905,0.15563 -1.62979,0.26783 l -1.54678,0.20403 z m 9.27486,-3.08104 c 0.21427,-0.25817 0.19392,-0.34376 -0.10941,-0.46016 -0.40163,-0.15411 -0.9834,0.11943 -1.11897,0.52614 -0.12254,0.3676 0.91478,0.31189 1.22838,-0.066 z m -36.86682,1.72577 c -1.46516,-0.38851 -3.44792,-0.93361 -4.40612,-1.21133 l -1.74221,-0.50493 0.73602,-1.31612 c 0.49577,-0.88653 0.83691,-1.8899 1.04507,-3.07393 0.16997,-0.96679 0.34768,-1.79642 0.39488,-1.84361 0.32533,-0.32534 2.0062,-0.0411 3.83759,0.64909 1.1566,0.43585 2.512,0.84853 3.012,0.91708 l 0.90911,0.12459 0.4511,-1.20568 c 0.63461,-1.69615 0.59032,-2.80779 -0.15822,-3.97175 -0.33512,-0.5211 -0.86257,-1.17996 -1.17213,-1.46412 -0.62472,-0.57349 -0.73272,-1.18402 -0.2427,-1.37205 0.17606,-0.0676 0.7502,-0.0425 1.27587,0.0557 0.98868,0.18471 1.18107,0.0949 1.45795,-0.68028 0.11072,-0.31002 0.21752,-0.33877 0.56586,-0.15234 0.51298,0.27454 0.51923,0.39917 0.1162,2.31517 -0.17227,0.81888 -0.74657,4.02715 -1.27626,7.12948 -0.52967,3.10234 -1.02234,5.79518 -1.09485,5.98408 -0.18326,0.47762 -0.6635,0.42853 -3.70916,-0.37906 z m 7.36159,0.52413 c -0.16134,-0.26103 0.0316,-0.35677 1.05646,-0.52436 l 0.85246,-0.1394 -0.50311,0.43107 c -0.53082,0.45482 -1.20007,0.56558 -1.40581,0.23269 z m 31.44231,-1.00624 c -0.12522,-0.45099 -0.22682,-1.20356 -0.2258,-1.67243 0.002,-0.79904 0.07,-0.89251 1.08994,-1.49179 0.59843,-0.35165 1.46217,-0.86341 1.9194,-1.13727 0.74394,-0.44558 1.11656,-0.50165 3.54413,-0.53342 2.87312,-0.0376 3.56879,-0.22988 4.51809,-1.24884 0.89375,-0.95933 0.48616,-1.68598 -1.37907,-2.45846 -3.24713,-1.34478 -4.47284,-1.41482 -6.0271,-0.34435 l -1.12917,0.7777 -0.6261,-0.59986 c -0.46677,-0.44721 -0.59432,-0.72644 -0.50123,-1.09735 0.11965,-0.47672 0.0752,-0.49751 -1.06356,-0.49751 -1.07924,0 -1.21692,0.0539 -1.49847,0.58607 -0.22862,0.43214 -0.33898,0.50209 -0.42021,0.2664 -0.18672,-0.54177 -1.83338,-8.57085 -1.9743,-9.62651 l -0.13283,-0.99533 1.57171,-0.45526 c 1.91617,-0.55503 5.18887,-1.64992 7.70756,-2.57858 1.25932,-0.46433 1.94394,-0.62033 2.0884,-0.47589 0.42947,0.42947 5.37667,12.39111 7.14417,17.27361 l 0.71313,1.96992 -1.00796,0.50929 c -2.30941,1.16683 -10.92049,4.08717 -13.29962,4.51042 -0.76525,0.13613 -0.78872,0.12034 -1.01111,-0.68056 z m 4.68276,-10.3321 c 0.5203,-0.15588 0.84947,-0.40168 0.92755,-0.69261 0.16682,-0.62152 0.15785,-2.04937 -0.0128,-2.04937 -0.21141,0 -1.62225,1.10297 -2.0376,1.593 -0.56569,0.6673 -0.46976,1.22898 0.23457,1.3738 0.045,0.009 0.44476,-0.0919 0.88833,-0.22482 z m -24.09317,9.57231 c -1.08827,-0.72255 -1.61369,-1.27284 -2.45082,-2.56682 -1.34125,-2.07318 -1.62094,-2.16689 -3.49062,-1.16942 -1.40411,0.74911 -1.41609,0.75129 -2.44319,0.444 -0.56769,-0.16985 -1.28443,-0.27932 -1.59275,-0.2433 -0.4747,0.0555 -0.58837,0.20677 -0.74176,0.98723 -0.1734,0.88238 -0.24178,0.94891 -1.60354,1.55988 -0.78232,0.351 -1.59042,0.79025 -1.79578,0.97609 -0.30732,0.27814 -0.37337,0.28415 -0.37337,0.0341 0,-0.92065 2.40589,-13.73379 2.59102,-13.79915 0.12143,-0.0428 0.52317,-0.3405 0.89276,-0.66144 0.36957,-0.32094 1.10352,-0.84654 1.63098,-1.168 0.52746,-0.32148 1.34318,-1.01549 1.81271,-1.54227 l 0.85368,-0.95776 3.94141,0.28567 3.94141,0.28565 0.14403,0.95902 c 0.0792,0.52747 0.15115,3.35054 0.15984,6.27349 l 0.0158,5.31446 -0.59773,-0.57264 c -0.8785,-0.84165 -1.3203,-0.76091 -1.3203,0.2413 0,0.6166 0.20589,1.08993 0.84919,1.95216 0.91545,1.22697 1.13636,1.95096 1.03019,3.37617 l -0.0679,0.91138 z m 34.12028,-7.57247 c -0.74661,-1.96333 -2.49549,-6.29727 -3.88639,-9.63102 -1.39091,-3.33374 -2.52893,-6.12875 -2.52893,-6.21114 0,-0.0824 0.98299,-0.70233 2.18444,-1.37766 1.20144,-0.67533 3.14345,-1.868593 4.31558,-2.651693 3.01811,-2.01641 3.05969,-2.03533 3.43556,-1.56342 1.4999,1.88326 7.25869,10.910953 9.68209,15.177993 l 1.13659,2.00127 -0.62711,0.50208 c -0.3449,0.27615 -1.44352,1.06774 -2.44138,1.75909 l -1.81428,1.25702 -0.57441,-0.45802 c -0.31593,-0.25192 -1.03396,-1.12894 -1.59559,-1.94891 -0.87088,-1.27149 -1.21622,-1.58493 -2.34709,-2.13018 -1.97215,-0.95094 -1.96347,-0.93049 -1.12893,-2.65556 0.61977,-1.28111 0.68474,-1.55965 0.47244,-2.02558 -0.5692,-1.24926 -2.05147,-0.19895 -3.26724,2.31513 -0.45326,0.93726 -0.82409,1.91328 -0.82409,2.16894 0,0.79379 2.6139,3.40888 4.07995,4.0818 1.05695,0.48516 1.25211,0.65622 1.15611,1.0134 -0.0635,0.23635 -0.11679,0.81595 -0.11839,1.28798 l -0.003,0.85826 -1.81461,0.89993 c -0.99804,0.49499 -1.88646,0.89996 -1.97428,0.89996 -0.0878,0 -0.77054,-1.60636 -1.51713,-3.56967 z m 8.62185,-3.5565 c 0.40878,-0.30287 0.40864,-0.31037 -0.0126,-0.63256 -0.38577,-0.29515 -1.38524,-0.47331 -1.38524,-0.24695 0,0.051 0.0935,0.33868 0.20784,0.63934 0.23471,0.61733 0.58536,0.68809 1.18996,0.24017 z m -123.619893,4.67536 c -0.0842,-0.35165 -0.38441,-1.45451 -0.66719,-2.45084 -1.09183,-3.8467 -1.9368,-10.11024 -1.68329,-12.4776 0.22443,-2.09552 0.58034,-1.438 0.7813,1.44335 0.40708,5.83698 0.60373,7.31711 1.22538,9.22278 0.75975,2.32901 0.97365,3.66101 0.70159,4.36885 l -0.20477,0.5328 z m 149.979903,-1.42547 c -0.23337,-0.38813 -0.96411,-1.68977 -1.62388,-2.89254 -1.52057,-2.77206 -2.88079,-4.95398 -5.34604,-8.57546 -1.07717,-1.58238 -2.02021,-2.98265 -2.09562,-3.1117 -0.0754,-0.12907 0.43942,-1.17072 1.14409,-2.31481 1.44736,-2.349853 2.48648,-4.372063 3.82943,-7.452333 l 0.92276,-2.11652 2.03773,2.13422 c 3.39743,3.55832 8.32462,10.221613 8.32462,11.257853 0,1.60849 -3.28746,8.5719 -5.86916,12.43195 l -0.89961,1.34502 z m 16.35705,-1.64387 c 0,-0.25029 0.23976,-1.14129 0.53278,-1.98002 0.29304,-0.83872 0.5328,-1.79087 0.5328,-2.11588 0,-0.32499 -0.23976,-1.04183 -0.5328,-1.59295 -0.54069,-1.01689 -0.72877,-2.64347 -0.30567,-2.64347 0.12493,0 0.41263,0.0993 0.63935,0.2206 0.35936,0.19233 0.41665,0.14449 0.44668,-0.37295 0.0745,-1.2823 0.33761,2.77072 0.36392,5.60453 0.0209,2.26114 -0.0379,3.00803 -0.23853,3.02833 -0.14653,0.0149 -0.53012,0.0899 -0.85247,0.16693 -0.50006,0.11943 -0.58606,0.0731 -0.58606,-0.31512 z m -36.73478,-3.48395 c -0.16606,-0.26374 -1.35765,-2.25369 -2.64799,-4.42215 -1.29032,-2.16844 -3.64033,-5.89928 -5.22222,-8.290753 l -2.87616,-4.34811 2.50014,-2.47157 c 1.37505,-1.35937 3.04368,-3.09493 3.70805,-3.85682 l 1.20795,-1.38525 2.67374,2.77049 c 5.00905,5.19031 10.53876,11.694753 10.53876,12.396443 0,0.19346 -0.40225,0.88792 -0.89388,1.54325 -1.07362,1.43112 -8.10517,8.54398 -8.44632,8.54398 -0.13209,0 -0.37603,-0.21579 -0.54207,-0.47951 z m -65.22592,-3.08937 c 0.74989,-0.64838 0.78349,-0.72835 0.53516,-1.27339 -0.23397,-0.51351 -0.21308,-0.62359 0.17853,-0.9407 0.24394,-0.19753 0.44353,-0.55954 0.44353,-0.80449 0,-0.3402 0.13397,-0.44535 0.56733,-0.44535 0.85697,0 2.81409,0.67275 2.73044,0.93858 -0.0404,0.12846 -0.18025,0.90509 -0.31073,1.72585 l -0.23724,1.49229 h -2.35359 -2.35355 l 0.80012,-0.69182 z m 4.78017,0.41692 c 0,-0.44717 0.60929,-2.85626 0.76068,-3.00764 0.057,-0.0571 0.3096,0.10234 0.56133,0.35409 0.43165,0.43164 0.44055,0.50971 0.15628,1.37104 -0.44053,1.33485 -1.47829,2.23516 -1.47829,1.28251 z m -8.85176,-3.04051 c -0.26098,-0.42225 0.10709,-1.2107 0.80384,-1.72202 l 0.69544,-0.51036 1.32424,0.43099 c 1.30025,0.42317 1.31944,0.44059 1.06001,0.96241 -0.14626,0.29422 -0.59467,0.64497 -1.00455,0.78579 -0.92976,0.31945 -2.69429,0.35205 -2.87898,0.0531 z m 17.6722,-0.005 c -0.65691,-0.19055 -0.66456,-0.20919 -0.80741,-1.96985 -0.0816,-1.00587 -0.0558,-2.01 0.0595,-2.31312 0.17237,-0.45336 1.34007,-1.24035 1.84039,-1.24035 0.0834,0 0.11373,0.67132 0.0674,1.49181 -0.0464,0.8205 -0.0296,1.4918 0.0373,1.4918 0.0669,0 0.44743,-0.27202 0.84569,-0.60451 l 0.7241,-0.6045 -0.4859,-1.70649 c -0.68885,-2.419273 -0.62748,-2.370363 -1.99372,-1.588683 -2.24799,1.286183 -2.71421,0.866263 -2.71421,-2.44469 0,-1.76775 0.0805,-2.44825 0.33203,-2.80738 0.1826,-0.26072 1.21357,-1.17799 2.29099,-2.0384 1.70823,-1.36412 2.0712,-1.77577 2.83579,-3.21597 l 0.87682,-1.6516 0.15077,4.3352 c 0.0829,2.38436 0.1232,6.18132 0.0895,8.437693 l -0.0613,4.10247 h -0.56884 c -0.37161,0 -0.68989,0.18474 -0.91795,0.53278 -0.24647,0.3762 -0.54079,0.53279 -1.00129,0.53279 -0.42632,0 -0.62189,0.0922 -0.56471,0.26639 0.11495,0.35005 1.10488,0.45714 1.84399,0.19947 0.71515,-0.24929 1.30078,0.0254 1.30078,0.61031 0,0.38008 -0.15044,0.414 -1.75819,0.39641 -0.96702,-0.0105 -2.05664,-0.10578 -2.4214,-0.21158 z m 5.03206,-0.0686 c 0,-0.5081 1.59751,-1.18199 2.81548,-1.18767 1.23548,-0.006 1.81127,-0.53329 1.9582,-1.79407 0.41183,-3.53398 0.6415,-4.729273 0.95689,-4.980073 0.67007,-0.53288 1.84642,-1.05679 2.6532,-1.18166 0.9681,-0.14983 1.41953,-0.47606 1.41953,-1.02582 0,-0.5484 -0.45381,-0.50082 -2.34427,0.24577 -0.87911,0.34718 -1.70152,0.63157 -1.82762,0.63201 -0.42133,7.9e-4 -1.1153,-0.94851 -1.35626,-1.85653 -0.43592,-1.64266 -0.34853,-2.28287 0.5078,-3.7204 1.01026,-1.69595 1.20122,-2.63205 0.57728,-2.83007 -0.67107,-0.21299 -1.26752,0.22482 -1.51365,1.11109 -0.12169,0.43817 -0.22178,0.9092 -0.22244,1.04675 0,0.13754 -0.33053,0.68153 -0.73308,1.2089 -1.61216,2.11204 -1.80733,3.31402 -0.76234,4.69484 0.68403,0.90387 0.66976,0.99327 -0.41229,2.58391 -0.32966,0.484603 -0.43528,0.982473 -0.43635,2.057033 -0.002,1.36812 -0.0227,1.42511 -0.61177,1.63045 l -0.61036,0.21277 -0.13203,-1.84356 c -0.0726,-1.01397 -0.13329,-4.001373 -0.13479,-6.638673 -0.002,-2.6373 -0.0651,-5.77809 -0.14143,-6.97952 -0.11574,-1.82262 -0.0879,-2.18443 0.16792,-2.18443 0.26935,0 3.73079,-0.41576 6.29782,-0.75644 l 0.89413,-0.11866 0.32763,1.10325 c 0.39617,1.33408 4.49174,17.713233 4.66853,18.670653 l 0.1251,0.67743 -1.43016,0.32253 c -1.43616,0.32388 -5.66376,0.85261 -8.94249,1.1184 -1.56583,0.12694 -1.75818,0.10306 -1.75818,-0.21821 z m 7.13121,-5.93416 c -0.0817,-0.38096 -0.19087,-0.76457 -0.24261,-0.852473 -0.16597,-0.28201 -0.86005,-0.17086 -1.1554,0.185033 -0.24752,0.29822 -0.2006,0.41339 0.34685,0.85141 0.90833,0.72677 1.23427,0.66972 1.05116,-0.18398 z m 72.63567,5.30871 c -0.41434,-0.8528 -0.58774,-0.98767 -1.79344,-1.39484 -0.73411,-0.24791 -1.41203,-0.45075 -1.50648,-0.45075 -0.0945,0 -0.17173,0.33565 -0.17173,0.7459 0,0.87822 -0.25807,0.96483 -0.60515,0.20309 -0.36165,-0.79374 -0.31415,-1.29958 0.37284,-3.97148 0.59095,-2.298223 1.11801,-5.767213 1.43057,-9.415433 l 0.14355,-1.6756 0.72987,1.1428 c 1.03952,1.62764 2.676,5.08116 3.47017,7.32316 0.62223,1.756713 0.68622,2.182903 0.76065,5.066913 l 0.0813,3.14886 -0.79435,-1.53502 c -1.04483,-2.01898 -1.32288,-2.09322 -1.34214,-0.35833 -0.0224,2.02874 -0.21654,2.32159 -0.77567,1.17073 z m -94.95134,-0.50932 c -0.64739,-0.0678 -0.79919,-0.16988 -0.79919,-0.53785 0,-0.24984 -0.3876,-1.10668 -0.86134,-1.90409 -0.82639,-1.39101 -0.85097,-1.48446 -0.60578,-2.30281 0.22181,-0.74034 0.20667,-0.906963 -0.11466,-1.262033 -0.40152,-0.44367 -0.26082,-0.95367 0.41863,-1.51758 0.30088,-0.24971 0.37959,-0.2427 0.54246,0.0483 0.1735,0.31002 0.30013,0.30631 1.41789,-0.0416 0.67507,-0.21009 1.26183,-0.34937 1.30393,-0.3095 0.0421,0.0398 -0.14069,0.37751 -0.40614,0.75033 -0.39751,0.55826 -0.42982,0.70975 -0.1831,0.85866 0.97868,0.59067 0.96703,0.55273 0.46633,1.518813 l -0.4726,0.91187 0.4093,1.45102 c 0.29185,1.03468 0.35253,1.60032 0.21148,1.97132 -0.1088,0.28615 -0.27212,0.50416 -0.36292,0.48446 -0.0908,-0.0197 -0.52475,-0.0734 -0.96429,-0.11942 z m -66.304963,-0.53992 c -0.0703,-0.26241 -0.12615,-0.66891 -0.12402,-0.90335 0.004,-0.42054 0.008,-0.42071 0.31676,-0.0125 0.34977,0.46242 0.41158,1.09854 0.12402,1.27626 -0.10389,0.0642 -0.24644,-0.098 -0.31676,-0.36037 z m 94.382533,-0.21071 c -0.0632,-0.26374 -1.20227,-4.84305 -2.53115,-10.176263 -1.75854,-7.05757 -2.34723,-9.73761 -2.16294,-9.84691 0.13925,-0.0826 1.001,-0.39428 1.91495,-0.69263 2.5021,-0.81676 3.74458,-0.68853 4.16998,0.43037 0.44629,1.17383 -0.58926,2.01079 -2.48786,2.01079 -0.50997,0 -0.92723,0.0567 -0.92723,0.12596 0,0.0693 0.33566,0.5181 0.74591,0.99738 0.41025,0.47928 0.74591,0.98262 0.74591,1.11852 0,0.13591 0.25184,0.36186 0.55965,0.5021 0.59357,0.27046 0.61656,0.16274 0.18761,-0.8792 -0.13283,-0.3227 -0.0243,-0.37295 0.80584,-0.37295 h 0.95937 l -0.15161,-0.69262 c -0.0834,-0.38095 -0.0973,-0.90627 -0.0309,-1.16739 0.1359,-0.53411 0.76544,-1.33672 1.04852,-1.33672 0.37546,0 8.34278,15.701853 8.34278,16.441833 0,0.54749 -5.11889,2.54927 -9.19946,3.59751 -1.99876,0.51346 -1.85085,0.5179 -1.98943,-0.0598 z m -32.91023,-0.65796 c -0.75323,-0.25349 -1.40373,-0.56626 -1.44553,-0.69504 -0.0928,-0.28586 2.36445,-1.42069 2.86675,-1.32396 0.19794,0.0381 0.50015,0.3192 0.67158,0.62462 0.26168,0.46624 0.26727,0.66256 0.0347,1.2239 -0.32141,0.77596 -0.3271,0.77642 -2.12755,0.17048 z m 92.87141,-3.39124 c -2.04029,-2.890093 -3.41595,-4.612623 -6.30574,-7.895713 -1.32049,-1.50022 -2.40089,-2.84352 -2.40089,-2.98512 0,-0.14159 0.2371,-1.11927 0.52692,-2.17263 0.46499,-1.69015 0.7589,-3.58212 1.33927,-8.6212 l 0.15839,-1.37544 1.38526,1.21549 c 1.74752,1.53337 2.95274,2.38322 3.12933,2.20663 0.13425,-0.13426 -1.22333,-1.51921 -3.59707,-3.66951 l -1.1925,-1.08022 -0.13759,-1.90339 c -0.12935,-1.78966 -0.81793,-5.70189 -1.48843,-8.45667 -0.21906,-0.90004 -0.23262,-1.22523 -0.0511,-1.22474 0.83341,0.003 7.4296,5.44997 8.64037,7.13595 0.79003,1.10007 1.32071,2.41762 2.02798,5.03494 0.57343,2.12198 1.47936,6.90547 1.70959,9.02688 l 0.13808,1.27219 -1.18733,-1.27219 c -0.65301,-0.6997 -1.32764,-1.48458 -1.49915,-1.74418 -0.17151,-0.25961 -0.50366,-0.57467 -0.73809,-0.70013 -0.64689,-0.34621 -0.55826,0.32494 0.12545,0.94982 0.30342,0.27731 0.63927,0.58463 0.74635,0.68293 0.10706,0.0983 0.69057,0.92806 1.29667,1.8439 1.30771,1.97605 1.42919,2.719 1.04411,6.38626 -0.46884,4.46513 -1.504,9.530583 -1.94764,9.530583 -0.0991,0 -0.8741,-0.98299 -1.72227,-2.18444 z m -0.3086,-18.214533 c -0.32249,-0.51123 -0.7038,-0.57877 -0.86696,-0.15356 -0.17774,0.46317 0.5375,1.06096 0.87073,0.72774 0.15095,-0.15096 0.14978,-0.33075 -0.003,-0.57418 z M 88.091217,101.03942 c -0.13509,-0.61537 -0.30099,-2.005953 -0.36864,-3.090173 -0.10475,-1.67808 -0.0747,-1.97131 0.20184,-1.97131 0.52146,0 0.73631,0.44736 0.87227,1.81627 0.146,1.46974 -0.0499,4.364073 -0.29533,4.364073 -0.0905,0 -0.27506,-0.50349 -0.41014,-1.11886 z m 84.337603,0.59137 c 0.14519,-0.7595 0.52855,-0.93645 0.44248,-0.20426 -0.0383,0.32578 -0.17693,0.62749 -0.30808,0.67048 -0.15072,0.0494 -0.20016,-0.12216 -0.1344,-0.46622 z m 53.62453,-0.97972 c -3.51324,-4.323233 -6.54072,-7.732883 -9.93809,-11.192633 l -2.32113,-2.36375 1.11984,-1.8959 c 0.61588,-1.04274 1.65687,-3.03307 2.3133,-4.42294 l 1.19349,-2.52704 2.44459,1.74607 c 4.59575,3.28256 11.81379,9.46064 12.16383,10.41129 0.17253,0.46854 -0.36678,1.97242 -1.76877,4.93242 -1.00906,2.13037 -3.29376,6.157473 -3.78767,6.676313 -0.0923,0.097 -0.73103,-0.51676 -1.41939,-1.36383 z m -34.44577,-6.644463 c -1.9625,-3.89734 -4.11637,-8.11546 -4.78639,-9.37362 -0.91583,-1.71979 -1.15754,-2.34819 -0.97387,-2.53186 0.18368,-0.18368 0.28034,-0.0523 0.38946,0.52934 0.0841,0.4484 0.26956,0.77366 0.4411,0.77366 0.16275,0 0.36788,0.007 0.45579,0.0157 0.0879,0.009 0.30679,-0.58409 0.48642,-1.31722 0.32276,-1.31738 0.34393,-1.34378 1.80609,-2.25348 0.81375,-0.50626 1.64197,-0.92047 1.84052,-0.92047 0.63158,0 10.50926,11.91202 12.87345,15.5248 l 0.60624,0.92642 -0.52152,0.41129 c -1.93565,1.52653 -8.23892,5.301493 -8.8522,5.301493 -0.10829,0 -1.80256,-3.188743 -3.76509,-7.086093 z m 60.56858,2.87706 c -0.73902,-1.86084 -1.82369,-3.97215 -3.10422,-6.04225 -1.23974,-2.00422 -1.37754,-2.49514 -1.76839,-6.30041 -0.12239,-1.19153 -0.51524,-3.48214 -0.87298,-5.09026 -0.35774,-1.60811 -0.60882,-2.96547 -0.55795,-3.01634 0.13034,-0.13034 0.87479,1.91632 1.75218,4.81717 0.41128,1.35972 1.11775,3.28739 1.56992,4.28371 0.86174,1.89872 1.2837,3.35129 0.90569,3.11766 -0.1178,-0.0728 -0.38676,-0.61226 -0.59767,-1.19879 -0.21092,-0.58653 -0.47269,-1.06641 -0.58174,-1.06641 -0.28577,0 -0.008,1.54231 0.62324,3.45632 0.51813,1.57195 0.57542,1.65108 1.29264,1.78564 0.53262,0.0999 0.86436,0.33388 1.14279,0.80598 0.21575,0.36585 0.47513,0.75608 0.5764,0.86718 0.10131,0.11108 0.14472,0.47071 0.0965,0.79917 -0.0863,0.58793 0.26862,0.85042 0.4473,0.3308 0.0504,-0.14651 0.0614,-0.0796 0.0245,0.14876 -0.0369,0.22831 0.0384,0.5422 0.16728,0.69749 0.1821,0.2194 0.15632,0.25243 -0.11548,0.14813 -0.48285,-0.18529 -0.46255,0.46548 0.0231,0.74142 0.31471,0.17879 0.33136,0.27982 0.10657,0.64704 -0.14652,0.23933 -0.2664,0.62827 -0.2664,0.86428 0,0.7856 -0.37108,0.44336 -0.86337,-0.79629 z M 84.938107,95.551697 c -0.002,-0.29304 0.0728,-0.77255 0.16667,-1.06558 0.1337,-0.41748 0.16976,-0.44055 0.16666,-0.10655 -0.002,0.23443 -0.0772,0.71394 -0.16666,1.06557 -0.14614,0.57429 -0.1631,0.58513 -0.16667,0.10656 z m 118.423223,-3.46312 c -2.68645,-3.54178 -6.51502,-8.25767 -9.21308,-11.34838 l -2.2325,-2.55739 2.05773,-2.13115 c 1.13175,-1.17214 2.17229,-2.16114 2.31227,-2.19777 0.14,-0.0367 0.51963,0.34696 0.8436,0.85246 0.32398,0.50549 0.618,0.96004 0.65341,1.01008 0.0354,0.0501 0.18322,-0.069 0.32853,-0.26453 0.23627,-0.31796 0.49097,-0.18116 2.40978,1.29425 5.2799,4.05983 12.02658,9.98871 12.02658,10.56878 0,0.57158 -6.4802,7.38431 -7.02388,7.38431 -0.10024,0 -1.07334,-1.1748 -2.16244,-2.61066 z m -115.887783,1.33197 c 0.01,-0.29303 0.0948,-0.77254 0.18861,-1.06558 0.15633,-0.48818 0.17212,-0.47033 0.1886,0.21312 0.01,0.41025 -0.075,0.88976 -0.1886,1.06557 -0.16243,0.25134 -0.20276,0.20577 -0.18861,-0.21311 z m 1.05212,-1.06558 c -0.003,-0.41024 0.13754,-1.27336 0.31296,-1.91803 0.17544,-0.64468 0.60973,-2.79836 0.96511,-4.78595 0.35538,-1.98761 0.69022,-3.6579 0.74409,-3.71177 0.1438,-0.14379 0.13186,-0.0103 -0.3218,3.59607 -0.47639,3.78708 -0.95774,6.21035 -1.39243,7.01011 l -0.30192,0.55548 -0.006,-0.74591 z m -2.9823,0.27557 c -0.0492,-1.02488 2.40911,-9.00713 2.68806,-8.72817 0.16439,0.16438 -0.97385,4.3057 -1.8319,6.66512 -0.4641,1.27616 -0.84937,2.20452 -0.85616,2.06305 z m 29.304723,-3.41902 c 0.0706,-0.32233 0.16876,-0.71482 0.21805,-0.87218 0.0493,-0.15736 -0.095,-0.33441 -0.32075,-0.39343 -0.32777,-0.0858 -0.38862,-0.24264 -0.30225,-0.77946 0.0595,-0.36968 -0.0425,-1.1037 -0.22672,-1.63116 -0.1842,-0.52746 -0.33628,-1.06952 -0.338,-1.20456 -0.003,-0.30658 0.90369,-0.64638 3.0498,-1.14187 0.91718,-0.21177 1.71391,-0.43129 1.77046,-0.48786 0.0565,-0.0565 -0.21436,-0.32199 -0.60206,-0.58985 -0.3877,-0.26786 -0.7514,-0.52464 -0.80826,-0.57062 -0.1424,-0.11514 0.79437,-0.83578 1.73414,-1.33406 0.86353,-0.45786 0.92141,-0.42668 1.56765,0.84431 l 0.37462,0.73681 -0.72094,0.61243 c -0.39652,0.33682 -1.15251,0.91 -1.67997,1.27371 -1.23997,0.85502 -1.27157,0.91059 -1.27544,2.243 -0.003,1.32638 -0.53988,2.51164 -1.50206,3.32126 -0.84911,0.71448 -1.09909,0.70744 -0.93827,-0.0264 z m 117.30614,-0.95046 c -2.69241,-2.51304 -6.29846,-5.50367 -9.75001,-8.08601 -2.02193,-1.51274 -3.67625,-2.87241 -3.67625,-3.02148 0,-0.14907 0.19018,-1.1293 0.42261,-2.17829 0.23244,-1.04897 0.52771,-3.00968 0.65617,-4.35713 0.12847,-1.34744 0.26855,-2.48486 0.31129,-2.5276 0.28079,-0.28078 9.21201,4.70579 12.46243,6.95813 2.29758,1.59209 2.77079,2.12583 2.76857,3.12266 -0.007,2.91924 -1.47036,11.2604 -1.96409,11.19189 -0.0322,-0.004 -0.58603,-0.50044 -1.23072,-1.10217 z m -84.53412,-0.87736 c -0.71417,-0.65448 -0.79255,-0.82884 -0.74382,-1.65471 0.0299,-0.50772 0.14695,-1.03457 0.25996,-1.17076 0.11305,-0.13619 0.14835,-0.3966 0.0785,-0.57868 -0.0848,-0.22094 0.0726,-0.43567 0.47308,-0.64551 0.57484,-0.30119 0.63352,-0.28426 1.39324,0.40211 0.58972,0.53277 1.06868,0.7531 1.86752,0.85906 0.5909,0.0784 1.07289,0.2021 1.07107,0.27491 -0.002,0.0728 -0.368,0.80369 -0.81374,1.62419 -0.80896,1.48908 -0.81226,1.49191 -1.79897,1.55638 -0.87321,0.0571 -1.08167,-0.0208 -1.78681,-0.66699 z m 4.19727,-0.0969 c 0.004,-0.0842 0.14461,-0.3929 0.31212,-0.68594 l 0.30456,-0.53279 0.008,0.56327 c 0.004,0.3098 -0.1363,0.61847 -0.31212,0.68593 -0.17582,0.0675 -0.31627,0.0537 -0.31213,-0.0304 z m 58.763,-3.10972 c -3.16072,-2.85402 -7.47671,-6.43019 -10.88441,-9.01866 -1.61801,-1.22903 -2.91165,-2.29804 -2.87481,-2.37559 1.18732,-2.49855 2.5853,-4.9361 2.83092,-4.9361 0.83982,0 12.62022,6.3446 16.3054,8.78163 1.25111,0.82737 1.38229,0.98234 1.35468,1.60043 -0.0616,1.37783 -3.56346,7.94584 -4.23654,7.94584 -0.15566,0 -1.27854,-0.89889 -2.49524,-1.99755 z m -100.90283,-0.19616 c -0.84362,-0.61026 -1.53891,-1.25823 -1.54509,-1.4399 -0.017,-0.49852 0.43036,-0.8418 1.09695,-0.8418 0.32821,0 0.59673,-0.0856 0.59673,-0.19017 0,-0.29322 -2.54408,-2.58034 -2.87026,-2.58034 -0.15871,0 -0.54229,0.30152 -0.85237,0.67003 l -0.56377,0.67002 -1.02304,-1.10698 -1.02302,-1.10697 0.87524,-0.70412 c 2.63306,-2.11826 12.17093,-7.79904 13.09437,-7.79904 0.10317,0 0.30859,0.88556 0.4565,1.96792 0.14792,1.08236 0.49719,2.9106 0.77616,4.06276 0.65554,2.70727 0.64656,3.14032 -0.0788,3.79812 -0.67066,0.60819 -2.10816,1.67941 -2.25363,1.67941 -0.0538,0 -0.25114,-0.3836 -0.43873,-0.85246 -0.18761,-0.46885 -0.42935,-0.85245 -0.53721,-0.85245 -0.10785,0 -0.26091,0.3836 -0.34013,0.85245 -0.0792,0.46886 -0.23148,0.85246 -0.33841,0.85246 -0.30172,0 -0.22956,-0.96898 0.1412,-1.89562 0.54529,-1.36282 0.35904,-1.94155 -0.81952,-2.54639 -1.14164,-0.58587 -1.51227,-0.48484 -0.85772,0.23383 0.6118,0.67177 0.91543,1.31948 0.91543,1.95287 0,0.43554 -0.20488,0.64703 -1.03361,1.06699 -0.98636,0.49982 -1.04484,0.57958 -1.27868,1.74406 -0.35114,1.74839 -0.32054,1.97459 0.28771,2.12725 0.29302,0.0736 0.53278,0.20119 0.53278,0.28365 0,0.13731 -1.18043,1.09469 -1.32332,1.07328 -0.0341,-0.005 -0.75214,-0.50859 -1.59576,-1.11886 z m 60.04342,0.75518 c 0.0134,-0.22775 3.11105,-2.37532 4.25284,-2.94853 0.52745,-0.2648 1.20822,-0.54361 1.51279,-0.61958 0.52433,-0.13078 0.5725,-0.0714 0.90573,1.11627 0.47817,1.70415 0.45388,1.91771 -0.23409,2.05786 -2.54619,0.51869 -6.45885,0.75816 -6.43727,0.39398 z m 7.89756,-1.18309 c -0.0949,-0.2577 -0.23933,-0.74441 -0.32106,-1.08157 -0.12972,-0.53523 -0.0999,-0.59195 0.23518,-0.44701 0.21108,0.0913 0.9592,0.30468 1.66248,0.47415 1.67658,0.40405 1.88919,0.47264 1.7856,0.57625 -0.0477,0.0478 -0.78504,0.28035 -1.6383,0.5168 l -1.55143,0.42993 z m -85.562743,-1.08382 c 0.18363,-0.53897 0.82049,-1.77184 1.4152,-2.73971 1.565189,-2.54724 1.961519,-3.42664 2.618,-5.80897 0.322989,-1.17213 0.770819,-2.43987 0.995169,-2.81718 0.70283,-1.18206 6.308604,-5.44654 6.061434,-4.61112 -0.64436,2.17789 -1.26935,6.10893 -1.36529,8.58746 l -0.11088,2.86409 -0.95654,1.02263 c -1.154603,1.23436 -1.555373,1.2128 -3.098533,-0.16674 -0.562781,-0.50311 -1.153441,-0.86478 -1.312571,-0.80371 -0.273609,0.10499 -0.99801,1.04719 -2.830849,3.68198 -0.44032,0.63297 -1.01397,1.29043 -1.27481,1.46102 l -0.47423,0.31018 z m 41.010153,-0.72349 c 0.58754,-0.74585 6.09842,-5.38357 7.83153,-6.59066 l 1.12867,-0.78609 2.14185,2.14185 2.14186,2.14185 -1.84267,0.3867 c -1.75366,0.36802 -1.89894,0.36896 -3.00732,0.0196 l -1.16465,-0.36713 -2.60556,1.31266 c -1.43306,0.72196 -2.86208,1.49531 -3.1756,1.71856 -0.31352,0.22325 -0.88517,0.46894 -1.27035,0.54597 l -0.7003,0.14006 z m -43.272943,-1.32456 c 0.35484,-0.70292 0.84266,-1.59003 1.08404,-1.97131 l 0.43888,-0.69325 -0.14858,0.74591 c -0.12408,0.62291 -1.68668,3.19673 -1.94077,3.19673 -0.0433,0 0.21158,-0.57513 0.56643,-1.27808 z m 31.102193,-0.5726 c -0.24701,-0.74842 -0.23035,-0.8081 0.35643,-1.27763 0.75769,-0.6063 0.93519,-0.61768 0.93519,-0.0599 0,0.4111 -0.76344,2.12266 -0.94681,2.12266 -0.0471,0 -0.2023,-0.3533 -0.34481,-0.7851 z m 11.54155,0.11263 c -0.19905,-0.57097 -0.15693,-0.84175 0.27906,-1.79408 0.81316,-1.7762 2.19967,-3.68715 3.96003,-5.45791 1.68564,-1.69563 2.52344,-2.1384 3.11589,-1.64672 0.32115,0.26653 1.56926,2.29441 1.57346,2.5565 0.002,0.0685 -0.88047,0.83579 -1.95906,1.70492 -1.0786,0.86913 -2.95501,2.41938 -4.16983,3.44499 -1.2148,1.02563 -2.28894,1.86476 -2.38695,1.86476 -0.098,0 -0.28367,-0.3026 -0.4126,-0.67246 z m 53.83369,0.38675 c -0.0603,-0.15715 -0.0266,-0.42008 0.0749,-0.58429 0.24869,-0.40239 0.73676,0.0673 0.55694,0.53601 -0.15706,0.40925 -0.48372,0.43422 -0.63183,0.0483 z m -37.81718,-1.31345 c -0.26372,-0.18867 -0.47951,-0.41129 -0.47951,-0.4947 0,-0.32299 1.92854,-2.46037 6.36249,-7.05148 4.59988,-4.76295 7.70531,-7.69075 8.15734,-7.69075 0.16045,0 0.18491,0.226491 0.0748,0.692626 -0.09,0.380944 -0.14978,1.006334 -0.13297,1.389764 0.0238,0.54387 -0.16253,0.90668 -0.84793,1.65022 -0.48318,0.52421 -1.20985,1.15787 -1.61481,1.40815 -0.60574,0.37437 -0.71332,0.54658 -0.60672,0.97128 0.197,0.78488 -0.60674,1.8139 -1.28402,1.64392 -0.49683,-0.1247 -0.51802,-0.0864 -0.51802,0.93461 v 1.06463 l -1.61165,0.92212 c -1.4256,0.81566 -1.72201,1.09918 -2.56755,2.4558 -1.03012,1.65278 -1.61027,2.03543 -3.50092,2.30916 -0.70456,0.102 -1.07532,0.0488 -1.43055,-0.20535 z m 3.43957,-1.08021 c 0.0707,-0.18432 0.0264,-0.52616 -0.0986,-0.75966 -0.18141,-0.33898 -0.28866,-0.37356 -0.53202,-0.17159 -0.31815,0.26403 -0.40727,0.87975 -0.16273,1.12428 0.25138,0.25139 0.66108,0.1517 0.79337,-0.19303 z m -32.23825,-1.78764 c -0.62467,-2.54712 -1.09006,-5.24351 -1.09042,-6.31767 l -1.5e-4,-0.87483 1.96103,-0.91114 c 1.72541,-0.80166 7.05572,-2.88624 8.45501,-3.30658 0.56894,-0.17091 0.61382,-0.286274 -0.65615,1.68647 -0.49607,0.7706 -1.22318,1.53755 -1.87179,1.97435 -1.1775,0.79298 -1.8889,1.84599 -1.44059,2.13239 0.14609,0.0933 0.76889,0.21865 1.38403,0.27848 l 1.11843,0.1088 -0.90531,1.10022 c -2.90902,3.53513 -5.52023,6.03914 -6.29786,6.03914 -0.10335,0 -0.39865,-0.85934 -0.65623,-1.90963 z m 25.05921,-0.22717 -1.9237,-1.92369 0.61983,-0.64697 c 1.26201,-1.31726 12.7494,-8.850192 16.0172,-10.503404 0.94822,-0.4797 1.18202,-0.524806 1.54509,-0.298072 0.2353,0.146945 0.4278,0.361294 0.4278,0.476327 0,0.115044 -2.13648,2.369639 -4.74775,5.010229 -2.61126,2.64059 -5.7843,5.92791 -7.05117,7.30516 -1.26689,1.37726 -2.45196,2.50411 -2.63352,2.50411 -0.18155,0 -1.19575,-0.86566 -2.25378,-1.92369 z m -42.13356,-0.39297 c 0,-1.86037 0.55719,-5.67647 1.20921,-8.28161 0.20783,-0.83046 0.5425,-1.5381 0.89352,-1.88934 1.04835,-1.049001 6.91436,-3.789222 11.40307,-5.326782 1.50892,-0.516855 2.76419,-0.939744 2.78949,-0.939744 0.0253,0 -0.1281,0.791191 -0.34088,1.758196 -0.21277,0.967012 -0.38913,2.168162 -0.39193,2.669214 -0.004,0.795978 -0.0791,0.938975 -0.59113,1.132414 -0.64161,0.242382 -1.75821,1.220762 -1.75821,1.540562 0,0.11211 0.424,0.15317 0.95902,0.0929 l 0.95902,-0.1081 v 1.10616 1.10616 l -2.39244,1.2652 c -3.47346,1.83691 -6.84873,3.87306 -9.85659,5.94605 -1.45176,1.00055 -2.69415,1.81918 -2.76087,1.81918 -0.0667,0 -0.12128,-0.8507 -0.12128,-1.89043 z m 88.14101,1.17792 c -0.71209,-0.56976 -0.65535,-0.62903 0.94113,-0.98291 0.64466,-0.14291 1.36393,-0.30998 1.59836,-0.37127 0.29833,-0.078 0.14113,0.18338 -0.52388,0.87107 -0.52257,0.54038 -1.05003,0.98202 -1.17213,0.98144 -0.12211,-5.3e-4 -0.50169,-0.22483 -0.84348,-0.49833 z m -4.98129,-0.0867 c -0.41491,-0.361 -1.31003,-2.80606 -1.72633,-4.7156 l -0.20338,-0.93281 0.85358,0.82625 c 0.46945,0.45444 1.12263,1.41534 1.45147,2.13532 0.48937,1.07142 0.78128,1.41653 1.60794,1.90098 0.92996,0.54499 0.97928,0.61437 0.62236,0.87536 -0.56131,0.41045 -2.09144,0.35789 -2.60564,-0.0895 z m 29.14446,-1.5782 c -3.16144,-1.97316 -7.19006,-4.20183 -11.46214,-6.34102 -1.87783,-0.94029 -3.46529,-1.79226 -3.52771,-1.89323 -0.18566,-0.30042 0.59348,-5.371835 0.8252,-5.371215 0.5137,7.93e-4 6.174,1.592709 9.02557,2.537465 4.28707,1.42034 8.67064,3.15934 9.01583,3.57663 0.76532,0.92521 -0.28265,9.0163 -1.16779,9.0163 -0.14612,0 -1.36516,-0.68622 -2.70896,-1.52493 z m 18.29035,-0.53414 c -2.71801,-1.85661 -6.26259,-3.9554 -9.84527,-5.8295 l -3.25712,-1.70382 -0.25845,-2.13238 c -0.14213,-1.172817 -0.52721,-3.234207 -0.85571,-4.580876 -0.32851,-1.346673 -0.51524,-2.448488 -0.41494,-2.448488 0.43118,0 6.01265,1.937702 7.96343,2.764668 3.13811,1.330283 5.84873,2.77163 6.17702,3.284607 0.46834,0.731781 1.12366,2.958709 1.68836,5.737359 0.5312,2.61384 0.92912,6.11504 0.695,6.11504 -0.0692,0 -0.92076,-0.54297 -1.89232,-1.20661 z m -40.12714,0.0585 c -0.88054,-0.38431 -2.10126,-1.79037 -2.86092,-3.29529 -1.04568,-2.07146 -0.34107,-2.07936 2.53165,-0.0284 2.81859,2.01236 2.79565,1.97791 1.91917,2.88221 -0.80958,0.83525 -0.73501,0.81456 -1.5899,0.44144 z m -23.28283,-0.71025 c -0.18888,-0.0674 -0.2664,-0.71164 -0.2664,-2.21378 0,-2.04692 0.0175,-2.12532 0.51733,-2.31535 1.00254,-0.38117 2.07093,-0.35371 2.33073,0.0599 0.24388,0.38825 0.041,0.65471 -0.91842,1.20604 -0.25381,0.14588 -0.20692,0.30966 0.2664,0.93021 0.31595,0.41424 0.57447,0.84981 0.57447,0.96792 0,0.46473 -0.48325,0.47376 -0.96827,0.0181 l -0.5105,-0.47958 -0.22301,0.61709 c -0.40006,1.10706 -0.53201,1.30596 -0.80233,1.20947 z m -28.36148,-1.85263 c -0.76203,-1.06113 -0.80209,-1.19057 -0.36837,-1.19057 0.49127,0 0.59646,-0.38778 0.24236,-0.89336 -0.29648,-0.42328 -0.29424,-0.50485 0.0237,-0.85606 0.19321,-0.21351 0.72624,-0.44815 1.18445,-0.52142 0.60626,-0.0969 0.88433,-0.2678 1.02104,-0.62741 0.10335,-0.2718 0.59934,-0.70229 1.10221,-0.95665 0.50288,-0.25435 1.52436,-0.93958 2.26997,-1.52271 1.63506,-1.278783 2.43907,-1.643328 7.35685,-3.335685 l 3.81084,-1.311434 0.81892,0.377105 c 0.4504,0.20741 0.82138,0.426672 0.82441,0.487251 0.003,0.06053 -1.36109,0.911776 -3.03138,1.891538 -2.71808,1.594385 -9.29763,5.901875 -12.90715,8.450025 -0.74008,0.52248 -1.41912,0.94996 -1.50895,0.94996 -0.0898,0 -0.4673,-0.42326 -0.8388,-0.94058 z m 52.90277,-0.72758 c -1.48306,-0.96127 -1.74604,-1.24926 -1.91577,-2.09784 -0.10467,-0.52339 -0.0298,-0.69889 0.42497,-0.9969 0.75389,-0.49397 0.69262,-0.7781 -0.16779,-0.7781 -0.88262,0 -1.13641,-0.2842 -1.32893,-1.48812 -0.0974,-0.60894 -0.34177,-1.10454 -0.70197,-1.423516 l -0.55259,-0.489339 1.09482,0.316352 c 0.60215,0.174003 2.37633,0.851953 3.94264,1.506533 1.56629,0.65461 2.97482,1.24252 3.13006,1.30647 0.37858,0.15596 0.18523,0.86298 -0.74382,2.71989 -0.80999,1.61893 -1.27303,2.24027 -1.66957,2.24027 -0.13949,0 -0.81991,-0.36707 -1.51205,-0.8157 z m -25.81849,-0.13691 c -0.16638,-0.54263 -0.18576,-0.91968 -0.0541,-1.05137 0.33304,-0.33304 0.4568,-0.0197 0.38285,0.96949 l -0.0694,0.92793 z m 16.30181,-0.26932 c -0.65149,-0.68131 -0.70579,-1.09485 -0.32875,-2.50453 0.24869,-0.92984 0.70616,-1.26303 0.9307,-0.67787 0.06,0.15631 0.081,1.07419 0.0466,2.03974 l -0.0624,1.75553 z m 56.83295,-1.36581 c -0.34311,-0.3659 -1.48693,-1.38323 -2.54184,-2.26074 -1.05493,-0.87752 -2.00567,-1.67654 -2.11277,-1.77561 -0.28414,-0.26284 1.37671,0.029 2.02785,0.35637 0.6688,0.33622 1.64993,1.42769 2.68586,2.98789 0.88102,1.32691 0.85224,1.66398 -0.0591,0.69209 z M 97.154836,69.198037 c 0.946121,-2.20874 1.300441,-3.69558 0.8807,-3.69558 -0.149449,0 -0.39694,0.11987 -0.54998,0.26639 -0.153049,0.14652 0.0281,-0.34707 0.402471,-1.096865 0.437549,-0.876263 0.643669,-1.557118 0.57699,-1.905931 -0.075,-0.392266 0.097,-0.805588 0.62048,-1.491168 0.398319,-0.521666 0.724219,-0.881317 0.724219,-0.79923 0,0.312841 1.346094,-0.653833 1.903054,-1.366652 0.96715,-1.237792 1.00309,-1.354312 0.38099,-1.235385 -0.52125,0.09964 -0.49965,0.04314 0.41573,-1.087958 2.04699,-2.529317 5.37747,-6.116657 7.31665,-7.880908 2.77282,-2.522724 4.99038,-4.288105 5.51281,-4.388709 0.23996,-0.04618 0.89185,-0.285548 1.44867,-0.531852 l 1.01237,-0.447824 -0.44389,0.487129 c -0.24414,0.267917 -0.55516,0.702896 -0.69115,0.96663 -0.13597,0.263725 -0.38771,0.479501 -0.55941,0.479501 -0.17378,0 -0.31218,0.195894 -0.31218,0.441858 0,0.308101 0.11289,0.418524 0.37295,0.364791 0.20513,-0.04236 0.35963,-0.241225 0.34336,-0.441859 -0.0163,-0.200633 0.0939,-0.36479 0.2449,-0.36479 0.15098,0 0.90905,-0.575052 1.68461,-1.277896 2.73932,-2.482481 3.67023,-2.829989 8.54272,-3.189038 3.57238,-0.263248 3.33522,-0.262264 3.72554,-0.01548 0.25222,0.159486 -0.0863,0.609494 -1.68344,2.238169 -1.09952,1.121201 -1.93861,2.099069 -1.86464,2.173041 0.19465,0.194641 1.75404,-0.936059 2.5218,-1.828525 1.25941,-1.463996 2.55897,-2.357872 3.43152,-2.360333 0.92796,-0.0026 4.12415,0.655303 6.80624,1.401026 2.08324,0.579218 5.49745,1.780558 5.49745,1.934373 0,0.05532 -0.25114,0.429874 -0.55808,0.832298 -0.64134,0.84083 -0.37395,0.947339 0.70468,0.280711 0.71742,-0.443398 0.75186,-0.444763 2.04974,-0.08158 0.72604,0.203173 1.89547,0.659583 2.59875,1.014249 l 1.27869,0.644858 -1.06215,0.310169 c -1.68021,0.490652 -2.24113,0.991279 -2.24113,2.000214 0,0.467786 -0.0734,0.805144 -0.16318,0.74968 -0.0897,-0.05549 -1.36042,-0.31177 -2.82376,-0.569572 -1.46333,-0.257803 -2.69519,-0.500402 -2.73744,-0.539114 -0.0423,-0.0387 0.37306,-0.643014 0.92293,-1.34291 0.86158,-1.096657 0.9669,-1.333951 0.76196,-1.716893 -0.1308,-0.244399 -0.31895,-0.444354 -0.41813,-0.444354 -0.25061,0 -1.144,1.206602 -1.6963,2.290988 -0.5477,1.075357 -0.49981,1.069765 -5.03463,0.58795 -1.64099,-0.174341 -4.87278,-0.318024 -7.18177,-0.319276 l -4.19814,-0.0026 0.31166,-0.745905 c 0.38083,-0.911462 0.15686,-0.951957 -0.64365,-0.11639 -0.86404,0.901843 -1.64413,1.204776 -4.09569,1.590467 -2.41205,0.379471 -5.34851,1.110103 -7.68835,1.912995 -0.84981,0.291592 -1.54509,0.458644 -1.54509,0.371217 0,-0.139134 0.80745,-1.130926 3.06034,-3.759019 0.33524,-0.391057 0.56827,-0.834803 0.51782,-0.986096 -0.11516,-0.345516 -2.16098,1.676459 -3.95287,3.906782 -1.09409,1.361791 -1.65953,1.841893 -3.3208,2.819604 -2.10629,1.239618 -5.26017,3.423407 -5.50766,3.813569 -0.15825,0.249487 -0.0322,0.569841 0.22414,0.569841 0.0879,0 1.11315,-0.680934 2.2784,-1.513197 1.16526,-0.832262 2.48761,-1.702097 2.93857,-1.932955 l 0.81993,-0.419749 -0.7823,1.346884 c -0.90066,1.550666 -3.16287,6.193514 -4.08145,8.376541 -0.59712,1.419068 -0.71476,1.550188 -2.51638,2.804838 -1.0395,0.72391 -2.426883,1.78594 -3.083083,2.36008 -1.694651,1.48278 -1.8134,1.53024 -1.397111,0.5584 z M 127.05081,46.038032 c 0.0398,-0.205566 -0.0671,-0.355292 -0.25381,-0.355292 -0.39592,0 -0.63486,0.347411 -0.44748,0.650598 0.19276,0.311909 0.61828,0.132731 0.70129,-0.295306 z m 2.41526,21.986065 c 0.22406,-0.96224 0.52351,-1.89928 0.66543,-2.08231 1.45352,-1.874497 1.7858,-2.165705 2.81326,-2.46551 2.91353,-0.850135 4.19481,-1.113922 4.26786,-0.878655 0.0411,0.13249 0.1799,0.885537 0.30839,1.673442 0.22968,1.408513 0.2223,1.452583 -0.44063,2.627223 -0.75628,1.34004 -1.22442,1.60838 -2.50606,1.43648 l -0.884,-0.11857 0.53825,-0.96305 c 0.29605,-0.52968 0.48629,-1.01502 0.42277,-1.07854 -0.0635,-0.0635 -0.71226,0.46769 -1.44164,1.18046 -0.72937,0.71278 -1.53562,1.4027 -1.79164,1.53315 -0.64934,0.33087 -1.13286,0.29567 -1.13286,-0.0824 0,-0.45717 -0.37352,-0.39525 -0.52669,0.0873 -0.0711,0.22385 -0.25756,0.51356 -0.41449,0.64379 -0.21586,0.17915 -0.18616,-0.18907 0.12205,-1.51274 z m -10.90221,-1.42185 c 0,-1.1304 0.0504,-1.26742 0.54892,-1.4946 0.46488,-0.21181 0.6324,-0.18443 1.09432,0.17891 1.0229,0.80462 1.98936,0.5542 3.69946,-0.958594 0.52534,-0.464725 1.15183,-0.753108 2.0246,-0.931945 1.85648,-0.380428 2.75568,-0.875038 2.75568,-1.515798 0,-0.297272 0.13884,-0.55277 0.31967,-0.588184 0.22156,-0.0434 0.32114,0.118885 0.32448,0.528814 0.003,0.325287 0.0677,0.881074 0.14472,1.235078 l 0.13989,0.643641 -2.00418,0.685665 c -1.10231,0.377123 -3.51072,1.310233 -5.35203,2.073593 -1.84132,0.76334 -3.42608,1.3879 -3.5217,1.3879 -0.0956,0 -0.17383,-0.56002 -0.17383,-1.24448 z m 57.96733,0.63816 c 0,-0.2063 0.70759,-0.88549 0.92252,-0.88549 0.0787,0 0.14306,0.23975 0.14306,0.53279 0,0.42622 -0.10657,0.53279 -0.53279,0.53279 -0.29304,0 -0.53279,-0.0811 -0.53279,-0.18009 z m 1.73006,-1.0722 c -0.2792,-0.2147 -0.46946,-0.50494 -0.42276,-0.64499 0.0509,-0.15284 0.33373,0.005 0.70735,0.39509 0.6849,0.71489 0.51461,0.86444 -0.28459,0.2499 z m 18.30276,-0.57787 c -0.99633,-0.41623 -2.9043,-1.170537 -4.23996,-1.676243 -1.33567,-0.505701 -2.49812,-1.050484 -2.58323,-1.210631 -0.0851,-0.160147 -0.2749,-0.818634 -0.42172,-1.463309 -0.14685,-0.644676 -0.44635,-1.369523 -0.66555,-1.610776 l -0.39856,-0.438647 1.47478,0.15758 c 1.92912,0.206132 7.27452,1.180423 8.69899,1.585545 l 1.11885,0.318204 -0.005,1.112896 c -0.005,0.982016 -0.0964,1.586439 -0.53337,3.510451 -0.14255,0.6278 -0.30535,0.60882 -2.44503,-0.28507 z m 19.71315,-0.0929 c -3.2066,-1.281017 -7.97886,-2.866463 -11.85769,-3.939402 -1.90689,-0.527486 -3.56738,-1.058703 -3.68997,-1.180494 -0.37746,-0.375052 -1.16857,-4.970926 -0.88964,-5.168359 0.69066,-0.488886 12.03552,0.896294 15.97977,1.951097 1.15719,0.309468 1.35468,0.441772 1.69325,1.134362 0.45757,0.936016 1.36413,5.133535 1.46389,6.777906 0.0552,0.91077 0,1.18038 -0.2488,1.22237 -0.17582,0.0297 -1.27868,-0.32924 -2.45081,-0.79748 z m -37.16617,-0.0745 c -0.28413,-0.34236 -0.0804,-1.04024 0.27024,-0.925321 0.29437,0.0965 0.45443,1.217981 0.17382,1.217981 -0.11064,0 -0.31046,-0.1317 -0.44406,-0.29266 z m 56.11821,-1.070699 c -0.9349,-0.629595 -1.10593,-0.85887 -1.31172,-1.758199 l -0.23661,-1.03419 0.56867,0.661781 c 0.59088,0.68765 2.18721,2.854617 2.10289,2.854617 -0.0264,0 -0.53193,-0.3258 -1.12323,-0.724009 z m -96.91667,-0.0574 c -0.0781,-0.0781 -0.14207,-0.647006 -0.14207,-1.264152 v -1.122072 l 1.65163,-0.352475 c 0.90841,-0.193858 1.82574,-0.400659 2.03851,-0.459539 0.36473,-0.100954 0.36271,-0.05975 -0.0353,0.720463 -0.82985,1.626632 -2.90217,3.088374 -3.51276,2.477775 z m -33.27714,-0.763671 c 0.32932,-1.131091 2.11035,-4.887092 3.34639,-7.057183 2.16455,-3.800255 2.47863,-4.023346 7.83782,-5.56735 2.63738,-0.759839 6.75247,-1.526028 6.97908,-1.299422 0.0764,0.07636 -0.22259,0.783008 -0.66437,1.570331 -0.44177,0.787305 -1.1823,2.24664 -1.64562,3.242946 -0.46334,0.996314 -1.05609,2.243037 -1.31723,2.770497 l -0.47481,0.959019 -3.5164,1.22413 c -1.93402,0.673272 -5.08423,1.991915 -7.00048,2.930331 -1.91623,0.938414 -3.52906,1.706211 -3.58404,1.706211 -0.055,0 -0.0371,-0.215784 0.0397,-0.47951 z m 14.19786,-2.002186 c 0.21633,-1.018104 0.52821,-2.056921 0.69305,-2.308498 0.31402,-0.479256 1.59629,-0.963914 2.55022,-0.963914 h 0.55994 l -0.77722,1.012291 c -0.42747,0.556768 -1.00264,1.501264 -1.27813,2.098905 -0.53826,1.16755 -0.98301,1.660392 -1.69317,1.876176 l -0.44803,0.136133 z m 12.75686,0.772205 c 0,-0.484815 0.13541,-0.705618 0.54804,-0.893623 0.43235,-0.19699 0.58432,-0.191039 0.7198,0.02818 0.27594,0.44648 -0.005,1.099826 -0.56494,1.312617 -0.71131,0.270441 -0.7029,0.275799 -0.7029,-0.447154 z m 17.20336,0.25541 c -0.93487,-1.077783 -0.52698,-2.039776 1.19671,-2.822411 1.182,-0.536689 1.67699,-0.513805 2.61205,0.120745 0.94727,0.642832 0.98389,0.64539 1.4746,0.103172 0.37552,-0.414959 0.37559,-0.439285 0.002,-0.712534 -0.34403,-0.251566 -0.25946,-0.298212 0.76307,-0.420994 0.63251,-0.07593 1.70481,-0.138906 2.38291,-0.139925 1.16711,-0.0016 1.22074,0.02088 1.00479,0.424376 -0.36948,0.690398 -0.96426,0.97037 -5.14908,2.423774 -3.68018,1.278138 -4.00008,1.354537 -4.28695,1.023797 z m -18.69516,-0.463984 c 0,-0.234424 0.0847,-0.426231 0.18825,-0.426231 0.10355,0 0.23843,0.191807 0.29973,0.426231 0.0724,0.277024 0.007,0.426228 -0.18826,0.426228 -0.16485,0 -0.29972,-0.191805 -0.29972,-0.426228 z m 99.13988,-0.950219 c -2.56601,-1.248913 -6.16756,-2.656925 -9.20792,-3.599829 l -2.45347,-0.76088 -1.1086,-2.299461 c -0.60972,-1.26471 -1.63949,-3.136062 -2.28835,-4.158564 -0.64887,-1.022503 -1.17974,-1.920649 -1.17974,-1.995874 0,-0.333427 5.18291,0.607511 8.37349,1.520182 l 1.87349,0.535913 2.60193,2.607142 c 2.08308,2.087249 2.80228,2.972305 3.60661,4.438396 1.02314,1.864961 2.15352,4.663194 1.88373,4.663194 -0.0818,0 -1.02739,-0.427604 -2.10117,-0.950219 z m -93.59888,0.1226 c 0,-0.2685 0.19401,-0.438658 0.58606,-0.513969 0.73681,-0.141542 0.75412,-0.11973 0.35597,0.448704 -0.40096,0.572434 -0.94203,0.60992 -0.94203,0.06523 z m 2.13115,-0.437587 c 0,-0.128418 0.33565,-0.393562 0.7459,-0.589195 0.41024,-0.19563 0.7459,-0.445146 0.7459,-0.554482 0,-0.109337 -0.28771,-0.526468 -0.63935,-0.92696 -0.35164,-0.400502 -0.63935,-0.860851 -0.63935,-1.023006 0,-0.555884 0.25893,-0.969031 0.60889,-0.971598 0.19257,-0.0016 0.76752,-0.241165 1.27763,-0.532791 0.82465,-0.471422 1.17323,-0.530217 3.14346,-0.530217 1.21877,0 2.21595,0.05297 2.21595,0.117766 0,0.614286 -0.74175,3.071013 -1.03355,3.423192 -0.26631,0.321424 -1.0431,0.607282 -2.70688,0.996133 -3.49939,0.817877 -3.7186,0.852725 -3.7186,0.591158 z m 44.38123,-0.583446 c -0.5741,-0.400476 -0.61812,-0.822356 -0.10656,-1.021241 0.20513,-0.07976 1.22509,-0.200956 2.2666,-0.269335 2.23472,-0.146725 2.36074,0.08289 0.57051,1.039421 -1.27008,0.678637 -2.01897,0.747522 -2.73055,0.251155 z m -51.34835,-0.655449 c -0.0171,-0.439555 -0.063,-0.986896 -0.10171,-1.216319 -0.0489,-0.288922 0.17511,-0.578287 0.72865,-0.941443 0.43954,-0.288372 0.79917,-0.641308 0.79917,-0.784305 0,-0.232701 0.67098,-0.34781 4.68855,-0.804404 0.25802,-0.02931 0.30892,0.210246 0.26395,1.242367 -0.0898,2.059757 0.0749,1.981652 -3.0933,1.467831 -0.7394,-0.11992 -0.89005,-0.05071 -1.85561,0.852467 -0.57799,0.540644 -1.1291,0.982982 -1.22471,0.982982 -0.0956,0 -0.18784,-0.359632 -0.20499,-0.799176 z m 65.57378,0.148447 c -0.99631,-0.216837 -3.39201,-0.644779 -5.32378,-0.951 -1.93177,-0.306213 -3.55168,-0.596117 -3.59979,-0.644231 -0.0481,-0.0481 0.26545,-0.518182 0.69681,-1.044604 l 0.78429,-0.957115 1.68086,0.12962 1.68089,0.129616 0.0691,-0.722995 0.0691,-0.722996 2.68603,-0.0594 c 1.98283,-0.04384 2.74431,0.01192 2.90859,0.213115 0.33815,0.414079 0.86799,2.366665 1.02946,3.793843 0.17005,1.503135 0.25766,1.475817 -2.68144,0.83616 z m -67.2493,-0.007 c -0.0788,-0.127429 -0.0525,-0.322382 0.0584,-0.433224 0.26753,-0.267525 0.91215,-0.0078 0.91215,0.368036 0,0.349813 -0.76291,0.401058 -0.97049,0.06523 z m 103.84953,-0.647193 c -0.63422,-0.326459 -0.89375,-0.363173 -1.24365,-0.175906 -0.24321,0.130157 -0.46715,0.204904 -0.49762,0.166103 -0.31238,-0.397491 -1.57895,-3.05267 -1.49585,-3.135783 0.0604,-0.06036 0.55105,0.0087 1.09052,0.152667 0.53946,0.144282 1.01903,0.224134 1.06571,0.177456 0.0467,-0.04671 -0.25393,-0.4904 -0.66802,-0.986035 -0.41407,-0.495635 -0.75289,-0.949035 -0.75289,-1.007551 0,-0.220925 2.67438,2.042587 3.16493,2.678677 l 0.51265,0.664776 h -0.56009 c -0.67667,0 -0.68418,0.06862 -0.10956,0.99835 0.24779,0.400944 0.41561,0.762918 0.37296,0.804396 -0.0427,0.04149 -0.43825,-0.110241 -0.87909,-0.33715 z m -83.43228,-0.88423 c -0.96514,-0.185536 -1.11885,-0.282789 -1.11885,-0.707871 0,-0.271039 0.10634,-0.726205 0.23634,-1.011492 0.32673,-0.7171 1.20477,-0.821547 4.66529,-0.554953 4.14529,0.319347 4.21005,0.33436 4.58693,1.063157 0.17912,0.346385 0.25129,0.631333 0.16036,0.633219 -0.0909,0.0016 -1.65178,0.193686 -3.46859,0.426204 -3.61913,0.463185 -3.46538,0.458576 -5.06148,0.151736 z m -3.32105,-0.297177 c -0.23121,-0.231206 -0.16181,-1.951715 0.0849,-2.104176 0.12482,-0.07715 0.56787,-0.07628 0.98454,0.0016 0.72935,0.136829 0.75307,0.170129 0.63583,0.892606 -0.067,0.412755 -0.23406,0.885759 -0.3713,1.051126 -0.25782,0.310639 -1.0837,0.408816 -1.33395,0.158573 z M 120.62777,56.85265 c 0.4071,-1.194784 2.31232,-4.952994 3.16114,-6.235638 0.97308,-1.470424 1.1949,-1.524713 6.21931,-1.52213 2.43799,8.73e-4 5.77535,0.144935 7.41632,0.319276 1.641,0.17435 3.00437,0.31718 3.02972,0.317397 0.0253,1.57e-4 -0.13171,0.312075 -0.34902,0.693016 -0.21732,0.380941 -0.60495,1.338317 -0.86143,2.127501 -0.78271,2.408352 -0.55977,2.296224 -5.76188,2.897969 l -1.59837,0.184883 -0.84116,-0.716865 c -0.92597,-0.789158 -2.22482,-1.23687 -2.95212,-1.01758 -0.80589,0.24299 -2.55819,1.386458 -3.57998,2.336136 -0.78135,0.726197 -1.23458,0.961213 -2.23771,1.160296 -0.69185,0.137308 -1.42167,0.296167 -1.62185,0.353031 -0.34057,0.09674 -0.34204,0.03914 -0.023,-0.897292 z m 93.62479,-0.871053 c -3.56794,-0.729129 -7.7442,-1.299814 -11.50523,-1.57222 -1.81517,-0.131462 -3.36561,-0.27938 -3.44541,-0.328712 -0.25942,-0.160321 -2.77835,-4.805554 -2.66653,-4.917378 0.50408,-0.50408 7.95059,-1.19032 11.95804,-1.102015 3.15755,0.06958 3.30292,0.09241 3.85293,0.605093 1.0271,0.957411 4.67119,7.516064 4.31813,7.771815 -0.0336,0.02434 -1.16397,-0.181125 -2.51193,-0.456583 z M 156.3918,55.361461 c -0.23442,-0.03662 -1.27195,-0.128601 -2.30561,-0.204443 -1.76556,-0.129549 -1.85912,-0.160269 -1.54506,-0.50729 0.49262,-0.544349 0.4106,-0.715072 -0.29382,-0.611685 -0.66633,0.09779 -0.66507,0.0661 0.0382,-0.949549 0.28652,-0.413809 0.58944,-0.586063 1.03064,-0.586063 0.72555,0 0.73347,0.02418 0.28943,0.882848 -0.18445,0.35671 -0.2825,0.701452 -0.21786,0.766083 0.0646,0.06462 0.56193,-0.05218 1.10506,-0.25962 l 0.98754,-0.377149 0.98572,0.98573 c 0.54215,0.54214 0.84315,0.972657 0.66885,0.956697 -0.17426,-0.016 -0.50867,-0.05897 -0.74309,-0.09556 z m -8.68444,-0.454296 c -0.32234,-0.04879 -0.58607,-0.167844 -0.58607,-0.264473 0,-0.09662 0.31168,-0.627733 0.69262,-1.180232 0.8633,-1.25209 1.97166,-1.938844 2.79542,-1.732096 0.53322,0.133837 0.57842,0.215994 0.45837,0.83322 -0.43736,2.248674 -1.07076,2.690428 -3.36034,2.343581 z m 1.98533,-0.920429 c 0.49153,-0.263055 0.54144,-0.808745 0.0898,-0.982051 -0.4181,-0.160442 -0.9563,0.291218 -0.9563,0.802526 0,0.450191 0.26005,0.504072 0.86647,0.179525 z m -10.1624,0.308935 c 0.21064,-0.902547 1.2591,-2.91659 1.57215,-3.020012 0.16112,-0.05323 0.32056,0.173837 0.3996,0.569112 0.11975,0.598726 0.20537,0.65766 0.95551,0.65766 0.61349,0 1.07361,-0.190553 1.80117,-0.745905 0.77509,-0.591646 1.1713,-0.745905 1.91581,-0.745905 0.82325,0 0.95506,0.0654 1.07225,0.532312 0.19129,0.762205 -0.0324,1.172613 -0.63901,1.172613 -0.68197,0 -0.90017,0.354657 -0.32962,0.535748 0.53317,0.169218 0.49363,0.905113 -0.0674,1.25396 -0.29629,0.184248 -0.55809,0.131506 -1.21436,-0.244625 -0.46015,-0.263726 -1.11921,-0.47951 -1.46458,-0.47951 -0.5288,0 -2.64703,0.560257 -3.81996,1.010361 -0.26518,0.10176 -0.29931,0.0087 -0.18159,-0.495809 z m 52.97874,-0.838499 c -1.44007,-1.062442 -1.36753,-1.813061 0.22637,-2.342468 1.33184,-0.442363 1.48411,-0.69139 0.60928,-0.996358 -0.66456,-0.231667 -0.6736,-0.249418 -0.21361,-0.419576 0.73333,-0.271283 2.31273,-0.277485 2.6346,-0.01035 0.27618,0.229231 2.29014,3.897849 2.29014,4.171742 0,0.07375 -1.08424,0.134089 -2.40942,0.134089 -2.24051,0 -2.46046,-0.03766 -3.13736,-0.53707 z m 37.9403,-1.274417 c -0.51766,-0.527459 -0.89326,-0.95902 -0.83465,-0.95902 0.0586,0 0.53009,0.431561 1.04776,0.95902 0.51766,0.527459 0.89324,0.95902 0.83465,0.95902 -0.0586,0 -0.53012,-0.431561 -1.04776,-0.95902 z m -1.84803,-0.60765 c -1.34408,-1.078271 -3.5733,-3.050757 -5.16985,-4.574461 l -1.18707,-1.132917 0.91305,0.448355 c 0.50219,0.2466 0.9918,0.399692 1.08804,0.340202 0.40815,-0.252236 4.80928,3.907303 5.262,4.973128 0.16947,0.398945 0.28285,0.748863 0.25201,0.777599 -0.0308,0.0287 -0.55202,-0.34562 -1.15818,-0.831906 z m -86.64804,-0.70694 c -0.51637,-0.1411 -0.46796,-0.635447 0.0761,-0.77773 0.58811,-0.153797 1.52768,0.210045 1.41653,0.548551 -0.0921,0.28052 -0.86855,0.399737 -1.49268,0.229179 z m 12.25717,-0.183048 c -0.26866,-0.188178 -0.41391,-0.457905 -0.34428,-0.639343 0.25682,-0.669289 1.59839,-0.161626 1.41601,0.535826 -0.13416,0.512986 -0.44435,0.542941 -1.07173,0.103517 z m -4.06639,-0.899903 c 0.58792,-1.348354 0.67088,-1.434946 1.65804,-1.730704 0.74379,-0.222847 0.95011,-0.201599 1.65417,0.170384 0.44242,0.233736 0.94826,0.533634 1.12408,0.666436 0.26686,0.201582 0.25257,0.219542 -0.0865,0.108727 -0.42833,-0.139968 -2.47084,0.443963 -2.47084,0.706384 0,0.08437 0.10317,0.256524 0.22926,0.38262 0.28531,0.285313 -0.81812,0.708445 -1.84744,0.708445 h -0.70213 z m 35.27697,-1.041985 c -0.43529,-0.661009 -0.79145,-1.278704 -0.79145,-1.372672 0,-0.489051 0.53303,-0.362234 1.26787,0.301654 0.45406,0.410218 1.02586,0.853041 1.27065,0.984052 0.5929,0.317302 0.57279,0.99174 -0.0344,1.154461 -0.81706,0.218968 -0.89911,0.167827 -1.71264,-1.067495 z m 6.43366,-0.103543 c -0.28159,-0.218456 -0.87495,-0.458462 -1.31855,-0.533357 -1.00766,-0.170096 -1.61769,-0.642552 -2.22371,-1.722189 l -0.4729,-0.842465 1.26337,-0.603833 1.26337,-0.603831 0.80788,0.560605 c 1.0443,0.724631 3.59249,3.295905 3.42867,3.459714 -0.0692,0.06923 -0.60066,0.251114 -1.181,0.404198 -0.9568,0.252401 -1.10284,0.241321 -1.56713,-0.118842 z m 28.04546,-0.10497 c -1.05492,-0.273815 -3.02092,-0.651868 -4.36888,-0.840117 -2.88682,-0.403172 -3.4123,-0.673307 -4.86941,-2.50325 -0.57813,-0.726049 -1.25344,-1.502779 -1.50071,-1.726069 -0.24725,-0.223283 -0.44955,-0.473447 -0.44955,-0.555918 0,-0.08245 0.70311,-0.270213 1.5625,-0.41721 1.36777,-0.23397 1.64533,-0.224446 2.22712,0.07645 0.36554,0.189031 1.02902,0.345821 1.4744,0.348431 0.49137,0.0026 1.01924,0.175011 1.34254,0.437813 l 0.53278,0.433067 -2.2377,-0.139534 c -2.60515,-0.16246 -2.65097,0.05888 -0.15228,0.735502 1.97441,0.534643 4.50388,1.763051 6.91869,3.359988 1.62024,1.071478 2.01468,1.396921 1.59836,1.318748 -0.0879,-0.01653 -1.02295,-0.254037 -2.07786,-0.527859 z m -32.07384,-0.495131 c 0,-0.559944 0.28432,-0.696103 0.74706,-0.357754 0.45015,0.329165 0.25901,0.771407 -0.3334,0.771407 -0.2674,0 -0.41366,-0.146266 -0.41366,-0.413653 z m -33.31184,-0.227544 -0.5987,-0.369869 0.54071,-0.103361 c 0.40222,-0.07689 0.57417,0.0017 0.67142,0.308483 0.17974,0.566293 0.0799,0.593106 -0.61343,0.164747 z m 39.11914,-1.756345 -2.1769,-2.184434 1.86103,-0.783131 c 1.99483,-0.839447 6.01336,-2.093921 6.70755,-2.093921 0.2322,0 0.86708,0.36586 1.41081,0.813016 1.63733,1.346536 2.23538,1.702541 4.75462,2.830276 1.46696,0.656686 2.73078,1.085203 3.2208,1.092065 0.64185,0.009 0.91278,0.146744 1.32727,0.674864 l 0.52077,0.663558 -0.47481,0.138594 c -0.26113,0.07619 -2.29693,0.149658 -4.52399,0.163173 -2.77579,0.01687 -4.98554,0.157564 -7.02665,0.447469 -1.63761,0.232597 -3.07786,0.422898 -3.20054,0.422898 -0.12267,0 -1.20266,-0.98299 -2.39996,-2.184427 z m -42.1734,0.255488 c -1.64813,-0.815823 -1.97207,-1.737792 -0.70812,-2.015407 0.72508,-0.159251 1.8437,0.315937 2.57423,1.093544 l 0.50263,0.535025 -0.53004,0.407252 c -0.66722,0.512639 -0.76398,0.511561 -1.8387,-0.02044 z m 67.34154,-1.1827 c -1.03688,-0.539271 -2.02369,-1.186608 -2.19293,-1.438522 -0.16921,-0.251923 -0.79258,-0.931396 -1.38524,-1.509953 l -1.07755,-1.051909 1.16122,0.661688 c 1.91507,1.091247 5.99491,4.277033 5.51908,4.30964 -0.0766,0.0052 -0.98773,-0.431674 -2.02458,-0.970944 z M 187.53847,44.30364 c -0.0662,-0.172436 -0.60389,-0.660949 -1.19494,-1.085569 -0.73274,-0.526406 -1.07463,-0.921621 -1.07463,-1.24221 0,-0.258594 -0.11988,-0.599369 -0.26639,-0.757282 -0.21879,-0.235798 -0.19023,-0.260602 0.15983,-0.138812 0.55185,0.191988 3.26122,1.738933 3.91484,2.235228 l 0.505,0.383439 -0.74326,0.459365 c -0.87559,0.54115 -1.1375,0.570513 -1.30045,0.145841 z m -39.61936,-0.50869 c 1.00744,-0.862479 4.16588,-2.587625 4.73747,-2.587625 0.44429,0 0.41609,0.05914 -0.29892,0.627385 -0.76733,0.60979 -4.56636,2.578066 -4.94248,2.560679 -0.10303,-0.0043 0.12373,-0.274962 0.50393,-0.600439 z m -4.20766,-0.797855 c -2.08245,-0.766667 -5.41982,-1.690837 -8.4162,-2.330572 l -1.70306,-0.363615 0.77966,-0.673959 c 0.95726,-0.82748 5.91111,-3.795741 7.16438,-4.292758 1.4169,-0.56192 2.33486,-0.324253 5.02731,1.301656 2.49341,1.505693 5.24628,3.442597 5.24628,3.691241 0,0.08089 -0.31168,0.326738 -0.69262,0.54642 -0.38093,0.21968 -1.5645,0.959619 -2.6301,1.644312 -1.06564,0.684692 -2.12056,1.239879 -2.34427,1.233756 -0.22373,-0.0061 -1.31786,-0.346543 -2.43138,-0.756481 z m 44.51261,-1.101363 c -1.12919,-0.671656 -2.37591,-1.399044 -2.7705,-1.616411 l -0.71744,-0.395223 0.8385,-0.726927 c 0.61814,-0.535897 0.77588,-0.789576 0.60019,-0.965266 -0.17569,-0.175697 -0.50903,-0.03966 -1.26837,0.517779 l -1.03003,0.756117 -1.9144,-0.618105 c -1.05294,-0.339949 -2.77323,-0.827243 -3.82289,-1.082862 -1.04965,-0.25562 -3.01051,-0.988609 -4.35749,-1.628866 l -2.44903,-1.164116 0.94766,-0.495592 c 1.2347,-0.645709 1.45179,-0.636369 3.21693,0.138352 1.75153,0.768754 2.45066,0.709932 3.28026,-0.275997 l 0.55285,-0.657035 3.55537,0.227361 c 3.36257,0.215027 3.95028,0.327834 6.40093,1.228581 0.17564,0.06454 -0.19887,0.432813 -0.95902,0.943016 -1.17866,0.79109 -1.9408,1.62717 -1.70144,1.866524 0.0595,0.0594 1.16521,-0.581234 2.45725,-1.423717 1.29208,-0.84249 2.45102,-1.468885 2.57543,-1.391981 0.12442,0.07689 0.71542,-0.0227 1.3133,-0.221255 1.35551,-0.450235 2.0885,-0.268875 4.62678,1.144771 l 1.78081,0.991775 -0.71522,0.147415 c -0.42483,0.08757 -1.66706,-0.0187 -3.0595,-0.261725 -2.56319,-0.447348 -4.90297,-0.547378 -4.68854,-0.200434 0.0725,0.117208 0.39756,0.213115 0.72247,0.213115 0.40894,0 0.67683,0.160824 0.87044,0.522588 0.35301,0.659609 1.23089,0.968892 2.75448,0.970405 0.65648,6.61e-4 1.54021,0.09746 1.96386,0.21514 0.76563,0.21268 1.8937,1.076855 1.8937,1.450716 0,0.107579 -0.45554,0.320319 -1.01232,0.472769 -0.55675,0.15244 -2.39525,0.78827 -4.08554,1.412942 -1.6903,0.62468 -3.22473,1.133883 -3.40985,1.131561 -0.18513,-0.0026 -1.26046,-0.553752 -2.38963,-1.225415 z m -65.18479,-1.395139 c 0,-0.2269 2.8983,-2.016416 3.62297,-2.236958 0.41025,-0.124862 1.56106,-0.322442 2.55738,-0.439076 0.99631,-0.116634 2.86639,-0.542124 4.15575,-0.945513 1.28935,-0.403398 3.01558,-0.795933 3.83607,-0.872305 l 1.4918,-0.138847 -1.14763,0.6984 c -0.63119,0.384124 -2.04327,1.33088 -3.13794,2.103905 l -1.99029,1.405505 -4.3211,0.124061 c -2.37661,0.06827 -4.48893,0.189257 -4.69404,0.268935 -0.20514,0.07967 -0.37297,0.09404 -0.37297,0.03192 z m 27.59842,-2.085492 c -0.93771,-0.693591 -2.5406,-1.761754 -3.56198,-2.37371 -1.06114,-0.635768 -1.74619,-1.168482 -1.59837,-1.242941 0.14229,-0.07167 1.40148,-0.244407 2.7982,-0.38388 1.39671,-0.139464 3.77385,-0.547012 5.28251,-0.90567 2.2827,-0.542662 2.79912,-0.605562 3.0772,-0.374775 0.65919,0.547089 3.04272,4.393397 2.80831,4.531775 -0.41019,0.242146 -6.35642,2.056695 -6.67472,2.036856 -0.23442,-0.01461 -1.19344,-0.594057 -2.13115,-1.287655 z m 6.80792,0.751768 c 1.56594,-0.546925 2.56461,-0.655974 2.78227,-0.303812 0.0725,0.117216 0.10206,0.213253 0.0658,0.21341 -0.0363,1.56e-4 -0.88102,0.143883 -1.87733,0.319379 -2.47505,0.435979 -2.71358,0.379716 -0.97079,-0.228977 z m 22.40488,0.200451 c -0.46004,-0.162052 -0.8916,-0.354528 -0.95901,-0.427717 -0.1931,-0.209661 1.55903,0.147126 1.78124,0.36272 0.35245,0.34195 0.0352,0.367026 -0.82223,0.06497 z m -4.90385,-0.05566 c -0.0649,-0.104926 0.0162,-0.242216 0.17997,-0.30509 0.38244,-0.146762 1.19146,0.0621 1.19146,0.307621 0,0.246888 -1.21868,0.244652 -1.37143,-0.0026 z m -13.49335,-0.382298 c -0.35325,-0.134969 -0.3407,-0.63149 0.0195,-0.769702 0.56382,-0.21635 4.31323,-0.60945 5.14858,-0.539783 l 0.85246,0.07106 -1.17213,0.565885 c -0.86184,0.416079 -1.6235,0.593473 -2.87708,0.670089 -0.93769,0.05732 -1.82478,0.05836 -1.9713,0.0026 z m -2.5429,-3.956705 c -0.84184,-1.318052 -1.53948,-2.492352 -1.55032,-2.609568 -0.0109,-0.117217 0.43075,-0.261065 0.98129,-0.319678 1.17179,-0.12473 1.4499,-0.537548 0.50237,-0.745653 -1.01768,-0.223525 -0.4474,-0.661052 1.06808,-0.819459 0.70418,-0.07358 1.63877,-0.314632 2.07689,-0.535618 0.82656,-0.416949 3.63514,-0.992392 3.84063,-0.786905 0.0645,0.06445 -0.0489,0.117146 -0.25183,0.117146 -0.51478,0 -2.47257,0.864496 -2.47257,1.091813 0,0.102779 0.3789,0.186875 0.84197,0.186875 1.09286,0 2.86031,0.381889 3.26398,0.705253 0.17424,0.139568 0.37169,0.552831 0.43876,0.91836 0.11345,0.618225 0.0596,0.691232 -0.77285,1.046481 l -0.89481,0.381898 0.85248,0.125644 0.85245,0.125644 0.0631,1.438529 0.063,1.43853 -1.3417,7.94e-4 c -0.73795,4.76e-4 -2.20483,0.142621 -3.25976,0.315953 -1.05492,0.173324 -2.10983,0.316319 -2.34427,0.317772 -0.31138,0.0017 -0.83864,-0.643092 -1.95683,-2.393827 z m 40.04086,0.981416 c -0.73823,-0.420402 -1.29262,-0.814025 -1.23192,-0.874716 0.13627,-0.136281 2.34925,0.276406 4.06599,0.758248 l 1.27869,0.358893 -1.06556,0.126853 c -0.58607,0.06975 -1.20944,0.187213 -1.38526,0.260977 -0.1809,0.07593 -0.90234,-0.197694 -1.66194,-0.630255 z m -30.30533,-1.229321 c 0,-0.166236 -0.0624,-0.465012 -0.13879,-0.663941 -0.11509,-0.299906 -0.0513,-0.335505 0.37297,-0.208357 0.28145,0.08437 0.75149,0.306126 1.04452,0.492861 l 0.53278,0.339515 -0.53278,0.149833 c -0.87282,0.245469 -1.2787,0.210574 -1.2787,-0.109911 z m 3.14346,-1.342213 c -0.32234,-0.04879 -0.58607,-0.178316 -0.58607,-0.28774 0,-0.274031 0.41406,-0.234102 1.17212,0.113016 0.64335,0.294574 0.49569,0.338592 -0.58605,0.174724 z m -3.35656,-1.09825 c 0,-0.712055 0.38554,-1.306485 0.84737,-1.306485 0.69158,0 0.65789,0.329565 -0.10975,1.073609 -0.69746,0.675995 -0.73762,0.688676 -0.73762,0.232876 z"
       id="path837" />
  </g>
</svg>
