<?xml version="1.0" encoding="UTF-8" standalone="no"?>
<svg
   xmlns:dc="http://purl.org/dc/elements/1.1/"
   xmlns:cc="http://creativecommons.org/ns#"
   xmlns:rdf="http://www.w3.org/1999/02/22-rdf-syntax-ns#"
   xmlns:svg="http://www.w3.org/2000/svg"
   xmlns="http://www.w3.org/2000/svg"
   xmlns:sodipodi="http://sodipodi.sourceforge.net/DTD/sodipodi-0.dtd"
   xmlns:inkscape="http://www.inkscape.org/namespaces/inkscape"
   version="1.1"
   id="svg2"
   width="1280"
   height="1150.7417"
   viewBox="0 0 1280 1150.7417"
   sodipodi:docname="Paleocon_flag.svg"
   inkscape:version="1.0 (4035a4fb49, 2020-05-01)">
  <metadata
     id="metadata8">
    <rdf:RDF>
      <cc:Work
         rdf:about="">
        <dc:format>image/svg+xml</dc:format>
        <dc:type
           rdf:resource="http://purl.org/dc/dcmitype/StillImage" />
        <dc:title></dc:title>
      </cc:Work>
    </rdf:RDF>
  </metadata>
  <defs
     id="defs6" />
  <sodipodi:namedview
     fit-margin-bottom="0"
     fit-margin-right="0"
     fit-margin-left="0"
     fit-margin-top="0"
     inkscape:document-rotation="0"
     pagecolor="#ffffff"
     bordercolor="#666666"
     borderopacity="1"
     objecttolerance="10"
     gridtolerance="10"
     guidetolerance="10"
     inkscape:pageopacity="0"
     inkscape:pageshadow="2"
     inkscape:window-width="1920"
     inkscape:window-height="1017"
     id="namedview4"
     showgrid="false"
     inkscape:zoom="0.35355339"
     inkscape:cx="-154.58872"
     inkscape:cy="757.31133"
     inkscape:window-x="-8"
     inkscape:window-y="-8"
     inkscape:window-maximized="1"
     inkscape:current-layer="layer2" />
  <g
     inkscape:groupmode="layer"
     id="layer2"
     inkscape:label="blue"
     style="display:inline">
    <rect
       style="fill:#002868;fill-opacity:1;stroke-width:12.3492;stroke-linecap:round;stroke-linejoin:round;paint-order:fill markers stroke"
       id="rect858"
       width="1280"
       height="384.02402"
       x="0"
       y="766.71765" />
  </g>
  <g
     inkscape:groupmode="layer"
     id="layer5"
     inkscape:label="stars">
    <path
       sodipodi:type="star"
       style="fill:#ffffff;fill-opacity:1;stroke-width:10;stroke-linecap:round;stroke-linejoin:round;paint-order:fill markers stroke"
       id="path939"
       sodipodi:sides="5"
       sodipodi:cx="210.5"
       sodipodi:cy="801.5"
       sodipodi:r1="61.750603"
       sodipodi:r2="23.838301"
       sodipodi:arg1="0.61369423"
       sodipodi:arg2="1.2420127"
       inkscape:flatsided="false"
       inkscape:rounded="0"
       inkscape:randomized="0"
       d="m 260.98273,837.06165 -42.78553,-13.00023 -25.91832,36.43966 -0.8575,-44.70875 -42.66538,-13.3893 42.25557,-14.6313 -0.45035,-44.71471 26.97289,35.66611 42.38705,-14.24591 -25.58541,36.67417 z"
       inkscape:transform-center-x="6.3702671"
       inkscape:transform-center-y="-0.59695215"
       transform="matrix(1.1639785,0,0,1.1727989,-5.2649272,-24.880794)" />
    <path
       transform="matrix(1.1639785,0,0,1.1727989,387.23798,-30.370285)"
       inkscape:transform-center-y="-0.59695218"
       inkscape:transform-center-x="6.37027"
       d="m 260.98273,837.06165 -42.78553,-13.00023 -25.91832,36.43966 -0.8575,-44.70875 -42.66538,-13.3893 42.25557,-14.6313 -0.45035,-44.71471 26.97289,35.66611 42.38705,-14.24591 -25.58541,36.67417 z"
       inkscape:randomized="0"
       inkscape:rounded="0"
       inkscape:flatsided="false"
       sodipodi:arg2="1.2420127"
       sodipodi:arg1="0.61369423"
       sodipodi:r2="23.838301"
       sodipodi:r1="61.750603"
       sodipodi:cy="801.5"
       sodipodi:cx="210.5"
       sodipodi:sides="5"
       id="path939-7"
       style="display:inline;fill:#ffffff;fill-opacity:1;stroke-width:10;stroke-linecap:round;stroke-linejoin:round;paint-order:fill markers stroke"
       sodipodi:type="star" />
    <path
       transform="matrix(1.1639785,0,0,1.1727989,768.14951,-23.507014)"
       inkscape:transform-center-y="-0.59695186"
       inkscape:transform-center-x="6.3702629"
       d="m 260.98273,837.06165 -42.78553,-13.00023 -25.91832,36.43966 -0.8575,-44.70875 -42.66538,-13.3893 42.25557,-14.6313 -0.45035,-44.71471 26.97289,35.66611 42.38705,-14.24591 -25.58541,36.67417 z"
       inkscape:randomized="0"
       inkscape:rounded="0"
       inkscape:flatsided="false"
       sodipodi:arg2="1.2420127"
       sodipodi:arg1="0.61369423"
       sodipodi:r2="23.838301"
       sodipodi:r1="61.750603"
       sodipodi:cy="801.5"
       sodipodi:cx="210.5"
       sodipodi:sides="5"
       id="path939-5"
       style="display:inline;fill:#ffffff;fill-opacity:1;stroke-width:10;stroke-linecap:round;stroke-linejoin:round;paint-order:fill markers stroke"
       sodipodi:type="star" />
  </g>
  <g
     inkscape:groupmode="layer"
     id="layer4"
     inkscape:label="stripes"
     style="display:inline">
    <rect
       style="fill:#bf0a30;fill-opacity:1;stroke-width:17.0356;stroke-linecap:round;stroke-linejoin:round;paint-order:fill markers stroke"
       id="rect863"
       width="98.461533"
       height="766.71765"
       x="0"
       y="0" />
    <rect
       y="0"
       x="98.461533"
       height="766.71765"
       width="98.461533"
       id="rect863-3"
       style="fill:#ffffff;fill-opacity:1;stroke-width:17.0356;stroke-linecap:round;stroke-linejoin:round;paint-order:fill markers stroke" />
    <rect
       y="0"
       x="196.92307"
       height="766.71765"
       width="98.461533"
       id="rect863-8"
       style="fill:#bf0a30;fill-opacity:1;stroke-width:17.0356;stroke-linecap:round;stroke-linejoin:round;paint-order:fill markers stroke" />
    <rect
       style="fill:#ffffff;fill-opacity:1;stroke-width:17.0356;stroke-linecap:round;stroke-linejoin:round;paint-order:fill markers stroke"
       id="rect863-3-4"
       width="98.461533"
       height="766.71765"
       x="295.38464"
       y="0" />
    <rect
       y="0"
       x="393.84616"
       height="766.71765"
       width="98.461533"
       id="rect863-6"
       style="fill:#bf0a30;fill-opacity:1;stroke-width:17.0356;stroke-linecap:round;stroke-linejoin:round;paint-order:fill markers stroke" />
    <rect
       style="fill:#ffffff;fill-opacity:1;stroke-width:17.0356;stroke-linecap:round;stroke-linejoin:round;paint-order:fill markers stroke"
       id="rect863-3-8"
       width="98.461533"
       height="766.71765"
       x="492.30771"
       y="0" />
    <rect
       y="0"
       x="590.76923"
       height="766.71765"
       width="98.461533"
       id="rect863-34"
       style="fill:#bf0a30;fill-opacity:1;stroke-width:17.0356;stroke-linecap:round;stroke-linejoin:round;paint-order:fill markers stroke" />
    <rect
       style="fill:#ffffff;fill-opacity:1;stroke-width:17.0356;stroke-linecap:round;stroke-linejoin:round;paint-order:fill markers stroke"
       id="rect863-3-6"
       width="98.461533"
       height="766.71765"
       x="689.23077"
       y="0" />
    <rect
       y="0"
       x="787.69226"
       height="766.71765"
       width="98.461533"
       id="rect863-4"
       style="fill:#bf0a30;fill-opacity:1;stroke-width:17.0356;stroke-linecap:round;stroke-linejoin:round;paint-order:fill markers stroke" />
    <rect
       style="fill:#ffffff;fill-opacity:1;stroke-width:17.0356;stroke-linecap:round;stroke-linejoin:round;paint-order:fill markers stroke"
       id="rect863-3-2"
       width="98.461533"
       height="766.71765"
       x="886.15387"
       y="0" />
    <rect
       y="0"
       x="984.61536"
       height="766.71765"
       width="98.461533"
       id="rect863-2"
       style="fill:#bf0a30;fill-opacity:1;stroke-width:17.0356;stroke-linecap:round;stroke-linejoin:round;paint-order:fill markers stroke" />
    <rect
       style="fill:#ffffff;fill-opacity:1;stroke-width:17.0356;stroke-linecap:round;stroke-linejoin:round;paint-order:fill markers stroke"
       id="rect863-3-3"
       width="98.461533"
       height="766.71765"
       x="1083.0769"
       y="0" />
    <rect
       y="0"
       x="1181.5385"
       height="766.71765"
       width="98.461533"
       id="rect863-5"
       style="fill:#bf0a30;fill-opacity:1;stroke-width:17.0356;stroke-linecap:round;stroke-linejoin:round;paint-order:fill markers stroke" />
  </g>
  <g
     inkscape:groupmode="layer"
     id="layer3"
     inkscape:label="mamooth"
     style="display:inline">
    <path
       id="path846"
       style="display:inline;fill:#092484;fill-opacity:1;stroke-width:1.14388"
       d="m 780.65682,279.42583 c -9.30521,0.0123 -19.74482,5.10534 -32.73011,15.87801 -7.99603,6.63356 -13.17095,8.11353 -21.90795,6.26229 -8.14224,-1.72523 -17.98446,-6.41594 -23.4227,-11.16399 -2.06218,-1.80044 -5.79408,-4.31713 -8.29312,-5.59204 -2.49904,-1.27492 -4.54424,-2.8458 -4.54424,-3.48972 0,-0.64393 -0.64343,-1.0594 -1.42984,-0.9227 -0.78642,0.13668 -4.7757,-0.11016 -8.86506,-0.5496 -10.54725,-1.13341 -23.71155,1.36809 -34.93745,6.63762 -8.8844,4.17042 -9.34219,4.58094 -13.42493,12.04647 l -4.22699,7.73011 -10.02457,3.47408 c -5.51265,1.91059 -12.3387,4.12577 -15.1698,4.92181 -2.8311,0.79606 -5.91957,2.0737 -6.86327,2.83959 -0.9437,0.76589 -6.02335,3.54442 -11.28909,6.17516 -5.26573,2.63073 -13.82553,7.52607 -19.02146,10.87801 -5.19591,3.35194 -18.13236,10.59906 -28.74664,16.10367 -10.6143,5.50459 -20.58534,11.15451 -22.15818,12.55585 -4.73961,4.22283 -17.43152,12.47684 -21.06121,13.6975 -2.37228,0.79778 -3.67377,2.18216 -4.30072,4.57551 -0.69847,2.66649 -3.50755,5.21699 -12.5983,11.43879 -9.66552,6.61517 -12.75498,9.49855 -17.77927,16.58623 -11.30606,15.94925 -19.2305,34.65479 -34.64923,81.78731 -4.74304,14.49865 -5.7999,19.37446 -6.80966,31.45666 -2.18393,26.13151 -1.05177,45.58399 4.0572,69.77659 1.50032,7.10453 2.46896,9.1689 5.64119,12.01072 6.4508,5.77886 9.71627,13.78917 9.71627,23.83824 0,7.43979 -3.21487,33.66236 -5.2614,42.91332 -2.97567,13.45095 -8.31044,27.88377 -12.95799,35.05362 -5.75188,8.87354 -15.09097,18.874 -17.62512,18.874 -0.90595,0 -2.71609,2.68272 -4.05272,6.00536 -2.0361,5.06135 -2.24638,6.90441 -1.33602,11.72475 1.8012,9.53696 4.0179,16.30232 6.0925,18.59473 l 5.56523,5.79759 4.31636,4.67605 c 3.22605,3.49444 5.19495,4.67605 7.78597,4.67605 1.907,0 4.1302,0.80032 4.94191,1.77837 3.18808,3.8414 5.71456,4.29628 8.63494,1.55273 1.51348,-1.42183 2.75951,-3.91129 2.7681,-5.53173 0.009,-1.62045 0.32663,-4.105 0.70599,-5.52055 l 2.71671,-12.91125 c 1.26366,-7.49185 1.498,-7.91772 3.99017,-7.29222 2.32329,0.58311 3.16595,-0.29243 6.89901,-7.15371 2.33936,-4.29968 6.05922,-10.52515 8.26631,-13.83601 2.2071,-3.31088 5.17651,-9.23045 6.59741,-13.15461 1.4209,-3.92416 2.95488,-7.13583 3.4093,-7.13583 0.98295,0 2.94955,5.07629 6.22207,16.06122 2.11452,7.0979 2.32715,9.99776 1.78731,24.44816 l 0.86461,18.40052 -0.77078,7.81724 c -1.11547,11.32019 -0.11279,12.19163 15.91823,13.84943 9.62882,0.99574 14.05958,0.97939 18.874,-0.0693 3.46023,-0.75368 9.3798,-1.4168 13.1546,-1.47453 l 6.86327,-0.105 -0.39321,-5.14746 c -0.21602,-2.8311 -1.03409,-7.01498 -1.81858,-9.29624 l -1.42539,-4.14656 -0.18766,-2.25201 c -0.59432,-1.11919 -2.65966,-7.50981 -4.58892,-14.20019 -3.15349,-10.93573 -3.53728,-13.99731 -3.81367,-30.31278 -0.30061,-17.7451 -0.22658,-18.38942 3.3311,-29.01474 2.0012,-5.97676 4.17498,-15.21547 4.83244,-20.52949 1.38393,-11.18589 2.54325,-13.12436 5.06031,-8.47855 1.75245,3.23463 1.77106,3.18331 1.81635,-4.38338 0.0252,-4.20952 0.54984,-7.96271 1.16399,-8.34227 0.61414,-0.37955 3.70261,-0.99743 6.86327,-1.37175 5.72789,-0.67839 5.74657,-0.66909 5.76408,2.62511 0.0103,1.93035 0.37581,2.73928 0.88026,1.94593 1.37976,-2.16992 6.8151,-3.78904 12.71894,-3.78904 h 5.46247 l 1.67112,-8.86506 c 1.99858,-10.59829 4.11554,-11.65168 6.32039,-3.14567 0.8154,3.14567 1.49144,7.30727 1.50357,9.24709 0.0353,5.65749 1.31187,5.41658 4.18677,-0.78864 3.02506,-6.52927 5.19656,-6.85157 6.26676,-0.93163 0.65383,3.61673 0.71871,3.66893 0.85791,0.68364 0.11267,-2.41702 0.65332,-3.13467 2.15147,-2.85076 1.41715,0.26858 2.12334,1.71167 2.41957,4.94414 l 0.42002,4.56658 1.39857,-4.00357 c 0.76968,-2.20197 2.10021,-4.00357 2.95576,-4.00357 2.54396,0 8.82653,9.25396 9.66935,14.24262 0.4303,2.54683 1.19466,4.63137 1.70019,4.63137 0.50552,0 1.7433,-2.05898 2.75021,-4.57551 1.00692,-2.51654 2.30535,-4.57552 2.88428,-4.57552 0.57892,0 1.40012,2.05898 1.82529,4.57552 1.06023,6.27547 2.40403,5.73732 3.23726,-1.29804 0.67994,-5.74103 1.37771,-7.62362 2.43521,-6.56613 0.44202,0.44204 1.829,8.5183 3.26185,18.98794 0.7868,5.74914 1.75711,3.3224 2.47319,-6.18186 0.41812,-5.54958 0.96613,-10.7328 1.2176,-11.51922 1.06758,-3.3387 2.65149,-0.93389 3.96335,6.01877 0.77308,4.09718 1.80405,7.69564 2.29,7.99598 0.48596,0.30033 1.2352,-1.79581 1.66443,-4.65817 0.92721,-6.18311 2.67935,-6.13937 4.84584,0.1184 2.18457,6.30998 3.3373,6.98043 2.82842,1.64432 -0.23867,-2.5027 -0.11027,-5.3919 0.28374,-6.41866 0.66209,-1.72566 0.87217,-1.72545 2.78597,0.007 2.74932,2.48808 3.48512,1.48912 2.77927,-3.77345 -0.92337,-6.88416 1.65919,-6.98627 4.53529,-0.17873 2.47686,5.86255 5.08579,8.03007 3.90974,3.24843 -0.34815,-1.41555 -0.73613,-7.44 -0.86014,-13.38695 -0.24319,-11.66283 0.96983,-14.12179 4.03709,-8.19035 1.46527,2.83351 1.76946,7.99318 1.71135,28.95666 -0.0389,14.02945 -0.44082,29.19846 -0.89366,33.71091 -0.78584,7.83083 -1.08265,8.48183 -6.54825,14.29848 -6.98971,7.43856 -10.31574,12.73656 -12.45532,19.84583 -1.44307,4.79497 -1.4196,5.95715 0.19884,10.13182 2.00958,5.18359 10.11403,17.20164 13.88739,20.59428 l 5.19214,3.86283 2.5916,3.25066 2.5916,3.25067 3.18811,-2.95129 3.18589,-2.94906 1.14387,-0.89813 0.3329,-5.14745 c 0.29466,-4.55172 10.67986,-30.35927 12.88873,-32.0286 0.41623,-0.31456 1.68191,-2.37355 2.81054,-4.57551 1.12864,-2.20197 3.49462,-5.80518 5.25916,-8.00715 1.76455,-2.20197 4.55624,-8.01978 6.20198,-12.92895 2.87117,-8.56466 2.93641,-9.32824 1.63762,-18.87399 -1.17762,-8.65521 -1.11346,-10.50616 0.50045,-14.23817 1.02024,-2.35925 2.45453,-4.28954 3.18587,-4.28954 0.73134,0 5.29008,1.87653 10.12958,4.1689 l 8.79804,4.16667 0.7663,9.20018 c 0.42195,5.05942 2.09645,14.49769 3.71984,20.97631 l 2.9513,11.78061 2.39722,-3.1278 c 3.92558,-5.11841 4.53641,-5.12577 9.05497,-0.13405 3.15476,3.48512 4.28954,5.74916 4.28954,8.55899 0,2.92611 0.40171,3.66557 1.71582,3.16131 0.9437,-0.36214 1.71582,-0.42581 1.71582,-0.14076 0,0.28505 1.57872,4.84464 3.5076,10.13181 6.83074,18.72348 9.77104,29.86968 8.44504,32.01519 l 0.51161,1.34049 0.74398,3.57015 c 1.86652,8.972 7.946,11.75785 17.8731,8.18812 5.17443,-1.86071 5.7533,-1.86887 8.43163,-0.11393 1.58157,1.03629 3.36632,1.58042 3.96783,1.20867 0.6015,-0.37176 5.34939,-1.5957 10.5496,-2.71895 l 9.45486,-2.042 -0.35746,-4.48168 -0.35523,-4.47945 -2.10455,-3.65505 c -2.57989,-2.32543 -5.37282,-7.74709 -10.19661,-19.78999 -3.65399,-9.12243 -7.30445,-18.64521 -8.11215,-21.16175 -0.8077,-2.51653 -2.11454,-5.34763 -2.90438,-6.29133 -0.78984,-0.9437 -2.59514,-7.63539 -4.01028,-14.87042 -2.69342,-13.7704 -6.05358,-24.28593 -14.22252,-44.50402 -4.46302,-11.04596 -4.84886,-12.78459 -4.3588,-19.65594 0.31638,-4.43588 -0.17549,-11.02611 -1.19526,-16.0143 -1.29689,-6.34374 -1.491,-10.77873 -0.77302,-17.62735 0.59634,-5.68838 0.48798,-13.47933 -0.28597,-20.58981 -1.75075,-16.08467 -1.75218,-16.03818 0.54737,-15.85567 1.10098,0.0874 2.00179,0.0523 2.00179,-0.0782 0,-0.13047 -0.81166,-2.96889 -1.80295,-6.30696 -2.43659,-8.20487 -0.79036,-9.92698 4.54423,-4.75648 l 3.8874,3.76899 -2.16934,-6.57953 c -1.19389,-3.61905 -2.17159,-9.64774 -2.17159,-13.39826 0,-6.32725 0.16999,-6.77507 2.36148,-6.20197 2.27255,0.59427 2.29197,0.50947 0.48258,-2.25202 -1.54817,-2.3628 -1.67789,-3.81342 -0.7261,-8.20598 2.62096,-12.09594 2.61331,-12.19637 -1.66666,-17.6899 -3.89253,-4.99622 -3.99649,-5.38123 -3.2328,-12.13137 0.98227,-8.68214 3.64849,-9.56341 6.37623,-2.10903 l 1.77838,4.86149 0.83556,-6.64432 c 0.63839,-5.07453 1.24653,-6.5605 2.57819,-6.29134 1.89694,0.38342 5.99823,10.0475 6.21761,14.65147 0.12626,2.6497 0.20075,2.60769 1.00983,-0.57193 0.48026,-1.8874 0.94139,-5.23325 1.02546,-7.43521 0.0841,-2.20197 0.66069,-4.7757 1.28016,-5.7194 1.00122,-1.52516 1.2508,-1.52516 2.25203,0 0.61949,0.9437 1.17248,2.74531 1.22876,4.00358 0.0563,1.25826 1.0849,4.34674 2.28553,6.86327 l 2.18275,4.57551 -0.68588,-7.72118 c -0.76176,-8.58328 0.12021,-9.48636 5.30161,-5.43342 1.57283,1.23029 3.40636,2.2492 4.07507,2.26319 1.67231,0.035 6.71878,5.58848 8.85612,9.74753 2.13752,4.15942 2.8815,2.75614 3.3378,-6.29133 l 0.31725,-6.29133 1.89007,3.41823 1.89232,3.41823 0.81099,-5.42002 c 0.44707,-2.9812 1.22879,-5.42001 1.73593,-5.42001 0.50713,0 1.7769,2.57372 2.82172,5.71939 1.04481,3.14566 2.18634,5.71939 2.53798,5.71939 0.35169,0 0.33457,-2.57373 -0.038,-5.71939 -0.80066,-6.76024 0.4602,-7.29584 4.06612,-1.72923 3.39006,5.23341 4.49563,5.06137 3.59697,-0.55853 -0.83975,-5.25156 0.72644,-6.02725 4.67605,-2.3168 4.48734,4.21565 7.27716,3.49756 10.84003,-2.78597 1.76947,-3.12063 3.7635,-5.85608 4.43253,-6.07909 0.66903,-0.22301 1.78787,1.81633 2.4866,4.53084 0.69874,2.7145 2.25408,8.02368 3.45621,11.79847 2.05955,6.46722 2.65558,10.33831 5.71045,37.17605 2.67968,23.54149 4.49358,34.10294 7.29223,42.42627 3.24674,9.65597 9.5177,24.11624 10.85791,25.03799 0.47706,0.3281 2.08654,3.17024 3.57462,6.3159 1.48807,3.14567 5.61909,9.06524 9.1823,13.15461 3.56322,4.08936 8.94896,11.03842 11.96828,15.44236 3.01931,4.40393 7.08718,9.85468 9.03931,12.11348 1.95215,2.25881 4.32217,5.00517 5.26587,6.10367 1.55633,1.81162 5.70254,5.08237 29.895,23.57239 5.30132,4.05173 7.78462,6.77392 8.23502,9.02592 l 0.64568,3.22386 6.63538,-1.32708 c 6.6347,-1.32785 6.6365,-1.3292 7.27212,-6.04557 0.34963,-2.59429 1.31191,-5.53448 2.1403,-6.53262 2.05528,-2.47646 0.0267,-4.78756 -5.03574,-5.73728 -2.14085,-0.40162 -7.83239,-3.13775 -12.64969,-6.08131 -10.00042,-6.11068 -19.84332,-16.37929 -29.92851,-31.22208 -7.70385,-11.33807 -9.61661,-14.01661 -15.6613,-21.92359 -7.56885,-9.90074 -12.86591,-24.0718 -14.92404,-39.93521 -2.2397,-17.26285 -2.48075,-52.48297 -0.3597,-52.48213 0.78642,3.2e-4 4.07785,1.00839 7.31457,2.23861 10.15945,3.86142 24.67069,5.5743 38.1546,4.50625 15.3317,-1.21442 25.65292,-3.49292 32.84629,-7.25424 3.13662,-1.64009 6.44586,-2.69687 7.35478,-2.34808 3.05023,1.17048 11.20374,-2.70586 20.71274,-9.84807 10.3871,-7.80179 11.4419,-8.87865 18.1389,-18.51654 7.27,-10.46245 12.037,-20.25878 15.8803,-32.62958 4.2714,-13.74881 5.3794,-22.69715 5.6188,-45.38874 0.1983,-18.79369 -0.9468,-30.04974 -4.6559,-45.75514 -5.6676,-23.99812 -21.5148,-52.04646 -29.4057,-52.04646 -1.7629,0 -0.372,3.13566 4.5688,10.2949 10.1059,14.64358 16.9632,40.61734 18.7332,70.96515 1.5444,26.4786 -6.0735,55.76718 -19.6894,75.69481 -5.858,8.57351 -9.0403,10.20153 -7.9089,4.04603 0.3758,-2.04469 1.0212,-12.75437 1.4366,-23.79804 0.832,-22.12373 0.1443,-27.26438 -6.6555,-49.69615 -4.0502,-13.36119 -13.91413,-35.59016 -16.95713,-38.21492 -1.16073,-1.00119 -3.40342,-3.77876 -4.98437,-6.17293 -4.87695,-7.3856 -19.18237,-21.89013 -27.69883,-28.08311 -4.87957,-3.54831 -11.44498,-7.0299 -16.49241,-8.74664 -8.88007,-3.0203 -12.22107,-3.19703 -4.9017,-0.25917 9.28488,3.72677 29.03811,22.12012 37.89768,35.2882 6.1293,9.11007 16.10688,29.93451 16.88785,35.24576 0.4225,2.87344 2.02794,9.084 3.56792,13.8025 3.97449,12.17785 6.12719,32.21453 4.91509,45.75514 -1.03228,11.532 -6.0176,26.14557 -12.4017,36.35166 -4.0262,6.43658 -14.94809,13.5711 -23.36461,15.26138 -5.94341,1.19361 -7.10878,1.04751 -15.37086,-1.92805 -4.9165,-1.77067 -10.85924,-4.40869 -13.20599,-5.86238 -2.34674,-1.45367 -4.72303,-2.64299 -5.2815,-2.64299 -1.32525,0 -26.91146,-23.38203 -32.60054,-29.79222 -5.47707,-6.1713 -5.99345,-7.54533 -8.26853,-21.98838 -1.55686,-9.88342 -2.8138,-13.63245 -8.08535,-24.10188 -3.43349,-6.819 -9.07547,-16.78763 -12.53575,-22.15147 -6.93458,-10.74949 -16.46216,-28.67455 -16.46559,-30.97632 -10e-4,-0.80766 -4.10536,-5.82489 -9.11975,-11.14835 -12.76046,-13.54703 -17.19169,-20.40804 -17.19169,-26.61975 0,-6.59083 -9.6792,-24.81982 -15.12735,-28.48972 -4.30122,-2.89732 -12.71376,-6.18264 -16.90125,-6.59964 -1.57283,-0.15662 -5.23195,-0.6603 -8.13002,-1.11931 -1.2871,-0.20385 -2.59159,-0.30561 -3.92092,-0.30383 z"
       sodipodi:nodetypes="ssssssssscccsssssssssssssssssssscccssscccsssssscccssscccccsssssssssssccsssssscccssssssssssssssssscssssssssssccccccccsssssssccccccssssscccssscccccsssssssssssscccsssssscccssssssscccssssccccsssssssssssssssssssscccsssssssssssssssssssssssssssssssssssssssssssssssss" />
  </g>
</svg>
