<?xml version="1.0" encoding="UTF-8" standalone="no"?>
<svg
   xmlns:dc="http://purl.org/dc/elements/1.1/"
   xmlns:cc="http://creativecommons.org/ns#"
   xmlns:rdf="http://www.w3.org/1999/02/22-rdf-syntax-ns#"
   xmlns:svg="http://www.w3.org/2000/svg"
   xmlns="http://www.w3.org/2000/svg"
   xmlns:sodipodi="http://sodipodi.sourceforge.net/DTD/sodipodi-0.dtd"
   xmlns:inkscape="http://www.inkscape.org/namespaces/inkscape"
   width="1280"
   height="853"
   viewBox="0 0 338.66666 225.68959"
   version="1.1"
   id="svg837"
   sodipodi:docname="patcon_flag.svg"
   inkscape:version="1.0 (4035a4fb49, 2020-05-01)">
  <defs
     id="defs831">
    <filter
       height="1.0000747"
       y="-3.7326121e-05"
       width="1.0000502"
       x="-2.5077881e-05"
       id="filter833"
       style="color-interpolation-filters:sRGB"
       inkscape:collect="always">
      <feGaussianBlur
         id="feGaussianBlur835"
         stdDeviation="0.0038033853"
         inkscape:collect="always" />
    </filter>
  </defs>
  <sodipodi:namedview
     id="base"
     pagecolor="#ffffff"
     bordercolor="#666666"
     borderopacity="1.0"
     inkscape:pageopacity="0"
     inkscape:pageshadow="2"
     inkscape:zoom="0.7"
     inkscape:cx="607.03164"
     inkscape:cy="530.97619"
     inkscape:document-units="mm"
     inkscape:current-layer="layer1"
     inkscape:document-rotation="0"
     showgrid="false"
     units="px"
     inkscape:window-width="1920"
     inkscape:window-height="1017"
     inkscape:window-x="-8"
     inkscape:window-y="-8"
     inkscape:window-maximized="1" />
  <metadata
     id="metadata834">
    <rdf:RDF>
      <cc:Work
         rdf:about="">
        <dc:format>image/svg+xml</dc:format>
        <dc:type
           rdf:resource="http://purl.org/dc/dcmitype/StillImage" />
        <dc:title></dc:title>
      </cc:Work>
    </rdf:RDF>
  </metadata>
  <g
     style="mix-blend-mode:color;filter:url(#filter833)"
     inkscape:label="Background 1"
     id="layer1"
     inkscape:groupmode="layer">
    <rect
       y="-5.2916665"
       x="-9.4494047"
       height="244.55058"
       width="363.99106"
       id="rect835"
       style="fill:#00b0ef;stroke:#000000;stroke-width:0.264583;fill-opacity:1" />
  </g>
  <g
     inkscape:groupmode="layer"
     id="layer2"
     inkscape:label="Rose"
     style="display:inline">
    <path
       sodipodi:nodetypes="cccssscccasscscsccsccccccsssccsssscscsccsssssscsssccccccssssccccccssssscsscssssssccsscssccssscccccccccccsccscccc"
       inkscape:connector-curvature="0"
       id="path825"
       d="m 168.25743,197.3893 c -0.87125,-0.21548 -1.85115,-1.03659 -2.42058,-2.02833 -2.08511,-3.63152 -3.04443,-5.33412 -4.16904,-7.39922 -0.47548,-0.87313 -1.01225,-1.7661 -1.19281,-1.98438 -0.18056,-0.21828 -0.49376,-0.78383 -0.69599,-1.25677 -0.20223,-0.47294 -0.44381,-0.85989 -0.53683,-0.85989 -0.093,0 -0.23803,-0.20836 -0.32224,-0.46302 -0.0842,-0.25467 -0.54457,-1.1363 -1.02305,-1.95918 -2.03109,-3.49313 -3.55744,-6.23842 -3.95419,-7.112 -0.62581,-1.37795 -0.77198,-2.29629 -0.33038,-3.31528 0.28464,-0.65679 1.21863,-1.30142 1.70489,-1.30573 3.88226,-0.0344 13.158,-0.0611 13.158,-0.0611 7.23689,-0.0336 13.40566,0.005 13.70836,0.0853 1.11498,0.29641 1.95655,1.30886 2.12806,2.56014 0.13494,0.98448 0.0315,1.47679 -0.57733,2.74713 -0.40795,0.85124 -0.98304,1.8985 -1.27798,2.32725 -0.29494,0.42876 -0.76283,1.20266 -1.03976,1.7198 -0.64818,1.21041 -1.11095,2.01167 -1.9183,3.32149 -0.35878,0.58208 -0.76744,1.32897 -0.90811,1.65974 -0.14068,0.33077 -0.65227,1.22374 -1.13686,1.98437 -0.48459,0.76064 -1.06355,1.74016 -1.28656,2.17672 -0.76411,1.49578 -2.15031,3.9687 -2.41185,4.30263 -0.27693,0.3536 -0.99342,1.60801 -1.5472,2.70883 -0.8848,1.70271 -2.67053,2.46441 -3.95025,2.15151 z m -20.79076,-46.81117 c -2.34961,-0.69236 -7.52442,-4.10498 -10.11661,-6.67159 -4.49779,-4.4534 -7.46663,-10.19002 -9.21598,-17.80783 -0.7213,-3.14098 -1.35209,-3.33243 -1.35209,-10.93558 0,-5.24006 0.64805,-8.19722 0.8251,-8.9909 1.17639,-4.08488 1.81226,-8.632014 2.67933,-12.3397 2.26623,-9.53267 1.78059,-20.564631 -1.34145,-30.47257 -1.06735,-3.387262 -1.21763,-3.750686 -3.32025,-8.029305 -1.60543,-3.266887 -3.20433,-5.861685 -4.87238,-7.907189 -1.51815,-1.86168 -1.28612,-1.986203 2.09927,-1.126644 4.69607,1.19234 8.90773,2.62812 13.53784,4.615127 0.87312,0.374701 1.94028,0.815383 2.37145,0.979292 2.18142,0.829257 9.68773,4.795792 12.21246,6.453388 0.86253,0.566288 1.75851,1.148678 1.99108,1.294199 2.29728,1.437452 6.94161,4.91554 7.83563,5.917441 1.02679,0.93999 2.67537,2.202561 3.50292,3.46733 0,0.203909 -0.47625,0.935561 -1.05833,1.62588 -0.58209,0.690319 -1.05834,1.32474 -1.05834,1.40983 0,0.0851 -0.51205,0.78337 -1.1379,1.551739 -4.04856,4.970542 -8.82922,14.941021 -10.67221,22.2578 -1.69422,6.726152 -2.13459,9.529142 -2.49533,15.882942 -0.15667,2.7594 -0.34419,5.11312 -0.41672,5.23047 -0.0725,0.11735 -0.007,1.78871 0.14533,3.71414 0.15246,1.92542 0.41104,5.34623 0.57461,7.60181 0.16358,2.25557 0.39026,4.63682 0.50374,5.29166 0.11348,0.65485 0.41013,2.44078 0.65921,3.96875 0.24909,1.52797 0.54781,3.01625 0.66382,3.30729 0.11602,0.29105 0.35434,1.05674 0.52962,1.70154 0.31518,1.15946 1.54547,3.91096 2.18642,4.88983 0.36108,0.55146 0.53502,0.76553 2.0532,2.52699 0.55977,0.64947 0.95985,1.27454 0.88908,1.38906 -3.01164,0.77093 -5.55521,-0.005 -8.20252,-0.7952 z m 18.68841,0.39358 c -3.53701,-1.20889 -5.86995,-2.80327 -7.9383,-5.4252 -2.46377,-3.12319 -3.32144,-6.00658 -4.38288,-14.73476 -0.21236,-1.74625 -0.51387,-3.94891 -0.67003,-4.8948 -0.46745,-2.83142 -0.14882,-15.3114 0.4965,-19.44686 1.78306,-11.061551 5.09065,-19.710412 10.90721,-28.22826 2.93926,-4.333621 7.14023,-8.683021 10.63447,-11.805031 0.49049,-0.67824 4.76152,-4.08237 6.81633,-5.4328 4.51117,-2.952668 9.55363,-5.923648 14.03461,-7.9146 6.94641,-2.716363 16.2579,-6.772056 22.61908,-7.341195 0.33885,0 0.0562,0.55998 -0.88392,1.751375 -1.86908,2.368587 -5.85422,9.435033 -6.77136,12.006957 -1.67459,4.696053 -2.16254,6.367902 -2.93442,10.054164 -0.71142,3.397499 -0.894,5.531049 -0.88306,10.31875 0.0186,8.129098 0.57553,12.903039 2.0682,17.727086 0.42776,1.38244 0.92098,3.585114 1.09606,4.894804 0.17507,1.30968 0.4119,3.03608 0.52628,3.83645 0.43195,3.0225 0.58596,11.22477 0.27611,14.70574 -0.50256,5.6461 -2.11572,11.33961 -4.32088,15.25021 -0.55138,0.9778 -1.0025,1.84803 -1.0025,1.93384 0,0.26448 -3.0678,4.20231 -4.10957,5.27504 -2.29063,2.35873 -6.11223,5.0194 -9.38418,6.53346 -0.50933,0.23568 -1.4023,0.65006 -1.98438,0.92084 -0.97024,0.45135 -1.95028,0.49692 -11.77396,0.54746 -10.45368,0.0538 -10.75766,0.0408 -12.43541,-0.53267 z m 1.30289,-86.865612 c -0.52732,-0.568968 -4.71299,-4.205748 -5.66852,-4.925171 -0.14552,-0.109564 -0.8599,-0.654651 -1.5875,-1.21131 -3.35067,-2.563437 -6.71739,-4.691316 -11.45754,-7.241542 -1.26544,-0.68081 -2.33482,-1.40171 -2.3764,-1.602 -0.0565,-0.272348 0.54384,-0.439629 2.38125,-0.663474 1.35127,-0.164621 2.75451,-0.362577 3.11831,-0.439902 0.3638,-0.07732 1.79255,-0.374491 3.175,-0.66037 1.38245,-0.285877 2.87073,-0.632111 3.30729,-0.769403 0.43657,-0.137295 1.4486,-0.398376 2.24896,-0.580179 2.40221,-0.545663 8.93887,-2.743512 11.77396,-3.958804 8.04122,-3.446957 13.54006,-6.713374 19.66334,-11.680407 2.56278,-2.078853 3.77618,-2.359055 5.43343,-2.021354 2.94604,0.63219 2.58883,7.575357 2.54814,9.957224 -0.002,3.727537 -0.0915,6.908202 -0.19844,7.068148 -0.10691,0.159943 -0.96829,0.599048 -1.91417,0.975789 -6.97747,3.009172 -13.24579,6.207564 -19.05,10.08418 -0.65485,0.42209 -1.74293,1.225762 -2.41797,1.785935 -3.04573,2.209641 -5.05106,4.059362 -7.03384,5.817912 -1.04459,0.926989 -1.14313,0.93027 -1.9453,0.0647 z M 136.98881,45.266699 c -1.96192,-1.816902 -1.50895,-4.816017 -1.78426,-7.323704 -0.80155,-7.301188 0.003,-7.371313 1.84934,-8.733502 1.96941,-1.452983 3.25273,-1.130027 6.78627,1.707817 2.24451,1.802601 4.94014,3.795448 6.30755,4.663093 1.82697,1.275416 3.94745,2.362523 5.75469,3.271322 1.56435,0.775669 2.84427,1.547141 2.84427,1.714381 0,0.417645 -0.50009,1.045917 -6.47761,2.295271 -3.36457,0.91658 -9.41394,2.162035 -10.85119,2.35571 -0.63356,0.08057 -2.2862,0.902417 -4.42912,0.04961 z"
       style="fill:#ffffff;fill-opacity:1;stroke-width:0.264583" />
  </g>
</svg>
