<?xml version="1.0" encoding="UTF-8" standalone="no"?>
<svg
   xmlns:dc="http://purl.org/dc/elements/1.1/"
   xmlns:cc="http://creativecommons.org/ns#"
   xmlns:rdf="http://www.w3.org/1999/02/22-rdf-syntax-ns#"
   xmlns:svg="http://www.w3.org/2000/svg"
   xmlns="http://www.w3.org/2000/svg"
   xmlns:sodipodi="http://sodipodi.sourceforge.net/DTD/sodipodi-0.dtd"
   xmlns:inkscape="http://www.inkscape.org/namespaces/inkscape"
   width="1280"
   height="853"
   viewBox="0 0 338.66666 225.68959"
   version="1.1"
   id="svg853"
   inkscape:version="1.0 (4035a4fb49, 2020-05-01)"
   sodipodi:docname="Posadism_flag.svg">
  <defs
     id="defs847" />
  <sodipodi:namedview
     id="base"
     pagecolor="#ffffff"
     bordercolor="#666666"
     borderopacity="1.0"
     inkscape:pageopacity="0.0"
     inkscape:pageshadow="2"
     inkscape:zoom="0.7"
     inkscape:cx="682.41949"
     inkscape:cy="505.77478"
     inkscape:document-units="mm"
     inkscape:current-layer="layer1"
     inkscape:document-rotation="0"
     showgrid="false"
     units="px"
     inkscape:window-width="1920"
     inkscape:window-height="1017"
     inkscape:window-x="-8"
     inkscape:window-y="-8"
     inkscape:window-maximized="1" />
  <metadata
     id="metadata850">
    <rdf:RDF>
      <cc:Work
         rdf:about="">
        <dc:format>image/svg+xml</dc:format>
        <dc:type
           rdf:resource="http://purl.org/dc/dcmitype/StillImage" />
        <dc:title></dc:title>
      </cc:Work>
    </rdf:RDF>
  </metadata>
  <g
     inkscape:label="Layer 1"
     inkscape:groupmode="layer"
     id="layer1">
    <rect
       y="-2.059963"
       x="-3.968745"
       height="229.80951"
       width="346.60416"
       id="rect1420"
       style="fill:#ff0000;stroke:none;stroke-width:1;stroke-linecap:square;paint-order:stroke markers fill" />
    <g
       transform="matrix(1.1511905,0,0,1.1511905,-25.601585,-17.061073)"
       id="g1441">
      <circle
         style="fill:#ffff00;stroke:none;stroke-width:1.091;stroke-linecap:square;paint-order:stroke markers fill"
         id="path1422"
         cx="169.33333"
         cy="112.8448"
         r="60" />
      <path
         sodipodi:nodetypes="scssccscscccsssssscccsccccscsssssssssssssssssscsssssssssscccsscsssccsscsssssssssssssssss"
         d="m 141.2596,64.461426 c -0.0144,-0.0027 -0.0324,-0.0024 -0.0537,4.78e-4 -0.6408,0.08256 -4.41286,2.573894 -6.94893,4.617224 -6.49621,5.234032 -11.91025,11.984146 -15.53023,19.362754 -3.44148,7.014728 -5.24783,14.013918 -5.65618,21.915618 l -0.14509,2.80663 h 14.00981 c 7.70546,0 14.01164,-0.0807 14.01402,-0.17916 0.0336,-1.45211 0.60871,-5.19659 1.05715,-6.88267 1.73693,-6.530597 5.90361,-12.484835 11.29137,-16.135807 l 1.96175,-1.329603 -2.75904,-4.755315 c -1.51751,-2.615438 -3.89262,-6.74384 -5.27783,-9.174262 -2.34313,-4.111133 -5.78793,-10.052184 -5.93144,-10.229081 -0.008,-0.0084 -0.0174,-0.01412 -0.0316,-0.01679 z m 56.41484,0.13436 c -0.0972,0.0062 -0.16825,0.04668 -0.23001,0.113832 -0.26967,0.29325 -2.98791,4.96078 -9.09122,15.610943 -1.20459,2.101986 -2.78432,4.840307 -3.51062,6.084917 l -1.32027,2.262658 1.82132,1.19431 c 2.26701,1.486174 5.71397,4.92053 7.39307,7.366468 2.77896,4.048126 4.49847,8.932876 4.95825,14.084016 l 0.16515,1.85119 h 13.94078 13.9403 v -1.64639 c 0,-2.63044 -0.65749,-8.14027 -1.29088,-10.81691 -2.25319,-9.521441 -6.98552,-18.574717 -13.23911,-25.326849 -3.76048,-4.060261 -7.35008,-7.101177 -11.47238,-9.719634 -1.24239,-0.789148 -1.77262,-1.077301 -2.06438,-1.058551 z m -28.01265,23.039458 c -11.63661,-0.103556 -22.0374,7.499508 -25.20834,19.432286 -0.42868,1.61323 -0.51023,2.59725 -0.51458,6.21602 -0.004,3.72696 0.0662,4.56202 0.53232,6.27013 0.73795,2.70435 2.13263,5.85227 3.52833,7.96502 1.39728,2.11516 4.69279,5.4827 6.68021,6.82622 3.20919,2.16947 7.2915,3.79234 10.98766,4.3681 2.49574,0.38877 7.34486,0.11623 9.97902,-0.56076 10.55035,-2.71153 18.11062,-11.5021 19.28671,-22.42551 0.82262,-7.64044 -2.09085,-15.47737 -7.78728,-20.946171 -2.99179,-2.872246 -6.60774,-5.033042 -10.13251,-6.055061 -2.46802,-0.715609 -4.93639,-1.068775 -7.35154,-1.090274 z m -0.29204,2.487059 c 3.69631,0 5.68535,0.448659 8.95732,2.021928 4.58508,2.204654 7.51275,5.551116 8.99185,10.277149 0.47749,1.52568 0.5591,2.28931 0.56077,5.2489 0.002,3.87695 -0.29292,5.48556 -1.70609,9.30209 -2.84116,7.67312 -9.48686,16.36935 -14.4409,18.8967 -2.07575,1.05897 -3.63324,0.78734 -6.30418,-1.10054 -5.17975,-3.66117 -10.77632,-11.73999 -13.23538,-19.10569 -3.50185,-10.48919 -0.40166,-19.358642 8.21928,-23.515343 3.26773,-1.57558 5.2575,-2.025194 8.95733,-2.025194 z m -16.07327,18.754427 c -0.80498,-0.0187 -0.68668,0.38039 -0.57011,1.83905 0.33308,4.16762 1.73429,7.38614 4.35225,9.99769 1.92915,1.92443 3.90745,3.02796 6.62515,3.69582 0.9485,0.2331 2.40169,0.43167 3.2293,0.44134 l 1.50502,0.0176 -0.15115,-1.49288 c -0.79711,-7.86512 -5.7331,-13.18906 -13.23352,-14.27434 -0.83441,-0.12074 -1.39105,-0.21589 -1.75694,-0.2244 z m 32.56922,0.0471 c -1.05015,-0.01 -3.58232,0.4612 -5.33335,1.04082 -4.63482,1.53423 -8.2145,5.49596 -9.4971,10.51087 -0.25908,1.01294 -0.4712,2.43174 -0.4712,3.15279 v 1.31094 l 1.97062,-0.14835 c 6.39031,-0.48153 11.46479,-4.5085 13.18407,-10.46235 0.49726,-1.72204 0.87757,-5.0411 0.60927,-5.31607 -0.0566,-0.0581 -0.21999,-0.0863 -0.46231,-0.0886 z m -2.1423,29.00774 c -0.20742,9e-4 -0.93827,0.29107 -1.76581,0.7082 -4.04754,2.04013 -7.52019,2.81735 -12.58784,2.81735 -5.01585,0 -7.90647,-0.62808 -12.24868,-2.66246 -1.12273,-0.52601 -1.94255,-0.78377 -2.07138,-0.65081 -0.11727,0.12102 -2.06899,3.44484 -4.33731,7.38606 -2.26832,3.94122 -5.33528,9.25297 -6.8155,11.80408 -1.48023,2.5511 -2.63403,4.73115 -2.56403,4.84442 0.2203,0.35645 5.10903,2.71293 7.97249,3.84278 4.02656,1.5888 10.12563,3.01315 15.4066,3.59834 1.98889,0.22037 10.34075,-0.0647 12.65969,-0.43202 2.63396,-0.41728 7.31938,-1.51458 9.56801,-2.24073 3.09982,-1.00102 9.52835,-3.91907 10.34244,-4.69466 0.27018,-0.25741 -0.20145,-1.21509 -2.84208,-5.76863 -1.74145,-3.00294 -4.82966,-8.36193 -6.86262,-11.90903 -2.03296,-3.5471 -3.74237,-6.52834 -3.79847,-6.62515 -0.008,-0.0121 -0.0259,-0.0179 -0.0555,-0.0176 z"
         style="fill:#000000;stroke:none;stroke-width:0.902785;stroke-linecap:square;paint-order:stroke markers fill"
         id="rect835" />
    </g>
  </g>
</svg>
