<?xml version="1.0" encoding="UTF-8" standalone="no"?>
<svg
   xmlns:dc="http://purl.org/dc/elements/1.1/"
   xmlns:cc="http://creativecommons.org/ns#"
   xmlns:rdf="http://www.w3.org/1999/02/22-rdf-syntax-ns#"
   xmlns:svg="http://www.w3.org/2000/svg"
   xmlns="http://www.w3.org/2000/svg"
   xmlns:sodipodi="http://sodipodi.sourceforge.net/DTD/sodipodi-0.dtd"
   xmlns:inkscape="http://www.inkscape.org/namespaces/inkscape"
   sodipodi:docname="Socnat_flag.svg"
   inkscape:version="1.0 (4035a4fb49, 2020-05-01)"
   id="svg2"
   height="853.33331"
   width="1280"
   version="1.0">
  <metadata
     id="metadata12">
    <rdf:RDF>
      <cc:Work
         rdf:about="">
        <dc:format>image/svg+xml</dc:format>
        <dc:type
           rdf:resource="http://purl.org/dc/dcmitype/StillImage" />
        <dc:title></dc:title>
      </cc:Work>
    </rdf:RDF>
  </metadata>
  <sodipodi:namedview
     fit-margin-bottom="0"
     fit-margin-right="0"
     fit-margin-left="0"
     fit-margin-top="0"
     inkscape:document-rotation="0"
     inkscape:current-layer="layer1"
     inkscape:window-maximized="1"
     inkscape:window-y="-8"
     inkscape:window-x="-8"
     inkscape:cy="200"
     inkscape:cx="62.662835"
     inkscape:zoom="0.6525"
     showgrid="false"
     id="namedview10"
     inkscape:window-height="1017"
     inkscape:window-width="1920"
     inkscape:pageshadow="2"
     inkscape:pageopacity="0"
     guidetolerance="10"
     gridtolerance="10"
     objecttolerance="10"
     borderopacity="1"
     bordercolor="#666666"
     pagecolor="#ffffff" />
  <defs
     id="defs4" />
  <g
     id="layer1"
     transform="translate(-143.44165,-328.10321)">
    <rect
       style="fill:#000000;fill-opacity:1;fill-rule:evenodd;stroke:none;stroke-width:2.13333px;stroke-linecap:butt;stroke-linejoin:miter;stroke-opacity:1"
       id="rect3168"
       y="328.10321"
       x="143.44165"
       height="853.33331"
       width="1280" />
    <path
       style="fill:#ffffff;fill-opacity:1;stroke:none;stroke-width:5.41511"
       id="path3174"
       d="m 1103.4417,754.76981 a 320,320 0 1 1 -640.00001,0 320,320 0 1 1 640.00001,0 z" />
    <g
       id="g3196"
       transform="matrix(4.2666667,0,0,4.2666667,-468.57606,-1925.1372)">
      <a
         id="a3181"
         transform="rotate(2.4999998,7651.9315,4077.1175)">
        <path
           style="fill:#dd0000;fill-opacity:1;fill-rule:evenodd;stroke:none;stroke-width:1px;stroke-linecap:butt;stroke-linejoin:miter;stroke-opacity:1"
           id="path3176"
           transform="rotate(-2.4999999,7651.9273,4077.1251)"
           d="M 305.09375,555.90625 C 280.71764,574.85148 267.19062,595.73163 259.8125,627 c -13.23511,-2.32363 -27.2941,-6.33353 -38.6875,-10.875 19.04584,24.50554 40.04814,38.02319 71.59375,45.375 -2.32281,13.24404 -6.33004,27.31653 -10.875,38.71875 24.44832,-19.00142 37.94901,-39.95214 45.3125,-71.375 13.18012,2.3286 27.1606,6.35509 38.5,10.875 -19.00756,-24.45621 -39.9665,-38.01312 -71.40625,-45.375 2.33029,-13.16088 6.33135,-27.11698 10.84375,-38.4375 z" />
      </a>
    </g>
  </g>
</svg>
