<?xml version="1.0" encoding="UTF-8" standalone="no"?>
<svg
   xmlns:dc="http://purl.org/dc/elements/1.1/"
   xmlns:cc="http://creativecommons.org/ns#"
   xmlns:rdf="http://www.w3.org/1999/02/22-rdf-syntax-ns#"
   xmlns:svg="http://www.w3.org/2000/svg"
   xmlns="http://www.w3.org/2000/svg"
   xmlns:sodipodi="http://sodipodi.sourceforge.net/DTD/sodipodi-0.dtd"
   xmlns:inkscape="http://www.inkscape.org/namespaces/inkscape"
   sodipodi:docname="Statesoc_flag.svg"
   inkscape:version="1.0 (4035a4fb49, 2020-05-01)"
   id="svg853"
   version="1.1"
   viewBox="0 0 338.66666 225.68959"
   height="853"
   width="1280">
  <defs
     id="defs847" />
  <sodipodi:namedview
     inkscape:window-maximized="1"
     inkscape:window-y="-8"
     inkscape:window-x="-8"
     inkscape:window-height="1017"
     inkscape:window-width="1920"
     units="px"
     showgrid="false"
     inkscape:document-rotation="0"
     inkscape:current-layer="layer1"
     inkscape:document-units="mm"
     inkscape:cy="790.53764"
     inkscape:cx="409.58728"
     inkscape:zoom="0.24748737"
     inkscape:pageshadow="2"
     inkscape:pageopacity="0.0"
     borderopacity="1.0"
     bordercolor="#666666"
     pagecolor="#ffffff"
     id="base" />
  <metadata
     id="metadata850">
    <rdf:RDF>
      <cc:Work
         rdf:about="">
        <dc:format>image/svg+xml</dc:format>
        <dc:type
           rdf:resource="http://purl.org/dc/dcmitype/StillImage" />
        <dc:title></dc:title>
      </cc:Work>
    </rdf:RDF>
  </metadata>
  <g
     id="layer1"
     inkscape:groupmode="layer"
     inkscape:label="Layer 1">
    <rect
       style="fill:#cc0000;fill-opacity:1;fill-rule:nonzero;stroke:none;stroke-width:2.94351;stroke-linecap:butt;stroke-linejoin:round;stroke-miterlimit:4;stroke-dasharray:none;stroke-dashoffset:0;stroke-opacity:0.909449;paint-order:normal"
       id="rect5165"
       width="340.93451"
       height="230.56549"
       x="-1.1339213"
       y="-2.4379537"
       rx="0"
       ry="0" />
    <path
       inkscape:connector-curvature="0"
       style="fill:#ffd701;fill-opacity:1;stroke:none;stroke-width:0.571384;stroke-opacity:1"
       d="m 236.74363,50.244573 c -2.03584,-0.64641 -4.3736,-0.66607 -6.52566,0.0286 -2.85761,0.92249 -3.24552,1.51125 -4.84214,7.31931 -0.73091,2.65899 -1.56896,5.61265 -1.86259,6.56206 -0.29484,0.94907 -0.70132,2.39261 -0.90382,3.20797 -0.20055,0.816 -0.63949,2.42821 -0.97398,3.58464 -1.04677,3.6136 -2.28068,8.0764 -2.31285,8.37506 -0.0171,0.15713 -0.32797,1.29658 -0.68829,2.53568 -0.36054,1.23928 -0.87604,3.12267 -1.14728,4.18568 -0.27141,1.06306 -1.09523,4.18367 -1.8314,6.93106 -0.73457,2.74784 -1.32172,5.05634 -1.30115,5.13079 0.0171,0.0743 -0.12856,0.66235 -0.32798,1.30693 -0.42454,1.363727 -2.23605,8.766497 -3.34728,13.659887 -0.66657,2.93177 -0.91204,5.69675 -0.73206,8.22947 0.10857,1.54022 1.0349,3.65485 2.15109,4.91298 0.95204,1.07306 1.37647,1.32093 2.74613,1.62228 1.47217,0.32397 1.80255,0.29426 3.66223,-0.30512 1.62336,-0.52396 2.31365,-0.89936 3.34774,-1.82317 2.0227,-1.80609 2.17823,-2.19126 4.91773,-12.23967 1.18756,-4.35864 2.34701,-8.62168 2.5166,-9.25901 0.0663,-0.2457 0.43025,-1.52309 0.81182,-2.83728 0.38054,-1.31442 0.70498,-2.525527 0.72029,-2.687967 0.0171,-0.16399 0.39483,-1.57868 0.8429,-3.14604 0.44797,-1.56742 1.1838,-4.19367 1.63279,-5.83714 0.44911,-1.64347 1.19425,-4.28755 1.65621,-5.87429 0.46225,-1.58673 0.82223,-2.94468 0.80097,-3.02267 -0.0229,-0.0783 0.30683,-1.33687 0.72783,-2.79887 1.74763,-6.04496 5.13788,-18.41867 5.47666,-19.98529 0.18455,-0.85754 0.12227,-1.66759 -0.23256,-2.99108 -0.43653,-1.62862 -0.61286,-1.92985 -1.74809,-2.96263 -0.9005,-0.81965 -2.01413,-1.43492 -3.23557,-1.82289 z M 123.47558,20.076929 c -1.81449,-0.578754 -3.89821,-0.652977 -5.9528,-0.130847 -1.61587,0.410825 -2.10954,0.652635 -2.92388,1.441373 -0.8717,0.84422 -1.16894,1.600904 -2.69442,6.812778 -0.94444,3.22307 -1.79689,6.25391 -1.89248,6.73656 -0.096,0.48282 -0.46796,1.8286 -0.83216,2.99251 -0.36397,1.16397 -0.70983,2.40456 -0.76337,2.75464 -0.0514,0.35026 -0.26512,1.17745 -0.47139,1.84197 -0.36683,1.18003 -1.93494,6.90118 -3.61503,13.18406 -0.46111,1.72301 -1.18985,4.3992 -1.61514,5.94616 -0.42568,1.54685 -0.89758,3.35568 -1.05186,4.02003 -0.15256,0.66469 -0.69074,2.81664 -1.19847,4.7802 -3.325396,12.88105 -4.111226,17.12483 -3.791876,20.47594 0.17656,1.85631 0.29369,2.2957 0.98621,3.64926 0.88205,1.72295 2.32502,2.79783 4.271606,3.17815 1.39926,0.27426 1.86528,0.24055 3.34362,-0.25141 3.07536,-1.02312 5.80206,-4.05586 6.33939,-7.05282 0.11428,-0.64024 0.51368,-2.18075 0.89216,-3.42408 0.37711,-1.24384 0.7672,-2.65596 0.86662,-3.13969 0.0994,-0.48397 0.47653,-1.89254 0.83451,-3.13102 0.35711,-1.23859 1.07894,-3.80078 1.60438,-5.69264 0.52568,-1.89191 1.25579,-4.51724 1.62399,-5.83514 0.36854,-1.31773 0.89953,-3.26889 1.17968,-4.33338 0.56053,-2.14246 0.69463,-2.6339 1.97002,-7.17635 0.48682,-1.72963 1.01152,-3.67457 1.16328,-4.32475 0.15256,-0.65006 0.53938,-2.04658 0.86622,-3.10078 0.32454,-1.05455 0.58058,-1.96596 0.56452,-2.02573 -0.0171,-0.06 0.34169,-1.4196 0.79686,-3.02371 0.45482,-1.60404 1.19533,-4.26063 1.64244,-5.90405 0.44682,-1.64347 1.12391,-4.08122 1.50325,-5.41557 1.87768,-6.59989 2.01173,-8.69098 0.69115,-10.704138 -0.97621,-1.488113 -2.52158,-2.5694 -4.33618,-3.147697 z m 19.42288,8.711034 -0.43883,1.55548 c -1.47188,5.24204 -2.24788,8.11285 -2.22342,8.20347 0.0171,0.0577 -0.39883,1.60845 -0.91502,3.4483 -1.01786,3.62252 -1.94756,7.02962 -3.19706,11.70566 -0.43825,1.6409 -1.1034,4.06002 -1.47669,5.37923 -0.37368,1.3191 -0.87284,3.19901 -1.10534,4.17516 -0.23141,0.9765 -0.5411,2.11944 -0.68943,2.5398 -0.14799,0.42054 -0.55767,1.89934 -0.91147,3.28849 -0.35197,1.38978 -0.80228,3.06947 -0.99524,3.73102 -0.72588,2.47678 -2.16257,7.7446 -2.13812,7.83528 0.0114,0.0514 -0.36168,1.44377 -0.83302,3.09221 -0.47196,1.6485 -0.84719,3.05502 -0.82816,3.12398 0.0171,0.0691 -0.14627,0.69738 -0.36626,1.40092 -0.38225,1.21911 -1.90642,6.76336 -2.73138,9.93591 l -0.001,0.004 c -0.21255,0.81868 -0.31197,1.64701 -0.22341,1.839107 0.088,0.19199 1.30647,0.65745 2.70299,1.03707 1.39698,0.37883 3.81376,1.04038 5.37449,1.46189 1.56045,0.42283 4.27635,1.1762 6.03462,1.67416 1.7582,0.49825 3.253,0.89023 3.32591,0.86932 0.072,-0.0171 1.19328,0.27769 2.4874,0.65766 1.91134,0.56281 4.95019,1.39699 8.7664,2.40948 3.65926,0.96941 6.72211,1.8006 9.45372,2.56848 1.83586,0.51539 3.38522,0.92725 3.44533,0.90976 0.0606,-0.0171 1.53508,0.36912 3.27317,0.85513 1.73821,0.48568 3.61315,1.00347 4.16705,1.15191 0.55367,0.14856 2.48535,0.67264 4.29281,1.16871 1.80825,0.49368 4.34114,1.16774 5.62544,1.49846 1.28499,0.32911 3.18295,0.86393 4.22241,1.18859 1.03981,0.32397 1.95671,0.5747 2.03299,0.55367 0.0766,-0.0229 1.04506,0.22284 2.15229,0.54624 1.10722,0.32341 2.03789,0.54625 2.06778,0.48854 0.0709,-0.13485 1.37286,-4.91745 2.01773,-7.41559 0.27369,-1.06381 0.77171,-2.86344 1.10654,-3.99672 0.33426,-1.1334 0.59115,-2.1191 0.56967,-2.1939 -0.0229,-0.0743 0.27998,-1.23271 0.6636,-2.57283 0.73766,-2.58342 2.13029,-7.661937 3.45282,-12.593097 0.43939,-1.64118 1.10403,-4.06082 1.47697,-5.37912 0.3714,-1.31864 0.86336,-3.19718 1.09614,-4.17327 0.23084,-0.97672 0.54567,-2.11823 0.69366,-2.53866 0.14799,-0.41997 0.55881,-1.90328 0.91284,-3.29248 0.35255,-1.38961 0.79606,-3.06679 0.9901,-3.72806 0.78074,-2.66179 2.16714,-7.74899 2.13955,-7.85224 -0.0171,-0.0594 0.39539,-1.61342 0.91078,-3.44944 0.51767,-1.8354 1.24105,-4.41623 1.61028,-5.73453 0.97226,-3.4591 1.68729,-6.42087 1.55867,-6.46532 -0.73548,-0.25084 -6.31162,-1.81729 -6.39321,-1.7954 -0.0617,0.0171 -1.43057,-0.34283 -3.04531,-0.79742 -1.61461,-0.45425 -4.40999,-1.22014 -6.21431,-1.70033 -1.80454,-0.47882 -4.47668,-1.22133 -5.93856,-1.64336 -1.46183,-0.42225 -2.70779,-0.75085 -2.77127,-0.73365 -0.0628,0.0171 -1.46652,-0.35769 -3.11473,-0.83017 -1.6485,-0.47196 -3.05599,-0.84067 -3.13044,-0.82028 -0.072,0.0172 -0.83914,-0.19141 -1.70461,-0.46567 -0.86599,-0.27255 -2.30931,-0.67424 -3.20621,-0.89445 -0.89696,-0.21998 -2.77498,-0.72171 -4.17401,-1.10951 -1.39892,-0.38797 -3.88638,-1.06666 -5.52769,-1.50645 -4.52638,-1.21442 -8.01611,-2.16343 -11.65097,-3.17398 -1.81083,-0.50396 -3.42133,-0.93233 -3.57806,-0.94982 -0.25027,-0.0286 -3.04902,-0.78508 -7.6846,-2.08435 z m 79.25443,24.42129 c -0.67995,-0.21256 -2.29794,-0.64104 -3.59944,-0.95113 -1.3015,-0.31026 -2.53111,-0.63109 -2.72904,-0.71268 -0.24798,-0.10514 -0.55881,0.6396 -1.01015,2.42341 -1.02689,4.05277 -1.16065,4.55181 -2.01361,7.62963 -0.4434,1.59507 -0.7868,2.95285 -0.76943,3.01805 0.0171,0.0651 -0.35311,1.48302 -0.82119,3.14758 -0.46797,1.66444 -0.83468,3.0817 -0.81788,3.14844 0.0343,0.11942 -0.32912,1.47034 -2.26085,8.4542 -0.51768,1.86316 -0.92427,3.43281 -0.90908,3.48904 0.0286,0.10113 -1.58353,6.22602 -2.46706,9.37224 -0.25426,0.9061 -0.62178,2.3137 -0.81594,3.12729 -0.33083,1.38681 -4.43513,17.041797 -5.15462,19.658847 l 0.004,0.001 c -0.18056,0.65755 -0.31198,1.28796 -0.28798,1.40024 0.0457,0.21312 0.88336,0.4691 5.2257,1.59582 1.4504,0.37768 2.65414,0.64063 2.67082,0.58944 0.11599,-0.33541 1.42132,-5.44198 1.72981,-6.76273 0.20513,-0.88462 0.71126,-2.82852 1.12151,-4.31858 0.94222,-3.41558 3.44482,-12.952447 3.91335,-14.911727 0.19485,-0.81354 0.62258,-2.3965 0.95559,-3.51573 0.33197,-1.11962 0.58498,-2.10097 0.56281,-2.18262 -0.0229,-0.0829 0.3514,-1.47737 0.83114,-3.10153 0.47939,-1.62388 0.85216,-3.02908 0.82702,-3.11987 -0.0229,-0.0903 0.34454,-1.50914 0.81548,-3.15781 0.47253,-1.64839 0.84347,-3.04702 0.82804,-3.10667 -0.0171,-0.0594 0.17142,-0.82303 0.41883,-1.69547 0.24741,-0.87268 0.80256,-2.92623 1.22739,-4.56393 0.42511,-1.63764 1.19322,-4.58604 1.70872,-6.55115 0.51311,-1.96567 1.18631,-4.57398 1.49526,-5.79577 l 0.55995,-2.22251 z m -89.53997,-23.60975 c -1.06038,-0.25027 -1.31573,-0.22799 -1.4304,0.11656 -0.48911,1.46805 -3.22461,11.59498 -3.17827,11.76713 0.0171,0.0611 -0.27484,1.22602 -0.64909,2.58535 -0.3754,1.35903 -1.05512,3.87963 -1.5096,5.60076 -0.45425,1.72106 -1.18756,4.47348 -1.62987,6.11598 -0.44454,1.64192 -0.8873,3.38059 -0.98804,3.86329 -0.0994,0.48339 -0.46967,1.88986 -0.82399,3.12513 -0.35426,1.23522 -0.77017,2.78001 -0.92427,3.43282 -0.32169,1.36343 -1.5204,5.92525 -3.83844,14.60154 -0.39426,1.47669 -1.18985,4.5597 -1.76935,6.84775 -0.57944,2.28817 -1.21191,4.63615 -1.40332,5.22074 -0.19198,0.58429 -0.32397,1.18487 -0.2954,1.32875 0.0286,0.14456 0.63852,0.39368 1.34972,0.5571 0.71131,0.16399 2.41684,0.60898 3.79296,0.99101 1.37675,0.37997 2.56774,0.67686 2.64425,0.6564 0.13027,-0.0343 1.24756,-4.07848 2.10995,-7.62986 0.19827,-0.81451 0.7676,-3.02182 1.2715,-4.90847 0.50339,-1.88671 1.21145,-4.54593 1.56925,-5.90628 0.35768,-1.36035 0.98421,-3.68166 1.38703,-5.15994 0.40283,-1.47829 0.71743,-2.73579 0.70229,-2.79704 -0.0171,-0.0617 0.35483,-1.46828 0.82399,-3.12513 0.47082,-1.65632 0.83811,-3.0777 0.81582,-3.15769 -0.0228,-0.08 0.35198,-1.47726 0.83102,-3.10147 0.47882,-1.62416 0.85097,-3.03142 0.82508,-3.12919 -0.0286,-0.0977 0.31141,-1.3932 0.74983,-2.87989 0.43882,-1.48679 0.78154,-2.76601 0.76148,-2.842 -0.0229,-0.076 0.18342,-0.89862 0.45483,-1.82923 0.27083,-0.93039 0.86278,-3.1321 1.31538,-4.89236 0.45139,-1.76049 1.20316,-4.6409 1.66804,-6.40127 1.82688,-6.92466 1.87854,-7.18647 1.50422,-7.34897 -0.4531,-0.19541 -4.41914,-1.29681 -6.13597,-1.70135 z m 15.23641,81.207507 -0.10171,0.32912 c -0.44911,1.45177 -0.8857,2.98497 -0.87342,3.08581 0.0171,0.13657 -0.52796,1.97819 -1.05077,3.56401 -0.1897,0.57533 -0.31941,1.07215 -0.28798,1.109 0.0286,0.0343 -0.10913,0.59367 -0.30512,1.23488 -0.19884,0.64052 -0.50967,1.70095 -0.69274,2.36073 -0.18342,0.65949 -0.46511,1.63021 -0.62464,2.15737 -0.15999,0.52739 -0.34055,1.17534 -0.3994,1.43989 -0.0594,0.26455 -0.23827,0.93992 -0.40168,1.50005 -0.16342,0.55996 -0.44168,1.5288 -0.6167,2.15509 -0.17484,0.62658 -0.4851,1.70901 -0.68766,2.40124 -0.20398,0.69172 -0.51253,1.79763 -0.68903,2.45729 -0.34226,1.27756 -0.98592,3.53304 -1.3988,4.91345 -0.13942,0.4611 -0.40569,1.4308 -0.59624,2.15629 -0.19027,0.72577 -0.5211,1.91162 -0.73235,2.63688 -0.81907,2.80498 -0.95141,3.27574 -1.26978,4.49616 -0.37769,1.45131 -0.4394,1.68181 -0.83668,3.0261 -0.1617,0.54453 -0.43825,1.50337 -0.61481,2.12955 -0.67137,2.38673 -0.87399,3.09256 -1.17499,4.07825 -0.17142,0.5571 -0.28626,1.05089 -0.2577,1.09546 0.0286,0.0457 1.03587,0.35597 2.23954,0.69092 2.95634,0.82405 7.94104,2.18183 9.25288,2.52352 0.58778,0.15313 2.7631,0.73377 4.83076,1.2855 2.06761,0.55252 3.80531,1.00117 3.8633,1.00437 0.0983,0.004 0.32341,-0.71845 1.09455,-3.46972 0.17427,-0.62658 0.47653,-1.65393 0.67091,-2.27971 0.19485,-0.62567 0.35026,-1.19202 0.34226,-1.25968 -0.006,-0.0674 0.14456,-0.6588 0.33483,-1.31829 0.19256,-0.65869 0.75857,-2.6386 0.75857,-2.6386 0.2257,-0.79102 0.53653,-1.8202 0.69492,-2.28627 0.15656,-0.46625 0.26227,-0.87331 0.2337,-0.90645 -0.0457,-0.0514 0.43425,-1.80768 0.86553,-3.16175 0.0823,-0.26398 0.24512,-0.79959 0.35597,-1.19522 0.10971,-0.39597 0.32912,-1.17734 0.48796,-1.73786 0.15885,-0.56053 0.43025,-1.532 0.60418,-2.15846 0.17428,-0.62624 0.50625,-1.81546 0.738,-2.63974 0.23199,-0.82428 0.56396,-2.00927 0.73697,-2.63568 0.17199,-0.62658 0.43368,-1.51685 0.58144,-1.97773 0.14914,-0.46054 0.32741,-1.10232 0.3994,-1.42246 0.0697,-0.32055 0.21827,-0.83194 0.32683,-1.13774 0.10742,-0.30626 0.23484,-0.77126 0.28627,-1.03581 0.12399,-0.63789 0.65606,-2.50803 1.08505,-3.80684 0.1897,-0.57527 0.31941,-1.07386 0.29255,-1.10791 -0.0286,-0.0343 0.072,-0.42454 0.22456,-0.86976 0.15256,-0.44511 0.50339,-1.67325 0.77788,-2.72905 0.27426,-1.05603 0.62544,-2.28348 0.77788,-2.72898 0.15256,-0.44568 0.25427,-0.83491 0.22398,-0.86977 -0.0286,-0.0343 0.10285,-0.4811 0.29141,-0.99089 0.18684,-0.50967 0.36797,-1.15328 0.40511,-1.42972 l 0.0697,-0.50281 -0.85205,-0.25884 c -0.46739,-0.14113 -1.64741,-0.46339 -2.62362,-0.71629 -0.97615,-0.25255 -2.92012,-0.77571 -4.32166,-1.15791 -5.76721,-1.57039 -8.29753,-2.25171 -9.27551,-2.50369 -0.56738,-0.14741 -1.50879,-0.40854 -2.09463,-0.58304 z m 10.5038,57.63058 c -1.84128,-0.47482 -4.46022,-1.16448 -5.82017,-1.53377 -1.36006,-0.36854 -2.53592,-0.65126 -2.61191,-0.63103 -0.0783,0.0229 -1.06512,-0.2177 -2.19623,-0.52853 -2.51249,-0.68675 -8.53556,-2.23806 -10.55209,-2.71825 -4.50759,-1.07328 -9.23322,-2.28885 -9.50485,-2.44249 -0.17085,-0.0971 -0.39197,-0.15428 -0.49139,-0.12742 -0.16856,0.0457 -1.03335,2.9384 -1.17003,3.91449 -0.0343,0.2377 -0.50567,2.10641 -1.04689,4.15168 l -0.9826,3.71702 0.71183,0.29484 c 0.39025,0.16341 0.79588,0.27597 0.90187,0.25026 0.1057,-0.0286 1.76712,0.36397 3.69251,0.86325 6.46515,1.67712 7.35291,1.90516 11.22735,2.87383 5.06332,1.26716 4.78283,1.19197 6.84101,1.74592 0.98472,0.2657 2.44661,0.61504 3.25111,0.77537 0.8044,0.16056 1.80958,0.41254 2.23057,0.56224 0.84639,0.30055 5.82778,1.49646 6.02239,1.44417 0.0674,-0.0171 0.35597,-1.00243 0.64258,-2.18297 0.28455,-1.18099 0.92392,-3.72291 1.41851,-5.65121 0.49482,-1.92837 0.87228,-3.59886 0.84291,-3.71097 -0.0286,-0.11199 -1.56165,-0.59344 -3.40299,-1.06826 z m -26.17961,8.68909 c -1.76637,-0.47996 -3.33831,-0.80005 -3.48938,-0.7132 -0.24855,0.14342 -0.6764,1.62062 -1.99487,6.86123 -0.44168,1.75547 -0.82771,3.20821 -2.527,9.51263 -0.47768,1.76632 -1.04152,3.90353 -1.25482,4.75214 -0.74749,2.95263 -1.46194,5.60025 -2.13349,7.89299 -0.37026,1.26933 -0.65298,2.36198 -0.62812,2.42581 0.0229,0.064 -0.24398,1.09305 -0.5991,2.28588 -0.35483,1.19276 -0.62664,2.21942 -0.60527,2.27553 0.0229,0.0571 -0.27826,1.16443 -0.66469,2.46387 -0.38682,1.29927 -0.68194,2.41969 -0.65452,2.49266 0.0286,0.0709 -0.24798,1.0886 -0.60921,2.25708 -0.36054,1.16865 -0.66572,2.31502 -0.67914,2.55123 -0.0172,0.23598 -0.20627,0.97649 -0.42283,1.64655 -0.21998,0.6691 -0.54624,1.84997 -0.72434,2.62174 l 23.79374,6.64514 c 0.40625,-1.56748 3.15689,-11.13913 3.52332,-12.42314 0.36626,-1.28407 0.65007,-2.37559 0.62904,-2.42998 -0.0171,-0.0514 0.21141,-0.98176 0.51424,-2.06527 1.34927,-4.81545 2.03327,-7.38657 1.99602,-7.48227 -0.0229,-0.0571 0.28055,-1.161 0.67092,-2.45353 0.39025,-1.29224 0.69177,-2.39844 0.66772,-2.45866 -0.0229,-0.0594 0.2954,-1.32321 0.7084,-2.80847 1.53696,-5.51619 1.83877,-6.6425 1.80437,-6.73404 -0.0171,-0.0514 0.27941,-1.1582 0.66464,-2.46392 0.38568,-1.30561 0.68109,-2.42301 0.65657,-2.48341 -0.0229,-0.0594 0.18342,-0.84862 0.4554,-1.75072 0.6248,-2.06601 1.32161,-4.89899 1.21127,-4.94195 -0.15084,-0.0594 -5.12634,-1.41287 -8.44825,-2.29931 -7.37925,-1.96613 -8.78423,-2.34485 -11.85862,-3.17752 z"
       id="path4728"
       sodipodi:nodetypes="ccccccccccccccccccccccccccccccccccccccccccccccccccccscccccccccccccccccccccccccccccccccccccccccccccccccccccccccccccccccccccccccccccccccccccccccccccccccccccccccccccccccccccccccccccscccccccccccccccccccccccccccccccccccccccccccccccccccccccccccccccccccccccccccccccccccccccccccccccccccccccccccccccccccccccccccc" />
  </g>
</svg>
