<?xml version="1.0" encoding="UTF-8" standalone="no"?>
<svg
   xmlns:dc="http://purl.org/dc/elements/1.1/"
   xmlns:cc="http://creativecommons.org/ns#"
   xmlns:rdf="http://www.w3.org/1999/02/22-rdf-syntax-ns#"
   xmlns:svg="http://www.w3.org/2000/svg"
   xmlns="http://www.w3.org/2000/svg"
   xmlns:sodipodi="http://sodipodi.sourceforge.net/DTD/sodipodi-0.dtd"
   xmlns:inkscape="http://www.inkscape.org/namespaces/inkscape"
   width="1280"
   height="853"
   viewBox="0 0 338.66666 225.68959"
   version="1.1"
   id="svg853"
   inkscape:version="1.0 (4035a4fb49, 2020-05-01)"
   sodipodi:docname="synd_flag.svg">
  <defs
     id="defs847" />
  <sodipodi:namedview
     id="base"
     pagecolor="#ffffff"
     bordercolor="#666666"
     borderopacity="1.0"
     inkscape:pageopacity="0.0"
     inkscape:pageshadow="2"
     inkscape:zoom="0.24748737"
     inkscape:cx="-1158.5862"
     inkscape:cy="890.0231"
     inkscape:document-units="mm"
     inkscape:current-layer="layer1"
     inkscape:document-rotation="0"
     showgrid="false"
     units="px"
     inkscape:window-width="1920"
     inkscape:window-height="1017"
     inkscape:window-x="-8"
     inkscape:window-y="-8"
     inkscape:window-maximized="1" />
  <metadata
     id="metadata850">
    <rdf:RDF>
      <cc:Work
         rdf:about="">
        <dc:format>image/svg+xml</dc:format>
        <dc:type
           rdf:resource="http://purl.org/dc/dcmitype/StillImage" />
        <dc:title></dc:title>
      </cc:Work>
    </rdf:RDF>
  </metadata>
  <g
     inkscape:label="Layer 1"
     inkscape:groupmode="layer"
     id="layer1">
    <rect
       y="-3.0238097"
       x="-4.5357141"
       height="233.58928"
       width="345.47021"
       id="rect898"
       style="fill:#ff0000;fill-opacity:1;stroke-width:0.264583" />
    <path
       style="fill:#000000;stroke-width:1.19439"
       d="m 94.563346,188.41727 c -63.042231,-125.611513 -31.521115,-62.80576 0,0 z m 117.171344,-2.32225 c -1.97079,-1.71388 -6.51595,-5.59364 -10.10043,-8.62168 -3.58447,-3.02805 -10.30299,-8.7342 -14.93005,-12.68038 -4.62707,-3.94614 -11.27732,-9.54112 -14.77839,-12.43327 l -6.36548,-5.25846 -19.93388,19.90794 -19.93381,19.908 -8.08717,-8.14959 -8.08711,-8.14955 18.55096,-18.43558 c 10.20305,-10.13958 18.55532,-19.02111 18.56066,-19.73671 0.01,-1.38562 -5.44009,-6.60829 -14.53464,-13.92751 -5.86687,-4.72164 -9.96424,-5.54636 -16.05338,-3.23125 -2.83056,1.07615 -3.69421,0.83545 -6.28005,-1.75044 l -2.99819,-2.99814 2.91769,-2.52272 c 1.60474,-1.38747 11.93659,-11.349456 22.95967,-22.137696 11.02309,-10.788244 20.74134,-19.614979 21.59605,-19.614979 2.941,0 4.78561,5.382882 3.30248,9.637321 -0.73962,2.12167 -1.34476,4.8251 -1.34476,6.007603 0,2.840081 15.48576,23.430321 18.3836,24.443331 1.74916,0.61141 4.6593,-1.6 12.89038,-9.795415 5.84714,-5.821865 11.68338,-12.579287 12.96948,-15.016595 2.53691,-4.807794 3.07441,-12.863447 1.10397,-16.54526 -2.29037,-4.279629 -9.87986,-7.087063 -19.32154,-7.14741 l -8.70703,-0.05549 5.94136,-3.089439 c 15.50824,-8.064192 34.93349,-3.033281 50.606,13.106273 3.20597,3.30148 4.68898,5.650947 3.88184,6.149815 -3.63132,2.244275 -0.31239,12.324888 5.47626,16.632607 2.45118,1.82414 3.53163,1.987418 5.9274,0.895817 1.61143,-0.734155 3.68984,-1.334883 4.61875,-1.334883 2.12565,0 6.55953,4.671169 6.55953,6.910557 0,2.362321 -15.50834,18.171973 -17.82561,18.171973 -2.10518,0 -8.81467,-5.72269 -8.17806,-6.97525 4.1213,-8.1097 4.20301,-7.25314 -1.17038,-12.265374 -8.47576,-7.906117 -10.27755,-7.250531 -27.4879,10.001224 -8.0374,8.05678 -14.61351,15.47788 -14.61351,16.4914 0,1.01346 1.2918,3.42441 2.87068,5.35756 1.57892,1.9332 8.34321,10.50214 15.03183,19.04216 6.68861,8.53999 13.05592,16.60397 14.1496,17.91999 1.09361,1.31607 3.71661,4.59476 5.82885,7.28608 l 3.84036,4.89324 -3.48514,4.73905 c -2.7289,3.71076 -8.12892,7.80498 -9.92528,7.52523 -0.13319,-0.0238 -1.85484,-1.44001 -3.82561,-3.1539 z M 95.917584,96.167476 c -1.842833,-2.036253 -2.009482,-3.691765 -1.267837,-12.594813 0.72477,-8.700651 1.112209,-10.035932 2.562649,-8.832192 2.073972,1.721256 1.960359,1.876774 4.013494,-5.491451 1.93366,-6.939175 2.17191,-11.973321 0.75754,-16.004532 l -1.00554,-2.86609 13.57422,0.82102 c 20.93906,1.266431 28.50432,4.68605 28.50432,12.884319 0,3.38458 -2.24548,9.386275 -3.47637,9.291475 -0.3873,-0.03156 -2.04773,-2.851572 -3.69005,-6.270603 -3.50043,-7.287288 -7.16643,-9.014671 -7.16643,-3.376788 0,1.986603 -0.58204,6.325877 -1.29338,9.642836 -1.13701,5.301633 -1.6563,6.030818 -4.29466,6.030818 -1.65066,0 -4.59325,-1.133635 -6.53899,-2.519113 -1.9458,-1.385514 -3.77819,-2.278715 -4.07207,-1.984835 -0.29388,0.29388 -0.666,3.66646 -0.82704,7.494715 -0.1986,4.72622 0.18652,7.12052 1.20026,7.459167 2.61364,0.873091 1.60552,2.688479 -1.49299,2.688479 -3.49808,0 -3.71169,0.801692 -1.00931,3.787806 1.89415,2.092983 1.67738,2.184241 -5.18972,2.184241 -5.604292,0 -7.62886,-0.511021 -9.288096,-2.344459 z"
       id="path2996"
       inkscape:connector-curvature="0"
       sodipodi:nodetypes="ccsssscccccscssscsssssssssscsssscssssssssssscscsssssscsscssssscsssssss" />
  </g>
</svg>
