<?xml version="1.0" encoding="UTF-8" standalone="no"?>
<svg
   xmlns:dc="http://purl.org/dc/elements/1.1/"
   xmlns:cc="http://creativecommons.org/ns#"
   xmlns:rdf="http://www.w3.org/1999/02/22-rdf-syntax-ns#"
   xmlns:svg="http://www.w3.org/2000/svg"
   xmlns="http://www.w3.org/2000/svg"
   xmlns:sodipodi="http://sodipodi.sourceforge.net/DTD/sodipodi-0.dtd"
   xmlns:inkscape="http://www.inkscape.org/namespaces/inkscape"
   inkscape:version="1.0 (4035a4fb49, 2020-05-01)"
   sodipodi:docname="Trot_flag.svg"
   viewBox="0 0 1280 750"
   height="750"
   width="1280"
   id="svg2"
   version="1.1">
  <metadata
     id="metadata8">
    <rdf:RDF>
      <cc:Work
         rdf:about="">
        <dc:format>image/svg+xml</dc:format>
        <dc:type
           rdf:resource="http://purl.org/dc/dcmitype/StillImage" />
        <dc:title></dc:title>
      </cc:Work>
    </rdf:RDF>
  </metadata>
  <defs
     id="defs6" />
  <sodipodi:namedview
     inkscape:current-layer="g10"
     inkscape:window-maximized="1"
     inkscape:window-y="-8"
     inkscape:window-x="-8"
     inkscape:cy="416.77722"
     inkscape:cx="-65.627158"
     inkscape:zoom="0.41367188"
     showgrid="false"
     id="namedview4"
     inkscape:window-height="1017"
     inkscape:window-width="1920"
     inkscape:pageshadow="2"
     inkscape:pageopacity="0"
     guidetolerance="10"
     gridtolerance="10"
     objecttolerance="10"
     borderopacity="1"
     bordercolor="#666666"
     pagecolor="#ffffff" />
  <g
     id="g10"
     inkscape:label="Image"
     inkscape:groupmode="layer">
    <g
       id="g856">
      <rect
         style="fill:#cc0000;fill-opacity:1;stroke-width:59.5169;stroke-linecap:round;stroke-linejoin:round"
         id="rect837"
         width="1280"
         height="582.9118"
         x="0"
         y="0" />
      <rect
         y="582.9118"
         x="-7.6293945e-06"
         height="167.08821"
         width="1280"
         id="rect837-0"
         style="fill:#ffd700;fill-opacity:1;stroke-width:31.8649;stroke-linecap:round;stroke-linejoin:round" />
    </g>
    <path
       d="m 89.091055,299.17192 c -3.020412,-1.07102 -11.107965,-5.56166 -20.483216,-11.37336 -1.663399,-1.03113 -3.550198,-2.19671 -4.192875,-2.59018 -0.66617,-0.40784 -1.168504,-0.92488 -1.168504,-1.20272 0,-1.22433 2.298177,-6.36276 8.453117,-18.9001 2.190005,-4.46095 4.272875,-8.75442 4.628607,-9.54105 l 0.646782,-1.43023 -2.671377,-2.403 C 60.477847,239.29456 57.729456,235.77986 51.007333,221.93959 c -1.243639,-2.56054 -3.63834,-8.81968 -4.253156,-11.11667 -0.321076,-1.19956 -0.630961,-2.25736 -0.688634,-2.35069 -0.05769,-0.0933 -0.411453,-1.95751 -0.786174,-4.14264 -0.982229,-5.7277 -1.40437,-13.49533 -1.176637,-21.65071 0.611898,-21.91242 0.996181,-24.84027 4.897116,-37.31078 5.543947,-17.72291 12.576913,-31.16308 23.01946,-43.99079 3.665909,-4.503243 5.246218,-6.218312 12.243563,-13.287696 7.662842,-7.741749 14.023804,-13.433731 19.970379,-17.870119 5.07549,-3.786521 5.60404,-4.159628 8.24605,-5.820856 1.27538,-0.801931 2.75191,-1.737512 3.28117,-2.079076 5.23702,-3.379742 19.47859,-10.937299 25.67414,-13.624455 1.35088,-0.585902 3.1622,-1.211117 4.02516,-1.389363 1.41383,-0.29202 1.66083,-0.270454 2.49733,0.218091 1.27072,0.742143 1.82663,1.769893 1.42916,2.642242 -0.28649,0.628794 -4.41279,3.563149 -6.81889,4.849154 -3.15074,1.683991 -9.45491,6.141692 -14.43448,10.20665 -17.18618,14.029571 -34.376582,37.661318 -44.200547,60.762768 -2.774182,6.52362 -5.552371,14.45497 -7.319298,20.89563 -1.79538,6.5444 -2.173474,11.02212 -2.205474,26.11954 -0.03112,14.69084 0.471348,22.33046 1.511037,22.97302 0.15664,0.0969 0.539922,-0.0527 0.851746,-0.33206 0.667054,-0.59781 2.942537,-3.91626 4.301384,-6.27294 2.44032,-4.2323 8.368136,-14.89675 9.862262,-17.74273 0.912975,-1.73902 3.018083,-5.69818 4.678011,-8.79816 1.659936,-3.09997 4.289094,-8.1108 5.842579,-11.13518 1.55349,-3.02435 3.04152,-5.87001 3.30673,-6.32367 0.67507,-1.15473 7.24535,-13.81039 9.49209,-18.28367 1.02534,-2.04144 4.36947,-8.53697 7.43141,-14.43447 3.06194,-5.89753 7.50866,-14.645078 9.88164,-19.439008 4.92543,-9.950511 4.76216,-8.920751 1.76703,-11.144679 -1.37444,-1.020527 -1.94513,-1.67384 -2.5851,-2.959313 -0.79504,-1.596917 -0.82114,-1.772688 -0.81666,-5.498836 0.004,-3.39741 0.081,-4.041197 0.65535,-5.484947 0.76505,-1.923181 2.70191,-4.119756 4.01464,-4.552997 1.24382,-0.410504 2.44862,-0.06067 6.86588,1.993253 5.76686,2.681515 8.90519,3.777993 13.68336,4.780706 2.92218,0.613242 4.06594,0.707925 8.72445,0.722267 6.47135,0.01996 8.24308,-0.355852 13.33471,-2.82831 3.70671,-1.799961 6.31141,-2.765489 7.55589,-2.800864 0.98464,-0.02807 9.62993,4.285363 16.36411,8.164466 2.4195,1.3937 4.95583,2.847308 5.63632,3.230207 2.25808,1.270626 7.80581,4.510411 9.89793,5.780265 1.13415,0.688369 3.97979,2.418099 6.32368,3.843835 2.34389,1.425736 5.56071,3.375245 7.1485,4.332246 1.58779,0.957 3.69111,2.260886 4.67402,2.89753 0.98292,0.63663 2.90065,1.880342 4.26161,2.763799 6.29547,4.08663 9.04414,6.49581 9.35898,8.20305 0.0885,0.47997 -0.033,1.38251 -0.27974,2.07701 -2.0223,5.69315 -16.51367,24.59482 -20.43674,26.65644 -0.36502,0.19183 -0.98456,0.25674 -1.45795,0.15277 -1.437,-0.31562 -7.55065,-3.19917 -17.86657,-8.42686 -11.00286,-5.57584 -15.30468,-7.5534 -15.65614,-7.19715 -0.31905,0.32339 -3.06421,5.1889 -4.7082,8.34476 -0.74834,1.43658 -2.84398,5.45761 -4.65694,8.93562 -4.86508,9.3333 -18.42119,36.50337 -19.46392,39.01096 -0.96175,2.31282 -0.90598,2.62948 0.46469,2.63862 0.68004,0.005 2.81094,-1.94929 3.9401,-3.61268 2.61646,-3.85435 4.16739,-6.34734 6.92126,-11.12536 4.34018,-7.53027 4.34904,-7.54589 4.891,-8.62785 0.26512,-0.52927 1.51238,-2.78048 2.77172,-5.0027 1.25936,-2.22221 3.25674,-5.78173 4.43863,-7.91003 l 2.14889,-3.86965 6.5118,0.15898 c 9.61464,0.23473 13.3948,0.56598 14.89633,1.30535 1.08884,0.53614 1.28075,0.77028 1.61144,1.96608 0.33877,1.22504 0.32072,1.56177 -0.18507,3.45155 -1.05972,3.95933 -4.00156,10.20666 -9.38773,19.93581 -4.48139,8.09482 -5.78456,10.52094 -5.78456,10.76909 0,0.14113 1.83882,0.4079 4.08626,0.59283 4.0207,0.33084 7.63727,0.88441 8.24938,1.26272 0.17143,0.1059 0.31171,0.33196 0.31171,0.50222 0,0.36336 -1.60699,3.545 -2.88234,5.70671 -0.49068,0.83169 -1.29746,2.25453 -1.79283,3.16184 -0.49535,0.90731 -1.40916,2.54948 -2.03067,3.64929 -0.62152,1.0998 -1.31738,2.33705 -1.54637,2.74943 -0.22898,0.41238 -1.10628,1.92516 -1.94954,3.36173 -0.84327,1.43658 -2.38502,4.06571 -3.42611,5.84253 -1.40554,2.3988 -2.03305,3.23058 -2.4372,3.23058 -0.29937,0 -2.90062,0.18366 -5.78055,0.40813 -2.87991,0.22446 -5.82458,0.44099 -6.54369,0.48114 l -1.30746,0.073 -1.53686,3.29931 c -3.5458,7.61213 -5.13646,11.72567 -5.46893,14.14296 l -0.19957,1.45112 1.47335,-0.19692 c 1.57747,-0.21086 6.09058,-1.56105 14.24678,-4.26226 5.3538,-1.7731 7.95118,-2.24105 9.27811,-1.67158 0.42603,0.18283 1.56537,1.38991 2.55583,2.70777 1.75542,2.33569 4.13944,5.47034 7.88998,10.3742 1.04089,1.36096 3.27277,4.29458 4.95973,6.51916 1.68697,2.22457 3.53787,4.65714 4.11312,5.4057 0.57524,0.74856 1.91198,2.55933 2.97051,4.02391 1.05852,1.4646 2.42193,3.3005 3.0298,4.07982 0.60788,0.77931 1.5681,2.09741 2.13385,2.92911 0.56574,0.83169 2.29691,3.36981 3.84704,5.64022 6.17331,9.04181 7.72909,12.31413 8.36409,17.59243 0.57216,4.75594 0.32751,5.70065 -2.07364,8.0075 -3.52028,3.38203 -14.14996,9.20462 -20.21035,11.07055 -2.81379,0.86635 -3.23582,0.79957 -4.58539,-0.72566 -1.31365,-1.48463 -4.88679,-6.85023 -7.27795,-10.92895 -6.84471,-11.67535 -9.059,-15.39584 -10.65297,-17.89923 -0.71829,-1.12812 -1.30597,-2.10163 -1.30597,-2.16337 0,-0.23026 -3.04664,-4.3482 -4.11477,-5.56166 l -1.10862,-1.25946 -2.68095,0.8975 c -1.47452,0.49363 -3.05213,1.05609 -3.50578,1.24992 -0.45365,0.19382 -3.97979,1.41022 -7.83586,2.70309 -10.55138,3.53773 -14.37745,4.60419 -22.82022,6.36085 -9.46946,1.97027 -20.21059,2.48714 -27.01909,1.30017 -3.34786,-0.58365 -8.85768,-0.82709 -10.25077,-0.4529 -0.62766,0.1686 -4.21625,5.43585 -9.05796,13.29509 -5.946202,9.65208 -11.057699,16.54952 -12.22345,16.49427 -0.233145,-0.0106 -1.104383,-0.26138 -1.936085,-0.5563 z m 49.698405,-71.25463 c 1.74253,-1.163 4.54418,-5.57841 8.28302,-13.05408 1.25849,-2.51631 2.78086,-6.44738 2.78086,-7.18074 0,-0.7153 -0.91335,-1.13966 -2.45287,-1.13966 -1.30853,0 -1.77789,0.13732 -2.66104,0.7785 -0.97044,0.70456 -3.13437,3.08539 -3.13437,3.44854 0,0.0813 -0.38858,0.80283 -0.86352,1.60338 -1.42221,2.39724 -5.46328,10.33769 -6.72919,13.22245 -1.25819,2.86714 -1.26358,2.83027 0.44421,3.03887 1.66817,0.20375 3.3767,-0.079 4.3329,-0.71726 z m -38.915645,-9.59106 c 2.664655,-2.72319 6.262935,-8.71483 6.263455,-10.42953 2.7e-4,-1.01455 -0.99743,-1.81256 -2.879,-2.30264 -1.33719,-0.3483 -3.529955,-0.42597 -12.025448,-0.42597 -5.714521,0 -10.387291,0.0927 -10.383932,0.20621 0.0035,0.11348 0.248059,0.51551 0.543773,0.89357 0.295713,0.37804 0.540411,0.79729 0.543772,0.93166 0.01553,0.62044 3.182729,4.92609 4.528006,6.1556 2.145393,1.96077 5.508569,4.25555 7.875484,5.37365 1.762532,0.8326 2.395067,1.0492 3.64663,1.24876 0.12916,0.0206 0.97842,-0.72248 1.88726,-1.65131 z m 24.370925,-41.74841 c 1.01484,-0.007 3.71904,-2.98082 6.50009,-7.15091 1.36098,-2.04072 2.6231,-3.99185 2.80473,-4.33586 0.18162,-0.344 0.75755,-1.3344 1.27983,-2.20086 2.24388,-3.72265 5.18473,-8.7314 7.34291,-12.50624 1.27582,-2.23149 2.44503,-4.27294 2.59825,-4.53656 0.15322,-0.2636 0.77185,-1.3446 1.37471,-2.40221 0.60287,-1.0576 1.24588,-2.17112 1.42893,-2.47448 0.18302,-0.30337 0.48666,-0.86087 0.67471,-1.23892 0.18806,-0.37804 1.4302,-2.5631 2.76031,-4.85568 1.33012,-2.29257 2.41839,-4.22697 2.41839,-4.29866 0,-0.0717 1.0348,-1.90765 2.29955,-4.07995 1.26476,-2.17228 2.66716,-4.63009 3.11645,-5.4618 2.42266,-4.48468 2.92054,-5.38552 3.11514,-5.63632 0.53956,-0.69538 4.73226,-9.3168 5.21933,-10.73248 0.65063,-1.89108 0.681,-2.64445 0.14817,-3.67484 -0.47256,-0.91381 -2.07864,-2.37813 -2.89129,-2.636039 -1.35029,-0.42857 -4.51506,2.562409 -7.01829,6.632909 -1.88166,3.05973 -2.34941,3.84587 -2.6771,4.4992 -0.18962,0.37804 -1.05727,1.89511 -1.92813,3.37125 -0.87085,1.47615 -1.58337,2.75506 -1.58337,2.84202 0,0.087 -0.97004,1.91044 -2.15565,4.05218 -2.66235,4.80942 -3.85197,7.02218 -6.23228,11.59246 -1.02387,1.96585 -3.68367,7.03853 -5.91067,11.27265 -4.19737,7.98029 -10.04194,19.52637 -13.49536,26.66038 -2.30417,4.75994 -2.66242,6.36903 -1.58752,7.1304 0.35749,0.25321 0.89744,0.39554 1.19988,0.31626 0.30243,-0.0793 0.84167,-0.14582 1.19828,-0.1479 z"
       style="fill:#ffcc00;fill-opacity:1;stroke-width:0.274943"
       id="path2"
       sodipodi:nodetypes="sssssscssssssssssssssssssssssssssssssssssssssssssssssssssssssssssssssscsssssssssssssssssscsscssssssssssssssssssscsssssssssssssssssssscsssssssssssssssssssssssssssssssssssss" />
  </g>
</svg>
